<svg width="115" height="39" viewBox="0 0 115 39" fill="none" xmlns="http://www.w3.org/2000/svg">
<g clip-path="url(#clip0)">
<path d="M18 10C19.3261 10 20.5979 9.47322 21.5355 8.53553C22.4732 7.59785 23 6.32608 23 5C23 3.67392 22.4732 2.40215 21.5355 1.46447C20.5979 0.526784 19.3261 0 18 0C16.6739 0 15.4021 0.526784 14.4645 1.46447C13.5268 2.40215 13 3.67392 13 5C13 6.32608 13.5268 7.59785 14.4645 8.53553C15.4021 9.47322 16.6739 10 18 10Z" fill="#64A4C4"/>
<path d="M30 17C31.3261 17 32.5979 16.4732 33.5355 15.5355C34.4732 14.5979 35 13.3261 35 12C35 10.6739 34.4732 9.40215 33.5355 8.46447C32.5979 7.52678 31.3261 7 30 7C28.6739 7 27.4021 7.52678 26.4645 8.46447C25.5268 9.40215 25 10.6739 25 12C25 13.3261 25.5268 14.5979 26.4645 15.5355C27.4021 16.4732 28.6739 17 30 17Z" fill="#ACCAED"/>
<path d="M5 32C6.32608 32 7.59785 31.4732 8.53553 30.5355C9.47322 29.5979 10 28.3261 10 27C10 25.6739 9.47322 24.4021 8.53553 23.4645C7.59785 22.5268 6.32608 22 5 22C3.67392 22 2.40215 22.5268 1.46447 23.4645C0.526784 24.4021 0 25.6739 0 27C0 28.3261 0.526784 29.5979 1.46447 30.5355C2.40215 31.4732 3.67392 32 5 32Z" fill="#3C7197"/>
<path d="M9.74505 10.703C9.55505 9.55795 8.60705 8.41295 7.47005 7.64995C5.00605 6.31495 1.97305 7.07795 0.646047 9.55795C-0.680953 12.039 0.0770469 15.092 2.54205 16.428C2.92105 16.809 3.30005 16.809 3.86805 17H6.14305L16 14.329C12.588 15.283 10.693 14.329 9.74505 10.703Z" fill="#64A4C4"/>
<path d="M6 17.463C9.583 16.554 11.573 17.645 12.568 20.915C12.768 21.824 13.365 22.551 14.161 23.095H13.961C16.549 25.458 16.549 27.456 13.961 30L21.525 23.096H21.326C21.724 22.732 22.123 22.55 22.322 22.187C23.715 19.825 22.919 16.917 20.332 15.646C19.137 14.919 17.544 14.919 16.35 15.101L6 17.463Z" fill="#3C7197"/>
<path d="M21.518 30.238C19.111 27.762 19.111 25.667 21.518 23L14.481 30.238C13.556 31.191 13 32.333 13 33.858C13 36.713 15.222 39 18 39C20.778 39 23 36.714 23 33.857C22.815 32.333 22.26 31 21.518 30.238Z" fill="#123467"/>
<path d="M33.766 27.18C34.6433 27.18 35.3247 27.3713 35.81 27.754C36.3047 28.1273 36.552 28.678 36.552 29.406C36.552 29.9473 36.398 30.372 36.09 30.68C35.7913 30.9787 35.4133 31.1887 34.956 31.31C35.2173 31.3567 35.46 31.4407 35.684 31.562C35.908 31.674 36.104 31.8233 36.272 32.01C36.44 32.1967 36.5707 32.4207 36.664 32.682C36.7667 32.934 36.818 33.2187 36.818 33.536C36.818 33.9 36.7387 34.236 36.58 34.544C36.4213 34.8427 36.202 35.0993 35.922 35.314C35.642 35.5287 35.3107 35.6967 34.928 35.818C34.5453 35.9393 34.1253 36 33.668 36H31.12V27.18H33.766ZM32.408 30.862H33.458C33.6913 30.862 33.9153 30.8433 34.13 30.806C34.3447 30.7687 34.5313 30.6987 34.69 30.596C34.858 30.4933 34.9887 30.358 35.082 30.19C35.1847 30.0127 35.236 29.784 35.236 29.504C35.236 29.056 35.082 28.7293 34.774 28.524C34.4753 28.3187 34.074 28.216 33.57 28.216H32.408V30.862ZM32.408 34.964H33.528C33.7893 34.964 34.0367 34.9407 34.27 34.894C34.5033 34.838 34.7087 34.7493 34.886 34.628C35.0633 34.5067 35.2033 34.348 35.306 34.152C35.418 33.9467 35.474 33.6993 35.474 33.41C35.474 33.1207 35.4087 32.8827 35.278 32.696C35.1567 32.5 34.9933 32.3413 34.788 32.22C34.5827 32.0987 34.3493 32.0147 34.088 31.968C33.8267 31.912 33.5653 31.884 33.304 31.884H32.408V34.964ZM44.5055 32.64C44.5055 33.1907 44.4215 33.6853 44.2535 34.124C44.0855 34.5533 43.8522 34.9173 43.5535 35.216C43.2642 35.5147 42.9235 35.7433 42.5315 35.902C42.1395 36.0513 41.7149 36.126 41.2575 36.126C40.8002 36.126 40.3755 36.056 39.9835 35.916C39.6009 35.7667 39.2649 35.552 38.9755 35.272C38.6955 34.9827 38.4715 34.6327 38.3035 34.222C38.1449 33.802 38.0655 33.3213 38.0655 32.78C38.0655 32.2293 38.1495 31.7393 38.3175 31.31C38.4855 30.8807 38.7142 30.5213 39.0035 30.232C39.3022 29.9333 39.6475 29.7093 40.0395 29.56C40.4315 29.4013 40.8562 29.322 41.3135 29.322C41.7709 29.322 42.1909 29.392 42.5735 29.532C42.9655 29.672 43.3015 29.882 43.5815 30.162C43.8709 30.442 44.0949 30.792 44.2535 31.212C44.4215 31.6227 44.5055 32.0987 44.5055 32.64ZM43.2175 32.71C43.2175 32.2713 43.1615 31.898 43.0495 31.59C42.9375 31.282 42.7882 31.03 42.6015 30.834C42.4242 30.638 42.2189 30.498 41.9855 30.414C41.7522 30.3207 41.5142 30.274 41.2715 30.274C41.0289 30.274 40.7909 30.3113 40.5575 30.386C40.3242 30.4607 40.1189 30.5913 39.9415 30.778C39.7642 30.9647 39.6195 31.2167 39.5075 31.534C39.4049 31.842 39.3535 32.234 39.3535 32.71C39.3535 33.1487 39.4095 33.5267 39.5215 33.844C39.6335 34.152 39.7782 34.404 39.9555 34.6C40.1422 34.796 40.3522 34.9407 40.5855 35.034C40.8189 35.1273 41.0569 35.174 41.2995 35.174C41.5422 35.174 41.7802 35.1367 42.0135 35.062C42.2469 34.978 42.4522 34.8427 42.6295 34.656C42.8069 34.46 42.9469 34.208 43.0495 33.9C43.1615 33.5827 43.2175 33.186 43.2175 32.71ZM50.3727 26.06H51.6047V36H50.5687L50.4147 35.272H50.3727C50.0834 35.5707 49.7894 35.79 49.4907 35.93C49.2014 36.0607 48.8327 36.126 48.3847 36.126C48.0301 36.126 47.6847 36.056 47.3487 35.916C47.0221 35.776 46.7281 35.566 46.4667 35.286C46.2054 35.006 45.9954 34.656 45.8367 34.236C45.6781 33.8067 45.5987 33.3027 45.5987 32.724C45.5987 32.2107 45.6641 31.744 45.7947 31.324C45.9347 30.904 46.1307 30.5447 46.3827 30.246C46.6347 29.9473 46.9427 29.7187 47.3067 29.56C47.6707 29.4013 48.0861 29.322 48.5527 29.322C48.8981 29.322 49.2247 29.378 49.5327 29.49C49.8501 29.5927 50.1301 29.7513 50.3727 29.966V26.06ZM50.3727 31.002C49.9341 30.5073 49.4161 30.26 48.8187 30.26C48.5667 30.26 48.3194 30.3067 48.0767 30.4C47.8434 30.484 47.6334 30.624 47.4467 30.82C47.2694 31.016 47.1247 31.268 47.0127 31.576C46.9007 31.884 46.8447 32.2527 46.8447 32.682C46.8447 33.13 46.8961 33.5127 46.9987 33.83C47.1014 34.138 47.2367 34.3947 47.4047 34.6C47.5821 34.796 47.7781 34.9407 47.9927 35.034C48.2167 35.1273 48.4407 35.174 48.6647 35.174C49.3647 35.174 49.9341 34.8707 50.3727 34.264V31.002ZM52.6846 29.42H54.0006L55.4006 33.186L55.8766 34.754H55.9046L56.3806 33.186L57.6546 29.42H58.9146L56.3806 36.56C56.1006 37.3533 55.7459 37.974 55.3166 38.422C54.8966 38.87 54.3926 39.1967 53.8046 39.402L53.2726 38.422C53.7113 38.254 54.0986 38.0113 54.4346 37.694C54.7799 37.3767 55.0459 36.938 55.2326 36.378L55.3586 36L52.6846 29.42ZM63.2352 36V27.18H64.5232V30.89H68.7092V27.18H69.9972V36H68.7092V31.982H64.5232V36H63.2352ZM77.6497 32.85H72.9317V32.906C72.9317 33.634 73.1277 34.194 73.5197 34.586C73.921 34.978 74.4623 35.174 75.1437 35.174C75.4983 35.174 75.811 35.146 76.0817 35.09C76.3617 35.034 76.665 34.9407 76.9917 34.81L77.2437 35.72C76.973 35.8413 76.651 35.9393 76.2777 36.014C75.9137 36.0887 75.5217 36.126 75.1017 36.126C74.6257 36.126 74.1777 36.0607 73.7577 35.93C73.347 35.7993 72.983 35.5987 72.6657 35.328C72.3483 35.048 72.0963 34.6933 71.9097 34.264C71.7323 33.8347 71.6437 33.3213 71.6437 32.724C71.6437 32.2107 71.7183 31.744 71.8677 31.324C72.0263 30.904 72.2457 30.5493 72.5257 30.26C72.8057 29.9613 73.1417 29.7327 73.5337 29.574C73.935 29.406 74.383 29.322 74.8777 29.322C75.2977 29.322 75.6757 29.392 76.0117 29.532C76.357 29.672 76.651 29.868 76.8937 30.12C77.1363 30.372 77.323 30.6753 77.4537 31.03C77.5843 31.3847 77.6497 31.7767 77.6497 32.206V32.85ZM76.3757 31.968C76.3757 31.7253 76.343 31.5013 76.2777 31.296C76.2217 31.0813 76.1283 30.8947 75.9977 30.736C75.8763 30.5773 75.7177 30.4513 75.5217 30.358C75.3257 30.2647 75.0877 30.218 74.8077 30.218C74.2943 30.218 73.8743 30.3813 73.5477 30.708C73.2303 31.0347 73.0343 31.464 72.9597 31.996L76.3757 31.968ZM79.1603 36V26.06H80.3643V36H79.1603ZM85.0609 36.126C84.7622 36.126 84.4729 36.084 84.1929 36C83.9222 35.916 83.6889 35.804 83.4929 35.664V39.22H82.2749V29.322H83.2969L83.4789 30.176C83.7309 29.9427 84.0156 29.742 84.3329 29.574C84.6502 29.406 85.0236 29.322 85.4529 29.322C86.3302 29.322 87.0209 29.602 87.5249 30.162C88.0289 30.722 88.2809 31.5247 88.2809 32.57C88.2809 33.186 88.1876 33.718 88.0009 34.166C87.8236 34.614 87.5809 34.9827 87.2729 35.272C86.9742 35.5613 86.6289 35.776 86.2369 35.916C85.8542 36.056 85.4622 36.126 85.0609 36.126ZM85.1869 30.33C84.7949 30.33 84.4542 30.428 84.1649 30.624C83.8756 30.8107 83.6516 31.002 83.4929 31.198V34.712C83.7076 34.8707 83.9362 34.9873 84.1789 35.062C84.4216 35.1367 84.6642 35.174 84.9069 35.174C85.1589 35.174 85.4109 35.132 85.6629 35.048C85.9149 34.9547 86.1389 34.8053 86.3349 34.6C86.5309 34.3947 86.6896 34.1287 86.8109 33.802C86.9322 33.4753 86.9929 33.074 86.9929 32.598C86.9929 31.898 86.8436 31.3473 86.5449 30.946C86.2556 30.5353 85.8029 30.33 85.1869 30.33ZM95.3684 32.85H90.6504V32.906C90.6504 33.634 90.8464 34.194 91.2384 34.586C91.6397 34.978 92.1811 35.174 92.8624 35.174C93.2171 35.174 93.5297 35.146 93.8004 35.09C94.0804 35.034 94.3837 34.9407 94.7104 34.81L94.9624 35.72C94.6917 35.8413 94.3697 35.9393 93.9964 36.014C93.6324 36.0887 93.2404 36.126 92.8204 36.126C92.3444 36.126 91.8964 36.0607 91.4764 35.93C91.0657 35.7993 90.7017 35.5987 90.3844 35.328C90.0671 35.048 89.8151 34.6933 89.6284 34.264C89.4511 33.8347 89.3624 33.3213 89.3624 32.724C89.3624 32.2107 89.4371 31.744 89.5864 31.324C89.7451 30.904 89.9644 30.5493 90.2444 30.26C90.5244 29.9613 90.8604 29.7327 91.2524 29.574C91.6537 29.406 92.1017 29.322 92.5964 29.322C93.0164 29.322 93.3944 29.392 93.7304 29.532C94.0757 29.672 94.3697 29.868 94.6124 30.12C94.8551 30.372 95.0417 30.6753 95.1724 31.03C95.3031 31.3847 95.3684 31.7767 95.3684 32.206V32.85ZM94.0944 31.968C94.0944 31.7253 94.0617 31.5013 93.9964 31.296C93.9404 31.0813 93.8471 30.8947 93.7164 30.736C93.5951 30.5773 93.4364 30.4513 93.2404 30.358C93.0444 30.2647 92.8064 30.218 92.5264 30.218C92.0131 30.218 91.5931 30.3813 91.2664 30.708C90.9491 31.0347 90.7531 31.464 90.6784 31.996L94.0944 31.968ZM96.7951 36V29.42H97.7191L97.9291 30.736C98.0878 30.316 98.3491 29.9753 98.7131 29.714C99.0771 29.4527 99.4971 29.322 99.9731 29.322C100.216 29.322 100.416 29.3407 100.575 29.378C100.734 29.4153 100.878 29.462 101.009 29.518L100.771 30.596C100.659 30.54 100.533 30.4933 100.393 30.456C100.262 30.4187 100.104 30.4 99.9171 30.4C99.6464 30.4 99.3944 30.4467 99.1611 30.54C98.9371 30.6333 98.7364 30.7733 98.5591 30.96C98.3911 31.1467 98.2558 31.38 98.1531 31.66C98.0598 31.9307 98.0131 32.2433 98.0131 32.598V36H96.7951Z" fill="#123467"/>
</g>
<defs>
<clipPath id="clip0">
<rect width="115" height="39" fill="white"/>
</clipPath>
</defs>
</svg>
