<?xml version="1.0" encoding="utf-8"?><svg xmlns="http://www.w3.org/2000/svg" xmlns:xlink="http://www.w3.org/1999/xlink"><symbol viewBox="0 0 80 93" id="decor-list--big"><path opacity=".4" d="M21.39 5.003c-.326 4.467-.392 5.972-.485 11.068l-.042 2.701-.723-.735-.726-.755.045-1.695c.038-1.364-.05-2.14-.453-3.738-.28-1.122-.81-3.507-1.197-5.303-.39-1.815-.703-3.278-.732-3.233-.015.023-.024 1.342-.029 2.95-.005 3.237.443 6.415 1.243 8.78.264.777.46 1.413.422 1.421-.019.004-.23-.164-.453-.387-.321-.319-.6-1.072-1.134-3.108-.785-2.93-.755-2.88-3.123-5.664-.622-.719-.947-1.327-1.242-2.251-.522-1.613-.614-.954-.171 1.199.39 1.91.993 3.448 2.084 5.267.466.81.844 1.484.83 1.507-.015.022-.808-.408-1.781-.954-1.631-.89-8.967-4.061-9.074-3.922-.091.117 4.756 4.113 6.194 5.102 1.374.964 3.464 1.813 5.507 2.265 1.081.233 2.3.92 2.39 1.347.025.11-.365.02-.879-.199-1.684-.684-3.371-1.02-5.446-1.078-2.094-.054-5.223.056-5.874.196-.424.11 6.47 1.497 8.544 1.73.778.085 2.062.177 2.88.176l1.485.03.96 1.208c.535.68.926 1.235.87 1.246-.055.012-1.546-.404-3.314-.935-1.768-.53-3.808-1.06-4.534-1.176-1.345-.196-9.91-.566-9.993-.412-.044.068 5.169 1.234 9.808 2.175 1.017.208 3.395.589 5.316.835 3.446.461 4.012.65 4.22 1.438.028.13-1.075-.021-2.44-.31-3.566-.745-4.492-.798-8.137-.557-3.609.232-5.316.076-9.433-.88-1.29-.305-2.39-.534-2.447-.522-.055.012.576.322 1.394.69 1.932.843 4.119 1.42 6.615 1.717 1.08.136 2.91.499 4.044.798 2.913.788 6.778 1.024 10.239.65l1.237-.13.585.823c.335.47.56.887.535.95-.048.05-2.087-.113-4.542-.4-5.044-.564-7.209-.583-10.881-.105-1.4.185-3.83.474-5.386.653-3.092.373-3.245.387-3.11.474.046.029 2.036.144 4.41.235 2.374.09 5.241.211 6.384.276 3.225.16 7.038.155 10.502-.027 1.752-.086 3.29-.087 3.429.02.293.188 2.146 2.928 2.073 3.04-.029.046-2.161-.368-4.75-.916-2.57-.553-5.626-1.098-6.78-1.218-1.812-.192-14.956-.14-15.069.058-.073.113 10.755 1.604 16.043 2.213 2.634.306 6.265.63 8.072.707 2.967.138 3.33.196 3.57.59.15.239.61.934 1.017 1.564l.732 1.14-1.164-.253c-.636-.154-2.728-.654-4.623-1.139-5.862-1.473-7.121-1.628-13.334-1.65-2.414-.005-5.376-.028-6.604-.036-1.209-.011-2.239-.003-2.268.042-.03.045.828.229 1.916.402 1.07.177 4.06.697 6.611 1.157 7.286 1.303 10.134 1.699 15.352 2.167l4.864.447.998 1.568c.538.873.973 1.631.925 1.68-.025.064-3.114-.455-6.843-1.146-6.541-1.19-6.858-1.22-9.562-1.123-2.95.13-4.209-.027-10.506-1.348-4.074-.85-4.583-.953-4.567-.88.008.038.705.295 1.541.561.82.289 2.19.77 3 1.1 2.021.805 4.197 1.423 6.722 1.946 1.178.232 2.418.566 2.786.739 1.34.623 3.569 1.306 5.398 1.67 2.21.416 4.506.504 9.253.318 1.914-.062 3.6-.095 3.764-.053.146.046.65.674 1.12 1.406.83 1.333.83 1.333.393 1.291-.235-.008-3.547-.478-7.36-1.016-6.982-.98-7.774-1.042-13.012-.79-1.003.042-3.696.097-5.99.105-2.291.027-4.19.066-4.215.13-.03.045.33.084.822.114 1.568.05 7.128.659 9.106.99 1.07.177 2.93.688 4.138 1.145 4.413 1.706 6.83 1.904 17.55 1.443.56-.023.658.072 1.387 1.29.427.723.775 1.345.742 1.372-.03.045-.877-.006-1.908-.094-3.018-.282-6.673-.447-8.452-.394-.906.04-3.726.413-6.26.84-3.772.655-4.874.776-5.984.684-1.942-.164-4.765-.894-7.087-1.83-1.11-.458-2.054-.778-2.08-.715-.234.36 4.402 2.736 6.713 3.44 2.289.69 3.782.758 7.123.37 3.76-.44 5.368-.378 7.56.314 1.525.486 3.102.4 7.33-.392l3.967-.736 1.142 1.963c.622 1.087 1.12 2.046 1.103 2.146-.028.142-1.389-.031-10.704-1.363-5.117-.722-7.243-.653-15.328.482-3.377.493-6.166.917-6.2.944-.076.094-.035.104 3.466.186 3.597.08 7.038.426 11.89 1.185 7.093 1.131 7.799 1.154 14.182.52 1.96-.208 3.63-.314 3.697-.27.189.153 1.597 2.814 1.542 2.922-.029.046-3.539-.44-7.778-1.06-8.647-1.302-8.605-1.291-13.278-1.121-1.854.068-5.613.14-8.318.14-2.724.003-5.056.019-5.149.039-.107.042.969.16 2.377.284 6.518.538 10.657 1.237 13.207 2.24 5.019 1.983 7.538 2.294 16.41 2.017l3.942-.13.868 1.596c.482.885.83 1.604.793 1.612-.037.008-1.32-.259-2.865-.567-4.24-.891-5.573-1.03-9.24-.98-6.29.072-6.572.114-14.866 1.817-4.83.979-7.389 1.567-6.956 1.59.373.017 1.666-.125 2.85-.321 3.932-.631 7.337-.452 12.713.66 4.523.947 8.553.954 17.574.101 2.158-.192 2.135-.206 2.732 1.215l.27.62-1.732.004c-.936-.012-3.302-.066-5.24-.115-5.266-.147-6.51-.054-11.778.883-2.624.466-6.191.98-7.932 1.121-3.074.273-8.57.6-9.588.567-.273 0-.459.04-.39.084.202.131 7.09.667 8.41.655 1.57-.028 4.67.179 7.428.517 6.33.752 9.368.584 17.768-.987 2.267-.41 4.143-.735 4.188-.706.064.026 1.663 3.033 1.691 3.163.004.018-.639-.076-1.428-.216-.793-.16-2.273-.345-3.308-.453l-1.868-.18-5.357 1.15c-5.655 1.215-8.993 2.164-15.258 4.342-5.196 1.813-5.391 1.99-1.35 1.142 3.203-.668 4.551-.822 9.055-1.053 1.85-.087 12.791-1.875 16.81-2.737 3.44-.739 3.422-.735 4.058.504.406.804.476 1.04.29 1.08-.13.028-1.671.01-3.437-.056-3.154-.098-3.25-.096-5.895.549-3.068.756-3.575 1.02-5.809 3.126-1.311 1.231-4.547 4.832-5.53 6.147l-.45.62.571-.51c.31-.28 1.71-1.55 3.093-2.815 3.447-3.162 3.928-3.459 6.346-3.978 1.488-.32 2.368-.392 3.727-.316 1.572.07 2.142.006 5.08-.625l3.312-.711.345.7c.2.384.483.981.67 1.31.169.331.319.667.33.723.013.055-.65.14-1.46.178-2.33.112-6.057.97-7.882 1.808-2.002.914-2.378 1.247-3.275 2.873-.98 1.78-1.224 2.18-1.787 2.824l-.466.546.697-.557c2.054-1.583 4.256-2.657 6.525-3.144.968-.208 2.776-.848 4.865-1.722 1.837-.782 3.407-1.352 3.498-1.294.184.135 3.318 6.572 4.344 8.908.343.78.657 1.428.703 1.457.135.088.977-2.244.914-2.54-.048-.222-5.495-10.366-6.029-11.22-.122-.206.414-.34 3.484-.903 2.718-.486 4.198-.843 5.828-1.406 4.401-1.526 4.627-1.652 9.021-5.113 2.212-1.754 4.013-3.245 3.997-3.319-.012-.055-.16-.023-.312.087-1.469.954-8.374 4.684-9.295 5.017-.65.236-2.754.766-4.708 1.185-3.18.683-3.783.87-6.112 1.894-1.425.615-2.597 1.138-2.615 1.142-.075.016-1.024-1.775-1.08-2.034-.027-.13 2.175-2.017 4.9-4.19 2.706-2.17 5.492-4.512 6.162-5.198.703-.712 2.482-3.032 4.115-5.397 1.57-2.293 3.895-5.602 5.174-7.348 3.504-4.801 3.565-4.97.737-1.553-1.81 2.17-3.91 3.997-7.69 6.687-3.26 2.308-4.74 3.846-10.776 11.264l-3.495 4.295-.677-1.25c-.382-.692-.803-1.474-.978-1.746a6.03 6.03 0 01-.294-.557c-.012-.055 4.28-4.173 6.617-6.34 3.49-3.23 5.844-6.04 6.979-8.28 1.061-2.125 4.65-10.063 4.614-10.23-.016-.074-1.494 2.103-3.279 4.85l-3.27 4.983-3.751 2.916c-4.27 3.32-5.277 4.427-7.453 8.07-.715 1.2-1.363 2.172-1.43 2.129-.181-.117-2.165-3.74-2.26-4.087-.067-.315 2.433-2.266 6.411-5.037 2.048-1.428 4.55-3.457 5.637-4.562.45-.445 1.917-2.31 3.296-4.136a301.687 301.687 0 015.006-6.5c3.436-4.301 3.761-4.778 1.632-2.461-2.015 2.215-4.26 3.995-8.019 6.429-3.607 2.324-5.405 4.008-11.452 10.827-1.82 2.038-3.377 3.67-3.463 3.63-.188-.057-1.044-1.597-.948-1.695.22-.241 4.569-4.37 6.128-5.81 2.646-2.447 4.92-4.814 5.851-6.099.436-.597 1.371-2.135 2.067-3.427a380.289 380.289 0 016.463-11.228c1.044-1.755 1.868-3.171 1.812-3.16-.074.017-.87 1.117-1.784 2.476-2.072 3.04-4.034 5.05-8.485 8.698-2.613 2.15-4.393 4.372-9.604 12.097l-3.352 4.962-.795-1.437c-.443-.796-.872-1.615-.938-1.833-.101-.288.42-.942 2.728-3.336 3.419-3.563 3.477-3.653 7.047-8.507 1.55-2.114 3.256-4.321 3.812-4.905 1.232-1.33 5.09-4.929 8.041-7.5 1.195-1.05 2.14-1.912 2.113-1.945-.249-.16-16.37 12.58-17.92 14.153-1.597 1.622-4.663 6.832-5.94 10.128-.177.445-.37.816-.444.832-.112.024-2.18-3.716-2.263-4.105-.024-.111.96-1.33 2.207-2.683 7.947-8.757 9.145-10.7 11.92-19.16 1.909-5.795 3.373-11.03 3.076-10.966-.038.008-.763 1.617-1.606 3.58-1.173 2.692-2.116 4.464-3.866 7.28-1.275 2.037-3.122 5.126-4.088 6.883-1.6 2.881-8.276 13.206-8.592 13.274-.13.028-1.885-2.888-1.79-2.986.328-.38 7.656-9.392 8.742-10.768 1.801-2.305 3.644-5.413 4.397-7.434.325-.845 1.472-3.842 2.58-6.656 1.09-2.81 2.129-5.494 2.302-5.957l.306-.84-.367.466c-.202.237-1.487 2.14-2.874 4.2a1542.937 1542.937 0 01-5.99 8.9c-3.637 5.352-5.141 7.864-8.005 13.38-.92 1.786-1.743 3.3-1.828 3.356-.067.053-.511-.568-.973-1.36L37 41.459l2.844-5.337c5.03-9.468 5.305-10.185 6.667-16.619.475-2.232 1.188-5.524 1.583-7.313 1.108-5.08 1.134-5.048-.465-1.256-.593 1.406-2.294 5.355-3.779 8.773-3.154 7.244-4.265 10.136-5.944 15.456a301.87 301.87 0 01-1.433 4.473l-.201.604-1.326-2.098-1.322-2.08 2.554-5.139c3.707-7.479 3.682-7.415 5.423-16.254.626-3.157 1.162-5.829 1.198-5.933.04-.086.024-.16-.032-.148-.149.032-6.188 15.14-7.007 17.486a139.147 139.147 0 00-1.708 5.46c-.535 1.86-1.056 3.327-1.17 3.255-.202-.131-1.915-2.67-1.966-2.91-.02-.093 1.03-2.817 2.314-6.076 1.308-3.245 2.443-6.297 2.548-6.804.105-.507.324-2.297.507-3.983s.549-4.787.834-6.901c.29-2.096.509-3.887.489-3.98-.016-.073-.293.993-.614 2.399-.843 3.687-1.717 6.413-3.382 10.625-1.632 4.089-2.46 6.94-3.09 10.62-.24 1.33-.46 2.482-.518 2.572-.066.15-2.109-2.57-2.18-2.903-.016-.074.617-2.38 1.424-5.149 1.223-4.272 1.459-5.35 1.572-7.272.065-1.234.247-4.102.386-6.36.156-2.26.221-4.134.176-4.163-.045-.03-.143.515-.25 1.196-.331 2.532-.927 5.197-2.206 10.024-1.223 4.544-1.39 5.49-1.915 10.387-.023.257-1.565-1.581-1.653-1.989-.016-.074.73-2.674 1.663-5.761 1.104-3.647 1.676-5.88 1.639-6.415-.017-.442.111-2.833.321-5.3.192-2.462.319-4.407.26-4.317-.31.55-2.707 11.41-3.41 15.474-.45 2.615-.856 4.988-.912 5.27-.11.49-.132.475-1.004-.597l-.876-1.09 1.042-4.66c.745-3.24 1.074-5.151 1.081-6.296 0-.91.072-3.018.125-4.676.071-1.662.11-3.026.083-3.059-.154-.083-1.832 10.776-2.176 14.066-.219 2.062-.46 3.838-.496 3.942-.059.09-.395-.206-.744-.654l-.627-.834.553-2.501c.924-4.305 1.054-5.786.68-8.34-.169-1.243-.4-3.498-.487-4.99-.09-1.511-.208-2.784-.272-2.809-.045-.03-.224 1.947-.411 4.428z"/></symbol><symbol viewBox="0 0 50 58" id="decor-list--small"><path opacity=".4" d="M36.318 3.609c.2 2.746.24 3.672.298 6.805l.026 1.661.444-.452.447-.464-.028-1.043c-.023-.838.031-1.315.278-2.298.172-.69.5-2.156.736-3.26.24-1.116.433-2.015.451-1.988.009.014.014.825.017 1.814.004 1.99-.272 3.944-.764 5.398-.162.478-.282.869-.26.874.012.002.142-.101.28-.238.197-.196.368-.66.697-1.911.482-1.802.464-1.77 1.92-3.482.382-.442.582-.816.764-1.385.32-.99.377-.586.104.738-.24 1.175-.61 2.12-1.281 3.238-.286.498-.519.913-.51.926.009.014.497-.25 1.095-.586 1.003-.547 5.513-2.497 5.579-2.411.056.071-2.924 2.528-3.808 3.136-.846.593-2.13 1.115-3.386 1.393-.665.143-1.414.566-1.47.828-.015.068.224.013.54-.122 1.036-.42 2.073-.627 3.35-.663 1.286-.033 3.21.035 3.61.12.261.069-3.978.921-5.253 1.064a19.28 19.28 0 01-1.77.108l-.913.019-.59.742c-.33.418-.57.76-.536.767.035.007.951-.249 2.038-.575 1.087-.326 2.341-.652 2.788-.723.827-.12 6.092-.348 6.143-.253.027.041-3.177.758-6.03 1.337-.625.128-2.087.362-3.268.513-2.119.284-2.467.4-2.595.884-.017.08.661-.013 1.5-.19 2.193-.458 2.762-.49 5.004-.343 2.218.143 3.268.046 5.799-.541.794-.187 1.47-.328 1.504-.32.035.007-.353.197-.857.423-1.188.519-2.532.873-4.067 1.056-.664.084-1.788.307-2.486.49-1.79.485-4.167.63-6.295.4l-.76-.08-.36.506c-.206.29-.345.546-.33.585.03.03 1.284-.07 2.794-.247 3.1-.346 4.431-.358 6.69-.064.86.114 2.353.291 3.31.402 1.902.229 1.996.237 1.912.29-.028.019-1.251.09-2.71.145-1.46.056-3.223.13-3.925.17a66.32 66.32 0 01-6.457-.017c-1.078-.052-2.023-.053-2.109.012-.18.116-1.32 1.801-1.274 1.87.018.028 1.328-.227 2.92-.564 1.58-.34 3.46-.674 4.169-.748 1.114-.118 9.195-.087 9.264.035.045.07-6.612.987-9.863 1.36-1.62.189-3.852.388-4.963.436-1.824.084-2.047.12-2.195.362-.091.147-.375.575-.625.962l-.45.701.716-.156c.39-.095 1.677-.402 2.842-.7 3.604-.905 4.378-1.001 8.197-1.015 1.485-.003 3.306-.017 4.06-.021.744-.008 1.377-.003 1.395.025.018.028-.509.141-1.178.247-.657.11-2.496.43-4.064.712-4.48.8-6.23 1.044-9.439 1.332l-2.99.275-.614.964c-.33.536-.598 1.003-.569 1.033.016.04 1.915-.28 4.207-.704 4.022-.733 4.217-.75 5.88-.691 1.813.08 2.587-.017 6.459-.829 2.504-.522 2.817-.586 2.807-.54-.004.022-.433.18-.947.344-.505.177-1.346.473-1.844.676-1.243.495-2.58.875-4.133 1.197-.725.142-1.487.348-1.713.454-.824.383-2.194.803-3.319 1.026-1.359.256-2.77.31-5.689.196-1.176-.038-2.213-.058-2.314-.032-.09.028-.4.414-.688.864-.51.82-.51.82-.242.794.144-.005 2.18-.294 4.525-.625 4.293-.602 4.78-.64 8-.485.617.025 2.273.059 3.683.064 1.408.017 2.576.04 2.591.08.018.028-.202.052-.505.07-.964.031-4.382.405-5.599.608-.657.11-1.801.423-2.544.705-2.713 1.049-4.199 1.17-10.79.887-.344-.015-.404.044-.852.793-.263.444-.477.827-.457.843.018.028.54-.003 1.173-.058 1.856-.173 4.103-.274 5.197-.242.557.025 2.29.254 3.849.517 2.318.403 2.996.477 3.678.42 1.195-.1 2.93-.55 4.358-1.124.682-.282 1.263-.48 1.278-.44.144.221-2.706 1.682-4.127 2.115-1.407.424-2.325.466-4.38.227-2.31-.27-3.3-.232-4.647.193-.938.299-1.907.246-4.506-.241l-2.44-.452-.702 1.207c-.382.668-.688 1.257-.678 1.32.018.086.854-.02 6.581-.839 3.146-.444 4.453-.402 9.424.296 2.076.303 3.791.564 3.811.58.048.058.023.065-2.13.115-2.212.049-4.327.262-7.31.729-4.361.695-4.795.71-8.72.32-1.204-.128-2.231-.194-2.273-.167-.115.094-.981 1.73-.948 1.797.018.028 2.176-.271 4.782-.653 5.317-.8 5.291-.793 8.164-.688 1.14.042 3.451.086 5.114.085 1.675.003 3.108.013 3.165.025.067.026-.595.098-1.46.175-4.008.33-6.553.76-8.12 1.377-3.086 1.219-4.635 1.41-10.09 1.24l-2.423-.08-.534.981c-.296.544-.51.986-.488.991.023.005.812-.159 1.762-.348 2.606-.548 3.426-.634 5.68-.603 3.867.044 4.041.07 9.14 1.117 2.97.602 4.544.963 4.277.978-.23.01-1.024-.077-1.752-.198-2.417-.388-4.51-.278-7.816.406-2.78.582-5.258.586-10.805.063-1.326-.119-1.312-.127-1.68.746l-.165.382 1.064.002c.576-.007 2.03-.04 3.222-.07 3.237-.091 4.003-.034 7.241.542 1.613.287 3.807.603 4.877.69 1.89.167 5.269.369 5.895.348.167 0 .282.025.24.052-.125.08-4.359.41-5.17.402-.966-.017-2.872.11-4.568.318-3.891.462-5.76.36-10.924-.607-1.394-.251-2.547-.451-2.575-.434-.04.016-1.022 1.865-1.04 1.945-.002.011.393-.047.879-.133.487-.098 1.397-.212 2.033-.278l1.149-.11 3.293.706c3.477.747 5.53 1.33 9.381 2.67 3.195 1.114 3.315 1.223.83.702-1.969-.411-2.798-.506-5.567-.648-1.137-.053-7.864-1.152-10.335-1.683-2.115-.454-2.104-.451-2.495.31-.25.495-.293.64-.178.665.08.017 1.027.006 2.113-.035 1.939-.06 1.998-.06 3.624.337 1.886.465 2.199.627 3.572 1.922.806.757 2.796 2.97 3.4 3.78l.277.38-.352-.313c-.19-.172-1.051-.953-1.901-1.73-2.12-1.944-2.415-2.127-3.902-2.446-.915-.197-1.456-.241-2.291-.194-.967.042-1.317.003-3.124-.385l-2.036-.437-.212.43c-.122.236-.297.604-.412.805-.104.205-.196.411-.203.445-.008.034.4.086.898.11 1.432.069 3.724.597 4.846 1.111 1.23.563 1.462.767 2.013 1.767.603 1.094.753 1.34 1.099 1.736l.287.336-.43-.343c-1.262-.973-2.616-1.633-4.01-1.933-.596-.127-1.707-.52-2.992-1.059-1.129-.48-2.095-.83-2.15-.795-.114.083-2.04 4.04-2.671 5.477-.21.479-.404.878-.432.896-.083.053-.601-1.38-.562-1.562.03-.137 3.378-6.373 3.706-6.898.075-.127-.254-.21-2.142-.555-1.67-.3-2.58-.518-3.583-.865-2.706-.938-2.845-1.015-5.546-3.144C1.488 43.02.38 42.104.391 42.058c.007-.034.099-.014.192.053.903.587 5.148 2.88 5.714 3.085.4.145 1.694.47 2.895.729 1.955.42 2.325.535 3.758 1.164.875.378 1.596.7 1.607.702.046.01.63-1.091.664-1.25.017-.08-1.337-1.24-3.012-2.577-1.664-1.334-3.377-2.773-3.789-3.195-.432-.438-1.526-1.864-2.53-3.318a215.336 215.336 0 00-3.181-4.518c-2.154-2.952-2.192-3.055-.453-.955 1.113 1.335 2.403 2.457 4.728 4.112 2.005 1.418 2.914 2.364 6.625 6.924l2.149 2.641.416-.768c.235-.426.494-.906.601-1.074.097-.17.177-.32.181-.342.008-.034-2.631-2.566-4.068-3.898-2.146-1.986-3.593-3.714-4.29-5.09-.653-1.307-2.86-6.188-2.838-6.29.01-.046.92 1.293 2.016 2.981l2.01 3.064 2.307 1.793c2.625 2.04 3.245 2.721 4.582 4.962.44.737.838 1.335.88 1.308.11-.071 1.33-2.298 1.389-2.512.041-.194-1.496-1.393-3.942-3.097-1.259-.878-2.798-2.126-3.465-2.805-.277-.274-1.179-1.42-2.027-2.543a185.507 185.507 0 00-3.078-3.996C4.32 24.703 4.12 24.41 5.43 25.835c1.24 1.361 2.62 2.456 4.93 3.952 2.218 1.43 3.323 2.465 7.041 6.657 1.12 1.253 2.076 2.256 2.13 2.232.115-.035.64-.982.582-1.042-.136-.148-2.809-2.688-3.767-3.572-1.627-1.505-3.026-2.96-3.598-3.75-.268-.367-.843-1.313-1.27-2.107a234.078 234.078 0 00-3.974-6.903c-.642-1.079-1.149-1.95-1.114-1.943.045.01.534.687 1.097 1.522 1.273 1.87 2.48 3.105 5.216 5.348 1.607 1.322 2.701 2.688 5.905 7.437l2.06 3.05.49-.883c.272-.489.536-.992.576-1.126.063-.178-.258-.58-1.677-2.052-2.102-2.19-2.138-2.245-4.333-5.23-.953-1.3-2.001-2.656-2.343-3.015-.758-.818-3.13-3.03-4.944-4.611-.735-.646-1.315-1.176-1.299-1.196.153-.098 10.064 7.735 11.017 8.701.983.997 2.867 4.2 3.652 6.227.11.274.228.502.273.511.07.015 1.34-2.284 1.392-2.523.014-.069-.59-.818-1.357-1.65-4.886-5.384-5.622-6.578-7.33-11.78-1.172-3.563-2.073-6.781-1.89-6.742.023.005.469.994.988 2.201.72 1.656 1.3 2.745 2.376 4.476.784 1.253 1.92 3.152 2.514 4.232.983 1.771 5.088 8.12 5.282 8.161.08.017 1.16-1.776 1.1-1.836a1027.8 1027.8 0 01-5.374-6.62c-1.107-1.417-2.24-3.328-2.704-4.57-.2-.52-.904-2.362-1.585-4.093a847.382 847.382 0 01-1.416-3.662l-.188-.517.226.287c.124.145.914 1.315 1.766 2.582a952.85 952.85 0 003.683 5.471c2.237 3.291 3.161 4.836 4.922 8.227.566 1.098 1.072 2.028 1.124 2.064.04.032.314-.35.598-.837l.514-.89-1.748-3.281c-3.093-5.821-3.261-6.262-4.1-10.218-.29-1.372-.73-3.396-.972-4.496-.681-3.124-.697-3.103.286-.772.364.864 1.41 3.292 2.323 5.393 1.94 4.454 2.622 6.232 3.655 9.503.411 1.315.815 2.557.88 2.75l.125.372.815-1.29.813-1.279-1.571-3.16c-2.28-4.598-2.264-4.559-3.334-9.993-.385-1.94-.714-3.583-.736-3.648-.025-.053-.015-.098.02-.09.09.019 3.803 9.308 4.307 10.75.243.707.721 2.215 1.05 3.357.329 1.143.65 2.046.719 2 .125-.08 1.178-1.64 1.21-1.788.012-.057-.634-1.732-1.424-3.736-.804-1.994-1.501-3.871-1.566-4.183-.065-.311-.2-1.412-.312-2.449a195.848 195.848 0 00-.513-4.243c-.178-1.288-.312-2.39-.3-2.446.01-.046.18.61.377 1.474.519 2.267 1.056 3.943 2.08 6.533 1.003 2.514 1.512 4.267 1.9 6.53.147.817.282 1.525.318 1.58.04.092 1.297-1.58 1.34-1.784.01-.046-.38-1.463-.875-3.166-.752-2.627-.897-3.289-.966-4.47-.04-.76-.153-2.523-.238-3.91-.096-1.39-.136-2.543-.108-2.56.028-.019.087.316.153.735.204 1.556.57 3.195 1.357 6.163.752 2.793.854 3.375 1.177 6.386.014.158.962-.972 1.016-1.223.01-.045-.448-1.644-1.022-3.542-.679-2.242-1.03-3.616-1.008-3.944.011-.272-.068-1.742-.197-3.258-.118-1.514-.196-2.71-.16-2.655.19.339 1.664 7.015 2.097 9.514.277 1.607.526 3.066.56 3.24.067.3.081.292.618-.367l.538-.67-.64-2.866c-.459-1.992-.66-3.166-.665-3.87 0-.56-.045-1.856-.077-2.875-.044-1.022-.067-1.86-.05-1.88.094-.052 1.125 6.625 1.337 8.647.134 1.268.283 2.36.305 2.424.036.055.242-.127.457-.402l.386-.513-.34-1.538c-.569-2.647-.648-3.557-.419-5.127.104-.764.246-2.15.3-3.068.056-.93.128-1.712.167-1.727.028-.018.138 1.197.253 2.722z"/></symbol><symbol viewBox="0 0 55 55" id="favicon"><circle cx="27.5" cy="27.5" r="27.5"/><path d="M39.557 22.279H19.393c-.815 0-1.475.66-1.475 1.475v17.213c0 .815.66 1.476 1.475 1.476h20.164c.815 0 1.476-.66 1.476-1.476V23.754c0-.815-.66-1.475-1.476-1.475z"/><path fill-rule="evenodd" clip-rule="evenodd" d="M15.95 17.36h25.576c.814 0 1.474.662 1.474 1.48v7.369a1.48 1.48 0 01-1.48 1.48H21.757c-.897 0-1.794-.984-2.69-.984H15.95V17.36z"/><path d="M39.066 17.36H13.492a.492.492 0 00-.492.492v7.378c0 .271.22.491.492.491h25.574c.271 0 .491-.22.491-.491v-7.378a.492.492 0 00-.491-.491z" stroke="#2B2D2B" stroke-width="1.967"/><path fill-rule="evenodd" clip-rule="evenodd" d="M25.653 16.735s-.083-3.56-1.043-4.52a2.46 2.46 0 00-3.478 3.477c.96.96 4.521 1.043 4.521 1.043zM27.064 17.172s.122-4.642 1.377-5.898a3.206 3.206 0 014.535-.014 3.206 3.206 0 01-.014 4.535c-1.256 1.255-5.898 1.377-5.898 1.377z" stroke="#2B2D2B" stroke-width="1.967"/><path d="M37.098 39H15.46a.492.492 0 01-.492-.492V26.213c0-.271.22-.492.492-.492H37.1c.271 0 .491.22.491.492v12.295c0 .272-.22.492-.492.492z" stroke="#2B2D2B" stroke-width="1.967"/><path d="M33.902 33.098v2.46M33.902 29.164v.492" stroke="#fff" stroke-width="1.475" stroke-linecap="round" stroke-linejoin="round"/></symbol><symbol viewBox="0 0 131 53" id="gift--arrow-bottom"><path d="M1.91.963a.5.5 0 00-.906.42l.907-.42zM130.503 40.34l-5.753-.483 2.459 5.224 3.294-4.74zM1.004 1.384c.412.889.836 1.766 1.272 2.633l.893-.45c-.43-.856-.85-1.725-1.258-2.604l-.907.42zm4.053 7.749c.99 1.69 2.027 3.33 3.107 4.923l.828-.562a87.096 87.096 0 01-3.073-4.867l-.862.506zm6.542 9.635a84.997 84.997 0 003.747 4.466l.744-.669a84.038 84.038 0 01-3.703-4.414l-.788.617zm7.79 8.662a84.128 84.128 0 004.323 3.906l.645-.765a83.067 83.067 0 01-4.272-3.859l-.695.718zm8.91 7.505a84.99 84.99 0 004.82 3.275l.534-.846a84.088 84.088 0 01-4.765-3.236l-.59.807zm9.853 6.214c1.71.922 3.45 1.787 5.218 2.594l.415-.91a86.482 86.482 0 01-5.158-2.564l-.475.88zm10.595 4.837a90.875 90.875 0 005.51 1.891l.295-.956a89.911 89.911 0 01-5.45-1.87l-.355.935zm11.13 3.429A94.88 94.88 0 0065.58 50.6l.174-.984a93.864 93.864 0 01-5.643-1.173l-.233.972zm11.465 2.023c1.923.22 3.858.385 5.803.494l.056-.999a98.054 98.054 0 01-5.744-.489l-.114.994zm11.627.65a103.24 103.24 0 005.819-.177l-.058-.998c-1.928.112-3.85.17-5.763.174l.002 1zm11.618-.678c1.919-.22 3.84-.492 5.763-.818l-.167-.986c-1.905.323-3.809.593-5.71.81l.114.994zm11.475-1.946c1.885-.424 3.767-.9 5.646-1.43l-.271-.962c-1.862.524-3.727.996-5.595 1.417l.22.975zm11.204-3.15a113.823 113.823 0 005.462-2.004l-.368-.93a112.973 112.973 0 01-5.414 1.986l.32.948zM2.364.753a1 1 0 00-1.814.841L2.364.753zM130.502 40.34l-11.506-.965 4.917 10.447 6.589-9.482zM.55 1.594c.415.894.841 1.776 1.28 2.647l1.786-.898A91.263 91.263 0 012.364.753L.55 1.594zm4.075 7.792a88.646 88.646 0 003.125 4.95l1.655-1.123a86.68 86.68 0 01-3.054-4.839L4.625 9.386zm6.58 9.69a85.547 85.547 0 003.77 4.492l1.486-1.337a83.534 83.534 0 01-3.68-4.388l-1.576 1.233zm7.837 8.714a84.552 84.552 0 004.348 3.928l1.289-1.53a82.564 82.564 0 01-4.246-3.835l-1.391 1.437zm8.961 7.55a85.55 85.55 0 004.85 3.293l1.066-1.692a83.566 83.566 0 01-4.736-3.217l-1.18 1.615zm9.911 6.249a87.91 87.91 0 005.248 2.609l.83-1.82a85.877 85.877 0 01-5.128-2.55l-.95 1.76zm10.655 4.865a91.46 91.46 0 005.541 1.901l.589-1.912a89.35 89.35 0 01-5.42-1.86l-.71 1.87zM59.761 49.9a95.49 95.49 0 005.732 1.192l.347-1.97a93.424 93.424 0 01-5.612-1.167l-.467 1.945zm11.524 2.034a99.69 99.69 0 005.833.496l.11-1.997a97.652 97.652 0 01-5.714-.486l-.229 1.987zm11.685.652a103.67 103.67 0 005.847-.177l-.117-1.996c-1.917.112-3.83.17-5.734.173l.004 2zm11.673-.68c1.929-.22 3.86-.494 5.791-.822l-.335-1.972c-1.896.322-3.79.59-5.683.807l.227 1.987zm11.529-1.955a111.22 111.22 0 005.671-1.436l-.542-1.925c-1.853.521-3.71.991-5.569 1.41l.44 1.95zm11.254-3.164c1.836-.621 3.665-1.292 5.486-2.013l-.736-1.86a112.8 112.8 0 01-5.39 1.978l.64 1.895z"/></symbol><symbol viewBox="0 0 131 53" id="gift--arrow-top"><path d="M129.046 52.21a.5.5 0 00.908-.42l-.908.42zM.455 12.833l5.753.483L3.75 8.092.455 12.833zM129.954 51.79a93.215 93.215 0 00-1.273-2.633l-.893.449c.431.857.85 1.725 1.258 2.604l.908-.42zm-4.053-7.75a88.329 88.329 0 00-3.108-4.922l-.827.561a87.159 87.159 0 013.072 4.867l.863-.505zm-6.543-9.634a84.652 84.652 0 00-3.747-4.467l-.743.669a84.023 84.023 0 013.702 4.414l.788-.616zm-7.79-8.663a84.046 84.046 0 00-4.323-3.906l-.645.765a82.659 82.659 0 014.272 3.86l.696-.719zm-8.909-7.505a85.078 85.078 0 00-4.821-3.275l-.533.846a83.886 83.886 0 014.764 3.236l.59-.807zm-9.854-6.213a87.442 87.442 0 00-5.218-2.594l-.415.91a86.423 86.423 0 015.159 2.564l.474-.88zM82.21 7.187a90.895 90.895 0 00-5.51-1.89l-.294.955c1.84.566 3.657 1.19 5.45 1.87l.355-.935zM71.08 3.758a94.895 94.895 0 00-5.703-1.185l-.173.985a93.9 93.9 0 015.642 1.173l.234-.973zM59.615 1.735a99.106 99.106 0 00-5.803-.493l-.056.998c1.926.107 3.842.27 5.745.489l.114-.994zm-11.626-.649c-1.933.004-3.874.063-5.82.176l.059.999c1.927-.113 3.849-.171 5.762-.175l-.001-1zm-11.618.677c-1.92.22-3.842.492-5.764.818l.168.986c1.904-.323 3.808-.593 5.71-.81l-.114-.994zM24.895 3.71c-1.884.425-3.767.901-5.645 1.43l.27.962a109.63 109.63 0 015.595-1.416l-.22-.976zM13.691 6.86a113.995 113.995 0 00-5.462 2.004l.368.93a113.003 113.003 0 015.414-1.986l-.32-.948zm114.902 45.562a1 1 0 101.814-.842l-1.814.842zM.455 12.833l11.506.966L7.044 3.35l-6.59 9.482zm129.952 38.746a94.074 94.074 0 00-1.279-2.647l-1.787.898c.429.853.846 1.716 1.252 2.59l1.814-.84zm-4.075-7.791a88.595 88.595 0 00-3.125-4.951l-1.655 1.123a86.823 86.823 0 013.055 4.84l1.725-1.012zm-6.58-9.69a85.895 85.895 0 00-3.769-4.493l-1.487 1.337a83.736 83.736 0 013.681 4.388l1.575-1.232zm-7.836-8.714a84.774 84.774 0 00-4.349-3.929l-1.289 1.53a82.395 82.395 0 014.246 3.835l1.392-1.436zm-8.962-7.55a85.527 85.527 0 00-4.85-3.294l-1.066 1.692a83.525 83.525 0 014.736 3.217l1.18-1.615zm-9.911-6.25a87.935 87.935 0 00-5.248-2.608l-.83 1.82a85.937 85.937 0 015.128 2.549l.95-1.76zM82.388 6.72a91.385 91.385 0 00-5.541-1.902l-.588 1.912a89.39 89.39 0 015.42 1.86l.709-1.87zM71.196 3.272a95.403 95.403 0 00-5.732-1.192l-.347 1.97c1.888.333 3.76.722 5.612 1.167l.467-1.945zM59.672 1.24A99.603 99.603 0 0053.84.742l-.112 1.997c1.917.107 3.823.27 5.715.487l.229-1.987zM47.988.586C46.045.59 44.095.65 42.14.763l.117 1.997c1.918-.112 3.83-.17 5.735-.174l-.004-2zm-11.674.68c-1.928.22-3.86.495-5.79.822l.334 1.972c1.896-.322 3.79-.59 5.683-.806l-.227-1.988zM24.785 3.221c-1.893.427-3.784.906-5.67 1.436l.54 1.926c1.854-.522 3.711-.992 5.57-1.41l-.44-1.952zM13.531 6.386c-1.836.62-3.665 1.291-5.486 2.012l.736 1.86c1.79-.709 3.587-1.368 5.39-1.978l-.64-1.894z"/></symbol><symbol viewBox="0 0 13 22" id="icons--arrow"><rect x=".789" y="11.072" width="14.631" height="2.385" rx="1.192" transform="rotate(-44.117 .789 11.072)"/><rect width="14.631" height="2.385" rx="1.192" transform="scale(-1 1) rotate(-44.117 18.03 25.64)"/></symbol><symbol viewBox="0 0 29 33" id="icons--call"><path d="M17.797 15.47c.364 0 .66-.29.66-.645a.652.652 0 00-.66-.644.652.652 0 00-.659.644c0 .356.295.645.66.645zM11.207 15.47c.363 0 .659-.29.659-.645a.652.652 0 00-.66-.644.652.652 0 00-.659.644c0 .356.295.645.66.645z"/><path d="M0 30.942v1.414c0 .356.295.645.66.645h27.68c.365 0 .66-.289.66-.645V30.94c0-2.563-1.472-4.932-4.197-5.904a4.48 4.48 0 001.583-3.406.652.652 0 00-.66-.645c-1.584 0-2.92-1.096-3.242-2.55h1.904c1.09 0 1.976-.868 1.976-1.934v-2.965a1.94 1.94 0 00-1.319-1.823v-1.4c0-5.686-4.73-10.312-10.543-10.312-5.827 0-10.547 4.612-10.547 10.313v1.4c-.767.267-1.319.983-1.319 1.822v2.965c0 1.066.888 1.934 1.98 1.934h1.9c-.32 1.454-1.656 2.55-3.24 2.55a.652.652 0 00-.659.645c0 1.334.6 2.568 1.588 3.41C1.49 26.012 0 28.404 0 30.941zm25.012-8.721a3.248 3.248 0 01-2.028 2.41l-3.993-.507-.427-1.63a7.787 7.787 0 002.902-2.964 4.644 4.644 0 003.546 2.69zm-5.227-10.619c-1.821 0-3.303-1.466-3.303-3.27a.652.652 0 00-.659-.644.652.652 0 00-.659.645c0 1.803-1.481 3.27-3.302 3.27h-3.95c0-3.554 2.956-6.446 6.59-6.446 3.641 0 6.591 2.882 6.591 6.445h-1.308zm-11.876 1.29h3.953c1.68 0 3.152-.889 3.961-2.215a4.635 4.635 0 003.962 2.215h1.306v2.964c0 2.438-1.38 4.64-3.603 5.748a6.636 6.636 0 01-2.986.698 6.644 6.644 0 01-4.662-1.888 6.33 6.33 0 01-1.93-4.558v-2.964zm3.752 10.185c.902.34 1.854.514 2.841.514.99 0 1.947-.175 2.853-.52l.418 1.6c-.22 1.596-1.604 2.787-3.264 2.787-1.661 0-3.046-1.19-3.266-2.785l.418-1.596zM25.046 16.5a.652.652 0 01-.658.644H22.41v-4.253h1.98c.362 0 .657.289.657.644v2.965zM14.502 1.29c5.087 0 9.225 4.048 9.225 9.023v1.29h-1.316c0-4.274-3.537-7.735-7.909-7.735-4.361 0-7.909 3.47-7.909 7.734h-1.32v-1.289c0-4.985 4.128-9.023 9.23-9.023zM3.955 16.501v-2.965c0-.355.296-.644.66-.644h1.976v4.253H4.616a.654.654 0 01-.661-.644zm3.58 3.027A7.89 7.89 0 0010.45 22.5l-.424 1.625-4.004.508a3.25 3.25 0 01-2.03-2.411 4.641 4.641 0 003.543-2.693zm-1.583 6.413l.073-.01h.002l4.029-.51c.533 1.939 2.332 3.326 4.453 3.326 2.12 0 3.918-1.387 4.452-3.327l4.103.521c2.89.367 4.618 2.485 4.618 5v.77H1.318v-.77c0-2.467 1.728-4.631 4.634-5z"/><path d="M12.74 19.9a4.18 4.18 0 001.762.384c.601 0 1.182-.124 1.728-.368a.638.638 0 00.323-.855.665.665 0 00-.873-.317 2.858 2.858 0 01-1.178.251c-.42 0-.824-.088-1.2-.261a.665.665 0 00-.877.308.638.638 0 00.315.858zM20.434 30.036h2.636c.364 0 .66-.288.66-.644a.652.652 0 00-.66-.645h-2.636a.652.652 0 00-.66.645c0 .356.296.644.66.644zM25.704 28.747c.364 0 .66.289.66.645a.652.652 0 01-.66.644.652.652 0 01-.659-.644c0-.356.296-.645.66-.645z"/></symbol><symbol viewBox="0 0 32 31" id="icons--call-answer"><g clip-path="url(#hclip0_5_1470)"><path d="M30.87 24.441l-4.744-4.745c-.945-.941-2.51-.913-3.488.066l-2.39 2.39a71.86 71.86 0 01-.472-.263c-1.51-.836-3.576-1.983-5.75-4.158-2.18-2.18-3.328-4.25-4.167-5.76-.088-.16-.173-.315-.257-.461l1.605-1.602.788-.79c.98-.98 1.007-2.544.064-3.488L7.314.884C6.371-.058 4.806-.03 3.826.95L2.49 2.295l.037.036a7.732 7.732 0 00-1.102 1.944 8.058 8.058 0 00-.49 1.971c-.627 5.194 1.746 9.94 8.188 16.382 8.903 8.903 16.079 8.23 16.388 8.198a8.018 8.018 0 001.977-.497 7.709 7.709 0 001.937-1.097l.029.026 1.355-1.326c.977-.98 1.005-2.545.063-3.49z"/></g><defs><clipPath id="hclip0_5_1470"><path transform="translate(.836 .161)" d="M0 0h30.723v30.723H0z"/></clipPath></defs></symbol><symbol viewBox="0 0 35 24" id="icons--camera"><rect x=".002" y=".001" width="24.322" height="23.042" rx="3.2"/><path d="M26.885 8.536c0-.517.31-.983.788-1.182l5.12-2.134a1.28 1.28 0 011.773 1.182v10.241a1.28 1.28 0 01-1.773 1.182l-5.12-2.134a1.28 1.28 0 01-.788-1.181V8.536z"/></symbol><symbol viewBox="0 0 16 15" id="icons--checked"><g clip-path="url(#jclip0_9_969)"><path d="M8.256.16a7.392 7.392 0 100 14.784 7.392 7.392 0 000-14.784zm0 13.398a6.006 6.006 0 110-12.011 6.006 6.006 0 010 12.011zm2.905-9.15a.644.644 0 00-.896.25L7.786 9.11l-1.38-1.68c-.25-.289-.582-.438-.896-.25-.314.188-.444.64-.24.93l1.92 2.338c.144.187.308.299.48.33v.004h.018c.04.007.62.114.87-.334l2.844-5.11a.696.696 0 00-.24-.93z"/></g><defs><clipPath id="jclip0_9_969"><path transform="translate(.861 .16)" d="M0 0h14.784v14.784H0z"/></clipPath></defs></symbol><symbol viewBox="0 0 37 26" id="icons--delivery"><path d="M30.25 19.012c-.905 0-1.764.365-2.412 1.025a3.523 3.523 0 00-1.009 2.47 3.49 3.49 0 001.01 2.469c.655.66 1.506 1.025 2.41 1.025 1.854 0 3.36-1.569 3.36-3.495 0-1.926-1.506-3.494-3.36-3.494zm0 5.436c-1.04 0-1.914-.886-1.914-1.942s.874-1.941 1.913-1.941c1.025 0 1.854.87 1.854 1.941 0 1.072-.829 1.942-1.854 1.942zm.873-17.077a.72.72 0 00-.504-.202h-3.865a.767.767 0 00-.754.776v6.368c0 .428.34.777.754.777h6.132c.415 0 .754-.35.754-.777V10.05a.788.788 0 00-.249-.575l-2.268-2.104zm1.01 6.166h-4.626V8.714h2.818l1.808 1.678v3.145zm-20.282 5.475c-.904 0-1.763.365-2.41 1.025a3.522 3.522 0 00-1.01 2.47 3.49 3.49 0 001.01 2.469A3.378 3.378 0 0011.85 26c1.853 0 3.36-1.569 3.36-3.495 0-1.926-1.507-3.494-3.36-3.494zm0 5.436c-1.04 0-1.914-.886-1.914-1.942s.874-1.941 1.914-1.941c1.025 0 1.853.87 1.853 1.941 0 1.072-.828 1.942-1.853 1.942zm-5.025-4.481H5.312V17.9a.768.768 0 00-.754-.776.768.768 0 00-.753.776v2.843c0 .427.339.776.753.776h2.268c.414 0 .753-.35.753-.776a.768.768 0 00-.753-.777zm3.82-4.232a.767.767 0 00-.754-.777H.753a.767.767 0 00-.753.777c0 .427.339.776.753.776h9.14a.763.763 0 00.753-.776zM2.283 12.93l9.139.054a.772.772 0 00.76-.768.758.758 0 00-.745-.785l-9.14-.054H2.29a.76.76 0 00-.753.769.758.758 0 00.746.784zM3.82 9.405h9.139c.414 0 .753-.35.753-.776a.768.768 0 00-.753-.777h-9.14a.768.768 0 00-.753.777c0 .427.34.776.754.776zM36.72 8.357l-5.394-4.605a.729.729 0 00-.482-.179H24.5V.778A.767.767 0 0023.747 0H4.558a.768.768 0 00-.753.777v5.684c0 .427.339.777.753.777.415 0 .754-.35.754-.777V1.554h17.69v18.413h-6.178a.768.768 0 00-.754.777c0 .427.34.776.754.776h9.199c.414 0 .753-.35.753-.776a.768.768 0 00-.753-.777h-1.515V5.127h6.073l4.912 4.193-.053 10.631h-.783a.768.768 0 00-.753.777c0 .427.338.777.753.777h1.53a.76.76 0 00.753-.77L37 8.964a.83.83 0 00-.279-.606z"/></symbol><symbol viewBox="0 0 34 23" id="icons--laptop"><path d="M28.08 3.214H5.92a.735.735 0 00-.731.74v11.158c0 .408.327.739.731.739.404 0 .732-.33.732-.739V4.692h20.696v10.42c0 .408.328.739.732.739.404 0 .731-.33.731-.739V3.953a.735.735 0 00-.731-.739z"/><path d="M33.342 17.75h-1.348V2.234c0-1.231-.992-2.233-2.212-2.233H4.218c-1.22 0-2.212 1.002-2.212 2.233V17.75H.66a.662.662 0 00-.659.665v1.306C0 21.529 1.457 23 3.249 23H30.75c1.792 0 3.249-1.472 3.249-3.28v-1.306a.662.662 0 00-.658-.665zM3.47 2.234c0-.416.335-.755.748-.755h25.564c.413 0 .748.339.748.755V17.75h-9.908a.663.663 0 00-.677.665c0 .561-.451 1.018-1.007 1.018h-3.876a1.014 1.014 0 01-1.008-1.018.663.663 0 00-.674-.665H3.47V2.234zm29.213 17.487c0 1.075-.867 1.95-1.932 1.95H3.25a1.943 1.943 0 01-1.932-1.95v-.64h11.515a2.332 2.332 0 002.23 1.682h3.876a2.333 2.333 0 002.23-1.683h11.515v.64z"/><path d="M18.084 7.509a.727.727 0 00-1.034 0l-4.602 4.647a.744.744 0 000 1.044.726.726 0 001.035 0l4.601-4.646a.744.744 0 000-1.045zM20.812 10.202a.727.727 0 00-1.035 0l-1.833 1.85a.744.744 0 000 1.046.726.726 0 001.035 0l1.833-1.852a.744.744 0 000-1.044z"/></symbol><symbol viewBox="0 0 55 55" id="surprice"><circle cx="27.5" cy="27.5" r="27.5"/><path d="M39.557 22.279H19.393c-.815 0-1.475.66-1.475 1.475v17.213c0 .815.66 1.476 1.475 1.476h20.164c.815 0 1.476-.66 1.476-1.476V23.754c0-.815-.66-1.475-1.476-1.475z"/><path fill-rule="evenodd" clip-rule="evenodd" d="M15.95 17.36h25.576c.814 0 1.474.662 1.474 1.48v7.369a1.48 1.48 0 01-1.48 1.48H21.757c-.897 0-1.794-.984-2.69-.984H15.95V17.36z"/><path d="M39.066 17.36H13.492a.492.492 0 00-.492.492v7.378c0 .271.22.491.492.491h25.574c.271 0 .491-.22.491-.491v-7.378a.492.492 0 00-.491-.491z" stroke="#2B2D2B" stroke-width="1.967"/><path fill-rule="evenodd" clip-rule="evenodd" d="M25.653 16.735s-.083-3.56-1.043-4.52a2.46 2.46 0 00-3.478 3.477c.96.96 4.521 1.043 4.521 1.043zM27.064 17.172s.122-4.642 1.377-5.898a3.206 3.206 0 014.535-.014 3.206 3.206 0 01-.014 4.535c-1.256 1.255-5.898 1.377-5.898 1.377z" stroke="#2B2D2B" stroke-width="1.967"/><path d="M37.098 39H15.46a.492.492 0 01-.492-.492V26.213c0-.271.22-.492.492-.492H37.1c.271 0 .491.22.491.492v12.295c0 .272-.22.492-.492.492z" stroke="#2B2D2B" stroke-width="1.967"/><path d="M33.902 33.098v2.46M33.902 29.164v.492" stroke="#fff" stroke-width="1.475" stroke-linecap="round" stroke-linejoin="round"/></symbol></svg>