<svg width="48" height="48" viewBox="0 0 48 48" fill="none" xmlns="http://www.w3.org/2000/svg">
<path d="M24 45.3034C15.0618 45.3034 7.22327 39.4314 5.12727 31.2598C2.29091 31.2089 0 28.8845 0 26.0365C0 23.1565 2.34327 20.8118 5.22473 20.8118H5.67273C6.95855 17.35 9.36727 14.2634 12.5004 12.0772C12.8247 11.8503 13.28 11.926 13.5127 12.2576C13.7425 12.5878 13.6625 13.0401 13.3324 13.27C10.304 15.3834 8.01018 18.4016 6.87564 21.7718C6.77673 22.067 6.49891 22.2663 6.18618 22.2663H5.22473C3.14618 22.2663 1.45455 23.958 1.45455 26.0365C1.45455 28.115 3.14618 29.8067 5.22473 29.8067H5.70182C6.04218 29.8067 6.33891 30.0438 6.41164 30.3783C8.13673 38.1834 15.5331 43.8503 24 43.8503C32.4669 43.8503 39.8647 38.1834 41.5898 30.3783C41.664 30.0452 41.9593 29.8067 42.2996 29.8067H42.7767C44.8553 29.8067 46.5455 28.115 46.5455 26.0365C46.5455 23.958 44.8553 22.2663 42.7767 22.2663H41.8138C41.5011 22.2663 41.2247 22.067 41.1244 21.7703C39.9796 18.374 37.7629 15.446 34.7185 13.3063C34.3884 13.075 34.3113 12.6212 34.5411 12.294C34.7738 11.9652 35.2276 11.8867 35.5535 12.1165C38.7069 14.3318 41.04 17.331 42.3273 20.8132H42.7767C45.6553 20.8132 48 23.1565 48 26.038C48 28.886 45.7091 31.2103 42.8742 31.2612C40.7782 39.4314 32.9382 45.3034 24 45.3034Z" fill="white"/>
<path d="M30.0946 30.5994C31.065 30.5994 31.8516 29.8127 31.8516 28.8423C31.8516 27.8719 31.065 27.0852 30.0946 27.0852C29.1241 27.0852 28.3375 27.8719 28.3375 28.8423C28.3375 29.8127 29.1241 30.5994 30.0946 30.5994Z" fill="white"/>
<path d="M18.576 30.5994C19.5464 30.5994 20.3331 29.8127 20.3331 28.8423C20.3331 27.8719 19.5464 27.0852 18.576 27.0852C17.6056 27.0852 16.8189 27.8719 16.8189 28.8423C16.8189 29.8127 17.6056 30.5994 18.576 30.5994Z" fill="white"/>
<path d="M24 38.3508C22.2211 38.3508 20.4451 37.862 18.8596 36.886L18.576 36.7129C18.2342 36.502 18.1251 36.0555 18.3345 35.7122C18.5469 35.3675 18.9949 35.2628 19.3353 35.4708L19.6204 35.6453C22.3244 37.3108 25.6785 37.3093 28.3796 35.6468L28.6633 35.4708C29.0036 35.2628 29.4531 35.3646 29.664 35.7078C29.8749 36.0497 29.7673 36.4977 29.4269 36.7086L29.1418 36.8846C27.5549 37.862 25.7774 38.3508 24 38.3508Z" fill="white"/>
<path d="M24 12.6867C22.0946 12.6867 20.5455 11.1376 20.5455 9.23213C20.5455 7.32668 22.0946 5.77759 24 5.77759C25.9055 5.77759 27.4546 7.32668 27.4546 9.23213C27.4546 11.1376 25.9055 12.6867 24 12.6867ZM24 7.23213C22.8975 7.23213 22 8.12959 22 9.23213C22 10.3347 22.8975 11.2321 24 11.2321C25.1026 11.2321 26 10.3347 26 9.23213C26 8.12959 25.1026 7.23213 24 7.23213Z" fill="white"/>
<path d="M32.3287 15.7688C31.9011 15.7688 31.4706 15.6888 31.0604 15.5274L23.7338 12.6358C23.36 12.4874 23.1767 12.0656 23.3251 11.6932C23.472 11.3194 23.8938 11.1332 24.2677 11.2845L31.5942 14.1761C32.2226 14.4219 32.8975 14.3463 33.4531 13.9681C34.0087 13.5899 34.3287 12.9863 34.3287 12.3143V6.15139C34.3287 5.47793 34.0087 4.87575 33.4531 4.49612C32.896 4.11793 32.2182 4.04375 31.5942 4.29102L24.2677 7.18121C23.8924 7.33248 23.4706 7.1463 23.3251 6.77248C23.1767 6.39866 23.36 5.97539 23.7338 5.82993L31.0604 2.93975C32.1237 2.52084 33.3251 2.65175 34.2706 3.29466C35.2175 3.93902 35.7833 5.00812 35.7833 6.15284V12.3158C35.7833 13.4605 35.2175 14.5281 34.272 15.1725C33.6902 15.5667 33.0109 15.7688 32.3287 15.7688Z" fill="white"/>
<path d="M15.6713 15.7687C14.9876 15.7687 14.3084 15.5651 13.7266 15.1695C12.7811 14.5266 12.2167 13.4589 12.2167 12.3142V6.15129C12.2167 5.00657 12.7826 3.93893 13.728 3.29457C14.6764 2.6502 15.8778 2.51929 16.9411 2.9382L24.2662 5.82838C24.64 5.97675 24.8233 6.39857 24.6749 6.77093C24.528 7.14475 24.1047 7.33093 23.7324 7.17966L16.4073 4.29093C15.7789 4.04511 15.104 4.11929 14.5469 4.49748C13.9913 4.87566 13.6713 5.47784 13.6713 6.15129V12.3142C13.6713 12.9862 13.9898 13.5884 14.5455 13.968C15.1026 14.3462 15.7818 14.4204 16.4073 14.176L23.7324 11.2844C24.1062 11.1331 24.5295 11.3193 24.6749 11.6931C24.8233 12.0669 24.64 12.4887 24.2662 12.6357L16.9411 15.5273C16.5309 15.6902 16.1004 15.7687 15.6713 15.7687Z" fill="white"/>
</svg>
