<svg width="59" height="32" viewBox="0 0 59 32" fill="none" xmlns="http://www.w3.org/2000/svg">
<path d="M29.4821 18.1429C30.7346 18.1429 31.7499 17.1275 31.7499 15.875C31.7499 14.6225 30.7346 13.6072 29.4821 13.6072C28.2296 13.6072 27.2142 14.6225 27.2142 15.875C27.2142 17.1275 28.2296 18.1429 29.4821 18.1429Z" fill="white"/>
<path d="M29.4822 6.80347C24.4929 6.80347 20.4108 10.8856 20.4108 15.8749C20.4108 20.8642 24.4929 24.9463 29.4822 24.9463C34.4715 24.9463 38.5536 20.8642 38.5536 15.8749C38.5536 10.8856 34.4715 6.80347 29.4822 6.80347ZM29.4822 22.6785C25.6268 22.6785 22.6786 19.7303 22.6786 15.8749C22.6786 12.0195 25.6268 9.07132 29.4822 9.07132C33.3376 9.07132 36.2858 12.0195 36.2858 15.8749C36.2858 19.7303 33.3376 22.6785 29.4822 22.6785Z" fill="white"/>
<path d="M29.4821 0C9.07143 0 0 15.875 0 15.875C0 15.875 9.07143 31.75 29.4821 31.75C49.8929 31.75 58.9643 15.875 58.9643 15.875C58.9643 15.875 49.8929 0 29.4821 0ZM29.4821 29.4821C11.3393 29.4821 2.72143 15.875 2.72143 15.875C2.72143 15.875 11.3393 2.26786 29.4821 2.26786C47.625 2.26786 56.2429 15.875 56.2429 15.875C56.2429 15.875 47.625 29.4821 29.4821 29.4821Z" fill="white"/>
</svg>
