<svg width="59" height="59" viewBox="0 0 59 59" fill="none" xmlns="http://www.w3.org/2000/svg">
<path d="M4.8744 20.7308C4.80526 20.7308 4.7246 20.7308 4.65546 20.7308C4.183 20.7308 3.7912 21.1226 3.7912 21.595C3.7912 26.2966 3.7912 30.9981 3.7912 35.6997C3.7912 42.2681 3.7912 48.8364 3.7912 55.4048C3.7912 56.0501 3.7912 56.7069 3.7912 57.3522C3.7912 57.8247 4.183 58.2165 4.65546 58.2165C6.21112 58.2165 7.76678 58.2165 9.33397 58.2165C9.80643 58.2165 10.1982 57.8247 10.1982 57.3522C10.1982 53.1001 10.1982 48.8479 10.1982 44.5958C10.1982 37.797 10.1982 30.9981 10.1982 24.1993C10.1982 23.3235 10.1982 22.4593 10.1982 21.5835C10.1982 21.111 9.80643 20.7192 9.33397 20.7192C9.26483 20.7192 9.18417 20.7192 9.11503 20.7192C7.99725 20.7192 7.99725 22.4478 9.11503 22.4478C9.18417 22.4478 9.26483 22.4478 9.33397 22.4478C9.04589 22.1597 8.7578 21.8716 8.46971 21.5835C8.46971 27.0456 8.46971 32.5077 8.46971 37.9698C8.46971 42.5907 8.46971 47.2001 8.46971 51.821C8.46971 53.6647 8.46971 55.5085 8.46971 57.3522C8.7578 57.0642 9.04589 56.7761 9.33397 56.488C7.77831 56.488 6.22264 56.488 4.65546 56.488C4.94354 56.7761 5.23163 57.0642 5.51971 57.3522C5.51971 52.6507 5.51971 47.9491 5.51971 43.2476C5.51971 36.6792 5.51971 30.1108 5.51971 23.5425C5.51971 22.8972 5.51971 22.2403 5.51971 21.595C5.23163 21.8831 4.94354 22.1712 4.65546 22.4593C4.7246 22.4593 4.80526 22.4593 4.8744 22.4593C5.99218 22.4593 5.99218 20.7308 4.8744 20.7308Z" fill="white"/>
<path d="M49.885 20.7307C49.8158 20.7307 49.7352 20.7307 49.666 20.7307C49.1936 20.7307 48.8018 21.1225 48.8018 21.595C48.8018 27.0571 48.8018 32.5192 48.8018 37.9813C48.8018 42.6022 48.8018 47.2116 48.8018 51.8325C48.8018 53.6762 48.8018 55.52 48.8018 57.3637C48.8018 57.8362 49.1936 58.228 49.666 58.228C51.2217 58.228 52.7773 58.228 54.3445 58.228C54.817 58.228 55.2088 57.8362 55.2088 57.3637C55.2088 52.6622 55.2088 47.9606 55.2088 43.259C55.2088 36.6907 55.2088 30.1223 55.2088 23.554C55.2088 22.9086 55.2088 22.2518 55.2088 21.6065C55.2088 21.134 54.817 20.7422 54.3445 20.7422C54.2754 20.7422 54.1947 20.7422 54.1256 20.7422C53.0078 20.7422 53.0078 22.4708 54.1256 22.4708C54.1947 22.4708 54.2754 22.4708 54.3445 22.4708C54.0565 22.1827 53.7684 21.8946 53.4803 21.6065C53.4803 26.3081 53.4803 31.0096 53.4803 35.7112C53.4803 42.2795 53.4803 48.8479 53.4803 55.4163C53.4803 56.0616 53.4803 56.7184 53.4803 57.3637C53.7684 57.0756 54.0565 56.7876 54.3445 56.4995C52.7889 56.4995 51.2332 56.4995 49.666 56.4995C49.9541 56.7876 50.2422 57.0756 50.5303 57.3637C50.5303 53.1116 50.5303 48.8594 50.5303 44.6073C50.5303 37.8085 50.5303 31.0096 50.5303 24.2108C50.5303 23.335 50.5303 22.4708 50.5303 21.595C50.2422 21.8831 49.9541 22.1711 49.666 22.4592C49.7352 22.4592 49.8158 22.4592 49.885 22.4592C51.0027 22.4592 51.0027 20.7307 49.885 20.7307Z" fill="white"/>
<path d="M48.5252 49.4241C48.5252 50.7262 48.5252 52.0284 48.5252 53.342C48.8133 53.054 49.1014 52.7659 49.3895 52.4778C45.0105 52.4778 40.6316 52.4778 36.2527 52.4778C29.1312 52.4778 21.9982 52.4778 14.8768 52.4778C13.033 52.4778 11.1777 52.4778 9.33398 52.4778C9.62207 52.7659 9.91016 53.054 10.1982 53.342C10.1982 52.0399 10.1982 50.7377 10.1982 49.4241C9.91016 49.7122 9.62207 50.0002 9.33398 50.2883C13.7129 50.2883 18.0918 50.2883 22.4707 50.2883C29.5922 50.2883 36.7252 50.2883 43.8467 50.2883C45.6904 50.2883 47.5457 50.2883 49.3895 50.2883C50.5072 50.2883 50.5072 48.5598 49.3895 48.5598C45.0105 48.5598 40.6316 48.5598 36.2527 48.5598C29.1312 48.5598 21.9982 48.5598 14.8768 48.5598C13.033 48.5598 11.1777 48.5598 9.33398 48.5598C8.86152 48.5598 8.46973 48.9516 8.46973 49.4241C8.46973 50.7262 8.46973 52.0284 8.46973 53.342C8.46973 53.8145 8.86152 54.2063 9.33398 54.2063C13.7129 54.2063 18.0918 54.2063 22.4707 54.2063C29.5922 54.2063 36.7252 54.2063 43.8467 54.2063C45.6904 54.2063 47.5457 54.2063 49.3895 54.2063C49.8619 54.2063 50.2537 53.8145 50.2537 53.342C50.2537 52.0399 50.2537 50.7377 50.2537 49.4241C50.2537 48.3063 48.5252 48.3063 48.5252 49.4241Z" fill="white"/>
<path d="M8.74629 20.0739C8.71172 21.0534 7.97422 21.7909 7.00625 21.8139C6.02676 21.8485 5.28926 20.9957 5.26621 20.0739C5.23164 19.0944 6.08437 18.3569 7.00625 18.3338C7.97422 18.2993 8.71172 19.1405 8.74629 20.0739C8.78086 21.1916 10.5094 21.1916 10.4748 20.0739C10.4172 18.1379 8.93066 16.6629 7.00625 16.6053C5.08183 16.5477 3.58379 18.2301 3.53769 20.0739C3.48008 21.9983 5.1625 23.4963 7.00625 23.5424C8.93066 23.6 10.4287 21.9176 10.4748 20.0739C10.5094 18.9561 8.78086 18.9561 8.74629 20.0739Z" fill="white"/>
<path d="M53.7453 20.0739C53.7107 21.0534 52.9732 21.7909 52.0053 21.8139C51.0258 21.8485 50.2883 20.9957 50.2652 20.0739C50.2307 19.0944 51.0834 18.3569 52.0053 18.3338C52.9732 18.2993 53.7223 19.1405 53.7453 20.0739C53.7799 21.1916 55.5084 21.1916 55.4738 20.0739C55.4162 18.1379 53.9297 16.6629 52.0053 16.6053C50.0809 16.5477 48.5828 18.2301 48.5367 20.0739C48.4791 21.9983 50.1615 23.4963 52.0053 23.5424C53.9297 23.6 55.4277 21.9176 55.4738 20.0739C55.5084 18.9561 53.7799 18.9561 53.7453 20.0739Z" fill="white"/>
<path d="M9.334 22.4592C13.7014 22.4592 18.0688 22.4592 22.4361 22.4592C29.5922 22.4592 36.7482 22.4592 43.8928 22.4592C45.8172 22.4592 47.7416 22.4592 49.666 22.4592C50.7838 22.4592 50.7838 20.7307 49.666 20.7307C45.2986 20.7307 40.9313 20.7307 36.5639 20.7307C29.4078 20.7307 22.2518 20.7307 15.1072 20.7307C13.1828 20.7307 11.2584 20.7307 9.334 20.7307C8.21622 20.7307 8.21622 22.4592 9.334 22.4592Z" fill="white"/>
<path d="M19.3709 48.5598C16.0291 48.5598 12.6758 48.5598 9.33398 48.5598C9.62207 48.8479 9.91016 49.136 10.1982 49.4241C10.1982 44.0772 10.1982 38.7303 10.1982 33.395C10.1982 29.4655 10.1982 25.536 10.1982 21.595C9.91016 21.8831 9.62207 22.1711 9.33398 22.4592C12.6758 22.4592 16.0291 22.4592 19.3709 22.4592C19.0828 22.1711 18.7947 21.8831 18.5066 21.595C18.5066 26.9418 18.5066 32.2887 18.5066 37.6241C18.5066 41.5536 18.5066 45.4831 18.5066 49.4241C18.5066 50.5418 20.2352 50.5418 20.2352 49.4241C20.2352 44.0772 20.2352 38.7303 20.2352 33.395C20.2352 29.4655 20.2352 25.536 20.2352 21.595C20.2352 21.1225 19.8434 20.7307 19.3709 20.7307C16.0291 20.7307 12.6758 20.7307 9.33398 20.7307C8.86152 20.7307 8.46973 21.1225 8.46973 21.595C8.46973 26.9418 8.46973 32.2887 8.46973 37.6241C8.46973 41.5536 8.46973 45.4831 8.46973 49.4241C8.46973 49.8965 8.86152 50.2883 9.33398 50.2883C12.6758 50.2883 16.0291 50.2883 19.3709 50.2883C20.4887 50.2883 20.4887 48.5598 19.3709 48.5598Z" fill="white"/>
<path d="M29.4885 48.5598C26.1467 48.5598 22.7933 48.5598 19.4515 48.5598C19.7396 48.8479 20.0277 49.136 20.3158 49.4241C20.3158 44.0772 20.3158 38.7303 20.3158 33.395C20.3158 29.4655 20.3158 25.536 20.3158 21.595C20.0277 21.8831 19.7396 22.1711 19.4515 22.4592C22.7933 22.4592 26.1467 22.4592 29.4885 22.4592C29.2004 22.1711 28.9123 21.8831 28.6242 21.595C28.6242 26.9418 28.6242 32.2887 28.6242 37.6241C28.6242 41.5536 28.6242 45.4831 28.6242 49.4241C28.6242 50.5418 30.3527 50.5418 30.3527 49.4241C30.3527 44.0772 30.3527 38.7303 30.3527 33.395C30.3527 29.4655 30.3527 25.536 30.3527 21.595C30.3527 21.1225 29.9609 20.7307 29.4885 20.7307C26.1467 20.7307 22.7933 20.7307 19.4515 20.7307C18.9791 20.7307 18.5873 21.1225 18.5873 21.595C18.5873 26.9418 18.5873 32.2887 18.5873 37.6241C18.5873 41.5536 18.5873 45.4831 18.5873 49.4241C18.5873 49.8965 18.9791 50.2883 19.4515 50.2883C22.7933 50.2883 26.1467 50.2883 29.4885 50.2883C30.6062 50.2883 30.6062 48.5598 29.4885 48.5598Z" fill="white"/>
<path d="M39.5369 48.5598C36.1951 48.5598 32.8418 48.5598 29.5 48.5598C29.7881 48.8479 30.0762 49.136 30.3643 49.4241C30.3643 44.0772 30.3643 38.7303 30.3643 33.395C30.3643 29.4655 30.3643 25.536 30.3643 21.595C30.0762 21.8831 29.7881 22.1711 29.5 22.4592C32.8418 22.4592 36.1951 22.4592 39.5369 22.4592C39.2488 22.1711 38.9607 21.8831 38.6727 21.595C38.6727 26.9418 38.6727 32.2887 38.6727 37.6241C38.6727 41.5536 38.6727 45.4831 38.6727 49.4241C38.6727 50.5418 40.4012 50.5418 40.4012 49.4241C40.4012 44.0772 40.4012 38.7303 40.4012 33.395C40.4012 29.4655 40.4012 25.536 40.4012 21.595C40.4012 21.1225 40.0094 20.7307 39.5369 20.7307C36.1951 20.7307 32.8418 20.7307 29.5 20.7307C29.0275 20.7307 28.6357 21.1225 28.6357 21.595C28.6357 26.9418 28.6357 32.2887 28.6357 37.6241C28.6357 41.5536 28.6357 45.4831 28.6357 49.4241C28.6357 49.8965 29.0275 50.2883 29.5 50.2883C32.8418 50.2883 36.1951 50.2883 39.5369 50.2883C40.6432 50.2883 40.6432 48.5598 39.5369 48.5598Z" fill="white"/>
<path d="M49.5738 48.5598C46.232 48.5598 42.8787 48.5598 39.5369 48.5598C39.825 48.8479 40.1131 49.136 40.4012 49.4241C40.4012 44.0772 40.4012 38.7303 40.4012 33.395C40.4012 29.4655 40.4012 25.536 40.4012 21.595C40.1131 21.8831 39.825 22.1711 39.5369 22.4592C42.8787 22.4592 46.232 22.4592 49.5738 22.4592C49.2858 22.1711 48.9977 21.8831 48.7096 21.595C48.7096 26.9418 48.7096 32.2887 48.7096 37.6241C48.7096 41.5536 48.7096 45.4831 48.7096 49.4241C48.7096 50.5418 50.4381 50.5418 50.4381 49.4241C50.4381 44.0772 50.4381 38.7303 50.4381 33.395C50.4381 29.4655 50.4381 25.536 50.4381 21.595C50.4381 21.1225 50.0463 20.7307 49.5738 20.7307C46.232 20.7307 42.8787 20.7307 39.5369 20.7307C39.0645 20.7307 38.6727 21.1225 38.6727 21.595C38.6727 26.9418 38.6727 32.2887 38.6727 37.6241C38.6727 41.5536 38.6727 45.4831 38.6727 49.4241C38.6727 49.8965 39.0645 50.2883 39.5369 50.2883C42.8787 50.2883 46.232 50.2883 49.5738 50.2883C50.6916 50.2883 50.6916 48.5598 49.5738 48.5598Z" fill="white"/>
<path d="M28.4744 1.6479C28.4744 3.48013 28.4744 5.32388 28.4744 7.1561C28.4744 8.27388 30.2029 8.27388 30.2029 7.1561C30.2029 5.32388 30.2029 3.48013 30.2029 1.6479C30.2029 0.530127 28.4744 0.530127 28.4744 1.6479Z" fill="white"/>
<path d="M18.9676 9.96777C18.9676 8.93066 19.6244 8.00879 20.7422 8.00879C21.134 8.00879 21.5258 8.00879 21.9176 8.00879C23.6922 8.00879 25.4668 8.00879 27.2529 8.00879C29.6498 8.00879 32.0467 8.00879 34.432 8.00879C35.5729 8.00879 36.7252 8.00879 37.866 8.00879C38.1887 8.00879 38.4883 8.00879 38.8109 8.08945C39.6522 8.31992 40.0324 9.14961 40.0324 9.95625C40.0324 11.074 41.7609 11.074 41.7609 9.95625C41.7609 8.61953 41.1733 7.46719 40.0324 6.75273C39.3871 6.34941 38.6496 6.28027 37.9121 6.28027C36.3334 6.28027 34.7547 6.28027 33.176 6.28027C30.8022 6.28027 28.4399 6.28027 26.066 6.28027C24.4297 6.28027 22.7934 6.28027 21.157 6.28027C20.4311 6.28027 19.7742 6.37246 19.1059 6.68359C17.8613 7.27129 17.2391 8.64258 17.2391 9.95625C17.2391 11.0855 18.9676 11.0855 18.9676 9.96777Z" fill="white"/>
<path d="M30.2029 9.96785C30.2029 9.02293 30.2029 8.08953 30.2029 7.1446C30.2029 6.02683 28.4744 6.02683 28.4744 7.1446C28.4744 8.08953 28.4744 9.02293 28.4744 9.96785C28.4744 11.0856 30.2029 11.0856 30.2029 9.96785Z" fill="white"/>
<path d="M19.8664 12.5952C19.8318 13.5747 19.0943 14.3237 18.1033 14.3583C17.1238 14.3929 16.3748 13.5401 16.3402 12.5952C16.3057 11.6157 17.1584 10.8667 18.1033 10.8321C19.0828 10.7975 19.8318 11.6503 19.8664 12.5952C19.901 13.713 21.6295 13.713 21.5949 12.5952C21.5373 10.6593 20.0508 9.16122 18.1033 9.1036C16.1674 9.04598 14.6693 10.7399 14.6117 12.5952C14.5541 14.5311 16.248 16.0292 18.1033 16.0868C20.0393 16.1444 21.5373 14.4505 21.5949 12.5952C21.6295 11.4774 19.901 11.4774 19.8664 12.5952Z" fill="white"/>
<path d="M31.1018 12.5952C31.0672 13.5747 30.3297 14.3237 29.3387 14.3583C28.3592 14.3929 27.6102 13.5401 27.5756 12.5952C27.541 11.6157 28.3937 10.8667 29.3387 10.8321C30.3297 10.7975 31.0672 11.6503 31.1018 12.5952C31.1363 13.713 32.8648 13.713 32.8303 12.5952C32.7727 10.6593 31.2861 9.16122 29.3387 9.1036C27.4027 9.04598 25.9047 10.7399 25.8471 12.5952C25.7895 14.5311 27.4834 16.0292 29.3387 16.0868C31.2746 16.1444 32.7727 14.4505 32.8303 12.5952C32.8648 11.4774 31.1363 11.4774 31.1018 12.5952Z" fill="white"/>
<path d="M42.6598 12.5952C42.6252 13.5747 41.8877 14.3237 40.8967 14.3583C39.9172 14.3929 39.1682 13.5401 39.1336 12.5952C39.0991 11.6157 39.9518 10.8667 40.8967 10.8321C41.8877 10.7975 42.6368 11.6503 42.6598 12.5952C42.6944 13.713 44.4229 13.713 44.3883 12.5952C44.3307 10.6593 42.8442 9.16122 40.8967 9.1036C38.9608 9.04598 37.4627 10.7399 37.4051 12.5952C37.3475 14.5311 39.0414 16.0292 40.8967 16.0868C42.8326 16.1444 44.3307 14.4505 44.3883 12.5952C44.4229 11.4774 42.6944 11.4774 42.6598 12.5952Z" fill="white"/>
</svg>
