<svg width="131" height="53" viewBox="0 0 131 53" fill="none" xmlns="http://www.w3.org/2000/svg">
<path d="M1.9108 0.962926C1.79459 0.712428 1.49731 0.603566 1.24681 0.719776C0.996312 0.835987 0.88745 1.13326 1.00366 1.38376L1.9108 0.962926ZM130.502 40.3403L124.749 39.8575L127.208 45.0814L130.502 40.3403ZM1.00366 1.38376C1.41608 2.27276 1.84022 3.15044 2.27581 4.01676L3.16923 3.56755C2.73838 2.71064 2.31881 1.84242 1.9108 0.962926L1.00366 1.38376ZM5.05662 9.13282C6.04692 10.8223 7.08353 12.4633 8.16414 14.0557L8.9916 13.4941C7.92339 11.9201 6.89854 10.2977 5.91933 8.62712L5.05662 9.13282ZM11.5991 18.7676C12.8045 20.3087 14.0543 21.7977 15.3459 23.2341L16.0896 22.5655C14.8132 21.146 13.5781 19.6746 12.3867 18.1515L11.5991 18.7676ZM19.3895 27.4304C20.7906 28.7872 22.2326 30.0892 23.7125 31.3359L24.3568 30.5711C22.8944 29.3392 21.4696 28.0527 20.0852 26.712L19.3895 27.4304ZM28.2981 34.9354C29.87 36.0839 31.4781 37.1756 33.1195 38.2102L33.6527 37.3643C32.0305 36.3417 30.4414 35.2628 28.888 34.1279L28.2981 34.9354ZM38.1518 41.1487C39.8615 42.0711 41.6018 42.9359 43.3699 43.7428L43.7851 42.833C42.037 42.0353 40.3166 41.1804 38.6266 40.2687L38.1518 41.1487ZM48.7468 45.9863C50.5598 46.6743 52.3976 47.3047 54.2574 47.8771L54.5516 46.9213C52.712 46.3551 50.8944 45.7317 49.1016 45.0514L48.7468 45.9863ZM59.8776 49.4149C61.7605 49.8673 63.6622 50.2626 65.58 50.6005L65.7536 49.6157C63.8557 49.2813 61.974 48.8901 60.1112 48.4425L59.8776 49.4149ZM71.3425 51.4379C73.2646 51.6587 75.1998 51.8234 77.1455 51.9316L77.2011 50.9332C75.2748 50.826 73.3591 50.663 71.4566 50.4444L71.3425 51.4379ZM82.9687 52.0872C84.9015 52.0834 86.8421 52.0247 88.7879 51.911L88.7295 50.9127C86.8024 51.0253 84.8807 51.0834 82.9667 51.0872L82.9687 52.0872ZM94.5865 51.4101C96.5058 51.1909 98.4277 50.9182 100.35 50.592L100.183 49.6061C98.2782 49.9293 96.3742 50.1994 94.473 50.4166L94.5865 51.4101ZM106.062 49.4641C107.947 49.0396 109.829 48.5631 111.708 48.0347L111.437 47.0721C109.575 47.5958 107.71 48.0679 105.842 48.4886L106.062 49.4641ZM117.266 46.3139C119.094 45.696 120.915 45.0281 122.728 44.3101L122.36 43.3803C120.563 44.0921 118.757 44.7541 116.946 45.3665L117.266 46.3139ZM2.36437 0.752508C2.13194 0.251511 1.53739 0.0337865 1.03639 0.266208C0.535395 0.49863 0.317671 1.09318 0.550093 1.59418L2.36437 0.752508ZM130.502 40.3403L118.996 39.3748L123.913 49.8225L130.502 40.3403ZM0.550093 1.59418C0.964718 2.48793 1.39114 3.37034 1.8291 4.24137L3.61595 3.34294C3.18746 2.49074 2.77018 1.62726 2.36437 0.752508L0.550093 1.59418ZM4.62526 9.38566C5.62112 11.0846 6.6636 12.7349 7.75041 14.3364L9.40533 13.2134C8.34332 11.6484 7.32435 10.0353 6.35069 8.37428L4.62526 9.38566ZM11.2052 19.0757C12.4177 20.6258 13.6749 22.1235 14.9741 23.5684L16.4614 22.2312C15.1927 20.8202 13.9649 19.3576 12.7806 17.8435L11.2052 19.0757ZM19.0417 27.7896C20.4511 29.1545 21.9016 30.4642 23.3904 31.7183L24.679 30.1888C23.2253 28.9642 21.8091 27.6855 20.433 26.3528L19.0417 27.7896ZM28.0031 35.3391C29.5844 36.4944 31.2019 37.5925 32.8529 38.6332L33.9194 36.9413C32.3068 35.9248 30.7271 34.8523 29.183 33.7242L28.0031 35.3391ZM37.9144 41.5888C39.6339 42.5165 41.3842 43.3862 43.1624 44.1976L43.9927 42.3781C42.2546 41.585 40.5441 40.7351 38.864 39.8286L37.9144 41.5888ZM48.5694 46.4538C50.3925 47.1456 52.2404 47.7794 54.1103 48.355L54.6987 46.4434C52.8692 45.8804 51.0618 45.2604 49.279 44.5839L48.5694 46.4538ZM59.7608 49.901C61.6537 50.3558 63.5654 50.7532 65.4932 51.093L65.8403 49.1233C63.9525 48.7906 62.0808 48.4016 60.228 47.9564L59.7608 49.901ZM71.2854 51.9346C73.2173 52.1565 75.1623 52.322 77.1177 52.4309L77.2289 50.434C75.3123 50.3273 73.4064 50.1651 71.5137 49.9477L71.2854 51.9346ZM82.9697 52.5872C84.912 52.5834 86.862 52.5244 88.8171 52.4101L88.7003 50.4135C86.7826 50.5257 84.8702 50.5835 82.9657 50.5872L82.9697 52.5872ZM94.6432 51.9069C96.5716 51.6866 98.5025 51.4127 100.434 51.0849L100.099 49.1131C98.2034 49.4349 96.3084 49.7037 94.4162 49.9198L94.6432 51.9069ZM106.172 49.9519C108.065 49.5254 109.956 49.0468 111.843 48.516L111.301 46.5907C109.448 47.1121 107.591 47.582 105.732 48.0008L106.172 49.9519ZM117.426 46.7875C119.262 46.1669 121.091 45.4961 122.912 44.7749L122.176 42.9155C120.386 43.6242 118.589 44.2832 116.786 44.8929L117.426 46.7875Z" fill="#F0F0F0"/>
</svg>
