<svg width="80" height="93" viewBox="0 0 80 93" fill="none" xmlns="http://www.w3.org/2000/svg">
<path opacity="0.4" d="M21.3895 5.00253C21.0643 9.46969 20.9983 10.9754 20.9053 16.0708L20.8626 18.7725L20.1403 18.0365L19.414 17.282L19.4587 15.5871C19.4967 14.2229 19.4081 13.4477 19.0064 11.8487C18.7266 10.7271 18.1952 8.34224 17.8095 6.54601C17.4199 4.73125 17.1058 3.26833 17.0766 3.31336C17.0619 3.33587 17.0533 4.655 17.0484 6.26387C17.0427 9.50014 17.4914 12.6776 18.2912 15.0435C18.5552 15.8198 18.7501 16.456 18.7129 16.464C18.6943 16.468 18.4832 16.3002 18.2601 16.0769C17.9388 15.7585 17.6602 15.0047 17.1258 12.9691C16.3409 10.0382 16.3714 10.0898 14.0028 7.30518C13.3814 6.58625 13.0562 5.97806 12.7605 5.05362C12.2392 3.44147 12.1472 4.10048 12.5898 6.25256C12.9807 8.16389 13.583 9.70052 14.6741 11.5196C15.14 12.3301 15.5183 13.0043 15.5036 13.0269C15.489 13.0494 14.6961 12.6191 13.7226 12.0726C12.0916 11.183 4.75561 8.01201 4.64925 8.15108C4.55752 8.26763 9.40462 12.2636 10.8429 13.2526C12.2175 14.2167 14.3068 15.066 16.3499 15.5184C17.4313 15.7512 18.6492 16.4389 18.7406 16.8648C18.7645 16.9759 18.3752 16.8851 17.8612 16.6662C16.177 15.9817 14.4899 15.6466 12.4147 15.5885C10.3209 15.5343 7.19208 15.6443 6.54101 15.7841C6.11714 15.8945 13.0116 17.2812 15.0854 17.514C15.8626 17.599 17.1472 17.6912 17.9643 17.6901L19.4496 17.7199L20.4095 18.928C20.9446 19.6073 21.3362 20.1625 21.2804 20.1745C21.2246 20.1864 19.7341 19.7703 17.9661 19.2394C16.1981 18.7086 14.1577 18.1781 13.4324 18.0626C12.0866 17.8672 3.52293 17.4975 3.43915 17.6511C3.39527 17.7186 8.60792 18.8853 13.2468 19.8265C14.2643 20.0342 16.6422 20.4148 18.5632 20.661C22.0093 21.1222 22.5751 21.3106 22.7833 22.0989C22.8111 22.2285 21.7085 22.0778 20.3429 21.7899C16.7774 21.0444 15.8514 20.9914 12.2057 21.2317C8.59724 21.464 6.89012 21.3075 2.77342 20.3511C1.48222 20.0471 0.382293 19.8184 0.326487 19.8303C0.270681 19.8423 0.901581 20.1524 1.71978 20.5192C3.65238 21.3634 5.83889 21.94 8.33509 22.237C9.41514 22.3732 11.2444 22.736 12.3788 23.0348C15.2919 23.8235 19.1566 24.0592 22.6177 23.6842L23.8546 23.5542L24.4401 24.3777C24.7746 24.8483 25.0003 25.2647 24.975 25.3283C24.9271 25.3773 22.8879 25.2146 20.4329 24.9281C15.3886 24.3645 13.2244 24.3449 9.552 24.8234C8.15159 25.0078 5.72283 25.2968 4.16566 25.4762C1.07389 25.8494 0.921102 25.8628 1.05657 25.95C1.10172 25.979 3.09185 26.0941 5.46594 26.1849C7.84003 26.2757 10.707 26.3963 11.8495 26.461C15.0752 26.6208 18.8882 26.6157 22.3518 26.4339C24.1042 26.3482 25.6414 26.3475 25.7808 26.4532C26.0743 26.642 27.9275 29.3823 27.8544 29.4948C27.8252 29.5399 25.693 29.1259 23.104 28.5776C20.5335 28.0253 17.4781 27.4803 16.3236 27.3601C14.5116 27.168 1.3681 27.2197 1.25506 27.4183C1.18193 27.5309 12.0102 29.0222 17.2976 29.6305C19.932 29.9366 23.5627 30.2613 25.3696 30.3383C28.3375 30.4759 28.7002 30.5337 28.9404 30.9276C29.0891 31.1669 29.5497 31.8622 29.9572 32.4915L30.6887 33.6323L29.525 33.3785C28.8887 33.2246 26.7965 32.7246 24.9022 32.2402C19.0401 30.7674 17.7807 30.6116 11.5683 30.5894C9.15432 30.5846 6.19164 30.5621 4.96406 30.5544C3.75507 30.5428 2.72543 30.5508 2.69618 30.5958C2.66692 30.6408 3.52375 30.8249 4.61175 30.9981C5.68114 31.1753 8.67279 31.6953 11.2234 32.155C18.5085 33.4579 21.3567 33.8537 26.5751 34.3218L31.4387 34.7692L32.4369 36.3371C32.9745 37.2096 33.4099 37.9685 33.362 38.0175C33.3368 38.081 30.2481 37.5625 26.5192 36.8715C19.978 35.6801 19.6605 35.6514 16.9569 35.7476C14.0074 35.8771 12.748 35.7214 6.45131 34.4C2.37707 33.5506 1.86828 33.4468 1.88419 33.5209C1.89214 33.5579 2.58949 33.815 3.42502 34.0811C4.24591 34.3698 5.61407 34.8509 6.42432 35.1806C8.44596 35.9864 10.6218 36.604 13.1471 37.1273C14.3254 37.3586 15.5648 37.693 15.9327 37.8658C17.2729 38.4886 19.5019 39.1723 21.3311 39.5351C23.5416 39.9516 25.8373 40.0398 30.5844 39.8536C32.4975 39.7916 34.1835 39.7589 34.3482 39.801C34.4943 39.8471 34.9988 40.4749 35.4674 41.2073C36.2984 42.5399 36.2984 42.5399 35.8613 42.4981C35.6262 42.4905 32.3143 42.0199 28.5016 41.4824C21.5192 40.502 20.7275 40.4395 15.4888 40.6925C14.4857 40.7336 11.7927 40.7887 9.49825 40.797C7.2078 40.8239 5.30926 40.8634 5.28399 40.927C5.25473 40.972 5.61343 41.0112 6.10631 41.041C7.67398 41.0918 13.2337 41.6997 15.2117 42.0305C16.2811 42.2077 18.1422 42.7186 19.3496 43.1762C23.7635 44.8824 26.18 45.0803 36.9004 44.619C37.4598 44.5957 37.558 44.6909 38.2868 45.9098C38.7142 46.6316 39.0619 47.2543 39.0287 47.2808C38.9995 47.3259 38.1519 47.2754 37.1209 47.1868C34.1026 46.905 30.4478 46.7404 28.6688 46.7931C27.7627 46.8326 24.9433 47.2055 22.4082 47.6336C18.6374 48.2882 17.5346 48.4087 16.4253 48.3175C14.4831 48.1534 11.6603 47.4228 9.33843 46.4878C8.228 46.0289 7.28356 45.7086 7.25829 45.7721C7.02427 46.1323 11.6597 48.5077 13.971 49.2125C16.2597 49.9028 17.753 49.9696 21.0945 49.5815C24.8533 49.1426 26.4621 49.204 28.6539 49.8957C30.1788 50.3819 31.7559 50.2952 35.9838 49.5037L39.9513 48.7681L41.0928 50.7314C41.7153 51.8181 42.213 52.7767 42.1957 52.8773C42.1677 53.0189 40.8073 52.846 31.4922 51.5141C26.3749 50.7918 24.2492 50.8608 16.1643 51.9961C12.7868 52.4887 9.99794 52.9132 9.96471 52.9397C9.8876 53.0337 9.92878 53.0442 13.4295 53.1256C17.0272 53.2055 20.468 53.5516 25.3208 54.3113C32.4134 55.4424 33.1189 55.4653 39.5016 54.8311C41.4613 54.6234 43.1314 54.5167 43.1991 54.5602C43.3877 54.7135 44.7959 57.375 44.7414 57.4835C44.7121 57.5286 41.2023 57.0423 36.9632 56.4221C28.3163 55.121 28.3575 55.1315 23.6848 55.3018C21.8314 55.3704 18.0716 55.4415 15.3666 55.4411C12.6431 55.4447 10.3114 55.461 10.2184 55.481C10.1108 55.5235 11.1869 55.6411 12.5951 55.7649C19.1127 56.3028 23.2521 57.0025 25.8024 58.0047C30.8207 59.988 33.3395 60.2995 42.2117 60.0219L46.1537 59.8923L47.0217 61.4881C47.5035 62.3726 47.8525 63.0919 47.8153 63.0999C47.7781 63.1079 46.4948 62.841 44.9499 62.5335C40.7109 61.642 39.3771 61.5022 35.7103 61.5533C29.4208 61.6252 29.1378 61.6665 20.844 63.3697C16.0142 64.3486 13.455 64.9367 13.8881 64.96C14.2615 64.9767 15.5542 64.8347 16.7381 64.6387C20.6696 64.0077 24.0746 64.1871 29.4507 65.2993C33.974 66.246 38.0035 66.2526 47.0249 65.4005C49.1826 65.2084 49.16 65.1939 49.7571 66.6154L50.0265 67.2356L48.2953 67.2392C47.3587 67.2272 44.9926 67.1735 43.0556 67.1244C37.7892 66.9766 36.5443 67.0695 31.2774 68.0066C28.6532 68.4731 25.0858 68.9872 23.3453 69.1284C20.2708 69.4011 14.7757 69.7285 13.7567 69.6955C13.4844 69.6958 13.2984 69.7358 13.3661 69.7793C13.5693 69.9101 20.4563 70.4461 21.7769 70.4337C23.3472 70.4065 26.4467 70.6128 29.2046 70.9505C35.5348 71.7029 38.5733 71.5349 46.9733 69.9639C49.24 69.5547 51.1161 69.2294 51.1613 69.2584C51.2251 69.2835 52.8244 72.2914 52.8522 72.421C52.8562 72.4395 52.2132 72.3451 51.4241 72.2046C50.631 72.0455 49.1511 71.8596 48.1162 71.7525L46.2484 71.5724L40.891 72.7226C35.236 73.9367 31.8981 74.8858 25.6328 77.0639C20.4371 78.8768 20.2417 79.0543 24.2823 78.2062C27.4859 77.5378 28.8344 77.3838 33.3384 77.153C35.1878 77.0659 46.1295 75.2785 50.1475 74.4158C53.5889 73.677 53.5703 73.681 54.206 74.9198C54.6121 75.7237 54.6824 75.9605 54.4964 76.0004C54.3661 76.0284 52.825 76.0106 51.0594 75.9441C47.9054 75.8464 47.8085 75.8478 45.1643 76.493C42.0962 77.2486 41.5886 77.5125 39.3554 79.6192C38.0435 80.8501 34.8078 84.4505 33.8253 85.7656L33.3746 86.3854L33.9462 85.8753C34.2559 85.5957 35.6569 84.3263 37.0392 83.0609C40.4859 79.8995 40.967 79.6025 43.3853 79.0833C44.8734 78.7638 45.753 78.6912 47.112 78.7675C48.6837 78.8368 49.2537 78.7726 52.1928 78.1416L55.504 77.4307L55.849 78.1314C56.0481 78.5149 56.3321 79.1125 56.5192 79.4404C56.6878 79.7723 56.8377 80.1081 56.8497 80.1637C56.8616 80.2193 56.1986 80.3035 55.3895 80.3416C53.0591 80.4545 49.332 81.3128 47.5075 82.1501C45.5048 83.0643 45.1287 83.3969 44.2324 85.0228C43.2523 86.8024 43.0076 87.2036 42.4453 87.8473L41.9786 88.3931L42.6764 87.8364C44.7299 86.2527 46.9319 85.1794 49.2014 84.6921C50.1687 84.4844 51.9772 83.8443 54.0661 82.9697C55.9026 82.1879 57.4733 81.6183 57.5636 81.6764C57.7482 81.8111 60.8815 88.2477 61.9085 90.5842C62.2509 91.3631 62.5654 92.0123 62.6106 92.0414C62.746 92.1285 63.5883 89.7974 63.5247 89.5011C63.4769 89.2789 58.03 79.1354 57.4964 78.2814C57.3742 78.0752 57.9097 77.9408 60.9803 77.3785C63.6975 76.8919 65.1777 76.5354 66.8082 75.9723C71.2092 74.4462 71.4351 74.3202 75.8292 70.8585C78.0408 69.1052 79.8418 67.6143 79.8259 67.5403C79.814 67.4847 79.6652 67.5167 79.5137 67.6267C78.0451 68.5812 71.1399 72.3109 70.219 72.6442C69.5692 72.8805 67.4645 73.4099 65.5113 73.8293C62.3304 74.5122 61.7284 74.6995 59.3989 75.7227C57.9743 76.3385 56.8023 76.8614 56.7837 76.8653C56.7093 76.8813 55.7603 75.0898 55.7046 74.8305C55.6768 74.7009 57.8793 72.8139 60.604 70.6405C63.3101 68.471 66.096 66.1295 66.766 65.4432C67.4692 64.7305 69.248 62.4114 70.8808 60.0462C72.451 57.7526 74.7765 54.4445 76.0555 52.6976C79.5588 47.8968 79.62 47.7287 76.7923 51.1447C74.9817 53.3156 72.8829 55.1416 69.1017 57.8324C65.8415 60.1402 64.362 61.6783 58.3263 69.0955L54.8312 73.3909L54.1543 72.1414C53.7721 71.4487 53.3513 70.6673 53.1761 70.3949C53.0195 70.1186 52.8894 69.8753 52.8815 69.8383C52.8695 69.7828 57.1617 65.665 59.4985 63.4973C62.989 60.2683 65.3434 57.4577 66.4778 55.2188C67.5392 53.0926 71.1279 45.1546 71.0921 44.988C71.0762 44.9139 69.5977 47.091 67.8133 49.8374L64.5437 54.8205L60.7916 57.7375C56.5225 61.0562 55.5148 62.1636 53.3393 65.8076C52.6239 67.0073 51.9764 67.9793 51.9087 67.9357C51.728 67.8195 49.7438 64.1969 49.6496 63.849C49.582 63.5342 52.0821 61.5833 56.06 58.8115C58.1081 57.3839 60.6108 55.3549 61.6969 54.25C62.1462 53.8049 63.6139 51.94 64.9926 50.1137C66.3673 48.2688 68.6195 45.3445 69.9994 43.6147C73.4348 39.3128 73.7605 38.8361 71.6309 41.1529C69.6156 43.3678 67.3707 45.1477 63.6122 47.5818C60.0053 49.9059 58.2068 51.5899 52.1596 58.4092C50.3397 60.4465 48.783 62.0785 48.6967 62.039C48.5094 61.9823 47.6533 60.4421 47.749 60.344C47.9697 60.1029 52.3176 55.9732 53.8768 54.5342C56.5233 52.087 58.7977 49.7196 59.7284 48.435C60.1645 47.8377 61.0993 46.3004 61.7948 45.0082C63.7005 41.5577 66.1075 37.3603 68.2577 33.7799C69.3015 32.0254 70.126 30.6086 70.0702 30.6206C69.9958 30.6366 69.2007 31.7371 68.2859 33.0958C66.2144 36.1364 64.2524 38.1461 59.8011 41.7944C57.1879 43.9439 55.4078 46.1664 50.197 53.8908L46.8451 58.8528L46.05 57.4156C45.6067 56.6197 45.178 55.8013 45.1117 55.5831C45.0109 55.2948 45.5321 54.6405 47.8397 52.2466C51.2587 48.6844 51.3172 48.5943 54.887 43.7405C56.4372 41.6255 58.143 39.419 58.6986 38.8348C59.9309 37.5048 63.7896 33.9062 66.7404 31.3355C67.9354 30.2847 68.8791 29.4235 68.8526 29.3904C68.6042 29.2307 52.4832 41.9708 50.9333 43.5433C49.3355 45.1649 46.2704 50.3752 44.9932 53.6714C44.8162 54.1162 44.6234 54.4869 44.549 54.5029C44.4374 54.5268 42.3695 50.7866 42.286 50.3977C42.2621 50.2866 43.2459 49.0681 44.4928 47.7155C52.4397 38.9581 53.6378 37.0156 56.4137 28.5548C58.322 22.7598 59.7862 17.5251 59.4885 17.589C59.4513 17.597 58.7264 19.2055 57.8831 21.1687C56.7098 23.8614 55.7669 25.633 54.017 28.4495C52.7418 30.4861 50.8948 33.5752 49.9293 35.3322C48.3295 38.2134 41.6533 48.5383 41.337 48.6062C41.2068 48.6341 39.452 45.7177 39.5477 45.6197C39.8748 45.2395 47.2026 36.2276 48.2888 34.8515C50.0902 32.5469 51.9333 29.4392 52.6864 27.4179C53.011 26.5733 54.1578 23.5764 55.266 20.762C56.3556 17.9517 57.3947 15.2684 57.5676 14.8051L57.8736 13.9646L57.5067 14.4308C57.3046 14.6679 56.0202 16.5708 54.6334 18.6314C53.2652 20.6879 50.5648 24.6965 48.6435 27.5304C45.0057 32.8831 43.5017 35.395 40.6384 40.9107C39.718 42.6968 38.8948 44.2101 38.8098 44.2672C38.7433 44.3202 38.2986 43.6989 37.8367 42.907L37.0005 41.4593L39.8438 36.1222C44.8748 26.6542 45.1489 25.9367 46.5115 19.5034C46.9856 17.2708 47.6995 13.9793 48.0937 12.19C49.2018 7.10921 49.2284 7.14225 47.6294 10.9337C47.0361 12.3396 45.3347 16.2886 43.8502 19.7067C40.6963 26.9508 39.5854 29.8432 37.9059 35.1629C37.2365 37.3019 36.5804 39.3218 36.4727 39.6355L36.2717 40.2404L34.9456 38.1424L33.6235 36.0629L36.1784 30.9234C39.8851 23.4444 39.8599 23.5079 41.601 14.6688C42.2271 11.5124 42.7627 8.84036 42.7986 8.7358C42.8385 8.64974 42.8226 8.57567 42.7668 8.58765C42.618 8.6196 36.5795 23.7279 35.7599 26.0735C35.3647 27.2238 34.5875 29.6765 34.0524 31.5348C33.5173 33.3931 32.9957 34.8611 32.8828 34.7885C32.6796 34.6578 30.9672 32.1197 30.9155 31.879C30.8956 31.7864 31.9453 29.0621 33.2304 25.803C34.5381 22.5584 35.673 19.5058 35.7783 18.999C35.8835 18.4921 36.1023 16.7017 36.2853 15.0158C36.4682 13.33 36.8339 10.2295 37.1193 8.11483C37.4087 6.01868 37.6276 4.22826 37.6077 4.13567C37.5918 4.0616 37.3149 5.12837 36.994 6.5339C36.151 10.2211 35.2767 12.9465 33.6124 17.1588C31.98 21.2479 31.1521 24.0989 30.5218 27.7793C30.2819 29.1093 30.0621 30.2606 30.0036 30.3507C29.9384 30.5003 27.8952 27.7814 27.8236 27.4481C27.8077 27.374 28.4414 25.0684 29.248 22.2994C30.4712 18.0269 30.7069 16.9496 30.8196 15.027C30.8853 13.7925 31.0675 10.9251 31.2056 8.66774C31.3622 6.40639 31.427 4.53282 31.3819 4.50377C31.3367 4.47472 31.2394 5.01864 31.1328 5.70017C30.8006 8.23166 30.2053 10.8971 28.926 15.7241C27.7026 20.2679 27.536 21.2141 27.0113 26.1115C26.9885 26.3682 25.4457 24.5298 25.3583 24.1225C25.3424 24.0484 26.0878 21.4475 27.0207 18.3609C28.1254 14.7143 28.6966 12.4802 28.6596 11.9457C28.6426 11.5038 28.7714 9.11287 28.9813 6.64636C29.1726 4.18386 29.2999 2.23875 29.2414 2.3288C28.9315 2.87961 26.5343 13.7387 25.8306 17.8028C25.3802 20.4178 24.975 22.7906 24.9191 23.0738C24.8099 23.5622 24.7873 23.5477 23.915 22.4758L23.0387 21.3854L24.0815 16.7255C24.8259 13.4856 25.1551 11.5746 25.1624 10.4301C25.1615 9.51985 25.2344 7.41208 25.2871 5.75419C25.3584 4.09231 25.3963 2.72815 25.3698 2.69511C25.2157 2.61196 23.5385 13.4714 23.194 16.761C22.975 18.8227 22.7336 20.5986 22.6977 20.7032C22.6392 20.7932 22.3032 20.4973 21.954 20.0492L21.3274 19.2152L21.8801 16.7138C22.8044 12.4086 22.9341 10.9279 22.5608 8.37353C22.3914 7.13137 22.1601 4.87582 22.0732 3.3835C21.9824 1.87266 21.8648 0.600006 21.8011 0.574951C21.7559 0.545911 21.5768 2.5215 21.3895 5.00253Z" fill="#5E6E47"/>
</svg>
