<?xml version="1.0" encoding="utf-8"?><svg xmlns="http://www.w3.org/2000/svg" xmlns:xlink="http://www.w3.org/1999/xlink"><symbol viewBox="0 0 51 62" id="icons--call-center"><g filter="url(#afilter0_d_107_35)"><path fill-rule="evenodd" clip-rule="evenodd" d="M20.763 1.441c-3.858.476-7.246 1.827-10.45 4.169-1.154.843-3.406 3.096-4.316 4.318a21.614 21.614 0 00-4.028 9.804 11.41 11.41 0 01-.51 1.966c-.952 2.57-.672 5.127.805 7.335 1.175 1.759 3.338 3.143 5.305 3.397.295.038.65.092.789.121.247.05.253.028.253-.901 0-.524.029-.953.064-.953s.276.144.535.32c2.262 1.544 5.95 2.523 10.428 2.769 1.16.064 1.431.112 1.547.275.247.347.892.668 1.587.79 2.229.39 3.918-1.74 2.466-3.11-.622-.588-1.069-.76-1.943-.753-.886.007-1.405.189-1.98.69l-.389.34-1.572-.095c-4.444-.267-7.744-1.28-9.955-3.055l-.732-.587-.029-5.842-.03-5.842-.476.063c-1.264.164-2.445.583-3.595 1.272l-.417.25.223-.8c1.93-6.924 7.778-12.359 14.883-13.831 8.576-1.778 17.24 2.287 21.373 10.028.6 1.124 1.215 2.643 1.531 3.784l.227.82-.417-.25c-1.15-.69-2.33-1.108-3.596-1.274l-.478-.062v16.006l.253-.052c.14-.029.494-.083.789-.121 1.967-.254 4.13-1.638 5.305-3.396 1.477-2.21 1.757-4.766.804-7.337a11.398 11.398 0 01-.51-1.965c-1.006-7.188-5.626-13.387-12.245-16.434-3.66-1.685-7.657-2.33-11.499-1.857zm-.45 3.468c-2.242.306-5.16 1.523-7.3 3.047-2.478 1.763-4.667 4.41-5.936 7.175l-.38.826.423-.067c.232-.036.712-.1 1.067-.141l.645-.075.524-.928c2.698-4.779 7.627-7.911 12.925-8.213 2.813-.16 4.755.137 7.173 1.101 3.277 1.306 6.374 4.07 8.075 7.206.44.81.48.85.933.917.26.038.716.123 1.014.189.297.066.571.089.609.051.122-.122-1.303-2.78-2.031-3.79-2.887-4.002-7.32-6.759-11.745-7.304-1.593-.197-4.533-.194-5.996.006zm.675 4.595c-4.152.748-7.698 3.327-9.605 6.984-1.062 2.036-1.534 3.949-1.534 6.21 0 2.061.363 3.734 1.21 5.565.38.825.43.881 1.03 1.158.622.289 2.105.828 2.275.828.049 0-.184-.377-.516-.838-.62-.858-1.29-2.146-1.527-2.931-.124-.412-.107-.494.26-1.217 1.27-2.509 3.112-3.841 6.1-4.413.372-.072 2.22-.17 4.107-.217 3.773-.097 4.164-.155 5.57-.84a9.49 9.49 0 001.483-.942l.695-.56.078.749c.132 1.266.569 2.752 1.132 3.848.439.855.72 1.226 1.59 2.09 1.22 1.21 1.194 1.047.434 2.642a11.474 11.474 0 01-5.3 5.398c-.494.248-1.11.513-1.368.59-.367.109-.546.256-.818.675-.56.86-1.859 1.56-2.892 1.56-.91 0-1.982-.357-2.516-.838-.26-.234-.416-.258-2.058-.313l-1.777-.06-.602.521c-1.513 1.31-4.131 2.419-7.558 3.2l-1.62.37V33.32l-.816-.219-.956-.257c-.111-.03-.141.814-.141 3.943v3.98h.323c.52 0 2.888-.433 4.29-.784 3.743-.937 6.578-2.288 8.213-3.914l.687-.683 1.148.295c2.142.55 4.832.505 6.988-.117l.911-.263.728.727c1.277 1.275 3.143 2.334 5.584 3.172 2.054.704 4.826 1.35 6.544 1.526l.703.072v-4.043c0-2.85-.037-4.043-.123-4.043-.068 0-.498.132-.957.294l-.833.294v2.67c0 2.183-.028 2.671-.154 2.671-.21 0-2.46-.51-3.222-.731-1.93-.56-3.681-1.322-4.955-2.156-.77-.506-1.566-1.207-1.45-1.28 2.867-1.822 4.488-3.549 5.675-6.044 3.45-7.255-.255-15.89-7.909-18.427-1.978-.655-4.582-.853-6.55-.498zm4.12 1.784a12.25 12.25 0 013.508 1.15c1.08.553 2.274 1.438 2.274 1.685 0 .107-.204.615-.454 1.129-.592 1.215-1.727 2.377-2.836 2.901-1.177.557-2.11.684-5.004.684-5.687 0-8.346.98-10.632 3.917l-.304.39-.006-.684c-.01-1.419.522-3.559 1.237-4.965.847-1.667 2.36-3.344 3.985-4.42 2.47-1.634 5.402-2.27 8.232-1.787zm7.878 5.06c.473.719 1.04 1.853 1.3 2.6.477 1.364.756 3.419.602 4.434l-.083.546-.552-.597c-1.005-1.084-1.681-2.814-1.853-4.733-.08-.893.03-2.782.162-2.782.041 0 .233.24.424.532zm-14.454 6.861c-.491.103-1.005.603-1.165 1.134-.176.584.023 1.2.532 1.644.338.295.485.346 1.003.346.671 0 1.157-.298 1.471-.902.608-1.169-.5-2.504-1.841-2.222zm8.814-.007c-1.1.233-1.604 1.275-1.114 2.301.481 1.008 2.007 1.123 2.732.206.889-1.123-.2-2.808-1.618-2.507zM12.037 41.94c-2.158.58-3.823 1.816-4.921 3.654-.534.894-.852 1.898-.988 3.116-.26 2.337-1.005 9.488-1.005 9.657 0 .175 1.243.188 18.353.188h18.353l-.063-.363c-.035-.2-.269-2.378-.519-4.84-.25-2.46-.534-4.902-.63-5.426-.425-2.301-1.939-4.27-4.125-5.366-1.291-.646-2.164-.801-4.306-.763l-1.797.032-3.44 4.13c-1.89 2.273-3.478 4.126-3.525 4.119-.048-.008-1.706-1.88-3.685-4.16l-3.597-4.145-1.769.007c-1.116.005-1.977.064-2.336.16z"/></g><defs><filter id="afilter0_d_107_35" x=".905" y=".145" width="49.248" height="61.846" filterUnits="userSpaceOnUse" color-interpolation-filters="sRGB"><feFlood flood-opacity="0" result="BackgroundImageFix"/><feColorMatrix in="SourceAlpha" values="0 0 0 0 0 0 0 0 0 0 0 0 0 0 0 0 0 0 127 0" result="hardAlpha"/><feOffset dx="2.291" dy="1.145"/><feGaussianBlur stdDeviation="1.145"/><feColorMatrix values="0 0 0 0 0 0 0 0 0 0 0 0 0 0 0 0 0 0 0.25 0"/><feBlend in2="BackgroundImageFix" result="effect1_dropShadow_107_35"/><feBlend in="SourceGraphic" in2="effect1_dropShadow_107_35" result="shape"/></filter></defs></symbol><symbol viewBox="0 0 57 69" id="icons--clipboard"><g filter="url(#bfilter0_d_107_34)"><path fill-rule="evenodd" clip-rule="evenodd" d="M20.292 2.133c-.49.157-1.448.975-1.692 1.446-.098.188-.214.57-.259.848l-.08.505-3.716.001c-3.645.001-3.728.007-4.333.291-1.106.52-1.48 1.009-1.963 2.572-.964 3.118-.981 3.333-.31 3.975l.377.36H34.189l.376-.36c.607-.58.6-.916-.066-3.17-.53-1.792-.647-2.066-1.091-2.55-.274-.297-.776-.67-1.115-.829-.604-.282-.696-.288-4.348-.289l-3.732-.001-.001-.277c-.002-.416-.537-1.463-.94-1.839-.782-.73-1.976-1.004-2.98-.683zm1.845 1.276c.4.2.785.726.87 1.184l.062.339h-3.672l.081-.339c.126-.523.264-.734.697-1.06.608-.46 1.217-.498 1.962-.124zM2.07 7.599c-.571.3-.817.551-1.063 1.086-.217.473-.227 1.512-.23 26.003-.002 22.683.02 25.56.188 25.964.245.584.504.864 1.07 1.152.438.223.904.233 11.328.233 5.979 0 10.852-.043 10.83-.095-.195-.448-1.132-2.002-1.285-2.128-.106-.088-1.119-.696-2.25-1.35L18.6 57.272l-.037-.757-.036-.756h-3.072V45.053H5.216V7.393l-1.388.005c-1.021.004-1.485.057-1.758.2zm35.342 11.167V30.14l.981.564.981.565h2.479V8.953l-.307-.522c-.48-.818-1.064-1.038-2.754-1.038h-1.38v11.373zM27.05 17.652c-.712.222-2.572.907-4.132 1.524-3.619 1.43-4.423 1.691-5.181 1.683-.756-.008-1.093-.18-2.417-1.229-.57-.452-1.388-.988-1.817-1.192-.947-.448-1.528-.412-2.61.164-.809.43-2.873 2.29-3.163 2.85-.483.931.427 2.188 1.581 2.186.401 0 .524-.063 1.585-.8.44-.304.652-.368 1.222-.365.58.003.927.117 2.167.704 2.104.996 2.64 1.115 3.985.885 1.47-.252 2.903-.682 5.511-1.655 2.762-1.03 3.286-1.157 4.75-1.152 1.305.004 2.116.187 3.749.843.591.238 1.252.433 1.47.432 1.233 0 2.171-1.667 1.41-2.507-.366-.405-3.848-2.258-4.796-2.553-1.048-.325-1.816-.283-3.314.182zm.37 8.508c-.577.158-2.52.869-4.317 1.58-3.423 1.351-4.78 1.806-5.386 1.806-.522 0-1.444-.5-2.51-1.359-.988-.798-1.799-1.267-2.418-1.401-.951-.205-2.275.485-3.949 2.06-1.168 1.098-1.38 1.485-1.177 2.157.213.71.752 1.151 1.494 1.222.577.055.668.024 1.27-.433.789-.6 1.401-.81 2.029-.7.258.044 1.164.402 2.012.794 2.088.966 2.525 1.055 3.905.8 1.408-.26 2.696-.652 5.285-1.607 2.726-1.005 3.458-1.186 4.822-1.191.857-.004 1.4.074 2.298.328l1.175.333 1.551-.882c.855-.486 1.615-.843 1.694-.794.104.064.108.024.013-.152-.166-.31-4.07-2.421-4.945-2.674-.898-.259-1.592-.231-2.846.113zm5.613 5.539l-1.974 1.158-2.344.01-2.343.01-1.133 1.982-1.132 1.983-1.952 1.126-1.951 1.126-.034 2.31-.033 2.31-1.18 2.024-1.18 2.024 1.182 2.039 1.183 2.038.004 2.3.004 2.298 1.966 1.108 1.967 1.107 1.144 1.998 1.145 1.997 2.311.003 2.312.002 2.03 1.17 2.028 1.17 1.95-1.14 1.951-1.138 2.389-.062 2.389-.062 1.136-1.953 1.137-1.953 1.964-1.131 1.964-1.131.062-2.393.061-2.392 1.13-1.938 1.13-1.938-1.13-1.939-1.13-1.938-.061-2.383-.062-2.384-1.971-1.141-1.972-1.142-1.13-1.952-1.131-1.952-2.387-.061-2.388-.062L37 31.67a91.661 91.661 0 00-1.974-1.133c-.01.002-.908.526-1.993 1.163zM11.727 35.01c-.773.207-1.669.816-2.896 1.967-1.131 1.063-1.378 1.534-1.155 2.209.17.514.708 1.037 1.217 1.182.488.14 1.14-.029 1.455-.376.407-.449 1.164-.757 1.845-.75.509.004.944.15 2.225.75 1.892.884 2.61 1.076 3.454.922l.605-.11.061-1.274.062-1.275 1.334-.773c.733-.425 1.36-.798 1.39-.83.032-.03-.652.184-1.518.48-.867.294-1.77.534-2.008.534-.61-.001-1.515-.468-2.59-1.336-1.612-1.3-2.415-1.606-3.481-1.32zm30.471 5.415c.504.261 2.095 1.955 2.19 2.33.045.181.045.537-.001.79-.074.403-.764 1.14-5.534 5.915-2.998 3-5.6 5.534-5.783 5.63-.395.21-.937.227-1.417.046-.372-.14-5.011-4.658-5.604-5.457-.28-.377-.356-.61-.356-1.091 0-.6.02-.633 1.006-1.64 1.707-1.745 2.088-1.71 4.174.378l1.417 1.42 4.072-4.046c2.24-2.225 4.21-4.136 4.377-4.247.375-.246 1.014-.26 1.46-.028zM12.371 50.899c0 1.523-.015 2.769-.032 2.769-.018 0-1.28-1.246-2.806-2.77L6.76 48.13H12.371v2.769z"/></g><defs><filter id="bfilter0_d_107_34" x=".778" y=".855" width="56.119" height="67.572" filterUnits="userSpaceOnUse" color-interpolation-filters="sRGB"><feFlood flood-opacity="0" result="BackgroundImageFix"/><feColorMatrix in="SourceAlpha" values="0 0 0 0 0 0 0 0 0 0 0 0 0 0 0 0 0 0 127 0" result="hardAlpha"/><feOffset dx="2.291" dy="1.145"/><feGaussianBlur stdDeviation="1.145"/><feColorMatrix values="0 0 0 0 0 0 0 0 0 0 0 0 0 0 0 0 0 0 0.25 0"/><feBlend in2="BackgroundImageFix" result="effect1_dropShadow_107_34"/><feBlend in="SourceGraphic" in2="effect1_dropShadow_107_34" result="shape"/></filter></defs></symbol><symbol viewBox="0 0 85 53" id="icons--delivery"><g filter="url(#cfilter0_d_107_36)"><path fill-rule="evenodd" clip-rule="evenodd" d="M14.87 2.054c-.87.43-1.15 1.1-1.15 2.754v1.407H8.92c-2.638 0-5.244.085-5.79.189C1.658 6.684.51 7.932.256 9.528c-.17 1.066.63 2.684 1.667 3.375l.731.486 5.487.093 5.487.093.053 1.724.053 1.724h-3.34c-4.486 0-5.516.348-6.34 2.143-.585 1.272-.436 2.569.443 3.87.704 1.041 1.178 1.153 5.328 1.254l3.803.094v3.54l-2.1.053c-1.878.047-2.175.102-2.797.515-1.033.687-1.518 1.454-1.634 2.586-.122 1.19.155 2.12.844 2.837 1.028 1.067 1.082 1.086 3.442 1.184l2.245.093.092 2.236c.148 3.554.433 3.82 4.094 3.82h2.183l.208.978c.271 1.273 1.468 3.285 2.466 4.144 1.68 1.446 3.882 2.323 5.854 2.33 1.37.004 3.402-.565 4.489-1.257 2.18-1.388 3.321-2.953 3.943-5.403l.2-.792h16.416l.132.792c.317 1.903 2.032 4.254 3.935 5.393 3.57 2.136 7.97 1.486 10.858-1.604.928-.993 1.876-2.757 2.087-3.883l.123-.664 3.461-.067c2.84-.055 3.561-.124 4.018-.386.892-.511 1.32-.95 1.788-1.83.43-.81.438-.919.425-5.764-.011-4.577-.041-5.017-.411-6.023-.22-.596-.618-1.346-.886-1.665-.641-.765-2.133-1.525-3.516-1.79-1.265-.242-3.481-1.013-4.118-1.432-.583-.384-1.047-1.17-2.8-4.743-.83-1.691-1.767-3.388-2.083-3.772-.66-.801-2.28-1.932-3.18-2.22-.34-.11-2.099-.241-3.91-.294l-3.293-.096V7.657c0-4.122-.138-4.81-1.097-5.466l-.658-.449-19.483.004c-17.615.004-19.54.034-20.095.308zm47.64 13.24c.561.327 1.242.833 1.512 1.125.367.396 2.458 4.388 3.465 6.613.034.077-2.49.14-5.611.14h-5.674V14.56l2.644.07c2.576.07 2.67.086 3.664.665zM29.433 36.946c.326.094.882.403 1.237.688 1.254 1.005 1.381 3.347.24 4.42-.964.904-1.377 1.1-2.317 1.1-1.143 0-1.937-.416-2.633-1.382-1.18-1.634-.456-4.052 1.411-4.72.869-.311 1.277-.332 2.062-.106zm33.633.02c1.726.503 2.628 2.439 1.977 4.243-.267.74-1.657 1.892-2.327 1.93-1.688.094-2.494-.288-3.295-1.562-.59-.938-.627-2.02-.107-3.044.463-.909.746-1.162 1.664-1.491.852-.305 1.248-.32 2.088-.075z"/></g><defs><filter id="cfilter0_d_107_36" x=".232" y=".597" width="84.752" height="51.538" filterUnits="userSpaceOnUse" color-interpolation-filters="sRGB"><feFlood flood-opacity="0" result="BackgroundImageFix"/><feColorMatrix in="SourceAlpha" values="0 0 0 0 0 0 0 0 0 0 0 0 0 0 0 0 0 0 127 0" result="hardAlpha"/><feOffset dx="2.291" dy="1.145"/><feGaussianBlur stdDeviation="1.145"/><feColorMatrix values="0 0 0 0 0 0 0 0 0 0 0 0 0 0 0 0 0 0 0.25 0"/><feBlend in2="BackgroundImageFix" result="effect1_dropShadow_107_36"/><feBlend in="SourceGraphic" in2="effect1_dropShadow_107_36" result="shape"/></filter></defs></symbol><symbol viewBox="0 0 81 63" id="icons--delivery-man"><g filter="url(#dfilter0_d_107_37)"><path fill-rule="evenodd" clip-rule="evenodd" d="M7.97 2.07A6.358 6.358 0 004.778 4.5c-.76 1.123-1.104 2.25-1.083 3.543.053 3.2 2.208 5.693 5.399 6.242 3.516.605 7.088-2.136 7.314-5.613.078-1.2.128-1.253 1.216-1.26.823-.005 1.999-.625 2.408-1.268.524-.824 1.022-2.357.918-2.825-.112-.507-.568-.992-1.044-1.11-.204-.05-1.716.038-3.36.196-2.86.277-3.007.278-3.431.032-1.356-.787-3.503-.94-5.147-.367zm52.37 1.332c-2.467.75-4.344 2.895-4.741 5.416-.623 3.953 2.567 7.653 6.599 7.653 4.99 0 8.253-5.1 6.102-9.535-1.146-2.364-3.434-3.774-6.084-3.751-.658.005-1.503.103-1.877.217zM22 13.408c-.595.176-1.393.98-1.558 1.568-.195.697.367 8.522.671 9.341.274.74 1.058 1.458 1.72 1.578.267.048 3.146.068 6.398.044l5.914-.044.5-.352c.274-.193.625-.634.78-.978.275-.617.275-.695-.029-4.97-.322-4.534-.416-5.002-1.13-5.64-.752-.671-1.041-.7-7.102-.686-3.153.007-5.927.07-6.163.14zm-11.767 2.8c-3.326.153-3.876.313-4.557 1.329l-.396.592-.095 11.554c-.09 10.93-.217 14.694-.556 16.376-.23 1.143-.608 2.11-2.309 5.91C.912 55.113.743 55.578.807 56.14c.093.819.594 1.5 1.353 1.84.696.313 1.95.363 2.558.102 1.114-.48 1.353-.806 3.06-4.196 2.055-4.08 2.404-5.025 3.508-9.501.484-1.966.902-3.595.929-3.622.06-.059 3.965 5.86 4.265 6.465.496.998.713 2.086 1.129 5.666.388 3.343.48 3.84.818 4.41.812 1.368 3.043 1.839 4.285.903 1.122-.846 1.153-1.194.602-6.596-.59-5.78-.502-5.434-3.19-12.378-1.684-4.347-1.907-5.03-1.907-5.808 0-.485.016-.888.037-.896.02-.009 2.099-.096 4.62-.196 4.994-.197 5.141-.224 5.896-1.11.546-.642.546-1.686 0-2.327-.766-.9-.967-.942-4.876-1.025-3.708-.08-3.859-.106-4.206-.748-.077-.141-.439-2.125-.804-4.408-.854-5.331-.765-4.965-1.378-5.672-.945-1.091-1.144-1.114-7.273-.834zM55.4 18.228c-.885.175-1.972.631-4.066 1.705-2.72 1.396-2.673 1.396-6.703-.085-2.19-.805-3.425-1.185-3.858-1.185-1.593 0-2.351 1.797-1.51 3.581.532 1.13 1.114 1.53 3.506 2.406 5.993 2.193 5.868 2.182 9.717.91 1.406-.466 2.587-.816 2.624-.779.038.038.068 7.226.068 15.975 0 14.026.027 15.97.23 16.447.514 1.22 1.489 1.78 3.102 1.785 1.316.004 2.17-.389 2.802-1.288l.446-.634.04-8.316.04-8.316h.88v8.189c0 7.76.015 8.216.282 8.73.593 1.144 1.526 1.638 3.091 1.638 1.264 0 2.124-.406 2.764-1.302l.443-.623.041-9.986.04-9.987.743-.215c1.32-.382 1.685-.74 3.452-3.384 2.861-4.283 2.813-4.191 2.81-5.389-.003-.578-.092-1.203-.2-1.405-.109-.201-1.33-1.931-2.715-3.845-1.791-2.475-2.7-3.603-3.148-3.907-1.2-.816-1.734-.87-8.336-.853-3.296.009-6.26.069-6.585.133zm14.987 8.604c1.013 1.445 1.015 1.803.012 3.285-.412.608-.81 1.143-.888 1.19-.085.053-.14-1.056-.14-2.875 0-1.67.056-2.9.129-2.82.07.075.469.625.887 1.22z"/></g><defs><filter id="dfilter0_d_107_37" x=".795" y=".58" width="80.171" height="61.846" filterUnits="userSpaceOnUse" color-interpolation-filters="sRGB"><feFlood flood-opacity="0" result="BackgroundImageFix"/><feColorMatrix in="SourceAlpha" values="0 0 0 0 0 0 0 0 0 0 0 0 0 0 0 0 0 0 127 0" result="hardAlpha"/><feOffset dx="2.291" dy="1.145"/><feGaussianBlur stdDeviation="1.145"/><feColorMatrix values="0 0 0 0 0 0 0 0 0 0 0 0 0 0 0 0 0 0 0.25 0"/><feBlend in2="BackgroundImageFix" result="effect1_dropShadow_107_37"/><feBlend in="SourceGraphic" in2="effect1_dropShadow_107_37" result="shape"/></filter></defs></symbol><symbol viewBox="0 0 41 47" id="icons--feather"><g filter="url(#efilter0_d_1_118)"><path d="M7.557 32.215s-5.785-6.231-1.041-12.353l1.3 2.83v-5.66l5.508-6.58 1.913 4.285V8.924l6.874-4.601.44 3.53 1.683-4.896 4.054-1.768c3.966-.57 7.515 2.506 7.515 6.509l-2.817 1.76 1.913.231-7.194 9.246-4.436.776 3.978.993-3.978 5.736-6.456 1.305 5.584.917s-1.069 4.589-14.84 3.553z"/><path d="M6.21 37.764s-.358-1.736 1.347-5.547c2.164-4.842 7.654-13.03 21.428-25.266" stroke="#fff" stroke-width=".964" stroke-miterlimit="10" stroke-linecap="round" stroke-linejoin="round"/><path d="M7.557 32.215s-5.785-6.231-1.041-12.353l1.3 2.83v-5.66l5.508-6.58 1.913 4.285V8.924l6.874-4.601.44 3.53 1.683-4.896 4.054-1.768c3.966-.57 7.515 2.506 7.515 6.509l-2.817 1.76 1.913.231-7.194 9.246-4.436.776 3.978.993-3.978 5.736-6.456 1.305 5.584.917s-1.069 4.589-14.84 3.553v0z" stroke="#fff" stroke-width=".964" stroke-miterlimit="10" stroke-linecap="round" stroke-linejoin="round"/></g><defs><filter id="efilter0_d_1_118" x=".166" y=".639" width="40.119" height="45.607" filterUnits="userSpaceOnUse" color-interpolation-filters="sRGB"><feFlood flood-opacity="0" result="BackgroundImageFix"/><feColorMatrix in="SourceAlpha" values="0 0 0 0 0 0 0 0 0 0 0 0 0 0 0 0 0 0 127 0" result="hardAlpha"/><feOffset dy="4"/><feGaussianBlur stdDeviation="2"/><feComposite in2="hardAlpha" operator="out"/><feColorMatrix values="0 0 0 0 1 0 0 0 0 0.42 0 0 0 0 0 0 0 0 0.5 0"/><feBlend in2="BackgroundImageFix" result="effect1_dropShadow_1_118"/><feBlend in="SourceGraphic" in2="effect1_dropShadow_1_118" result="shape"/></filter></defs></symbol><symbol viewBox="0 0 39 44" id="icons--g10"><g filter="url(#ffilter0_d_1_111)" stroke="#fff" stroke-width="1.032" stroke-linecap="round" stroke-linejoin="round"><path d="M7.497 9.884l24.031.026c.857.001 1.461 1.168 1.547 2.613l1.204 20.156c.086 1.445-.69 2.613-1.548 2.613H6.527c-.858 0-1.618-1.167-1.548-2.613l.971-20.035c.07-1.445.69-2.76 1.547-2.76v0zM27.194 8.384c0-1.375-.351-2.727-1.017-3.917a7.697 7.697 0 00-2.778-2.865 7.373 7.373 0 00-3.791-1.04 7.375 7.375 0 00-3.786 1.061 7.702 7.702 0 00-2.762 2.88 8.031 8.031 0 00-.996 3.924"/></g><defs><filter id="ffilter0_d_1_111" x=".459" y=".045" width="38.343" height="43.763" filterUnits="userSpaceOnUse" color-interpolation-filters="sRGB"><feFlood flood-opacity="0" result="BackgroundImageFix"/><feColorMatrix in="SourceAlpha" values="0 0 0 0 0 0 0 0 0 0 0 0 0 0 0 0 0 0 127 0" result="hardAlpha"/><feOffset dy="4"/><feGaussianBlur stdDeviation="2"/><feComposite in2="hardAlpha" operator="out"/><feColorMatrix values="0 0 0 0 1 0 0 0 0 0.42 0 0 0 0 0 0 0 0 1 0"/><feBlend in2="BackgroundImageFix" result="effect1_dropShadow_1_111"/><feBlend in="SourceGraphic" in2="effect1_dropShadow_1_111" result="shape"/></filter></defs></symbol><symbol viewBox="0 0 44 39" id="icons--like"><g filter="url(#gfilter0_d_1_115)"><path d="M17.304 29.611c-.256.954-.81 1.387-1.75 1.387-3.06.004-6.118 0-9.178.002-.638 0-1.198-.21-1.702-.578-.416-.302-.587-.722-.592-1.226-.026-2.77-.075-5.538-.082-8.307-.004-1.625.048-3.251.088-4.877.032-1.298 1.148-2.354 2.462-2.352 3.263.003 6.528.001 9.79.015.283 0 .476-.077.63-.301.812-1.181 1.627-2.358 2.44-3.537.302-.44.564-.912.908-1.315.955-1.117 1.066-2.387.851-3.761-.138-.88-.203-1.774-.255-2.665-.032-.521.225-.94.641-1.28 1.313-1.08 3.17-1.096 4.691 0 1.718 1.237 2.58 2.966 2.872 4.99.255 1.768-.003 3.5-.465 5.209l-.09.342c-.004.023 0 .047 0 .116h.378l7.774-.003c1.646-.001 2.978 1.015 3.24 2.508.187 1.057-.226 1.944-.933 2.71-.172.186-.207.33-.146.582.33 1.34-.044 2.54-.846 3.627-.179.241-.257.439-.218.757.167 1.365-.178 2.611-1.025 3.721-.106.14-.181.366-.154.535.395 2.413-1.335 3.906-3.34 4.076-1.3.112-2.613.065-3.92.068-3.407.007-6.814-.003-10.221.006-.648.001-1.263-.08-1.848-.448zm19.35-7.966h-.447c-1.8.002-3.6.003-5.4.002-.216 0-.436.015-.647-.023-.304-.056-.488-.25-.47-.572.017-.315.201-.494.52-.53.13-.015.263-.01.395-.01 1.992 0 3.983.003 5.976-.004.13 0 .31-.035.382-.12.672-.811 1.022-1.719.816-2.785-.055-.284-.188-.374-.485-.371-1.896.013-3.793.007-5.69.006-.604 0-.9-.193-.888-.58.012-.374.291-.55.884-.55 2.016-.003 4.032-.002 6.048-.008.14 0 .307 0 .413-.07.825-.544 1.024-1.895.396-2.653-.466-.563-1.085-.777-1.811-.775-2.772.007-5.544.004-8.316.005-1.112 0-1.237-.152-.963-1.199.416-1.588.793-3.182.675-4.842-.11-1.547-.586-2.958-1.662-4.123-.741-.803-1.62-1.371-2.79-1.3-1.073.068-1.619.648-1.53 1.678.075.855.206 1.706.322 2.557.167 1.247-.107 2.383-.857 3.41-.356.488-.699.987-1.031 1.491-.975 1.484-1.884 3.013-3.092 4.336-.085.092-.124.254-.124.383-.007 4.303-.007 8.605-.003 12.907 0 .11.016.258.087.325.394.372.835.688 1.414.688 4.632.004 9.263.006 13.896 0 .697-.001 1.355-.169 1.938-.56.803-.542 1.156-1.631.783-2.441h-4.56c-.6 0-1.2.008-1.8-.007-.327-.01-.559-.244-.555-.537.003-.312.176-.506.488-.565.116-.023.238-.023.358-.023 2.04-.001 4.08.002 6.12-.007.15-.001.364-.04.443-.142.681-.871.919-1.862.768-2.99zM16.097 14.8h-.482l-8.997-.009c-.765 0-1.377.565-1.378 1.315-.009 4.275-.01 8.552-.009 12.828.001.542.096.665.626.838.178.06.375.085.563.089.588.011 1.175.004 1.763.005 2.46 0 4.918.002 7.377 0 .442 0 .556-.114.557-.542.002-.46 0-.919 0-1.378V15.223c0-.127-.011-.254-.02-.423z"/></g><defs><filter id="gfilter0_d_1_115" x="0" y="0" width="44" height="39" filterUnits="userSpaceOnUse" color-interpolation-filters="sRGB"><feFlood flood-opacity="0" result="BackgroundImageFix"/><feColorMatrix in="SourceAlpha" values="0 0 0 0 0 0 0 0 0 0 0 0 0 0 0 0 0 0 127 0" result="hardAlpha"/><feOffset dy="4"/><feGaussianBlur stdDeviation="2"/><feComposite in2="hardAlpha" operator="out"/><feColorMatrix values="0 0 0 0 1 0 0 0 0 0.42 0 0 0 0 0 0 0 0 1 0"/><feBlend in2="BackgroundImageFix" result="effect1_dropShadow_1_115"/><feBlend in="SourceGraphic" in2="effect1_dropShadow_1_115" result="shape"/></filter></defs></symbol></svg>