<svg xmlns="http://www.w3.org/2000/svg" width="24.081" height="26" viewBox="0 0 24.081 26">
    <defs>
        <style>
            .cls-1{fill:#fff}.cls-2{clip-path:url(#clip-path)}
        </style>
        <clipPath id="clip-path">
            <path id="Rectangle_74" d="M0 0h24.081v26H0z" class="cls-1" data-name="Rectangle 74"/>
        </clipPath>
    </defs>
    <g id="Group_2256" data-name="Group 2256" transform="translate(-121 -122)">
        <g id="Group_39" data-name="Group 39" transform="translate(121 122)">
            <g id="Group_38" class="cls-2" data-name="Group 38">
                <path id="Path_982" d="M144.257 142.2l-3.674-3.954a1.821 1.821 0 0 0-2.7.055l-1.851 1.991a23.169 23.169 0 0 1-.365-.218 18.539 18.539 0 0 1-4.453-3.464 19.938 19.938 0 0 1-3.226-4.8c-.07-.132-.136-.26-.2-.384l1.241-1.334.611-.658a2.17 2.17 0 0 0 .049-2.905l-3.675-3.954a1.818 1.818 0 0 0-2.7.055l-1.034 1.12.026.031a6.605 6.605 0 0 0-.852 1.619 7.075 7.075 0 0 0-.379 1.643c-.486 4.327 1.352 8.282 6.339 13.649 6.895 7.416 12.452 6.858 12.692 6.829a5.891 5.891 0 0 0 3.029-1.327l.023.022 1.051-1.106a2.178 2.178 0 0 0 .047-2.908zm0 0" class="cls-1" data-name="Path 982" transform="translate(-121.001 -122)"/>
            </g>
        </g>
    </g>
</svg>
