<svg version="1.1" id="svg2" xmlns="http://www.w3.org/2000/svg" x="0" y="0" viewBox="0 0 635 123" style="enable-background:new 0 0 635 123" xml:space="preserve"><style>.st1{fill-rule:evenodd;clip-rule:evenodd;fill:#fff}</style><g id="g4"><path id="path230" d="M259.8 41.8c-.8 0-1.6-.1-2.3 0-.8.1-1.6.3-2.4.6-1 .3-2 .7-2.9 1.4-1.1.8-1.9 1.8-2.5 3-.3.6-.6 1.2-.7 1.9-.1 1.2-.2 2.4.2 3.5.3.8.8 1.5 1.6 2 .3.2.8.2 1.2.2.4 0 .8-.2 1.1-.3l2.1-.9c1.1-.5 2.1-.4 3.2.2 1.4.8 2.1 2 2.6 3.4.7 2 0 3.7-1.2 5.2-.4.6-1 .9-1.7 1.2-.9.4-1.8.8-2.8.6-.8-.2-1.6-.4-2.4-.7-1.2-.4-2.1-1.2-2.9-2.2-.8-1-1.4-2.1-2-3.2-.9-1.8-1.1-3.8-1.2-5.7-.2-2.2.1-4.3.8-6.4.4-1.2 1-2.5 1.6-3.6.6-1.1 1.4-2 2.3-2.9 1-1 2.1-1.8 3.3-2.5 1.3-.7 2.7-1.2 4.1-1.4.5-.1.9-.2 1.4-.3.8-.2 1.6-.3 2.5-.2.9.1 1.9 0 2.8.1.8.1 1.5.2 2.3.3h.3c3.2 0 6.5.1 9.7 0 .7 0 1.4-.2 2-.3 1-.2 2.1-.4 3.1-.9 1.4-.7 2.8-1.4 4-2.5.8-.8 1.6-1.7 2.1-2.8.8-1.5 1.3-3 1.5-4.7.1-1.4.2-2.8-.1-4.2-.5-2.8-1.8-5.1-4.5-6.3-1.1-.5-2.1-.5-3.1.5-.6.6-1 1.3-1.4 2.1-.5 1.1-1.1 2.1-2.1 2.8-1 .8-2.2 1.3-3.5.9-1.1-.3-1.9-1-2.5-2-.8-1.4-.7-2.9-.2-4.4.6-1.7 1.7-3 3-4.1.9-.7 2-1.2 3.3-1.4 1.3-.1 2.5-.2 3.8 0 .8.1 1.5.5 2.2.9 1.2.5 2.2 1.3 3.1 2.2.9.8 1.5 1.7 2.2 2.6 1.4 1.8 2 3.9 2.6 6 .4 1.4.6 2.9.6 4.4 0 2-.3 3.9-.9 5.8-.3 1.1-.6 2.1-1.1 3.1-.6 1.2-1.2 2.3-2.1 3.3-.2.2-.4.5-.6.8-1.1 1.3-2.5 2.3-4 3.2-1.5.9-3.1 1.6-4.7 2.2-.8.3-1.8.4-2.7.5-.6.1-1.1.2-1.7.3-.6.2-1.3.2-2 .2h-.8c-.3 0-.5.2-.5.5-.1.5-.1.9.2 1.3l.9 1.2c.6.8 1.1 1.6 1.5 2.4.9 1.8 1.5 3.8 2 5.7.4 2 .9 4.1.7 6.2-.1.6 0 1.3 0 1.9 0 .9 0 1.8-.1 2.7-.1 1.1-.2 2.2-.5 3.3-.3 1.4-.7 2.8-1.1 4.1-.6 1.9-1.4 3.9-2.4 5.6-.6 1-1.2 2.1-1.8 3.1-.4.6-.8 1.2-1.3 1.7-1.3 1.4-2.7 2.7-4.1 4-2.1 1.9-4.6 2.9-7.2 4-2.1.9-4.3 1.5-6.6 2.1-.7.2-1.5.2-2.2.3-1.3.1-2.7.2-4 .3-.9 0-1.7.1-2.6 0-1.7-.1-3.3-.2-5-.4-2.5-.3-4.9-1-7.2-2-1.8-.7-3.5-1.6-5.1-2.5-1.2-.7-2.2-1.6-3.3-2.5-.4-.3-.8-.6-1.1-.9-1.1-1.1-2.3-2.2-3.2-3.4-1-1.3-1.8-2.7-2.6-4-.6-1-1.1-2.1-1.6-3.2-.3-.6-.5-1.1-.7-1.7-.3-.8-.6-1.6-.8-2.4-.5-1.9-1-3.8-1.2-5.8-.1-1.4-.1-2.8-.1-4.2 0-1.7 0-3.5.2-5.2.1-1.1.4-2.1.6-3.1l.3-1.2c.5-2 1.1-4.1 2.3-5.9.4-.6.7-1.3 1.1-1.9.7-1 1.4-1.9 2.2-2.9.5-.6 1.2-1.2 1.8-1.8.4-.4.8-.9.9-1.6 0-.4 0-.8-.2-1.2-1.1-2.3-1.7-4.8-2-7.3-.2-1.7-.1-3.4.2-5.1.1-.9.2-1.7.3-2.6.2-.7.5-1.4.7-2.2.2-.7.4-1.3.7-2 .5-1.2 1.1-2.4 2-3.4.6-.6 1.1-1.3 1.7-1.9 1.3-1.3 2.7-2.3 4.4-3 .6-.2 1.1-.5 1.7-.7.6-.2 1.3-.3 2-.4.5-.1 1-.1 1.5-.1 1.4.1 2.9-.2 4.2.5 1.2.5 2.4 1.2 3.1 2.3.5.7 1.1 1.5 1.3 2.4.3 1.3-.1 2.4-.9 3.3-.4.5-.9 1-1.6 1.1-.8.1-1.6 0-2.3-.4-1.3-.6-2.3-1.7-3.4-2.5-1.8-1.2-3.7-1.8-5.9-1.2-2.6.7-4.5 2.3-5.7 4.7-.3.6-.6 1.1-.8 1.7-.4 1-.6 2-.7 3 0 1-.2 2-.1 3 0 1.6.2 3.3.8 4.8.5 1.2 1.2 2.4 2.2 3.4.4.4.8.7 1.3.7.2 0 .5 0 .7-.1.7-.2 1.5-.4 2.2-.6.9-.2 1.8 0 2.6.2 1.9.4 3.2 1.5 4.1 3.2 1.4 2.5.2 5.5-1.9 6.6-.5.3-1 .5-1.6.7-.9.4-1.8.2-2.7-.1-1.9-.8-3.6-1.7-5-3.2-.4-.4-.9-.6-1.3-.9-.1-.1-.3-.1-.5 0-.6.2-1 .6-1.4 1-.9 1-1.7 2-2.5 3-.1.1-.1.1-.1.2-1 1.8-1.8 3.8-2 5.9-.1.9-.3 1.7-.3 2.6-.1 2.2-.1 4.4.3 6.5.4 2.4 1.2 4.6 2 6.9.2.7.7 1.3 1.1 1.9.7 1.1 1.3 2.1 2 3.1.4.6.9 1.1 1.3 1.6 1.5 1.7 3.2 3.3 5 4.7.7.5 1.5 1 2.2 1.5 1.1.7 2.3 1.4 3.5 2 .9.4 1.8.7 2.8 1 .6.2 1.3.5 1.9.7.9.2 1.7.4 2.6.5 2 .3 3.9.6 5.9.7 1 .1 2-.1 3.1-.2.5 0 1-.1 1.4-.1.8-.1 1.6-.1 2.4-.3 1.2-.2 2.5-.4 3.7-.8 1.5-.4 3.1-1 4.5-1.8.8-.5 1.6-.9 2.3-1.4 1.6-1 3.1-2.2 4.3-3.7.6-.8 1.3-1.5 1.9-2.3.5-.6.9-1.3 1.2-1.9 1.1-2.1 2-4.4 2.5-6.8.4-2.2.6-4.4.7-6.7 0-.6-.1-1.2-.2-1.8-.1-.9-.3-1.8-.4-2.7-.2-1.4-.7-2.8-1.2-4.1-1.1-2.5-2.7-4.5-5-6.1-1.1-.7-2.3-1.1-3.5-1.5-1.9.3-3.5.3-5.1.4z" style="fill-rule:evenodd;clip-rule:evenodd;fill:#fff;stroke:#fff;stroke-width:.5669"/><path id="path232" class="st1" d="M62.6 92.9c-8.8-.3-17.5-.4-26.1-.4-9.1 0-18.1.1-26.9.4-.6 0-.9-.5-.9-1.4 0-.9.3-1.4.9-1.5 2.4-.3 3.9-.6 4.6-.8 1-.4 1.7-1.2 2.2-2.2.9-1.7 1.3-6.8 1.3-15.3V29.8c0-5.9-.1-9.6-.2-11.2-.1-1.5-.4-2.8-1-4-.5-1-1.3-1.7-2.7-2.1-.6-.2-2.1-.4-4.5-.7-.6-.1-1-.6-1-1.5 0-1.1.3-1.6 1-1.6.3 0 2.8.1 7.4.3 2.7.1 4.9.2 6.6.2 1.8 0 4.4-.1 7.6-.2 3.4-.1 5.6-.2 6.5-.2.7 0 1.1.5 1.1 1.6 0 .9-.3 1.3-.9 1.5-2.6.3-4.1.6-4.7.8-1 .3-1.8 1-2.2 2-.7 1.7-1.1 6.7-1.1 15.2v41.9c0 7.7.4 12.3 1.3 14 .8 1.5 2.2 2.4 4.1 2.9 1.2.2 2.9.4 5.4.4 6.7 0 12.3-1.9 16.8-5.9 2.5-2.3 5-6.1 7.7-11.5.3-.6.6-.8.9-.8.1 0 .4.1.8.2.7.2 1 .6 1 1.1v.5c-1.1 6.3-2.8 13.1-5 20.2zm32.8-54.4c7.1 0 12.9 3 17.4 9.1 3.8 5.3 5.8 11.6 5.8 19 0 8.5-2.4 15.4-7.2 20.8-4.3 4.8-9.6 7.2-16 7.2-7.2 0-13-3-17.4-9.1-3.7-5.1-5.6-11.4-5.6-18.8 0-8.5 2.4-15.5 7.3-21 4.2-4.8 9.4-7.2 15.7-7.2zm0 3.4c-3.9 0-6.9 2.7-8.9 8.1-1.7 4.4-2.5 9.9-2.5 16.7 0 8 1.1 14.2 3.2 18.6 2 4 4.7 6 8.3 6 3.9 0 6.9-2.7 9-8.1 1.7-4.4 2.6-9.9 2.6-16.5 0-8.2-1.1-14.4-3.2-18.7-2.2-4.1-4.9-6.1-8.5-6.1zm47.5 3.2v30.5c0 6.9.3 11 .8 12.2.5 1.1 2.7 1.9 6.6 2.3.5.1.8.6.8 1.3 0 .9-.3 1.4-.8 1.4-.9 0-2.3-.1-4.2-.1-3.9-.2-6.6-.2-8-.2-.3 0-4.3.1-12 .3-.7 0-1-.5-1-1.4 0-.8.3-1.3 1-1.3 3.4-.3 5.3-1.1 5.8-2.3.6-1.3.9-5.4.9-12.2V58.8c0-6.4 0-10.9-.1-13.5-2.1 0-4.9.1-8.3.3-.4 0-.6-.3-.6-.8l.8-3.4c.1-.4.4-.7 1-.7 1.8.1 4.2.1 7.1.1l-.1-5.9c0-8.6 2.7-16.3 8.2-23.1C145 6.7 150.1 4 156.1 4c3.9 0 5.9 1.2 5.9 3.7 0 2.7-.5 5-1.6 6.8-.9 1.4-1.8 2.1-2.8 2.1-1 0-1.9-.3-2.5-.9-.3-.2-.9-.9-1.6-2-1.8-2.3-3.1-3.4-3.9-3.4h-.2c-3 .6-4.8 4.6-5.6 12.1-.4 3.8-.6 9.9-.6 18.4 4 0 8-.1 12.1-.3.4 0 .7.2.7.7l-.9 3.5c-.1.5-.4.8-.8.8-2.7-.3-6.4-.4-11.4-.4zm22.5.1-6.3.1c-.7 0-1.1-.5-1.1-1.6 0-1 .4-1.5 1.2-1.6 3.2-.5 6.1-2.2 8.7-5 2.2-2.2 3.9-5 5.1-8.2.2-.8.8-1.1 1.7-1.1.9 0 1.4.4 1.4 1.1-.2 7.5-.3 11.4-.3 11.8 5.2 0 9.8-.1 14-.3.3 0 .4.2.4.5v.3l-1.1 3.4c-.1.5-.4.8-1 .8-4.9-.3-9.1-.4-12.6-.4l-.2 29.5c0 6 .6 10 1.9 11.9 1.4 2.1 3.2 3.1 5.4 3.1 2.1 0 4.2-1 6.3-3.1.2-.2.4-.3.6-.3.3 0 .7.2 1 .6.4.5.6.9.6 1.2 0 .3-.1.6-.4 1-3.4 4-7.4 6-12 6s-8-1.3-10.4-3.9c-2.2-3-3.3-7.3-3.3-13 0-3.2.1-8.7.2-16.3l.2-16.5z"/><path id="path234" class="st1" d="M359 10.1c.4 5.7.8 12.3 1.5 19.7v.3c0 .7-.3 1.1-.9 1.3h-.5c-.3 0-.6-.3-.9-1-2.6-6.5-5.2-11.2-7.9-14.2-3.3-3.5-7-5.3-11.2-5.3-6.9 0-12.5 4-16.8 12-3.8 7.1-5.7 16.1-5.7 26.8 0 11.2 2.5 20.3 7.4 27.4 4.3 6.1 9.5 9.2 15.5 9.2 9.3 0 16.5-5.2 21.6-15.7.1-.4.4-.5.6-.5.2 0 .6.2 1.1.5.5.3.8.7.8 1.2 0 .2-.1.5-.2.8-5.8 13.7-14.4 20.5-25.8 20.5-10.4 0-18.7-4.5-25-13.6-5.5-7.9-8.2-17.7-8.2-29.5 0-13.4 3.6-24.2 10.7-32.3C321.4 10.6 329 7 338 7c3.6 0 7.3.6 11.1 1.8 3.1 1 5.5 1.5 7.1 1.5 1 0 1.9-.1 2.8-.2zM388.6 38c6.3 0 11.5 3 15.4 8.9 3.4 5.1 5.1 11.4 5.1 18.7 0 8.3-2.1 15.1-6.3 20.4-3.8 4.7-8.5 7.1-14.2 7.1-6.4 0-11.5-3-15.5-8.9-3.3-5-5-11.1-5-18.4 0-8.3 2.1-15.2 6.4-20.6 3.9-4.8 8.5-7.2 14.1-7.2zm0 3.4c-3.5 0-6.1 2.6-7.9 7.9-1.5 4.3-2.2 9.7-2.2 16.3 0 7.9 1 13.9 2.8 18.2 1.8 3.9 4.2 5.9 7.3 5.9 3.5 0 6.1-2.7 8-8 1.5-4.3 2.3-9.7 2.3-16.2 0-8-1-14.1-2.8-18.3-1.9-3.9-4.4-5.8-7.5-5.8zm41.7 7.3c3.2-7.2 7.7-10.8 13.6-10.8 2.9 0 5.6 1.1 8 3.2 3.2 2.8 4.8 7.2 4.8 13l-.1 12.6v7.8c0 6.7.2 10.7.7 12 .3.8.9 1.4 1.7 1.7.4.2 1.4.3 2.9.5.5.1.7.6.7 1.3 0 .8-.2 1.3-.7 1.3 0 0-1.8-.1-5.2-.2-1.8-.1-3.2-.1-4.3-.1-1.3 0-3 0-5.3.1-2.7.2-4.2.2-4.8.2-.5 0-.7-.4-.7-1.3s.2-1.3.7-1.3c1.5-.1 2.5-.3 3-.5.7-.3 1.2-.8 1.5-1.6.5-1.2.7-5.2.7-12V59.1c0-4.5-.4-7.7-1.1-9.7-1.3-3.8-3.4-5.7-6.4-5.7-1.6 0-3.2.7-4.8 2.1-1.3 1.2-2.3 2.6-3.1 4.4-1.2 2.7-1.8 5.7-1.8 9.1v15.3c0 7 .2 11 .5 12 .4.8 1 1.4 1.8 1.7.4.1 1.3.3 3 .5.5.1.8.5.8 1.3s-.3 1.3-.8 1.3c-.7 0-1.8-.1-3.2-.1-2.9-.2-4.9-.2-6.2-.2-1.3 0-3.1 0-5.3.1-2.7.2-4.3.2-4.8.2-.4 0-.6-.4-.6-1.3 0-.8.2-1.2.6-1.3 1.7-.2 2.8-.4 3.2-.6.7-.2 1.2-.8 1.5-1.5.4-1.1.6-5 .6-12V57.8c0-5-.2-8.1-.6-9.5-.5-1.6-1.3-2.4-2.4-2.4h-.4l-2.4.2h-.4c-.5 0-.8-.4-.8-1.3v-.5c0-.6.4-1 1.1-1.2 4.5-1.1 9.1-2.8 13.9-5 .7 0 1 .3 1 .9 0 2.2-.1 5.5-.1 9.7zM487.6 38c4.1 0 7.7.9 10.7 2.6 2.3 1.2 3.5 3 3.5 5.4 0 5-1.3 7.4-3.9 7.4-1.7 0-3.4-2.3-5.3-7-1.3-3.2-2.9-4.7-4.6-4.7-3.5 0-6.2 2.5-8 7.5-1.5 4.2-2.2 9.6-2.2 16.2 0 7.4 1.5 13.1 4.4 17.3 2.3 3.2 4.9 4.9 7.8 4.9 2.7 0 4.9-.7 6.7-2.1 1.5-1.2 3-3.1 4.5-5.8.2-.4.4-.7.7-.7.2 0 .5.2.8.5.5.3.7.7.7 1.1 0 .2 0 .4-.1.7-3.6 7.9-8.9 11.9-15.9 11.9-6.3 0-11.4-2.9-15.1-8.6-3.2-5-4.8-11.2-4.8-18.6 0-8.4 2.2-15.3 6.5-20.8 3.8-4.8 8.4-7.2 13.6-7.2zm30.5 23.3c-.2 1.4-.4 2.8-.4 4.1 0 7.4 1.6 13.2 4.8 17.6 2.4 3.2 5 4.9 7.8 4.9 3 0 5.4-.7 7.4-2.2 1.6-1.2 3.2-3.2 4.8-6 .2-.4.5-.5.9-.5.2 0 .4.2.8.4.5.5.7.9.7 1.2 0 .2-.1.6-.4 1.2-2.1 4.2-4.6 7.2-7.5 8.9-2.4 1.5-5.4 2.3-8.8 2.3-6.4 0-11.5-2.9-15.4-8.7-3.3-5-4.9-11.1-4.9-18.4 0-8.3 2.1-15.2 6.4-20.7 3.8-4.8 8.5-7.2 13.9-7.2 5.5 0 10 2.8 13.3 8.4 2.4 4 3.6 8.2 3.8 12.6 0 .7-.1 1.4-.4 1.9-.2.4-.7.5-1.3.5-5.9-.2-11.5-.3-16.9-.3-3.1-.1-6-.1-8.6 0zm.4-4.1c2.9.1 5.1.1 6.5.1 3.1 0 6.4-.2 9.9-.5.5-.1.8-.7.8-1.8-.2-4-.9-7.2-2.2-9.8-1.3-2.6-3.1-3.9-5.3-3.9-2.5 0-4.6 1.7-6.5 5-1.5 2.9-2.6 6.5-3.2 10.9zm46 30.2v11.2c0 8.6.3 13.6.9 14.9.4 1 2.1 1.8 5.2 2.1.5.1.8.5.8 1.2 0 1-.2 1.5-.8 1.5-4.5-.2-7.9-.2-10.4-.2-2.6 0-6.1.1-10.6.2-.5 0-.7-.5-.7-1.4 0-.8.2-1.2.7-1.3 2.9-.4 4.5-1.1 4.8-2.1.6-1.6.9-6.6.9-14.9v-41c0-4.5-.2-7.6-.6-9.3-.4-1.6-1.2-2.4-2.5-2.4h-.4l-2.5.2h-.3c-.4 0-.6-.4-.7-1.3v-.5c0-.6.3-1 .8-1.2 5.4-1.5 10.2-3.2 14.5-5.1.6 0 .9.3.9 1.1-.1 4.2-.2 6.9-.2 7.9 1.5-3.2 3.5-5.6 6-7.3 1.9-1.3 3.7-1.9 5.4-1.9 6.4 0 11.3 2.9 14.8 8.7 3 4.9 4.4 11.1 4.4 18.7 0 9.1-2 16.1-6.1 21.1-3.6 4.5-8.4 6.7-14.3 6.7-3.7.1-7.1-1.8-10-5.6zm9.2-44c-3 0-5.6 1.9-7.8 5.8-.8 1.5-1.2 3-1.4 4.6-.1.6-.1 2.1-.1 4.5v14.9c0 4.4.5 7.6 1.5 9.9 1.9 4.4 4.6 6.6 7.9 6.6 3.5 0 6.3-2.5 8.2-7.7 1.7-4.3 2.5-9.8 2.5-16.6 0-7.3-1.2-12.9-3.4-16.9-1.9-3.4-4.4-5.1-7.4-5.1zm32.4 1.2-5.6.1c-.7 0-1-.5-1-1.6 0-1 .4-1.5 1.1-1.5 2.9-.5 5.5-2.1 7.7-4.9 2-2.2 3.5-4.9 4.5-8.1.2-.7.7-1.1 1.5-1.1s1.2.4 1.2 1.1c-.2 7.3-.2 11.2-.2 11.5 4.6 0 8.7-.1 12.4-.3.3 0 .4.2.4.5v.3l-1 3.3c-.1.5-.4.8-.8.8-4.3-.3-8.1-.4-11.1-.4l-.2 28.9c0 5.9.6 9.8 1.7 11.7 1.2 2 2.8 3 4.8 3 1.9 0 3.7-1 5.6-3 .2-.2.3-.3.5-.3.3 0 .6.2.9.6.4.5.6.9.6 1.2 0 .3-.1.6-.4.9-3 3.9-6.6 5.9-10.6 5.9s-7.1-1.3-9.2-3.9c-2-2.8-3-7-3-12.6 0-3.2.1-8.5.2-16V44.6z"/></g></svg>