<svg width="240" height="105" xmlns="http://www.w3.org/2000/svg"><style>.st1{fill-rule:evenodd;clip-rule:evenodd;fill:#fff}</style><path fill="none" id="canvas_background" d="M-1-1h242v107H-1z"/><g id="g4"><path d="M117.5 42.8c-.8 0-1.6-.1-2.3 0-.8.1-1.6.3-2.4.6-1 .3-2 .7-2.9 1.4-1.1.8-1.9 1.8-2.5 3-.3.6-.6 1.2-.7 1.9-.1 1.2-.2 2.4.2 3.5.3.8.8 1.5 1.6 2 .3.2.8.2 1.2.2.4 0 .8-.2 1.1-.3l2.1-.9c1.1-.5 2.1-.4 3.2.2 1.4.8 2.1 2 2.6 3.4.7 2 0 3.7-1.2 5.2-.4.6-1 .9-1.7 1.2-.9.4-1.8.8-2.8.6-.8-.2-1.6-.4-2.4-.7-1.2-.4-2.1-1.2-2.9-2.2-.8-1-1.4-2.1-2-3.2-.9-1.8-1.1-3.8-1.2-5.7-.2-2.2.1-4.3.8-6.4.4-1.2 1-2.5 1.6-3.6.6-1.1 1.4-2 2.3-2.9 1-1 2.1-1.8 3.3-2.5 1.3-.7 2.7-1.2 4.1-1.4.5-.1.9-.2 1.4-.3.8-.2 1.6-.3 2.5-.2.9.1 1.9 0 2.8.1.8.1 1.5.2 2.3.3h.3c3.2 0 6.5.1 9.7 0 .7 0 1.4-.2 2-.3 1-.2 2.1-.4 3.1-.9 1.4-.7 2.8-1.4 4-2.5.8-.8 1.6-1.7 2.1-2.8.8-1.5 1.3-3 1.5-4.7.1-1.4.2-2.8-.1-4.2-.5-2.8-1.8-5.1-4.5-6.3-1.1-.5-2.1-.5-3.1.5-.6.6-1 1.3-1.4 2.1-.5 1.1-1.1 2.1-2.1 2.8-1 .8-2.2 1.3-3.5.9-1.1-.3-1.9-1-2.5-2-.8-1.4-.7-2.9-.2-4.4.6-1.7 1.7-3 3-4.1.9-.7 2-1.2 3.3-1.4 1.3-.1 2.5-.2 3.8 0 .8.1 1.5.5 2.2.9 1.2.5 2.2 1.3 3.1 2.2.9.8 1.5 1.7 2.2 2.6 1.4 1.8 2 3.9 2.6 6 .4 1.4.6 2.9.6 4.4 0 2-.3 3.9-.9 5.8-.3 1.1-.6 2.1-1.1 3.1-.6 1.2-1.2 2.3-2.1 3.3-.2.2-.4.5-.6.8-1.1 1.3-2.5 2.3-4 3.2-1.5.9-3.1 1.6-4.7 2.2-.8.3-1.8.4-2.7.5-.6.1-1.1.2-1.7.3-.6.2-1.3.2-2 .2h-.8c-.3 0-.5.2-.5.5-.1.5-.1.9.2 1.3l.9 1.2c.6.8 1.1 1.6 1.5 2.4.9 1.8 1.5 3.8 2 5.7.4 2 .9 4.1.7 6.2-.1.6 0 1.3 0 1.9 0 .9 0 1.8-.1 2.7-.1 1.1-.2 2.2-.5 3.3-.3 1.4-.7 2.8-1.1 4.1-.6 1.9-1.4 3.9-2.4 5.6-.6 1-1.2 2.1-1.8 3.1-.4.6-.8 1.2-1.3 1.7-1.3 1.4-2.7 2.7-4.1 4-2.1 1.9-4.6 2.9-7.2 4-2.1.9-4.3 1.5-6.6 2.1-.7.2-1.5.2-2.2.3-1.3.1-2.7.2-4 .3-.9 0-1.7.1-2.6 0-1.7-.1-3.3-.2-5-.4-2.5-.3-4.9-1-7.2-2-1.8-.7-3.5-1.6-5.1-2.5-1.2-.7-2.2-1.6-3.3-2.5-.4-.3-.8-.6-1.1-.9-1.1-1.1-2.3-2.2-3.2-3.4-1-1.3-1.8-2.7-2.6-4-.6-1-1.1-2.1-1.6-3.2-.3-.6-.5-1.1-.7-1.7-.3-.8-.6-1.6-.8-2.4-.5-1.9-1-3.8-1.2-5.8-.1-1.4-.1-2.8-.1-4.2 0-1.7 0-3.5.2-5.2.1-1.1.4-2.1.6-3.1l.3-1.2c.5-2 1.1-4.1 2.3-5.9.4-.6.7-1.3 1.1-1.9.7-1 1.4-1.9 2.2-2.9.5-.6 1.2-1.2 1.8-1.8.4-.4.8-.9.9-1.6 0-.4 0-.8-.2-1.2-1.1-2.3-1.7-4.8-2-7.3-.2-1.7-.1-3.4.2-5.1.1-.9.2-1.7.3-2.6.2-.7.5-1.4.7-2.2.2-.7.4-1.3.7-2 .5-1.2 1.1-2.4 2-3.4.6-.6 1.1-1.3 1.7-1.9 1.3-1.3 2.7-2.3 4.4-3 .6-.2 1.1-.5 1.7-.7.6-.2 1.3-.3 2-.4.5-.1 1-.1 1.5-.1 1.4.1 2.9-.2 4.2.5 1.2.5 2.4 1.2 3.1 2.3.5.7 1.1 1.5 1.3 2.4.3 1.3-.1 2.4-.9 3.3-.4.5-.9 1-1.6 1.1-.8.1-1.6 0-2.3-.4-1.3-.6-2.3-1.7-3.4-2.5-1.8-1.2-3.7-1.8-5.9-1.2-2.6.7-4.5 2.3-5.7 4.7-.3.6-.6 1.1-.8 1.7-.4 1-.6 2-.7 3 0 1-.2 2-.1 3 0 1.6.2 3.3.8 4.8.5 1.2 1.2 2.4 2.2 3.4.4.4.8.7 1.3.7.2 0 .5 0 .7-.1.7-.2 1.5-.4 2.2-.6.9-.2 1.8 0 2.6.2 1.9.4 3.2 1.5 4.1 3.2 1.4 2.5.2 5.5-1.9 6.6-.5.3-1 .5-1.6.7-.9.4-1.8.2-2.7-.1-1.9-.8-3.6-1.7-5-3.2-.4-.4-.9-.6-1.3-.9-.1-.1-.3-.1-.5 0-.6.2-1 .6-1.4 1-.9 1-1.7 2-2.5 3-.1.1-.1.1-.1.2-1 1.8-1.8 3.8-2 5.9-.1.9-.3 1.7-.3 2.6-.1 2.2-.1 4.4.3 6.5.4 2.4 1.2 4.6 2 6.9.2.7.7 1.3 1.1 1.9.7 1.1 1.3 2.1 2 3.1.4.6.9 1.1 1.3 1.6 1.5 1.7 3.2 3.3 5 4.7.7.5 1.5 1 2.2 1.5 1.1.7 2.3 1.4 3.5 2 .9.4 1.8.7 2.8 1 .6.2 1.3.5 1.9.7.9.2 1.7.4 2.6.5 2 .3 3.9.6 5.9.7 1 .1 2-.1 3.1-.2.5 0 1-.1 1.4-.1.8-.1 1.6-.1 2.4-.3 1.2-.2 2.5-.4 3.7-.8 1.5-.4 3.1-1 4.5-1.8.8-.5 1.6-.9 2.3-1.4 1.6-1 3.1-2.2 4.3-3.7.6-.8 1.3-1.5 1.9-2.3.5-.6.9-1.3 1.2-1.9 1.1-2.1 2-4.4 2.5-6.8.4-2.2.6-4.4.7-6.7 0-.6-.1-1.2-.2-1.8-.1-.9-.3-1.8-.4-2.7-.2-1.4-.7-2.8-1.2-4.1-1.1-2.5-2.7-4.5-5-6.1-1.1-.7-2.3-1.1-3.5-1.5-1.9.3-3.5.3-5.1.4z" id="path230" style="fill-rule:evenodd;clip-rule:evenodd;fill:#fff;stroke:#fff;stroke-width:.5669"/><path stroke="null" d="M54.3 91.9c-8.8-.3-17.5-.4-26.1-.4-9.1 0-18.1.1-26.9.4-.6 0-.9-.5-.9-1.4 0-.9.3-1.4.9-1.5 2.4-.3 3.9-.6 4.6-.8 1-.4 1.7-1.2 2.2-2.2.9-1.7 1.3-6.8 1.3-15.3V28.8c0-5.9-.1-9.6-.2-11.2-.1-1.5-.4-2.8-1-4-.5-1-1.3-1.7-2.7-2.1-.6-.2-2.1-.4-4.5-.7-.6-.1-1-.6-1-1.5 0-1.1.3-1.6 1-1.6.3 0 2.8.1 7.4.3 2.7.1 4.9.2 6.6.2 1.8 0 4.4-.1 7.6-.2 3.4-.1 5.6-.2 6.5-.2.7 0 1.1.5 1.1 1.6 0 .9-.3 1.3-.9 1.5-2.6.3-4.1.6-4.7.8-1 .3-1.8 1-2.2 2-.7 1.7-1.1 6.7-1.1 15.2v41.9c0 7.7.4 12.3 1.3 14 .8 1.5 2.2 2.4 4.1 2.9 1.2.2 2.9.4 5.4.4 6.7 0 12.3-1.9 16.8-5.9 2.5-2.3 5-6.1 7.7-11.5.3-.6.6-.8.9-.8.1 0 .4.1.8.2.7.2 1 .6 1 1.1v.5c-1.1 6.3-2.8 13.1-5 20.2z" class="st1" id="path232"/><path d="M216.7 11.1c.4 5.7.8 12.3 1.5 19.7v.3c0 .7-.3 1.1-.9 1.3h-.5c-.3 0-.6-.3-.9-1-2.6-6.5-5.2-11.2-7.9-14.2-3.3-3.5-7-5.3-11.2-5.3-6.9 0-12.5 4-16.8 12-3.8 7.1-5.7 16.1-5.7 26.8 0 11.2 2.5 20.3 7.4 27.4 4.3 6.1 9.5 9.2 15.5 9.2 9.3 0 16.5-5.2 21.6-15.7.1-.4.4-.5.6-.5.2 0 .6.2 1.1.5.5.3.8.7.8 1.2 0 .2-.1.5-.2.8-5.8 13.7-14.4 20.5-25.8 20.5-10.4 0-18.7-4.5-25-13.6-5.5-7.9-8.2-17.7-8.2-29.5 0-13.4 3.6-24.2 10.7-32.3C179.1 11.6 186.7 8 195.7 8c3.6 0 7.3.6 11.1 1.8 3.1 1 5.5 1.5 7.1 1.5 1 0 1.9-.1 2.8-.2z" class="st1" id="path234"/></g></svg>