<svg xmlns="http://www.w3.org/2000/svg" width="23.418" height="16.979" viewBox="0 0 23.418 16.979">
    <g id="email_4_" data-name="email (4)" transform="translate(0 -81)">
        <g id="Group_177" data-name="Group 177" transform="translate(0 81)">
            <path id="Path_1860" fill="#00afde" d="M21.36 81H2.058A2.123 2.123 0 0 0 0 83.183V95.8a2.123 2.123 0 0 0 2.058 2.183h19.3a2.123 2.123 0 0 0 2.06-2.183V83.183A2.123 2.123 0 0 0 21.36 81zm-1.647 12.486a.659.659 0 0 1-.967-.083l-3.96-4.938-2.737 1.656a.652.652 0 0 1-.68 0l-2.737-1.656-3.96 4.935a.659.659 0 0 1-.967.083.759.759 0 0 1-.078-1.026l3.792-4.729-3.368-2.035A.752.752 0 0 1 3.8 84.7a.665.665 0 0 1 .936-.272l6.978 4.223 6.978-4.223a.665.665 0 0 1 .936.272.752.752 0 0 1-.256.993L16 87.732l3.792 4.729a.759.759 0 0 1-.079 1.025z" data-name="Path 1860" transform="translate(0 -81)"/>
        </g>
    </g>
</svg>
