<?xml version="1.0" encoding="UTF-8"?>
<svg xmlns="http://www.w3.org/2000/svg" xmlns:xlink="http://www.w3.org/1999/xlink" width="308" height="238" viewBox="0 0 308 238">
   <svg width="15" height="38" fill="none" viewBox="0 0 15 38" id="arrow-right" x="213" y="100">
      <path d="M1 1l13 18.76L1 37" stroke="#1D1D1D" stroke-width="2" stroke-linecap="round" stroke-linejoin="round" />
   </svg>
   <svg width="96" height="100" fill="none" viewBox="0 0 96 100" id="body1" x="117">
      <g clip-path="url(#bclip0)">
         <path d="M27.705 62.481c-.353-1.657-.707-3.114-.86-4.872a31.1 31.1 0 0 1-.15-5.324c.05-.753-.506-1.406-1.265-1.506-.758-.1-1.466.351-1.617 1.104a33.95 33.95 0 0 0-.81 4.973l-.1 1.004c-.051.904-.102 1.457-.354 2.21-.304.955-.86 1.809-1.568 2.612a1.397 1.397 0 0 0-.404 1.005v2.862c0 3.064-.101 5.676-.152 6.38-.152 3.314-1.517 6.278-3.539 10.748-2.629 5.776-3.943 8.689-5.662 11.1a11.214 11.214 0 0 0-1.72 3.415c-.252.753.203 1.557.961 1.808.152.05.304.05.455.05.607 0 1.214-.401 1.416-1.004.404-1.306 1.062-2.21 1.314-2.562 1.922-2.662 3.236-5.675 5.966-11.652 2.073-4.57 3.59-7.886 3.792-11.753.05-.703.101-3.365.152-6.48v-2.31a9.63 9.63 0 0 0 1.163-1.758c.05.201.1.453.151.653.607 2.813 2.022 11.552 1.112 18.232-.1.904-.404 1.507-1.061 2.913-1.264 2.663-2.275 4.672-2.68 5.525-1.011 2.11-1.466 4.22-1.82 8.69a1.464 1.464 0 0 0 1.365 1.556h.101c.759 0 1.416-.602 1.466-1.356.354-4.52.81-6.127 1.618-7.785.304-.653 1.315-2.712 2.579-5.374.708-1.507 1.163-2.41 1.314-3.767.96-7.182-.505-16.373-1.163-19.337zM38.17 0c-.808 0-1.465.653-1.465 1.457l-.051 5.072c.05.402 0 .804-.101 1.156 0 .1-.253.853-1.011 1.757-.607.754-1.77 1.407-3.337 2.01-1.213.452-2.073.602-3.286.853l-.81.151c-3.336.703-5.004 1.005-6.521 1.658-4.247 1.757-6.573 5.223-7.381 6.68-1.467 2.561-1.72 4.821-2.174 8.186-.354 3.014-.304 5.676-.253 7.132.05 1.407.101 2.21.202 2.863.05.804.101 1.256.05 2.26-.1 1.357-.252 1.96-.505 2.813-.202.754-.455 1.658-.708 3.215-.455 3.114-.354 5.525-.253 8.639a69.28 69.28 0 0 0 .304 4.57c-.202.251-.455.502-.708.804a23.722 23.722 0 0 0-4.55 8.237c-.708 2.21-.91 4.068-1.264 7.383-.202 2.01-.253 3.265-.303 4.32-.051 1.255-.102 2.21-.405 3.917-.05.251-.05.251-.253.954-.202.704-.556 2.06-1.264 4.872C1.315 94.124.81 95.58.455 96.685c-.202.502-.303.954-.455 1.406A1.48 1.48 0 0 0 1.011 99.9c.152.05.253.05.405.05.657 0 1.213-.402 1.415-1.055.101-.402.253-.804.405-1.256.404-1.155.96-2.712 1.77-5.977.707-2.812 1.06-4.168 1.213-4.871.202-.854.202-.904.252-1.156.354-1.908.405-3.013.455-4.32.05-1.004.101-2.209.304-4.118.354-3.264.556-4.871 1.163-6.83.808-2.562 2.173-5.023 3.993-7.283.405-.502.759-.904 1.062-1.155.304-.302.455-.754.405-1.156-.203-1.657-.304-3.365-.354-5.022-.101-2.963-.202-5.274.202-8.087.202-1.406.404-2.16.607-2.862.252-.904.505-1.758.606-3.416.05-1.205 0-1.858-.05-2.712-.05-.603-.152-1.406-.152-2.712-.05-1.356-.101-3.868.253-6.68.404-3.265.607-5.073 1.82-7.132.506-.904 2.427-3.968 5.915-5.374 1.264-.553 2.831-.854 6.017-1.507l.808-.151c1.315-.251 2.326-.452 3.742-1.005 2.072-.803 3.59-1.707 4.55-2.862 1.163-1.356 1.517-2.562 1.618-2.913.151-.653.252-1.357.202-1.96l.05-4.972A1.535 1.535 0 0 0 38.171 0zM94.997 97.991c-.708-1.507-.96-2.41-2.073-6.931-.708-2.813-1.062-4.169-1.264-4.872-.151-.703-.202-.703-.253-.954-.303-1.708-.354-2.662-.404-3.918-.05-1.055-.101-2.31-.303-4.32-.354-3.365-.557-5.173-1.264-7.383-.91-2.963-2.478-5.725-4.55-8.237-.253-.301-.506-.602-.708-.803a67.13 67.13 0 0 0 .303-4.57c.101-3.115.202-5.526-.253-8.64a25.925 25.925 0 0 0-.708-3.214c-.252-.854-.404-1.457-.505-2.813-.05-1.004 0-1.456.05-2.26.051-.653.152-1.507.203-2.863.05-1.306.1-4.068-.253-7.132-.405-3.365-.708-5.625-2.174-8.187-.809-1.406-3.135-4.922-7.381-6.68-1.517-.653-3.186-.954-6.522-1.657l-.81-.151c-1.263-.251-2.072-.402-3.285-.854-1.618-.603-2.73-1.256-3.337-2.009-.759-.904-.96-1.657-1.011-1.758-.101-.351-.152-.753-.101-1.306l-.051-4.972c0-.804-.607-1.406-1.466-1.457-.81 0-1.466.653-1.466 1.457l.05 4.872c-.05.703 0 1.406.202 2.059.102.352.455 1.607 1.618 2.913.96 1.155 2.427 2.06 4.55 2.863 1.467.553 2.478.753 3.742 1.005l.809.15c3.134.653 4.701.954 6.016 1.507 3.488 1.457 5.41 4.52 5.915 5.374 1.163 2.06 1.416 3.868 1.82 7.132.354 2.813.253 5.425.253 6.68a65.271 65.271 0 0 1-.152 2.713 11.679 11.679 0 0 0-.05 2.712c.1 1.657.354 2.511.606 3.415.203.703.405 1.457.607 2.863.404 2.813.354 5.123.202 8.086-.05 1.708-.202 3.366-.354 5.023-.05.452.102.854.405 1.155.253.301.606.653 1.061 1.155 1.871 2.26 3.186 4.671 3.995 7.283.606 1.959.808 3.566 1.162 6.83.203 1.91.253 3.115.304 4.12.05 1.255.1 2.36.455 4.319.05.301.05.351.252 1.155.203.703.557 2.06 1.214 4.872 1.163 4.671 1.466 5.726 2.275 7.433a1.42 1.42 0 0 0 1.314.854c.203 0 .405-.05.607-.15.708-.352 1.011-1.206.708-1.909zM83.874 94.726c-1.77-2.46-3.084-5.374-5.713-11.15-2.022-4.47-3.337-7.383-3.539-10.698-.05-.703-.1-3.315-.151-6.379v-2.863c0-.351-.152-.703-.405-1.004-.758-.804-1.264-1.658-1.567-2.612-.253-.753-.303-1.306-.354-2.21l-.101-1.004c-.152-1.608-.405-3.315-.809-4.973-.152-.753-.91-1.205-1.618-1.105-.758.1-1.314.754-1.264 1.507a30.94 30.94 0 0 1-.151 5.324c-.152 1.155-.354 2.16-.557 3.164-.1.553-.252 1.155-.353 1.758-1.77 9.744-2.073 15.52-1.113 19.287.203 1.256.556 2.11 1.315 3.666 1.213 2.562 2.174 4.52 2.528 5.274l.151.251c.759 1.507 1.163 3.114 1.517 7.635.05.753.708 1.356 1.466 1.356h.101a1.465 1.465 0 0 0 1.365-1.557c-.354-4.47-.809-6.58-1.82-8.69l-.151-.25c-.354-.754-1.315-2.713-2.528-5.224-.708-1.507-.96-2.06-1.062-2.913 0-.05 0-.05-.05-.1v-.101c-.86-3.265-.506-8.89 1.162-18.081.05-.201.101-.452.101-.653a7.833 7.833 0 0 0 1.214 1.758v2.31c0 3.114.1 5.776.151 6.48.203 3.867 1.72 7.181 3.792 11.752 2.73 5.977 4.045 8.94 5.966 11.602.253.352.91 1.256 1.314 2.562a1.472 1.472 0 0 0 1.416 1.004c.152 0 .303 0 .455-.05.758-.251 1.213-1.055.96-1.808-.505-1.607-1.364-2.813-1.668-3.265z" fill="#3667C6" />
         <path d="M28.966 47c-.32 0-.686-.136-.96-.363-.594-.5-.686-1.408-.137-1.998.046-.045 4.616-5.267 5.896-11.942 1.28-6.583-1.646-12.032-1.646-12.077-.365-.681-.137-1.59.595-1.953.685-.363 1.6-.136 1.965.59.137.273 3.428 6.403 1.965 13.985-1.462 7.447-6.398 13.032-6.581 13.304a1.49 1.49 0 0 1-1.097.454z" fill="#00A499" />
         <path d="M31.434 28.475c-.092 0-.183 0-.274-.046-.777-.136-1.326-.908-1.189-1.68l1.554-8.49c.092-.5.457-.954.96-1.09.503-.182 1.051-.046 1.463.318l6.49 6.175c.594.544.594 1.453.045 2.043-.548.59-1.462.59-2.056.045l-4.525-4.313-1.051 5.857c-.092.681-.732 1.18-1.417 1.18zM66.604 47c.32 0 .686-.136.96-.363a1.48 1.48 0 0 0 .137-2.044c-.045-.045-4.616-5.267-5.896-11.941-1.28-6.584 1.646-12.033 1.646-12.078.365-.681.137-1.59-.595-1.952-.685-.364-1.6-.137-1.965.59-.137.272-3.428 6.402-1.965 13.985 1.462 7.446 6.353 13.076 6.581 13.303.32.364.686.5 1.097.5z" fill="#00A499" />
         <path d="M64.09 28.475c.092 0 .183 0 .275-.046.777-.136 1.325-.908 1.188-1.68L64 18.26c-.091-.5-.457-.954-.96-1.09-.502-.182-1.05-.046-1.462.318l-6.49 6.175c-.594.544-.594 1.453-.046 2.043.549.59 1.463.59 2.057.045l4.525-4.313 1.05 5.857a1.46 1.46 0 0 0 1.418 1.18z" fill="#00A499" />
         <path d="M47.574 98.644c-.505 0-1.01-.352-1.213-.854-.05-.1-.86-2.662-1.567-10.698-.506-6.077.758-24.912 1.719-38.674.303-4.27.556-7.986.657-10.297.505-9.19-1.213-33.802-1.264-34.053a1.25 1.25 0 0 1 1.163-1.356c.708-.05 1.314.452 1.365 1.155.05 1.005 1.77 25.013 1.264 34.355-.152 2.31-.405 6.027-.657 10.347-.91 12.908-2.225 32.395-1.72 38.272.658 7.634 1.416 10.095 1.416 10.145a1.239 1.239 0 0 1-.809 1.557c-.1.1-.252.1-.354.1z" fill="#3667C6" />
      </g>
      <defs>
         <clipPath id="bclip0">
            <path fill="#fff" d="M0 0h95.098v100H0z" />
         </clipPath>
      </defs>
   </svg>
   <svg width="95" height="100" fill="none" viewBox="0 0 95 100" id="body2" x="213">
      <g clip-path="url(#cclip0)">
         <path d="M27.524 62.481c-.352-1.657-.703-3.114-.854-4.872a31.294 31.294 0 0 1-.15-5.324 1.433 1.433 0 0 0-1.256-1.506c-.754-.1-1.457.351-1.607 1.104a34.161 34.161 0 0 0-.804 4.973l-.1 1.004c-.05.904-.101 1.457-.352 2.21-.302.955-.854 1.809-1.557 2.612a1.402 1.402 0 0 0-.402 1.005v2.862c0 3.064-.1 5.676-.15 6.38-.151 3.314-1.507 6.278-3.516 10.748-2.612 5.776-3.918 8.689-5.626 11.1a11.24 11.24 0 0 0-1.707 3.415c-.252.753.2 1.557.954 1.808.15.05.301.05.452.05.603 0 1.205-.402 1.406-1.004.402-1.306 1.055-2.21 1.306-2.562 1.909-2.662 3.215-5.675 5.927-11.652 2.059-4.57 3.566-7.886 3.767-11.753.05-.703.1-3.365.15-6.48v-2.31a9.636 9.636 0 0 0 1.156-1.758c.05.201.1.453.15.653.603 2.813 2.01 11.552 1.105 18.232-.1.904-.402 1.507-1.054 2.913-1.256 2.663-2.26 4.672-2.663 5.525-1.004 2.11-1.456 4.22-1.808 8.69a1.46 1.46 0 0 0 1.357 1.556h.1c.753 0 1.406-.602 1.456-1.356.352-4.52.804-6.127 1.608-7.785.301-.653 1.306-2.712 2.561-5.374.703-1.507 1.155-2.41 1.306-3.767.954-7.182-.502-16.373-1.155-19.337zM37.92 0c-.803 0-1.456.653-1.456 1.457l-.05 5.072c.05.402 0 .804-.1 1.156 0 .1-.252.853-1.005 1.757-.603.754-1.758 1.407-3.315 2.01-1.206.452-2.06.602-3.265.853l-.803.151c-3.315.703-4.973 1.005-6.48 1.658-4.219 1.757-6.529 5.223-7.333 6.68-1.456 2.561-1.707 4.821-2.16 8.186-.35 3.014-.3 5.676-.25 7.132.05 1.407.1 2.21.2 2.863.05.804.1 1.256.05 2.26-.1 1.357-.25 1.96-.502 2.813-.2.754-.452 1.658-.703 3.215-.452 3.114-.351 5.525-.25 8.639.05 1.506.15 3.063.3 4.57-.2.251-.451.502-.703.804a23.767 23.767 0 0 0-4.52 8.237c-.703 2.21-.904 4.068-1.256 7.383-.2 2.01-.25 3.265-.301 4.32-.05 1.255-.1 2.21-.402 3.917-.05.251-.05.251-.25.954-.202.704-.553 2.06-1.257 4.872C1.306 94.124.804 95.58.452 96.685c-.2.502-.301.954-.452 1.406-.201.754.2 1.557 1.004 1.809.151.05.252.05.402.05.653 0 1.206-.402 1.407-1.055.1-.402.25-.804.401-1.256.402-1.155.955-2.712 1.758-5.977.703-2.812 1.055-4.168 1.206-4.871.2-.854.2-.904.25-1.156.352-1.908.403-3.013.453-4.32.05-1.004.1-2.209.301-4.118.352-3.264.553-4.871 1.155-6.83.804-2.562 2.16-5.023 3.968-7.283.402-.502.754-.904 1.055-1.155.301-.302.452-.754.402-1.156-.201-1.657-.302-3.365-.352-5.022-.1-2.963-.2-5.274.201-8.087.201-1.406.402-2.16.603-2.862.251-.904.502-1.758.603-3.416.05-1.205 0-1.858-.05-2.712-.05-.603-.151-1.406-.151-2.712-.05-1.356-.1-3.868.25-6.68.403-3.265.604-5.073 1.809-7.132.502-.904 2.41-3.968 5.876-5.374 1.256-.553 2.813-.854 5.977-1.507l.804-.151c1.306-.251 2.31-.452 3.717-1.005 2.059-.803 3.566-1.707 4.52-2.862 1.155-1.356 1.507-2.562 1.607-2.913.15-.653.251-1.357.201-1.96l.05-4.972A1.53 1.53 0 0 0 37.921 0zM94.375 97.99c-.704-1.506-.955-2.41-2.06-6.93-.703-2.813-1.054-4.169-1.255-4.872-.151-.703-.201-.703-.252-.954-.3-1.708-.351-2.662-.401-3.918-.05-1.055-.1-2.31-.302-4.32-.351-3.365-.552-5.173-1.255-7.383-.904-2.963-2.461-5.726-4.52-8.237-.252-.301-.503-.603-.704-.803.15-1.507.251-3.014.302-4.571.1-3.114.2-5.525-.252-8.639a26.08 26.08 0 0 0-.703-3.214c-.25-.854-.401-1.457-.502-2.813-.05-1.005 0-1.457.05-2.26.05-.653.15-1.507.201-2.863.05-1.306.1-4.068-.251-7.132-.402-3.365-.703-5.625-2.16-8.187-.803-1.406-3.114-4.922-7.333-6.68-1.506-.653-3.164-.954-6.479-1.658l-.803-.15c-1.256-.251-2.06-.402-3.265-.854-1.607-.603-2.712-1.256-3.315-2.01-.754-.903-.954-1.657-1.005-1.757-.1-.352-.15-.753-.1-1.306l-.05-4.972C57.96.703 57.358.1 56.504.05c-.803 0-1.456.653-1.456 1.457l.05 4.872c-.05.703 0 1.406.2 2.059.101.351.453 1.607 1.608 2.913.954 1.155 2.41 2.06 4.52 2.863 1.457.552 2.461.753 3.717 1.004l.804.151c3.114.653 4.67.954 5.977 1.507 3.465 1.456 5.374 4.52 5.876 5.374 1.155 2.06 1.406 3.867 1.808 7.132.352 2.813.251 5.425.251 6.68-.05 1.306-.1 2.06-.15 2.712-.1.854-.151 1.507-.05 2.713.1 1.657.35 2.51.602 3.415.201.703.402 1.457.603 2.863.402 2.813.351 5.123.2 8.086-.05 1.708-.2 3.365-.35 5.023-.051.452.1.854.4 1.155.252.301.604.653 1.056 1.155 1.858 2.26 3.164 4.671 3.968 7.283.602 1.959.803 3.566 1.155 6.83.2 1.91.25 3.115.301 4.12.05 1.255.1 2.36.452 4.319.05.301.05.351.251 1.155.201.703.553 2.06 1.206 4.872 1.155 4.67 1.456 5.726 2.26 7.433a1.41 1.41 0 0 0 1.306.854c.2 0 .401-.05.602-.15.704-.352 1.005-1.206.704-1.91zM83.325 94.726c-1.758-2.46-3.064-5.374-5.676-11.15-2.009-4.47-3.314-7.383-3.516-10.698-.05-.703-.1-3.315-.15-6.379v-2.863c0-.351-.15-.703-.402-1.004-.753-.804-1.256-1.658-1.557-2.612-.251-.753-.301-1.306-.352-2.21l-.1-1.004c-.15-1.608-.402-3.315-.804-4.973-.15-.753-.904-1.205-1.607-1.105-.753.1-1.306.754-1.255 1.507.1 1.808.05 3.616-.151 5.324-.15 1.155-.352 2.16-.553 3.164-.1.553-.25 1.155-.351 1.758-1.758 9.744-2.06 15.52-1.105 19.287.2 1.256.552 2.11 1.306 3.666 1.205 2.562 2.16 4.52 2.511 5.274l.15.251c.754 1.507 1.156 3.114 1.507 7.635.05.753.704 1.356 1.457 1.356h.1a1.461 1.461 0 0 0 1.356-1.557c-.351-4.47-.803-6.58-1.808-8.69l-.15-.25c-.352-.754-1.306-2.713-2.512-5.224-.703-1.507-.954-2.06-1.054-2.913 0-.05 0-.05-.05-.1v-.101c-.854-3.265-.503-8.89 1.155-18.081.05-.201.1-.452.1-.653a7.838 7.838 0 0 0 1.206 1.758v2.31c0 3.114.1 5.776.15 6.48.201 3.867 1.708 7.181 3.767 11.752 2.712 5.977 4.018 8.94 5.927 11.602.251.352.904 1.256 1.306 2.562.2.603.753 1.004 1.406 1.004.15 0 .301 0 .452-.05.753-.251 1.206-1.055.954-1.808-.502-1.607-1.356-2.813-1.657-3.265zM47.263 98.644c-.502 0-1.005-.352-1.206-.854-.05-.1-.854-2.662-1.557-10.698-.502-6.077.754-24.912 1.708-38.674.301-4.27.553-7.986.653-10.297.502-9.19-1.205-33.802-1.256-34.053-.05-.703.452-1.306 1.156-1.356.703-.05 1.305.452 1.356 1.155.05 1.005 1.758 25.013 1.255 34.355-.15 2.31-.402 6.027-.653 10.347-.904 12.908-2.21 32.395-1.707 38.272.652 7.634 1.406 10.095 1.406 10.145.2.653-.15 1.356-.804 1.557-.1.1-.25.1-.351.1z" fill="#3667C6" />
         <path d="M40.683 32.245l-4.42-8.086c-.25-.502-.803-.754-1.356-.804-.552 0-1.055.302-1.306.804l-4.37 8.488c-.401.753-.1 1.657.653 2.009.201.1.453.15.704.15.552 0 1.054-.3 1.356-.803l1.557-3.014v40.432a1.48 1.48 0 0 0 1.507 1.507 1.48 1.48 0 0 0 1.506-1.507V30.79l1.607 2.913c.402.753 1.306 1.004 2.06.602.653-.401.904-1.306.502-2.059zM64.54 32.245l-4.42-8.086c-.25-.502-.803-.754-1.356-.804-.552 0-1.054.302-1.305.804l-4.42 8.488c-.402.753-.1 1.657.653 2.009.2.1.452.15.703.15.552 0 1.054-.3 1.356-.803l1.557-3.014v40.432a1.48 1.48 0 0 0 1.507 1.507 1.48 1.48 0 0 0 1.506-1.507V30.79l1.608 2.913c.401.753 1.306 1.004 2.059.602.703-.401.954-1.306.552-2.059z" fill="#00A499" />
      </g>
      <defs>
         <clipPath id="cclip0">
            <path fill="#fff" d="M0 0h94.475v100H0z" />
         </clipPath>
      </defs>
   </svg>
   <svg width="100" height="105" fill="none" viewBox="0 0 100 105" id="body3" y="33">
      <g clip-path="url(#dclip0)">
         <path d="M27.69 62.858c-.354-1.667-.707-3.132-.859-4.9a31.484 31.484 0 0 1-.151-5.357 1.441 1.441 0 0 0-1.264-1.516c-.758-.1-1.465.354-1.617 1.112a34.356 34.356 0 0 0-.808 5.002l-.101 1.01c-.05.91-.101 1.466-.354 2.224-.303.96-.859 1.82-1.566 2.628a1.41 1.41 0 0 0-.404 1.01v2.88c0 3.083-.101 5.71-.152 6.418-.152 3.335-1.516 6.316-3.537 10.813-2.628 5.81-3.941 8.742-5.66 11.167A11.304 11.304 0 0 0 9.5 98.785c-.253.758.202 1.566.96 1.819.151.05.303.05.454.05.607 0 1.213-.404 1.415-1.01.404-1.314 1.061-2.223 1.314-2.577 1.92-2.678 3.234-5.71 5.962-11.723 2.072-4.598 3.588-7.933 3.79-11.824.05-.707.101-3.385.152-6.518v-2.325a9.695 9.695 0 0 0 1.162-1.768c.05.202.101.455.151.657.607 2.83 2.022 11.622 1.112 18.342-.1.91-.404 1.516-1.06 2.93-1.264 2.679-2.275 4.7-2.679 5.559-1.01 2.122-1.465 4.244-1.819 8.742a1.47 1.47 0 0 0 1.364 1.566h.101c.758 0 1.415-.606 1.466-1.364.353-4.548.808-6.165 1.617-7.832.303-.657 1.313-2.729 2.577-5.407.707-1.516 1.162-2.425 1.313-3.79.96-7.225-.505-16.472-1.162-19.453zM38.15 0c-.809 0-1.466.657-1.466 1.465l-.05 5.104c.05.404 0 .808-.101 1.162 0 .101-.253.859-1.01 1.769-.607.758-1.77 1.414-3.336 2.02-1.212.456-2.071.607-3.284.86l-.809.151c-3.335.708-5.002 1.01-6.518 1.668-4.244 1.768-6.569 5.255-7.377 6.72-1.466 2.577-1.718 4.851-2.173 8.236-.354 3.032-.303 5.71-.253 7.176.05 1.414.101 2.223.203 2.88.05.808.1 1.263.05 2.274-.101 1.364-.253 1.97-.505 2.83-.202.757-.455 1.667-.708 3.233-.455 3.133-.353 5.558-.252 8.691.05 1.516.151 3.083.303 4.598-.202.253-.455.506-.708.809a23.911 23.911 0 0 0-4.547 8.287c-.708 2.223-.91 4.092-1.263 7.427-.203 2.022-.253 3.285-.304 4.346-.05 1.263-.1 2.223-.404 3.941-.05.253-.05.253-.253.96-.202.708-.555 2.072-1.263 4.902-.808 3.183-1.314 4.648-1.667 5.76-.202.505-.303.96-.455 1.415a1.49 1.49 0 0 0 1.01 1.819c.152.05.253.05.405.05.657 0 1.213-.404 1.415-1.06.1-.405.252-.81.404-1.264.404-1.162.96-2.728 1.768-6.013.708-2.83 1.062-4.194 1.213-4.901.202-.86.202-.91.253-1.162.353-1.92.404-3.032.455-4.346.05-1.01.1-2.223.303-4.143.353-3.285.556-4.902 1.162-6.872.808-2.577 2.173-5.053 3.992-7.327.404-.505.758-.91 1.06-1.162.304-.303.456-.758.405-1.162-.202-1.668-.303-3.386-.354-5.053-.1-2.982-.202-5.306.202-8.136.203-1.414.405-2.172.607-2.88.252-.91.505-1.768.606-3.436.05-1.213 0-1.87-.05-2.728-.05-.607-.152-1.415-.152-2.729-.05-1.364-.101-3.89.253-6.72.404-3.285.606-5.104 1.819-7.176.505-.91 2.425-3.991 5.912-5.406 1.263-.556 2.83-.86 6.013-1.516l.808-.152c1.314-.252 2.325-.454 3.74-1.01 2.071-.809 3.587-1.718 4.547-2.88 1.162-1.365 1.516-2.577 1.617-2.931.152-.657.253-1.364.202-1.97l.05-5.003A1.539 1.539 0 0 0 38.15 0zM94.945 98.583c-.708-1.516-.96-2.426-2.072-6.973-.708-2.83-1.061-4.194-1.263-4.902-.152-.707-.202-.707-.253-.96-.303-1.718-.354-2.678-.404-3.941-.05-1.061-.101-2.324-.303-4.346-.354-3.385-.556-5.204-1.264-7.427-.91-2.982-2.476-5.76-4.547-8.287a13.393 13.393 0 0 0-.708-.809 67.94 67.94 0 0 0 .303-4.598c.102-3.133.203-5.558-.252-8.69a26.227 26.227 0 0 0-.708-3.235c-.252-.859-.404-1.465-.505-2.83-.05-1.01 0-1.465.05-2.273.051-.657.152-1.516.203-2.88.05-1.314.1-4.093-.253-7.176-.404-3.385-.707-5.659-2.173-8.236-.808-1.415-3.132-4.952-7.377-6.72-1.516-.657-3.183-.96-6.518-1.668l-.809-.151c-1.263-.253-2.071-.405-3.284-.86-1.617-.606-2.729-1.263-3.335-2.02-.758-.91-.96-1.668-1.01-1.769-.102-.354-.152-.758-.102-1.314l-.05-5.002C58.31.707 57.705.1 56.846.05c-.809 0-1.466.656-1.466 1.465l.05 4.901c-.05.708 0 1.415.203 2.072.1.354.454 1.617 1.617 2.93.96 1.163 2.425 2.072 4.547 2.88 1.466.557 2.476.759 3.74 1.011l.808.152c3.133.657 4.7.96 6.013 1.516 3.486 1.465 5.407 4.547 5.912 5.406 1.162 2.072 1.415 3.891 1.819 7.176.354 2.83.253 5.457.253 6.72a65.938 65.938 0 0 1-.152 2.729 11.836 11.836 0 0 0-.05 2.728c.1 1.668.353 2.527.606 3.436.202.708.404 1.466.606 2.88.404 2.83.354 5.154.202 8.136-.05 1.718-.202 3.385-.353 5.053-.05.454.1.859.404 1.162.252.303.606.657 1.061 1.162 1.87 2.274 3.183 4.7 3.992 7.327.606 1.97.808 3.587 1.162 6.872.202 1.92.253 3.132.303 4.143.05 1.263.101 2.375.455 4.346.05.303.05.353.253 1.162.202.707.555 2.072 1.212 4.901 1.162 4.7 1.466 5.76 2.274 7.479.253.555.758.858 1.314.858.202 0 .404-.05.606-.151.708-.354 1.01-1.213.708-1.92zM83.828 95.299c-1.768-2.477-3.082-5.407-5.71-11.218-2.02-4.497-3.335-7.428-3.537-10.763-.05-.707-.1-3.335-.151-6.417v-2.88c0-.354-.152-.708-.405-1.01-.758-.81-1.263-1.668-1.566-2.628-.253-.758-.303-1.314-.354-2.224l-.1-1.01c-.152-1.617-.405-3.335-.81-5.003-.15-.758-.909-1.212-1.616-1.111a1.441 1.441 0 0 0-1.263 1.516c.1 1.819.05 3.638-.152 5.356-.152 1.162-.354 2.173-.556 3.183-.1.556-.252 1.162-.354 1.769-1.768 9.802-2.071 15.613-1.111 19.403.202 1.263.556 2.122 1.314 3.689 1.212 2.577 2.172 4.547 2.526 5.305l.152.253c.758 1.516 1.162 3.133 1.515 7.68.051.758.708 1.365 1.466 1.365h.1a1.471 1.471 0 0 0 1.365-1.567c-.353-4.497-.808-6.62-1.819-8.741l-.151-.253c-.354-.758-1.314-2.729-2.527-5.255-.707-1.516-.96-2.072-1.061-2.93 0-.051 0-.051-.05-.102v-.101c-.86-3.284-.506-8.944 1.162-18.19.05-.203.1-.455.1-.657a7.883 7.883 0 0 0 1.213 1.768v2.324c0 3.133.102 5.811.152 6.519.202 3.89 1.718 7.225 3.79 11.824 2.728 6.013 4.042 8.994 5.962 11.672.253.354.91 1.263 1.314 2.577.202.606.758 1.01 1.415 1.01.151 0 .303 0 .454-.05.758-.253 1.213-1.061.96-1.82-.505-1.616-1.364-2.829-1.667-3.283zM47.548 99.24c-.505 0-1.01-.354-1.212-.86-.051-.1-.86-2.677-1.567-10.762-.505-6.114.758-25.063 1.718-38.908.303-4.295.556-8.034.657-10.358.505-9.247-1.213-34.006-1.263-34.26-.05-.707.455-1.313 1.162-1.363.707-.051 1.314.454 1.364 1.162.05 1.01 1.769 25.163 1.263 34.562-.151 2.324-.404 6.063-.657 10.409-.909 12.986-2.223 32.591-1.718 38.503.657 7.68 1.415 10.157 1.415 10.207.202.657-.151 1.364-.808 1.567-.101.1-.253.1-.354.1z" fill="#3667C6" />
         <path d="M86.658 73.621c.05-.151.05-.353.05-.505v-.05c0-1.516-1.01-2.73-2.274-2.73H82.97c-1.263 0-2.274 1.214-2.274 2.73v.05c0 .152 0 .303.05.455-7.427 1.314-13.036 7.781-13.036 15.613 0 8.742 7.074 15.867 15.866 15.867a15.83 15.83 0 0 0 15.867-15.867c-.152-7.68-5.559-14.097-12.784-15.563z" fill="#00A499" />
         <path d="M84.687 86.91v-8.135c0-.556-.455-1.01-1.01-1.01-.556 0-1.011.454-1.011 1.01v8.135c-.707.354-1.263 1.011-1.415 1.82l-6.569 2.425c-.505.202-.808.758-.606 1.314.152.404.556.657.96.657.101 0 .253 0 .354-.051l6.417-2.375c.455.556 1.112.91 1.92.91a2.48 2.48 0 0 0 2.476-2.476c-.101-.96-.657-1.82-1.516-2.224z" fill="#fff" />
      </g>
      <defs>
         <clipPath id="dclip0">
            <path fill="#fff" d="M0 0h99.29v105H0z" />
         </clipPath>
      </defs>
   </svg>
   <svg width="95" height="100" fill="none" viewBox="0 0 95 100" id="body4" y="138">
      <g clip-path="url(#eclip0)">
         <path d="M27.524 62.481c-.352-1.657-.703-3.114-.854-4.872a31.295 31.295 0 0 1-.15-5.324 1.433 1.433 0 0 0-1.256-1.507c-.754-.1-1.457.352-1.607 1.105a34.161 34.161 0 0 0-.804 4.973l-.1 1.004c-.05.904-.101 1.457-.352 2.21-.302.955-.854 1.808-1.557 2.612a1.402 1.402 0 0 0-.402 1.005v2.862c0 3.064-.1 5.676-.15 6.38-.151 3.314-1.507 6.277-3.516 10.748-2.612 5.775-3.918 8.689-5.626 11.1a11.24 11.24 0 0 0-1.707 3.415c-.252.753.2 1.557.954 1.808.15.05.301.05.452.05.603 0 1.205-.402 1.406-1.004.402-1.306 1.055-2.21 1.306-2.562 1.909-2.662 3.215-5.675 5.927-11.652 2.059-4.57 3.566-7.886 3.767-11.753.05-.703.1-3.365.15-6.48v-2.31a9.64 9.64 0 0 0 1.156-1.758c.05.201.1.452.15.653.603 2.813 2.01 11.552 1.105 18.232-.1.904-.402 1.507-1.054 2.913-1.256 2.662-2.26 4.671-2.663 5.525-1.004 2.11-1.456 4.22-1.808 8.69a1.461 1.461 0 0 0 1.357 1.556h.1c.753 0 1.406-.602 1.456-1.356.352-4.52.804-6.127 1.608-7.785.301-.653 1.306-2.712 2.561-5.374.703-1.507 1.155-2.41 1.306-3.767.954-7.182-.502-16.374-1.155-19.337zM37.92 0c-.803 0-1.456.653-1.456 1.457l-.05 5.072c.05.402 0 .804-.1 1.156 0 .1-.252.853-1.005 1.757-.603.754-1.758 1.407-3.315 2.01-1.206.452-2.06.602-3.265.853l-.803.151c-3.315.703-4.973 1.005-6.48 1.658-4.219 1.757-6.529 5.223-7.333 6.68-1.456 2.561-1.707 4.821-2.16 8.186-.35 3.014-.3 5.676-.25 7.132.05 1.407.1 2.21.2 2.863.05.804.1 1.256.05 2.26-.1 1.357-.25 1.96-.502 2.813-.2.754-.452 1.658-.703 3.215-.452 3.114-.351 5.525-.25 8.639.05 1.506.15 3.063.3 4.57-.2.251-.451.502-.703.804a23.767 23.767 0 0 0-4.52 8.237c-.703 2.21-.904 4.068-1.256 7.383-.2 2.01-.25 3.265-.301 4.32-.05 1.255-.1 2.21-.402 3.917-.05.251-.05.251-.25.954-.202.704-.553 2.06-1.257 4.872C1.306 94.124.804 95.58.452 96.685c-.2.502-.301.954-.452 1.406-.201.754.2 1.557 1.004 1.809.151.05.252.05.402.05.653 0 1.206-.402 1.407-1.055.1-.402.25-.804.401-1.256.402-1.155.955-2.712 1.758-5.977.703-2.812 1.055-4.168 1.206-4.871.2-.854.2-.904.25-1.156.352-1.908.403-3.013.453-4.32.05-1.004.1-2.209.301-4.118.352-3.264.553-4.871 1.155-6.83.804-2.562 2.16-5.023 3.968-7.283.402-.502.754-.904 1.055-1.155.301-.302.452-.754.402-1.156-.201-1.657-.302-3.365-.352-5.022-.1-2.963-.2-5.274.201-8.087.201-1.406.402-2.16.603-2.862.251-.904.502-1.758.603-3.416.05-1.205 0-1.858-.05-2.712-.05-.603-.151-1.406-.151-2.712-.05-1.356-.1-3.868.25-6.68.403-3.265.604-5.073 1.809-7.132.502-.904 2.41-3.968 5.876-5.374 1.256-.553 2.813-.854 5.977-1.507l.804-.151c1.306-.251 2.31-.452 3.717-1.005 2.059-.803 3.566-1.707 4.52-2.862 1.155-1.356 1.507-2.562 1.607-2.913.15-.653.251-1.357.201-1.96l.05-4.972A1.53 1.53 0 0 0 37.921 0zM94.375 97.99c-.704-1.506-.955-2.41-2.06-6.93-.703-2.813-1.054-4.169-1.255-4.872-.151-.703-.201-.703-.252-.954-.3-1.708-.351-2.662-.401-3.918-.05-1.055-.1-2.31-.302-4.32-.351-3.365-.552-5.173-1.255-7.383-.904-2.963-2.461-5.726-4.52-8.237-.252-.301-.503-.603-.704-.803.15-1.507.251-3.014.302-4.571.1-3.114.2-5.525-.252-8.639a26.08 26.08 0 0 0-.703-3.214c-.25-.854-.401-1.457-.502-2.813-.05-1.005 0-1.457.05-2.26.05-.653.15-1.507.201-2.863.05-1.306.1-4.068-.251-7.132-.402-3.365-.703-5.625-2.16-8.187-.803-1.406-3.114-4.922-7.333-6.68-1.506-.653-3.164-.954-6.479-1.658l-.803-.15c-1.256-.251-2.06-.402-3.265-.854-1.607-.603-2.712-1.256-3.315-2.01-.754-.903-.954-1.657-1.005-1.757-.1-.352-.15-.753-.1-1.306l-.05-4.972C57.96.703 57.358.1 56.504.05c-.803 0-1.456.653-1.456 1.457l.05 4.872c-.05.703 0 1.406.2 2.059.101.351.453 1.607 1.608 2.913.954 1.155 2.41 2.06 4.52 2.863 1.457.552 2.461.753 3.717 1.004l.804.151c3.114.653 4.67.954 5.977 1.507 3.465 1.456 5.374 4.52 5.876 5.374 1.155 2.06 1.406 3.867 1.808 7.132.352 2.813.251 5.425.251 6.68-.05 1.306-.1 2.06-.15 2.712-.1.854-.151 1.507-.05 2.713.1 1.657.35 2.51.602 3.415.201.703.402 1.457.603 2.863.402 2.813.351 5.123.2 8.086-.05 1.708-.2 3.365-.35 5.023-.051.452.1.854.4 1.155.252.301.604.653 1.056 1.155 1.858 2.26 3.164 4.671 3.968 7.283.602 1.959.803 3.566 1.155 6.83.2 1.91.25 3.115.301 4.12.05 1.255.1 2.36.452 4.319.05.301.05.351.251 1.155.201.703.553 2.06 1.206 4.872 1.155 4.67 1.456 5.726 2.26 7.433a1.41 1.41 0 0 0 1.306.854c.2 0 .401-.05.602-.15.704-.352 1.005-1.206.704-1.91zM83.325 94.726c-1.758-2.46-3.064-5.374-5.676-11.15-2.009-4.47-3.314-7.383-3.516-10.698-.05-.703-.1-3.315-.15-6.379v-2.863c0-.351-.15-.703-.402-1.004-.753-.804-1.256-1.658-1.557-2.612-.251-.753-.301-1.306-.352-2.21l-.1-1.004c-.15-1.608-.402-3.315-.804-4.973-.15-.753-.904-1.205-1.607-1.105-.753.1-1.306.754-1.255 1.507.1 1.808.05 3.616-.151 5.324-.15 1.155-.352 2.16-.553 3.164-.1.553-.25 1.155-.351 1.758-1.758 9.744-2.06 15.52-1.105 19.287.2 1.256.552 2.11 1.306 3.666 1.205 2.562 2.16 4.52 2.511 5.274l.15.251c.754 1.507 1.156 3.114 1.507 7.635.05.753.704 1.356 1.457 1.356h.1a1.461 1.461 0 0 0 1.356-1.557c-.351-4.47-.803-6.58-1.808-8.69l-.15-.25c-.352-.754-1.306-2.713-2.512-5.224-.703-1.507-.954-2.06-1.054-2.913 0-.05 0-.05-.05-.1v-.101c-.854-3.265-.503-8.89 1.155-18.081.05-.201.1-.452.1-.653a7.838 7.838 0 0 0 1.206 1.758v2.31c0 3.114.1 5.776.15 6.48.201 3.867 1.708 7.181 3.767 11.752 2.712 5.977 4.018 8.94 5.927 11.602.251.352.904 1.256 1.306 2.562.2.603.753 1.004 1.406 1.004.15 0 .301 0 .452-.05.753-.251 1.206-1.055.954-1.808-.502-1.607-1.356-2.813-1.657-3.265z" fill="#3667C6" />
         <path d="M73.079 18.935a1.416 1.416 0 0 0-1.406-.15l-6.078 2.812c-.703.301-1.004 1.155-.653 1.808.05.05.1.151.1.201.352.502 1.106.703 1.708.452l1.005-.452c-1.055 1.055-2.461 2.16-4.27 2.963-3.214 1.457-6.68 1.658-8.437 1.658-1.005 0-1.557-.05-1.608-.05-.753-.1-1.406.452-1.506 1.205-.05.352.05.653.25.954.252.302.604.553.955.553.1 0 .804.1 1.909.1 2.41 0 6.027-.351 9.543-1.908 2.36-1.055 4.118-2.562 5.424-3.918l-.251 1.507c-.1.753.402 1.456 1.155 1.557h.201c.653 0 1.256-.502 1.356-1.155l1.055-6.831c.15-.502-.05-1.005-.452-1.306zM42.14 28.578s-.603.05-1.608.05c-1.808 0-5.273-.2-8.438-1.657-1.758-.803-3.164-1.908-4.269-2.963l1.005.452c.2.1.351.15.552.15.452 0 .854-.2 1.105-.602.05-.05.1-.15.1-.201.302-.703 0-1.507-.652-1.808l-6.078-2.813a1.416 1.416 0 0 0-1.406.15 1.448 1.448 0 0 0-.553 1.307l1.055 6.83c.1.653.703 1.156 1.356 1.156h.201c.754-.1 1.256-.804 1.155-1.557l-.25-1.507c1.305 1.356 3.113 2.863 5.424 3.918 3.516 1.557 7.132 1.908 9.543 1.908 1.105 0 1.858-.05 1.908-.1.402-.05.754-.251.955-.553.2-.25.3-.602.25-.954.05-.703-.602-1.256-1.355-1.206z" fill="#00A499" />
         <path d="M47.263 98.644c-.502 0-1.005-.352-1.206-.854-.05-.1-.854-2.662-1.557-10.698-.502-6.077.754-24.912 1.708-38.674.301-4.27.553-7.986.653-10.297.502-9.19-1.205-33.802-1.256-34.053-.05-.703.452-1.306 1.156-1.356.703-.05 1.305.452 1.356 1.155.05 1.005 1.758 25.013 1.255 34.355-.15 2.31-.402 6.027-.653 10.347-.904 12.908-2.21 32.395-1.707 38.272.652 7.634 1.406 10.095 1.406 10.145.2.653-.15 1.356-.804 1.557-.1.1-.25.1-.351.1z" fill="#3667C6" />
         <path d="M47.865 25.565c3.606 0 6.53-1.911 6.53-4.27 0-2.357-2.924-4.268-6.53-4.268-3.606 0-6.53 1.911-6.53 4.269s2.924 4.269 6.53 4.269z" fill="#00A499" />
      </g>
      <defs>
         <clipPath id="eclip0">
            <path fill="#fff" d="M0 0h94.475v100H0z" />
         </clipPath>
      </defs>
   </svg>
   <svg width="31" height="36" fill="none" viewBox="0 0 31 36" id="child" x="117" y="100">
      <g clip-path="url(#fclip0)" fill="#F9F9F9">
         <path d="M30.57 35.432l-1.077-5.798c-.296-1.57-1.279-2.795-2.667-3.258l-7.252-2.495V22.67c.25 0 .452.015.655.015 4.663 0 8.001-1.39 8.095-2.645.015-.21-.032-.897-1.31-1.016-2.527-.21-2.527-5.5-2.527-5.724v-.792-2.286c0-2.75-1.669-5.335-4.367-6.785v-2.39c0-.345-.187-.673-.484-.868a1.11 1.11 0 0 0-1.013-.104l-2.028.792a1.513 1.513 0 0 0-1.03-.389h-.545c-.374 0-.717.12-.998.359L12.057.075a1.11 1.11 0 0 0-1.014.104 1.052 1.052 0 0 0-.484.867v2.376c-2.713 1.45-4.413 4.05-4.413 6.8v2.107c0 1.718-.484 6.68-2.62 6.874-1.233.105-1.295.777-1.28.971.094 1.256 3.681 2.66 8.36 2.66.172 0 .328 0 .5-.014v1.016l-7.378 2.54c-1.372.478-2.37 1.689-2.651 3.258L0 35.447a.419.419 0 0 0 .078.359c.078.104.187.18.327.194.281.045.546-.135.593-.389l1.06-5.768c.094-.508.344-1.09.671-1.54.156 1.107.515 3.199 1.232 7.293.047.24.25.404.5.404h.077c.14-.015.25-.09.328-.194a.503.503 0 0 0 .093-.359c-.42-2.466-1.17-6.814-1.325-7.95.156-.09.296-.15.436-.194l4.804-1.644c-.016.18-.016.329-.016.478 0 3.706 2.605 6.77 5.943 7.054v2.346c0 .269.234.493.514.493.281 0 .515-.224.515-.493v-2.361c3.338-.284 5.942-3.348 5.942-7.054 0-.15 0-.299-.015-.463l4.725 1.629a.974.974 0 0 1 .187.074c-.093.837-.842 5.2-1.34 8.07a.447.447 0 0 0 .108.389.53.53 0 0 0 .39.179c.25 0 .468-.164.5-.404.764-4.348 1.138-6.53 1.263-7.576.483.523.795 1.27.889 1.793l1.076 5.799c.046.239.25.403.499.403.031 0 .062 0 .093-.015.14-.015.25-.09.328-.194.078-.12.109-.24.093-.374zM11.494 2.99V1.046c0-.045.031-.09.063-.12.03-.03.062-.03.093-.03.016 0 .047 0 .063.016l1.809.702c-.031.12-.047.224-.047.344v.463a9.688 9.688 0 0 0-1.98.568zm5.568-1.345l1.903-.732a.157.157 0 0 1 .14.015c.047.03.063.074.063.12v1.957a11.107 11.107 0 0 0-2.09-.598v-.448a.713.713 0 0 0-.016-.314zm-.904.642a11.564 11.564 0 0 0-1.763 0v-.343c0-.314.265-.583.608-.583h.546c.328 0 .608.254.608.583v.343zM9.936 25.27l1.232-.418c.078.18.265.299.468.299.28 0 .514-.224.514-.493v-3.393a6.88 6.88 0 0 0 6.441-.045v3.438c0 .269.234.493.515.493a.524.524 0 0 0 .452-.27l1.17.404c.031.3.047.568.047.822 0 3.378-2.433 6.112-5.443 6.112-2.2 0-4.164-1.48-5.022-3.766a6.654 6.654 0 0 1-.421-2.346c-.016-.254.015-.523.047-.837zm4.226-21.967c.39-.045.78-.075 1.154-.075 4.492 0 8.157 3.138 8.157 6.994v2.6c-.187.015-.374.015-.561.015-6.956 0-9.327-6.067-9.42-6.321a.507.507 0 0 0-.484-.314.582.582 0 0 0-.171.03.464.464 0 0 0-.281.254.448.448 0 0 0-.016.373s.25.643.811 1.54c-.468 2.211-4.632 3.108-6.192 3.362v-1.54c0-3.436 2.855-6.32 6.8-6.903.047 0 .125 0 .172-.015h.031zM9.67 12.194c1.607-.478 3.572-1.33 4.367-2.81 1.295 1.675 3.494 3.692 6.925 4.26v2.032c0 2.989-2.526 5.41-5.646 5.41-3.119 0-5.646-2.421-5.646-5.41v-3.482zm12.306 2.765v-1.18c.047 0 .094.014.14.014-.015.434-.046.852-.14 1.166zm-2.386 5.604c1.325-1.061 2.152-2.54 2.34-4.17 1.075-.328 1.169-1.733 1.2-2.585.11 0 .218 0 .343-.015.063 1.584.5 5.948 3.431 6.217.156.015.265.03.328.06-.016.03-.047.045-.078.075-.702.627-3.135 1.569-6.91 1.569-.218 0-.436 0-.67-.015v-1.136h.016zM8.423 12.508a1.34 1.34 0 0 0 .234-.06v2.257c-.25-.583-.281-1.54-.234-2.197zm-1.03.21c-.03.761.016 2.24.718 2.988.156.18.359.299.577.389.109 1.778.998 3.422 2.448 4.543v1.21h-.483c-4.258 0-6.816-1.18-7.3-1.644.063-.015.157-.03.282-.045 3.025-.269 3.462-5.589 3.524-7.412.063-.015.14-.015.234-.03z" />
         <path d="M17.312 33.968c-.39 0-.718.313-.718.687 0 .373.328.687.718.687.39 0 .717-.313.717-.687 0-.374-.327-.688-.717-.688z" />
      </g>
      <defs>
         <clipPath id="fclip0">
            <path fill="#fff" d="M0 0h30.569v36H0z" />
         </clipPath>
      </defs>
   </svg>
   <svg width="24" height="24" fill="none" viewBox="0 0 24 24" id="delivery" x="266" y="100">
      <path d="M18.126 14.269a3.029 3.029 0 0 0-3.025 3.025 3.029 3.029 0 0 0 3.025 3.025 3.028 3.028 0 0 0 3.025-3.025 3.029 3.029 0 0 0-3.025-3.025zm0 4.538a1.514 1.514 0 0 1-1.513-1.513c0-.834.679-1.513 1.513-1.513.834 0 1.513.679 1.513 1.513 0 .834-.679 1.513-1.513 1.513zM7.79 14.269a3.029 3.029 0 0 0-3.025 3.025 3.029 3.029 0 0 0 3.025 3.025 3.029 3.029 0 0 0 3.025-3.025 3.029 3.029 0 0 0-3.025-3.025zm0 4.538a1.514 1.514 0 0 1-1.513-1.513c0-.834.679-1.513 1.513-1.513.834 0 1.512.679 1.512 1.513 0 .834-.678 1.513-1.512 1.513zM20.163 5.61a.757.757 0 0 0-.676-.417h-3.983v1.513h3.517l2.06 4.096 1.351-.68-2.269-4.512z" fill="#3667C6" />
      <path d="M15.857 16.563h-5.723v1.513h5.723v-1.513zM5.52 16.563H2.9a.756.756 0 1 0 0 1.513H5.52a.756.756 0 1 0 0-1.513zM23.841 11.94l-1.488-1.916a.755.755 0 0 0-.597-.293H16.26V4.437a.756.756 0 0 0-.756-.756H2.9a.756.756 0 1 0 0 1.512h11.849v5.294c0 .418.338.757.756.757h5.882l1.101 1.418v3.9h-2.092a.756.756 0 1 0 0 1.514h2.849a.756.756 0 0 0 .756-.757v-4.916a.757.757 0 0 0-.159-.463zM5.47 12.731H1.993a.756.756 0 1 0 0 1.513H5.47a.756.756 0 1 0 0-1.513zM7.21 9.756H.756a.756.756 0 1 0 0 1.513H7.21a.756.756 0 1 0 0-1.513z" fill="#3667C6" />
      <path d="M8.445 6.781H1.992a.756.756 0 1 0 0 1.513h6.453a.756.756 0 1 0 0-1.513z" fill="#3667C6" />
   </svg>
  <svg width="117" height="33" viewBox="0 0 117 33" fill="none" xmlns="http://www.w3.org/2000/svg">
    <path d="M14.563 8.47C16.923 8.47 18.837 6.574 18.837 4.235C18.837 1.896 16.924 0 14.563 0C12.203 0 10.289 1.896 10.289 4.235C10.289 6.575 12.203 8.471 14.563 8.471V8.47ZM24.852 14.274C27.212 14.274 29.126 12.378 29.126 10.039C29.126 7.7 27.213 5.804 24.852 5.804C22.492 5.804 20.578 7.7 20.578 10.039C20.578 12.379 22.492 14.275 24.852 14.275V14.274ZM4.274 26.196C6.634 26.196 8.548 24.3 8.548 21.961C8.548 19.621 6.634 17.726 4.274 17.726C1.914 17.726 0 19.622 0 21.96C0 24.299 1.914 26.195 4.274 26.195V26.196ZM8.233 8.941C8.075 8 7.283 7.059 6.333 6.431C4.276 5.333 1.743 5.961 0.635 8C-0.473 10.04 0.16 12.549 2.218 13.647C2.534 13.961 2.851 13.961 3.326 14.117H5.225L13.457 11.922C10.607 12.706 9.024 11.922 8.233 8.942V8.941Z" fill="#00A499"/>
    <path d="M5.224 14.118C8.074 13.334 9.656 14.275 10.448 17.098C10.606 17.883 11.081 18.51 11.714 18.981H11.556C13.614 21.02 13.614 22.745 11.556 24.941L17.571 18.981H17.413C17.729 18.667 18.046 18.51 18.204 18.196C19.312 16.157 18.679 13.647 16.621 12.549C15.671 11.922 14.405 11.922 13.455 12.079L5.224 14.118Z" fill="#00A499"/>
    <path d="M17.5699 24.941C15.5129 22.902 15.5129 21.177 17.5699 18.981L11.5559 24.941C10.7639 25.726 10.2889 26.667 10.2889 27.921C10.2889 30.275 12.1889 32.157 14.5629 32.157C16.9379 32.157 18.8369 30.275 18.8369 27.922C18.6789 26.667 18.2039 25.569 17.5709 24.942L17.5699 24.941Z" fill="#00A499"/>
    <path d="M28.766 19.1801C29.6433 19.1801 30.3247 19.3714 30.81 19.7541C31.3047 20.1274 31.552 20.6781 31.552 21.4061C31.552 21.9474 31.398 22.3721 31.09 22.6801C30.7913 22.9788 30.4133 23.1888 29.956 23.3101C30.2173 23.3568 30.46 23.4408 30.684 23.5621C30.908 23.6741 31.104 23.8234 31.272 24.0101C31.44 24.1968 31.5707 24.4208 31.664 24.6821C31.7667 24.9341 31.818 25.2188 31.818 25.5361C31.818 25.9001 31.7387 26.2361 31.58 26.5441C31.4213 26.8428 31.202 27.0994 30.922 27.3141C30.642 27.5288 30.3107 27.6968 29.928 27.8181C29.5453 27.9394 29.1253 28.0001 28.668 28.0001H26.12V19.1801H28.766ZM27.408 22.8621H28.458C28.6913 22.8621 28.9153 22.8434 29.13 22.8061C29.3447 22.7688 29.5313 22.6988 29.69 22.5961C29.858 22.4934 29.9887 22.3581 30.082 22.1901C30.1847 22.0128 30.236 21.7841 30.236 21.5041C30.236 21.0561 30.082 20.7294 29.774 20.5241C29.4753 20.3188 29.074 20.2161 28.57 20.2161H27.408V22.8621ZM27.408 26.9641H28.528C28.7893 26.9641 29.0367 26.9408 29.27 26.8941C29.5033 26.8381 29.7087 26.7494 29.886 26.6281C30.0633 26.5068 30.2033 26.3481 30.306 26.1521C30.418 25.9468 30.474 25.6994 30.474 25.4101C30.474 25.1208 30.4087 24.8828 30.278 24.6961C30.1567 24.5001 29.9933 24.3414 29.788 24.2201C29.5827 24.0988 29.3493 24.0148 29.088 23.9681C28.8267 23.9121 28.5653 23.8841 28.304 23.8841H27.408V26.9641ZM39.5055 24.6401C39.5055 25.1908 39.4215 25.6854 39.2535 26.1241C39.0855 26.5534 38.8522 26.9174 38.5535 27.2161C38.2642 27.5148 37.9235 27.7434 37.5315 27.9021C37.1395 28.0514 36.7149 28.1261 36.2575 28.1261C35.8002 28.1261 35.3755 28.0561 34.9835 27.9161C34.6009 27.7668 34.2649 27.5521 33.9755 27.2721C33.6955 26.9828 33.4715 26.6328 33.3035 26.2221C33.1449 25.8021 33.0655 25.3214 33.0655 24.7801C33.0655 24.2294 33.1495 23.7394 33.3175 23.3101C33.4855 22.8808 33.7142 22.5214 34.0035 22.2321C34.3022 21.9334 34.6475 21.7094 35.0395 21.5601C35.4315 21.4014 35.8562 21.3221 36.3135 21.3221C36.7709 21.3221 37.1909 21.3921 37.5735 21.5321C37.9655 21.6721 38.3015 21.8821 38.5815 22.1621C38.8709 22.4421 39.0949 22.7921 39.2535 23.2121C39.4215 23.6228 39.5055 24.0988 39.5055 24.6401ZM38.2175 24.7101C38.2175 24.2714 38.1615 23.8981 38.0495 23.5901C37.9375 23.2821 37.7882 23.0301 37.6015 22.8341C37.4242 22.6381 37.2189 22.4981 36.9855 22.4141C36.7522 22.3208 36.5142 22.2741 36.2715 22.2741C36.0289 22.2741 35.7909 22.3114 35.5575 22.3861C35.3242 22.4608 35.1189 22.5914 34.9415 22.7781C34.7642 22.9648 34.6195 23.2168 34.5075 23.5341C34.4049 23.8421 34.3535 24.2341 34.3535 24.7101C34.3535 25.1488 34.4095 25.5268 34.5215 25.8441C34.6335 26.1521 34.7782 26.4041 34.9555 26.6001C35.1422 26.7961 35.3522 26.9408 35.5855 27.0341C35.8189 27.1274 36.0569 27.1741 36.2995 27.1741C36.5422 27.1741 36.7802 27.1368 37.0135 27.0621C37.2469 26.9781 37.4522 26.8428 37.6295 26.6561C37.8069 26.4601 37.9469 26.2081 38.0495 25.9001C38.1615 25.5828 38.2175 25.1861 38.2175 24.7101ZM45.3727 18.0601H46.6047V28.0001H45.5687L45.4147 27.2721H45.3727C45.0834 27.5708 44.7894 27.7901 44.4907 27.9301C44.2014 28.0608 43.8327 28.1261 43.3847 28.1261C43.0301 28.1261 42.6847 28.0561 42.3487 27.9161C42.0221 27.7761 41.7281 27.5661 41.4667 27.2861C41.2054 27.0061 40.9954 26.6561 40.8367 26.2361C40.6781 25.8068 40.5987 25.3028 40.5987 24.7241C40.5987 24.2108 40.6641 23.7441 40.7947 23.3241C40.9347 22.9041 41.1307 22.5448 41.3827 22.2461C41.6347 21.9474 41.9427 21.7188 42.3067 21.5601C42.6707 21.4014 43.0861 21.3221 43.5527 21.3221C43.8981 21.3221 44.2247 21.3781 44.5327 21.4901C44.8501 21.5928 45.1301 21.7514 45.3727 21.9661V18.0601ZM45.3727 23.0021C44.9341 22.5074 44.4161 22.2601 43.8187 22.2601C43.5667 22.2601 43.3194 22.3068 43.0767 22.4001C42.8434 22.4841 42.6334 22.6241 42.4467 22.8201C42.2694 23.0161 42.1247 23.2681 42.0127 23.5761C41.9007 23.8841 41.8447 24.2528 41.8447 24.6821C41.8447 25.1301 41.8961 25.5128 41.9987 25.8301C42.1014 26.1381 42.2367 26.3948 42.4047 26.6001C42.5821 26.7961 42.7781 26.9408 42.9927 27.0341C43.2167 27.1274 43.4407 27.1741 43.6647 27.1741C44.3647 27.1741 44.9341 26.8708 45.3727 26.2641V23.0021ZM47.6846 21.4201H49.0006L50.4006 25.1861L50.8766 26.7541H50.9046L51.3806 25.1861L52.6546 21.4201H53.9146L51.3806 28.5601C51.1006 29.3534 50.7459 29.9741 50.3166 30.4221C49.8966 30.8701 49.3926 31.1968 48.8046 31.4021L48.2726 30.4221C48.7113 30.2541 49.0986 30.0114 49.4346 29.6941C49.7799 29.3768 50.0459 28.9381 50.2326 28.3781L50.3586 28.0001L47.6846 21.4201ZM58.2352 28.0001V19.1801H59.5232V22.8901H63.7092V19.1801H64.9972V28.0001H63.7092V23.9821H59.5232V28.0001H58.2352ZM72.6497 24.8501H67.9317V24.9061C67.9317 25.6341 68.1277 26.1941 68.5197 26.5861C68.921 26.9781 69.4623 27.1741 70.1437 27.1741C70.4983 27.1741 70.811 27.1461 71.0817 27.0901C71.3617 27.0341 71.665 26.9408 71.9917 26.8101L72.2437 27.7201C71.973 27.8414 71.651 27.9394 71.2777 28.0141C70.9137 28.0888 70.5217 28.1261 70.1017 28.1261C69.6257 28.1261 69.1777 28.0608 68.7577 27.9301C68.347 27.7994 67.983 27.5988 67.6657 27.3281C67.3483 27.0481 67.0963 26.6934 66.9097 26.2641C66.7323 25.8348 66.6437 25.3214 66.6437 24.7241C66.6437 24.2108 66.7183 23.7441 66.8677 23.3241C67.0263 22.9041 67.2457 22.5494 67.5257 22.2601C67.8057 21.9614 68.1417 21.7328 68.5337 21.5741C68.935 21.4061 69.383 21.3221 69.8777 21.3221C70.2977 21.3221 70.6757 21.3921 71.0117 21.5321C71.357 21.6721 71.651 21.8681 71.8937 22.1201C72.1363 22.3721 72.323 22.6754 72.4537 23.0301C72.5843 23.3848 72.6497 23.7768 72.6497 24.2061V24.8501ZM71.3757 23.9681C71.3757 23.7254 71.343 23.5014 71.2777 23.2961C71.2217 23.0814 71.1283 22.8948 70.9977 22.7361C70.8763 22.5774 70.7177 22.4514 70.5217 22.3581C70.3257 22.2648 70.0877 22.2181 69.8077 22.2181C69.2943 22.2181 68.8743 22.3814 68.5477 22.7081C68.2303 23.0348 68.0343 23.4641 67.9597 23.9961L71.3757 23.9681ZM74.1603 28.0001V18.0601H75.3643V28.0001H74.1603ZM80.0609 28.1261C79.7622 28.1261 79.4729 28.0841 79.1929 28.0001C78.9222 27.9161 78.6889 27.8041 78.4929 27.6641V31.2201H77.2749V21.3221H78.2969L78.4789 22.1761C78.7309 21.9428 79.0156 21.7421 79.3329 21.5741C79.6502 21.4061 80.0236 21.3221 80.4529 21.3221C81.3302 21.3221 82.0209 21.6021 82.5249 22.1621C83.0289 22.7221 83.2809 23.5248 83.2809 24.5701C83.2809 25.1861 83.1876 25.7181 83.0009 26.1661C82.8236 26.6141 82.5809 26.9828 82.2729 27.2721C81.9742 27.5614 81.6289 27.7761 81.2369 27.9161C80.8542 28.0561 80.4622 28.1261 80.0609 28.1261ZM80.1869 22.3301C79.7949 22.3301 79.4542 22.4281 79.1649 22.6241C78.8756 22.8108 78.6516 23.0021 78.4929 23.1981V26.7121C78.7076 26.8708 78.9362 26.9874 79.1789 27.0621C79.4216 27.1368 79.6642 27.1741 79.9069 27.1741C80.1589 27.1741 80.4109 27.1321 80.6629 27.0481C80.9149 26.9548 81.1389 26.8054 81.3349 26.6001C81.5309 26.3948 81.6896 26.1288 81.8109 25.8021C81.9322 25.4754 81.9929 25.0741 81.9929 24.5981C81.9929 23.8981 81.8436 23.3474 81.5449 22.9461C81.2556 22.5354 80.8029 22.3301 80.1869 22.3301ZM90.3684 24.8501H85.6504V24.9061C85.6504 25.6341 85.8464 26.1941 86.2384 26.5861C86.6397 26.9781 87.1811 27.1741 87.8624 27.1741C88.2171 27.1741 88.5297 27.1461 88.8004 27.0901C89.0804 27.0341 89.3837 26.9408 89.7104 26.8101L89.9624 27.7201C89.6917 27.8414 89.3697 27.9394 88.9964 28.0141C88.6324 28.0888 88.2404 28.1261 87.8204 28.1261C87.3444 28.1261 86.8964 28.0608 86.4764 27.9301C86.0657 27.7994 85.7017 27.5988 85.3844 27.3281C85.0671 27.0481 84.8151 26.6934 84.6284 26.2641C84.4511 25.8348 84.3624 25.3214 84.3624 24.7241C84.3624 24.2108 84.4371 23.7441 84.5864 23.3241C84.7451 22.9041 84.9644 22.5494 85.2444 22.2601C85.5244 21.9614 85.8604 21.7328 86.2524 21.5741C86.6537 21.4061 87.1017 21.3221 87.5964 21.3221C88.0164 21.3221 88.3944 21.3921 88.7304 21.5321C89.0757 21.6721 89.3697 21.8681 89.6124 22.1201C89.8551 22.3721 90.0417 22.6754 90.1724 23.0301C90.3031 23.3848 90.3684 23.7768 90.3684 24.2061V24.8501ZM89.0944 23.9681C89.0944 23.7254 89.0617 23.5014 88.9964 23.2961C88.9404 23.0814 88.8471 22.8948 88.7164 22.7361C88.5951 22.5774 88.4364 22.4514 88.2404 22.3581C88.0444 22.2648 87.8064 22.2181 87.5264 22.2181C87.0131 22.2181 86.5931 22.3814 86.2664 22.7081C85.9491 23.0348 85.7531 23.4641 85.6784 23.9961L89.0944 23.9681ZM91.7951 28.0001V21.4201H92.7191L92.9291 22.7361C93.0878 22.3161 93.3491 21.9754 93.7131 21.7141C94.0771 21.4528 94.4971 21.3221 94.9731 21.3221C95.2158 21.3221 95.4164 21.3408 95.5751 21.3781C95.7338 21.4154 95.8784 21.4621 96.0091 21.5181L95.7711 22.5961C95.6591 22.5401 95.5331 22.4934 95.3931 22.4561C95.2624 22.4188 95.1038 22.4001 94.9171 22.4001C94.6464 22.4001 94.3944 22.4468 94.1611 22.5401C93.9371 22.6334 93.7364 22.7734 93.5591 22.9601C93.3911 23.1468 93.2558 23.3801 93.1531 23.6601C93.0598 23.9308 93.0131 24.2434 93.0131 24.5981V28.0001H91.7951Z" fill="#00A499"/>
    </svg>
   <svg width="38" height="32" fill="none" viewBox="0 0 38 32" id="office" x="228" y="100">
      <path d="M37.996 28.701l-1.063-5.732-.014-.027c-.453-1.493-1.261-2.422-2.466-2.839l-4.323-1.48a.522.522 0 0 0 .015-.256.68.68 0 0 0-.426-.538l-1.644-.673c-.24-.094-.538-.067-.736.094l-.015.014V14.25c1.049-.78 1.828-1.884 2.169-3.122.07.013.141.013.212.013.709 0 1.29-.551 1.29-1.238V8.585c0-.673-.581-1.225-1.29-1.225v-.282c.043-.35.369-3.499-.907-5.302C27.877.471 25.368 0 23.498 0h-.184c-2.509.04-4.521.848-5.4 2.166-1.247 1.898-1.106 4.239-.879 5.504-.623.094-1.091.605-1.091 1.21v1.32c0 .672.581 1.237 1.29 1.237.085 0 .184-.013.283-.04.34 1.09.964 2.005 1.814 2.664v3.257l-.113-.081a.795.795 0 0 0-.737-.094l-1.644.672a.68.68 0 0 0-.425.539.548.548 0 0 0 0 .215H2.92c-.596 0-1.078.457-1.078 1.023v9.163H.794c-.44 0-.794.337-.794.754v.847c0 .417.354.754.794.754h20.053c.44 0 .794-.337.794-.754v-.847c0-.418-.354-.754-.793-.754h-1.05v-7.36l1.078.834a.734.734 0 0 0 .893.014l1.488-1.063 1.488 1.063c.255.188.638.174.893-.014l3.033-2.328-3.487 7.926-1.275-2.705 1.12-1.063a.625.625 0 0 0 0-.915l-1.262-1.198a.693.693 0 0 0-.482-.188.694.694 0 0 0-.482.188l-1.261 1.198a.604.604 0 0 0 0 .902l1.063 1.009-1.304 2.718a.358.358 0 0 0 .199.484c.184.081.425 0 .51-.188l1.218-2.57 1.56 3.297c.07.148.226.242.41.242a.45.45 0 0 0 .397-.256l4.181-9.513 4.393 1.493a2.7 2.7 0 0 1 1.02.62c-.013.026-.027.053-.027.08l-1.659 7.199a.338.338 0 0 0 .057.282c.057.081.142.135.241.162.213.04.425-.094.468-.283l1.53-6.62c.142.27.27.565.355.888l1.063 5.719c.028.175.198.31.382.31h.071a.38.38 0 0 0 .255-.149c.071-.067.085-.174.071-.269zM17.333 10.684c-.043.013-.071.013-.1.013a.496.496 0 0 1-.51-.484V8.894c0-.255.199-.457.468-.484.028.108.043.175.057.202l-.014.955c0 .363.042.74.099 1.117zm11.99 7.777l-4.139 3.163-1.247-.889 3.855-2.893 1.53.62zM20.11 14.56c.92.471 2.055.74 3.245.74 1.389 0 2.721-.377 3.189-.578v3.121l-3.26 2.463-3.16-2.382V14.56h-.014zm7.44-10.482c0-.013-.1-.256-.354-.256a.474.474 0 0 0-.255.081c-.043.027-.085.094-.142.202-.043.067-.085.148-.114.175-.651.565-3.16.875-5.186.875-.27 0-.525 0-.766-.014-1.474-.067-2.423 1.05-2.976 2.059-.156-1.157-.198-3.108.822-4.656.737-1.117 2.509-1.79 4.748-1.83h.156c2.111 0 4.067.606 4.662 1.453.865 1.225.865 3.31.822 4.266-.44-.283-1.105-.955-1.417-2.355zm-9.538 4.494c.1-.323.964-2.772 2.679-2.677.212.013.467.013.737.013 1.927 0 4.506-.242 5.57-.915.538 1.48 1.487 2.086 1.913 2.301v2.274c0 2.409-1.46 4.979-5.584 4.979-3.232 0-5.33-1.951-5.33-4.979v-.996h.015zM2.92 19.31h15.803c.17 0 .297.121.297.283v9.163H2.636v-9.163a.28.28 0 0 1 .284-.283zm15.817-.74h-1.36l-.128-.108 1.53-.619 3.841 2.893-1.261.889-1.53-1.185v-.86c-.03-.553-.511-1.01-1.092-1.01zM.794 29.495h20.053c.015 0 .015.014.015.014v.847c0 .014-.014.014-.014.014H.794c-.015 0-.015-.014-.015-.014v-.847l.015-.014zm28.84-19.107c.043-.283.057-.552.057-.82V8.1c.284 0 .51.216.51.485v1.318c0 .27-.227.485-.51.485h-.057zM24.42 23.602l-1.12 1.063-1.12-1.063 1.12-1.064 1.12 1.064z" fill="#F9F9F9" />
      <path d="M21.882 9.62c.411 0 .751-.323.751-.713V8.61c.199-.068.596-.202.836-.202.284 0 .652.134.837.202v.31c0 .39.34.712.75.712h2.382c.41 0 .75-.323.75-.713V7.83c0-.39-.34-.712-.75-.712h-2.381c-.411 0-.751.31-.751.713a2.99 2.99 0 0 0-.837-.148c-.212 0-.496.053-.836.161 0-.39-.34-.713-.75-.713H19.5c-.41 0-.751.323-.751.713v1.09c0 .39.34.712.751.712h2.381V9.62zm-2.353-.74V7.844h2.325V8.88h-2.325zm5.556 0V7.844h2.324V8.88h-2.324zM10.828 25.81c.907 0 1.644-.7 1.644-1.562 0-.862-.737-1.562-1.644-1.562-.907 0-1.644.7-1.644 1.562 0 .861.737 1.562 1.644 1.562zm0-2.397c.481 0 .864.364.864.821 0 .458-.383.822-.864.822-.482 0-.865-.364-.865-.822 0-.457.383-.82.865-.82z" fill="#F9F9F9" />
   </svg>
   <svg width="28" height="36" fill="none" viewBox="0 0 28 36" id="olds" x="148" y="100">
      <path d="M27.8 35.145l-.98-5.238c-.255-1.414-1.162-2.504-2.424-2.935l-6.651-2.262v-2.814c1.347-.983 2.226-2.45 2.41-4.04.894-.215 1.433-1.063 1.56-2.436.143 0 .284-.014.426-.027.27-.04.397-.27.411-.404v-2.882c0-2.8-1.886-5.412-4.807-6.664.128-.363.199-.74.199-1.117.014-2.033-1.787-3.676-4-3.676-2.212 0-4.013 1.643-4.013 3.649 0 .377.071.754.199 1.117-2.921 1.252-4.807 3.864-4.807 6.665v1.979c0 .135.099.43.425.43.029 0 .071 0 .1-.013.014 0 .028 0 .056-.013h.028c.057 0 .114-.014.199-.027-.028.794.043 2.14.737 2.895.227.256.525.43.851.511.185 1.549 1.035 3.003 2.34 3.986v2.867l-6.65 2.276c-1.192.404-1.943 1.279-2.383 2.747L.005 35.145a.427.427 0 0 0 .07.323c.072.094.171.161.299.175.255.04.496-.121.539-.35l.992-5.359c.355-1.158.922-1.831 1.801-2.127l2.808-.956 1.177-.404 1.007-.35c.227 1.44.85 2.746 1.758 3.689a.452.452 0 0 0 .34.134c.114 0 .227-.04.313-.107a.428.428 0 0 0 .028-.62c-.837-.861-1.376-2.06-1.56-3.406l.454-.162c0 .243.212.431.468.431.255 0 .468-.202.468-.444v-3.231a6.48 6.48 0 0 0 2.963.713c.993 0 1.986-.229 2.88-.673V25.6c0 .242.212.444.467.444a.459.459 0 0 0 .468-.43l.454.16c-.34 2.693-2.156 4.646-4.311 4.646-.738 0-1.234-.135-1.787-.485a.674.674 0 0 0-.284-.067c-.113 0-.368.04-.44.43v4.901c0 .243.214.445.469.445s.468-.202.468-.445v-4.16c.468.189.964.27 1.574.27 2.552 0 4.722-2.195 5.19-5.225l4.992 1.697c1.106.377 1.673 1.44 1.815 2.235l.978 5.264a.45.45 0 0 0 .454.364c.028 0 .057 0 .085-.014.27-.027.44-.255.397-.484zM7.676 14.155v2.719a.422.422 0 0 1-.114-.108c-.496-.538-.553-1.79-.496-2.477.198-.04.411-.094.61-.135zm13.131 1.265c-.057.525-.213 1.158-.596 1.454v-1.481c.199 0 .398.013.596.027zm.85-.889c-.183.014-.368.014-.552.014-6.552 0-8.806-5.682-8.906-5.924a.462.462 0 0 0-.44-.283.534.534 0 0 0-.155.027c-.241.08-.369.336-.27.565.014.027.241.62.766 1.44-.425 2.115-4.495 2.95-5.87 3.178v-1.454c0-3.622 3.46-6.557 7.714-6.557 4.254 0 7.714 2.935 7.714 6.557v2.437zm-13.06-.62c1.504-.443 3.39-1.251 4.141-2.638 1.191 1.548 3.29 3.46 6.552 3.999v1.912c0 2.8-2.397 5.076-5.346 5.076-2.95 0-5.347-2.276-5.347-5.076v-3.272zm5.347-12.386c1.701 0 3.091 1.239 3.091 2.774 0 .269-.043.538-.142.807a9.933 9.933 0 0 0-2.964-.457 9.52 9.52 0 0 0-2.963.457 2.55 2.55 0 0 1-.142-.807c.028-1.522 1.418-2.774 3.12-2.774z" fill="#F9F9F9" />
      <path d="M14.583 31.94c-.44 0-.794.337-.794.755 0 .417.354.754.794.754.44 0 .794-.337.794-.754 0-.418-.355-.755-.794-.755zM14.583 34.04c-.44 0-.794.337-.794.754 0 .418.354.754.794.754.44 0 .794-.336.794-.754 0-.417-.355-.754-.794-.754z" fill="#F9F9F9" />
   </svg>
   <svg width="94" height="56" fill="none" viewBox="0 0 94 56" id="quotes" x="95" y="138">
      <path d="M51.14 56l-1.461-2.113c6.494-25.038 12.24-43 17.241-53.887H94c-4.351 19.98-7.533 38.646-9.546 56H51.14zM1.46 56L0 53.887C6.494 28.849 12.241 10.887 17.241 0h27.08c-4.35 19.98-7.533 38.646-9.546 56H1.461z" fill="#3667C6" />
   </svg>
   <svg width="33" height="36" fill="none" viewBox="0 0 33 36" id="sad" x="176" y="100">
      <path d="M20.177 30.324c-.497 0-.897.38-.897.852 0 .471.4.851.896.851.497 0 .897-.38.897-.851.016-.472-.4-.852-.896-.852zM20.177 32.68c-.497 0-.897.38-.897.852s.4.852.896.852c.497 0 .897-.38.897-.852.016-.456-.4-.852-.896-.852z" fill="#F9F9F9" />
      <path d="M31.722 28.987l-.016-.046c-.497-1.642-1.345-2.63-2.69-3.086l-3.956-1.353v-.182a.86.86 0 0 0-.528-.67l-1.858-.76a.936.936 0 0 0-.912.122l-.24.182v-3.07c1.52-1.11 2.514-2.768 2.722-4.562.736-.182 1.585-.821 1.761-2.752.16 0 .32-.015.48-.03.353-.03.465-.35.481-.456V9.07c0-4.622-4.372-8.393-9.752-8.393-5.38-.03-9.752 3.74-9.752 8.363v2.25a.51.51 0 0 0 .513.456h.064c.032 0 .144-.015.336-.046-.032.806.032 2.402.833 3.27.256.288.592.486.96.577.209 1.779 1.137 3.375 2.643 4.5v3.071l-.145-.106a.936.936 0 0 0-.912-.122l-1.858.76c-.288.122-.496.365-.528.67 0 .045-.016.106 0 .151l-4.052 1.384a3.856 3.856 0 0 0-2.05 1.627C1.394 27.953 0 29.58 0 31.51c0 2.296 1.97 4.166 4.388 4.166s4.387-1.87 4.387-4.166c0-2.205-1.793-3.999-4.083-4.15a2.79 2.79 0 0 1 .977-.563l4.307-1.475 4.5 3.451a.952.952 0 0 0 1.105.015l1.105-.79v6.948h1.04v-6.948l1.105.79c.16.107.353.168.545.168.208 0 .4-.061.56-.198l4.468-3.436 4.26 1.475c.992.334 1.633 1.094 2.033 2.402l1.073 5.762h1.057l-1.105-5.975zM10.136 11.381v3.071a.474.474 0 0 1-.128-.121c-.56-.609-.624-1.992-.56-2.798.224-.046.464-.106.688-.152zm13.74 13.106l-4.5 3.451-1.265-.912 4.227-3.193 1.537.654zM17.213 1.635c4.804 0 8.711 3.315 8.711 7.405V11.807c-.208.015-.416.015-.624.015-7.366 0-9.944-6.416-10.057-6.675a.521.521 0 0 0-.496-.319.603.603 0 0 0-.176.03.474.474 0 0 0-.288.259.452.452 0 0 0-.016.38c.032.076.288.73.864 1.627-.48 2.372-4.98 3.314-6.63 3.588V9.07c0-4.12 3.908-7.435 8.712-7.435zm-6.037 9.472c1.713-.501 3.843-1.414 4.676-2.98 1.377 1.78 3.731 3.908 7.398 4.516v2.159c0 3.162-2.706 5.732-6.037 5.732-3.33 0-6.037-2.57-6.037-5.732v-3.695zm2.69 9.594a7.368 7.368 0 0 0 3.347.806 7.271 7.271 0 0 0 3.25-.76v3.223l-3.25 2.463-3.347-2.524v-3.208zm11.097-7.906c-.064.608-.24 1.323-.672 1.642v-1.672c.224.015.448.03.672.03zm-8.647 14.23l-1.28.913-4.5-3.466 1.569-.64 4.211 3.194zm-14.38 3.36c0-.364.305-.653.69-.653.383 0 .688.289.688.654 0 .365-.305.654-.689.654-.384 0-.688-.29-.688-.654zm4.164 3.087c-.032.015-.048.015-.08.015a.24.24 0 0 1-.224-.152s-.064-.136-.289-.258c-.224-.137-.608-.259-1.265-.259-1.28 0-1.537.517-1.553.548-.048.106-.192.167-.32.121a.214.214 0 0 1-.128-.288c.016-.03.368-.822 2.001-.822 1.666 0 1.97.745 2.002.837.048.091-.016.213-.144.258zm-.016-3.725c.368 0 .689.29.689.654 0 .365-.305.654-.689.654a.663.663 0 0 1-.673-.654c0-.365.305-.654.673-.654z" fill="#F9F9F9" />
   </svg>
   <svg width="32" height="34" fill="none" viewBox="0 0 32 34" id="sport" x="220" y="138">
      <path d="M31.678 32.38l-1.14-6.167-.016-.044c-.486-1.66-1.354-2.643-2.692-3.09l-7.62-2.6-.031-3.813a6.425 6.425 0 0 0 2.449-3.885h.03c.806 0 1.46-.62 1.46-1.386V9.98c0-.737-.608-1.344-1.384-1.387V5.85C22.567 2.614 19.707 0 16.27 0h-.624c-3.438 0-6.297 2.614-6.45 5.85h-.015v2.758c-.775.043-1.384.65-1.384 1.386v1.415c0 .766.654 1.387 1.46 1.387h.016c.258 1.516 1.019 2.83 2.16 3.726v3.336l.03.621v.029l-7.62 2.6c-.092.029-.183.072-.29.115-.015 0-.045 0-.06.015a.381.381 0 0 0-.213.115c-1.004.52-1.704 1.459-2.115 2.845L.01 32.394c-.03.13.016.274.107.39a.518.518 0 0 0 .38.173.484.484 0 0 0 .487-.39l1.14-6.123c.274-.91.685-1.574 1.233-1.993l2.251 8.477c.06.231.32.376.548.318.243-.058.395-.289.334-.52l-2.297-8.752h.016l5.901-2.007c.852 1.993 2.997 3.22 5.628 3.22h.107c2.723 0 4.791-1.227 5.567-3.278l5.902 2.007-2.328 8.767c-.06.23.092.462.335.52.03.014.076.014.107.014.213 0 .395-.13.44-.332l2.282-8.593c.64.419 1.095 1.098 1.4 2.123l1.14 6.123c.046.246.305.42.578.376a.47.47 0 0 0 .32-.202c.091-.073.122-.203.091-.333zM21.73 5.85H10.185c.152-2.73 2.571-4.911 5.461-4.911h.624c2.89 0 5.308 2.195 5.46 4.91zm-2.555 14.745c-.107 1.256-1.582 2.238-3.377 2.238-1.795 0-3.27-.982-3.377-2.224v-3.466c.016.014.03.014.046.029 1.004.476 2.13.707 3.346.707 1.628 0 2.936-.433 3.362-.592v3.308zm-7.53.852c.563 1.386 2.252 2.34 4.168 2.34 1.932 0 3.62-.968 4.168-2.355l.563.188c-.639 1.719-2.343 2.715-4.7 2.715h-.107c-2.236 0-4.046-1.01-4.76-2.657l.669-.231zm-1.46-12.565h11.56v2.773c0 2.556-1.566 5.271-5.932 5.271-3.407 0-5.612-2.065-5.612-5.271V8.882h-.016zm11.545-2.08v1.141H10.17v-1.14h11.56zm.99 5.055V9.561a.447.447 0 0 1 .395.447v1.401a.447.447 0 0 1-.396.448zM8.8 9.994a.47.47 0 0 1 .396-.448v2.311a.447.447 0 0 1-.396-.448V9.994z" fill="#F9F9F9" />
   </svg>
   <svg width="31" height="35" fill="none" viewBox="0 0 31 35" id="student" x="189" y="138">
      <path d="M30.254 34.448l-1.09-5.89-.014-.041c-.465-1.559-1.307-2.524-2.571-2.952l-4.373-1.49a.78.78 0 0 0-.48-.841l-1.684-.69a.84.84 0 0 0-.727.042v-2.938a6.056 6.056 0 0 0 2.412-4.303c.74-.028 1.35-.607 1.35-1.325V12.67c0-.704-.58-1.283-1.321-1.324V9.924l-.843-3.297 3.501-1.337a.518.518 0 0 0 .334-.442.514.514 0 0 0-.29-.483L15.742.103a1.129 1.129 0 0 0-.945 0L6.11 4.365a.501.501 0 0 0-.29.483c0 .055.014.097.043.152v2.938l-.639 2.027a.767.767 0 0 0 .13.704c.16.207.408.317.67.317h.929a.869.869 0 0 0 .697-.359c.16-.22.174-.51.058-.744l-.915-1.959V5.538L9.655 6.64l-.843 3.42v1.297c-.74.042-1.322.621-1.322 1.325v1.351c0 .717.596 1.297 1.337 1.324.13 1.683.9 3.187 2.135 4.152v3.159a.887.887 0 0 0-.828-.097l-1.685.69c-.261.11-.45.33-.48.607a.536.536 0 0 0 .015.262L3.7 25.593C2.435 26.02 1.592 27 1.113 28.558L.009 34.462a.45.45 0 0 0 .102.372.45.45 0 0 0 .363.165.462.462 0 0 0 .465-.372l1.09-5.848c.377-1.269 1.016-2.014 1.975-2.345l2.252-.786c.45 4 4.314 7.117 8.861 7.117 4.547 0 8.411-3.13 8.861-7.13l2.281.771c.974.332 1.598 1.076 1.976 2.332l1.09 5.861c.043.221.232.373.464.373.03 0 .058 0 .087-.014a.433.433 0 0 0 .306-.18.512.512 0 0 0 .072-.33zM8.812 12.24v2.193a.449.449 0 0 1-.377-.427v-1.352c0-.193.16-.372.377-.414zm-2.033-2.18h-.61l.246-.771.364.772zm15.34 2.608v1.351c0 .207-.16.387-.378.428v-2.207c.218.042.378.22.378.428zm-7.017 18.703l.204.497h-.465l.261-.497zm-3.18-11.283c.929.456 2.047.704 3.239.704 1.278 0 2.6-.317 3.21-.566v3.062l-3.268 2.47-3.182-2.4v-3.27zM15.305 7.8c-.015.015-.044.015-.058 0L7.33 4.766 15.233.89c.015-.014.058-.014.073 0l7.903 3.875L15.306 7.8zm-.407.828c.247.097.523.097.77 0l4.344-1.668.711 2.703c-.886.372-3.631 1.49-5.433 1.49-2.15 0-4.648-.938-5.447-1.27l.712-2.923 4.343 1.668zm-5.142 2.207c1.017.4 3.37 1.228 5.52 1.228 1.83 0 4.402-.966 5.52-1.435v4.221c0 2.441-1.482 5.034-5.622 5.034-3.283 0-5.404-1.972-5.404-5.034v-4.014h-.014zm6.537 20.952l-.465-.98 1.119-1.062a.7.7 0 0 0 0-1.034l-1.293-1.228a.767.767 0 0 0-.538-.206.742.742 0 0 0-.537.206l-1.293 1.228c-.305.29-.305.745 0 1.02l1.046 1.063-.48.979c-3.632-.524-6.42-3.228-6.653-6.441l1.453-.497 3.965 3.048c.276.207.727.221 1.003.014l1.481-1.062 1.482 1.062a.887.887 0 0 0 1.003-.014l3.995-3.076 1.481.51c-.247 3.27-3.08 5.987-6.77 6.47zm-.407-5.49l3.85-2.896 1.409.579-4.111 3.145-1.148-.828zm-2.775.828L9.03 23.979l1.424-.58 3.82 2.883-1.162.842zm3.036 2.11l-1.031.98-1.031-.98 1.031-.98 1.031.98z" fill="#F9F9F9" />
   </svg>
</svg>