<?xml version="1.0" encoding="utf-8"?><svg xmlns="http://www.w3.org/2000/svg" xmlns:xlink="http://www.w3.org/1999/xlink"><symbol viewBox="0 0 43 54" id="icons--callCenter"><g filter="url(#afilter0_d_8_284)"><path fill-rule="evenodd" clip-rule="evenodd" d="M17.339 1.132c-3.37.415-6.327 1.594-9.125 3.64-1.007.736-2.974 2.703-3.768 3.77a18.872 18.872 0 00-3.517 8.56 9.961 9.961 0 01-.445 1.717c-.832 2.244-.587 4.476.702 6.405 1.026 1.535 2.915 2.744 4.632 2.965.258.033.567.08.69.106.215.044.22.024.22-.787 0-.458.025-.832.056-.832.03 0 .24.126.467.28 1.975 1.347 5.196 2.202 9.105 2.417 1.012.055 1.25.098 1.35.24.216.303.78.584 1.387.69 1.946.34 3.42-1.52 2.153-2.716-.543-.513-.933-.664-1.697-.657-.773.006-1.226.165-1.729.603l-.339.296-1.373-.082c-3.88-.233-6.761-1.118-8.692-2.668l-.639-.513-.025-5.1-.026-5.101-.416.054A8.035 8.035 0 003.17 15.53l-.364.219.195-.699C4.686 9.005 9.792 4.26 15.997 2.973a17.163 17.163 0 0118.66 8.756c.525.982 1.062 2.309 1.338 3.304l.198.716-.364-.219a8.035 8.035 0 00-3.14-1.11l-.417-.056V28.34l.221-.045c.122-.025.431-.073.689-.106 1.717-.221 3.606-1.43 4.632-2.965 1.29-1.93 1.534-4.161.701-6.407a9.955 9.955 0 01-.444-1.715c-.88-6.276-4.913-11.69-10.692-14.349-3.197-1.471-6.685-2.034-10.04-1.621zm-.393 3.027c-1.958.268-4.505 1.33-6.375 2.661-2.163 1.54-4.075 3.85-5.183 6.265l-.33.72.368-.057c.203-.032.622-.088.932-.124l.563-.065.458-.81c2.355-4.173 6.66-6.908 11.285-7.172 2.456-.14 4.151.12 6.263.962 2.861 1.14 5.565 3.553 7.05 6.292.385.708.42.741.815.8.227.034.626.108.885.165.26.058.5.078.532.045.107-.106-1.137-2.428-1.773-3.31-2.52-3.493-6.391-5.9-10.255-6.377-1.39-.172-3.958-.169-5.235.005zm.59 4.012c-3.626.654-6.723 2.905-8.387 6.098-.927 1.778-1.34 3.448-1.34 5.422 0 1.8.317 3.26 1.056 4.86.333.72.377.769.9 1.011.543.252 1.838.723 1.987.723.042 0-.161-.33-.452-.732-.54-.749-1.126-1.873-1.332-2.56-.109-.36-.093-.43.226-1.062 1.11-2.19 2.718-3.354 5.327-3.853.324-.062 1.938-.148 3.586-.19 3.294-.084 3.636-.135 4.863-.733a8.3 8.3 0 001.295-.823l.607-.488.068.654c.115 1.105.496 2.403.988 3.36.383.747.63 1.07 1.39 1.824 1.064 1.057 1.04.915.377 2.307a10.017 10.017 0 01-4.627 4.714c-.432.216-.97.447-1.195.514-.32.096-.476.224-.714.59-.49.75-1.623 1.362-2.525 1.362-.795 0-1.73-.311-2.197-.732-.227-.204-.363-.225-1.797-.273l-1.55-.053-.527.456c-1.321 1.144-3.607 2.112-6.6 2.794l-1.414.323v-4.718l-.712-.192a488.09 488.09 0 00-.835-.224c-.097-.026-.123.71-.123 3.442v3.476h.282c.453 0 2.522-.378 3.746-.685 3.268-.818 5.744-1.998 7.17-3.417l.6-.597 1.003.258c1.87.48 4.22.44 6.102-.102l.795-.23.636.635c1.115 1.113 2.744 2.038 4.876 2.77 1.793.614 4.213 1.179 5.713 1.332l.614.063v-3.53c0-2.489-.032-3.531-.108-3.531-.059 0-.434.115-.835.257l-.727.257v2.332c0 1.905-.025 2.331-.135 2.331-.183 0-2.148-.446-2.813-.638-1.685-.489-3.214-1.154-4.326-1.883-.674-.441-1.367-1.053-1.267-1.118 2.504-1.59 3.92-3.098 4.956-5.276 3.012-6.335-.223-13.874-6.906-16.09-1.727-.572-4-.745-5.72-.435zm3.597 1.558c1.091.187 2.136.53 3.063 1.004.942.484 1.985 1.256 1.985 1.471 0 .094-.179.537-.397.986-.516 1.062-1.507 2.076-2.476 2.534-1.027.485-1.843.597-4.369.597-4.966 0-7.287.855-9.283 3.42l-.266.34-.005-.597c-.01-1.24.456-3.108 1.08-4.336.74-1.455 2.06-2.919 3.48-3.858 2.156-1.427 4.717-1.983 7.188-1.56zm6.878 4.418c.413.628.908 1.618 1.136 2.27.416 1.192.659 2.986.524 3.872l-.072.476-.482-.52c-.877-.947-1.468-2.457-1.618-4.133-.07-.78.026-2.429.141-2.429.037 0 .204.209.371.464zm-12.62 5.99c-.43.091-.878.528-1.018.99-.153.511.02 1.049.465 1.437.295.257.424.302.875.302.587 0 1.01-.26 1.285-.788.53-1.02-.436-2.187-1.608-1.94zm7.695-.005c-.96.203-1.4 1.113-.972 2.01.42.879 1.752.979 2.385.178.776-.98-.174-2.451-1.413-2.188zM9.72 36.492c-1.885.506-3.339 1.586-4.297 3.191-.466.78-.744 1.657-.863 2.72-.228 2.041-.877 8.285-.877 8.433 0 .153 1.085.164 16.024.164h16.025l-.055-.318c-.03-.174-.234-2.075-.453-4.224-.219-2.15-.466-4.282-.55-4.738-.371-2.01-1.693-3.73-3.602-4.686-1.127-.564-1.89-.7-3.76-.666l-1.569.028-3.003 3.606c-1.651 1.984-3.037 3.602-3.078 3.596-.042-.006-1.49-1.64-3.217-3.631l-3.142-3.62-1.543.006c-.975.004-1.727.056-2.04.14z"/></g><defs><filter id="afilter0_d_8_284" x="0" y="0" width="43" height="54" filterUnits="userSpaceOnUse" color-interpolation-filters="sRGB"><feFlood flood-opacity="0" result="BackgroundImageFix"/><feColorMatrix in="SourceAlpha" values="0 0 0 0 0 0 0 0 0 0 0 0 0 0 0 0 0 0 127 0" result="hardAlpha"/><feOffset dx="2" dy="1"/><feGaussianBlur stdDeviation="1"/><feColorMatrix values="0 0 0 0 0 0 0 0 0 0 0 0 0 0 0 0 0 0 0.25 0"/><feBlend in2="BackgroundImageFix" result="effect1_dropShadow_8_284"/><feBlend in="SourceGraphic" in2="effect1_dropShadow_8_284" result="shape"/></filter></defs></symbol><symbol viewBox="0 0 49 59" id="icons--clipboard"><g filter="url(#bfilter0_d_8_283)"><path fill-rule="evenodd" clip-rule="evenodd" d="M17.039 1.116c-.429.137-1.265.851-1.478 1.263a2.973 2.973 0 00-.226.74l-.07.44-3.245.002c-3.182 0-3.254.006-3.783.254-.965.454-1.291.88-1.713 2.246-.842 2.722-.857 2.91-.27 3.47l.328.315h22.591l.328-.314c.53-.506.524-.8-.057-2.768-.463-1.565-.565-1.804-.953-2.227a3.754 3.754 0 00-.974-.724c-.527-.246-.608-.251-3.797-.252l-3.258-.001v-.242c-.002-.363-.47-1.278-.82-1.605-.684-.638-1.727-.877-2.603-.597zm1.61 1.114c.35.175.686.634.76 1.034l.054.296h-3.205l.07-.296c.11-.456.23-.64.608-.926.532-.401 1.063-.435 1.714-.108zM1.13 5.888c-.5.263-.714.482-.929.95C.01 7.25.002 8.157 0 29.54c-.002 19.805.016 22.318.163 22.67.214.51.44.755.934 1.006.384.195.79.203 9.892.203 5.22 0 9.475-.037 9.455-.083-.17-.39-.988-1.747-1.12-1.858-.094-.077-.978-.607-1.966-1.179l-1.796-1.039-.032-.66-.032-.661h-2.683v-9.349h-8.94V5.71l-1.211.004c-.892.003-1.298.05-1.535.175zm30.858 9.751v9.93l.857.494.856.493h2.164V7.07l-.267-.456c-.42-.714-.93-.906-2.405-.906h-1.205v9.93zm-9.047-.972c-.623.193-2.246.792-3.609 1.33-3.159 1.249-3.861 1.477-4.523 1.47-.66-.008-.955-.157-2.11-1.073-.499-.395-1.212-.864-1.587-1.041-.827-.392-1.334-.36-2.28.143-.705.375-2.507 2-2.76 2.489-.422.812.372 1.91 1.38 1.908.35 0 .457-.055 1.384-.698.384-.266.57-.322 1.067-.32.505.004.81.102 1.892.615 1.837.87 2.304.974 3.48.773 1.283-.22 2.534-.595 4.811-1.445 2.411-.9 2.87-1.01 4.147-1.006 1.14.004 1.848.163 3.274.737.516.207 1.093.377 1.283.377 1.077-.001 1.896-1.456 1.232-2.19-.32-.354-3.36-1.971-4.188-2.228-.915-.284-1.586-.247-2.893.159zm.323 7.428c-.504.138-2.2.759-3.77 1.379-2.989 1.18-4.173 1.577-4.703 1.577-.455 0-1.26-.436-2.19-1.186-.864-.697-1.572-1.107-2.113-1.223-.83-.18-1.986.423-3.447 1.798-1.02.959-1.205 1.297-1.028 1.884.186.62.657 1.005 1.304 1.067.504.048.584.02 1.11-.378.688-.524 1.223-.708 1.77-.612.226.04 1.017.352 1.757.694 1.824.843 2.205.921 3.41.698 1.23-.227 2.354-.57 4.615-1.403 2.38-.878 3.019-1.036 4.21-1.04.748-.003 1.223.065 2.006.287l1.027.29 1.354-.77c.747-.424 1.41-.736 1.478-.693.092.056.095.02.012-.133-.145-.271-3.554-2.114-4.318-2.334-.784-.227-1.39-.203-2.484.098zm4.9 4.836l-1.723 1.011-2.046.01-2.047.008-.989 1.73-.988 1.732-1.704.983-1.704.983-.03 2.017-.029 2.017-1.03 1.767-1.03 1.767 1.032 1.78 1.033 1.78.003 2.008.003 2.007 1.717.967 1.718.967.999 1.744 1 1.744 2.018.002 2.018.003 1.772 1.02L29.927 56l1.703-.994 1.703-.995 2.086-.053 2.086-.054.992-1.706.992-1.705 1.715-.988 1.715-.988.054-2.088.054-2.089.986-1.692.987-1.693-.986-1.692-.987-1.693-.054-2.08-.054-2.082-1.72-.996-1.722-.997-.987-1.704-.988-1.704-2.084-.054-2.085-.054-1.706-.994a80.176 80.176 0 00-1.723-.99c-.01.003-.793.46-1.74 1.016zM9.56 29.823c-.675.181-1.457.713-2.528 1.718-.988.928-1.203 1.339-1.008 1.928.148.45.618.906 1.062 1.033.426.122.995-.026 1.27-.329.355-.392 1.016-.66 1.611-.655.444.004.824.132 1.943.654 1.652.773 2.279.94 3.016.806l.528-.096.054-1.112.054-1.113 1.164-.675c.64-.372 1.187-.698 1.214-.725.027-.027-.57.16-1.326.418-.757.257-1.545.467-1.753.467-.533 0-1.323-.408-2.261-1.166-1.407-1.136-2.11-1.402-3.04-1.153zm26.606 4.728c.44.228 1.83 1.707 1.912 2.035.04.158.04.468-.001.69-.064.352-.667.995-4.832 5.164-2.617 2.62-4.89 4.832-5.05 4.916-.344.183-.817.198-1.236.04-.325-.123-4.376-4.067-4.893-4.764-.245-.33-.311-.533-.311-.954 0-.523.017-.552.878-1.431 1.49-1.524 1.823-1.494 3.644.33l1.238 1.24 3.555-3.533c1.956-1.943 3.676-3.611 3.822-3.708.327-.216.885-.227 1.274-.025zm-26.044 9.144c0 1.33-.012 2.418-.027 2.418-.016 0-1.118-1.088-2.45-2.418l-2.422-2.417h4.9v2.417z"/></g><defs><filter id="bfilter0_d_8_283" x="0" y="0" width="49" height="59" filterUnits="userSpaceOnUse" color-interpolation-filters="sRGB"><feFlood flood-opacity="0" result="BackgroundImageFix"/><feColorMatrix in="SourceAlpha" values="0 0 0 0 0 0 0 0 0 0 0 0 0 0 0 0 0 0 127 0" result="hardAlpha"/><feOffset dx="2" dy="1"/><feGaussianBlur stdDeviation="1"/><feColorMatrix values="0 0 0 0 0 0 0 0 0 0 0 0 0 0 0 0 0 0 0.25 0"/><feBlend in2="BackgroundImageFix" result="effect1_dropShadow_8_283"/><feBlend in="SourceGraphic" in2="effect1_dropShadow_8_283" result="shape"/></filter></defs></symbol><symbol viewBox="0 0 74 45" id="icons--delivery"><g filter="url(#cfilter0_d_8_285)"><path fill-rule="evenodd" clip-rule="evenodd" d="M12.78 1.272c-.759.376-1.003.961-1.003 2.405v1.228h-4.19c-2.304 0-4.579.074-5.055.165C1.244 5.315.242 6.404.02 7.798c-.148.931.55 2.344 1.456 2.947l.638.424 4.79.082 4.792.081.046 1.505.047 1.505H8.873c-3.918 0-4.817.304-5.537 1.871-.51 1.11-.38 2.243.387 3.379.615.91 1.03 1.007 4.652 1.096l3.32.081v3.091l-1.833.047c-1.64.04-1.899.089-2.442.45-.902.6-1.325 1.27-1.427 2.257-.106 1.039.135 1.852.737 2.477.898.932.945.948 3.006 1.034l1.96.081.08 1.953c.13 3.103.379 3.335 3.575 3.335h1.906l.182.854c.236 1.111 1.282 2.868 2.153 3.618 1.466 1.263 3.39 2.028 5.111 2.034 1.197.004 2.97-.492 3.92-1.097 1.903-1.212 2.9-2.578 3.442-4.717l.176-.692h14.333l.115.692c.276 1.661 1.774 3.714 3.435 4.708 3.118 1.865 6.96 1.298 9.481-1.4.81-.867 1.638-2.407 1.822-3.39l.108-.58 3.022-.059c2.479-.048 3.11-.108 3.508-.337.779-.446 1.153-.829 1.56-1.598.376-.707.383-.802.372-5.032-.01-3.997-.036-4.381-.36-5.26-.19-.52-.539-1.174-.772-1.453-.56-.668-1.863-1.332-3.07-1.563-1.105-.211-3.04-.885-3.596-1.25-.509-.335-.914-1.022-2.445-4.142-.725-1.476-1.543-2.958-1.818-3.293-.577-.7-1.991-1.687-2.777-1.939-.297-.095-1.833-.21-3.414-.256l-2.875-.084V6.165c0-3.6-.12-4.2-.958-4.773L47.337 1l-17.01.004c-15.38.003-17.063.029-17.546.268zm41.597 11.56c.49.286 1.084.728 1.32.983.321.346 2.147 3.83 3.026 5.774.03.067-2.174.122-4.9.122H48.87v-7.52l2.308.061c2.25.06 2.331.075 3.2.58zm-28.88 18.906c.284.082.77.352 1.08.6 1.095.878 1.206 2.923.209 3.859-.841.79-1.202.962-2.023.962-.998 0-1.691-.364-2.299-1.207-1.03-1.427-.398-3.538 1.232-4.122.759-.271 1.115-.29 1.8-.092zm29.366.018c1.507.438 2.295 2.129 1.726 3.704-.233.646-1.446 1.652-2.032 1.685-1.473.082-2.177-.251-2.876-1.364-.515-.819-.548-1.763-.094-2.657.404-.794.65-1.015 1.453-1.302.744-.267 1.09-.28 1.823-.066z"/></g><defs><filter id="cfilter0_d_8_285" x="0" y="0" width="74" height="45" filterUnits="userSpaceOnUse" color-interpolation-filters="sRGB"><feFlood flood-opacity="0" result="BackgroundImageFix"/><feColorMatrix in="SourceAlpha" values="0 0 0 0 0 0 0 0 0 0 0 0 0 0 0 0 0 0 127 0" result="hardAlpha"/><feOffset dx="2" dy="1"/><feGaussianBlur stdDeviation="1"/><feColorMatrix values="0 0 0 0 0 0 0 0 0 0 0 0 0 0 0 0 0 0 0.25 0"/><feBlend in2="BackgroundImageFix" result="effect1_dropShadow_8_285"/><feBlend in="SourceGraphic" in2="effect1_dropShadow_8_285" result="shape"/></filter></defs></symbol><symbol viewBox="0 0 70 54" id="icons--mans"><g filter="url(#dfilter0_d_8_286)"><path fill-rule="evenodd" clip-rule="evenodd" d="M6.264 1.302a5.551 5.551 0 00-2.786 2.12c-.663.982-.964 1.966-.945 3.095.046 2.794 1.928 4.97 4.714 5.45 3.07.528 6.189-1.866 6.386-4.901.068-1.049.112-1.094 1.062-1.1.718-.005 1.745-.546 2.102-1.108.458-.72.893-2.058.802-2.466-.098-.443-.497-.866-.912-.97-.178-.044-1.498.033-2.933.172-2.497.241-2.626.242-2.997.027C9.573.934 7.7.801 6.264 1.301zM51.99 2.463c-2.153.655-3.793 2.528-4.14 4.729-.543 3.452 2.242 6.682 5.763 6.682 4.356 0 7.206-4.453 5.328-8.325-1.001-2.064-2.998-3.295-5.312-3.276-.575.005-1.312.09-1.639.19zM18.515 11.2c-.52.154-1.217.855-1.36 1.369-.17.608.32 7.441.585 8.156.24.646.924 1.273 1.503 1.378.232.041 2.746.059 5.586.038l5.163-.038.436-.307c.24-.17.546-.554.681-.855.241-.539.24-.606-.025-4.339-.281-3.959-.363-4.367-.986-4.924-.657-.587-.91-.611-6.201-.6-2.754.006-5.175.061-5.382.122zM8.24 13.646c-2.903.133-3.384.273-3.978 1.16l-.347.517-.082 10.088c-.078 9.544-.19 12.83-.485 14.298-.201.999-.531 1.843-2.017 5.16C.101 47.616-.046 48.022.01 48.512c.081.714.52 1.31 1.182 1.607.607.273 1.703.316 2.233.088.973-.418 1.181-.704 2.672-3.663 1.794-3.562 2.099-4.388 3.062-8.296.423-1.716.789-3.14.812-3.162.052-.052 3.462 5.115 3.724 5.644.433.872.622 1.822.985 4.948.34 2.918.42 3.353.715 3.85.709 1.195 2.657 1.606 3.741.788.98-.738 1.007-1.042.526-5.759-.516-5.046-.438-4.744-2.786-10.807-1.47-3.796-1.665-4.392-1.665-5.071 0-.424.015-.776.032-.783.018-.007 1.833-.084 4.035-.17 4.36-.173 4.489-.197 5.148-.971.476-.56.476-1.471 0-2.03-.669-.786-.845-.823-4.257-.896-3.239-.07-3.37-.093-3.674-.653-.066-.123-.382-1.855-.701-3.849-.746-4.655-.668-4.335-1.203-4.953-.825-.952-1-.972-6.351-.728zm39.438 1.762c-.773.153-1.722.551-3.55 1.49-2.375 1.218-2.334 1.218-5.853-.075-1.911-.703-2.99-1.034-3.368-1.034-1.391 0-2.053 1.568-1.32 3.126.466.987.974 1.336 3.063 2.1 5.233 1.916 5.124 1.905 8.484.795 1.227-.406 2.258-.712 2.291-.68.033.033.06 6.31.06 13.948 0 12.247.023 13.945.2 14.361.45 1.065 1.3 1.554 2.71 1.558 1.148.004 1.893-.339 2.445-1.124l.39-.553.035-7.261.035-7.261h.769v7.15c0 6.776.012 7.173.245 7.622.518.998 1.333 1.43 2.7 1.43 1.102 0 1.854-.354 2.412-1.137l.387-.543.036-8.72.036-8.72.648-.187c1.152-.334 1.47-.646 3.013-2.955 2.499-3.74 2.457-3.66 2.453-4.705-.001-.505-.079-1.05-.174-1.228-.094-.175-1.161-1.686-2.37-3.357-1.564-2.16-2.358-3.146-2.748-3.411-1.048-.712-1.515-.76-7.279-.745-2.878.008-5.466.06-5.75.116zm13.086 7.513c.885 1.261.886 1.575.01 2.869-.359.53-.707.998-.774 1.038-.075.046-.122-.921-.122-2.51 0-1.458.048-2.532.111-2.463.062.067.41.546.775 1.066z"/></g><defs><filter id="dfilter0_d_8_286" x="0" y="0" width="70" height="54" filterUnits="userSpaceOnUse" color-interpolation-filters="sRGB"><feFlood flood-opacity="0" result="BackgroundImageFix"/><feColorMatrix in="SourceAlpha" values="0 0 0 0 0 0 0 0 0 0 0 0 0 0 0 0 0 0 127 0" result="hardAlpha"/><feOffset dx="2" dy="1"/><feGaussianBlur stdDeviation="1"/><feColorMatrix values="0 0 0 0 0 0 0 0 0 0 0 0 0 0 0 0 0 0 0.25 0"/><feBlend in2="BackgroundImageFix" result="effect1_dropShadow_8_286"/><feBlend in="SourceGraphic" in2="effect1_dropShadow_8_286" result="shape"/></filter></defs></symbol><symbol viewBox="0 0 34 34" id="icons--plus"><path d="M0 12h34v10H0z"/><path d="M22 34V0H12v34z"/><mask id="ea" style="mask-type:alpha" maskUnits="userSpaceOnUse" x="0" y="0" width="26" height="26"><circle cx="13" cy="13" r="13"/></mask><g mask="url(#ea)"><path d="M0 12h34v10H0z"/><path d="M22 34V0H12v34z"/></g></symbol></svg>