<svg width="131" height="53" viewBox="0 0 131 53" fill="none" xmlns="http://www.w3.org/2000/svg">
<path d="M129.046 52.2104C129.163 52.4609 129.46 52.5698 129.71 52.4536C129.961 52.3374 130.07 52.0401 129.954 51.7896L129.046 52.2104ZM0.454929 12.833L6.20821 13.3158L3.74968 8.09191L0.454929 12.833ZM129.954 51.7896C129.541 50.9006 129.117 50.0229 128.681 49.1566L127.788 49.6058C128.219 50.4627 128.638 51.3309 129.046 52.2104L129.954 51.7896ZM125.901 44.0405C124.91 42.3511 123.874 40.71 122.793 39.1177L121.966 39.6792C123.034 41.2533 124.059 42.8757 125.038 44.5462L125.901 44.0405ZM119.358 34.4057C118.153 32.8646 116.903 31.3757 115.611 29.9392L114.868 30.6078C116.144 32.0273 117.379 33.4987 118.57 35.0218L119.358 34.4057ZM111.568 25.743C110.167 24.3861 108.725 23.0842 107.245 21.8374L106.6 22.6022C108.063 23.8341 109.488 25.1206 110.872 26.4613L111.568 25.743ZM102.659 18.238C101.087 17.0895 99.4791 15.9978 97.8377 14.9631L97.3045 15.8091C98.9267 16.8316 100.516 17.9105 102.069 19.0454L102.659 18.238ZM92.8054 12.0246C91.0957 11.1022 89.3554 10.2374 87.5873 9.43057L87.1721 10.3403C88.9202 11.138 90.6406 11.9929 92.3306 12.9047L92.8054 12.0246ZM82.2105 7.18704C80.3974 6.49902 78.5596 5.86868 76.6998 5.29627L76.4056 6.25202C78.2452 6.8182 80.0628 7.44162 81.8557 8.12198L82.2105 7.18704ZM71.0796 3.75848C69.1968 3.30606 67.295 2.91075 65.3772 2.57279L65.2037 3.55762C67.1015 3.89205 68.9832 4.28321 70.846 4.73081L71.0796 3.75848ZM59.6147 1.73548C57.6926 1.51467 55.7574 1.34999 53.8117 1.24169L53.7562 2.24015C55.6824 2.34736 57.5981 2.51039 59.5006 2.72895L59.6147 1.73548ZM47.9886 1.0861C46.0557 1.08993 44.1151 1.14861 42.1693 1.26237L42.2277 2.26066C44.1548 2.14799 46.0766 2.08989 47.9905 2.0861L47.9886 1.0861ZM36.3707 1.76319C34.4514 1.98245 32.5295 2.2551 30.6072 2.58135L30.7746 3.56725C32.679 3.24402 34.583 2.97392 36.4842 2.75673L36.3707 1.76319ZM24.8951 3.70919C23.0106 4.13378 21.128 4.61019 19.2496 5.13866L19.5204 6.10129C21.382 5.57756 23.2475 5.10546 25.1149 4.68474L24.8951 3.70919ZM13.6909 6.85948C11.8635 7.47733 10.0423 8.1452 8.22912 8.86327L8.59733 9.79301C10.3947 9.08119 12.2 8.41919 14.0112 7.8068L13.6909 6.85948ZM128.593 52.4208C128.825 52.9218 129.42 53.1396 129.921 52.9071C130.422 52.6747 130.64 52.0802 130.407 51.5792L128.593 52.4208ZM0.454929 12.833L11.9615 13.7986L7.04442 3.35082L0.454929 12.833ZM130.407 51.5792C129.992 50.6854 129.566 49.803 129.128 48.932L127.341 49.8304C127.77 50.6826 128.187 51.5461 128.593 52.4208L130.407 51.5792ZM126.332 43.7877C125.336 42.0887 124.294 40.4384 123.207 38.8369L121.552 39.96C122.614 41.5249 123.633 43.138 124.607 44.7991L126.332 43.7877ZM119.752 34.0977C118.539 32.5475 117.282 31.0499 115.983 29.6049L114.496 30.9421C115.765 32.3531 116.992 33.8158 118.177 35.3299L119.752 34.0977ZM111.916 25.3838C110.506 24.0189 109.056 22.7092 107.567 21.455L106.278 22.9846C107.732 24.2091 109.148 25.4879 110.524 26.8205L111.916 25.3838ZM102.954 17.8342C101.373 16.679 99.7553 15.5808 98.1044 14.5401L97.0378 16.232C98.6504 17.2485 100.23 18.321 101.774 19.4491L102.954 17.8342ZM93.0428 11.5845C91.3233 10.6568 89.573 9.78713 87.7948 8.97569L86.9645 10.7952C88.7026 11.5883 90.4131 12.4383 92.0932 13.3447L93.0428 11.5845ZM82.3878 6.71956C80.5647 6.02772 78.7168 5.39392 76.8469 4.81839L76.2585 6.7299C78.088 7.29296 79.8954 7.91291 81.6783 8.58945L82.3878 6.71956ZM71.1964 3.27232C69.3035 2.81749 67.3918 2.4201 65.464 2.08038L65.1169 4.05004C67.0048 4.38271 68.8764 4.77178 70.7292 5.21697L71.1964 3.27232ZM59.6718 1.23875C57.7399 1.01681 55.7949 0.851303 53.8395 0.742464L53.7284 2.73938C55.6449 2.84605 57.5508 3.00824 59.4435 3.22568L59.6718 1.23875ZM47.9876 0.586103C46.0452 0.58995 44.0953 0.648914 42.1402 0.76322L42.2569 2.75981C44.1746 2.64769 46.087 2.58987 47.9915 2.5861L47.9876 0.586103ZM36.314 1.26643C34.3857 1.48671 32.4547 1.76063 30.5236 2.0884L30.8582 4.06021C32.7538 3.73848 34.6488 3.46966 36.541 3.2535L36.314 1.26643ZM24.7852 3.22142C22.8921 3.64794 21.0011 4.12651 19.1142 4.65734L19.6559 6.5826C21.509 6.06125 23.366 5.59129 25.2248 5.17251L24.7852 3.22142ZM13.5307 6.38582C11.6953 7.00641 9.86605 7.6772 8.04501 8.39839L8.78143 10.2579C10.5709 9.54919 12.3682 8.89012 14.1713 8.28045L13.5307 6.38582Z" fill="#F0F0F0"/>
</svg>
