<svg width="31" height="31" viewBox="0 0 31 31" fill="none" xmlns="http://www.w3.org/2000/svg">
<path d="M28.5917 19.2751C28.1671 19.2751 27.8229 19.6192 27.8229 20.0439V26.87C27.8214 28.1434 26.7899 29.1752 25.5165 29.1764H3.94461C2.67128 29.1752 1.6397 28.1434 1.6382 26.87V6.83573C1.6397 5.56269 2.67128 4.53081 3.94461 4.52931H10.7708C11.1954 4.52931 11.5396 4.18515 11.5396 3.7605C11.5396 3.33616 11.1954 2.9917 10.7708 2.9917H3.94461C1.82259 2.9941 0.102988 4.7137 0.100586 6.83573V26.8703C0.102988 28.9923 1.82259 30.7119 3.94461 30.7144H25.5165C27.6385 30.7119 29.3581 28.9923 29.3605 26.8703V20.0439C29.3605 19.6192 29.0164 19.2751 28.5917 19.2751Z" fill="white"/>
<path d="M29.0561 1.01334C27.705 -0.337779 25.5145 -0.337779 24.1634 1.01334L10.4474 14.7293C10.3534 14.8233 10.2855 14.9398 10.2501 15.0678L8.44639 21.5795C8.37221 21.8465 8.44759 22.1324 8.6434 22.3285C8.8395 22.5243 9.1254 22.5997 9.39238 22.5258L15.9041 20.7218C16.032 20.6864 16.1486 20.6185 16.2426 20.5245L29.9582 6.80821C31.3072 5.45619 31.3072 3.2675 29.9582 1.91548L29.0561 1.01334ZM12.1225 15.229L23.348 4.00327L26.9683 7.62356L15.7425 18.8493L12.1225 15.229ZM11.3994 16.6802L14.2917 19.5728L10.2909 20.6812L11.3994 16.6802ZM28.8711 5.72107L28.0557 6.53642L24.4351 2.91583L25.2508 2.10048C26.0013 1.34999 27.2182 1.34999 27.9687 2.10048L28.8711 3.00262C29.6204 3.75401 29.6204 4.96998 28.8711 5.72107Z" fill="white"/>
</svg>
