<svg width="31" height="31" viewBox="0 0 31 31" fill="none" xmlns="http://www.w3.org/2000/svg">
<path d="M24.091 18.6109C23.476 17.9705 22.7341 17.6281 21.9478 17.6281C21.1679 17.6281 20.4197 17.9642 19.7792 18.6046L17.7755 20.602C17.6107 20.5132 17.4458 20.4308 17.2873 20.3483C17.059 20.2342 16.8434 20.1264 16.6595 20.0123C14.7826 18.8202 13.0769 17.2667 11.441 15.2566C10.6484 14.2548 10.1158 13.4114 9.72897 12.5554C10.2489 12.0799 10.7308 11.5853 11.2001 11.1097C11.3776 10.9322 11.5551 10.7483 11.7327 10.5707C13.0643 9.23915 13.0643 7.51444 11.7327 6.18286L10.0016 4.4518C9.80506 4.25524 9.60216 4.05233 9.41193 3.84942C9.03148 3.45629 8.63201 3.05047 8.21985 2.67002C7.60479 2.0613 6.86925 1.73792 6.09566 1.73792C5.32208 1.73792 4.57386 2.0613 3.93977 2.67002C3.93343 2.67636 3.93343 2.67636 3.92709 2.6827L1.7712 4.85762C0.959569 5.66925 0.496686 6.65842 0.395232 7.80612C0.243052 9.65765 0.788365 11.3824 1.20686 12.511C2.23408 15.282 3.76857 17.85 6.05762 20.602C8.83491 23.9182 12.1765 26.537 15.9937 28.3822C17.4521 29.0733 19.3988 29.8913 21.5737 30.0308C21.7069 30.0372 21.8464 30.0435 21.9732 30.0435C23.4379 30.0435 24.668 29.5172 25.6318 28.471C25.6382 28.4583 25.6509 28.4519 25.6572 28.4393C25.9869 28.0398 26.3674 27.6784 26.7669 27.2916C27.0395 27.0316 27.3185 26.7589 27.5912 26.4736C28.2189 25.8205 28.5486 25.0596 28.5486 24.2797C28.5486 23.4934 28.2126 22.7388 27.5721 22.1047L24.091 18.6109ZM26.361 25.2879C26.3547 25.2879 26.3547 25.2942 26.361 25.2879C26.1137 25.5542 25.8601 25.7951 25.5875 26.0614C25.1753 26.4546 24.7568 26.8667 24.3637 27.3296C23.7232 28.0144 22.9687 28.3378 21.9795 28.3378C21.8844 28.3378 21.7829 28.3378 21.6878 28.3315C19.8046 28.211 18.0545 27.4755 16.742 26.8477C13.153 25.1103 10.0016 22.6437 7.38286 19.5177C5.22062 16.9116 3.77491 14.5021 2.81744 11.915C2.22774 10.3361 2.01215 9.10599 2.10726 7.94561C2.17067 7.20373 2.45601 6.58867 2.9823 6.06238L5.14453 3.90015C5.45524 3.60847 5.78496 3.44995 6.10834 3.44995C6.50782 3.44995 6.8312 3.6909 7.03411 3.89381C7.04045 3.90015 7.04679 3.90649 7.05313 3.91283C7.43992 4.27426 7.80769 4.64837 8.19449 5.04784C8.39105 5.25075 8.59396 5.45366 8.79687 5.66291L10.5279 7.39396C11.2001 8.06609 11.2001 8.68749 10.5279 9.35963C10.344 9.54351 10.1665 9.72739 9.98261 9.90494C9.44998 10.4503 8.94271 10.9575 8.39105 11.4521C8.37837 11.4648 8.36569 11.4711 8.35935 11.4838C7.81403 12.0291 7.91549 12.5618 8.02962 12.9232C8.03596 12.9422 8.04231 12.9612 8.04865 12.9803C8.49885 14.0709 9.13293 15.0981 10.0967 16.3219L10.1031 16.3282C11.8532 18.4841 13.6984 20.1644 15.7338 21.4516C15.9937 21.6165 16.2601 21.7497 16.5137 21.8765C16.742 21.9906 16.9576 22.0984 17.1414 22.2125C17.1668 22.2252 17.1922 22.2442 17.2175 22.2569C17.4331 22.3647 17.636 22.4154 17.8453 22.4154C18.3716 22.4154 18.7013 22.0857 18.8091 21.9779L20.9777 19.8094C21.1932 19.5938 21.5356 19.3338 21.9351 19.3338C22.3283 19.3338 22.6516 19.5811 22.8482 19.7967C22.8545 19.803 22.8545 19.803 22.8609 19.8094L26.3547 23.3032C27.0078 23.9499 27.0078 24.6157 26.361 25.2879Z" fill="white"/>
<path d="M16.5834 7.14637C18.2447 7.42537 19.7538 8.21163 20.9586 9.4164C22.1633 10.6212 22.9433 12.1303 23.2286 13.7916C23.2984 14.2101 23.6598 14.5018 24.0719 14.5018C24.1227 14.5018 24.1671 14.4954 24.2178 14.4891C24.687 14.413 24.9977 13.9691 24.9216 13.4999C24.5792 11.4899 23.6281 9.65735 22.176 8.20529C20.724 6.75324 18.8915 5.80211 16.8814 5.4597C16.4122 5.38361 15.9747 5.69431 15.8922 6.1572C15.8098 6.62008 16.1142 7.07028 16.5834 7.14637Z" fill="white"/>
<path d="M30.3557 13.2528C29.7914 9.94283 28.2315 6.93092 25.8347 4.53408C23.4378 2.13724 20.4259 0.577387 17.116 0.0130504C16.6531 -0.0693807 16.2156 0.247662 16.1332 0.710545C16.0571 1.17977 16.3678 1.61729 16.837 1.69972C19.7918 2.20065 22.4867 3.60198 24.6299 5.73884C26.7731 7.88205 28.1681 10.5769 28.669 13.5318C28.7388 13.9503 29.1002 14.2419 29.5124 14.2419C29.5631 14.2419 29.6075 14.2356 29.6582 14.2293C30.1211 14.1595 30.4381 13.7156 30.3557 13.2528Z" fill="white"/>
</svg>
