<svg width="35" height="22" viewBox="0 0 35 22" fill="none" xmlns="http://www.w3.org/2000/svg">
<path d="M34.9909 0.638905C34.9932 0.625701 34.9973 0.612497 34.9984 0.599294C35.0025 0.558583 34.9979 0.517322 34.9926 0.476061C34.9915 0.465608 34.9932 0.455706 34.9915 0.445253C34.981 0.390788 34.9617 0.337424 34.9332 0.286261C34.9285 0.277458 34.9221 0.269206 34.9169 0.260404C34.9157 0.259304 34.9157 0.257653 34.9151 0.256002C34.9145 0.254902 34.9128 0.254352 34.9122 0.252702C34.9081 0.24665 34.9046 0.240048 34.9005 0.234547C34.8644 0.184484 34.8207 0.143222 34.7718 0.108013C34.7607 0.100311 34.7479 0.0959098 34.7362 0.0887579C34.6931 0.0618007 34.6476 0.0397947 34.5987 0.0249408C34.5771 0.018339 34.5556 0.0150383 34.5334 0.0111873C34.4909 0.00293512 34.4483 -0.000916158 34.4041 0.000184135C34.3807 0.000734282 34.3586 0.00183448 34.3353 0.00513536C34.3201 0.00733595 34.3056 0.00513564 34.2904 0.00843653L0.464956 6.608C0.224286 6.65531 0.0401417 6.83961 0.00576031 7.06957C-0.0286211 7.29953 0.0931707 7.52509 0.310531 7.63347L10.0026 12.4599L11.7024 21.3651C11.7013 21.3717 11.703 21.3789 11.7024 21.3855C11.6966 21.4295 11.696 21.4724 11.7018 21.5159C11.7048 21.5379 11.7077 21.5588 11.7135 21.5802C11.7269 21.6325 11.7485 21.6815 11.7776 21.7277C11.7834 21.7365 11.7834 21.7469 11.7898 21.7557C11.7916 21.7585 11.7945 21.7607 11.7968 21.7629C11.8044 21.7733 11.8149 21.7816 11.8236 21.792C11.851 21.824 11.8796 21.8531 11.9122 21.8779C11.9175 21.8817 11.921 21.8878 11.9268 21.8916C11.9355 21.8977 11.9454 21.8993 11.9542 21.9048C11.9897 21.9268 12.0264 21.945 12.0655 21.9593C12.0812 21.9648 12.0958 21.9714 12.1121 21.9758C12.1645 21.9901 12.2187 22 12.2735 22C12.2741 22 12.2747 22 12.2753 22C12.2776 22 12.2799 21.9989 12.2823 21.9989C12.2922 21.9995 12.3021 22 12.312 22C12.4734 22 12.6191 21.9318 12.7269 21.8267L19.183 17.7633L25.9427 21.9114C26.0383 21.9697 26.149 22 26.2603 22C26.3215 22 26.3839 21.9906 26.4439 21.9719C26.6117 21.9191 26.7457 21.797 26.8069 21.6397L34.9629 0.740132C34.9705 0.721427 34.9769 0.702171 34.9821 0.682366C34.9845 0.674114 34.985 0.665862 34.9868 0.65816C34.9885 0.652108 34.9897 0.645506 34.9909 0.638905ZM28.2416 4.15049L14.2601 13.8556C14.2373 13.8716 14.2193 13.8914 14.1995 13.9101C14.1919 13.9167 14.1843 13.9222 14.1779 13.9293C14.1657 13.942 14.1546 13.9547 14.1435 13.9684C14.133 13.9816 14.1249 13.9954 14.1155 14.0091C14.094 14.0421 14.0759 14.0762 14.0619 14.1125C14.059 14.1197 14.0543 14.1252 14.052 14.1324C14.0514 14.1346 14.0491 14.1357 14.0485 14.1379L12.446 19.0545L11.1762 12.4027L28.2416 4.15049ZM13.3492 20.113L14.9378 15.1595L17.4109 16.6773L18.1183 17.1114L15.7151 18.6238L13.3492 20.113ZM30.3278 1.90534L10.5305 11.4784L2.29067 7.37545L30.3278 1.90534ZM25.966 20.6136L16.989 15.1056L15.6295 14.271L33.2013 2.07314L25.966 20.6136Z" fill="white"/>
</svg>
