<svg width="32" height="32" viewBox="0 0 32 32" fill="none" xmlns="http://www.w3.org/2000/svg">
<path d="M30.8893 13.584H30.0869V8.16582C30.0869 6.89472 29.0854 5.89326 27.8785 5.89326H27.275V2.27256C27.275 1.00147 26.3378 0 25.2015 0C25.2015 0 25.1373 0 25.0667 0L2.17414 5.88684C2.16772 5.88684 2.15488 5.89326 2.14846 5.89326C1.0186 5.98313 0.100586 6.9525 0.100586 8.16582V29.1838C0.100586 30.4549 1.10205 31.4564 2.30895 31.4564H27.8785C29.1496 31.4564 30.1511 30.4549 30.1511 29.1838V23.6244H30.8893C31.2938 23.6244 31.557 23.3548 31.557 22.9567V14.2581C31.557 13.8536 31.2231 13.584 30.8893 13.584ZM25.3299 1.27109C25.6637 1.33529 25.9975 1.73973 25.9975 2.27256V5.88684H7.52814L25.3299 1.27109ZM28.8158 29.1838C28.8158 29.7166 28.4113 30.1853 27.8785 30.1853H2.30895C1.77612 30.1853 1.37168 29.7166 1.37168 29.1838V8.16582C1.37168 7.63299 1.77612 7.16435 2.30895 7.16435H27.8079C28.3407 7.16435 28.7451 7.63299 28.7451 8.16582V13.584H22.12C19.3082 13.584 17.0999 15.7924 17.0999 18.6042C17.0999 21.416 19.3724 23.6244 22.12 23.6244H28.8158V29.1838ZM30.2153 22.3533H22.12C20.1107 22.3533 18.4416 20.6778 18.4416 18.6748C18.4416 16.6719 20.1171 14.9963 22.12 14.9963H30.2153V22.3533Z" fill="white"/>
<path d="M21.3818 18.7393C21.3818 19.1437 21.7157 19.4069 22.0495 19.4069H22.6529C22.9868 19.4069 23.3206 19.1373 23.3206 18.7393C23.3206 18.3349 22.9868 18.0717 22.6529 18.0717H22.0559C21.6515 18.0717 21.3818 18.3413 21.3818 18.7393Z" fill="white"/>
</svg>
