<svg id="SvgjsSvg1001" width="288" height="288" xmlns="http://www.w3.org/2000/svg" version="1.1" xmlns:xlink="http://www.w3.org/1999/xlink" xmlns:svgjs="http://svgjs.com/svgjs"><defs id="SvgjsDefs1002"></defs><g id="SvgjsG1008" transform="matrix(1,0,0,1,0,0)"><svg xmlns="http://www.w3.org/2000/svg" enable-background="new 0 0 24 24" viewBox="0 0 24 24" width="288" height="288"><path d="M15.5,18c0.8,0,1.5,0.7,1.5,1.5c0,0.8-0.7,1.5-1.5,1.5c-0.8,0-1.5-0.7-1.5-1.5C14,18.7,14.7,18,15.5,18z M9,19.5	c0,0.8,0.7,1.5,1.5,1.5s1.5-0.7,1.5-1.5S11.3,18,10.5,18S9,18.7,9,19.5z M0,3l0.7,2h1.9l3.5,12h13.2L24,6H7.2l2.5,9H7.6L4.2,3
	C4.2,3,0,3,0,3z" fill="#ffffff" class="color000 svgShape"></path></svg></g></svg>
