<?xml version="1.0" encoding="utf-8"?>
<!-- Generator: Adobe Illustrator 24.1.0, SVG Export Plug-In . SVG Version: 6.00 Build 0)  -->
<svg version="1.1"
	 id="svg2" xmlns:cc="http://creativecommons.org/ns#" xmlns:dc="http://purl.org/dc/elements/1.1/" xmlns:rdf="http://www.w3.org/1999/02/22-rdf-syntax-ns#" xmlns:svg="http://www.w3.org/2000/svg"
	 xmlns="http://www.w3.org/2000/svg" xmlns:xlink="http://www.w3.org/1999/xlink" x="0px" y="0px" viewBox="0 0 635 123"
	 style="enable-background:new 0 0 635 123;" xml:space="preserve">
<style type="text/css">
	.st0{fill-rule:evenodd;clip-rule:evenodd;fill:#FFFFFF;stroke:#FFFFFF;stroke-width:0.5669;}
	.st1{fill-rule:evenodd;clip-rule:evenodd;fill:#FFFFFF;}
</style>
<g id="g4">
	<path id="path230" class="st0" d="M259.8,41.8c-0.8,0-1.6-0.1-2.3,0c-0.8,0.1-1.6,0.3-2.4,0.6c-1,0.3-2,0.7-2.9,1.4
		c-1.1,0.8-1.9,1.8-2.5,3c-0.3,0.6-0.6,1.2-0.7,1.9c-0.1,1.2-0.2,2.4,0.2,3.5c0.3,0.8,0.8,1.5,1.6,2c0.3,0.2,0.8,0.2,1.2,0.2
		c0.4,0,0.8-0.2,1.1-0.3c0.7-0.3,1.4-0.6,2.1-0.9c1.1-0.5,2.1-0.4,3.2,0.2c1.4,0.8,2.1,2,2.6,3.4c0.7,2,0,3.7-1.2,5.2
		c-0.4,0.6-1,0.9-1.7,1.2c-0.9,0.4-1.8,0.8-2.8,0.6c-0.8-0.2-1.6-0.4-2.4-0.7c-1.2-0.4-2.1-1.2-2.9-2.2c-0.8-1-1.4-2.1-2-3.2
		c-0.9-1.8-1.1-3.8-1.2-5.7c-0.2-2.2,0.1-4.3,0.8-6.4c0.4-1.2,1-2.5,1.6-3.6c0.6-1.1,1.4-2,2.3-2.9c1-1,2.1-1.8,3.3-2.5
		c1.3-0.7,2.7-1.2,4.1-1.4c0.5-0.1,0.9-0.2,1.4-0.3c0.8-0.2,1.6-0.3,2.5-0.2c0.9,0.1,1.9,0,2.8,0.1c0.8,0.1,1.5,0.2,2.3,0.3
		c0.1,0,0.2,0,0.3,0c3.2,0,6.5,0.1,9.7,0c0.7,0,1.4-0.2,2-0.3c1-0.2,2.1-0.4,3.1-0.9c1.4-0.7,2.8-1.4,4-2.5c0.8-0.8,1.6-1.7,2.1-2.8
		c0.8-1.5,1.3-3,1.5-4.7c0.1-1.4,0.2-2.8-0.1-4.2c-0.5-2.8-1.8-5.1-4.5-6.3c-1.1-0.5-2.1-0.5-3.1,0.5c-0.6,0.6-1,1.3-1.4,2.1
		c-0.5,1.1-1.1,2.1-2.1,2.8c-1,0.8-2.2,1.3-3.5,0.9c-1.1-0.3-1.9-1-2.5-2c-0.8-1.4-0.7-2.9-0.2-4.4c0.6-1.7,1.7-3,3-4.1
		c0.9-0.7,2-1.2,3.3-1.4c1.3-0.1,2.5-0.2,3.8,0c0.8,0.1,1.5,0.5,2.2,0.9c1.2,0.5,2.2,1.3,3.1,2.2c0.9,0.8,1.5,1.7,2.2,2.6
		c1.4,1.8,2,3.9,2.6,6c0.4,1.4,0.6,2.9,0.6,4.4c0,2-0.3,3.9-0.9,5.8c-0.3,1.1-0.6,2.1-1.1,3.1c-0.6,1.2-1.2,2.3-2.1,3.3
		c-0.2,0.2-0.4,0.5-0.6,0.8c-1.1,1.3-2.5,2.3-4,3.2c-1.5,0.9-3.1,1.6-4.7,2.2c-0.8,0.3-1.8,0.4-2.7,0.5c-0.6,0.1-1.1,0.2-1.7,0.3
		c-0.6,0.2-1.3,0.2-2,0.2c-0.3,0-0.5,0-0.8,0c-0.3,0-0.5,0.2-0.5,0.5c-0.1,0.5-0.1,0.9,0.2,1.3c0.3,0.4,0.6,0.8,0.9,1.2
		c0.6,0.8,1.1,1.6,1.5,2.4c0.9,1.8,1.5,3.8,2,5.7c0.4,2,0.9,4.1,0.7,6.2c-0.1,0.6,0,1.3,0,1.9c0,0.9,0,1.8-0.1,2.7
		c-0.1,1.1-0.2,2.2-0.5,3.3c-0.3,1.4-0.7,2.8-1.1,4.1c-0.6,1.9-1.4,3.9-2.4,5.6c-0.6,1-1.2,2.1-1.8,3.1c-0.4,0.6-0.8,1.2-1.3,1.7
		c-1.3,1.4-2.7,2.7-4.1,4c-2.1,1.9-4.6,2.9-7.2,4c-2.1,0.9-4.3,1.5-6.6,2.1c-0.7,0.2-1.5,0.2-2.2,0.3c-1.3,0.1-2.7,0.2-4,0.3
		c-0.9,0-1.7,0.1-2.6,0c-1.7-0.1-3.3-0.2-5-0.4c-2.5-0.3-4.9-1-7.2-2c-1.8-0.7-3.5-1.6-5.1-2.5c-1.2-0.7-2.2-1.6-3.3-2.5
		c-0.4-0.3-0.8-0.6-1.1-0.9c-1.1-1.1-2.3-2.2-3.2-3.4c-1-1.3-1.8-2.7-2.6-4c-0.6-1-1.1-2.1-1.6-3.2c-0.3-0.6-0.5-1.1-0.7-1.7
		c-0.3-0.8-0.6-1.6-0.8-2.4c-0.5-1.9-1-3.8-1.2-5.8c-0.1-1.4-0.1-2.8-0.1-4.2c0-1.7,0-3.5,0.2-5.2c0.1-1.1,0.4-2.1,0.6-3.1
		c0.1-0.4,0.2-0.8,0.3-1.2c0.5-2,1.1-4.1,2.3-5.9c0.4-0.6,0.7-1.3,1.1-1.9c0.7-1,1.4-1.9,2.2-2.9c0.5-0.6,1.2-1.2,1.8-1.8
		c0.4-0.4,0.8-0.9,0.9-1.6c0-0.4,0-0.8-0.2-1.2c-1.1-2.3-1.7-4.8-2-7.3c-0.2-1.7-0.1-3.4,0.2-5.1c0.1-0.9,0.2-1.7,0.3-2.6
		c0.2-0.7,0.5-1.4,0.7-2.2c0.2-0.7,0.4-1.3,0.7-2c0.5-1.2,1.1-2.4,2-3.4c0.6-0.6,1.1-1.3,1.7-1.9c1.3-1.3,2.7-2.3,4.4-3
		c0.6-0.2,1.1-0.5,1.7-0.7c0.6-0.2,1.3-0.3,2-0.4c0.5-0.1,1-0.1,1.5-0.1c1.4,0.1,2.9-0.2,4.2,0.5c1.2,0.5,2.4,1.2,3.1,2.3
		c0.5,0.7,1.1,1.5,1.3,2.4c0.3,1.3-0.1,2.4-0.9,3.3c-0.4,0.5-0.9,1-1.6,1.1c-0.8,0.1-1.6,0-2.3-0.4c-1.3-0.6-2.3-1.7-3.4-2.5
		c-1.8-1.2-3.7-1.8-5.9-1.2c-2.6,0.7-4.5,2.3-5.7,4.7c-0.3,0.6-0.6,1.1-0.8,1.7c-0.4,1-0.6,2-0.7,3c0,1-0.2,2-0.1,3
		c0,1.6,0.2,3.3,0.8,4.8c0.5,1.2,1.2,2.4,2.2,3.4c0.4,0.4,0.8,0.7,1.3,0.7c0.2,0,0.5,0,0.7-0.1c0.7-0.2,1.5-0.4,2.2-0.6
		c0.9-0.2,1.8,0,2.6,0.2c1.9,0.4,3.2,1.5,4.1,3.2c1.4,2.5,0.2,5.5-1.9,6.6c-0.5,0.3-1,0.5-1.6,0.7c-0.9,0.4-1.8,0.2-2.7-0.1
		c-1.9-0.8-3.6-1.7-5-3.2c-0.4-0.4-0.9-0.6-1.3-0.9c-0.1-0.1-0.3-0.1-0.5,0c-0.6,0.2-1,0.6-1.4,1c-0.9,1-1.7,2-2.5,3
		c-0.1,0.1-0.1,0.1-0.1,0.2c-1,1.8-1.8,3.8-2,5.9c-0.1,0.9-0.3,1.7-0.3,2.6c-0.1,2.2-0.1,4.4,0.3,6.5c0.4,2.4,1.2,4.6,2,6.9
		c0.2,0.7,0.7,1.3,1.1,1.9c0.7,1.1,1.3,2.1,2,3.1c0.4,0.6,0.9,1.1,1.3,1.6c1.5,1.7,3.2,3.3,5,4.7c0.7,0.5,1.5,1,2.2,1.5
		c1.1,0.7,2.3,1.4,3.5,2c0.9,0.4,1.8,0.7,2.8,1c0.6,0.2,1.3,0.5,1.9,0.7c0.9,0.2,1.7,0.4,2.6,0.5c2,0.3,3.9,0.6,5.9,0.7
		c1,0.1,2-0.1,3.1-0.2c0.5,0,1-0.1,1.4-0.1c0.8-0.1,1.6-0.1,2.4-0.3c1.2-0.2,2.5-0.4,3.7-0.8c1.5-0.4,3.1-1,4.5-1.8
		c0.8-0.5,1.6-0.9,2.3-1.4c1.6-1,3.1-2.2,4.3-3.7c0.6-0.8,1.3-1.5,1.9-2.3c0.5-0.6,0.9-1.3,1.2-1.9c1.1-2.1,2-4.4,2.5-6.8
		c0.4-2.2,0.6-4.4,0.7-6.7c0-0.6-0.1-1.2-0.2-1.8c-0.1-0.9-0.3-1.8-0.4-2.7c-0.2-1.4-0.7-2.8-1.2-4.1c-1.1-2.5-2.7-4.5-5-6.1
		c-1.1-0.7-2.3-1.1-3.5-1.5C263,41.7,261.4,41.7,259.8,41.8L259.8,41.8z"/>
	<path id="path232" class="st1" d="M62.6,92.9c-8.8-0.3-17.5-0.4-26.1-0.4c-9.1,0-18.1,0.1-26.9,0.4c-0.6,0-0.9-0.5-0.9-1.4
		c0-0.9,0.3-1.4,0.9-1.5c2.4-0.3,3.9-0.6,4.6-0.8c1-0.4,1.7-1.2,2.2-2.2c0.9-1.7,1.3-6.8,1.3-15.3V29.8c0-5.9-0.1-9.6-0.2-11.2
		c-0.1-1.5-0.4-2.8-1-4c-0.5-1-1.3-1.7-2.7-2.1c-0.6-0.2-2.1-0.4-4.5-0.7c-0.6-0.1-1-0.6-1-1.5c0-1.1,0.3-1.6,1-1.6
		c0.3,0,2.8,0.1,7.4,0.3c2.7,0.1,4.9,0.2,6.6,0.2c1.8,0,4.4-0.1,7.6-0.2c3.4-0.1,5.6-0.2,6.5-0.2c0.7,0,1.1,0.5,1.1,1.6
		c0,0.9-0.3,1.3-0.9,1.5c-2.6,0.3-4.1,0.6-4.7,0.8c-1,0.3-1.8,1-2.2,2c-0.7,1.7-1.1,6.7-1.1,15.2v41.9c0,7.7,0.4,12.3,1.3,14
		c0.8,1.5,2.2,2.4,4.1,2.9c1.2,0.2,2.9,0.4,5.4,0.4c6.7,0,12.3-1.9,16.8-5.9c2.5-2.3,5-6.1,7.7-11.5c0.3-0.6,0.6-0.8,0.9-0.8
		c0.1,0,0.4,0.1,0.8,0.2c0.7,0.2,1,0.6,1,1.1c0,0.1,0,0.3,0,0.5C66.5,79,64.8,85.8,62.6,92.9L62.6,92.9z M95.4,38.5
		c7.1,0,12.9,3,17.4,9.1c3.8,5.3,5.8,11.6,5.8,19c0,8.5-2.4,15.4-7.2,20.8c-4.3,4.8-9.6,7.2-16,7.2c-7.2,0-13-3-17.4-9.1
		c-3.7-5.1-5.6-11.4-5.6-18.8c0-8.5,2.4-15.5,7.3-21C83.9,40.9,89.1,38.5,95.4,38.5L95.4,38.5z M95.4,41.9c-3.9,0-6.9,2.7-8.9,8.1
		c-1.7,4.4-2.5,9.9-2.5,16.7c0,8,1.1,14.2,3.2,18.6c2,4,4.7,6,8.3,6c3.9,0,6.9-2.7,9-8.1c1.7-4.4,2.6-9.9,2.6-16.5
		c0-8.2-1.1-14.4-3.2-18.7C101.7,43.9,99,41.9,95.4,41.9L95.4,41.9z M142.9,45.1v30.5c0,6.9,0.3,11,0.8,12.2
		c0.5,1.1,2.7,1.9,6.6,2.3c0.5,0.1,0.8,0.6,0.8,1.3c0,0.9-0.3,1.4-0.8,1.4c-0.9,0-2.3-0.1-4.2-0.1c-3.9-0.2-6.6-0.2-8-0.2
		c-0.3,0-4.3,0.1-12,0.3c-0.7,0-1-0.5-1-1.4c0-0.8,0.3-1.3,1-1.3c3.4-0.3,5.3-1.1,5.8-2.3c0.6-1.3,0.9-5.4,0.9-12.2V58.8
		c0-6.4,0-10.9-0.1-13.5c-2.1,0-4.9,0.1-8.3,0.3c-0.4,0-0.6-0.3-0.6-0.8l0.8-3.4c0.1-0.4,0.4-0.7,1-0.7c1.8,0.1,4.2,0.1,7.1,0.1
		l-0.1-5.9c0-8.6,2.7-16.3,8.2-23.1C145,6.7,150.1,4,156.1,4c3.9,0,5.9,1.2,5.9,3.7c0,2.7-0.5,5-1.6,6.8c-0.9,1.4-1.8,2.1-2.8,2.1
		c-1,0-1.9-0.3-2.5-0.9c-0.3-0.2-0.9-0.9-1.6-2c-1.8-2.3-3.1-3.4-3.9-3.4c-0.1,0-0.2,0-0.2,0c-3,0.6-4.8,4.6-5.6,12.1
		c-0.4,3.8-0.6,9.9-0.6,18.4c4,0,8-0.1,12.1-0.3c0.4,0,0.7,0.2,0.7,0.7l-0.9,3.5c-0.1,0.5-0.4,0.8-0.8,0.8
		C151.6,45.2,147.9,45.1,142.9,45.1L142.9,45.1z M165.4,45.2l-6.3,0.1c-0.7,0-1.1-0.5-1.1-1.6c0-1,0.4-1.5,1.2-1.6
		c3.2-0.5,6.1-2.2,8.7-5c2.2-2.2,3.9-5,5.1-8.2c0.2-0.8,0.8-1.1,1.7-1.1c0.9,0,1.4,0.4,1.4,1.1c-0.2,7.5-0.3,11.4-0.3,11.8
		c5.2,0,9.8-0.1,14-0.3c0.3,0,0.4,0.2,0.4,0.5c0,0.1,0,0.2,0,0.3l-1.1,3.4c-0.1,0.5-0.4,0.8-1,0.8c-4.9-0.3-9.1-0.4-12.6-0.4
		l-0.2,29.5c0,6,0.6,10,1.9,11.9c1.4,2.1,3.2,3.1,5.4,3.1c2.1,0,4.2-1,6.3-3.1c0.2-0.2,0.4-0.3,0.6-0.3c0.3,0,0.7,0.2,1,0.6
		c0.4,0.5,0.6,0.9,0.6,1.2c0,0.3-0.1,0.6-0.4,1c-3.4,4-7.4,6-12,6c-4.6,0-8-1.3-10.4-3.9C166.1,88,165,83.7,165,78
		c0-3.2,0.1-8.7,0.2-16.3L165.4,45.2L165.4,45.2z"/>
	<path id="path234" class="st1" d="M359,10.1c0.4,5.7,0.8,12.3,1.5,19.7c0,0.1,0,0.2,0,0.3c0,0.7-0.3,1.1-0.9,1.3
		c-0.2,0-0.4,0-0.5,0c-0.3,0-0.6-0.3-0.9-1c-2.6-6.5-5.2-11.2-7.9-14.2c-3.3-3.5-7-5.3-11.2-5.3c-6.9,0-12.5,4-16.8,12
		c-3.8,7.1-5.7,16.1-5.7,26.8c0,11.2,2.5,20.3,7.4,27.4c4.3,6.1,9.5,9.2,15.5,9.2c9.3,0,16.5-5.2,21.6-15.7c0.1-0.4,0.4-0.5,0.6-0.5
		c0.2,0,0.6,0.2,1.1,0.5c0.5,0.3,0.8,0.7,0.8,1.2c0,0.2-0.1,0.5-0.2,0.8c-5.8,13.7-14.4,20.5-25.8,20.5c-10.4,0-18.7-4.5-25-13.6
		c-5.5-7.9-8.2-17.7-8.2-29.5c0-13.4,3.6-24.2,10.7-32.3C321.4,10.6,329,7,338,7c3.6,0,7.3,0.6,11.1,1.8c3.1,1,5.5,1.5,7.1,1.5
		C357.2,10.3,358.1,10.2,359,10.1L359,10.1z M388.6,38c6.3,0,11.5,3,15.4,8.9c3.4,5.1,5.1,11.4,5.1,18.7c0,8.3-2.1,15.1-6.3,20.4
		c-3.8,4.7-8.5,7.1-14.2,7.1c-6.4,0-11.5-3-15.5-8.9c-3.3-5-5-11.1-5-18.4c0-8.3,2.1-15.2,6.4-20.6C378.4,40.4,383,38,388.6,38
		L388.6,38z M388.6,41.4c-3.5,0-6.1,2.6-7.9,7.9c-1.5,4.3-2.2,9.7-2.2,16.3c0,7.9,1,13.9,2.8,18.2c1.8,3.9,4.2,5.9,7.3,5.9
		c3.5,0,6.1-2.7,8-8c1.5-4.3,2.3-9.7,2.3-16.2c0-8-1-14.1-2.8-18.3C394.2,43.3,391.7,41.4,388.6,41.4z M430.3,48.7
		c3.2-7.2,7.7-10.8,13.6-10.8c2.9,0,5.6,1.1,8,3.2c3.2,2.8,4.8,7.2,4.8,13l-0.1,12.6v7.8c0,6.7,0.2,10.7,0.7,12
		c0.3,0.8,0.9,1.4,1.7,1.7c0.4,0.2,1.4,0.3,2.9,0.5c0.5,0.1,0.7,0.6,0.7,1.3c0,0.8-0.2,1.3-0.7,1.3c0,0-1.8-0.1-5.2-0.2
		c-1.8-0.1-3.2-0.1-4.3-0.1c-1.3,0-3,0-5.3,0.1c-2.7,0.2-4.2,0.2-4.8,0.2c-0.5,0-0.7-0.4-0.7-1.3c0-0.9,0.2-1.3,0.7-1.3
		c1.5-0.1,2.5-0.3,3-0.5c0.7-0.3,1.2-0.8,1.5-1.6c0.5-1.2,0.7-5.2,0.7-12V59.1c0-4.5-0.4-7.7-1.1-9.7c-1.3-3.8-3.4-5.7-6.4-5.7
		c-1.6,0-3.2,0.7-4.8,2.1c-1.3,1.2-2.3,2.6-3.1,4.4c-1.2,2.7-1.8,5.7-1.8,9.1v15.3c0,7,0.2,11,0.5,12c0.4,0.8,1,1.4,1.8,1.7
		c0.4,0.1,1.3,0.3,3,0.5c0.5,0.1,0.8,0.5,0.8,1.3c0,0.8-0.3,1.3-0.8,1.3c-0.7,0-1.8-0.1-3.2-0.1c-2.9-0.2-4.9-0.2-6.2-0.2
		c-1.3,0-3.1,0-5.3,0.1c-2.7,0.2-4.3,0.2-4.8,0.2c-0.4,0-0.6-0.4-0.6-1.3c0-0.8,0.2-1.2,0.6-1.3c1.7-0.2,2.8-0.4,3.2-0.6
		c0.7-0.2,1.2-0.8,1.5-1.5c0.4-1.1,0.6-5,0.6-12V57.8c0-5-0.2-8.1-0.6-9.5c-0.5-1.6-1.3-2.4-2.4-2.4c-0.1,0-0.3,0-0.4,0l-2.4,0.2
		c-0.2,0-0.3,0-0.4,0c-0.5,0-0.8-0.4-0.8-1.3c0-0.2,0-0.3,0-0.5c0-0.6,0.4-1,1.1-1.2c4.5-1.1,9.1-2.8,13.9-5c0.7,0,1,0.3,1,0.9
		C430.4,41.2,430.3,44.5,430.3,48.7L430.3,48.7z M487.6,38c4.1,0,7.7,0.9,10.7,2.6c2.3,1.2,3.5,3,3.5,5.4c0,5-1.3,7.4-3.9,7.4
		c-1.7,0-3.4-2.3-5.3-7c-1.3-3.2-2.9-4.7-4.6-4.7c-3.5,0-6.2,2.5-8,7.5c-1.5,4.2-2.2,9.6-2.2,16.2c0,7.4,1.5,13.1,4.4,17.3
		c2.3,3.2,4.9,4.9,7.8,4.9c2.7,0,4.9-0.7,6.7-2.1c1.5-1.2,3-3.1,4.5-5.8c0.2-0.4,0.4-0.7,0.7-0.7c0.2,0,0.5,0.2,0.8,0.5
		c0.5,0.3,0.7,0.7,0.7,1.1c0,0.2,0,0.4-0.1,0.7c-3.6,7.9-8.9,11.9-15.9,11.9c-6.3,0-11.4-2.9-15.1-8.6c-3.2-5-4.8-11.2-4.8-18.6
		c0-8.4,2.2-15.3,6.5-20.8C477.8,40.4,482.4,38,487.6,38L487.6,38z M518.1,61.3c-0.2,1.4-0.4,2.8-0.4,4.1c0,7.4,1.6,13.2,4.8,17.6
		c2.4,3.2,5,4.9,7.8,4.9c3,0,5.4-0.7,7.4-2.2c1.6-1.2,3.2-3.2,4.8-6c0.2-0.4,0.5-0.5,0.9-0.5c0.2,0,0.4,0.2,0.8,0.4
		c0.5,0.5,0.7,0.9,0.7,1.2c0,0.2-0.1,0.6-0.4,1.2c-2.1,4.2-4.6,7.2-7.5,8.9c-2.4,1.5-5.4,2.3-8.8,2.3c-6.4,0-11.5-2.9-15.4-8.7
		c-3.3-5-4.9-11.1-4.9-18.4c0-8.3,2.1-15.2,6.4-20.7c3.8-4.8,8.5-7.2,13.9-7.2c5.5,0,10,2.8,13.3,8.4c2.4,4,3.6,8.2,3.8,12.6
		c0,0.7-0.1,1.4-0.4,1.9c-0.2,0.4-0.7,0.5-1.3,0.5c-5.9-0.2-11.5-0.3-16.9-0.3C523.6,61.2,520.7,61.2,518.1,61.3L518.1,61.3z
		 M518.5,57.2c2.9,0.1,5.1,0.1,6.5,0.1c3.1,0,6.4-0.2,9.9-0.5c0.5-0.1,0.8-0.7,0.8-1.8c-0.2-4-0.9-7.2-2.2-9.8
		c-1.3-2.6-3.1-3.9-5.3-3.9c-2.5,0-4.6,1.7-6.5,5C520.2,49.2,519.1,52.8,518.5,57.2L518.5,57.2z M564.5,87.4v11.2
		c0,8.6,0.3,13.6,0.9,14.9c0.4,1,2.1,1.8,5.2,2.1c0.5,0.1,0.8,0.5,0.8,1.2c0,1-0.2,1.5-0.8,1.5c-4.5-0.2-7.9-0.2-10.4-0.2
		c-2.6,0-6.1,0.1-10.6,0.2c-0.5,0-0.7-0.5-0.7-1.4c0-0.8,0.2-1.2,0.7-1.3c2.9-0.4,4.5-1.1,4.8-2.1c0.6-1.6,0.9-6.6,0.9-14.9v-41
		c0-4.5-0.2-7.6-0.6-9.3c-0.4-1.6-1.2-2.4-2.5-2.4c-0.1,0-0.3,0-0.4,0l-2.5,0.2c-0.1,0-0.2,0-0.3,0c-0.4,0-0.6-0.4-0.7-1.3
		c0-0.2,0-0.3,0-0.5c0-0.6,0.3-1,0.8-1.2c5.4-1.5,10.2-3.2,14.5-5.1c0.6,0,0.9,0.3,0.9,1.1c-0.1,4.2-0.2,6.9-0.2,7.9
		c1.5-3.2,3.5-5.6,6-7.3c1.9-1.3,3.7-1.9,5.4-1.9c6.4,0,11.3,2.9,14.8,8.7c3,4.9,4.4,11.1,4.4,18.7c0,9.1-2,16.1-6.1,21.1
		c-3.6,4.5-8.4,6.7-14.3,6.7C570.8,93.1,567.4,91.2,564.5,87.4L564.5,87.4z M573.7,43.4c-3,0-5.6,1.9-7.8,5.8
		c-0.8,1.5-1.2,3-1.4,4.6c-0.1,0.6-0.1,2.1-0.1,4.5v14.9c0,4.4,0.5,7.6,1.5,9.9c1.9,4.4,4.6,6.6,7.9,6.6c3.5,0,6.3-2.5,8.2-7.7
		c1.7-4.3,2.5-9.8,2.5-16.6c0-7.3-1.2-12.9-3.4-16.9C579.2,45.1,576.7,43.4,573.7,43.4L573.7,43.4z M606.1,44.6l-5.6,0.1
		c-0.7,0-1-0.5-1-1.6c0-1,0.4-1.5,1.1-1.5c2.9-0.5,5.5-2.1,7.7-4.9c2-2.2,3.5-4.9,4.5-8.1c0.2-0.7,0.7-1.1,1.5-1.1
		c0.8,0,1.2,0.4,1.2,1.1c-0.2,7.3-0.2,11.2-0.2,11.5c4.6,0,8.7-0.1,12.4-0.3c0.3,0,0.4,0.2,0.4,0.5c0,0.1,0,0.2,0,0.3l-1,3.3
		c-0.1,0.5-0.4,0.8-0.8,0.8c-4.3-0.3-8.1-0.4-11.1-0.4l-0.2,28.9c0,5.9,0.6,9.8,1.7,11.7c1.2,2,2.8,3,4.8,3c1.9,0,3.7-1,5.6-3
		c0.2-0.2,0.3-0.3,0.5-0.3c0.3,0,0.6,0.2,0.9,0.6c0.4,0.5,0.6,0.9,0.6,1.2c0,0.3-0.1,0.6-0.4,0.9c-3,3.9-6.6,5.9-10.6,5.9
		c-4,0-7.1-1.3-9.2-3.9c-2-2.8-3-7-3-12.6c0-3.2,0.1-8.5,0.2-16L606.1,44.6L606.1,44.6z"/>
</g>
</svg>
