<?xml version="1.0" encoding="utf-8"?>
<!-- Generator: Adobe Illustrator 24.1.0, SVG Export Plug-In . SVG Version: 6.00 Build 0)  -->
<svg version="1.1" id="SvgjsSvg1001" xmlns:svgjs="http://svgjs.com/svgjs"
	 xmlns="http://www.w3.org/2000/svg" xmlns:xlink="http://www.w3.org/1999/xlink" x="0px" y="0px" viewBox="0 0 25.8 25.8"
	 style="enable-background:new 0 0 25.8 25.8;" xml:space="preserve">
<style type="text/css">
	.st0{fill-rule:evenodd;clip-rule:evenodd;fill:#F3F3F3;}
</style>
<g id="SvgjsG1008" transform="matrix(1,0,0,1,0,0)">
	<path class="st0" d="M12.9,1.9c-6.3,0-12,4.2-12,10c0,2.1,0.7,4.1,2,5.6l-2,6.4l6.9-3c1.7,0.4,3.3,0.6,4.9,0.6
		c7.2,0,12.1-4.4,12.1-9.6C24.9,6.1,19.2,1.9,12.9,1.9z M12.9,2.9c6.1,0,11,4,11,9c0,4.9-4.8,8.6-11.1,8.6c-1.9,0-3.4-0.3-4.9-0.7
		l-5.3,2.3L4,17.3c-1.3-1.6-2.2-3.1-2.2-5.4C1.9,6.9,6.8,2.9,12.9,2.9z M7.9,10.4c0.8,0,1.5,0.7,1.5,1.5s-0.7,1.5-1.5,1.5
		s-1.5-0.7-1.5-1.5S7.1,10.4,7.9,10.4z M12.9,10.4c0.8,0,1.5,0.7,1.5,1.5s-0.7,1.5-1.5,1.5s-1.5-0.7-1.5-1.5S12.1,10.4,12.9,10.4z
		 M17.9,10.4c0.8,0,1.5,0.7,1.5,1.5s-0.7,1.5-1.5,1.5s-1.5-0.7-1.5-1.5S17.1,10.4,17.9,10.4z"/>
</g>
</svg>
