<svg width="50" height="58" viewBox="0 0 50 58" fill="none" xmlns="http://www.w3.org/2000/svg">
<path opacity="0.4" d="M36.3183 3.60898C36.5183 6.35545 36.5588 7.28122 36.616 10.4139L36.6422 12.075L37.0863 11.6225L37.5329 11.1586L37.5054 10.1165C37.482 9.27783 37.5365 8.80122 37.7835 7.81808C37.9555 7.1285 38.2822 5.66228 38.5193 4.55793C38.7589 3.44219 38.952 2.54276 38.97 2.57045C38.979 2.58429 38.9843 3.39531 38.9873 4.38447C38.9908 6.37417 38.7149 8.32772 38.2232 9.78234C38.0609 10.2596 37.941 10.6507 37.9639 10.6556C37.9753 10.6581 38.1051 10.555 38.2423 10.4177C38.4399 10.2219 38.6111 9.75844 38.9397 8.50697C39.4222 6.705 39.4035 6.7367 40.8598 5.02468C41.2418 4.58267 41.4417 4.20875 41.6236 3.64038C41.944 2.64921 42.0006 3.05439 41.7285 4.37751C41.4882 5.55263 41.1179 6.49737 40.447 7.6158C40.1606 8.11406 39.928 8.52862 39.937 8.54246C39.946 8.5563 40.4335 8.29176 41.0321 7.95578C42.0348 7.40884 46.5451 5.45925 46.6105 5.54475C46.6669 5.61641 43.6868 8.07317 42.8025 8.68127C41.9574 9.27398 40.6728 9.79614 39.4167 10.0743C38.7519 10.2174 38.0031 10.6402 37.9469 10.9021C37.9322 10.9704 38.1715 10.9146 38.4875 10.78C39.523 10.3592 40.5603 10.1531 41.8361 10.1174C43.1234 10.0841 45.0471 10.1517 45.4474 10.2376C45.708 10.3055 41.4691 11.1581 40.1942 11.3012C39.7163 11.3535 38.9265 11.4102 38.4242 11.4095L37.511 11.4278L36.9208 12.1705C36.5919 12.5882 36.3511 12.9295 36.3854 12.9369C36.4197 12.9443 37.336 12.6884 38.423 12.3621C39.5101 12.0357 40.7645 11.7095 41.2105 11.6385C42.0378 11.5184 47.3029 11.2911 47.3544 11.3855C47.3814 11.427 44.1766 12.1443 41.3246 12.723C40.699 12.8507 39.237 13.0847 38.0559 13.236C35.9373 13.5196 35.5894 13.6354 35.4614 14.1201C35.4443 14.1998 36.1222 14.1071 36.9618 13.9301C39.1539 13.4718 39.7232 13.4392 41.9646 13.5869C44.1832 13.7297 45.2327 13.6335 47.7637 13.0455C48.5576 12.8586 49.2338 12.718 49.2682 12.7253C49.3025 12.7327 48.9146 12.9234 48.4115 13.1488C47.2233 13.6679 45.8791 14.0224 44.3443 14.205C43.6803 14.2887 42.5557 14.5118 41.8582 14.6955C40.0672 15.1804 37.6911 15.3253 35.5632 15.0947L34.8027 15.0148L34.4427 15.5211C34.2371 15.8104 34.0983 16.0665 34.1139 16.1056C34.1433 16.1357 35.3971 16.0357 36.9065 15.8595C40.0077 15.513 41.3383 15.5009 43.5962 15.7951C44.4572 15.9085 45.9504 16.0862 46.9078 16.1965C48.8086 16.4259 48.9026 16.4342 48.8193 16.4878C48.7915 16.5056 47.568 16.5764 46.1083 16.6322C44.6487 16.6881 42.8861 16.7622 42.1836 16.802C40.2004 16.9002 37.8562 16.8971 35.7266 16.7853C34.6492 16.7326 33.7042 16.7322 33.6184 16.7972C33.438 16.9132 32.2986 18.598 32.3436 18.6672C32.3616 18.6949 33.6724 18.4404 35.2642 18.1033C36.8446 17.7637 38.7231 17.4286 39.4329 17.3547C40.5469 17.2366 48.6278 17.2684 48.6973 17.3905C48.7422 17.4597 42.0848 18.3767 38.8341 18.7506C37.2144 18.9388 34.9821 19.1384 33.8713 19.1858C32.0466 19.2704 31.8236 19.3059 31.6759 19.5481C31.5845 19.6952 31.3013 20.1227 31.0507 20.5096L30.601 21.211L31.3165 21.055C31.7077 20.9603 32.994 20.6529 34.1586 20.3551C37.7628 19.4496 38.5371 19.3538 42.3565 19.3402C43.8407 19.3372 45.6622 19.3234 46.4169 19.3187C47.1602 19.3115 47.7933 19.3164 47.8112 19.3441C47.8292 19.3718 47.3024 19.485 46.6335 19.5915C45.976 19.7004 44.1367 20.0201 42.5686 20.3027C38.0896 21.1038 36.3384 21.3471 33.1301 21.6349L30.1399 21.91L29.5262 22.8739C29.1956 23.4104 28.928 23.8769 28.9574 23.9071C28.9729 23.9461 30.8719 23.6273 33.1645 23.2025C37.1861 22.47 37.3813 22.4524 39.0436 22.5115C40.8569 22.5912 41.6312 22.4954 45.5025 21.683C48.0074 21.1608 48.3202 21.0969 48.3105 21.1425C48.3056 21.1653 47.8768 21.3233 47.3631 21.487C46.8584 21.6644 46.0173 21.9602 45.5191 22.1629C44.2762 22.6583 42.9384 23.0381 41.3858 23.3598C40.6614 23.502 39.8994 23.7076 39.6732 23.8138C38.8492 24.1967 37.4788 24.6171 36.3542 24.8401C34.9951 25.0962 33.5837 25.1504 30.6652 25.036C29.4889 24.9978 28.4524 24.9777 28.3511 25.0036C28.2612 25.032 27.9511 25.418 27.663 25.8682C27.1521 26.6875 27.1521 26.6875 27.4208 26.6618C27.5654 26.6571 29.6015 26.3678 31.9456 26.0374C36.2385 25.4346 36.7253 25.3962 39.9461 25.5517C40.5629 25.577 42.2186 25.6109 43.6292 25.616C45.0374 25.6325 46.2047 25.6568 46.2202 25.6959C46.2382 25.7236 46.0177 25.7477 45.7146 25.766C44.7508 25.7972 41.3326 26.171 40.1165 26.3744C39.459 26.4833 38.3148 26.7974 37.5725 27.0787C34.8587 28.1277 33.373 28.2494 26.7819 27.9658C26.438 27.9515 26.3776 28.01 25.9296 28.7594C25.6668 29.2032 25.453 29.586 25.4734 29.6023C25.4914 29.63 26.0125 29.599 26.6464 29.5445C28.5021 29.3712 30.7491 29.2701 31.8428 29.3024C32.3999 29.3268 34.1333 29.556 35.692 29.8192C38.0103 30.2216 38.6883 30.2958 39.3703 30.2397C40.5645 30.1388 42.3 29.6896 43.7275 29.1148C44.4102 28.8326 44.9908 28.6357 45.0064 28.6748C45.1503 28.8962 42.3003 30.3567 40.8793 30.79C39.4722 31.2144 38.5541 31.2555 36.4996 31.0168C34.1887 30.747 33.1996 30.7847 31.852 31.21C30.9145 31.5089 29.9449 31.4556 27.3455 30.969L24.9062 30.5167L24.2044 31.7238C23.8217 32.3919 23.5157 32.9813 23.5264 33.0431C23.5436 33.1302 24.3799 33.0239 30.107 32.205C33.2532 31.7609 34.5601 31.8033 39.5308 32.5013C41.6074 32.8042 43.322 33.0652 43.3424 33.0815C43.3898 33.1393 43.3645 33.1458 41.2122 33.1958C39.0003 33.2449 36.8849 33.4577 33.9013 33.9248C29.5406 34.6202 29.1069 34.6343 25.1827 34.2443C23.9778 34.1166 22.951 34.051 22.9094 34.0778C22.7935 34.172 21.9277 35.8084 21.9612 35.8751C21.9792 35.9028 24.1371 35.6038 26.7433 35.2225C32.0596 34.4226 32.0343 34.4291 34.9071 34.5337C36.0466 34.5759 38.3582 34.6196 40.0213 34.6194C41.6957 34.6216 43.1293 34.6316 43.1864 34.6439C43.2526 34.67 42.591 34.7424 41.7252 34.8185C37.7181 35.1492 35.1731 35.5794 33.6052 36.1955C30.5199 37.4149 28.9713 37.6064 23.5165 37.4357L21.0929 37.3561L20.5592 38.3372C20.263 38.881 20.0484 39.3232 20.0713 39.3281C20.0942 39.3331 20.8831 39.169 21.833 38.9799C24.4392 38.4318 25.2592 38.3458 27.5137 38.3773C31.3805 38.4214 31.5545 38.4469 36.6537 39.494C39.6231 40.0958 41.1965 40.4574 40.9302 40.4717C40.7007 40.482 39.9059 40.3947 39.1781 40.2742C36.7609 39.8862 34.6674 39.9965 31.3621 40.6804C28.5812 41.2624 26.1038 41.2664 20.5573 40.7426C19.2307 40.6245 19.2446 40.6156 18.8775 41.4895L18.7119 41.8708L19.7762 41.873C20.352 41.8657 21.8068 41.8326 22.9977 41.8025C26.2355 41.7116 27.0009 41.7687 30.2391 42.3448C31.8524 42.6317 34.0458 42.9477 35.1159 43.0346C37.0061 43.2022 40.3846 43.4035 41.011 43.3832C41.1785 43.3834 41.2929 43.408 41.2512 43.4348C41.1263 43.5151 36.8921 43.8447 36.0801 43.8371C35.1146 43.8204 33.2091 43.9472 31.5135 44.1548C27.6216 44.6174 25.7534 44.5141 20.589 43.5482C19.1954 43.2966 18.0419 43.0966 18.0141 43.1145C17.9749 43.1299 16.9917 44.9792 16.9746 45.0589C16.9721 45.0703 17.3674 45.0122 17.8526 44.9258C18.3402 44.828 19.25 44.7137 19.8863 44.6479L21.0347 44.5371L24.3285 45.2443C27.8053 45.9908 29.8574 46.5743 33.7095 47.9134C36.9038 49.028 37.024 49.1372 34.5397 48.6157C32.5702 48.2048 31.741 48.1101 28.9719 47.9682C27.8349 47.9146 21.1078 46.8157 18.6374 46.2853C16.5216 45.8311 16.5331 45.8335 16.1422 46.5952C15.8925 47.0895 15.8493 47.235 15.9637 47.2596C16.0438 47.2768 16.9913 47.2658 18.0768 47.2249C20.0159 47.1649 20.0755 47.1658 21.7012 47.5624C23.5875 48.027 23.8996 48.1892 25.2726 49.4844C26.0792 50.2412 28.0685 52.4548 28.6726 53.2633L28.9497 53.6444L28.5983 53.3308C28.4078 53.1589 27.5465 52.3785 26.6966 51.6005C24.5775 49.6568 24.2817 49.4742 22.795 49.155C21.88 48.9585 21.3393 48.9139 20.5037 48.9608C19.5374 49.0034 19.187 48.9639 17.38 48.576L15.3442 48.1389L15.1321 48.5698C15.0097 48.8055 14.8351 49.1729 14.72 49.3745C14.6164 49.5786 14.5242 49.7851 14.5168 49.8192C14.5095 49.8534 14.9171 49.9052 15.4146 49.9286C16.8473 49.998 19.1388 50.5257 20.2606 51.0405C21.4918 51.6026 21.7231 51.807 22.2742 52.8067C22.8767 53.9008 23.0272 54.1474 23.3729 54.5432L23.6598 54.8788L23.2308 54.5365C21.9683 53.5628 20.6144 52.9029 19.2191 52.6034C18.6244 52.4757 17.5125 52.0821 16.2282 51.5444C15.0991 51.0638 14.1334 50.7135 14.0779 50.7492C13.9644 50.832 12.038 54.7894 11.4066 56.2259C11.1961 56.7048 11.0027 57.1039 10.9749 57.1218C10.8917 57.1754 10.3738 55.7422 10.413 55.56C10.4423 55.4234 13.7912 49.187 14.1193 48.662C14.1943 48.5352 13.8651 48.4526 11.9772 48.1068C10.3067 47.8077 9.39664 47.5885 8.39421 47.2423C5.6884 46.304 5.5495 46.2266 2.84795 44.0983C1.48818 43.0203 0.380898 42.1037 0.390675 42.0581C0.398009 42.024 0.489506 42.0436 0.582657 42.1113C1.48556 42.6981 5.73099 44.9912 6.29715 45.1961C6.69666 45.3414 7.99068 45.6669 9.19154 45.9247C11.1472 46.3446 11.5173 46.4598 12.9495 47.0888C13.8254 47.4674 14.546 47.7889 14.5574 47.7913C14.6032 47.8012 15.1866 46.6997 15.2208 46.5403C15.2379 46.4606 13.8838 45.3005 12.2086 43.9642C10.5449 42.6304 8.83205 41.1908 8.42014 40.7688C7.98781 40.3306 6.89414 38.9048 5.89031 37.4507C4.92488 36.0405 3.49517 34.0066 2.70882 32.9326C0.55491 29.981 0.517281 29.8777 2.25579 31.9779C3.36901 33.3126 4.65937 34.4352 6.98411 36.0896C8.98854 37.5085 9.89816 38.4541 13.609 43.0143L15.7578 45.6552L16.174 44.887C16.409 44.4611 16.6677 43.9807 16.7754 43.8132C16.8717 43.6433 16.9517 43.4938 16.9565 43.471C16.9639 43.4369 14.325 40.9052 12.8883 39.5725C10.7423 37.5872 9.29477 35.8592 8.59729 34.4827C7.94476 33.1755 5.73836 28.2951 5.76036 28.1926C5.77014 28.1471 6.67916 29.4856 7.77624 31.1741L9.78645 34.2378L12.0933 36.0313C14.718 38.0716 15.3375 38.7525 16.6751 40.9929C17.1149 41.7304 17.513 42.328 17.5547 42.3012C17.6657 42.2298 18.8857 40.0026 18.9435 39.7887C18.9851 39.5951 17.448 38.3957 15.0023 36.6916C13.7432 35.8138 12.2044 34.5664 11.5367 33.8871C11.2605 33.6134 10.3581 32.4669 9.51044 31.344C8.66524 30.2098 7.28059 28.4118 6.43215 27.3483C4.32007 24.7035 4.11979 24.4104 5.4291 25.8348C6.66813 27.1965 8.04833 28.2908 10.3591 29.7874C12.5767 31.2163 13.6824 32.2516 17.4004 36.4442C18.5193 37.6968 19.4763 38.7002 19.5294 38.6759C19.6446 38.641 20.1709 37.6941 20.1121 37.6338C19.9764 37.4856 17.3032 34.9465 16.3446 34.0618C14.7175 32.5572 13.3191 31.1017 12.7469 30.3119C12.4788 29.9447 11.9041 28.9995 11.4765 28.2051C10.3048 26.0837 8.82501 23.5031 7.50303 21.3017C6.86124 20.2231 6.35435 19.352 6.38866 19.3594C6.43441 19.3692 6.92323 20.0458 7.48565 20.8812C8.75926 22.7505 9.96555 23.9861 12.7023 26.2292C14.3089 27.5507 15.4033 28.9171 18.607 33.6662L20.6678 36.7169L21.1566 35.8334C21.4292 35.344 21.6927 34.8408 21.7335 34.7067C21.7955 34.5294 21.4751 34.1272 20.0563 32.6554C17.9543 30.4652 17.9183 30.4099 15.7235 27.4257C14.7704 26.1253 13.7217 24.7687 13.3801 24.4096C12.6225 23.5919 10.25 21.3794 8.43585 19.7989C7.70118 19.1529 7.12095 18.6234 7.13728 18.603C7.28997 18.5048 17.2014 26.3376 18.1543 27.3044C19.1367 28.3014 21.0212 31.5048 21.8064 33.5313C21.9152 33.8048 22.0337 34.0327 22.0795 34.0425C22.1481 34.0573 23.4195 31.7577 23.4708 31.5186C23.4855 31.4503 22.8806 30.7011 22.114 29.8696C17.2282 24.4854 16.4916 23.2911 14.7849 18.0893C13.6117 14.5264 12.7114 11.308 12.8944 11.3473C12.9173 11.3522 13.363 12.3412 13.8815 13.5482C14.6028 15.2037 15.1825 16.2929 16.2584 18.0245C17.0424 19.2766 18.178 21.1759 18.7716 22.2562C19.7552 24.0275 23.8598 30.3754 24.0542 30.4172C24.1343 30.4344 25.2132 28.6413 25.1543 28.581C24.9533 28.3473 20.448 22.8066 19.7802 21.9606C18.6726 20.5437 17.5395 18.633 17.0765 17.3903C16.8769 16.871 16.1718 15.0285 15.4905 13.2982C14.8206 11.5703 14.1818 9.92061 14.0754 9.63576L13.8873 9.11897L14.1129 9.4056C14.2371 9.55137 15.0268 10.7213 15.8794 11.9882C16.7206 13.2526 18.3809 15.7171 19.5621 17.4595C21.7987 20.7504 22.7234 22.2947 24.4838 25.6859C25.0496 26.784 25.5557 27.7144 25.608 27.7495C25.6489 27.7821 25.9223 27.4001 26.2063 26.9132L26.7204 26.0232L24.9723 22.7418C21.8792 16.9208 21.7107 16.4796 20.8729 12.5244C20.5814 11.1517 20.1425 9.12804 19.9001 8.02794C19.2189 4.90419 19.2025 4.92451 20.1856 7.25553C20.5504 8.1199 21.5964 10.5478 22.5091 12.6493C24.4482 17.1031 25.1312 18.8814 26.1637 22.152C26.5753 23.4671 26.9787 24.709 27.0449 24.9018L27.1685 25.2738L27.9838 23.9839L28.7967 22.7054L27.2258 19.5455C24.9469 14.9473 24.9624 14.9864 23.8919 9.55192C23.507 7.61133 23.1777 5.96854 23.1557 5.90424C23.1311 5.85134 23.1409 5.8058 23.1752 5.81316C23.2667 5.83281 26.9792 15.1216 27.4832 16.5637C27.7261 17.2709 28.204 18.7789 28.533 19.9214C28.8619 21.0639 29.1826 21.9665 29.252 21.9218C29.3769 21.8415 30.4298 20.281 30.4616 20.133C30.4738 20.0761 29.8284 18.4012 29.0383 16.3974C28.2343 14.4026 27.5366 12.5258 27.4719 12.2142C27.4072 11.9026 27.2726 10.8018 27.1601 9.76529C27.0477 8.7288 26.8229 6.82259 26.6474 5.52247C26.4694 4.23372 26.3349 3.13294 26.3471 3.07602C26.3569 3.03048 26.5271 3.68635 26.7244 4.55049C27.2427 6.81745 27.7803 8.49306 28.8035 11.0828C29.8071 13.5969 30.3161 15.3497 30.7036 17.6125C30.8511 18.4302 30.9863 19.138 31.0222 19.1934C31.0623 19.2854 32.3185 17.6138 32.3625 17.4088C32.3723 17.3633 31.9827 15.9458 31.4868 14.2434C30.7347 11.6165 30.5898 10.9542 30.5206 9.77217C30.4801 9.01316 30.3681 7.25027 30.2832 5.8624C30.1869 4.47209 30.1471 3.32019 30.1748 3.30233C30.2026 3.28447 30.2624 3.61888 30.328 4.03789C30.5322 5.5943 30.8982 7.23307 31.6848 10.2008C32.4369 12.9943 32.5393 13.5761 32.8619 16.5871C32.8759 16.7449 33.8245 15.6147 33.8782 15.3642C33.888 15.3187 33.4297 13.7196 32.8561 11.8219C32.177 9.57994 31.8258 8.20637 31.8485 7.87776C31.859 7.60609 31.7798 6.13607 31.6507 4.61963C31.5331 3.10564 31.4549 1.90976 31.4908 1.96513C31.6813 2.30378 33.1552 8.98009 33.5878 11.4788C33.8648 13.0865 34.1139 14.5454 34.1483 14.7195C34.2154 15.0197 34.2293 15.0108 34.7656 14.3518L35.3043 13.6814L34.6632 10.8164C34.2055 8.82448 34.0032 7.64959 33.9987 6.94595C33.9992 6.38629 33.9544 5.09041 33.922 4.07111C33.8782 3.04935 33.8548 2.21066 33.8712 2.19034C33.9659 2.13922 34.997 8.81576 35.2089 10.8383C35.3435 12.1058 35.4919 13.1977 35.514 13.262C35.55 13.3173 35.7565 13.1354 35.9712 12.8599L36.3565 12.3471L36.0167 10.8093C35.4484 8.16234 35.3687 7.25199 35.5982 5.68152C35.7023 4.91782 35.8445 3.53107 35.8979 2.61357C35.9538 1.68468 36.0261 0.902239 36.0653 0.886836C36.093 0.868977 36.2031 2.0836 36.3183 3.60898Z" fill="#5E6E47"/>
</svg>
