<svg width="55" height="55" viewBox="0 0 55 55" fill="none" xmlns="http://www.w3.org/2000/svg">
<circle cx="27.5" cy="27.5" r="27.5" fill="#FFF494"/>
<path d="M39.5573 22.2787H19.3934C18.5785 22.2787 17.918 22.9392 17.918 23.7541V40.9672C17.918 41.7821 18.5785 42.4426 19.3934 42.4426H39.5573C40.3722 42.4426 41.0327 41.7821 41.0327 40.9672V23.7541C41.0327 22.9392 40.3722 22.2787 39.5573 22.2787Z" fill="#FF9E50"/>
<path fill-rule="evenodd" clip-rule="evenodd" d="M15.9508 17.3607H41.5265C42.3403 17.3607 43 18.0224 43 18.8404V26.2088C43 27.026 42.3376 27.6885 41.5198 27.6885H21.7573C20.8603 27.6885 19.9633 26.7049 19.0663 26.7049H15.9508V17.3607Z" fill="#FF9E50"/>
<path d="M39.0656 17.3607H13.4918C13.2202 17.3607 13 17.5808 13 17.8525V25.2295C13 25.5011 13.2202 25.7213 13.4918 25.7213H39.0656C39.3372 25.7213 39.5574 25.5011 39.5574 25.2295V17.8525C39.5574 17.5808 39.3372 17.3607 39.0656 17.3607Z" stroke="#2B2D2B" stroke-width="1.96721"/>
<path fill-rule="evenodd" clip-rule="evenodd" d="M25.6531 16.735C25.6531 16.735 25.5701 13.1745 24.6098 12.2142C23.6495 11.2539 22.0925 11.2539 21.1322 12.2142C20.1719 13.1745 20.1719 14.7315 21.1322 15.6918C22.0925 16.6521 25.6531 16.735 25.6531 16.735Z" stroke="#2B2D2B" stroke-width="1.96721"/>
<path fill-rule="evenodd" clip-rule="evenodd" d="M27.0638 17.1723C27.0638 17.1723 27.1857 12.5296 28.4414 11.2738C29.6972 10.018 31.7273 10.012 32.9757 11.2604C34.2241 12.5088 34.2181 14.5389 32.9623 15.7946C31.7065 17.0504 27.0638 17.1723 27.0638 17.1723Z" stroke="#2B2D2B" stroke-width="1.96721"/>
<path d="M37.0984 39H15.4591C15.1875 39 14.9673 38.7798 14.9673 38.5082V26.2131C14.9673 25.9415 15.1875 25.7213 15.4591 25.7213H37.0984C37.37 25.7213 37.5902 25.9415 37.5902 26.2131V38.5082C37.5902 38.7798 37.37 39 37.0984 39Z" stroke="#2B2D2B" stroke-width="1.96721"/>
<path d="M33.9016 33.0983V35.5573" stroke="white" stroke-width="1.47541" stroke-linecap="round" stroke-linejoin="round"/>
<path d="M33.9016 29.1639V29.6557" stroke="white" stroke-width="1.47541" stroke-linecap="round" stroke-linejoin="round"/>
</svg>
