<svg width="57" height="69" viewBox="0 0 57 69" fill="none" xmlns="http://www.w3.org/2000/svg">
<g filter="url(#filter0_d_107_34)">
<path fill-rule="evenodd" clip-rule="evenodd" d="M20.292 2.13277C19.8014 2.28957 18.8438 3.10799 18.5996 3.57923C18.502 3.7674 18.3858 4.14868 18.3413 4.42657L18.2602 4.93178L14.5445 4.93301C10.9003 4.93412 10.8169 4.93978 10.2119 5.22395C9.10627 5.74343 8.73287 6.23276 8.24931 7.79576C7.28466 10.9135 7.26789 11.1295 7.93944 11.7714L8.31605 12.1314H21.2524H34.1887L34.5653 11.7714C35.1717 11.1918 35.1647 10.8549 34.4993 8.60188C33.9696 6.80873 33.8525 6.53515 33.4078 6.05148C33.1337 5.75365 32.632 5.38037 32.2928 5.22198C31.6891 4.94027 31.5968 4.93412 27.9445 4.93301L24.2129 4.93178L24.2117 4.65487C24.21 4.23926 23.6747 3.19155 23.2725 2.81606C22.4899 2.08551 21.2959 1.8118 20.292 2.13277ZM22.137 3.40877C22.5368 3.60963 22.9223 4.13477 23.0064 4.59333L23.0686 4.93178H21.2329H19.3973L19.4784 4.59333C19.6037 4.07016 19.7422 3.85921 20.1746 3.53258C20.7831 3.07304 21.392 3.03464 22.137 3.40877ZM2.07036 7.59811C1.49885 7.89939 1.25337 8.15045 1.00715 8.68544C0.789549 9.15803 0.780421 10.1971 0.77783 34.6881C0.775363 57.3708 0.796087 60.2487 0.964839 60.6517C1.2097 61.2363 1.46925 61.5158 2.03459 61.8036C2.47349 62.0271 2.93929 62.0367 13.3628 62.0367C19.3417 62.0367 24.215 61.994 24.1923 61.9417C23.9984 61.4938 23.0609 59.94 22.9083 59.8137C22.802 59.7256 21.7891 59.118 20.6575 58.4633L18.6002 57.273L18.5634 56.5165L18.5268 55.7601H16.9906H15.4546V50.4065V45.0529H10.3353H5.21597V26.2231V7.3932L3.8282 7.39812C2.80705 7.40169 2.34261 7.45461 2.07036 7.59811ZM37.4121 18.7664V30.1398L38.3932 30.7043L39.3744 31.269H40.6136H41.853V20.1111V8.95324L41.5463 8.43118C41.0658 7.61312 40.4821 7.3932 38.7918 7.3932H37.4121V18.7664ZM27.0501 17.6524C26.3378 17.8737 24.4782 18.5593 22.9177 19.176C19.2994 20.6062 18.4953 20.8674 17.7367 20.8593C16.9806 20.851 16.6435 20.6796 15.32 19.6301C14.7495 19.1779 13.932 18.6415 13.5032 18.4384C12.5556 17.9896 11.9749 18.0259 10.8922 18.6016C10.0844 19.0313 8.02024 20.8917 7.72973 21.4523C7.24728 22.383 8.15692 23.6398 9.31142 23.638C9.71196 23.6373 9.83482 23.5753 10.8963 22.8386C11.3357 22.5338 11.5485 22.47 12.1182 22.4732C12.6971 22.4764 13.0453 22.5895 14.2854 23.1769C16.3891 24.1733 16.9245 24.2923 18.27 24.0619C19.7406 23.81 21.1729 23.38 23.7812 22.4071C26.5425 21.377 27.0668 21.2499 28.5304 21.2548C29.8363 21.2594 30.6472 21.4417 32.2797 22.0983C32.8712 22.3362 33.5324 22.5307 33.7492 22.5304C34.9835 22.5291 35.9212 20.8631 35.1609 20.0226C34.7942 19.6175 31.3124 17.7648 30.3639 17.4702C29.3162 17.145 28.5481 17.1872 27.0501 17.6524ZM27.4202 26.1599C26.8435 26.3184 24.9007 27.029 23.1027 27.7392C19.6799 29.091 18.3239 29.546 17.7168 29.546C17.1952 29.546 16.2731 29.0466 15.2079 28.187C14.2187 27.3888 13.4085 26.9196 12.7886 26.786C11.8376 26.5811 10.5143 27.2714 8.83995 28.8458C7.67237 29.9437 7.46094 30.3314 7.66275 31.0035C7.87579 31.713 8.41511 32.154 9.15685 32.2251C9.73379 32.2804 9.82532 32.2492 10.4271 31.792C11.2157 31.1928 11.828 30.9812 12.4555 31.0911C12.7141 31.1364 13.6197 31.4943 14.4677 31.8864C16.5563 32.852 16.9932 32.9415 18.373 32.6863C19.7812 32.4256 21.0686 32.0341 23.6578 31.0791C26.3835 30.0736 27.116 29.8927 28.4802 29.8876C29.3367 29.8844 29.8802 29.9621 30.7777 30.2162L31.9533 30.5489L33.5044 29.6671C34.3595 29.1808 35.1193 28.8244 35.1976 28.8728C35.3021 28.9371 35.3057 28.897 35.2111 28.7207C35.0448 28.4105 31.1402 26.2997 30.2658 26.0473C29.368 25.7881 28.6738 25.8156 27.4202 26.1599ZM33.033 31.6989L31.0592 32.857L28.7155 32.8669L26.3717 32.8768L25.2393 34.8593L24.107 36.8417L22.1553 37.9681L20.2038 39.0943L20.1703 41.4039L20.1366 43.7134L18.9565 45.7376L17.7764 47.7618L18.9593 49.8006L20.1422 51.8395L20.1459 54.1383L20.1496 56.437L22.1162 57.5446L24.0828 58.6523L25.2273 60.6496L26.3717 62.6469L28.6835 62.6495L30.9953 62.6521L33.0241 63.8216L35.0528 64.9912L37.0034 63.8524L38.9541 62.7136L41.3429 62.6521L43.7318 62.5905L44.8682 60.6373L46.0046 58.6839L47.9688 57.5526L49.9329 56.4215L49.9945 54.0293L50.0562 51.6372L51.186 49.6988L52.3159 47.7605L51.186 45.8221L50.0562 43.8837L49.9945 41.5005L49.9329 39.1171L47.9616 37.9756L45.9904 36.8341L44.8597 34.8822L43.729 32.9304L41.3415 32.8689L38.9541 32.8074L37.0001 31.6689C35.9254 31.0428 35.0373 30.5329 35.0264 30.5357C35.0155 30.5385 34.1185 31.062 33.033 31.6989ZM11.727 35.0112C10.954 35.2184 10.0581 35.827 8.83131 36.9785C7.69951 38.0408 7.45317 38.5118 7.67644 39.1867C7.84655 39.7012 8.38414 40.2239 8.89274 40.3693C9.38074 40.509 10.0329 40.3404 10.3476 39.9932C10.7546 39.5444 11.5116 39.2362 12.1928 39.2424C12.7019 39.2469 13.1366 39.3935 14.4177 39.9922C16.3096 40.8768 17.0278 41.0686 17.8719 40.9153L18.4768 40.8054L18.5385 39.5308L18.6002 38.2563L19.9338 37.4832C20.6674 37.058 21.2931 36.6845 21.3244 36.6532C21.3557 36.6221 20.6722 36.8374 19.8058 37.1321C18.9392 37.4266 18.0358 37.6673 17.7984 37.6669C17.1879 37.666 16.2828 37.1994 15.2079 36.3315C13.5963 35.0303 12.7928 34.7254 11.727 35.0112ZM42.1984 40.4259C42.7018 40.6871 44.2933 42.3809 44.3877 42.7559C44.4334 42.9372 44.4329 43.2928 44.3867 43.5462C44.3133 43.9493 43.6235 44.6868 38.8529 49.4612C35.8555 52.4612 33.2531 54.9948 33.07 55.0917C32.6747 55.3007 32.1329 55.3179 31.6532 55.1367C31.2809 54.9962 26.642 50.4794 26.0492 49.6804C25.769 49.3026 25.6932 49.0701 25.6932 48.5885C25.6932 47.9888 25.7132 47.956 26.6986 46.949C28.4056 45.2042 28.7868 45.2388 30.8729 47.3274L32.2901 48.7464L36.3622 44.7011C38.6019 42.4761 40.5717 40.565 40.7394 40.4544C41.1136 40.2075 41.7531 40.1949 42.1984 40.4259ZM12.3707 50.8988C12.3707 52.4218 12.3564 53.6679 12.3388 53.6679C12.3213 53.6679 11.0589 52.4218 9.53346 50.8988L6.76003 48.1297H9.56529H12.3707V50.8988Z" fill="black"/>
</g>
<defs>
<filter id="filter0_d_107_34" x="0.777649" y="0.854706" width="56.1194" height="67.5723" filterUnits="userSpaceOnUse" color-interpolation-filters="sRGB">
<feFlood flood-opacity="0" result="BackgroundImageFix"/>
<feColorMatrix in="SourceAlpha" type="matrix" values="0 0 0 0 0 0 0 0 0 0 0 0 0 0 0 0 0 0 127 0" result="hardAlpha"/>
<feOffset dx="2.29059" dy="1.14529"/>
<feGaussianBlur stdDeviation="1.14529"/>
<feColorMatrix type="matrix" values="0 0 0 0 0 0 0 0 0 0 0 0 0 0 0 0 0 0 0.25 0"/>
<feBlend mode="normal" in2="BackgroundImageFix" result="effect1_dropShadow_107_34"/>
<feBlend mode="normal" in="SourceGraphic" in2="effect1_dropShadow_107_34" result="shape"/>
</filter>
</defs>
</svg>
