<?xml version="1.0" encoding="utf-8"?>
<!-- Generator: Adobe Illustrator 16.0.0, SVG Export Plug-In . SVG Version: 6.00 Build 0)  -->
<!DOCTYPE svg PUBLIC "-//W3C//DTD SVG 1.1//EN" "http://www.w3.org/Graphics/SVG/1.1/DTD/svg11.dtd">
<svg version="1.1" id="Layer_1" xmlns="http://www.w3.org/2000/svg" xmlns:xlink="http://www.w3.org/1999/xlink" x="0px" y="0px"
	 width="200px" height="200px" viewBox="0 0 200 200" enable-background="new 0 0 200 200" xml:space="preserve">
<g>
	<path fill="#FFFFFF" d="M100,195c-52.383,0-95-42.617-95-95S47.617,5,100,5s95,42.617,95,95C195,152.382,152.383,195,100,195z"/>
	<path fill="#F3F3F3" d="M100,10c49.626,0,90,40.374,90,90c0,49.625-40.374,90-90,90s-90-40.375-90-90C10,50.374,50.374,10,100,10
		 M100,0C44.771,0,0,44.771,0,100c0,55.229,44.771,100,100,100c55.229,0,100-44.771,100-100C200,44.771,155.229,0,100,0L100,0z"/>
</g>
<g display="none">
	<circle display="inline" fill="#F1333F" cx="99.37" cy="100.319" r="68.103"/>
	<g display="inline">
		<path fill="#FFFFFF" d="M145.639,138.542c0-4.709,3.93-8.642,8.642-8.642c0.937,0,1.84,0.158,2.688,0.443V53.787H40.982v88.047
			h105.325C145.878,140.814,145.639,139.701,145.639,138.542z"/>
		<g>
			<path fill="#E0E0E0" d="M145.639,138.542c0-4.709,3.93-8.642,8.642-8.642c0.938,0,1.843,0.158,2.69,0.445V53.787H98.978v88.047
				h47.331C145.878,140.814,145.639,139.701,145.639,138.542z"/>
			<rect x="40.982" y="53.787" fill="#E0E0E0" width="115.985" height="11.329"/>
		</g>
		<rect x="98.978" y="53.787" fill="#C0C0C0" width="57.993" height="11.329"/>
		<g>
			<circle fill="#FF6838" cx="47.97" cy="59.449" r="3.14"/>
			<circle fill="#FF6838" cx="57.392" cy="59.449" r="3.14"/>
			<circle fill="#FF6838" cx="66.813" cy="59.449" r="3.14"/>
		</g>
		<path fill="#005C83" d="M149.316,109.303l4.305-4.306c-2.46-3.521-5.526-6.585-9.046-9.046l-4.304,4.304
			c-3.06-1.982-6.494-3.431-10.174-4.216V89.95c-2.078-0.367-4.216-0.56-6.397-0.56c-2.183,0-4.319,0.193-6.396,0.56v6.089
			c-3.682,0.785-7.117,2.233-10.176,4.216l-4.303-4.304c-3.521,2.461-6.586,5.525-9.047,9.044l4.305,4.308
			c-1.981,3.055-3.432,6.489-4.217,10.174H87.78c-0.368,2.076-0.56,4.213-0.56,6.396s0.191,4.319,0.56,6.396h6.088
			c0.785,3.683,2.235,7.117,4.217,10.174l-4.305,4.306c2.461,3.521,5.526,6.584,9.047,9.045l4.303-4.304
			c3.058,1.982,6.494,3.431,10.175,4.216v6.09c2.076,0.367,4.215,0.562,6.396,0.562c2.184,0,4.318-0.192,6.396-0.562v-6.09
			c3.68-0.785,7.115-2.231,10.174-4.216l4.305,4.304c3.521-2.461,6.586-5.524,9.046-9.045l-4.306-4.306
			c1.981-3.058,3.432-6.492,4.219-10.174h6.088c0.368-2.076,0.561-4.215,0.561-6.396s-0.19-4.317-0.561-6.396h-6.088
			C152.747,115.794,151.299,112.359,149.316,109.303z M123.7,139.346c-7.44,0-13.472-6.033-13.472-13.476
			c0-7.438,6.029-13.474,13.472-13.474s13.475,6.033,13.475,13.474C137.175,133.313,131.141,139.346,123.7,139.346z"/>
		<path fill="#00263F" d="M159.622,132.268c0.368-2.076,0.56-4.213,0.56-6.396s-0.189-4.317-0.56-6.396h-6.09
			c-0.785-3.683-2.233-7.117-4.216-10.174l4.305-4.306c-2.46-3.521-5.526-6.585-9.046-9.046l-4.304,4.304
			c-3.06-1.982-6.494-3.431-10.174-4.216V89.95c-2.078-0.367-4.216-0.56-6.397-0.56c-0.142,0-0.28,0.008-0.423,0.01v23.01
			c0.143-0.006,0.281-0.012,0.423-0.012c7.442,0,13.475,6.033,13.475,13.473c0,7.441-6.032,13.475-13.475,13.475
			c-0.142,0-0.28-0.008-0.423-0.012v23.01c0.143,0.002,0.281,0.01,0.423,0.01c2.184,0,4.319-0.191,6.397-0.561v-6.09
			c3.68-0.785,7.114-2.232,10.174-4.215l4.304,4.303c3.52-2.461,6.586-5.525,9.046-9.045l-4.305-4.305
			c1.98-3.057,3.431-6.492,4.216-10.174H159.622L159.622,132.268z"/>
		<g>
			<path fill="#005C83" d="M45.5,94.363l8.714-22.662h4.245l8.682,22.662h-5.555l-1.755-5.075h-7.055l-1.723,5.075H45.5z
				 M56.319,77.255l-2.712,8.427h5.33L56.319,77.255z"/>
			<path fill="#005C83" d="M69.215,94.363V71.701h9.671c1.086,0,2.08,0.222,2.985,0.67c0.905,0.446,1.681,1.032,2.329,1.755
				c0.65,0.724,1.161,1.543,1.533,2.458c0.373,0.917,0.56,1.841,0.56,2.777c0,1.001-0.177,1.959-0.527,2.873
				c-0.351,0.917-0.841,1.736-1.468,2.459c-0.628,0.724-1.389,1.298-2.282,1.723c-0.895,0.427-1.884,0.639-2.969,0.639h-4.598v7.309
				L69.215,94.363L69.215,94.363z M74.449,82.49h4.278c0.616,0,1.148-0.266,1.596-0.798c0.446-0.532,0.67-1.309,0.67-2.331
				c0-0.532-0.069-0.99-0.208-1.373c-0.139-0.383-0.324-0.702-0.56-0.957c-0.233-0.256-0.499-0.441-0.796-0.56
				c-0.299-0.117-0.597-0.175-0.894-0.175h-4.087L74.449,82.49L74.449,82.49z"/>
			<path fill="#005C83" d="M89.005,94.363V71.701h5.234v22.662H89.005z"/>
		</g>
	</g>
</g>
<g>
	<circle fill="#65A3E6" cx="98.969" cy="100.429" r="68.032"/>
	<path fill="#F2F2F7" d="M153.333,59.729v81.744c-3.856,5.123-8.422,9.68-13.548,13.53c-11.371,8.539-25.503,13.599-40.816,13.599
		c-14.944,0-28.763-4.816-39.986-12.983c-0.839-0.611-1.663-1.241-2.471-1.888c-0.997-0.795-1.969-1.619-2.916-2.469
		c-0.761-0.682-1.508-1.379-2.235-2.095c-1.002-0.983-1.977-1.997-2.915-3.038c-0.77-0.854-1.517-1.722-2.238-2.609
		c-0.547-0.67-1.083-1.354-1.603-2.043V59.729H153.333z"/>
	<path fill="#E3E7FC" d="M153.333,59.588v13.704c-0.267,0.039-0.542,0.055-0.819,0.055H45.424c-0.278,0-0.553-0.017-0.819-0.055
		V59.588H153.333z"/>
	<path fill="#FFE261" d="M152.514,68.765H45.425c-3.533,0-6.396-2.864-6.396-6.396V42.131c0-3.532,2.864-6.396,6.396-6.396h107.087
		c3.533,0,6.396,2.864,6.396,6.396v20.238C158.909,65.901,156.045,68.765,152.514,68.765z"/>
	<g>
		<path fill="#374266" d="M90.224,52.25c0,4.06-3.293,7.351-7.353,7.351c-2.197,0-4.169-0.963-5.516-2.489
			c-1.145-1.294-1.838-2.997-1.838-4.862s0.693-3.569,1.838-4.864c1.347-1.526,3.318-2.488,5.516-2.488
			C86.931,44.898,90.224,48.189,90.224,52.25z"/>
		<path fill="#374266" d="M122.42,52.25c0,4.06-3.293,7.351-7.354,7.351c-2.196,0-4.168-0.963-5.516-2.489
			c-1.145-1.294-1.838-2.997-1.838-4.862s0.693-3.569,1.838-4.864c1.348-1.526,3.318-2.488,5.516-2.488
			C119.127,44.898,122.42,48.189,122.42,52.25z"/>
	</g>
	<g enable-background="new    ">
		<path fill="#FF526C" d="M68.364,105.102c-0.401-0.282-0.684-0.802-0.684-1.368c0-0.943,0.755-1.675,1.698-1.675
			c0.472,0,0.802,0.165,1.038,0.33c1.25,0.921,2.619,1.486,4.223,1.486c1.486,0,2.383-0.59,2.383-1.557v-0.047
			c0-0.92-0.566-1.393-3.326-2.1c-3.327-0.85-5.473-1.77-5.473-5.049v-0.047c0-2.996,2.406-4.978,5.78-4.978
			c2.005,0,3.75,0.519,5.237,1.463c0.401,0.235,0.802,0.731,0.802,1.438c0,0.944-0.755,1.675-1.699,1.675
			c-0.354,0-0.637-0.094-0.92-0.259c-1.203-0.708-2.335-1.109-3.468-1.109c-1.392,0-2.123,0.638-2.123,1.439v0.047
			c0,1.085,0.708,1.439,3.562,2.171c3.35,0.872,5.237,2.075,5.237,4.953v0.048c0,3.278-2.5,5.119-6.063,5.119
			C72.398,107.084,70.204,106.423,68.364,105.102z"/>
		<path fill="#FF526C" d="M83.372,91.184c0-1.038,0.873-1.675,2.005-1.675s2.005,0.637,2.005,1.675v0.048
			c0,1.037-0.873,1.698-2.005,1.698s-2.005-0.661-2.005-1.698V91.184z M83.584,95.854c0-0.99,0.802-1.793,1.793-1.793
			s1.793,0.803,1.793,1.793v9.342c0,0.991-0.802,1.793-1.793,1.793s-1.793-0.802-1.793-1.793V95.854z"/>
		<path fill="#FF526C" d="M90.544,95.854c0-0.99,0.802-1.793,1.793-1.793s1.793,0.803,1.793,1.793v0.142
			c0.826-1.062,1.887-2.028,3.704-2.028c2.713,0,4.293,1.793,4.293,4.694v6.534c0,0.991-0.802,1.793-1.792,1.793
			s-1.793-0.802-1.793-1.793v-5.402c0-1.698-0.802-2.571-2.17-2.571c-1.368,0-2.241,0.873-2.241,2.571v5.402
			c0,0.991-0.802,1.793-1.793,1.793s-1.793-0.802-1.793-1.793V95.854z"/>
		<path fill="#FF526C" d="M104.632,100.597v-0.048c0-3.609,2.761-6.581,6.629-6.581c1.911,0,3.255,0.519,4.317,1.415
			c0.235,0.188,0.566,0.613,0.566,1.227c0,0.896-0.732,1.604-1.629,1.604c-0.471,0-0.825-0.188-1.037-0.354
			c-0.637-0.495-1.298-0.802-2.241-0.802c-1.793,0-3.067,1.581-3.067,3.444v0.047c0,1.935,1.251,3.491,3.209,3.491
			c0.943,0,1.675-0.33,2.359-0.872c0.188-0.142,0.542-0.331,0.967-0.331c0.85,0,1.51,0.685,1.51,1.534
			c0,0.472-0.213,0.849-0.52,1.132c-1.061,0.968-2.406,1.628-4.482,1.628C107.416,107.131,104.632,104.205,104.632,100.597z"/>
		<path fill="#FF526C" d="M124.357,107.131c-3.799,0-6.605-2.666-6.605-6.534v-0.048c0-3.609,2.57-6.581,6.251-6.581
			c4.223,0,6.087,3.468,6.087,6.086c0,1.038-0.732,1.722-1.676,1.722h-7.101c0.354,1.628,1.486,2.478,3.091,2.478
			c0.99,0,1.816-0.307,2.547-0.85c0.26-0.188,0.496-0.283,0.873-0.283c0.803,0,1.393,0.613,1.393,1.416
			c0,0.472-0.213,0.825-0.473,1.062C127.636,106.541,126.197,107.131,124.357,107.131z M126.668,99.535
			c-0.212-1.604-1.155-2.689-2.665-2.689c-1.486,0-2.454,1.062-2.736,2.689H126.668z"/>
	</g>
	<g enable-background="new    ">
		<path fill="#374266" d="M59.194,135.255l6.784-5.557c2.966-2.42,4.125-3.749,4.125-5.727c0-2.011-1.329-3.102-3.204-3.102
			c-1.5,0-2.557,0.647-3.886,2.079c-0.341,0.375-0.954,0.75-1.772,0.75c-1.33,0-2.386-1.057-2.386-2.387
			c0-0.579,0.239-1.192,0.614-1.636c1.909-2.216,4.159-3.511,7.772-3.511c4.943,0,8.215,2.897,8.215,7.362v0.068
			c0,3.988-2.045,5.966-6.272,9.238l-3.886,2.999h8.317c1.261,0,2.284,1.023,2.284,2.284c0,1.262-1.023,2.25-2.284,2.25H60.66
			c-1.636,0-2.829-0.92-2.829-2.488C57.831,136.857,58.308,135.971,59.194,135.255z"/>
		<path fill="#374266" d="M79.439,128.506v-0.068c0-6.92,4.295-12.34,10.635-12.34c6.307,0,10.568,5.352,10.568,12.271v0.068
			c0,6.92-4.261,12.34-10.636,12.34S79.439,135.426,79.439,128.506z M95.256,128.506v-0.068c0-4.329-2.113-7.602-5.25-7.602
			s-5.182,3.17-5.182,7.533v0.068c0,4.363,2.08,7.602,5.25,7.602C93.245,136.039,95.256,132.835,95.256,128.506z"/>
		<path fill="#374266" d="M108.377,121.483l-1.84,0.478c-0.273,0.067-0.648,0.136-0.921,0.136c-1.228,0-2.284-1.022-2.284-2.25
			c0-1.057,0.682-1.942,1.738-2.249l3.375-0.989c0.988-0.272,1.738-0.442,2.455-0.442h0.067c1.433,0,2.591,1.158,2.591,2.59v19.227
			c0,1.432-1.158,2.59-2.591,2.59c-1.432,0-2.591-1.158-2.591-2.59V121.483z"/>
		<path fill="#374266" d="M118.533,128.506v-0.068c0-6.92,4.295-12.34,10.636-12.34c6.307,0,10.567,5.352,10.567,12.271v0.068
			c0,6.92-4.261,12.34-10.635,12.34C122.727,140.777,118.533,135.426,118.533,128.506z M134.351,128.506v-0.068
			c0-4.329-2.114-7.602-5.249-7.602c-3.137,0-5.182,3.17-5.182,7.533v0.068c0,4.363,2.079,7.602,5.249,7.602
			C132.34,136.039,134.351,132.835,134.351,128.506z"/>
	</g>
</g>
</svg>
