<?xml version="1.0" encoding="utf-8"?>
<!-- Generator: Adobe Illustrator 16.0.0, SVG Export Plug-In . SVG Version: 6.00 Build 0)  -->
<!DOCTYPE svg PUBLIC "-//W3C//DTD SVG 1.1//EN" "http://www.w3.org/Graphics/SVG/1.1/DTD/svg11.dtd">
<svg version="1.1" id="Layer_1" xmlns="http://www.w3.org/2000/svg" xmlns:xlink="http://www.w3.org/1999/xlink" x="0px" y="0px"
	 width="200px" height="200px" viewBox="0 0 200 200" enable-background="new 0 0 200 200" xml:space="preserve">
<g>
	<path fill="#FFFFFF" d="M100,195c-52.383,0-95-42.617-95-95C5,47.617,47.617,5,100,5s95,42.617,95,95
		C195,152.382,152.383,195,100,195z"/>
	<path fill="#F3F3F3" d="M100,10c49.626,0,90,40.374,90,90c0,49.625-40.374,90-90,90s-90-40.375-90-90C10,50.374,50.374,10,100,10
		 M100,0C44.771,0,0,44.771,0,100c0,55.228,44.771,100,100,100c55.229,0,100-44.771,100-100C200,44.771,155.229,0,100,0L100,0z"/>
</g>
<g>
	<path fill="#EF3A50" d="M166.146,100.819c0,36.439-29.541,65.979-65.98,65.979s-65.979-29.54-65.979-65.979
		c0-36.44,29.54-65.98,65.979-65.98S166.146,64.378,166.146,100.819z"/>
	<path fill="#6843AF" d="M128.526,32h-56.72c-5.308,0-9.61,4.303-9.61,9.61v114.578C72.985,163.634,86.065,168,100.166,168
		c14.102,0,27.182-4.365,37.97-11.812V41.61C138.136,36.303,133.834,32,128.526,32z"/>
	<path fill="#50309E" d="M71.807,32c-5.308,0-9.61,4.303-9.61,9.61v114.578c5.041,3.479,10.58,6.289,16.493,8.291V41.574
		c0-1.516,0.353-2.948,0.977-4.222c1.452-2.96,4.379-5.064,7.825-5.352H71.807z"/>
	<path fill="#71A2EA" d="M129.72,156.017H70.612c-1.084,0-1.962-0.879-1.962-1.963V48.95c0-1.084,0.879-1.962,1.962-1.962h59.107
		c1.085,0,1.964,0.878,1.964,1.962v105.104C131.684,155.138,130.805,156.017,129.72,156.017z"/>
	<path fill="#578DCE" d="M70.612,46.988c-1.084,0-1.962,0.877-1.962,1.962v105.104c0,1.085,0.879,1.963,1.962,1.963h8.077V46.988
		H70.612z"/>
	<path fill="#28126B" d="M110.832,41.434H89.16c-1.056,0-1.912-0.856-1.912-1.913s0.856-1.912,1.912-1.912h21.672
		c1.055,0,1.911,0.856,1.911,1.912S111.887,41.434,110.832,41.434z"/>
	<path fill="#28126B" d="M123.488,39.521c0,1.283-1.04,2.321-2.322,2.321s-2.322-1.039-2.322-2.321c0-1.282,1.04-2.322,2.322-2.322
		S123.488,38.239,123.488,39.521z"/>
	<path fill="#50309E" d="M131.684,68.233v55.241c0.106-0.003,0.214-0.01,0.321-0.01h6.131V68.233H131.684z"/>
	<path fill="#578DCE" d="M106.913,68.233c-6.889,0-12.493,5.604-12.493,12.493v30.247c0,6.889,5.604,12.492,12.493,12.492
		c0.995,0,1.805,0.811,1.805,1.805v6.632c0,2.513,1.623,4.671,4.038,5.368c0.524,0.151,1.055,0.226,1.577,0.226
		c1.879,0,3.652-0.95,4.702-2.615l4.112-6.527c1.871-2.969,5.044-4.771,8.535-4.878V68.233H106.913z"/>
	<path fill="#FDD33A" d="M160.252,71.869h-53.339c-4.892,0-8.857,3.965-8.857,8.857v30.247c0,4.892,3.966,8.857,8.857,8.857
		c3.005,0,5.44,2.435,5.44,5.439v6.632c0,1.958,2.562,2.697,3.605,1.041l4.112-6.528c2.583-4.098,7.089-6.584,11.934-6.584h28.247
		c4.891,0,8.856-3.966,8.856-8.857V80.726C169.108,75.834,165.143,71.869,160.252,71.869z"/>
	<path fill="#E0AF24" d="M116.608,119.83c-4.892,0-8.857-3.966-8.857-8.857V80.726c0-4.891,3.966-8.857,8.857-8.857h-9.695
		c-4.892,0-8.857,3.966-8.857,8.857v30.247c0,4.892,3.966,8.857,8.857,8.857c3.005,0,5.44,2.437,5.44,5.441v6.63
		c0,1.958,2.562,2.697,3.605,1.041l4.112-6.527c0.536-0.85,1.158-1.625,1.844-2.329C121.375,121.652,119.205,119.83,116.608,119.83z
		"/>
	<g>
		<path fill="#6843AF" d="M122.672,97.31c0,2.376-1.926,4.303-4.303,4.303c-2.376,0-4.303-1.927-4.303-4.303
			c0-2.377,1.927-4.303,4.303-4.303C120.746,93.006,122.672,94.932,122.672,97.31z"/>
		<path fill="#6843AF" d="M138.449,97.31c0,2.376-1.926,4.303-4.303,4.303c-2.376,0-4.303-1.927-4.303-4.303
			c0-2.377,1.927-4.303,4.303-4.303C136.523,93.006,138.449,94.932,138.449,97.31z"/>
		<path fill="#6843AF" d="M154.228,97.31c0,2.376-1.926,4.303-4.304,4.303c-2.376,0-4.303-1.927-4.303-4.303
			c0-2.377,1.927-4.303,4.303-4.303C152.302,93.006,154.228,94.932,154.228,97.31z"/>
	</g>
</g>
</svg>
