<?xml version="1.0" encoding="utf-8"?>
<!-- Generator: Adobe Illustrator 16.0.0, SVG Export Plug-In . SVG Version: 6.00 Build 0)  -->
<!DOCTYPE svg PUBLIC "-//W3C//DTD SVG 1.1//EN" "http://www.w3.org/Graphics/SVG/1.1/DTD/svg11.dtd">
<svg version="1.1" id="Layer_1" xmlns="http://www.w3.org/2000/svg" xmlns:xlink="http://www.w3.org/1999/xlink" x="0px" y="0px"
	 width="200px" height="200px" viewBox="0 0 200 200" enable-background="new 0 0 200 200" xml:space="preserve">
<g>
	<path fill="#FFFFFF" d="M100,195c-52.383,0-95-42.617-95-95C5,47.617,47.617,5,100,5s95,42.617,95,95
		C195,152.382,152.383,195,100,195z"/>
	<path fill="#F3F3F3" d="M100,10c49.626,0,90,40.374,90,90c0,49.625-40.374,90-90,90s-90-40.375-90-90C10,50.374,50.374,10,100,10
		 M100,0C44.771,0,0,44.771,0,100c0,55.228,44.771,100,100,100c55.229,0,100-44.771,100-100C200,44.771,155.229,0,100,0L100,0z"/>
</g>
<g>
	<circle fill="#F1333F" cx="100" cy="100" r="67.93"/>
	<g>
		<path fill="#FFFFFF" d="M146.15,138.125c0-4.697,3.92-8.617,8.619-8.617c0.932,0,1.834,0.158,2.682,0.442V53.584H41.762v87.821
			h105.056C146.39,140.392,146.15,139.283,146.15,138.125z"/>
		<g>
			<path fill="#E0E0E0" d="M146.15,138.125c0-4.697,3.92-8.617,8.619-8.617c0.934,0,1.837,0.158,2.687,0.443V53.584H99.607v87.821
				h47.21C146.39,140.392,146.15,139.283,146.15,138.125z"/>
			<rect x="41.762" y="53.584" fill="#E0E0E0" width="115.689" height="11.301"/>
		</g>
		<rect x="99.607" y="53.584" fill="#C0C0C0" width="57.849" height="11.301"/>
		<g>
			<circle fill="#FF6838" cx="48.731" cy="59.233" r="3.132"/>
			<circle fill="#FF6838" cx="58.128" cy="59.233" r="3.132"/>
			<circle fill="#FF6838" cx="67.525" cy="59.233" r="3.132"/>
		</g>
		<path fill="#005C83" d="M149.819,108.958l4.293-4.293c-2.452-3.511-5.511-6.568-9.022-9.021l-4.293,4.291
			c-3.049-1.977-6.476-3.421-10.146-4.204v-6.074c-2.071-0.366-4.205-0.558-6.381-0.558c-2.178,0-4.309,0.191-6.38,0.558v6.074
			c-3.673,0.783-7.099,2.228-10.149,4.204l-4.292-4.292c-3.512,2.454-6.568,5.512-9.023,9.022l4.293,4.293
			c-1.978,3.05-3.422,6.476-4.206,10.149h-6.074c-0.365,2.07-0.557,4.202-0.557,6.379s0.191,4.308,0.557,6.381h6.074
			c0.784,3.671,2.229,7.098,4.206,10.148l-4.293,4.293c2.455,3.509,5.512,6.566,9.023,9.022l4.292-4.293
			c3.051,1.979,6.477,3.423,10.149,4.204v6.073c2.071,0.369,4.202,0.561,6.38,0.561c2.176,0,4.31-0.191,6.381-0.561v-6.073
			c3.671-0.781,7.098-2.226,10.146-4.204l4.293,4.293c3.512-2.456,6.57-5.514,9.022-9.022l-4.293-4.293
			c1.978-3.051,3.423-6.478,4.206-10.148h6.073c0.368-2.073,0.559-4.204,0.559-6.381s-0.19-4.309-0.559-6.379h-6.073
			C153.242,115.434,151.797,112.008,149.819,108.958z M124.27,138.927c-7.423,0-13.44-6.018-13.44-13.44
			c0-7.422,6.018-13.438,13.44-13.438c7.422,0,13.438,6.016,13.438,13.438C137.708,132.91,131.69,138.927,124.27,138.927z"/>
		<path fill="#00263F" d="M160.099,131.868c0.368-2.072,0.559-4.203,0.559-6.381c0-2.177-0.19-4.309-0.559-6.379h-6.073
			c-0.783-3.674-2.229-7.1-4.206-10.149l4.293-4.293c-2.452-3.511-5.511-6.568-9.022-9.021l-4.293,4.291
			c-3.049-1.977-6.476-3.421-10.146-4.204v-6.074c-2.071-0.366-4.205-0.558-6.381-0.558c-0.142,0-0.282,0.008-0.422,0.009v22.951
			c0.14-0.004,0.28-0.01,0.422-0.01c7.422,0,13.438,6.016,13.438,13.438s-6.017,13.44-13.438,13.44
			c-0.142,0-0.282-0.006-0.422-0.012v22.949c0.142,0.003,0.28,0.012,0.422,0.012c2.176,0,4.31-0.191,6.381-0.561v-6.073
			c3.671-0.781,7.098-2.226,10.146-4.204l4.293,4.293c3.512-2.456,6.57-5.514,9.022-9.025l-4.293-4.293
			c1.978-3.048,3.423-6.475,4.206-10.146H160.099L160.099,131.868z"/>
		<g>
			<path fill="#005C83" d="M46.266,94.059l8.692-22.605h4.234l8.66,22.605h-5.541l-1.75-5.063h-7.036l-1.719,5.063H46.266z
				 M57.059,76.994l-2.707,8.405h5.317L57.059,76.994z"/>
			<path fill="#005C83" d="M69.921,94.059V71.454h9.647c1.083,0,2.075,0.223,2.978,0.669c0.901,0.446,1.676,1.029,2.323,1.751
				c0.647,0.722,1.157,1.539,1.528,2.451c0.372,0.913,0.558,1.837,0.558,2.771c0,0.998-0.176,1.953-0.525,2.865
				c-0.351,0.913-0.839,1.729-1.466,2.451c-0.626,0.723-1.384,1.295-2.276,1.72c-0.892,0.425-1.878,0.637-2.959,0.637h-4.586v7.291
				H69.921L69.921,94.059z M75.143,82.215h4.266c0.616,0,1.147-0.267,1.592-0.797c0.447-0.529,0.669-1.306,0.669-2.324
				c0-0.529-0.07-0.986-0.208-1.368c-0.139-0.382-0.325-0.7-0.558-0.955c-0.232-0.255-0.498-0.44-0.796-0.558
				c-0.297-0.116-0.594-0.176-0.89-0.176h-4.076V82.215L75.143,82.215z"/>
			<path fill="#005C83" d="M89.661,94.059V71.454h5.222v22.605H89.661z"/>
		</g>
	</g>
</g>
</svg>
