<?xml version="1.0" encoding="utf-8"?>
<!-- Generator: Adobe Illustrator 16.0.0, SVG Export Plug-In . SVG Version: 6.00 Build 0)  -->
<!DOCTYPE svg PUBLIC "-//W3C//DTD SVG 1.1//EN" "http://www.w3.org/Graphics/SVG/1.1/DTD/svg11.dtd">
<svg version="1.1" id="Layer_1" xmlns="http://www.w3.org/2000/svg" xmlns:xlink="http://www.w3.org/1999/xlink" x="0px" y="0px"
	 width="200px" height="200px" viewBox="0 0 200 200" enable-background="new 0 0 200 200" xml:space="preserve">
<g>
	<path fill="#FFFFFF" d="M100,195c-52.383,0-95-42.617-95-95S47.617,5,100,5s95,42.617,95,95C195,152.382,152.383,195,100,195z"/>
	<path fill="#F3F3F3" d="M100,10c49.626,0,90,40.374,90,90c0,49.625-40.374,90-90,90s-90-40.375-90-90C10,50.374,50.374,10,100,10
		 M100,0C44.771,0,0,44.771,0,100c0,55.229,44.771,100,100,100c55.229,0,100-44.771,100-100C200,44.771,155.229,0,100,0L100,0z"/>
</g>
<path fill="#006CBC" d="M146.313,96.287v46.352c0,4.606-2.17,8.934-5.84,11.719c-11.432,8.676-25.688,13.826-41.149,13.826
	c-37.623,0-68.122-30.498-68.122-68.12c0-37.651,30.783-68.291,68.433-68.123c29.456,0.13,54.493,18.96,63.864,45.228
	c1.135,3.182-1.219,6.53-4.598,6.53C151.947,83.699,146.313,89.335,146.313,96.287z"/>
<path fill="#FFF1C5" d="M96.821,122.762H43.435c-2.304,0-4.171-1.867-4.171-4.172V58.382c0-2.303,1.868-4.172,4.171-4.172h53.386
	c2.303,0,4.17,1.869,4.17,4.172v60.207C100.991,120.895,99.124,122.762,96.821,122.762z"/>
<path fill="#FFF5F5" d="M135.746,122.762H51.22c-2.304,0-4.171-1.867-4.171-4.172V58.382c0-2.303,1.868-4.172,4.171-4.172h84.526
	c2.304,0,4.171,1.869,4.171,4.172v60.207C139.917,120.895,138.05,122.762,135.746,122.762z"/>
<path fill="#FFAA00" d="M139.917,51.43v8.342H39.263V51.43c0-3.071,2.491-5.56,5.561-5.56h89.531
	C137.43,45.87,139.917,48.359,139.917,51.43z"/>
<path fill="#FFCF48" d="M139.917,51.43v8.342H47.049V51.43c0-3.071,2.489-5.56,5.561-5.56h81.748
	C137.43,45.87,139.917,48.359,139.917,51.43z"/>
<path fill="#F48C03" d="M50.964,52.821c0,1.772-1.437,3.207-3.209,3.207c-1.771,0-3.208-1.435-3.208-3.207
	c0-1.773,1.437-3.209,3.208-3.209C49.527,49.612,50.964,51.048,50.964,52.821z M58.449,49.613c-1.771,0-3.208,1.435-3.208,3.208
	c0,1.772,1.436,3.207,3.208,3.207c1.772,0,3.208-1.435,3.208-3.207C61.657,51.05,60.221,49.613,58.449,49.613z M69.144,49.613
	c-1.772,0-3.209,1.435-3.209,3.208c0,1.772,1.437,3.207,3.209,3.207c1.771,0,3.208-1.435,3.208-3.207
	C72.351,51.048,70.915,49.613,69.144,49.613z"/>
<path fill="#FFE266" d="M94.873,69.199v2.78c0,0.769-0.622,1.391-1.39,1.391H46.216c-0.769,0-1.392-0.623-1.392-1.391v-2.78
	c0-0.767,0.623-1.39,1.392-1.39h47.267C94.251,67.809,94.873,68.432,94.873,69.199z M65.678,101.175H46.216
	c-0.769,0-1.392,0.622-1.392,1.392v2.781c0,0.766,0.623,1.389,1.392,1.389h19.462c0.769,0,1.391-0.623,1.391-1.389v-2.781
	C67.069,101.797,66.446,101.175,65.678,101.175z M121.288,67.809h-19.462c-0.77,0-1.391,0.623-1.391,1.39v2.78
	c0,0.769,0.624,1.391,1.391,1.391h19.462c0.769,0,1.392-0.623,1.392-1.391v-2.78C122.68,68.432,122.057,67.809,121.288,67.809z"/>
<path fill="#FF6466" d="M55.946,80.321v2.78c0,0.769-0.622,1.39-1.39,1.39h-8.341c-0.769,0-1.392-0.622-1.392-1.39v-2.78
	c0-0.768,0.623-1.39,1.392-1.39h8.341C55.324,78.931,55.946,79.554,55.946,80.321z M54.557,90.053h-8.341
	c-0.769,0-1.392,0.622-1.392,1.391v2.78c0,0.768,0.623,1.391,1.392,1.391h8.341c0.768,0,1.39-0.623,1.39-1.391v-2.78
	C55.946,90.675,55.324,90.053,54.557,90.053z"/>
<path fill="#FFE59C" d="M85.826,91.443v2.78c0,0.768-0.622,1.391-1.39,1.391h-21.54c-0.767,0-1.389-0.623-1.389-1.391v-2.78
	c0-0.769,0.623-1.391,1.389-1.391h21.54C85.204,90.053,85.826,90.675,85.826,91.443z M84.437,78.931h-21.54
	c-0.767,0-1.389,0.623-1.389,1.39v2.78c0,0.769,0.623,1.39,1.389,1.39h21.54c0.768,0,1.39-0.622,1.39-1.39v-2.78
	C85.826,79.554,85.204,78.931,84.437,78.931z"/>
<path fill="#97F0F2" d="M83.195,154.255H74.02c-2.303,0-4.17-1.868-4.17-4.171V89.876c0-2.302,1.867-4.17,4.17-4.17h9.175
	c2.304,0,4.172,1.868,4.172,4.17v60.208C87.367,152.387,85.499,154.255,83.195,154.255z"/>
<path fill="#C0FBFF" d="M167.443,100.063c0,22.104-10.531,41.748-26.846,54.192H81.805c-2.303,0-4.17-1.868-4.17-4.171V89.876
	c0-2.302,1.867-4.17,4.17-4.17h84.118C166.917,90.335,167.443,95.136,167.443,100.063z"/>
<path fill="#02CC69" d="M90.059,91.266h-20.21v-8.34c0-3.072,2.49-5.563,5.562-5.563h14.612c3.116,0,5.848,2.094,6.651,5.104
	c0.013,0.046,0.024,0.092,0.036,0.138C97.869,86.979,94.583,91.266,90.059,91.266z"/>
<path fill="#54D680" d="M166.88,91.266H77.635v-8.34c0-3.071,2.49-5.563,5.56-5.563h80.372
	C165.137,81.806,166.261,86.457,166.88,91.266z"/>
<path fill="#00B96F" d="M81.548,84.316c0,1.771-1.436,3.207-3.207,3.207c-1.773,0-3.209-1.437-3.209-3.207
	c0-1.773,1.437-3.209,3.208-3.209S81.548,82.543,81.548,84.316z M89.035,81.107c-1.771,0-3.209,1.436-3.209,3.209
	c0,1.771,1.438,3.207,3.209,3.207s3.208-1.437,3.208-3.207C92.243,82.543,90.808,81.107,89.035,81.107z M99.728,81.107
	c-1.772,0-3.207,1.436-3.207,3.209c0,1.771,1.436,3.207,3.207,3.207c1.772,0,3.208-1.437,3.208-3.207
	C102.938,82.543,101.5,81.107,99.728,81.107z"/>
<path fill="#258CCF" d="M96.858,118.399l6.029,13.393h-3.86l-1.125-2.751h-6.274l-1.156,2.751H86.75l6.081-13.393H96.858z
	 M92.595,126.732h4.364l-2.152-5.27L92.595,126.732"/>
<path fill="#258CCF" d="M126.129,118.399l6.029,13.393h-3.859l-1.125-2.751h-6.275l-1.153,2.751h-3.723l6.081-13.393H126.129z
	 M121.867,126.732h4.363l-2.152-5.27L121.867,126.732"/>
<polygon fill="#258CCF" points="142.586,124.86 148.123,131.792 143.8,131.792 140.563,127.227 137.141,131.792 133.006,131.792 
	138.483,124.971 133.271,118.399 137.523,118.399 140.563,122.764 143.684,118.399 147.8,118.399 "/>
<path fill="#258CCF" d="M114.247,112.676l4.977,4.977l-1.769,1.768l-1.617-1.623v0.603v9.514c0,1.136,0.185,4.586-6.133,4.586
	c-7.194,0-6.978-3.751-6.978-5.326v-0.308h3.78v0.308c0.028,1.038,0.159,2.63,3.197,2.63c2.992,0,2.953-1.691,2.953-2.34v-9.063
	v-0.61l-1.624,1.621l-1.763-1.758L114.247,112.676z"/>
<path fill="#258CCF" d="M109.131,105.915c7.194,0,6.979,3.751,6.979,5.325v0.309h-3.783v-0.309
	c-0.028-1.037-0.161-2.626-3.195-2.626c-2.996,0-2.953,1.688-2.953,2.335v9.066v0.61l1.623-1.62l1.762,1.758l-4.977,4.976
	l-4.975-4.976l1.769-1.768l1.616,1.623v-0.604v-9.513C102.996,109.363,102.813,105.915,109.131,105.915z"/>
</svg>
