<?xml version="1.0" encoding="utf-8"?>
<!-- Generator: Adobe Illustrator 16.0.0, SVG Export Plug-In . SVG Version: 6.00 Build 0)  -->
<!DOCTYPE svg PUBLIC "-//W3C//DTD SVG 1.1//EN" "http://www.w3.org/Graphics/SVG/1.1/DTD/svg11.dtd">
<svg version="1.1" id="Layer_1" xmlns="http://www.w3.org/2000/svg" xmlns:xlink="http://www.w3.org/1999/xlink" x="0px" y="0px"
	 width="180px" height="180px" viewBox="10 10 180 180" enable-background="new 10 10 180 180" xml:space="preserve">
<g>
	<path fill="#FFFFFF" d="M100,185.5c-47.145,0-85.5-38.355-85.5-85.5S52.855,14.5,100,14.5s85.5,38.355,85.5,85.5
		C185.5,147.144,147.145,185.5,100,185.5z"/>
	<path fill="#F3F3F3" d="M100,19c44.663,0,81,36.336,81,81c0,44.662-36.337,81-81,81c-44.664,0-81-36.338-81-81
		C19,55.336,55.336,19,100,19 M100,10c-49.706,0-90,40.294-90,90s40.294,90,90,90s90-40.294,90-90S149.706,10,100,10L100,10z"/>
</g>
<circle fill="#F24976" cx="99.475" cy="100.169" r="61.422"/>
<rect x="88.253" y="132.19" fill="#445EA0" width="22.444" height="11.138"/>
<rect x="88.253" y="132.19" fill="#2E4C89" width="4.973" height="11.138"/>
<path fill="#293D7C" d="M121.811,149.757c0,0.609-0.499,1.109-1.11,1.109H78.247c-0.61,0-1.109-0.501-1.109-1.109v-5.567
	c0-0.609,0.5-1.109,1.109-1.109H120.7c0.611,0,1.11,0.5,1.11,1.109V149.757L121.811,149.757z"/>
<path fill="#1A2B63" d="M82.112,149.757v-5.567c0-0.609,0.5-1.109,1.109-1.109h-4.973c-0.611,0-1.11,0.5-1.11,1.109v5.567
	c0,0.609,0.5,1.109,1.11,1.109h4.973C82.612,150.866,82.112,150.365,82.112,149.757z"/>
<path fill="#293D7C" d="M162.198,46.736H36.75c-0.8,0-1.456,0.654-1.456,1.455v82.795c0,0.8,0.655,1.454,1.456,1.454h86.358v-4.349
	c0-0.443,0.358-0.802,0.802-0.802h3.383c0.689,0,1.407-0.513,1.634-1.165l0.64-1.533c0.301-0.606,0.156-1.475-0.336-1.962
	l-2.386-2.366c-0.15-0.15-0.235-0.352-0.235-0.563c0-0.215,0.085-0.415,0.235-0.564l4.327-4.295c0.152-0.15,0.356-0.235,0.572-0.235
	s0.42,0.085,0.569,0.235l2.388,2.367c0.306,0.304,0.775,0.485,1.262,0.485c0.262,0,0.51-0.056,0.72-0.155l1.554-0.639
	c0.643-0.218,1.152-0.935,1.152-1.628v-3.339c0-0.441,0.36-0.802,0.805-0.802h6.127c0.442,0,0.803,0.358,0.803,0.802v3.339
	c0,0.693,0.514,1.409,1.166,1.632l1.558,0.64c0.193,0.095,0.442,0.149,0.703,0.149c0.483,0,0.956-0.182,1.262-0.485l2.387-2.367
	c0.151-0.151,0.354-0.234,0.571-0.234s0.419,0.083,0.57,0.234l4.328,4.294c0.151,0.149,0.233,0.352,0.233,0.564
	c0,0.214-0.082,0.415-0.233,0.564l-2.386,2.367c-0.492,0.487-0.637,1.355-0.329,1.976l0.637,1.533
	c0.221,0.637,0.939,1.149,1.631,1.149h3.382c0.442,0,0.803,0.358,0.803,0.804v3.706c0.159-0.232,0.25-0.511,0.25-0.813V48.191
	C163.654,47.391,162.999,46.736,162.198,46.736z"/>
<path fill="#FFFFFF" d="M41.681,117.893c0,0.48,0.393,0.874,0.873,0.874h84.662l3.955-3.926c0.151-0.149,0.356-0.233,0.571-0.233
	c0.217,0,0.421,0.084,0.573,0.233l2.386,2.369c0.306,0.303,0.776,0.483,1.261,0.483c0.262,0,0.509-0.054,0.72-0.154l1.556-0.638
	c0.641-0.218,1.151-0.936,1.151-1.628v-3.338c0-0.443,0.359-0.804,0.804-0.804h6.127c0.442,0,0.803,0.359,0.803,0.804v3.338
	c0,0.692,0.513,1.409,1.168,1.633l1.556,0.639c0.194,0.095,0.442,0.147,0.703,0.147c0.485,0,0.957-0.181,1.263-0.483l2.386-2.367
	c0.15-0.151,0.354-0.234,0.571-0.234c0.216,0,0.42,0.083,0.571,0.234l1.928,1.913V61.037H41.681V117.893z"/>
<path fill="#D9EAFC" d="M46.656,117.893V61.037h-4.975v56.855c0,0.48,0.393,0.874,0.873,0.874h4.975
	C47.048,118.767,46.656,118.374,46.656,117.893z"/>
<g>
	<path fill="#FF9518" d="M97.875,99.55c-2.29-2.288-5.638-2.885-8.479-1.793l-9.592-9.591l-1.929,1.928
		c-0.053,0.053-0.08,0.129-0.072,0.204c0.059,0.565-0.096,1.123-0.436,1.571c-0.063,0.083-0.067,0.197-0.013,0.285
		c0.535,0.849,0.478,1.88-0.129,2.542l7.616,7.615c-1.093,2.845-0.496,6.191,1.792,8.479c1.981,1.981,4.784,2.768,7.499,2.104
		c0.072-0.02,0.138-0.057,0.189-0.107c0.048-0.047,0.084-0.108,0.104-0.174c0.039-0.143,0-0.292-0.104-0.396l-4.892-4.892
		l4.979-4.98l4.892,4.894c0.104,0.103,0.252,0.143,0.395,0.103c0.066-0.018,0.127-0.055,0.175-0.103
		c0.05-0.051,0.088-0.116,0.106-0.188C100.64,104.333,99.855,101.531,97.875,99.55z"/>
	<path fill="#FF9518" d="M72.631,88.3c0.43,0,0.856,0.127,1.235,0.364c0.042,0.026,0.087,0.038,0.132,0.038
		c0.055,0,0.108-0.017,0.153-0.05c0.385-0.293,0.848-0.448,1.338-0.448c0.077,0,0.155,0.003,0.232,0.012
		c0.009,0.001,0.018,0.002,0.026,0.002c0.066,0,0.13-0.026,0.177-0.074l1.929-1.929l-9.591-9.592
		c1.092-2.844,0.496-6.192-1.792-8.479c-1.981-1.981-4.785-2.768-7.499-2.104c-0.073,0.018-0.138,0.055-0.188,0.106
		c-0.048,0.048-0.084,0.108-0.104,0.177c-0.04,0.14,0,0.29,0.104,0.393l4.894,4.893l-4.98,4.98l-4.893-4.894
		c-0.103-0.104-0.254-0.143-0.394-0.104c-0.068,0.019-0.128,0.055-0.176,0.104c-0.052,0.05-0.089,0.115-0.106,0.188
		c-0.664,2.713,0.123,5.517,2.104,7.498c2.289,2.289,5.637,2.884,8.479,1.792l7.617,7.617C71.671,88.476,72.131,88.3,72.631,88.3z"
		/>
</g>
<circle fill="#445EA0" cx="99.475" cy="125.577" r="3.926"/>
<path fill="#5DC1D8" d="M156.395,54.156H42.554c-0.48,0-0.873,0.393-0.873,0.872v6.26h115.585v-6.26
	C157.267,54.548,156.874,54.156,156.395,54.156z"/>
<path fill="#28A5A5" d="M47.528,54.156h-4.975c-0.48,0-0.873,0.393-0.873,0.872v6.26h4.975v-6.26
	C46.656,54.548,47.048,54.156,47.528,54.156z"/>
<path fill="#FF9518" d="M139.138,150.313c0,0.581,0.475,1.055,1.054,1.055h6.127c0.58,0,1.053-0.476,1.053-1.055v-3.338
	c0-0.58,0.449-1.207,0.998-1.396l1.57-0.642c0.522-0.255,1.284-0.129,1.694,0.28l2.386,2.368c0.411,0.406,1.084,0.406,1.496,0
	l4.326-4.296c0.413-0.405,0.413-1.075,0-1.482l-2.384-2.368c-0.413-0.406-0.538-1.166-0.281-1.687l0.644-1.548
	c0.19-0.547,0.82-0.995,1.399-0.995h3.381c0.582,0,1.054-0.473,1.054-1.053v-6.064c0-0.58-0.474-1.054-1.054-1.054h-3.381
	c-0.579,0-1.209-0.447-1.399-0.994l-0.644-1.549c-0.256-0.519-0.132-1.279,0.281-1.686l2.384-2.369c0.413-0.407,0.413-1.075,0-1.482
	l-4.326-4.295c-0.412-0.41-1.085-0.41-1.496,0l-2.386,2.366c-0.412,0.409-1.172,0.536-1.694,0.281l-1.57-0.644
	c-0.549-0.188-0.998-0.815-0.998-1.394v-3.34c0-0.579-0.473-1.055-1.053-1.055h-6.127c-0.579,0-1.054,0.476-1.054,1.055v3.34
	c0,0.578-0.448,1.206-0.996,1.394l-1.571,0.644c-0.52,0.253-1.282,0.128-1.693-0.281l-2.386-2.366c-0.413-0.41-1.084-0.41-1.496,0
	l-4.328,4.295c-0.412,0.407-0.412,1.075,0,1.482l2.386,2.369c0.412,0.406,0.538,1.167,0.281,1.686l-0.645,1.549
	c-0.19,0.547-0.82,0.994-1.398,0.994h-3.383c-0.58,0-1.053,0.474-1.053,1.054v6.064c0,0.58,0.475,1.053,1.053,1.053h3.383
	c0.578,0,1.208,0.448,1.398,0.995l0.645,1.548c0.256,0.521,0.132,1.28-0.281,1.687l-2.386,2.368c-0.412,0.407-0.412,1.077,0,1.482
	l4.328,4.296c0.412,0.406,1.083,0.406,1.496,0l2.386-2.368c0.411-0.408,1.174-0.535,1.693-0.282l1.571,0.646
	c0.548,0.187,0.996,0.815,0.996,1.396V150.313L139.138,150.313z"/>
<path fill="#FFAF10" d="M143.256,140.868c-5.422,0-9.817-4.362-9.817-9.743c0-5.382,4.396-9.741,9.817-9.741
	c5.421,0,9.817,4.361,9.817,9.741C153.073,136.506,148.677,140.868,143.256,140.868z"/>
<path fill="#FF9518" d="M136.426,131.125c0-4.877,3.608-8.917,8.323-9.631c-0.487-0.073-0.985-0.11-1.493-0.11
	c-5.422,0-9.817,4.361-9.817,9.741c0,5.381,4.396,9.743,9.817,9.743c0.508,0,1.006-0.038,1.493-0.111
	C140.034,140.041,136.426,136.001,136.426,131.125z"/>
<path fill="#DB722C" d="M143.256,142.448c-6.285,0-11.399-5.081-11.399-11.323c0-6.243,5.114-11.322,11.399-11.322
	c6.283,0,11.398,5.079,11.398,11.322C154.654,137.367,149.539,142.448,143.256,142.448z M143.256,122.962
	c-4.542,0-8.236,3.662-8.236,8.162c0,4.502,3.694,8.163,8.236,8.163c4.543,0,8.234-3.661,8.236-8.163
	C151.492,126.625,147.797,122.962,143.256,122.962z"/>
<path fill="#FFAF10" d="M143.256,135.244c-2.292,0-4.148-1.846-4.148-4.119c0-2.274,1.856-4.12,4.148-4.12
	c2.293,0,4.149,1.846,4.149,4.12C147.405,133.398,145.547,135.244,143.256,135.244z"/>
<path fill="#FF9518" d="M142.091,131.125c0-1.752,1.104-3.244,2.658-3.84c-0.465-0.177-0.966-0.279-1.493-0.279
	c-2.292,0-4.148,1.844-4.148,4.118s1.856,4.119,4.148,4.119c0.527,0,1.029-0.101,1.493-0.278
	C143.194,134.369,142.091,132.876,142.091,131.125z"/>
<path fill="#DB722C" d="M143.256,136.825c-3.161,0-5.73-2.557-5.73-5.7c0-3.143,2.569-5.699,5.73-5.699
	c3.16,0,5.729,2.557,5.729,5.699C148.985,134.269,146.415,136.825,143.256,136.825z M143.256,128.586
	c-1.418,0-2.569,1.139-2.569,2.538s1.151,2.538,2.569,2.538c1.416,0,2.569-1.139,2.569-2.538S144.672,128.586,143.256,128.586z"/>
<g>
	<path fill="#445EA0" d="M70.504,92.8l2.714,2.716c0.226,0.225,0.394,0.488,0.503,0.766l1.176-1.176
		c-0.277-0.12-0.535-0.293-0.755-0.513l-2.715-2.716c-0.226-0.225-0.397-0.483-0.515-0.753l-1.176,1.176
		C70.02,92.41,70.281,92.578,70.504,92.8z"/>
	<path fill="#445EA0" d="M98.656,68.771l-1.409-1.408c-0.155-0.157-0.448-0.205-0.646-0.108l-3.138,1.531
		c-0.199,0.098-0.44,0.339-0.538,0.538l-1.396,2.86L75.748,87.966c-0.697-0.072-1.413,0.148-1.95,0.656
		c0.179,0.105,0.349,0.233,0.5,0.384l2.715,2.715c0.154,0.153,0.281,0.322,0.385,0.499c0.507-0.538,0.726-1.253,0.655-1.949
		l15.782-15.783l2.86-1.395c0.2-0.097,0.44-0.339,0.538-0.54l1.532-3.138C98.86,69.218,98.812,68.928,98.656,68.771z"/>
</g>
<path fill="#293D7C" d="M77.349,94.928c-0.886,0.888-2.41,0.816-3.385-0.159l-2.715-2.715c-0.975-0.976-1.047-2.498-0.161-3.385
	c0.887-0.888,2.411-0.816,3.386,0.16l2.714,2.715C78.164,92.519,78.236,94.042,77.349,94.928z"/>
<g>
	<path fill="#69CDFF" d="M143.204,73.089h-33.06c-1.038,0-1.879-0.843-1.879-1.88c0-1.039,0.841-1.88,1.879-1.88h33.06
		c1.038,0,1.882,0.842,1.882,1.88C145.086,72.247,144.242,73.089,143.204,73.089z"/>
	<path fill="#69CDFF" d="M143.204,79.227h-33.06c-1.038,0-1.879-0.841-1.879-1.879c0-1.039,0.841-1.881,1.879-1.881h33.06
		c1.038,0,1.882,0.842,1.882,1.881C145.086,78.386,144.242,79.227,143.204,79.227z"/>
	<path fill="#69CDFF" d="M143.204,85.367h-33.06c-1.038,0-1.879-0.841-1.879-1.88c0-1.038,0.841-1.88,1.879-1.88h33.06
		c1.038,0,1.882,0.843,1.882,1.88C145.086,84.525,144.242,85.367,143.204,85.367z"/>
</g>
<g>
	<path fill="#37C47A" d="M143.204,95.65h-33.06c-1.038,0-1.879-0.842-1.879-1.879c0-1.039,0.841-1.88,1.879-1.88h33.06
		c1.038,0,1.882,0.842,1.882,1.88C145.086,94.809,144.242,95.65,143.204,95.65z"/>
	<path fill="#37C47A" d="M143.204,101.789h-33.06c-1.038,0-1.879-0.84-1.879-1.88c0-1.038,0.841-1.879,1.879-1.879h33.06
		c1.038,0,1.882,0.842,1.882,1.879C145.086,100.949,144.242,101.789,143.204,101.789z"/>
	<path fill="#37C47A" d="M126.571,107.928h-16.427c-1.039,0-1.881-0.841-1.881-1.881c0-1.037,0.842-1.879,1.881-1.879h16.427
		c1.038,0,1.879,0.842,1.879,1.879C128.45,107.088,127.61,107.928,126.571,107.928z"/>
</g>
<path fill="#293D7C" d="M61.765,110.514c-0.975,0.976-2.57,0.976-3.545,0l-2.715-2.715c-0.975-0.975-0.975-2.569,0-3.545
	l11.632-11.631c0.975-0.975,2.569-0.975,3.545,0l2.715,2.716c0.975,0.975,0.975,2.57,0,3.546L61.765,110.514z"/>
<g>
	<path fill="#1A2B63" d="M59.727,107.8c-0.975-0.975-0.975-2.57,0-3.546l11.292-11.292l-0.338-0.338
		c-0.976-0.975-2.569-0.975-3.545,0l-11.632,11.63c-0.975,0.976-0.975,2.57,0,3.545l2.715,2.715c0.975,0.976,2.571,0.976,3.545,0
		l0.338-0.338L59.727,107.8z"/>
	<path fill="#1A2B63" d="M72.719,90.298c0.887-0.887,2.41-0.815,3.385,0.161l-1.629-1.63c-0.976-0.975-2.499-1.048-3.386-0.16
		s-0.814,2.41,0.16,3.386l1.63,1.629C71.905,92.707,71.833,91.186,72.719,90.298z"/>
</g>
</svg>
