<?xml version="1.0" encoding="utf-8"?>
<!-- Generator: Adobe Illustrator 16.0.0, SVG Export Plug-In . SVG Version: 6.00 Build 0)  -->
<!DOCTYPE svg PUBLIC "-//W3C//DTD SVG 1.1//EN" "http://www.w3.org/Graphics/SVG/1.1/DTD/svg11.dtd">
<svg version="1.1" id="Layer_1" xmlns="http://www.w3.org/2000/svg" xmlns:xlink="http://www.w3.org/1999/xlink" x="0px" y="0px"
	 width="180px" height="180px" viewBox="10 10 180 180" enable-background="new 10 10 180 180" xml:space="preserve">
<g>
	<path fill="#FFFFFF" d="M100,185.5c-47.145,0-85.5-38.355-85.5-85.5S52.855,14.5,100,14.5s85.5,38.355,85.5,85.5
		C185.5,147.144,147.145,185.5,100,185.5z"/>
	<path fill="#F3F3F3" d="M100,19c44.663,0,81,36.336,81,81c0,44.662-36.337,81-81,81c-44.664,0-81-36.338-81-81
		C19,55.336,55.336,19,100,19 M100,10c-49.706,0-90,40.294-90,90s40.294,90,90,90s90-40.294,90-90S149.706,10,100,10L100,10z"/>
</g>
<g>
	<circle fill="#F1333F" cx="100" cy="100" r="59.606"/>
	<g>
		<polygon fill="#FFFFFF" points="150.414,126.28 150.414,59.272 48.898,59.272 48.898,136.334 150.414,136.334 		"/>
		<g>
			<rect x="48.898" y="59.272" fill="#E0E0E0" width="101.516" height="9.917"/>
		</g>
		<g>
			<circle fill="#FF6838" cx="55.013" cy="64.229" r="2.749"/>
			<circle fill="#FF6838" cx="63.258" cy="64.229" r="2.749"/>
			<circle fill="#FF6838" cx="71.504" cy="64.229" r="2.749"/>
		</g>
	</g>
	<g>
		<path fill="#945C87" d="M122.484,94.679c-1.167,0.412-1.854,1.546-2.472,2.542c-1.306,2.301-1.648,5.289-0.447,7.728
			c0.31,0.686,0.894,1.34,1.683,1.373c0.858,0.035,1.614-0.515,2.232-1.099c1.339-1.307,1.924-3.162,2.128-4.979
			c0.207-1.683-0.066-3.505-1.064-4.946C124.131,94.713,123.24,94.439,122.484,94.679z"/>
		<path fill="#945C87" d="M104.627,94.679c-1.063,0.344-1.751,1.34-2.335,2.233c-1.443,2.335-1.855,5.391-0.688,7.897
			c0.31,0.652,0.791,1.374,1.582,1.512c0.823,0.137,1.58-0.345,2.162-0.859c1.304-1.133,1.958-2.816,2.302-4.499
			c0.343-1.888,0.171-3.983-0.928-5.631C106.277,94.713,105.383,94.439,104.627,94.679z"/>
		<path fill="#945C87" d="M131.964,84.585c-1.202-1.1-2.851-1.718-4.5-1.683c-18.956,0-37.877,0-56.8,0
			c-2.505,0-4.91,1.648-5.872,3.949c-0.447,0.996-0.549,2.094-0.549,3.16c0.035,7.073,0,14.184,0.035,21.29
			c0.033,3.265,2.884,6.185,6.146,6.285c9.101,0.034,18.201-0.034,27.268,0.034c4.154,2.232,8.207,4.568,12.327,6.835
			c-0.927-2.302-1.854-4.567-2.781-6.869c6.901,0,13.806,0.034,20.707,0c3.263-0.067,6.114-3.021,6.146-6.285
			c0-7.279,0-14.525,0-21.771C134.125,87.675,133.336,85.82,131.964,84.585z M92.848,111.712c0.069,1.065-0.446,2.337-1.58,2.61
			c-1.063,0.243-2.061-0.48-2.747-1.237c-3.091-3.329-4.842-7.623-6.113-11.915c-1.272,2.508-2.541,5.049-3.777,7.556
			c-0.858,1.716-1.786,3.469-3.159,4.842c-0.583,0.583-1.58,1.098-2.335,0.515c-1.134-0.997-1.409-2.575-1.889-3.916
			c-1.819-6.283-2.851-12.774-3.915-19.229c-0.241-1.066,0.206-2.371,1.271-2.783c0.858-0.309,1.992-0.378,2.713,0.275
			c0.515,0.447,0.653,1.169,0.756,1.82c0.755,5.014,1.614,9.994,2.85,14.906c2.061-3.917,4.121-7.832,6.182-11.78
			c0.309-0.583,0.687-1.168,1.236-1.512c0.755-0.481,1.855-0.446,2.507,0.24c0.516,0.55,0.722,1.34,0.86,2.061
			c0.617,3.228,1.441,6.456,2.644,9.513c0.515-4.635,1.168-9.341,2.85-13.703c0.378-0.927,0.722-1.854,1.341-2.61
			c1.03-1.099,3.02-0.756,3.812,0.515c0.412,0.654,0.445,1.546,0.103,2.232c-1.443,2.884-2.061,6.08-2.611,9.204
			C93.191,103.403,92.643,107.559,92.848,111.712z M110.775,106.288c-0.857,1.58-1.958,3.125-3.538,4.052
			c-2.302,1.407-5.392,1.237-7.625-0.241c-1.785-1.235-2.782-3.298-3.195-5.356c-0.823-4.705,0.586-9.924,4.122-13.188
			c1.03-0.926,2.302-1.511,3.64-1.682c2.232-0.274,4.637,0.479,6.147,2.163c1.235,1.408,1.923,3.229,2.164,5.047
			C112.869,100.209,112.285,103.505,110.775,106.288z M128.668,106.184c-0.861,1.616-1.993,3.195-3.642,4.156
			c-2.197,1.339-5.151,1.202-7.35-0.102c-1.476-0.894-2.472-2.404-3.056-4.02c-1.547-4.91-0.24-10.68,3.331-14.388
			c1.169-1.031,2.575-1.787,4.052-1.958c2.164-0.274,4.534,0.412,6.045,2.026c1.373,1.478,2.095,3.434,2.302,5.425
			C130.658,100.347,130.109,103.505,128.668,106.184z"/>
	</g>
</g>
</svg>
