<?xml version="1.0" encoding="utf-8"?>
<!-- Generator: Adobe Illustrator 16.0.0, SVG Export Plug-In . SVG Version: 6.00 Build 0)  -->
<!DOCTYPE svg PUBLIC "-//W3C//DTD SVG 1.1//EN" "http://www.w3.org/Graphics/SVG/1.1/DTD/svg11.dtd">
<svg version="1.1" id="Layer_1" xmlns="http://www.w3.org/2000/svg" xmlns:xlink="http://www.w3.org/1999/xlink" x="0px" y="0px"
	 width="180px" height="180px" viewBox="10 10 180 180" enable-background="new 10 10 180 180" xml:space="preserve">
<g>
	<path fill="#FFFFFF" d="M100,185.5c-47.145,0-85.5-38.355-85.5-85.5c0-47.145,38.355-85.5,85.5-85.5s85.5,38.355,85.5,85.5
		C185.5,147.144,147.145,185.5,100,185.5z"/>
	<path fill="#F3F3F3" d="M100,19c44.663,0,81,36.336,81,81c0,44.662-36.337,81-81,81c-44.664,0-81-36.338-81-81
		C19,55.336,55.336,19,100,19 M100,10c-49.706,0-90,40.294-90,90c0,49.706,40.294,90,90,90s90-40.294,90-90
		C190,50.294,149.706,10,100,10L100,10z"/>
</g>
<g>
	<path fill="#7ECD00" d="M57.006,142.988c-10.488-10.826-16.924-25.603-16.861-41.882c0.127-32.903,27.06-59.677,59.963-59.62
		c33.008,0.058,59.749,26.835,59.749,59.856c0,16.185-6.423,30.869-16.86,41.644c-0.242,0.251-0.603,0.347-0.938,0.252
		c-12.788-3.54-27.037-5.516-42.057-5.516c-15.021,0-29.271,1.976-42.06,5.518C57.606,143.332,57.248,143.237,57.006,142.988z"/>
	<path fill="#EE4424" d="M124.432,119.421H75.568c-2.024,0-3.665-1.64-3.665-3.663V63.23h56.192v52.528
		C128.096,117.78,126.455,119.421,124.432,119.421z"/>
	<path fill="#FC6930" d="M124.432,119.421H86.318V63.23h41.777v52.528C128.096,117.78,126.455,119.421,124.432,119.421z"/>
	<path fill="#E3AC6E" d="M77.041,126.969c8.417-3.056,14.583-10.368,15.509-19.128h14.899c0.925,8.761,7.092,16.072,15.509,19.128
		c-7.071,2.939-14.825,4.562-22.959,4.562C91.866,131.531,84.111,129.91,77.041,126.969z"/>
	<path fill="#EABE8D" d="M124.711,127.536c-7.533,3.419-15.899,5.322-24.711,5.322c-3.436,0-6.805-0.289-10.083-0.844
		c5.05-3.299,8.974-8.229,11.187-14.028c-4.311,0.257-8.695-0.988-12.312-3.734c-9.725-7.39-16.323-21.732-16.323-35.224
		c0-18.21,12.02-28.48,27.527-30.595c15.507,2.115,27.527,12.385,27.527,30.595c0,13.492-6.597,27.836-16.322,35.224
		c-0.507,0.384-1.025,0.737-1.558,1.063C112.57,121.155,118.039,125.65,124.711,127.536z"/>
	<path fill="#F3D6AC" d="M111.201,114.25c-0.029,0.021-0.059,0.045-0.088,0.066c-0.489,0.365-0.949,0.725-1.473,0.998
		c-4.601,2.396-10.448,1.202-13.817-2.958c-5.108-6.307-11.875-17.794-11.12-33.809c0.691-14.672,6.299-24.739,15.66-30.064
		c15.329,2.225,27.16,12.477,27.16,30.542C127.524,92.519,120.927,106.862,111.201,114.25L111.201,114.25z"/>
	<path fill="#EABE8D" d="M96.213,92.792c0-1.012,0.821-1.832,1.833-1.832h3.91c1.012,0,1.831,0.82,1.831,1.832
		c0,1.013-0.819,1.833-1.831,1.833h-3.91C97.034,94.624,96.213,93.804,96.213,92.792z M107.174,101.028
		c-0.512-0.873-1.633-1.166-2.507-0.655c-2.694,1.578-7.249,1.578-9.943,0c-0.874-0.512-1.996-0.219-2.508,0.655
		c-0.511,0.873-0.218,1.996,0.655,2.509c1.914,1.119,4.369,1.68,6.825,1.68c2.456,0,4.911-0.561,6.824-1.68
		C107.393,103.024,107.686,101.901,107.174,101.028z"/>
	<path fill="#7D402D" d="M91.754,83.997c0,2.023-1.64,3.665-3.665,3.665c-2.024,0-3.665-1.641-3.665-3.665
		c0-2.024,1.641-3.665,3.665-3.665C90.114,80.332,91.754,81.973,91.754,83.997z M111.299,80.332c-2.022,0-3.665,1.641-3.665,3.665
		c0,2.023,1.643,3.665,3.665,3.665c2.025,0,3.665-1.641,3.665-3.665S113.324,80.332,111.299,80.332z"/>
	<path fill="#FFF5F5" d="M92.365,82.165c0,1.013-0.821,1.833-1.833,1.833c-1.011,0-1.833-0.82-1.833-1.833
		c0-1.012,0.82-1.833,1.833-1.833C91.545,80.332,92.365,81.152,92.365,82.165z M113.742,80.332c-1.011,0-1.831,0.821-1.831,1.833
		c0,1.011,0.82,1.833,1.831,1.833c1.013,0,1.834-0.82,1.834-1.833C115.576,81.151,114.755,80.332,113.742,80.332z"/>
	<path fill="#EE4424" d="M128.096,68.605v8.062c0,0.27-0.219,0.489-0.488,0.489h-0.073c-1.299,0-6.82-8.117-9.466-10.462
		c-0.003-0.004-0.009-0.007-0.012-0.011c-0.688-0.609-1.689-0.696-2.486-0.238c-3.568,2.056-9.214,3.382-15.57,3.382
		c-6.356,0-12.002-1.327-15.572-3.382c-0.797-0.459-1.801-0.372-2.49,0.238c-0.005,0.004-0.008,0.007-0.013,0.011
		c-2.644,2.345-8.167,10.462-9.465,10.462h-0.067c-0.27,0-0.489-0.219-0.489-0.489v-8.062c0-15.517,12.579-28.097,28.096-28.097
		C115.518,40.509,128.096,53.087,128.096,68.605L128.096,68.605z"/>
	<path fill="#FC6930" d="M118.068,66.694c-0.005-0.004-0.009-0.007-0.012-0.011c-0.688-0.609-1.689-0.696-2.486-0.238
		c-3.568,2.056-9.214,3.382-15.57,3.382c-5.316,0-10.087-0.907-13.611-2.415c2.587-12.275,7.996-21.219,16.441-26.763
		c14.189,1.419,25.266,13.393,25.266,27.955v8.063c0,0.27-0.219,0.489-0.488,0.489h-0.073
		C126.235,77.156,120.714,69.039,118.068,66.694L118.068,66.694z"/>
	<path fill="#056099" d="M142.998,138.812v4.171C132.119,154.215,116.874,161.2,100,161.2c-16.875,0-32.118-6.984-42.998-18.217
		v-4.171c0-5.748,5.001-10.333,11.117-10.306c0.041,0,0.081,0,0.121,0c6.815,0,12.978-2.622,17.41-6.852L100,129.194l14.351-7.54
		c4.432,4.229,10.595,6.853,17.409,6.853c0.041,0,0.082,0,0.123,0C137.999,128.478,142.998,133.064,142.998,138.812L142.998,138.812
		z"/>
	<path fill="#0571B3" d="M100,161.2c-12.416,0-23.948-3.781-33.511-10.254c-0.786-7.418,4.333-13.949,11.37-14.664
		c0.047-0.005,0.093-0.01,0.14-0.015c7.09-0.756,13.271-4.219,17.729-9.317l4.271,2.243l14.352-7.54
		c4.431,4.229,10.594,6.852,17.409,6.852c0.04,0,0.081,0,0.122,0c6.115-0.027,11.116,4.558,11.116,10.306v4.172
		C132.119,154.215,116.874,161.2,100,161.2z"/>
	<path fill="#FFF5F5" d="M118.267,124.729l-10.756,15.059c-0.53,0.742-1.657,0.662-2.078-0.146l-4.789-8.814
		c-0.278-0.51-1.011-0.51-1.288,0l-4.79,8.814c-0.421,0.808-1.547,0.888-2.078,0.146l-10.755-15.059
		c-0.164-0.229-0.101-0.547,0.137-0.696l3.778-2.379l13.229,6.835c0.703,0.363,1.539,0.363,2.244,0l13.229-6.835l3.777,2.379
		C118.367,124.182,118.431,124.5,118.267,124.729z"/>
	<path fill="#0571B3" d="M129.929,68.727v14.554c0,16.502-13.427,29.929-29.929,29.929c-0.102,0-0.204-0.001-0.305-0.004v-3.662
		c0.102,0,0.204,0.001,0.305,0.001c14.481,0,26.264-11.782,26.264-26.264V68.727c0-14.48-11.782-26.264-26.264-26.264
		c-14.482,0-26.264,11.783-26.264,26.264v8.063h-3.665v-8.063c0-16.502,13.425-29.927,29.928-29.927
		C116.502,38.799,129.929,52.225,129.929,68.727L129.929,68.727z"/>
	<path fill="#012D4E" d="M74.347,81.513v4.854c0,1.34-1.087,2.427-2.427,2.427h-3.641c-2.681,0-4.854-2.173-4.854-4.855
		c0-2.681,2.173-4.854,4.854-4.854h3.641C73.261,79.087,74.347,80.173,74.347,81.513z M128.079,88.795h3.642
		c2.682,0,4.854-2.173,4.854-4.855c0-2.681-2.173-4.854-4.854-4.854h-3.642c-1.34,0-2.427,1.087-2.427,2.427v4.854
		C125.652,87.708,126.74,88.795,128.079,88.795z M100,107.205c-3.373,0-6.108,1.642-6.108,3.665s2.735,3.665,6.108,3.665
		s6.107-1.642,6.107-3.665S103.373,107.205,100,107.205z"/>
	<path fill="#059BC3" d="M74.347,77.874v12.135c0,1.341-1.087,2.428-2.427,2.428c-3.352,0-6.067-2.717-6.067-6.068v-4.854
		c0-3.352,2.717-6.068,6.067-6.068C73.261,75.445,74.347,76.532,74.347,77.874z M128.079,92.436c3.352,0,6.068-2.717,6.068-6.068
		v-4.854c0-3.352-2.718-6.068-6.068-6.068c-1.34,0-2.427,1.087-2.427,2.427v12.135C125.652,91.349,126.74,92.436,128.079,92.436z"/>
	<path fill="#013F69" d="M93.975,110.27c0.478-1.739,2.994-3.063,6.025-3.063c3.032,0,5.548,1.325,6.025,3.063
		c-1.535,0.674-3.667,1.09-6.025,1.09C97.642,111.36,95.51,110.944,93.975,110.27z M74.347,90.008V77.873
		c0-1.34-1.087-2.427-2.427-2.427c-0.453,0-0.895,0.049-1.318,0.144c-0.698,0.988-1.108,2.194-1.108,3.497v9.709
		c0,1.302,0.411,2.508,1.108,3.497c0.425,0.094,0.866,0.144,1.318,0.144C73.261,92.436,74.347,91.349,74.347,90.008z
		 M128.079,75.445c0.454,0,0.895,0.05,1.319,0.144c0.697,0.988,1.108,2.194,1.108,3.497v9.709c0,1.302-0.411,2.509-1.108,3.497
		c-0.425,0.094-0.865,0.144-1.319,0.144c-1.34,0-2.427-1.087-2.427-2.427V77.873C125.652,76.532,126.74,75.445,128.079,75.445z"/>
</g>
</svg>
