<?xml version="1.0" encoding="utf-8"?>
<!-- Generator: Adobe Illustrator 16.0.0, SVG Export Plug-In . SVG Version: 6.00 Build 0)  -->
<!DOCTYPE svg PUBLIC "-//W3C//DTD SVG 1.1//EN" "http://www.w3.org/Graphics/SVG/1.1/DTD/svg11.dtd">
<svg version="1.1" id="Layer_1" xmlns="http://www.w3.org/2000/svg" xmlns:xlink="http://www.w3.org/1999/xlink" x="0px" y="0px"
	 width="200px" height="200px" viewBox="0 0 200 200" enable-background="new 0 0 200 200" xml:space="preserve">
<g>
	<path fill="#FFFFFF" d="M100,195c-52.383,0-95-42.617-95-95C5,47.617,47.617,5,100,5s95,42.617,95,95
		C195,152.382,152.383,195,100,195z"/>
	<path fill="#F3F3F3" d="M100,10c49.626,0,90,40.374,90,90c0,49.625-40.374,90-90,90s-90-40.375-90-90C10,50.374,50.374,10,100,10
		 M100,0C44.771,0,0,44.771,0,100c0,55.228,44.771,100,100,100c55.229,0,100-44.771,100-100C200,44.771,155.229,0,100,0L100,0z"/>
</g>
<circle fill="#445EA0" cx="99.205" cy="100.462" r="68.261"/>
<path fill="#C3DDF4" d="M41.531,58.251v70.909c0,0.766,0.627,1.393,1.393,1.393h23.709c-1.768-4.202-2.746-8.815-2.746-13.652
	c0-19.475,15.844-35.319,35.318-35.319s35.318,15.844,35.318,35.319c0,4.837-0.978,9.45-2.746,13.652h23.709
	c0.767,0,1.394-0.627,1.394-1.393V58.251H41.531z"/>
<path fill="#AEC1ED" d="M47.059,129.161V58.251h-5.528v70.909c0,0.766,0.627,1.393,1.393,1.393h5.529
	C47.686,130.553,47.059,129.926,47.059,129.161z"/>
<path fill="#FFFFFF" d="M99.205,152.498c-19.628,0-35.597-15.968-35.597-35.597s15.969-35.597,35.597-35.597
	s35.597,15.968,35.597,35.597S118.833,152.498,99.205,152.498z"/>
<path fill="#293D7C" d="M154.094,43.902H44.317c-1.532,0-2.786,1.254-2.786,2.786V58.53H156.88V46.688
	C156.88,45.157,155.625,43.902,154.094,43.902z"/>
<g>
	<path fill="#1A2B63" d="M49.846,43.902h-5.529c-1.532,0-2.786,1.254-2.786,2.786V58.53h5.528V46.688
		C47.059,45.157,48.313,43.902,49.846,43.902z"/>
	<path fill="#1A2B63" d="M154.094,43.902h-20.944V58.53h23.73V46.688C156.88,45.157,155.625,43.902,154.094,43.902z"/>
</g>
<circle fill="#37C47A" cx="99.205" cy="116.884" r="28.322"/>
<path fill="#02AF8E" d="M76.411,116.884c0-14.708,11.214-26.798,25.558-28.188c-0.91-0.089-1.831-0.135-2.764-0.135
	c-15.642,0-28.322,12.681-28.322,28.322c0,15.645,12.681,28.323,28.322,28.323c0.933,0,1.854-0.046,2.764-0.134
	C87.625,143.684,76.411,131.595,76.411,116.884z"/>
<path fill="#0F9390" d="M129.617,116.884c0-16.768-13.644-30.412-30.412-30.412c-16.77,0-30.413,13.644-30.413,30.412
	c0,16.644,13.438,30.204,30.033,30.408c0.123,0.022,0.249,0.038,0.38,0.038c0.129,0,0.257-0.016,0.38-0.038
	C116.181,147.088,129.617,133.528,129.617,116.884z M73.055,118.974h9.725c0.132,3.77,0.621,7.33,1.404,10.573
	c-2.436,0.563-4.677,1.267-6.654,2.098C75.026,127.979,73.425,123.648,73.055,118.974z M77.529,102.124
	c1.978,0.831,4.219,1.534,6.654,2.1c-0.784,3.242-1.272,6.805-1.404,10.572h-9.725C73.425,110.123,75.026,105.791,77.529,102.124z
	 M125.354,114.795h-9.724c-0.133-3.768-0.62-7.33-1.404-10.572c2.436-0.565,4.678-1.269,6.653-2.1
	C123.386,105.791,124.985,110.123,125.354,114.795z M111.446,114.795h-10.152v-8.998c3.068-0.085,6.045-0.354,8.844-0.789
	C110.852,107.923,111.315,111.211,111.446,114.795z M101.294,101.615V91.082c2.884,1.162,5.677,4.661,7.608,9.878
	C106.479,101.314,103.915,101.536,101.294,101.615z M97.115,91.082v10.533c-2.62-0.077-5.184-0.301-7.607-0.654
	C91.439,95.741,94.232,92.244,97.115,91.082z M97.115,105.797v8.999H86.964c0.131-3.585,0.595-6.873,1.31-9.788
	C91.071,105.444,94.048,105.712,97.115,105.797z M86.964,118.974h10.151v8.999c-3.068,0.086-6.044,0.354-8.842,0.789
	C87.559,125.846,87.095,122.559,86.964,118.974z M97.115,132.157v10.532c-2.883-1.163-5.676-4.66-7.607-9.877
	C91.932,132.457,94.495,132.235,97.115,132.157z M101.294,142.687v-10.53c2.621,0.078,5.185,0.3,7.608,0.654
	C106.971,138.028,104.178,141.525,101.294,142.687z M101.294,127.973v-8.999h10.152c-0.131,3.585-0.595,6.872-1.309,9.788
	C107.339,128.327,104.362,128.059,101.294,127.973z M115.631,118.974h9.724c-0.369,4.674-1.969,9.005-4.474,12.674
	c-1.977-0.834-4.219-1.537-6.654-2.101C115.011,126.304,115.498,122.744,115.631,118.974z M118.115,98.722
	c-1.533,0.568-3.238,1.063-5.072,1.476c-1.015-2.903-2.29-5.451-3.772-7.537C112.626,94.061,115.632,96.138,118.115,98.722z
	 M89.139,92.661c-1.481,2.088-2.757,4.634-3.772,7.537c-1.832-0.413-3.538-0.908-5.071-1.476
	C82.778,96.138,85.783,94.061,89.139,92.661z M80.295,135.048c1.532-0.567,3.239-1.063,5.071-1.475
	c1.016,2.902,2.291,5.448,3.772,7.535C85.783,139.709,82.777,137.632,80.295,135.048z M109.27,141.109
	c1.483-2.087,2.758-4.633,3.773-7.535c1.834,0.412,3.539,0.907,5.072,1.475C115.632,137.632,112.626,139.709,109.27,141.109z"/>
<path fill="#E26693" d="M51.002,52.855c-0.551,0-1.089-0.223-1.479-0.61c-0.387-0.39-0.61-0.927-0.61-1.479
	c0-0.549,0.223-1.087,0.61-1.477c0.39-0.39,0.928-0.613,1.479-0.613c0.55,0,1.089,0.223,1.477,0.613
	c0.389,0.39,0.612,0.928,0.612,1.477c0,0.551-0.222,1.088-0.612,1.479C52.091,52.632,51.551,52.855,51.002,52.855z"/>
<path fill="#FFCA51" d="M57.854,52.855c-0.55,0-1.09-0.223-1.477-0.612c-0.39-0.389-0.613-0.925-0.613-1.477
	c0-0.549,0.223-1.087,0.613-1.477c0.391-0.39,0.927-0.613,1.477-0.613c0.552,0,1.089,0.223,1.479,0.613
	c0.388,0.39,0.61,0.928,0.61,1.477c0,0.549-0.223,1.088-0.61,1.477C58.943,52.632,58.406,52.855,57.854,52.855z"/>
<path fill="#37C47A" d="M64.71,52.855c-0.552,0-1.09-0.223-1.476-0.61c-0.391-0.39-0.613-0.927-0.613-1.479
	c0-0.549,0.222-1.087,0.613-1.477c0.386-0.39,0.924-0.613,1.476-0.613c0.549,0,1.09,0.223,1.477,0.613
	c0.39,0.39,0.613,0.928,0.613,1.477c0,0.551-0.223,1.088-0.613,1.479C65.796,52.632,65.259,52.855,64.71,52.855z"/>
<path fill="#FFFFFF" d="M131.804,65.356c0-0.459-0.376-0.836-0.836-0.836H67.442c-0.459,0-0.836,0.376-0.836,0.836v7.244
	c0,0.459,0.377,0.835,0.836,0.835h63.525c0.46,0,0.836-0.376,0.836-0.835V65.356z"/>
<path fill="#EEF6FF" d="M72.135,72.601v-7.244c0-0.459,0.376-0.836,0.836-0.836h-5.529c-0.459,0-0.836,0.376-0.836,0.836v7.244
	c0,0.459,0.377,0.835,0.836,0.835h5.529C72.512,73.436,72.135,73.06,72.135,72.601z"/>
<path fill="#445EA0" d="M148.242,52.855h-6.686c-1.155,0-2.091-0.935-2.091-2.089s0.936-2.09,2.091-2.09h6.686
	c1.154,0,2.09,0.936,2.09,2.09S149.396,52.855,148.242,52.855z"/>
</svg>
