<?xml version="1.0" encoding="utf-8"?>
<!-- Generator: Adobe Illustrator 16.0.0, SVG Export Plug-In . SVG Version: 6.00 Build 0)  -->
<!DOCTYPE svg PUBLIC "-//W3C//DTD SVG 1.1//EN" "http://www.w3.org/Graphics/SVG/1.1/DTD/svg11.dtd">
<svg version="1.1" id="Layer_1" xmlns="http://www.w3.org/2000/svg" xmlns:xlink="http://www.w3.org/1999/xlink" x="0px" y="0px"
	 width="200px" height="200px" viewBox="0 0 200 200" enable-background="new 0 0 200 200" xml:space="preserve">
<g>
	<path fill="#FFFFFF" d="M100,195c-52.383,0-95-42.617-95-95S47.617,5,100,5s95,42.617,95,95C195,152.382,152.383,195,100,195z"/>
	<path fill="#F3F3F3" d="M100,10c49.626,0,90,40.374,90,90c0,49.625-40.374,90-90,90s-90-40.375-90-90C10,50.374,50.374,10,100,10
		 M100,0C44.771,0,0,44.771,0,100c0,55.229,44.771,100,100,100c55.229,0,100-44.771,100-100C200,44.771,155.229,0,100,0L100,0z"/>
</g>
<g>
	<path fill="#006CBC" d="M146.99,96.225v46.351c0,4.606-2.172,8.933-5.84,11.717c-11.433,8.678-25.689,13.828-41.15,13.828
		c-37.622,0-68.122-30.499-68.122-68.12c0-37.651,30.783-68.291,68.433-68.122c29.456,0.131,54.492,18.959,63.863,45.227
		c1.135,3.183-1.217,6.531-4.597,6.531C152.625,83.637,146.99,89.273,146.99,96.225z"/>
	<path fill="#FFF1C5" d="M97.498,122.698H44.112c-2.303,0-4.171-1.867-4.171-4.171V58.32c0-2.303,1.868-4.171,4.171-4.171h53.386
		c2.304,0,4.17,1.868,4.17,4.171v60.207C101.668,120.831,99.802,122.698,97.498,122.698z"/>
	<path fill="#FFF5F5" d="M136.425,122.698H51.898c-2.304,0-4.172-1.867-4.172-4.171V58.32c0-2.303,1.868-4.171,4.172-4.171h84.526
		c2.303,0,4.17,1.868,4.17,4.171v60.207C140.595,120.831,138.728,122.698,136.425,122.698z"/>
	<path fill="#FFAA00" d="M140.595,51.368v8.341H39.941v-8.341c0-3.071,2.49-5.56,5.562-5.56h89.531
		C138.105,45.808,140.595,48.297,140.595,51.368z"/>
	<path fill="#FFCF48" d="M140.595,51.368v8.341H47.727v-8.341c0-3.071,2.49-5.56,5.562-5.56h81.746
		C138.105,45.808,140.595,48.297,140.595,51.368z"/>
	<path fill="#F48C03" d="M51.642,52.759c0,1.772-1.437,3.208-3.209,3.208c-1.771,0-3.208-1.436-3.208-3.208
		c0-1.772,1.437-3.208,3.208-3.208C50.205,49.55,51.642,50.987,51.642,52.759z M59.127,49.551c-1.771,0-3.208,1.436-3.208,3.208
		c0,1.772,1.437,3.208,3.208,3.208s3.208-1.436,3.208-3.208C62.335,50.988,60.898,49.551,59.127,49.551z M69.821,49.551
		c-1.772,0-3.209,1.436-3.209,3.208c0,1.772,1.437,3.208,3.209,3.208c1.771,0,3.208-1.436,3.208-3.208
		C73.029,50.987,71.593,49.551,69.821,49.551z"/>
	<path fill="#FFE266" d="M95.551,69.136v2.781c0,0.768-0.622,1.391-1.39,1.391H46.894c-0.769,0-1.391-0.623-1.391-1.391v-2.781
		c0-0.767,0.622-1.39,1.391-1.39h47.268C94.929,67.747,95.551,68.37,95.551,69.136z M66.356,101.111H46.894
		c-0.769,0-1.391,0.623-1.391,1.392v2.78c0,0.767,0.622,1.39,1.391,1.39h19.463c0.768,0,1.391-0.623,1.391-1.39v-2.78
		C67.747,101.734,67.124,101.111,66.356,101.111z M121.966,67.747h-19.463c-0.769,0-1.391,0.623-1.391,1.39v2.781
		c0,0.768,0.622,1.391,1.391,1.391h19.463c0.769,0,1.391-0.623,1.391-1.391v-2.781C123.356,68.37,122.734,67.747,121.966,67.747z"/>
	<path fill="#FF6466" d="M56.625,80.258v2.781c0,0.768-0.623,1.39-1.391,1.39h-8.341c-0.769,0-1.391-0.622-1.391-1.39v-2.781
		c0-0.767,0.622-1.39,1.391-1.39h8.341C56.002,78.869,56.625,79.492,56.625,80.258z M55.234,89.99h-8.341
		c-0.769,0-1.391,0.623-1.391,1.391v2.781c0,0.767,0.622,1.39,1.391,1.39h8.341c0.768,0,1.391-0.623,1.391-1.39V91.38
		C56.625,90.613,56.002,89.99,55.234,89.99z"/>
	<path fill="#FFE59C" d="M86.504,91.38v2.781c0,0.767-0.622,1.39-1.39,1.39H63.575c-0.767,0-1.39-0.623-1.39-1.39V91.38
		c0-0.768,0.623-1.391,1.39-1.391h21.539C85.882,89.99,86.504,90.613,86.504,91.38z M85.114,78.869H63.575
		c-0.767,0-1.39,0.623-1.39,1.39v2.781c0,0.768,0.623,1.39,1.39,1.39h21.539c0.768,0,1.39-0.622,1.39-1.39v-2.781
		C86.504,79.492,85.882,78.869,85.114,78.869z"/>
	<path fill="#97F0F2" d="M83.873,154.192h-9.176c-2.303,0-4.17-1.868-4.17-4.171V89.813c0-2.302,1.867-4.17,4.17-4.17h9.176
		c2.304,0,4.171,1.868,4.171,4.17v60.208C88.044,152.324,86.177,154.192,83.873,154.192z"/>
	<path fill="#C0FBFF" d="M168.122,100c0,22.105-10.532,41.747-26.848,54.193H82.483c-2.304,0-4.171-1.868-4.171-4.171V89.813
		c0-2.302,1.867-4.17,4.171-4.17h84.117C167.595,90.273,168.122,95.074,168.122,100z"/>
	<path fill="#02CC69" d="M90.737,91.205h-20.21v-8.342c0-3.072,2.489-5.562,5.562-5.562H90.7c3.116,0,5.848,2.094,6.651,5.104
		c0.013,0.047,0.023,0.093,0.036,0.139C98.546,86.917,95.261,91.205,90.737,91.205z"/>
	<path fill="#54D680" d="M167.558,91.205H78.313v-8.342c0-3.071,2.49-5.562,5.561-5.562h80.37
		C165.813,81.743,166.938,86.395,167.558,91.205z"/>
	<path fill="#00B96F" d="M82.227,84.253c0,1.771-1.437,3.208-3.208,3.208c-1.772,0-3.209-1.437-3.209-3.208
		c0-1.772,1.437-3.209,3.208-3.209C80.79,81.044,82.227,82.481,82.227,84.253z M89.713,81.044c-1.772,0-3.209,1.437-3.209,3.209
		c0,1.771,1.437,3.208,3.209,3.208c1.771,0,3.207-1.437,3.207-3.208C92.92,82.481,91.484,81.044,89.713,81.044z M100.406,81.044
		c-1.772,0-3.208,1.437-3.208,3.209c0,1.771,1.437,3.208,3.208,3.208c1.772,0,3.208-1.437,3.208-3.208
		C103.614,82.481,102.179,81.044,100.406,81.044z"/>
	<g id="brandmark" transform="matrix(1,0,0,1,-35,-35)">
		<path id="j-green" fill="#7AC143" d="M141.275,156.917l-0.746-0.746c-2.398-2.398-3.091-5.756-2.238-8.794
			c-2.397-0.532-4.156-2.664-4.156-5.222c0-2.932,2.397-5.329,5.329-5.329c2.664,0,4.85,1.918,5.275,4.476
			c2.878-0.692,6.022,0.107,8.261,2.346l0.319,0.319l-3.943,3.943l-0.32-0.319c-1.278-1.279-3.356-1.279-4.636,0
			s-1.279,3.357,0,4.636l8.847,8.847l-3.944,3.944l-4.156-4.157L141.275,156.917z"/>
		<path id="j-orange" fill="#F9A541" d="M145.699,152.547l4.156-4.157l3.943-3.943l0.746-0.746c2.346-2.345,5.756-3.091,8.74-2.238
			c0.373-2.611,2.611-4.583,5.275-4.583c2.932,0,5.33,2.398,5.33,5.329c0,2.718-2.025,4.956-4.637,5.276
			c0.853,2.984,0.106,6.342-2.238,8.687l-0.319,0.319l-3.837-3.943l0.319-0.32c1.278-1.278,1.278-3.356,0-4.636
			c-1.279-1.279-3.357-1.279-4.637,0l-0.746,0.746l-3.943,3.943l-4.157,4.156L145.699,152.547z"/>
		<path id="j-red" fill="#F44321" d="M163.445,172.425c-3.038,0.905-6.448,0.213-8.847-2.186l-0.32-0.319l3.944-3.943l0.319,0.32
			c1.279,1.278,3.357,1.278,4.637,0c1.278-1.279,1.278-3.358,0-4.637l-0.746-0.746l-3.944-3.944l-4.156-4.156l3.943-3.943
			l8.899,8.899c2.239,2.238,3.038,5.436,2.345,8.367c2.612,0.373,4.584,2.61,4.584,5.275c0,2.931-2.398,5.329-5.329,5.329
			C166.109,176.688,163.925,174.823,163.445,172.425z"/>
		<path id="j-blue" fill="#5091CD" d="M161.899,161.34l-4.156,4.157l-3.944,3.943l-0.746,0.746
			c-2.291,2.291-5.489,3.038-8.366,2.345c-0.533,2.398-2.665,4.156-5.223,4.156c-2.932,0-5.329-2.397-5.329-5.329
			c0-2.504,1.759-4.636,4.104-5.169c-0.747-2.984,0-6.182,2.291-8.474l0.32-0.319l3.943,3.943l-0.32,0.32
			c-1.278,1.278-1.278,3.357,0,4.637c1.279,1.278,3.357,1.278,4.637,0l0.746-0.747l3.943-3.943l4.157-4.157L161.899,161.34z"/>
	</g>
</g>
</svg>
