<?xml version="1.0" encoding="utf-8"?>
<!-- Generator: Adobe Illustrator 16.0.0, SVG Export Plug-In . SVG Version: 6.00 Build 0)  -->
<!DOCTYPE svg PUBLIC "-//W3C//DTD SVG 1.1//EN" "http://www.w3.org/Graphics/SVG/1.1/DTD/svg11.dtd">
<svg version="1.1" id="Layer_1" xmlns="http://www.w3.org/2000/svg" xmlns:xlink="http://www.w3.org/1999/xlink" x="0px" y="0px"
	 width="200px" height="200px" viewBox="0 0 200 200" enable-background="new 0 0 200 200" xml:space="preserve">
<g>
	<path fill="#FFFFFF" d="M100,195c-52.383,0-95-42.617-95-95S47.617,5,100,5s95,42.617,95,95C195,152.382,152.383,195,100,195z"/>
	<path fill="#F3F3F3" d="M100,10c49.626,0,90,40.374,90,90c0,49.625-40.374,90-90,90s-90-40.375-90-90C10,50.374,50.374,10,100,10
		 M100,0C44.771,0,0,44.771,0,100c0,55.229,44.771,100,100,100c55.229,0,100-44.771,100-100C200,44.771,155.229,0,100,0L100,0z"/>
</g>
<g>
	<circle fill="#F1333F" cx="100" cy="100" r="67.93"/>
	<g>
		<path fill="#FFFFFF" d="M146.151,138.126c0-4.698,3.92-8.618,8.617-8.618c0.934,0,1.836,0.157,2.684,0.442V53.585H41.761v87.823
			h105.058C146.39,140.393,146.151,139.283,146.151,138.126z"/>
		<g>
			<path fill="#E0E0E0" d="M146.151,138.126c0-4.698,3.92-8.618,8.617-8.618c0.936,0,1.839,0.158,2.688,0.443V53.585H99.608v87.823
				h47.21C146.39,140.393,146.151,139.283,146.151,138.126z"/>
			<rect x="41.761" y="53.585" fill="#E0E0E0" width="115.691" height="11.301"/>
		</g>
		<rect x="99.608" y="53.585" fill="#C0C0C0" width="57.848" height="11.301"/>
		<g>
			<circle fill="#FF6838" cx="48.73" cy="59.234" r="3.132"/>
			<circle fill="#FF6838" cx="58.128" cy="59.234" r="3.132"/>
			<circle fill="#FF6838" cx="67.524" cy="59.234" r="3.132"/>
		</g>
		<path fill="#005C83" d="M149.82,108.959l4.293-4.292c-2.454-3.512-5.512-6.569-9.023-9.023l-4.292,4.293
			c-3.05-1.978-6.477-3.422-10.148-4.206v-6.073c-2.071-0.366-4.204-0.559-6.38-0.559c-2.177,0-4.31,0.192-6.381,0.559v6.073
			c-3.672,0.783-7.098,2.229-10.147,4.205l-4.293-4.292c-3.512,2.454-6.569,5.512-9.023,9.022l4.293,4.293
			c-1.978,3.05-3.422,6.477-4.206,10.148h-6.073c-0.366,2.071-0.558,4.203-0.558,6.38s0.191,4.309,0.558,6.38h6.073
			c0.784,3.672,2.229,7.099,4.206,10.148l-4.293,4.293c2.454,3.511,5.512,6.568,9.023,9.022l4.293-4.293
			c3.05,1.978,6.476,3.423,10.147,4.206v6.074c2.071,0.366,4.204,0.558,6.381,0.558c2.176,0,4.309-0.191,6.38-0.558v-6.074
			c3.672-0.783,7.098-2.229,10.148-4.206l4.292,4.293c3.512-2.454,6.569-5.512,9.023-9.022l-4.293-4.293
			c1.978-3.05,3.422-6.477,4.206-10.148h6.073c0.366-2.071,0.559-4.203,0.559-6.38s-0.192-4.309-0.559-6.38h-6.073
			C153.242,115.436,151.798,112.01,149.82,108.959z M124.27,138.927c-7.423,0-13.439-6.017-13.439-13.438
			c0-7.423,6.017-13.439,13.439-13.439c7.422,0,13.438,6.017,13.438,13.439C137.708,132.91,131.69,138.927,124.27,138.927z"/>
		<path fill="#00263F" d="M160.1,131.868c0.366-2.071,0.558-4.203,0.558-6.38s-0.191-4.309-0.558-6.381h-6.074
			c-0.783-3.672-2.229-7.098-4.205-10.148l4.293-4.292c-2.454-3.512-5.512-6.569-9.023-9.023l-4.292,4.293
			c-3.05-1.978-6.477-3.423-10.148-4.206v-6.073c-2.071-0.366-4.204-0.559-6.38-0.559c-0.142,0-0.281,0.008-0.422,0.01v22.951
			c0.141-0.005,0.28-0.011,0.422-0.011c7.422,0,13.438,6.017,13.438,13.438s-6.017,13.439-13.438,13.439
			c-0.142,0-0.281-0.007-0.422-0.011v22.951c0.142,0.001,0.28,0.009,0.422,0.009c2.177,0,4.309-0.191,6.38-0.558v-6.074
			c3.672-0.783,7.098-2.229,10.148-4.206l4.292,4.293c3.512-2.454,6.569-5.512,9.023-9.023l-4.293-4.292
			c1.978-3.051,3.422-6.477,4.205-10.148L160.1,131.868L160.1,131.868z"/>
	</g>
	<g id="brandmark" transform="matrix(1,0,0,1,-35,-35)">
		<path id="j-green" fill="#7AC143" d="M93.029,126.016l-0.635-0.635c-2.04-2.041-2.63-4.897-1.904-7.482
			c-2.041-0.453-3.537-2.267-3.537-4.443c0-2.494,2.041-4.535,4.535-4.535c2.267,0,4.126,1.633,4.489,3.81
			c2.448-0.59,5.124,0.091,7.028,1.995l0.272,0.272l-3.355,3.355l-0.272-0.272c-1.088-1.088-2.856-1.088-3.945,0
			c-1.088,1.089-1.088,2.856,0,3.945l7.527,7.527l-3.355,3.355l-3.537-3.537L93.029,126.016z"/>
		<path id="j-orange" fill="#F9A541" d="M96.794,122.297l3.537-3.536l3.355-3.355l0.635-0.636c1.995-1.995,4.897-2.63,7.437-1.904
			c0.318-2.222,2.223-3.899,4.489-3.899c2.494,0,4.535,2.04,4.535,4.534c0,2.313-1.723,4.218-3.945,4.489
			c0.726,2.539,0.091,5.396-1.904,7.392l-0.272,0.272l-3.265-3.356l0.272-0.271c1.088-1.089,1.088-2.856,0-3.945
			c-1.089-1.088-2.857-1.088-3.945,0l-0.636,0.635l-3.355,3.355l-3.537,3.537L96.794,122.297z"/>
		<path id="j-red" fill="#F44321" d="M111.895,139.212c-2.585,0.771-5.487,0.181-7.528-1.859l-0.271-0.272l3.355-3.355l0.272,0.272
			c1.088,1.088,2.856,1.088,3.945,0c1.088-1.089,1.088-2.857,0-3.945l-0.636-0.635l-3.355-3.355l-3.537-3.537l3.355-3.355
			l7.573,7.572c1.905,1.904,2.585,4.625,1.995,7.119c2.223,0.318,3.9,2.223,3.9,4.49c0,2.494-2.041,4.534-4.535,4.534
			C114.161,142.84,112.303,141.252,111.895,139.212z"/>
		<path id="j-blue" fill="#5091CD" d="M110.579,129.779l-3.537,3.537l-3.355,3.356l-0.635,0.635c-1.95,1.949-4.671,2.584-7.12,1.995
			c-0.453,2.04-2.267,3.537-4.443,3.537c-2.494,0-4.535-2.041-4.535-4.535c0-2.131,1.496-3.945,3.492-4.398
			c-0.636-2.54,0-5.261,1.949-7.21l0.272-0.272l3.355,3.355l-0.271,0.272c-1.089,1.088-1.089,2.856,0,3.945
			c1.088,1.088,2.856,1.088,3.945,0l0.635-0.635l3.355-3.356l3.537-3.537L110.579,129.779z"/>
	</g>
</g>
</svg>
