<?xml version="1.0" encoding="utf-8"?>
<!-- Generator: Adobe Illustrator 16.0.0, SVG Export Plug-In . SVG Version: 6.00 Build 0)  -->
<!DOCTYPE svg PUBLIC "-//W3C//DTD SVG 1.1//EN" "http://www.w3.org/Graphics/SVG/1.1/DTD/svg11.dtd">
<svg version="1.1" id="Layer_1" xmlns="http://www.w3.org/2000/svg" xmlns:xlink="http://www.w3.org/1999/xlink" x="0px" y="0px"
	 width="180px" height="180px" viewBox="0 0 180 180" enable-background="new 0 0 180 180" xml:space="preserve">
<g display="none">
	<circle display="inline" fill="#F1333F" cx="99.37" cy="100.319" r="68.103"/>
	<g display="inline">
		<path fill="#FFFFFF" d="M145.639,138.542c0-4.709,3.93-8.642,8.643-8.642c0.937,0,1.84,0.158,2.688,0.443V53.787H40.982v88.047
			h105.325C145.878,140.814,145.639,139.701,145.639,138.542z"/>
		<g>
			<path fill="#E0E0E0" d="M145.639,138.542c0-4.709,3.93-8.642,8.643-8.642c0.938,0,1.843,0.158,2.689,0.445V53.787H98.979v88.047
				h47.33C145.878,140.814,145.639,139.701,145.639,138.542z"/>
			<rect x="40.982" y="53.787" fill="#E0E0E0" width="115.985" height="11.329"/>
		</g>
		<rect x="98.979" y="53.787" fill="#C0C0C0" width="57.992" height="11.329"/>
		<g>
			<circle fill="#FF6838" cx="47.97" cy="59.449" r="3.14"/>
			<circle fill="#FF6838" cx="57.392" cy="59.449" r="3.14"/>
			<circle fill="#FF6838" cx="66.813" cy="59.449" r="3.14"/>
		</g>
		<path fill="#005C83" d="M149.316,109.303l4.305-4.306c-2.46-3.521-5.526-6.585-9.046-9.046l-4.304,4.304
			c-3.061-1.981-6.494-3.431-10.174-4.216V89.95c-2.078-0.367-4.217-0.56-6.397-0.56c-2.183,0-4.319,0.193-6.396,0.56v6.089
			c-3.683,0.785-7.117,2.232-10.177,4.216l-4.303-4.304c-3.521,2.461-6.587,5.525-9.048,9.044l4.306,4.308
			c-1.981,3.055-3.433,6.489-4.217,10.174H87.78c-0.368,2.076-0.56,4.213-0.56,6.396s0.191,4.318,0.56,6.396h6.088
			c0.784,3.683,2.235,7.117,4.217,10.174l-4.306,4.306c2.462,3.521,5.527,6.584,9.048,9.045l4.303-4.304
			c3.058,1.982,6.494,3.431,10.175,4.216v6.09c2.076,0.367,4.215,0.562,6.396,0.562c2.184,0,4.318-0.191,6.396-0.562v-6.09
			c3.68-0.785,7.114-2.231,10.174-4.216l4.305,4.304c3.521-2.461,6.586-5.524,9.046-9.045l-4.306-4.306
			c1.98-3.059,3.432-6.492,4.219-10.174h6.088c0.368-2.076,0.561-4.215,0.561-6.396s-0.189-4.316-0.561-6.396h-6.088
			C152.747,115.794,151.299,112.359,149.316,109.303z M123.7,139.346c-7.44,0-13.472-6.033-13.472-13.476
			c0-7.438,6.028-13.474,13.472-13.474c7.442,0,13.475,6.033,13.475,13.474C137.175,133.313,131.141,139.346,123.7,139.346z"/>
		<path fill="#00263F" d="M159.622,132.268c0.368-2.076,0.56-4.213,0.56-6.396s-0.188-4.317-0.56-6.396h-6.09
			c-0.785-3.684-2.233-7.117-4.216-10.174l4.305-4.307c-2.46-3.521-5.526-6.585-9.046-9.046l-4.304,4.304
			c-3.061-1.982-6.494-3.432-10.174-4.216V89.95c-2.078-0.367-4.217-0.56-6.397-0.56c-0.142,0-0.28,0.008-0.423,0.01v23.01
			c0.143-0.006,0.281-0.012,0.423-0.012c7.442,0,13.475,6.033,13.475,13.473c0,7.441-6.032,13.475-13.475,13.475
			c-0.142,0-0.28-0.008-0.423-0.012v23.01c0.143,0.002,0.281,0.01,0.423,0.01c2.184,0,4.319-0.19,6.397-0.561v-6.09
			c3.68-0.785,7.113-2.232,10.174-4.215l4.304,4.303c3.52-2.461,6.586-5.525,9.046-9.045l-4.305-4.305
			c1.979-3.057,3.431-6.492,4.216-10.174H159.622L159.622,132.268z"/>
		<g>
			<path fill="#005C83" d="M45.5,94.363l8.714-22.662h4.245l8.682,22.662h-5.555l-1.755-5.075h-7.055l-1.723,5.075H45.5z
				 M56.319,77.255l-2.712,8.427h5.33L56.319,77.255z"/>
			<path fill="#005C83" d="M69.215,94.363V71.701h9.671c1.086,0,2.08,0.222,2.985,0.67c0.905,0.446,1.681,1.032,2.329,1.755
				c0.65,0.724,1.161,1.543,1.533,2.458c0.373,0.917,0.56,1.841,0.56,2.777c0,1.001-0.177,1.959-0.527,2.873
				c-0.351,0.917-0.841,1.736-1.468,2.459c-0.628,0.724-1.389,1.298-2.282,1.723c-0.895,0.427-1.884,0.639-2.969,0.639h-4.598v7.308
				H69.215L69.215,94.363z M74.449,82.49h4.278c0.616,0,1.148-0.266,1.596-0.798c0.446-0.532,0.67-1.309,0.67-2.331
				c0-0.532-0.069-0.99-0.208-1.373c-0.139-0.383-0.324-0.702-0.56-0.957c-0.233-0.256-0.499-0.441-0.796-0.56
				c-0.299-0.117-0.597-0.175-0.894-0.175h-4.087L74.449,82.49L74.449,82.49z"/>
			<path fill="#005C83" d="M89.005,94.363V71.701h5.234v22.662H89.005z"/>
		</g>
	</g>
</g>
<g display="none">
	<circle display="inline" fill="#65A3E6" cx="98.969" cy="100.429" r="68.032"/>
	<path display="inline" fill="#F2F2F7" d="M153.333,59.729v81.744c-3.856,5.123-8.422,9.68-13.548,13.53
		c-11.371,8.539-25.503,13.599-40.816,13.599c-14.944,0-28.763-4.815-39.986-12.982c-0.839-0.611-1.663-1.241-2.471-1.889
		c-0.997-0.795-1.969-1.619-2.916-2.469c-0.761-0.682-1.508-1.379-2.235-2.095c-1.002-0.983-1.977-1.997-2.915-3.038
		c-0.77-0.854-1.517-1.723-2.238-2.609c-0.547-0.67-1.083-1.354-1.603-2.043V59.729H153.333z"/>
	<path display="inline" fill="#E3E7FC" d="M153.333,59.588v13.704c-0.267,0.039-0.542,0.055-0.819,0.055H45.424
		c-0.278,0-0.553-0.017-0.819-0.055V59.588H153.333z"/>
	<path display="inline" fill="#FFE261" d="M152.514,68.765H45.425c-3.533,0-6.396-2.864-6.396-6.396V42.131
		c0-3.532,2.864-6.396,6.396-6.396h107.087c3.533,0,6.396,2.864,6.396,6.396v20.238C158.909,65.901,156.045,68.765,152.514,68.765z"
		/>
	<g display="inline">
		<path fill="#374266" d="M90.224,52.25c0,4.06-3.293,7.351-7.353,7.351c-2.197,0-4.169-0.963-5.516-2.489
			c-1.145-1.294-1.838-2.997-1.838-4.862s0.693-3.569,1.838-4.864c1.347-1.526,3.318-2.488,5.516-2.488
			C86.931,44.898,90.224,48.189,90.224,52.25z"/>
		<path fill="#374266" d="M122.42,52.25c0,4.06-3.293,7.351-7.354,7.351c-2.196,0-4.168-0.963-5.517-2.489
			c-1.146-1.294-1.838-2.997-1.838-4.862s0.692-3.569,1.838-4.864c1.349-1.526,3.318-2.488,5.517-2.488
			C119.127,44.898,122.42,48.189,122.42,52.25z"/>
	</g>
	
		<text transform="matrix(1 0 0 1 61.522 106.8477)" display="inline" fill="#FF526C" font-family="'GothamRounded-Bold'" font-size="23.5966">Since</text>
	
		<text transform="matrix(1 0 0 1 56.2798 140.3672)" display="inline" fill="#374266" font-family="'GothamRounded-Bold'" font-size="34.0839">2010</text>
</g>
<g display="none">
	<path display="inline" fill="#FCDA42" d="M168.104,100c0,37.611-30.492,68.104-68.104,68.104c-37.612,0-68.103-30.49-68.103-68.104
		c0-37.611,30.49-68.103,68.103-68.103C137.611,31.897,168.104,62.389,168.104,100z"/>
	<path display="inline" fill="#EDEDED" d="M157.121,40.979v96.119c-1.688,2.592-3.545,5.063-5.561,7.396
		c-12.488,14.46-30.955,23.61-51.562,23.61c-20.606,0-39.071-9.15-51.561-23.61c-2.015-2.331-3.872-4.804-5.56-7.396V40.979
		c0-5.015,4.067-9.081,9.081-9.081h96.078C153.055,31.897,157.121,35.964,157.121,40.979z"/>
	<path display="inline" fill="#FFFFFF" d="M151.563,40.979v103.513c-1.742,2.016-3.598,3.929-5.561,5.727
		c-12.12,11.107-28.268,17.885-46.001,17.885c-4.909,0-9.698-0.52-14.313-1.51c-1.981-0.42-3.927-0.932-5.84-1.523
		c-9.729-3.008-18.523-8.139-25.848-14.852c-1.962-1.798-3.819-3.711-5.56-5.727V40.979c0-1.943,1.58-3.521,3.521-3.521h96.078
		C149.982,37.457,151.563,39.036,151.563,40.979z"/>
	<path display="inline" fill="#583377" d="M151.563,40.979v14.858H48.44V40.979c0-1.943,1.58-3.521,3.521-3.521h96.078
		C149.982,37.457,151.563,39.036,151.563,40.979z"/>
	<g display="inline">
		<path fill="#FFFFFF" d="M62.752,46.646c0,2.661-2.157,4.818-4.817,4.818c-2.661,0-4.818-2.157-4.818-4.818
			s2.157-4.818,4.818-4.818C60.595,41.829,62.752,43.986,62.752,46.646z"/>
		<path fill="#FFFFFF" d="M75.023,46.646c0,2.661-2.157,4.818-4.818,4.818c-2.66,0-4.817-2.157-4.817-4.818s2.157-4.818,4.817-4.818
			C72.866,41.829,75.023,43.986,75.023,46.646z"/>
		<path fill="#FFFFFF" d="M87.294,46.646c0,2.661-2.157,4.818-4.817,4.818c-2.661,0-4.818-2.157-4.818-4.818
			s2.157-4.818,4.818-4.818C85.137,41.829,87.294,43.986,87.294,46.646z"/>
	</g>
	<path display="inline" fill="#EDEDED" d="M139.829,102.221c0,21.996-17.832,39.828-39.829,39.828s-39.829-17.832-39.829-39.828
		c0-21.998,17.832-39.83,39.829-39.83S139.829,80.223,139.829,102.221z"/>
	<path display="inline" fill="#E0A792" d="M86.864,103.816c0,3.668-2.975,6.644-6.644,6.644c-3.668,0-6.643-2.976-6.643-6.644
		c0-3.67,2.975-6.645,6.643-6.645C83.89,97.174,86.864,100.146,86.864,103.816z"/>
	<path display="inline" fill="#E0A792" d="M126.309,103.816c0,3.668-2.975,6.644-6.644,6.644c-3.668,0-6.644-2.976-6.644-6.644
		c0-3.67,2.976-6.645,6.644-6.645C123.334,97.174,126.309,100.146,126.309,103.816z"/>
	<path display="inline" fill="#F9D8C7" d="M99.999,127.908c-10.924,0-19.778-8.855-19.778-19.777V82.743h39.556v25.388
		C119.775,119.053,110.922,127.908,99.999,127.908z"/>
	<path display="inline" fill="#E0A792" d="M102.828,127.706c-0.926,0.133-1.867,0.202-2.828,0.202
		c-10.924,0-19.778-8.854-19.778-19.777V82.743h5.658v25.388C85.88,118.094,93.246,126.333,102.828,127.706z"/>
	<path display="inline" fill="#442463" d="M84.399,87.034l-6.121,3.082v14.017c3.381,0,6.121-2.74,6.121-6.121V87.034z"/>
	<path display="inline" fill="#583377" d="M115.598,76.251h6.123v27.882c-3.382,0-6.123-2.74-6.123-6.121V76.251z"/>
	<path display="inline" fill="#583377" d="M112.723,90.116H78.278c0-10.937,8.865-19.802,19.801-19.802h34.442
		C132.521,81.25,123.657,90.116,112.723,90.116z"/>
	<path display="inline" fill="#442463" d="M107.365,70.314h-9.286c-10.936,0-19.801,8.865-19.801,19.802h9.286
		C87.564,79.179,96.43,70.314,107.365,70.314z"/>
	<path display="inline" fill="#384361" d="M95.184,101.822c0-2.043-1.654-3.697-3.697-3.697c-2.042,0-3.696,1.654-3.696,3.697"/>
	<path display="inline" fill="#384361" d="M112.128,101.822c0-2.043-1.655-3.697-3.696-3.697c-2.043,0-3.697,1.654-3.697,3.697"/>
	<path display="inline" fill="#E0A792" d="M103.136,105.325h-6.276c-1.073,0-1.944,0.87-1.944,1.944
		c0,1.076,0.871,1.944,1.944,1.944h6.275c1.075,0,1.947-0.868,1.947-1.944C105.083,106.195,104.211,105.325,103.136,105.325z"/>
	<path display="inline" fill="#FFFFFF" d="M90.756,111.271c0,5.104,4.139,9.242,9.243,9.242s9.242-4.14,9.242-9.242"/>
	<path display="inline" fill="#384361" d="M72.1,148.604h55.802v4.021H72.1V148.604z"/>
	<path display="inline" fill="#384361" d="M72.1,156.166h55.802v4.021H72.1V156.166z"/>
</g>
<g>
	<g>
		<path fill="#FFFFFF" d="M90,175.5c-47.145,0-85.5-38.355-85.5-85.5C4.5,42.855,42.855,4.5,90,4.5c47.145,0,85.5,38.355,85.5,85.5
			C175.5,137.145,137.145,175.5,90,175.5z"/>
		<path fill="#F3F3F3" d="M90,9c44.663,0,81,36.336,81,81c0,44.662-36.337,81-81,81c-44.664,0-81-36.338-81-81
			C9,45.336,45.336,9,90,9 M90,0C40.294,0,0,40.294,0,90s40.294,90,90,90s90-40.294,90-90S139.706,0,90,0L90,0z"/>
	</g>
	<g>
		<g>
			<circle fill="#55CEED" cx="90.055" cy="90.161" r="57.951"/>
			<circle fill="#55CEED" cx="90.055" cy="90.161" r="57.951"/>
		</g>
		<g>
			<path fill="#474F70" d="M146.094,45.804v59.17c-1.71,6.494-4.523,12.543-8.222,17.935H42.236
				c-3.335-4.858-5.947-10.255-7.684-16.024V45.804c0-3.847,3.119-6.97,6.97-6.97h97.603
				C142.975,38.833,146.094,41.956,146.094,45.804z"/>
			<path fill="#474F70" d="M146.094,99.734v5.238c-1.71,6.494-4.523,12.543-8.222,17.934H42.236
				c-3.335-4.858-5.947-10.252-7.684-16.024v-7.147H146.094L146.094,99.734z"/>
		</g>
		<path fill="#F7F7F7" d="M143.217,45.903v62.32c0,2.273-1.492,4.117-3.336,4.117H40.767c-1.845,0-3.337-1.844-3.337-4.117v-62.32
			c0-2.275,1.492-4.119,3.337-4.119h99.114C141.725,41.785,143.217,43.627,143.217,45.903z"/>
		<path fill="#323B5B" d="M91.288,118.695c-1.394,0-2.522-1.131-2.522-2.523c0-0.398,0.094-0.775,0.256-1.109
			c-0.836,0.408-1.414,1.271-1.414,2.268c0,1.395,1.131,2.523,2.524,2.523c0.996,0,1.857-0.574,2.269-1.414
			C92.064,118.604,91.688,118.695,91.288,118.695z"/>
		<rect x="68.416" y="122.906" fill="#474F70" width="43.816" height="17.158"/>
		<rect x="68.416" y="122.906" fill="#323B5B" width="43.816" height="4.589"/>
		<path fill="#535E8A" d="M122.371,138.271c-1.225,0.824-2.485,1.604-3.775,2.336H61.514c-1.162-0.657-2.3-1.355-3.409-2.088
			c2.295-3.461,6.197-5.611,10.453-5.611h43.532c2.526,0,4.932,0.761,6.947,2.101C120.33,135.868,121.466,136.973,122.371,138.271z"
			/>
		<path fill="#BFBFBF" d="M143.217,45.903v8.439H37.43v-8.439c0-2.275,1.492-4.119,3.337-4.119h99.114
			C141.725,41.785,143.217,43.627,143.217,45.903z"/>
		<circle fill="#FF4F6F" cx="45.35" cy="48.063" r="2.602"/>
		<circle fill="#FCC72E" cx="52.799" cy="48.063" r="2.602"/>
		<circle fill="#5CC693" cx="60.25" cy="48.063" r="2.602"/>
		<g>
			<g>
				<path fill="#FF4F6F" d="M127.004,81.544h-73.9c-2.945,0-5.332-2.388-5.332-5.332V34.644c0-2.944,2.386-5.331,5.332-5.331h73.9
					c2.944,0,5.332,2.387,5.332,5.331v41.569C132.336,79.157,129.95,81.544,127.004,81.544z"/>
				<path fill="#FF4F6F" d="M86.298,94.871l-11.297-15.2l15.054-20.253l15.051,20.253l-11.297,15.2
					C91.938,97.387,88.168,97.387,86.298,94.871z"/>
			</g>
		</g>
		<g enable-background="new    ">
			<path fill="#FFFFFF" d="M58.737,48.017c0-1.142,0.903-2.045,2.046-2.045s2.046,0.903,2.046,2.045v5.473h7.544v-5.473
				c0-1.142,0.903-2.045,2.046-2.045s2.046,0.903,2.046,2.045v14.824c0,1.142-0.903,2.045-2.046,2.045s-2.046-0.903-2.046-2.045
				v-5.579h-7.544v5.579c0,1.142-0.903,2.045-2.046,2.045s-2.046-0.903-2.046-2.045V48.017z"/>
			<path fill="#FFFFFF" d="M79.109,48.017c0-1.142,0.903-2.045,2.046-2.045s2.045,0.903,2.045,2.045v14.824
				c0,1.142-0.902,2.045-2.045,2.045s-2.046-0.903-2.046-2.045V48.017z"/>
			<path fill="#FFFFFF" d="M87.848,48.176c0-1.142,0.903-2.045,2.046-2.045h6.455c2.364,0,4.197,0.664,5.42,1.886
				c1.035,1.036,1.594,2.497,1.594,4.251v0.053c0,2.922-1.461,4.729-3.72,5.658l2.843,3.454c0.398,0.505,0.664,0.93,0.664,1.567
				c0,1.143-0.956,1.886-1.939,1.886c-0.93,0-1.541-0.451-2.019-1.063l-3.985-5.048h-3.268v4.065c0,1.142-0.902,2.045-2.045,2.045
				s-2.046-0.903-2.046-2.045V48.176z M96.083,55.163c1.992,0,3.135-1.063,3.135-2.63v-0.054c0-1.753-1.223-2.656-3.215-2.656
				h-4.064v5.34H96.083z"/>
			<path fill="#FFFFFF" d="M107.052,62.681V48.176c0-1.142,0.902-2.045,2.045-2.045h10.308c1.009,0,1.833,0.823,1.833,1.833
				s-0.824,1.807-1.833,1.807h-8.288v3.771h7.093c1.009,0,1.833,0.824,1.833,1.833c0,1.01-0.824,1.807-1.833,1.807h-7.093v3.905
				h8.421c1.01,0,1.833,0.823,1.833,1.833s-0.823,1.807-1.833,1.807h-10.44C107.954,64.727,107.052,63.823,107.052,62.681z"/>
		</g>
		<rect x="46.806" y="91.93" fill="#BFBFBF" width="28.196" height="3.621"/>
		<rect x="46.806" y="99.294" fill="#BFBFBF" width="28.196" height="3.621"/>
		<rect x="106.084" y="91.93" fill="#BFBFBF" width="28.197" height="3.621"/>
		<rect x="106.084" y="99.294" fill="#BFBFBF" width="28.197" height="3.621"/>
	</g>
</g>
</svg>
