<?xml version="1.0" encoding="utf-8"?>
<!-- Generator: Adobe Illustrator 16.0.0, SVG Export Plug-In . SVG Version: 6.00 Build 0)  -->
<!DOCTYPE svg PUBLIC "-//W3C//DTD SVG 1.1//EN" "http://www.w3.org/Graphics/SVG/1.1/DTD/svg11.dtd">
<svg version="1.1" id="Layer_1" xmlns="http://www.w3.org/2000/svg" xmlns:xlink="http://www.w3.org/1999/xlink" x="0px" y="0px"
	 width="200px" height="199.999px" viewBox="0 0 200 199.999" enable-background="new 0 0 200 199.999" xml:space="preserve">
<g>
	<path fill-rule="evenodd" clip-rule="evenodd" fill="#FFFFFF" d="M100,194.999c-52.383,0-95-42.616-95-94.999
		C5,47.617,47.617,5,100,5c52.383,0,95,42.617,95,95C195,152.382,152.383,194.999,100,194.999z"/>
	<path fill="#F3F3F3" d="M100,10c49.626,0,90,40.374,90,90c0,49.625-40.374,89.999-90,89.999S10,149.625,10,100
		C10,50.374,50.374,10,100,10 M100,0C44.771,0,0,44.771,0,100c0,55.228,44.771,99.999,100,99.999S200,155.228,200,100
		C200,44.771,155.229,0,100,0L100,0z"/>
</g>
<g>
	<path fill="#27A3FF" d="M99.947,31.999c-12.068,0-23.4,3.148-33.226,8.662l54.626,123.714l-0.109,0.221
		c27.126-8.938,46.709-34.478,46.709-64.596C167.947,62.444,137.502,31.999,99.947,31.999z"/>
	<path fill="#86FDFB" d="M119.27,143.818H86.702l-0.598,11.406c-0.195,3.727-1.118,7.376-2.707,10.743
		c5.298,1.325,10.842,2.032,16.55,2.032c7.683,0,15.068-1.276,21.956-3.625c-1.167-2.908-1.853-5.996-2.021-9.141L119.27,143.818z"
		/>
	<path fill="#11DFEF" d="M91.609,154.133h22.788c2.196,0,4.186,0.927,5.589,2.417c-0.044-0.438-0.08-0.876-0.104-1.316
		l-0.612-11.416H86.7l-0.596,11.405c-0.024,0.451-0.059,0.899-0.104,1.348C87.405,155.069,89.402,154.133,91.609,154.133z"/>
	<path fill="#2B3894" d="M103,128.432l71.053,0.454V45.765c0-2.945-2.409-5.354-5.354-5.354c-2.68,0-63.563,0-101.532,0
		C46.173,51.986,31.947,74.33,31.947,100c0,10.313,2.301,20.089,6.409,28.846L103,128.432z"/>
	<path fill="#E6F7FE" d="M39.885,68.098c-0.206,0.387-0.411,0.776-0.609,1.167v14.027H43.4v37.442h122.907
		c0.231,0,0.417-0.188,0.417-0.418V68.098H39.885z"/>
	<path fill="#FECD0A" d="M39.275,69.266v20.611c0,0.23,0.187,0.417,0.417,0.417h126.615c0.231,0,0.417-0.187,0.417-0.417V68.098
		H39.885C39.679,68.486,39.474,68.875,39.275,69.266z"/>
	<path fill="#FCA60D" d="M56.646,68.098H39.885c-0.206,0.388-0.411,0.776-0.609,1.167v20.611c0,0.23,0.187,0.417,0.417,0.417h16.955
		V68.098H56.646z"/>
	<path fill="#E6F7FE" d="M48.41,144.36h120.289c2.944,0,5.354-2.408,5.354-5.353v-10.933c-5.739,0-108.383,0-136.056,0
		C40.69,134.009,44.21,139.485,48.41,144.36z"/>
	<path fill="#D5F1FE" d="M106.664,136.217c0,2.024-1.641,3.665-3.664,3.665c-2.022,0-3.663-1.641-3.663-3.665
		c0-2.023,1.641-3.663,3.663-3.663C105.023,132.554,106.664,134.194,106.664,136.217z"/>
	<path fill="#D5F1FE" d="M44.104,61.195c-0.064,0.093-0.129,0.186-0.193,0.279c-0.195,0.283-0.388,0.567-0.579,0.852
		c-0.033,0.051-0.066,0.101-0.1,0.152c-0.619,0.935-1.217,1.885-1.79,2.852c-0.053,0.089-0.105,0.178-0.157,0.267
		c-0.18,0.305-0.357,0.611-0.532,0.919c-0.016,0.027-0.03,0.055-0.046,0.083c-0.39,0.688-0.768,1.385-1.134,2.089
		c0,0.001-0.001,0.002-0.001,0.002l127.152,0.001v-8.344H44.704C44.501,60.627,44.303,60.911,44.104,61.195z"/>
	<path fill="#615DF9" d="M166.078,47.739H56.441c-4.48,3.734-8.475,8.033-11.87,12.788h122.153v-12.14
		C166.725,48.036,166.429,47.739,166.078,47.739z"/>
	<path fill="#3342AE" d="M56.646,47.739h-0.204c-4.481,3.734-8.475,8.033-11.87,12.788h12.074V47.739z"/>
	<path fill="#FECD0A" d="M52.794,56.353c-1.223,0-2.222-0.984-2.222-2.222c0-1.389,1.271-2.447,2.653-2.176
		c1.087,0.227,1.789,1.162,1.789,2.176C55.015,55.343,54.03,56.353,52.794,56.353z"/>
	<path fill="#39DF74" d="M58.867,56.353c-1.214,0-2.222-0.979-2.222-2.222c0-1.382,1.271-2.448,2.658-2.176
		c1.066,0.228,1.785,1.133,1.785,2.176C61.089,55.37,60.082,56.353,58.867,56.353z"/>
	<path fill="#AEAEFF" d="M127.978,56.354H66.221c-1.228,0-2.222-0.994-2.222-2.221c0-1.227,0.994-2.221,2.222-2.221h61.757
		c1.228,0,2.222,0.994,2.222,2.221C130.199,55.36,129.205,56.354,127.978,56.354z"/>
	<path fill="#8181FC" d="M116.601,54.133c0-1.227,0.994-2.221,2.221-2.221H66.221c-1.228,0-2.222,0.994-2.222,2.221
		c0,1.227,0.994,2.221,2.222,2.221h52.6C117.595,56.354,116.601,55.36,116.601,54.133z"/>
	<path fill="#AEAEFF" d="M157.972,56.354H137.01c-1.227,0-2.221-0.994-2.221-2.221c0-1.227,0.994-2.221,2.221-2.221h20.962
		c1.227,0,2.221,0.994,2.221,2.221C160.192,55.36,159.197,56.354,157.972,56.354z"/>
	<path fill="#11DFEF" d="M57.967,60.346H44.704c-1.903,2.646-3.619,5.433-5.132,8.344h26.648v-0.091
		C66.221,64.041,62.525,60.346,57.967,60.346z"/>
	<path fill="#0AC6E5" d="M56.646,60.346H44.704c-1.903,2.646-3.619,5.433-5.132,8.344h17.073V60.346z"/>
	<path fill="#FCE395" d="M151.317,78.703h4.731c1.227,0,2.222-0.995,2.222-2.222c0-1.226-0.995-2.221-2.222-2.221h-4.731
		c-1.227,0-2.221,0.995-2.221,2.221C149.097,77.708,150.091,78.703,151.317,78.703z"/>
	<path fill="#FCA60D" d="M146.386,90.293c0,3.866-3.135,7.001-7.001,7.001s-7-3.135-7-7.001s3.134-7,7-7
		S146.386,86.427,146.386,90.293z"/>
	<path fill="#11DFEF" d="M131.696,106.965h15.378c1.228,0,2.222-0.994,2.222-2.222c0-1.227-0.994-2.222-2.222-2.222h-15.378
		c-1.227,0-2.222,0.994-2.222,2.222S130.47,106.965,131.696,106.965z"/>
	<path fill="#11DFEF" d="M131.696,114.741h15.378c1.228,0,2.222-0.994,2.222-2.222c0-1.226-0.994-2.22-2.222-2.22h-15.378
		c-1.227,0-2.222,0.994-2.222,2.22C129.475,113.747,130.47,114.741,131.696,114.741z"/>
	<path fill="#FCA60D" d="M117.329,90.293c0,3.866-3.135,7.001-7.001,7.001s-7-3.135-7-7.001s3.134-7,7-7
		S117.329,86.427,117.329,90.293z"/>
	<path fill="#F98A10" d="M138.847,83.315c-3.615,0.275-6.462,3.292-6.462,6.978c0,3.866,3.134,7.001,7,7.001
		c2.468,0,4.636-1.277,5.882-3.205C139.448,94.534,135.738,88.121,138.847,83.315z"/>
	<path fill="#F98A10" d="M109.789,83.315c-3.614,0.275-6.461,3.292-6.461,6.978c0,3.866,3.134,7.001,7,7.001
		c2.467,0,4.635-1.277,5.882-3.205C110.379,94.535,106.688,88.109,109.789,83.315z"/>
	<path fill="#11DFEF" d="M102.64,106.965h15.378c1.226,0,2.221-0.994,2.221-2.222c0-1.227-0.995-2.222-2.221-2.222H102.64
		c-1.228,0-2.222,0.994-2.222,2.222S101.412,106.965,102.64,106.965z"/>
	<path fill="#11DFEF" d="M102.64,114.741h15.378c1.226,0,2.221-0.994,2.221-2.222c0-1.226-0.995-2.22-2.221-2.22H102.64
		c-1.228,0-2.222,0.994-2.222,2.22C100.418,113.747,101.412,114.741,102.64,114.741z"/>
	<path fill="#3D4EC6" d="M86.895,75.984H46.401c-3.93,0-7.126,3.197-7.126,7.126v47.622c1.237,2.437,2.618,4.787,4.128,7.045
		l46.483,29.476c1.365,0.201,2.743,0.365,4.135,0.485V83.111C94.021,79.182,90.824,75.984,86.895,75.984z"/>
	<path fill="#3342AE" d="M56.646,84.327c-2.116-0.284-3.75-2.094-3.75-4.288c0-1.859,1.174-3.44,2.818-4.055h-9.313
		c-3.93,0-7.126,3.196-7.126,7.126v47.622c1.237,2.437,2.618,4.787,4.128,7.045l13.242,8.396V84.327z"/>
	<path fill="#E6F7FE" d="M43.4,112.785v24.99c10.431,15.585,27.132,26.614,46.495,29.482c0-5.951,0-32.705,0-54.473H43.4z"/>
	<path fill="#D5F1FE" d="M43.4,112.785v24.99c2.911,4.35,6.312,8.342,10.12,11.902v-36.893H43.4z"/>
	<path fill="#FECD0A" d="M46.401,80.11h6.019c0.567,0,1.026,0.459,1.026,1.026c0,1.362,1.115,2.477,2.476,2.477h21.451
		c1.362,0,2.476-1.115,2.476-2.477c0-0.567,0.46-1.026,1.027-1.026h6.019c1.657,0,3,1.343,3,3.001v29.951H75.99
		c0-5.15-4.191-9.342-9.343-9.342c-5.15,0-9.341,4.191-9.341,9.342H43.4V83.111C43.4,81.453,44.744,80.11,46.401,80.11z"/>
	<path fill="#FCA60D" d="M53.521,81.724c-0.046-0.189-0.074-0.385-0.074-0.586c0-0.568-0.459-1.028-1.026-1.028h-6.019
		c-1.657,0-3.001,1.343-3.001,3.001v29.951h10.12V81.724z"/>
	<path fill="#FCE395" d="M77.531,93.062h4.731c1.227,0,2.222-0.994,2.222-2.22c0-1.228-0.995-2.222-2.222-2.222h-4.731
		c-1.226,0-2.221,0.994-2.221,2.222C75.311,92.068,76.306,93.062,77.531,93.062z"/>
	<path fill="#FCA60D" d="M76.434,113.062c0,5.405-4.382,9.786-9.786,9.786s-9.786-4.381-9.786-9.786
		c0-5.404,4.382-9.785,9.786-9.785S76.434,107.658,76.434,113.062z"/>
	<path fill="#F98A10" d="M73.611,118.426c-5.404,0-9.786-4.382-9.786-9.786c0-1.944,0.569-3.755,1.549-5.279
		c-4.802,0.626-8.513,4.729-8.513,9.701c0,5.405,4.383,9.786,9.786,9.786c3.461,0,6.499-1.798,8.239-4.507
		C74.469,118.396,74.044,118.426,73.611,118.426z"/>
	<path fill="#FECD0A" d="M61.08,134.847h11.135c1.636,0,2.962-1.326,2.962-2.961c0-1.636-1.326-2.962-2.962-2.962H61.08
		c-1.636,0-2.961,1.326-2.961,2.962C58.119,133.521,59.444,134.847,61.08,134.847z"/>
	<path fill="#FCA60D" d="M66.357,131.886c0-1.636,1.325-2.962,2.962-2.962H61.08c-1.636,0-2.961,1.326-2.961,2.962
		c0,1.635,1.325,2.961,2.961,2.961h8.239C67.683,134.847,66.357,133.521,66.357,131.886z"/>
	<g>
		<path fill="#11DFEF" d="M54.573,144.375h24.15c1.227,0,2.221-0.994,2.221-2.221c0-1.228-0.994-2.222-2.221-2.222h-24.15
			c-1.228,0-2.222,0.994-2.222,2.222C52.352,143.381,53.346,144.375,54.573,144.375z"/>
		<path fill="#11DFEF" d="M78.724,147.965h-24.15c-0.764,0-1.436,0.385-1.836,0.971c1.249,1.204,2.543,2.364,3.881,3.472h22.105
			c1.226,0,2.221-0.994,2.221-2.221C80.944,148.959,79.949,147.965,78.724,147.965z"/>
		<path fill="#11DFEF" d="M78.724,156H61.37c2.361,1.63,4.828,3.116,7.394,4.441h9.96c1.226,0,2.22-0.994,2.22-2.221
			C80.944,156.994,79.949,156,78.724,156z"/>
	</g>
</g>
</svg>
