<?xml version="1.0" encoding="utf-8"?>
<!-- Generator: Adobe Illustrator 16.0.0, SVG Export Plug-In . SVG Version: 6.00 Build 0)  -->
<!DOCTYPE svg PUBLIC "-//W3C//DTD SVG 1.1//EN" "http://www.w3.org/Graphics/SVG/1.1/DTD/svg11.dtd">
<svg version="1.1" id="Layer_1" xmlns="http://www.w3.org/2000/svg" xmlns:xlink="http://www.w3.org/1999/xlink" x="0px" y="0px"
	 width="200px" height="200px" viewBox="0 0 200 200" enable-background="new 0 0 200 200" xml:space="preserve">
<g>
	<path fill="#FFFFFF" d="M100,195c-52.383,0-95-42.617-95-95S47.617,5,100,5s95,42.617,95,95C195,152.382,152.383,195,100,195z"/>
	<path fill="#F3F3F3" d="M100,10c49.626,0,90,40.374,90,90c0,49.625-40.374,90-90,90s-90-40.375-90-90C10,50.374,50.374,10,100,10
		 M100,0C44.771,0,0,44.771,0,100c0,55.229,44.771,100,100,100c55.229,0,100-44.771,100-100C200,44.771,155.229,0,100,0L100,0z"/>
</g>
<g>
	<path fill="#30D6CE" d="M168.1,100.146c0,37.724-30.582,68.305-68.304,68.305c-37.724,0-68.305-30.581-68.305-68.305
		c0-37.725,30.581-68.305,68.305-68.305C137.518,31.842,168.1,62.422,168.1,100.146z"/>
	<path fill="#FFAA00" d="M110.668,128.176H57.14c-2.31,0-4.182-1.873-4.182-4.181V63.624c0-2.309,1.872-4.181,4.182-4.181h53.528
		c2.311,0,4.184,1.872,4.184,4.181v60.371C114.852,126.303,112.979,128.176,110.668,128.176z"/>
	<path fill="#FFCF48" d="M149.699,128.176H64.946c-2.31,0-4.182-1.873-4.182-4.181V63.624c0-2.309,1.872-4.181,4.182-4.181h84.753
		c2.311,0,4.182,1.872,4.182,4.181v60.371C153.881,126.303,152.01,128.176,149.699,128.176z"/>
	<path fill="#FFE59C" d="M153.881,56.655v8.364H52.958v-8.364c0-3.08,2.496-5.576,5.576-5.576h89.771
		C151.385,51.079,153.881,53.575,153.881,56.655z"/>
	<path fill="#FFE49F" d="M77.449,95.042c-0.001,1.54-1.25,2.788-2.788,2.788c-1.54,0-2.788-1.248-2.788-2.788
		c0-4.327-3.521-7.848-7.849-7.848c-1.54,0-2.788-1.249-2.788-2.788c0-0.77,0.313-1.467,0.817-1.972
		c0.504-0.505,1.201-0.816,1.971-0.816C71.427,81.619,77.448,87.64,77.449,95.042z M148.305,51.079H66.34
		c-3.08,0-5.576,2.496-5.576,5.576v8.364h93.117v-8.364C153.881,53.575,151.385,51.079,148.305,51.079z M66.92,71.237
		c-0.77,0-1.466,0.312-1.971,0.816c-0.505,0.504-0.817,1.202-0.817,1.972c0,1.539,1.248,2.787,2.788,2.787
		c4.096,0,7.947,1.596,10.843,4.491c2.896,2.896,4.491,6.747,4.491,10.843c0,1.54,1.248,2.788,2.788,2.788
		c1.539,0,2.788-1.248,2.788-2.788c0-5.585-2.175-10.836-6.125-14.785C77.756,73.412,72.505,71.237,66.92,71.237z"/>
	<path fill="#FFCF48" d="M64.688,58.048c0,1.776-1.441,3.217-3.216,3.217c-1.778,0-3.217-1.441-3.217-3.217
		c0-1.776,1.44-3.217,3.217-3.217C63.248,54.832,64.688,56.271,64.688,58.048z M72.194,54.832c-1.777,0-3.217,1.441-3.217,3.217
		c0,1.776,1.439,3.217,3.217,3.217c1.776,0,3.217-1.441,3.217-3.217C75.412,56.272,73.971,54.832,72.194,54.832z M82.917,54.832
		c-1.776,0-3.218,1.441-3.218,3.217c0,1.776,1.441,3.217,3.218,3.217c1.777,0,3.217-1.441,3.217-3.217
		C86.134,56.272,84.693,54.832,82.917,54.832z"/>
	<path fill="#FFAA00" d="M145.516,73.382v2.788c0,0.77-0.623,1.394-1.393,1.394H96.728c-0.769,0-1.394-0.624-1.394-1.394v-2.788
		c0-0.77,0.625-1.395,1.394-1.395h47.395C144.893,71.988,145.516,72.612,145.516,73.382z M132.971,81.746H96.728
		c-0.769,0-1.394,0.624-1.394,1.394v2.788c0,0.77,0.625,1.395,1.394,1.395h36.243c0.771,0,1.395-0.625,1.395-1.395V83.14
		C134.365,82.37,133.742,81.746,132.971,81.746z"/>
	<path fill="#FF6466" d="M60.2,113.376l8.13-4.939l12.017,23.738c-16.659,7.129-32.578-4.098-43.081-22.291
		c-0.097-0.17-0.485-0.838-0.582-1.008C26.181,90.683,24.417,71.284,38.92,60.421l14.549,22.277l-8.342,4.57
		c-1.888,1.459-2.625,4.1-1.863,6.672c1.142,3.851,2.28,6.901,3.712,9.667c1.678,2.621,3.75,5.132,6.515,8.047
		C55.337,113.601,57.993,114.281,60.2,113.376z"/>
	<path fill="#FF895A" d="M39.46,61.25l14.06,21.496l-6.319,3.386l-2.074,1.137c-1.888,1.459-2.625,4.099-1.863,6.672
		c1.141,3.851,2.28,6.901,3.711,9.667c1.679,2.621,3.75,5.132,6.516,8.047c1.848,1.946,4.502,2.627,6.709,1.722l2.715-1.65
		l5.35-3.295l11.635,22.862c-14.957,3.476-28.95-7.296-38.482-23.807c-0.097-0.168-0.484-0.839-0.581-1.009
		C31.303,89.968,28.97,72.464,39.46,61.25z"/>
	<path fill="#FF2E28" d="M57.425,80.41c-0.023,0.015-0.142,0.123-0.27,0.241l0.001,0.019c0.05,0.825-1.072,1.134-1.485,0.419
		l-12.99-22.5c-0.426-0.738,0.455-1.544,1.15-1.05c0.021,0.015,0.042,0.031,0.062,0.047l0.089-0.089
		c0.172-0.099,0.346-0.188,0.523-0.268c2.705-1.222,5.948-0.215,7.463,2.409l7.437,12.88C60.99,75.262,60.098,78.753,57.425,80.41z"
		/>
	<path fill="#FF393A" d="M53.116,73.316l-9.133-15.818c2.797-1.614,6.51-1.037,8.384,2.83l2.491,4.313
		C56.691,67.817,55.911,71.701,53.116,73.316z"/>
	<path fill="#FF8D7D" d="M44.311,58.066l12.627,21.871c0.462,0.801,0.187,1.823-0.612,2.285l-2.166,1.25
		c-0.8,0.462-1.823,0.188-2.285-0.611L39.248,60.989c-0.461-0.799-0.188-1.823,0.612-2.285l2.166-1.25
		C42.826,56.992,43.849,57.266,44.311,58.066z"/>
	<path fill="#FFA47C" d="M78.979,123.96c-1.398,0.808-3.185,0.327-3.993-1.069l-8.004-13.865c-0.273-0.475-0.111-1.082,0.362-1.355
		l3.346-1.932c0.475-0.272,1.081-0.11,1.355,0.363l8.004,13.865C80.857,121.365,80.377,123.152,78.979,123.96z M43.97,57.477
		c-0.273-0.475-0.879-0.637-1.354-0.363l-3.345,1.932c-0.475,0.273-0.637,0.88-0.363,1.355l8.005,13.866
		c0.808,1.397,2.595,1.876,3.992,1.069c1.399-0.807,1.878-2.595,1.071-3.993L43.97,57.477z"/>
	<path fill="#FFE49F" d="M155.279,151.445H74.528c-2.31,0-4.182-1.873-4.182-4.183V96.94c0-2.31,1.872-4.182,4.182-4.182h80.751
		c2.309,0,4.182,1.872,4.182,4.182v50.322C159.461,149.572,157.588,151.445,155.279,151.445z"/>
	<path fill="#FFF1C5" d="M116.617,130.85l42.844-26.498v42.911c0,2.31-1.873,4.183-4.182,4.183H80.831
		c-2.309,0-4.182-1.873-4.182-4.183v-37.011c0-0.875,0.959-1.408,1.703-0.948l34.838,21.546
		C114.24,131.5,115.566,131.5,116.617,130.85z"/>
	<path fill="#FFF5F5" d="M113.189,124.547L72.071,99.116c-1.073-0.664-1.725-1.836-1.725-3.098c0-1.801,1.458-3.26,3.259-3.26
		h82.595c1.801,0,3.26,1.461,3.26,3.26c0,1.262-0.652,2.434-1.727,3.098l-41.117,25.431
		C115.566,125.197,114.24,125.197,113.189,124.547z"/>
	<path fill="#0088CC" d="M167.963,129.32l-4.121-0.916c-0.574-2.621-1.604-5.072-3.004-7.266l2.291-3.435
		c1.08-1.621,0.867-3.782-0.512-5.162c-1.355-1.354-3.473-1.589-5.09-0.559l-3.563,2.27c-2.191-1.404-4.639-2.438-7.26-3.02
		l-0.809-4.044c-0.383-1.911-2.063-3.289-4.012-3.289c-1.918,0-3.578,1.332-3.992,3.203l-0.916,4.122
		c-2.623,0.572-5.072,1.604-7.268,3.003l-3.434-2.29c-1.623-1.081-3.783-0.869-5.162,0.512c-1.355,1.355-1.588,3.471-0.561,5.088
		l2.27,3.563c-1.402,2.191-2.438,4.639-3.018,7.26l-4.047,0.81c-1.91,0.383-3.287,2.062-3.287,4.012
		c0,1.915,1.332,3.577,3.203,3.992l4.121,0.916c0.574,2.621,1.605,5.072,3.004,7.267l-2.291,3.435
		c-1.08,1.623-0.867,3.782,0.512,5.162c1.355,1.354,3.473,1.588,5.09,0.558l3.564-2.267c2.189,1.402,4.637,2.437,7.26,3.018
		l0.809,4.044c0.381,1.913,2.061,3.289,4.01,3.289c1.918,0,3.578-1.331,3.994-3.204l0.914-4.119
		c2.623-0.574,5.072-1.604,7.268-3.005l3.434,2.291c1.623,1.082,3.783,0.867,5.162-0.513c1.357-1.354,1.588-3.472,0.559-5.087
		l-2.268-3.565c1.404-2.189,2.438-4.639,3.018-7.26l4.045-0.81c1.912-0.382,3.289-2.059,3.289-4.011
		C171.166,131.397,169.834,129.737,167.963,129.32z M141.818,145.923c-7.002,0-12.676-5.675-12.676-12.675
		s5.674-12.676,12.676-12.676c7,0,12.676,5.676,12.676,12.676S148.818,145.923,141.818,145.923z"/>
	<path fill="#025F80" d="M141.818,115.292c-9.918,0-17.957,8.038-17.957,17.956c0,9.917,8.039,17.956,17.957,17.956
		s17.957-8.039,17.957-17.956C159.775,123.33,151.736,115.292,141.818,115.292z M141.818,145.923
		c-7.002,0-12.676-5.675-12.676-12.675s5.674-12.676,12.676-12.676c7,0,12.676,5.676,12.676,12.676S148.818,145.923,141.818,145.923
		z"/>
	<path fill="#0069A3" d="M141.818,151.204c-1.73,0-3.404-0.245-4.988-0.703c-1.131-0.327-1.906-1.361-1.906-2.539
		c0-1.75,1.674-3.03,3.355-2.542c1.125,0.327,2.311,0.503,3.539,0.503c7.16,0,12.932-5.935,12.666-13.153
		c-0.244-6.693-5.783-12.102-12.482-12.197c-1.281-0.019-2.52,0.155-3.688,0.49c-1.697,0.489-3.391-0.762-3.391-2.526v-0.002
		c0-1.178,0.779-2.214,1.912-2.541c1.883-0.544,3.893-0.787,5.977-0.675c9.15,0.494,16.533,7.946,16.943,17.102
		C160.221,142.714,152.01,151.204,141.818,151.204z"/>
	<path fill="#02CC69" d="M162.045,125.127l-15.443,15.444c-0.816,0.817-1.887,1.225-2.955,1.225c-1.072,0-2.141-0.407-2.959-1.225
		l-7.885-7.886c-1.633-1.634-1.633-4.281,0-5.912c1.633-1.634,4.281-1.634,5.914,0l4.93,4.927l12.486-12.487
		c1.631-1.632,4.279-1.632,5.912,0C163.68,120.847,163.678,123.496,162.045,125.127z"/>
	<path fill="#54D680" d="M162.045,119.213c1.633,1.634,1.633,4.281,0,5.914l-12.215,12.214c-0.814,0.817-1.885,1.225-2.955,1.225
		s-2.141-0.407-2.957-1.225l-7.887-7.886c-1.037-1.036-1.412-2.481-1.131-3.816c1.334-0.28,2.779,0.096,3.816,1.133l4.93,4.929
		l12.486-12.487C157.764,117.581,160.412,117.581,162.045,119.213z"/>
	<path fill="#F48C03" d="M73.031,143.082v11.149c0,1.54-1.248,2.789-2.788,2.789c-1.54,0-2.788-1.249-2.788-2.789v-11.149
		c0-1.542,1.248-2.789,2.788-2.789C71.783,140.293,73.031,141.54,73.031,143.082z"/>
	<path fill="#FF6466" d="M84.183,134.718v19.514c0,1.54-1.248,2.789-2.788,2.789c-1.54,0-2.788-1.249-2.788-2.789v-19.514
		c0-1.542,1.248-2.789,2.788-2.789C82.935,131.929,84.183,133.176,84.183,134.718z"/>
	<path fill="#02CC69" d="M95.334,126.352v27.88c0,1.54-1.248,2.789-2.789,2.789c-1.54,0-2.788-1.249-2.788-2.789v-27.88
		c0-1.537,1.248-2.786,2.788-2.786C94.086,123.565,95.334,124.814,95.334,126.352z"/>
</g>
</svg>
