<?xml version="1.0" encoding="utf-8"?>
<!-- Generator: Adobe Illustrator 16.0.0, SVG Export Plug-In . SVG Version: 6.00 Build 0)  -->
<!DOCTYPE svg PUBLIC "-//W3C//DTD SVG 1.1//EN" "http://www.w3.org/Graphics/SVG/1.1/DTD/svg11.dtd">
<svg version="1.1" id="Layer_1" xmlns="http://www.w3.org/2000/svg" xmlns:xlink="http://www.w3.org/1999/xlink" x="0px" y="0px"
	 width="200px" height="200px" viewBox="0 0 200 200" enable-background="new 0 0 200 200" xml:space="preserve">
<g>
	<path fill="#FFFFFF" d="M100,195c-52.383,0-95-42.617-95-95C5,47.617,47.617,5,100,5s95,42.617,95,95
		C195,152.382,152.383,195,100,195z"/>
	<path fill="#F3F3F3" d="M100,10c49.626,0,90,40.374,90,90c0,49.625-40.374,90-90,90s-90-40.375-90-90C10,50.374,50.374,10,100,10
		 M100,0C44.771,0,0,44.771,0,100c0,55.228,44.771,100,100,100c55.229,0,100-44.771,100-100C200,44.771,155.229,0,100,0L100,0z"/>
</g>
<g>
	<path fill="#B3E8F4" d="M166.613,101.45c0,10.088-2.248,19.65-6.27,28.216c-1.097,2.338-6.758,11.41-8.503,13.564
		c-12.185,15.059-30.813,24.686-51.692,24.686c-36.708,0-66.464-29.758-66.464-66.466s29.757-66.465,66.464-66.465
		C136.856,34.985,166.613,64.742,166.613,101.45z"/>
	<path fill="#0573CD" d="M156.032,57.772v70.535c0,3.746-3.036,6.781-6.781,6.781h-18.312c0.088,0.439,0.136,0.893,0.136,1.357
		c0,3.745-3.037,6.782-6.782,6.782H37.481c-3.746,0-6.782-3.037-6.782-6.782c0-3.746,3.036-6.782,6.782-6.782h6.918
		c-0.089-0.439-0.136-0.893-0.136-1.356V57.772c0-3.745,3.036-6.781,6.783-6.781h98.205
		C152.996,50.992,156.032,54.027,156.032,57.772z"/>
	<path fill="#4691DB" d="M49.96,117.456V57.772c0-3.745,3.036-6.781,6.784-6.781h92.507c3.745,0,6.781,3.036,6.781,6.781v59.683
		c0,3.746-3.036,6.781-6.781,6.781H56.744C52.996,124.237,49.96,121.202,49.96,117.456z M131.821,129.664L131.821,129.664h-9.837
		c-0.645,0-1.199,0.453-1.326,1.085c-0.504,2.477-2.692,4.34-5.318,4.34H84.956c-2.624,0-4.814-1.864-5.317-4.34
		c-0.127-0.632-0.683-1.085-1.327-1.085H45.433c-3.801,0-7.005,3.11-6.933,6.913c0.07,3.686,3.079,6.651,6.78,6.651h0.61h0.001
		h105.952c3.351-4.141,6.214-8.691,8.501-13.564H131.821z"/>
	<path fill="#FFF1B8" d="M150.337,66.725v54.8c0,1.499-1.217,2.712-2.712,2.712H52.673c-1.498,0-2.713-1.213-2.713-2.712v-54.8
		c0-1.498,1.215-2.713,2.713-2.713h94.952C149.12,64.012,150.337,65.228,150.337,66.725z"/>
	<path fill="#FFF7EE" d="M150.337,66.725v54.8c0,1.499-1.217,2.712-2.712,2.712H57.828c-1.499,0-2.713-1.213-2.713-2.712v-54.8
		c0-1.498,1.214-2.713,2.713-2.713h89.797C149.12,64.012,150.337,65.228,150.337,66.725z"/>
	<path fill="#ED9C3B" d="M150.337,59.129v8.139H49.96v-8.139c0-1.498,1.215-2.713,2.713-2.713h94.952
		C149.12,56.416,150.337,57.631,150.337,59.129z"/>
	<path fill="#F9B65D" d="M150.337,59.129v8.139H55.115v-8.139c0-1.498,1.214-2.713,2.713-2.713h89.797
		C149.12,56.416,150.337,57.631,150.337,59.129z"/>
	<path fill="#D38231" d="M58.915,61.841c0,1.499-1.216,2.714-2.715,2.714s-2.712-1.216-2.712-2.714c0-1.498,1.214-2.712,2.712-2.712
		S58.915,60.344,58.915,61.841z M64.339,59.129c-1.499,0-2.713,1.215-2.713,2.712c0,1.499,1.214,2.714,2.713,2.714
		s2.713-1.216,2.713-2.714C67.052,60.344,65.837,59.129,64.339,59.129z M72.478,59.129c-1.498,0-2.713,1.215-2.713,2.712
		c0,1.499,1.215,2.714,2.713,2.714c1.499,0,2.712-1.216,2.712-2.714C75.189,60.344,73.976,59.129,72.478,59.129z"/>
	<path fill="#FFDC85" d="M108.288,65.912v58.325H92.01V65.912c0-2.247,1.821-4.07,4.069-4.07h8.137
		C106.465,61.841,108.288,63.665,108.288,65.912z M78.445,75.406h-8.138c-2.248,0-4.07,1.823-4.07,4.07v44.761h16.278V79.476
		C82.516,77.229,80.693,75.406,78.445,75.406z M129.99,48.278h-8.139c-2.248,0-4.069,1.821-4.069,4.069v71.89h16.276v-71.89
		C134.059,50.099,132.237,48.278,129.99,48.278z"/>
	<path fill="#FFC97B" d="M70.308,75.406h5.153c-2.247,0-4.068,1.823-4.068,4.07v44.761h-5.154V79.476
		C66.238,77.229,68.06,75.406,70.308,75.406z M121.852,48.278c-2.248,0-4.069,1.821-4.069,4.069v71.89h5.154v-71.89
		c0-2.248,1.821-4.069,4.069-4.069H121.852z M92.01,65.912v58.325h5.155V65.912c0-2.247,1.821-4.07,4.068-4.07H96.08
		C93.832,61.841,92.01,63.665,92.01,65.912z"/>
	<path fill="#FF5284" d="M160.252,42.998l-7.838,30.481c-0.261,1.017-1.529,1.364-2.273,0.621l-5.566-5.566l-24.079,24.08
		l-7.142,7.14c-1.019,1.02-2.397,1.591-3.838,1.591H69.279c-0.719,0-1.411,0.285-1.918,0.794l-17.417,17.415V96.536l9.88-9.88
		c1.018-1.017,2.398-1.587,3.836-1.587h40.238c0.72,0,1.409-0.286,1.918-0.795l2.142-2.142l25.109-25.107l-5.566-5.567
		c-0.744-0.743-0.397-2.012,0.62-2.272l30.482-7.838C159.599,41.089,160.509,41.999,160.252,42.998z"/>
	<path fill="#F43B5F" d="M160.101,41.961l-17.21,18.227l-28.438,28.438l-2.647,2.648c-1.538,1.536-3.58,2.383-5.754,2.383H65.813
		l-15.87,15.869V96.536l9.88-9.88c1.018-1.017,2.398-1.587,3.836-1.587h40.238c0.72,0,1.409-0.286,1.918-0.795l2.142-2.142
		l25.109-25.107l-5.566-5.567c-0.744-0.743-0.397-2.012,0.62-2.272l30.482-7.838C159.223,41.187,159.808,41.478,160.101,41.961z"/>
</g>
</svg>
