<?xml version="1.0" encoding="utf-8"?>
<!-- Generator: Adobe Illustrator 16.0.0, SVG Export Plug-In . SVG Version: 6.00 Build 0)  -->
<!DOCTYPE svg PUBLIC "-//W3C//DTD SVG 1.1//EN" "http://www.w3.org/Graphics/SVG/1.1/DTD/svg11.dtd">
<svg version="1.1" id="Layer_1" xmlns="http://www.w3.org/2000/svg" xmlns:xlink="http://www.w3.org/1999/xlink" x="0px" y="0px"
	 width="200px" height="200px" viewBox="0 0 200 200" enable-background="new 0 0 200 200" xml:space="preserve">
<g>
	<path fill="#FFFFFF" d="M100,195c-52.383,0-95-42.617-95-95S47.617,5,100,5s95,42.617,95,95C195,152.382,152.383,195,100,195z"/>
	<path fill="#F3F3F3" d="M100,10c49.626,0,90,40.374,90,90c0,49.625-40.374,90-90,90s-90-40.375-90-90C10,50.374,50.374,10,100,10
		 M100,0C44.771,0,0,44.771,0,100c0,55.229,44.771,100,100,100c55.229,0,100-44.771,100-100C200,44.771,155.229,0,100,0L100,0z"/>
</g>
<path fill="#006CBC" d="M146.215,96.225v46.352c0,4.606-2.172,8.933-5.84,11.717c-11.433,8.678-25.689,13.828-41.15,13.828
	c-37.622,0-68.122-30.499-68.122-68.12c0-37.651,30.783-68.291,68.432-68.122c29.456,0.131,54.492,18.959,63.863,45.227
	c1.135,3.183-1.217,6.531-4.597,6.531C151.85,83.636,146.215,89.272,146.215,96.225z"/>
<path fill="#FFF1C5" d="M96.723,122.698H43.337c-2.304,0-4.171-1.867-4.171-4.171V58.319c0-2.303,1.868-4.171,4.171-4.171h53.385
	c2.304,0,4.17,1.868,4.17,4.171v60.207C100.893,120.831,99.026,122.698,96.723,122.698z"/>
<path fill="#FFF5F5" d="M135.649,122.698H51.123c-2.304,0-4.172-1.867-4.172-4.171V58.319c0-2.303,1.868-4.171,4.172-4.171h84.526
	c2.303,0,4.17,1.868,4.17,4.171v60.207C139.819,120.831,137.952,122.698,135.649,122.698z"/>
<path fill="#FFAA00" d="M139.819,51.368v8.341H39.166v-8.341c0-3.071,2.491-5.56,5.561-5.56h89.532
	C137.33,45.808,139.819,48.297,139.819,51.368z"/>
<path fill="#FFCF48" d="M139.819,51.368v8.341H46.951v-8.341c0-3.071,2.49-5.56,5.562-5.56h81.746
	C137.33,45.808,139.819,48.297,139.819,51.368z"/>
<path fill="#F48C03" d="M50.866,52.758c0,1.772-1.437,3.208-3.209,3.208c-1.771,0-3.208-1.436-3.208-3.208
	c0-1.772,1.436-3.208,3.208-3.208C49.43,49.55,50.866,50.986,50.866,52.758z M58.352,49.551c-1.771,0-3.208,1.436-3.208,3.208
	c0,1.772,1.437,3.208,3.208,3.208s3.208-1.436,3.208-3.208C61.56,50.987,60.123,49.551,58.352,49.551z M69.046,49.551
	c-1.772,0-3.209,1.436-3.209,3.208c0,1.772,1.437,3.208,3.209,3.208c1.771,0,3.208-1.436,3.208-3.208
	C72.254,50.986,70.817,49.551,69.046,49.551z"/>
<path fill="#FFE266" d="M94.775,69.136v2.78c0,0.768-0.622,1.391-1.39,1.391H46.118c-0.769,0-1.391-0.623-1.391-1.391v-2.78
	c0-0.767,0.623-1.39,1.391-1.39h47.268C94.153,67.746,94.775,68.369,94.775,69.136z M65.581,101.111H46.118
	c-0.769,0-1.391,0.623-1.391,1.392v2.78c0,0.767,0.623,1.39,1.391,1.39h19.463c0.768,0,1.391-0.623,1.391-1.39v-2.78
	C66.972,101.734,66.349,101.111,65.581,101.111z M121.19,67.746h-19.463c-0.769,0-1.391,0.623-1.391,1.39v2.78
	c0,0.768,0.622,1.391,1.391,1.391h19.463c0.769,0,1.391-0.623,1.391-1.391v-2.78C122.581,68.369,121.959,67.746,121.19,67.746z"/>
<path fill="#FF6466" d="M55.85,80.258v2.78c0,0.768-0.623,1.39-1.391,1.39h-8.341c-0.769,0-1.391-0.622-1.391-1.39v-2.78
	c0-0.767,0.623-1.39,1.391-1.39h8.341C55.227,78.869,55.85,79.491,55.85,80.258z M54.459,89.99h-8.341
	c-0.769,0-1.391,0.623-1.391,1.391v2.781c0,0.767,0.623,1.39,1.391,1.39h8.341c0.768,0,1.391-0.623,1.391-1.39V91.38
	C55.85,90.612,55.227,89.99,54.459,89.99z"/>
<path fill="#FFE59C" d="M85.729,91.38v2.781c0,0.767-0.622,1.39-1.39,1.39H62.8c-0.767,0-1.39-0.623-1.39-1.39V91.38
	c0-0.768,0.623-1.391,1.39-1.391h21.539C85.106,89.99,85.729,90.612,85.729,91.38z M84.339,78.869H62.8
	c-0.767,0-1.39,0.623-1.39,1.39v2.78c0,0.768,0.623,1.39,1.39,1.39h21.539c0.768,0,1.39-0.622,1.39-1.39v-2.78
	C85.729,79.491,85.106,78.869,84.339,78.869z"/>
<path fill="#97F0F2" d="M83.098,154.192h-9.176c-2.303,0-4.17-1.868-4.17-4.171V89.813c0-2.303,1.867-4.17,4.17-4.17h9.176
	c2.304,0,4.171,1.868,4.171,4.17v60.208C87.269,152.324,85.401,154.192,83.098,154.192z"/>
<path fill="#C0FBFF" d="M167.347,99.999c0,22.105-10.532,41.747-26.848,54.193H81.708c-2.304,0-4.171-1.868-4.171-4.171V89.813
	c0-2.303,1.867-4.17,4.171-4.17h84.117C166.819,90.272,167.347,95.073,167.347,99.999z"/>
<path fill="#02CC69" d="M89.962,91.204h-20.21v-8.342c0-3.071,2.489-5.561,5.562-5.561h14.611c3.116,0,5.848,2.094,6.651,5.104
	c0.013,0.047,0.023,0.092,0.036,0.138C97.771,86.916,94.485,91.204,89.962,91.204z"/>
<path fill="#54D680" d="M166.782,91.204H77.537v-8.342c0-3.07,2.49-5.561,5.561-5.561h80.37
	C165.038,81.743,166.162,86.394,166.782,91.204z"/>
<path fill="#00B96F" d="M81.451,84.253c0,1.771-1.437,3.208-3.208,3.208c-1.772,0-3.209-1.437-3.209-3.208
	c0-1.772,1.437-3.209,3.208-3.209C80.015,81.044,81.451,82.48,81.451,84.253z M88.938,81.044c-1.772,0-3.209,1.437-3.209,3.209
	c0,1.771,1.437,3.208,3.209,3.208c1.771,0,3.207-1.437,3.207-3.208C92.145,82.48,90.709,81.044,88.938,81.044z M99.631,81.044
	c-1.772,0-3.208,1.437-3.208,3.209c0,1.771,1.437,3.208,3.208,3.208c1.772,0,3.208-1.437,3.208-3.208
	C102.839,82.48,101.403,81.044,99.631,81.044z"/>
<path fill="#96BF48" d="M125.335,104.612l-1.31,0.399c-0.146-0.545-0.364-1.055-0.618-1.564c-0.946-1.782-2.293-2.729-3.93-2.729
	c-0.108,0-0.218,0-0.327,0.037c-0.036-0.073-0.109-0.109-0.146-0.183c-0.728-0.764-1.637-1.128-2.729-1.128
	c-2.146,0.073-4.257,1.602-5.967,4.33c-1.2,1.928-2.146,4.329-2.401,6.221l-4.184,1.311c-1.237,0.399-1.273,0.437-1.419,1.601
	c-0.109,0.873-3.347,25.867-3.347,25.867l26.813,4.62v-38.818C125.554,104.576,125.444,104.576,125.335,104.612z M119.15,106.54
	l-4.512,1.419c0.437-1.674,1.273-3.347,2.293-4.438c0.363-0.4,0.909-0.873,1.527-1.128C119.041,103.63,119.15,105.34,119.15,106.54z
	 M116.239,100.901c0.437-0.037,0.91,0.108,1.273,0.327c-0.618,0.327-1.164,0.764-1.637,1.273c-1.347,1.455-2.401,3.711-2.802,5.894
	l-3.747,1.164C110.091,106.14,112.929,101.01,116.239,100.901z M112.092,120.401c0.146,2.292,6.149,2.766,6.477,8.113
	c0.255,4.221-2.22,7.095-5.821,7.313c-4.329,0.291-6.694-2.255-6.694-2.255l0.91-3.894c0,0,2.4,1.819,4.293,1.674
	c1.236-0.072,1.71-1.092,1.637-1.819c-0.182-2.983-5.057-2.801-5.385-7.677c-0.255-4.11,2.438-8.295,8.404-8.658
	c2.292-0.146,3.457,0.437,3.457,0.437l-1.347,5.094c0,0-1.528-0.691-3.311-0.583C112.092,118.328,112.056,120.001,112.092,120.401z
	 M120.569,106.104c0-1.092-0.146-2.583-0.655-3.893c1.602,0.291,2.401,2.146,2.766,3.237
	C122.643,105.448,120.569,106.104,120.569,106.104z"/>
<path fill="#5E8D3D" d="M125.732,143.395l11.277-2.801c0,0-4.864-32.8-4.864-33.021c-0.037-0.185-0.185-0.332-0.405-0.369
	c-0.147,0-3.317-0.073-3.317-0.073s-1.916-1.88-2.653-2.58v38.844H125.732z"/>
</svg>
