<?xml version="1.0" encoding="utf-8"?>
<!-- Generator: Adobe Illustrator 16.0.0, SVG Export Plug-In . SVG Version: 6.00 Build 0)  -->
<!DOCTYPE svg PUBLIC "-//W3C//DTD SVG 1.1//EN" "http://www.w3.org/Graphics/SVG/1.1/DTD/svg11.dtd">
<svg version="1.1" id="Layer_1" xmlns="http://www.w3.org/2000/svg" xmlns:xlink="http://www.w3.org/1999/xlink" x="0px" y="0px"
	 width="200px" height="200px" viewBox="0 0 200 200" enable-background="new 0 0 200 200" xml:space="preserve">
<g>
	<path fill="#FFFFFF" d="M100,195c-52.383,0-95-42.617-95-95S47.617,5,100,5s95,42.617,95,95C195,152.382,152.383,195,100,195z"/>
	<path fill="#F3F3F3" d="M100,10c49.626,0,90,40.374,90,90c0,49.625-40.374,90-90,90s-90-40.375-90-90C10,50.374,50.374,10,100,10
		 M100,0C44.771,0,0,44.771,0,100c0,55.229,44.771,100,100,100c55.229,0,100-44.771,100-100C200,44.771,155.229,0,100,0L100,0z"/>
</g>
<circle fill="#F24976" cx="99.261" cy="99.926" r="68.048"/>
<path fill="#D9EAFC" d="M46.629,74.653v20.394v48.158c12.479,15.211,31.422,24.916,52.632,24.916
	c21.211,0,40.153-9.705,52.633-24.917V74.653H50.222"/>
<path fill="#C3DDF4" d="M51.754,74.746h-5.125v68.459c1.717,2.093,3.561,4.077,5.511,5.95V75.117
	C52.14,74.768,51.907,74.746,51.754,74.746z"/>
<path fill="#52BBEF" d="M143.797,80.607H64.68c0.008,0.018,0.011,0.038,0.022,0.053c0.052,0.071-10.81-0.053-10.81-0.053v21.499
	c0,0.458,0.375,0.833,0.833,0.833h89.07c0.459,0,0.834-0.375,0.834-0.833V81.441C144.63,80.982,144.255,80.607,143.797,80.607z"/>
<g>
	<path fill="#EEF6FF" d="M144.63,141.546c0,0.458-0.375,0.833-0.833,0.833H54.726c-0.458,0-0.833-0.375-0.833-0.833v-4.001
		c0-0.458,0.375-0.833,0.833-0.833h89.07c0.459,0,0.834,0.375,0.834,0.833V141.546L144.63,141.546z"/>
	<path fill="#EEF6FF" d="M127.409,151.267c0,0.458-0.375,0.834-0.833,0.834H71.945c-0.458,0-0.833-0.376-0.833-0.834v-4
		c0-0.459,0.375-0.833,0.833-0.833h54.631c0.458,0,0.833,0.374,0.833,0.833V151.267L127.409,151.267z"/>
</g>
<g>
	<path fill="#FFFFFF" d="M111.854,130.518c0,0.458-0.375,0.833-0.833,0.833H84.368c-0.458,0-0.833-0.375-0.833-0.833v-21.877
		c0-0.457,0.375-0.832,0.833-0.832h26.652c0.458,0,0.833,0.375,0.833,0.832V130.518z"/>
	<path fill="#FFFFFF" d="M144.63,130.518c0,0.458-0.375,0.833-0.833,0.833h-26.653c-0.458,0-0.833-0.375-0.833-0.833v-21.877
		c0-0.457,0.375-0.832,0.833-0.832h26.653c0.458,0,0.833,0.375,0.833,0.832V130.518z"/>
</g>
<g>
	<path fill="#EEF6FF" d="M89.047,130.518v-21.877c0-0.457,0.374-0.832,0.833-0.832h-5.512c-0.458,0-0.833,0.375-0.833,0.832v21.877
		c0,0.458,0.375,0.833,0.833,0.833h5.512C89.421,131.351,89.047,130.977,89.047,130.518z"/>
	<path fill="#EEF6FF" d="M121.821,130.518v-21.877c0-0.457,0.375-0.832,0.834-0.832h-5.512c-0.458,0-0.833,0.375-0.833,0.832v21.877
		c0,0.458,0.375,0.833,0.833,0.833h5.512C122.196,131.351,121.821,130.977,121.821,130.518z"/>
</g>
<path fill="#293D7C" d="M149.344,61.138H49.137c-1.485,0-2.394,0.812-2.394,2.267l-0.114,11.526h105.265V63.687
	C151.894,62.284,150.746,61.138,149.344,61.138z"/>
<path fill="#FE3745" d="M133.714,69.68c-0.434,0-0.857-0.176-1.164-0.48c-0.306-0.307-0.48-0.73-0.48-1.165
	c0-0.433,0.176-0.855,0.48-1.163c0.307-0.308,0.729-0.483,1.164-0.483c0.433,0,0.858,0.175,1.163,0.483
	c0.307,0.307,0.482,0.73,0.482,1.163c0,0.434-0.176,0.857-0.482,1.165C134.572,69.504,134.146,69.68,133.714,69.68z"/>
<path fill="#FFAF10" d="M139.109,69.68c-0.432,0-0.857-0.176-1.162-0.482c-0.308-0.305-0.482-0.729-0.482-1.163
	c0-0.433,0.175-0.855,0.482-1.163c0.307-0.308,0.73-0.483,1.162-0.483c0.435,0,0.857,0.175,1.165,0.483
	c0.305,0.307,0.48,0.73,0.48,1.163c0,0.432-0.176,0.857-0.48,1.163C139.967,69.504,139.544,69.68,139.109,69.68z"/>
<path fill="#02AF8E" d="M144.507,69.68c-0.435,0-0.857-0.176-1.162-0.48c-0.308-0.307-0.483-0.73-0.483-1.165
	c0-0.433,0.176-0.855,0.483-1.163c0.305-0.308,0.728-0.483,1.162-0.483c0.433,0,0.857,0.175,1.163,0.483
	c0.307,0.307,0.481,0.73,0.481,1.163c0,0.434-0.175,0.857-0.481,1.165C145.362,69.504,144.939,69.68,144.507,69.68z"/>
<g>
	<path fill="#445EA0" d="M77.163,112.143H55.847c-1.15,0-2.083-0.933-2.083-2.083s0.933-2.083,2.083-2.083h21.316
		c1.15,0,2.083,0.933,2.083,2.083S78.313,112.143,77.163,112.143z"/>
	<path fill="#445EA0" d="M77.163,118.52H55.847c-1.15,0-2.083-0.933-2.083-2.083c0-1.151,0.933-2.083,2.083-2.083h21.316
		c1.15,0,2.083,0.932,2.083,2.083C79.246,117.587,78.313,118.52,77.163,118.52z"/>
	<path fill="#445EA0" d="M77.163,124.896H55.847c-1.15,0-2.083-0.933-2.083-2.083s0.933-2.083,2.083-2.083h21.316
		c1.15,0,2.083,0.933,2.083,2.083S78.313,124.896,77.163,124.896z"/>
	<path fill="#445EA0" d="M66.548,131.271H55.847c-1.15,0-2.083-0.933-2.083-2.083s0.933-2.083,2.083-2.083h10.701
		c1.15,0,2.083,0.933,2.083,2.083S67.698,131.271,66.548,131.271z"/>
</g>
<g>
	<path fill="#FFD00D" d="M126.205,46.807H79.89c-0.936,0-1.752-0.637-1.979-1.544l-2.191-8.758c-0.178-0.713-0.72-1.259-1.397-1.461
		c-0.186-0.055-0.381-0.084-0.582-0.084h-9.027c-1.127,0-2.04,0.914-2.04,2.041v0.035c0,1.127,0.913,2.041,2.04,2.041h5.792
		c0.934,0,1.749,0.634,1.978,1.539l3.233,13.165l8.846,36.032h6.619v0.972h15.522l0.81-0.972h1.063V87.17H89.173l-1.152-3.894
		c-0.522-1.768,0.803-3.542,2.646-3.542h28.455c0.939,0,1.758-0.642,1.981-1.555l6.282-25.579l0.801-3.266
		C128.502,48.049,127.528,46.807,126.205,46.807z M87.468,62.271l0.226,1.681c0.165,1.225-0.786,2.312-2.021,2.312h-1.016
		c-0.94,0-1.761-0.644-1.983-1.559l-0.408-1.681c-0.312-1.285,0.663-2.522,1.983-2.522h1.198
		C86.468,60.501,87.332,61.258,87.468,62.271z M81.923,50.923h2.235c1.022,0,1.888,0.756,2.023,1.769l0.185,1.382
		c0.165,1.224-0.786,2.313-2.021,2.313h-2.087c-0.941,0-1.761-0.645-1.982-1.56l-0.336-1.381
		C79.628,52.161,80.601,50.923,81.923,50.923z M86.929,75.619c-0.472,0-0.911-0.161-1.262-0.437
		c-0.351-0.275-0.61-0.667-0.722-1.123l-0.281-1.158c-0.312-1.285,0.661-2.522,1.983-2.522h0.125c1.021,0,1.886,0.756,2.022,1.769
		l0.155,1.158C89.115,74.53,88.163,75.619,86.929,75.619z M99.347,73.578c0,1.127-0.913,2.041-2.041,2.041h-2.107
		c-1.021,0-1.886-0.756-2.021-1.769l-0.155-1.158c-0.165-1.224,0.786-2.313,2.021-2.313h2.263c1.128,0,2.041,0.914,2.041,2.041
		V73.578z M99.347,64.223c0,1.128-0.913,2.041-2.041,2.041h-3.364c-1.021,0-1.885-0.756-2.021-1.769l-0.227-1.681
		c-0.164-1.223,0.788-2.313,2.023-2.313h3.589c1.128,0,2.041,0.914,2.041,2.041V64.223z M99.347,54.346
		c0,1.126-0.913,2.041-2.041,2.041h-4.69c-1.021,0-1.887-0.756-2.023-1.769l-0.185-1.382c-0.164-1.223,0.787-2.312,2.022-2.312
		h4.876c1.128,0,2.041,0.914,2.041,2.041V54.346L99.347,54.346z M109.79,72.692l-0.155,1.158c-0.137,1.013-1.001,1.769-2.023,1.769
		h-2.108c-1.126,0-2.04-0.914-2.04-2.041v-1.157c0-1.127,0.914-2.041,2.04-2.041h2.263C109.001,70.38,109.954,71.468,109.79,72.692z
		 M111.115,62.814l-0.226,1.681c-0.136,1.013-1,1.769-2.022,1.769h-3.364c-1.126,0-2.04-0.913-2.04-2.041v-1.681
		c0-1.127,0.914-2.041,2.04-2.041h3.591C110.329,60.501,111.28,61.591,111.115,62.814z M112.403,53.235l-0.187,1.382
		c-0.137,1.013-1.001,1.769-2.021,1.769h-4.691c-1.127,0-2.041-0.914-2.041-2.041v-1.382c0-1.127,0.914-2.041,2.041-2.041h4.876
		C111.615,50.923,112.567,52.013,112.403,53.235z M118.146,72.902l-0.281,1.158c-0.222,0.914-1.042,1.559-1.983,1.559
		c-1.234,0-2.187-1.089-2.022-2.313l0.156-1.158c0.135-1.013,1-1.769,2.021-1.769h0.126
		C117.485,70.38,118.458,71.618,118.146,72.902z M120.544,63.024l-0.408,1.681c-0.222,0.915-1.041,1.559-1.982,1.559h-1.015
		c-1.235,0-2.187-1.087-2.023-2.312l0.227-1.681c0.137-1.013,1.001-1.769,2.023-1.769h1.196
		C119.883,60.501,120.856,61.739,120.544,63.024z M122.87,53.445l-0.336,1.381c-0.222,0.916-1.041,1.561-1.981,1.561h-2.088
		c-1.233,0-2.187-1.089-2.022-2.313l0.187-1.382c0.135-1.013,1-1.769,2.021-1.769h2.236
		C122.209,50.923,123.182,52.161,122.87,53.445z"/>
	<g>
		<path fill="#445EA0" d="M68.719,39.075h-4.007c-1.127,0-2.04-0.914-2.04-2.041V37c0-1.127,0.913-2.041,2.04-2.041h4.007
			c1.253,0,2.215,1.109,2.038,2.35l0,0C70.611,38.322,69.743,39.075,68.719,39.075z"/>
	</g>
	<circle fill="#445EA0" cx="89.118" cy="90.184" r="5.354"/>
	<circle fill="#445EA0" cx="111.045" cy="90.184" r="5.354"/>
</g>
</svg>
