<?xml version="1.0" encoding="utf-8"?>
<!-- Generator: Adobe Illustrator 16.0.0, SVG Export Plug-In . SVG Version: 6.00 Build 0)  -->
<!DOCTYPE svg PUBLIC "-//W3C//DTD SVG 1.1//EN" "http://www.w3.org/Graphics/SVG/1.1/DTD/svg11.dtd">
<svg version="1.1" id="Layer_1" xmlns="http://www.w3.org/2000/svg" xmlns:xlink="http://www.w3.org/1999/xlink" x="0px" y="0px"
	 width="200px" height="200px" viewBox="0 0 200 200" enable-background="new 0 0 200 200" xml:space="preserve">
<g>
	<path fill="#FFFFFF" d="M100,195c-52.383,0-95-42.617-95-95C5,47.617,47.617,5,100,5s95,42.617,95,95
		C195,152.382,152.383,195,100,195z"/>
	<path fill="#F3F3F3" d="M100,10c49.626,0,90,40.374,90,90c0,49.625-40.374,90-90,90s-90-40.375-90-90C10,50.374,50.374,10,100,10
		 M100,0C44.771,0,0,44.771,0,100c0,55.228,44.771,100,100,100c55.229,0,100-44.771,100-100C200,44.771,155.229,0,100,0L100,0z"/>
</g>
<path fill="#006CBC" d="M146.313,96.287v46.352c0,4.606-2.171,8.933-5.841,11.719c-11.431,8.675-25.688,13.826-41.149,13.826
	c-37.623,0-68.122-30.498-68.122-68.12c0-37.651,30.783-68.291,68.433-68.123c29.456,0.13,54.493,18.96,63.864,45.228
	c1.135,3.182-1.218,6.53-4.597,6.53C151.947,83.699,146.313,89.335,146.313,96.287z"/>
<path fill="#FFF1C5" d="M96.821,122.761H43.435c-2.304,0-4.171-1.867-4.171-4.171V58.382c0-2.303,1.868-4.172,4.171-4.172h53.386
	c2.303,0,4.17,1.869,4.17,4.172v60.207C100.991,120.894,99.124,122.761,96.821,122.761z"/>
<path fill="#FFF5F5" d="M135.746,122.761H51.22c-2.304,0-4.171-1.867-4.171-4.171V58.382c0-2.303,1.868-4.172,4.171-4.172h84.526
	c2.304,0,4.171,1.869,4.171,4.172v60.207C139.917,120.894,138.05,122.761,135.746,122.761z"/>
<path fill="#FFAA00" d="M139.917,51.43v8.342H39.263V51.43c0-3.071,2.491-5.56,5.561-5.56h89.532
	C137.429,45.87,139.917,48.359,139.917,51.43z"/>
<path fill="#FFCF48" d="M139.917,51.43v8.342H47.049V51.43c0-3.071,2.489-5.56,5.561-5.56h81.747
	C137.429,45.87,139.917,48.359,139.917,51.43z"/>
<path fill="#F48C03" d="M50.964,52.821c0,1.772-1.437,3.207-3.209,3.207c-1.771,0-3.208-1.435-3.208-3.207
	c0-1.773,1.437-3.209,3.208-3.209C49.527,49.612,50.964,51.048,50.964,52.821z M58.449,49.613c-1.771,0-3.208,1.435-3.208,3.208
	c0,1.772,1.436,3.207,3.208,3.207c1.772,0,3.208-1.435,3.208-3.207C61.657,51.05,60.221,49.613,58.449,49.613z M69.144,49.613
	c-1.772,0-3.209,1.435-3.209,3.208c0,1.772,1.437,3.207,3.209,3.207c1.771,0,3.208-1.435,3.208-3.207
	C72.351,51.048,70.915,49.613,69.144,49.613z"/>
<path fill="#FFE266" d="M94.873,69.199v2.78c0,0.769-0.622,1.391-1.39,1.391H46.216c-0.769,0-1.392-0.623-1.392-1.391v-2.78
	c0-0.767,0.623-1.39,1.392-1.39h47.267C94.251,67.809,94.873,68.432,94.873,69.199z M65.678,101.175H46.216
	c-0.769,0-1.392,0.622-1.392,1.391v2.781c0,0.766,0.623,1.389,1.392,1.389h19.462c0.769,0,1.391-0.623,1.391-1.389v-2.781
	C67.069,101.797,66.446,101.175,65.678,101.175z M121.288,67.809h-19.462c-0.769,0-1.391,0.623-1.391,1.39v2.78
	c0,0.769,0.623,1.391,1.391,1.391h19.462c0.768,0,1.391-0.623,1.391-1.391v-2.78C122.679,68.432,122.056,67.809,121.288,67.809z"/>
<path fill="#FF6466" d="M55.946,80.321v2.78c0,0.769-0.622,1.39-1.39,1.39h-8.341c-0.769,0-1.392-0.622-1.392-1.39v-2.78
	c0-0.768,0.623-1.39,1.392-1.39h8.341C55.324,78.931,55.946,79.554,55.946,80.321z M54.557,90.053h-8.341
	c-0.769,0-1.392,0.622-1.392,1.391v2.78c0,0.768,0.623,1.391,1.392,1.391h8.341c0.768,0,1.39-0.623,1.39-1.391v-2.78
	C55.946,90.675,55.324,90.053,54.557,90.053z"/>
<path fill="#FFE59C" d="M85.826,91.443v2.78c0,0.768-0.622,1.391-1.39,1.391h-21.54c-0.767,0-1.389-0.623-1.389-1.391v-2.78
	c0-0.769,0.623-1.391,1.389-1.391h21.54C85.204,90.053,85.826,90.675,85.826,91.443z M84.437,78.931h-21.54
	c-0.767,0-1.389,0.623-1.389,1.39v2.78c0,0.769,0.623,1.39,1.389,1.39h21.54c0.768,0,1.39-0.622,1.39-1.39v-2.78
	C85.826,79.554,85.204,78.931,84.437,78.931z"/>
<path fill="#97F0F2" d="M83.195,154.255H74.02c-2.303,0-4.17-1.868-4.17-4.171V89.876c0-2.302,1.867-4.17,4.17-4.17h9.175
	c2.304,0,4.172,1.868,4.172,4.17v60.208C87.367,152.387,85.499,154.255,83.195,154.255z"/>
<path fill="#C0FBFF" d="M167.444,100.063c0,22.104-10.532,41.747-26.847,54.192H81.805c-2.303,0-4.17-1.868-4.17-4.171V89.876
	c0-2.302,1.867-4.17,4.17-4.17h84.118C166.917,90.335,167.444,95.136,167.444,100.063z"/>
<path fill="#84DEEA" d="M118.216,120.161c0,1.771-1.438,3.209-3.207,3.209c-1.773,0-3.208-1.438-3.208-3.209
	s1.435-3.208,3.208-3.208C116.778,116.953,118.216,118.389,118.216,120.161z M125.701,116.953c-1.771,0-3.207,1.437-3.207,3.208
	s1.436,3.209,3.207,3.209s3.208-1.438,3.208-3.209S127.473,116.953,125.701,116.953z"/>
<path fill="#02CC69" d="M90.059,91.266h-20.21v-8.34c0-3.072,2.49-5.562,5.562-5.562h14.612c3.116,0,5.848,2.094,6.651,5.104
	c0.013,0.046,0.024,0.092,0.036,0.138C97.869,86.979,94.583,91.266,90.059,91.266z"/>
<path fill="#54D680" d="M166.88,91.266H77.635v-8.34c0-3.071,2.49-5.562,5.56-5.562h80.372
	C165.137,81.806,166.261,86.457,166.88,91.266z"/>
<path fill="#00B96F" d="M81.548,84.316c0,1.771-1.436,3.207-3.207,3.207c-1.773,0-3.209-1.437-3.209-3.207
	c0-1.773,1.437-3.209,3.208-3.209S81.548,82.543,81.548,84.316z M89.035,81.107c-1.771,0-3.209,1.436-3.209,3.209
	c0,1.771,1.438,3.207,3.209,3.207c1.771,0,3.208-1.437,3.208-3.207C92.243,82.543,90.808,81.107,89.035,81.107z M99.728,81.107
	c-1.772,0-3.207,1.436-3.207,3.209c0,1.771,1.436,3.207,3.207,3.207c1.772,0,3.208-1.437,3.208-3.207
	C102.937,82.543,101.5,81.107,99.728,81.107z"/>
<path fill="#02CC69" d="M111.249,111.074l-9.088,9.087l9.088,9.087c1.628,1.629,1.628,4.269,0,5.898
	c-0.815,0.814-1.882,1.221-2.95,1.221c-1.067,0-2.134-0.406-2.947-1.221L93.315,123.11c-1.629-1.628-1.629-4.269,0-5.898
	l12.036-12.035c1.627-1.627,4.268-1.627,5.897,0C112.877,106.806,112.877,109.447,111.249,111.074z M147.395,117.21l-12.034-12.034
	c-1.63-1.628-4.271-1.628-5.899,0c-1.628,1.63-1.628,4.271,0,5.897l9.086,9.087l-9.086,9.087c-1.628,1.629-1.628,4.269,0,5.898
	c0.815,0.814,1.883,1.221,2.949,1.221s2.136-0.406,2.95-1.221l12.034-12.036C149.022,121.482,149.022,118.84,147.395,117.21z"/>
<path fill="#54D680" d="M111.102,105.039c1.774,1.612,1.821,4.36,0.147,6.035l-9.088,9.087l2.296,2.296c1.63,1.63,1.63,4.27,0,5.897
	c-1.629,1.629-4.269,1.629-5.898,0l-5.245-5.244c-1.629-1.628-1.629-4.269,0-5.898l11.951-11.95
	C106.854,103.672,109.441,103.526,111.102,105.039z M147.395,117.21l-11.953-11.951c-1.586-1.587-4.173-1.733-5.834-0.221
	c-1.774,1.612-1.823,4.36-0.146,6.035l9.086,9.087l-2.294,2.296c-1.629,1.63-1.629,4.27,0,5.897c1.628,1.629,4.269,1.629,5.897,0
	l5.244-5.244C149.022,121.482,149.022,118.84,147.395,117.21z"/>
</svg>
