<?xml version="1.0" encoding="utf-8"?>
<!-- Generator: Adobe Illustrator 16.0.0, SVG Export Plug-In . SVG Version: 6.00 Build 0)  -->
<!DOCTYPE svg PUBLIC "-//W3C//DTD SVG 1.1//EN" "http://www.w3.org/Graphics/SVG/1.1/DTD/svg11.dtd">
<svg version="1.1" id="Layer_1" xmlns="http://www.w3.org/2000/svg" xmlns:xlink="http://www.w3.org/1999/xlink" x="0px" y="0px"
	 width="200px" height="200px" viewBox="0 0 200 200" enable-background="new 0 0 200 200" xml:space="preserve">
<g>
	<path fill="#FFFFFF" d="M100,195c-52.383,0-95-42.617-95-95S47.617,5,100,5s95,42.617,95,95C195,152.382,152.383,195,100,195z"/>
	<path fill="#F3F3F3" d="M100,10c49.626,0,90,40.374,90,90c0,49.625-40.374,90-90,90s-90-40.375-90-90C10,50.374,50.374,10,100,10
		 M100,0C44.771,0,0,44.771,0,100c0,55.229,44.771,100,100,100c55.229,0,100-44.771,100-100C200,44.771,155.229,0,100,0L100,0z"/>
</g>
<circle fill="#5DC1D8" cx="99.561" cy="100.844" r="65.242"/>
<path fill="#2E4C89" d="M108.064,136.944c0-0.587,0.479-1.065,1.066-1.065h1.162c0.108,0,0.205-0.065,0.246-0.164
	s0.019-0.214-0.058-0.29L97.83,122.772c-0.701-0.702-1.087-1.638-1.087-2.636c0-1,0.387-1.936,1.087-2.636l0.528-0.529
	c0.701-0.7,1.637-1.087,2.636-1.087c0.998,0,1.935,0.387,2.636,1.087l3.316,3.315c0.051,0.051,0.119,0.08,0.188,0.08
	c0.034,0,0.069-0.009,0.102-0.022c0.101-0.039,0.164-0.139,0.164-0.243v-27.05c0-2.055,1.673-3.728,3.729-3.728h0.111
	c1.123,0,2.131,0.503,2.813,1.29V32.405c0-1.465-1.197-2.664-2.662-2.664H55.01c-1.465,0-2.663,1.199-2.663,2.664v103.71
	c0,1.464,1.198,2.664,2.663,2.664h53.054V136.944L108.064,136.944L108.064,136.944z"/>
<path fill="#C3DDF4" d="M96.742,120.137c0-1,0.387-1.936,1.087-2.636l0.528-0.529c0.701-0.7,1.637-1.087,2.636-1.087
	c0.998,0,1.935,0.387,2.636,1.087l3.316,3.315c0.051,0.051,0.119,0.08,0.188,0.08c0.034,0,0.069-0.009,0.102-0.022
	c0.101-0.039,0.164-0.139,0.164-0.243v-27.05c0-1.774,1.247-3.259,2.91-3.634V41.233c0-0.773-0.633-1.406-1.405-1.406H57.497
	c-0.773,0-1.405,0.632-1.405,1.406v79.063c0,0.774,0.632,1.405,1.405,1.405h39.591C96.863,121.219,96.742,120.688,96.742,120.137z"
	/>
<path fill="#AEC1ED" d="M61.375,120.297V41.233c0-0.773,0.632-1.406,1.405-1.406h-5.284c-0.773,0-1.405,0.632-1.405,1.406v79.063
	c0,0.774,0.632,1.405,1.405,1.405h5.284C62.007,121.704,61.375,121.072,61.375,120.297z"/>
<g>
	<circle fill="#1A2B63" cx="83.199" cy="129.343" r="4.942"/>
	<path fill="#1A2B63" d="M93.935,36.756H78.658c-1.103,0-1.998-0.894-1.998-1.997c0-1.104,0.895-1.997,1.998-1.997h15.276
		c1.104,0,1.997,0.893,1.997,1.997C95.932,35.863,95.038,36.756,93.935,36.756z"/>
	<circle fill="#1A2B63" cx="72.465" cy="34.76" r="2.247"/>
</g>
<path fill="#FF9518" d="M108.905,39.828H57.497c-0.773,0-1.405,0.632-1.405,1.406v6.236h54.219v-6.236
	C110.311,40.46,109.678,39.828,108.905,39.828z"/>
<path fill="#EF8318" d="M62.78,39.828h-5.284c-0.773,0-1.405,0.632-1.405,1.406v6.236h5.284v-6.236
	C61.375,40.46,62.007,39.828,62.78,39.828z"/>
<path fill="#EEF6FF" d="M96.742,120.137c0-1,0.387-1.936,1.087-2.636l0.528-0.529c0.701-0.7,1.637-1.087,2.636-1.087
	c0.998,0,1.935,0.387,2.636,1.087l3.316,3.315c0.051,0.051,0.119,0.08,0.188,0.08c0.034,0,0.069-0.009,0.102-0.022
	c0.101-0.039,0.164-0.139,0.164-0.243V95.944H56.091v24.353c0,0.775,0.632,1.407,1.405,1.407h39.591
	C96.863,121.219,96.742,120.688,96.742,120.137z"/>
<path fill="#D9EAFC" d="M61.375,120.297V95.944h-5.284v24.353c0,0.775,0.632,1.407,1.405,1.407h5.284
	C62.007,121.704,61.375,121.072,61.375,120.297z"/>
<g>
	<path fill="#5DC1D8" d="M87.429,103.456H66.188c-1.102,0-1.997-0.895-1.997-1.998s0.895-1.997,1.997-1.997h21.241
		c1.104,0,1.999,0.893,1.999,1.997S88.533,103.456,87.429,103.456z"/>
	<path fill="#5DC1D8" d="M87.429,110.076H66.188c-1.102,0-1.997-0.894-1.997-1.996c0-1.104,0.895-1.997,1.997-1.997h21.241
		c1.104,0,1.999,0.894,1.999,1.997C89.427,109.183,88.533,110.076,87.429,110.076z"/>
	<path fill="#5DC1D8" d="M76.852,116.699H66.188c-1.102,0-1.997-0.896-1.997-1.998s0.895-1.998,1.997-1.998h10.664
		c1.103,0,1.998,0.896,1.998,1.998S77.955,116.699,76.852,116.699z"/>
</g>
<path fill="#FF9518" d="M97.658,114.84c-0.408,0-0.819-0.126-1.175-0.384c-0.891-0.649-1.087-1.898-0.438-2.79l2.614-3.586
	l-2.613-3.587c-0.65-0.892-0.454-2.14,0.438-2.79c0.892-0.649,2.141-0.453,2.791,0.438l3.47,4.763c0.511,0.701,0.511,1.65,0,2.351
	l-3.471,4.764C98.883,114.553,98.275,114.84,97.658,114.84z"/>
<path fill="#EF8318" d="M110.499,146.785v18.383c9.757-1.647,18.776-5.457,26.55-10.924v-7.459H110.499z"/>
<path fill="#DB722C" d="M110.499,146.785v18.383c1.787-0.302,3.549-0.678,5.283-1.121v-17.262H110.499z"/>
<path fill="#FFE2B8" d="M137.511,135.879v-27.676c0-2.196-1.799-3.994-3.994-3.994h-0.111c-1.63,0-3.037,0.99-3.657,2.396
	c-0.619-1.406-2.027-2.396-3.657-2.396h-0.111c-1.629,0-3.038,0.99-3.657,2.396c-0.619-1.406-2.026-2.396-3.657-2.396h-0.11
	c-1.38,0-2.602,0.709-3.32,1.782V93.052c0-2.197-1.798-3.994-3.994-3.994h-0.111c-2.197,0-3.994,1.797-3.994,3.994V120.1
	l-3.316-3.316c-1.553-1.554-4.095-1.554-5.648,0l-0.528,0.529c-1.555,1.553-1.555,4.095,0,5.648l12.919,12.918H137.511z"/>
<path fill="#FFC987" d="M115.843,135.879l-12.918-12.918c-1.553-1.554-1.553-4.096,0-5.648l0.528-0.529
	c0.06-0.059,0.121-0.111,0.182-0.165c-1.563-1.383-3.971-1.331-5.466,0.165l-0.529,0.529c-1.553,1.553-1.553,4.095,0,5.648
	l12.919,12.918H115.843z"/>
<path fill="#FF9518" d="M139.75,145.719c0,0.733-0.6,1.333-1.332,1.333h-29.287c-0.732,0-1.332-0.6-1.332-1.333v-8.773
	c0-0.732,0.6-1.332,1.332-1.332h29.287c0.732,0,1.332,0.6,1.332,1.332V145.719z"/>
<path fill="#EF8318" d="M113.083,145.719v-8.773c0-0.732,0.598-1.332,1.332-1.332h-5.285c-0.731,0-1.332,0.6-1.332,1.332v8.773
	c0,0.733,0.601,1.333,1.332,1.333h5.285C113.681,147.052,113.083,146.452,113.083,145.719z"/>
<circle fill="#DB722C" cx="133.899" cy="141.333" r="2.476"/>
<g>
	<path fill="#FFD00D" d="M163.137,55.639h-37.302c-0.752,0-1.409-0.513-1.594-1.244l-1.765-7.054
		c-0.144-0.575-0.58-1.014-1.124-1.178c-0.15-0.044-0.309-0.067-0.471-0.067h-7.27c-0.908,0-1.644,0.737-1.644,1.644v0.028
		c0,0.908,0.735,1.645,1.644,1.645h4.663c0.754,0,1.41,0.509,1.594,1.239l2.604,10.603l7.125,29.02h5.329v0.782h12.504l0.65-0.782
		h0.857v-2.127h-15.628l-0.927-3.136c-0.421-1.424,0.646-2.852,2.131-2.852h22.918c0.756,0,1.414-0.518,1.596-1.252l5.059-20.601
		l0.645-2.631C164.988,56.639,164.203,55.639,163.137,55.639z M131.94,68.092l0.181,1.354c0.133,0.985-0.634,1.862-1.629,1.862
		h-0.817c-0.758,0-1.418-0.519-1.597-1.256l-0.329-1.354c-0.251-1.035,0.533-2.032,1.597-2.032h0.966
		C131.135,66.667,131.83,67.277,131.94,68.092z M127.474,58.953h1.8c0.824,0,1.52,0.609,1.631,1.425l0.147,1.114
		c0.134,0.984-0.634,1.862-1.627,1.862h-1.681c-0.76,0-1.418-0.52-1.598-1.257l-0.271-1.112
		C125.625,59.95,126.406,58.953,127.474,58.953z M131.506,78.843c-0.381,0-0.736-0.129-1.019-0.351
		c-0.281-0.222-0.49-0.537-0.579-0.905l-0.226-0.932c-0.252-1.034,0.531-2.031,1.596-2.031h0.102c0.822,0,1.519,0.61,1.629,1.425
		l0.124,0.932C133.266,77.966,132.5,78.843,131.506,78.843z M141.507,77.199c0,0.907-0.736,1.644-1.645,1.644h-1.696
		c-0.823,0-1.52-0.609-1.629-1.424l-0.125-0.933c-0.134-0.985,0.633-1.862,1.628-1.862h1.822c0.908,0,1.645,0.736,1.645,1.644
		V77.199z M141.507,69.666c0,0.908-0.736,1.644-1.645,1.644h-2.708c-0.824,0-1.519-0.609-1.63-1.425l-0.181-1.354
		c-0.134-0.984,0.634-1.862,1.627-1.862h2.892c0.908,0,1.645,0.737,1.645,1.645V69.666z M141.507,61.71
		c0,0.907-0.736,1.644-1.645,1.644h-3.777c-0.823,0-1.519-0.609-1.63-1.425l-0.147-1.113c-0.133-0.986,0.632-1.863,1.628-1.863
		h3.927c0.908,0,1.645,0.736,1.645,1.644V61.71L141.507,61.71z M149.917,76.486l-0.125,0.933c-0.11,0.815-0.807,1.424-1.63,1.424
		h-1.696c-0.907,0-1.645-0.736-1.645-1.644v-0.932c0-0.907,0.737-1.644,1.645-1.644h1.821
		C149.282,74.624,150.05,75.5,149.917,76.486z M150.983,68.53l-0.181,1.354c-0.108,0.816-0.805,1.425-1.63,1.425h-2.707
		c-0.907,0-1.645-0.736-1.645-1.644v-1.354c0-0.908,0.737-1.645,1.645-1.645h2.891C150.351,66.667,151.118,67.545,150.983,68.53z
		 M152.021,60.816l-0.149,1.113c-0.11,0.816-0.806,1.425-1.629,1.425h-3.777c-0.907,0-1.645-0.737-1.645-1.644v-1.113
		c0-0.908,0.737-1.644,1.645-1.644h3.926C151.386,58.953,152.154,59.831,152.021,60.816z M156.647,76.655l-0.227,0.932
		c-0.18,0.737-0.84,1.256-1.597,1.256c-0.995,0-1.762-0.877-1.629-1.862l0.124-0.933c0.11-0.815,0.805-1.425,1.629-1.425h0.102
		C156.114,74.624,156.898,75.621,156.647,76.655z M158.578,68.699l-0.329,1.354c-0.179,0.738-0.837,1.256-1.596,1.256h-0.817
		c-0.995,0-1.763-0.877-1.629-1.862l0.181-1.354c0.11-0.815,0.807-1.425,1.63-1.425h0.964
		C158.046,66.667,158.829,67.665,158.578,68.699z M160.451,60.985l-0.27,1.112c-0.181,0.737-0.84,1.257-1.598,1.257h-1.681
		c-0.993,0-1.761-0.878-1.627-1.862l0.148-1.114c0.109-0.815,0.805-1.425,1.628-1.425h1.801
		C159.92,58.953,160.702,59.95,160.451,60.985z"/>
	<g>
		<path fill="#5C5E70" d="M116.839,49.412h-3.227c-0.908,0-1.644-0.736-1.644-1.645V47.74c0-0.907,0.735-1.644,1.644-1.644h3.227
			c1.011,0,1.784,0.895,1.642,1.893l0,0C118.363,48.805,117.664,49.412,116.839,49.412z"/>
	</g>
	<circle fill="#5C5E70" cx="133.269" cy="90.573" r="4.312"/>
	<circle fill="#5C5E70" cx="150.928" cy="90.573" r="4.312"/>
</g>
<g>
	<path fill="#FF525D" d="M99.308,69.06c-1.478,1.379-4.138,4.139-4.138,4.139l-0.667-0.559l-2.486-2.08v14.515
		c-2.792,1.313-5.803,1.968-8.816,1.968c-3.013,0-6.024-0.655-8.818-1.968V70.56l-3.153,2.639c0,0-2.661-2.759-4.137-4.139
		c2.561-5.712,7.29-8.767,7.29-8.767v-0.002l3.179-1.471l0.424-0.197l0.429-0.199l0.007-0.003h9.556l0.428,0.197l0.421,0.196
		l3.189,1.477v0.002c0.009,0.004,4.275,2.763,6.894,7.938C99.048,68.501,99.181,68.777,99.308,69.06z"/>
	<path fill="#EF4152" d="M74.384,84.072v1.004c2.794,1.312,5.805,1.967,8.818,1.967c3.013,0,6.024-0.655,8.816-1.967v-1.004
		c-2.792,1.312-5.803,1.967-8.816,1.967C80.188,86.039,77.178,85.383,74.384,84.072z"/>
	<g>
		<path fill="#EF4152" d="M88.828,58.814l-0.022,0.043l-0.926,1.329c-1.024,1.471-2.385,2.723-3.936,3.624l-0.746,0.434
			l-0.671-0.387c-1.57-0.906-2.952-2.168-3.995-3.652l-0.943-1.341l-0.025-0.044l0.423-0.196l0.428-0.198l0.876,1.246
			c0.967,1.373,2.247,2.542,3.701,3.381l0.206,0.119l0.281-0.164c1.433-0.833,2.692-1.992,3.64-3.351l0.859-1.235l0.428,0.198
			L88.828,58.814z"/>
		<path fill="#EF4152" d="M99.308,69.06c-1.478,1.379-4.138,4.139-4.138,4.139l-0.667-0.559l4.408-4.409
			C99.048,68.501,99.181,68.777,99.308,69.06z"/>
		<path fill="#EF4152" d="M67.094,69.06c1.477,1.379,4.137,4.139,4.137,4.139l0.668-0.559l-4.41-4.409
			C67.353,68.501,67.221,68.777,67.094,69.06z"/>
	</g>
	<rect x="81.644" y="58.957" fill="#FF6E7C" width="3.113" height="1.808"/>
</g>
</svg>
