<?xml version="1.0" encoding="utf-8"?>
<!-- Generator: Adobe Illustrator 16.0.0, SVG Export Plug-In . SVG Version: 6.00 Build 0)  -->
<!DOCTYPE svg PUBLIC "-//W3C//DTD SVG 1.1//EN" "http://www.w3.org/Graphics/SVG/1.1/DTD/svg11.dtd">
<svg version="1.1" id="Layer_1" xmlns="http://www.w3.org/2000/svg" xmlns:xlink="http://www.w3.org/1999/xlink" x="0px" y="0px"
	 width="200px" height="200px" viewBox="0 0 200 200" enable-background="new 0 0 200 200" xml:space="preserve">
<g>
	<path fill="#FFFFFF" d="M100,195c-52.383,0-95-42.617-95-95S47.617,5,100,5s95,42.617,95,95C195,152.382,152.383,195,100,195z"/>
	<path fill="#F3F3F3" d="M100,10c49.626,0,90,40.374,90,90c0,49.625-40.374,90-90,90s-90-40.375-90-90C10,50.374,50.374,10,100,10
		 M100,0C44.771,0,0,44.771,0,100c0,55.229,44.771,100,100,100c55.229,0,100-44.771,100-100C200,44.771,155.229,0,100,0L100,0z"/>
</g>
<g>
	<path fill="#FFE662" d="M168,100c0,37.557-30.443,68-68,68c-37.556,0-68-30.443-68-68c0-37.557,30.444-68,68-68
		C137.557,32,168,62.443,168,100z"/>
	<path fill="#30383D" d="M71.413,139.764h59.673v15.543H71.413V139.764z"/>
	<path fill="#444F56" d="M166.154,115.796c-2.325,9.781-6.769,18.742-12.809,26.375c-35.566,1.332-71.13,1.332-106.692,0
		c-6.045-7.635-10.485-16.601-12.812-26.383c-0.372-9.947-0.502-19.896-0.389-29.843c0.134-11.949,0.617-23.897,1.447-35.846
		c0.242-3.481,3.072-6.212,6.559-6.356c7.133-0.294,14.269-0.533,21.401-0.719c24.761-0.644,49.518-0.644,74.279,0
		c7.135,0.186,14.271,0.425,21.401,0.719c3.481,0.145,6.313,2.875,6.558,6.356c0.828,11.948,1.313,23.896,1.446,35.846
		C166.657,95.896,166.525,105.848,166.154,115.796z"/>
	<path fill="#F2F2F2" d="M156.318,53.461v78.791c0,0.623-0.506,1.127-1.127,1.127H44.807c-0.62,0-1.124-0.504-1.124-1.127V53.461
		c0-0.621,0.504-1.127,1.124-1.127h110.384C155.813,52.334,156.318,52.84,156.318,53.461z"/>
	<path fill="#444F56" d="M140.911,154.322c-5.453,4.113-11.548,7.424-18.104,9.76H77.195c-6.556-2.336-12.652-5.646-18.105-9.76
		c0.288-0.506,0.641-0.967,1.049-1.375c1.183-1.182,2.812-1.91,4.613-1.91h70.498C137.673,151.037,139.788,152.359,140.911,154.322z
		"/>
	<path fill="#D8D8D8" d="M128.159,56.776H43.684v8.646c0,7.775,6.303,14.079,14.079,14.079c7.775,0,14.079-6.304,14.079-14.079
		c0,7.775,6.303,14.079,14.079,14.079c7.776,0,14.08-6.304,14.08-14.079c0,7.775,6.304,14.079,14.079,14.079
		s14.08-6.304,14.08-14.079c0,7.775,6.304,14.079,14.079,14.079c7.776,0,14.079-6.304,14.079-14.079v-8.646H128.159z"/>
	<path fill="#F26065" d="M57.763,73.672c-7.776,0-14.079-6.304-14.079-14.079v-8.646h28.158v8.645
		C71.842,67.369,65.538,73.672,57.763,73.672z"/>
	<path fill="#349CDD" d="M85.922,73.672c-7.776,0-14.08-6.304-14.08-14.079v-8.646h28.159v8.645
		C100.001,67.369,93.698,73.672,85.922,73.672z"/>
	<path fill="#F26065" d="M114.08,73.672c-7.775,0-14.079-6.304-14.079-14.079v-8.646h28.158v8.645
		C128.159,67.369,121.855,73.672,114.08,73.672z"/>
	<path fill="#349CDD" d="M142.239,73.672c-7.775,0-14.08-6.304-14.08-14.079v-8.646h28.159v8.645
		C156.318,67.369,150.016,73.672,142.239,73.672z"/>
	<g>
		<path fill="#F26065" d="M102.879,96.678h-8.63l-7.54-13.948c-0.729-1.348-2.414-1.851-3.761-1.121
			c-1.349,0.729-1.851,2.412-1.122,3.761l6.112,11.309H66.957L73.07,85.37c0.728-1.349,0.226-3.032-1.123-3.761
			c-1.348-0.729-3.032-0.228-3.761,1.121l-7.539,13.948h-8.631c-1.532,0-2.775,1.242-2.775,2.775c0,1.531,1.243,2.775,2.775,2.775
			H52.7l4.387,22.975c0.25,1.311,1.395,2.256,2.726,2.256h35.271c1.332,0,2.476-0.945,2.726-2.256l4.387-22.975h0.684
			c1.533,0,2.775-1.244,2.775-2.775C105.654,97.92,104.412,96.678,102.879,96.678z M92.787,121.908H62.108l-3.758-19.68h3.94
			c0.003,0,0.005,0.002,0.008,0.002s0.006-0.002,0.008-0.002h30.281c0.003,0,0.006,0.002,0.008,0.002
			c0.003,0,0.006-0.002,0.009-0.002h3.939L92.787,121.908z"/>
		<path fill="#F26065" d="M77.448,104.296c-1.534,0-2.775,1.242-2.775,2.774v9.992c0,1.533,1.242,2.775,2.775,2.775
			c1.533,0,2.774-1.242,2.774-2.775v-9.992C80.222,105.541,78.98,104.296,77.448,104.296z"/>
		<path fill="#F26065" d="M69.023,106.691c-0.21-1.521-1.612-2.58-3.131-2.367c-1.518,0.211-2.578,1.611-2.367,3.131l1.388,9.992
			c0.193,1.389,1.382,2.395,2.746,2.395c0.127,0,0.256-0.01,0.386-0.027c1.518-0.211,2.578-1.612,2.367-3.131L69.023,106.691z"/>
		<path fill="#F26065" d="M89.002,104.324c-1.52-0.213-2.921,0.85-3.131,2.367l-1.388,9.992c-0.211,1.518,0.849,2.918,2.368,3.129
			c0.13,0.02,0.258,0.026,0.385,0.026c1.363,0,2.553-1.006,2.747-2.394l1.387-9.991C91.58,105.936,90.521,104.535,89.002,104.324z"
			/>
	</g>
	<path fill="#444F56" d="M113.749,92.099h36.219v5.916h-36.219V92.099z"/>
	<path fill="#444F56" d="M113.749,104.96h36.219v5.916h-36.219V104.96z"/>
	<path fill="#444F56" d="M113.749,117.822h36.219v5.916h-36.219V117.822z"/>
</g>
</svg>
