<?xml version="1.0" encoding="utf-8"?>
<!-- Generator: Adobe Illustrator 16.0.0, SVG Export Plug-In . SVG Version: 6.00 Build 0)  -->
<!DOCTYPE svg PUBLIC "-//W3C//DTD SVG 1.1//EN" "http://www.w3.org/Graphics/SVG/1.1/DTD/svg11.dtd">
<svg version="1.1" id="Layer_1" xmlns="http://www.w3.org/2000/svg" xmlns:xlink="http://www.w3.org/1999/xlink" x="0px" y="0px"
	 width="200px" height="200px" viewBox="0 0 200 200" enable-background="new 0 0 200 200" xml:space="preserve">
<g>
	<path fill="#FFFFFF" d="M100,195c-52.383,0-95-42.617-95-95S47.617,5,100,5s95,42.617,95,95C195,152.382,152.383,195,100,195z"/>
	<path fill="#F3F3F3" d="M100,10c49.626,0,90,40.374,90,90c0,49.625-40.374,90-90,90s-90-40.375-90-90C10,50.374,50.374,10,100,10
		 M100,0C44.771,0,0,44.771,0,100c0,55.229,44.771,100,100,100c55.229,0,100-44.771,100-100C200,44.771,155.229,0,100,0L100,0z"/>
</g>
<g>
	<circle fill="#FFCF4B" cx="101" cy="101" r="68"/>
	<path fill="#6E7789" d="M125.268,44.543v119.999c-1.407,0.539-2.834,1.03-4.283,1.474c-6.319,1.94-13.028,2.984-19.983,2.984
		c-4.391,0-8.685-0.417-12.843-1.211c-18.096-3.461-33.647-14.091-43.578-28.823c-1.573-2.331-3.006-4.766-4.282-7.291V44.543
		c0-3.003,2.432-5.438,5.438-5.438h74.095C122.833,39.106,125.268,41.54,125.268,44.543z"/>
	<path fill="#D6D6D6" d="M120.984,57.788v108.228c-1.188,0.366-2.393,0.7-3.608,1c-5.245,1.296-10.729,1.984-16.375,1.984
		c-4.391,0-8.685-0.417-12.843-1.211c-16.034-3.066-30.069-11.762-39.97-23.952c-1.271-1.565-2.476-3.192-3.608-4.871V57.788
		c0-1.79,1.452-3.241,3.242-3.241h69.92c0.197,0,0.389,0.019,0.575,0.053C119.832,54.871,120.984,56.194,120.984,57.788z"/>
	<path fill="#E8E8E8" d="M117.376,58.154v108.861c-5.245,1.296-10.729,1.984-16.375,1.984c-4.391,0-8.685-0.417-12.843-1.211
		c-16.034-3.066-30.069-11.762-39.97-23.952V58.154H117.376z"/>
	<g>
		<path fill="#42495B" d="M97.172,49.064H68.393c-1.325,0-2.398-1.074-2.398-2.398l0,0c0-1.325,1.073-2.398,2.398-2.398h28.779
			c1.325,0,2.398,1.074,2.398,2.398l0,0C99.57,47.991,98.497,49.064,97.172,49.064z"/>
		<path fill="#42495B" d="M162.148,130.786c-2.703,5.54-6.137,10.655-10.176,15.224c-0.576,0.652-1.165,1.294-1.768,1.924
			c-6.914,7.247-15.412,12.97-24.938,16.608c-1.407,0.539-2.834,1.03-4.283,1.474c-6.319,1.94-13.028,2.984-19.983,2.984
			c-4.391,0-8.685-0.417-12.843-1.211c-1.026-0.196-2.045-0.416-3.053-0.657V65.001c0-1.791,1.452-3.242,3.242-3.242h69.92
			c0.197,0,0.389,0.02,0.575,0.053c1.515,0.27,2.667,1.593,2.667,3.189v60.217C160.877,126.876,161.24,128.771,162.148,130.786z"/>
	</g>
	<path fill="#535B70" d="M164.563,65.001v60.217c-2.937,7.699-7.23,14.727-12.59,20.791c-0.577,0.652-1.166,1.294-1.768,1.924
		c-3.22,3.378-6.786,6.423-10.642,9.081c-0.105,0.072-0.211,0.145-0.319,0.22c-10.896,7.424-24.063,11.765-38.243,11.765
		c-4.391,0-8.685-0.416-12.843-1.21V65.001c0-1.791,1.452-3.242,3.242-3.242h69.921c0.196,0,0.389,0.02,0.574,0.053
		C163.411,62.082,164.563,63.405,164.563,65.001z"/>
	<rect x="97.633" y="72.251" fill="#3CBC9A" width="20.801" height="4.623"/>
	<rect x="97.633" y="81.549" fill="#6A4BBF" width="9.596" height="4.623"/>
	<g>
		<rect x="97.633" y="90.85" fill="#3CBC9A" width="20.801" height="4.623"/>
		<rect x="97.633" y="100.147" fill="#3CBC9A" width="20.801" height="4.623"/>
		<rect x="97.633" y="124.714" fill="#3CBC9A" width="20.801" height="4.622"/>
	</g>
	<rect x="97.633" y="134.012" fill="#6A4BBF" width="9.596" height="4.622"/>
	<rect x="97.633" y="143.313" fill="#3CBC9A" width="20.801" height="4.623"/>
	<rect x="97.633" y="152.61" fill="#6A4BBF" width="9.596" height="4.623"/>
	<rect x="110.84" y="152.61" fill="#FCFCFC" width="16.838" height="4.623"/>
	<path fill="#F44E72" d="M139.563,152.61v4.405c-0.105,0.072-0.211,0.144-0.319,0.219h-8.102v-4.624H139.563L139.563,152.61z"/>
	<g>
		<rect x="122.561" y="72.251" fill="#51B0E0" width="10.399" height="4.623"/>
		<rect x="110.923" y="81.549" fill="#51B0E0" width="31.859" height="4.623"/>
	</g>
	<g>
		<rect x="122.561" y="90.85" fill="#FCFCFC" width="33.672" height="4.623"/>
		<rect x="122.561" y="100.147" fill="#FCFCFC" width="5.281" height="4.623"/>
	</g>
	<rect x="130.979" y="100.147" fill="#F44E72" width="13.866" height="4.623"/>
	<rect x="122.561" y="124.714" fill="#51B0E0" width="15.021" height="4.622"/>
	<rect x="110.923" y="134.012" fill="#FCFCFC" width="20.553" height="4.622"/>
	<rect x="134.691" y="134.012" fill="#51B0E0" width="15.932" height="4.622"/>
	<path fill="#FCFCFC" d="M151.973,143.313v2.697c-0.576,0.652-1.165,1.294-1.768,1.924h-27.645v-4.621H151.973L151.973,143.313z"/>
	<path fill="#3CBC9A" d="M77.572,85.987c0,0.65-0.527,1.178-1.178,1.178h-18.73c-0.65,0-1.178-0.528-1.178-1.178V67.257
		c0-0.651,0.527-1.178,1.178-1.178h18.73c0.65,0,1.178,0.527,1.178,1.178V85.987z"/>
	<path fill="#51B0E0" d="M77.572,113.198c0,0.65-0.527,1.178-1.178,1.178h-18.73c-0.65,0-1.178-0.527-1.178-1.178v-18.73
		c0-0.651,0.527-1.178,1.178-1.178h18.73c0.65,0,1.178,0.527,1.178,1.178V113.198z"/>
	<path fill="#F44E72" d="M77.572,140.409c0,0.65-0.527,1.178-1.178,1.178h-18.73c-0.65,0-1.178-0.527-1.178-1.178V121.68
		c0-0.651,0.527-1.179,1.178-1.179h18.73c0.65,0,1.178,0.527,1.178,1.179V140.409z"/>
</g>
</svg>
