<?xml version="1.0" encoding="utf-8"?>
<!-- Generator: Adobe Illustrator 16.0.0, SVG Export Plug-In . SVG Version: 6.00 Build 0)  -->
<!DOCTYPE svg PUBLIC "-//W3C//DTD SVG 1.1//EN" "http://www.w3.org/Graphics/SVG/1.1/DTD/svg11.dtd">
<svg version="1.1" id="Layer_1" xmlns="http://www.w3.org/2000/svg" xmlns:xlink="http://www.w3.org/1999/xlink" x="0px" y="0px"
	 width="960px" height="960px" viewBox="120 0 960 960" enable-background="new 120 0 960 960" xml:space="preserve">
<g>
	<g>
		<path fill="#FFFFFF" d="M855.613,423.883c0-30.392-24.724-55.114-55.116-55.114H699.206c24.609-27.661,40.693-59.159,43.8-87.418
			c1.897-17.259-3.435-34.391-14.634-47.004c-10.235-11.529-24.232-17.955-39.412-18.096c-0.177-0.002-0.353-0.002-0.527-0.002
			c-14.684,0-28.465,5.655-38.865,15.96c-10.402,10.307-16.158,24.038-16.227,38.69c-0.534,3.208-6.178,14.27-19.987,27.401
			c-11.306,10.755-30.836,25.539-59.672,34.901c-11.306,3.671-21.639,10.431-30.71,20.091c-4.761,5.065-11.89,12.063-20.715,19.087
			c-4.332-2.295-9.258-3.607-14.49-3.607h-96.201c-17.13,0-31.065,13.936-31.065,31.065v256.533
			c0,17.13,13.935,31.065,31.065,31.065h96.201c11.678,0,21.86-6.483,27.167-16.033h245.48c25.971,0,47.098-21.128,47.098-47.099
			c0-8.731-2.387-16.914-6.545-23.934c13.531-8.284,22.578-23.205,22.578-40.2c0-8.732-2.387-16.914-6.546-23.935
			c13.532-8.284,22.579-23.205,22.579-40.2c0-9.828-3.026-18.964-8.195-26.523C845.994,459.588,855.613,442.837,855.613,423.883z
			 M800.497,448.935h-8.018c-8.3,0-15.031,6.729-15.031,15.032c0,8.3,6.729,15.031,15.031,15.031
			c9.395,0,17.037,7.643,17.037,17.036c0,9.395-7.643,17.036-17.037,17.036h-16.032c-8.301,0-15.032,6.729-15.032,15.032
			c0,8.301,6.729,15.032,15.032,15.032c9.394,0,17.036,7.643,17.036,17.036s-7.643,17.036-17.036,17.036h-16.033
			c-8.301,0-15.032,6.729-15.032,15.032c0,8.3,6.729,15.031,15.032,15.031c9.394,0,17.036,7.643,17.036,17.036
			c0,9.395-7.643,17.037-17.036,17.037H518.831V496.04c0-8.301-6.729-15.032-15.031-15.032c-8.303,0-15.032,6.729-15.032,15.032
			v160.333c0,0.554-0.448,1.001-1.001,1.001h-96.201c-0.553,0-1.001-0.447-1.001-1.001V399.832c0-0.553,0.448-1.001,1.001-1.001
			h96.201c0.553,0,1.001,0.448,1.001,1.001v32.068c0,8.301,6.729,15.031,15.032,15.031c8.302,0,15.031-6.729,15.031-15.031v-32.068
			c0-0.729-0.06-1.443-0.11-2.16c11.271-8.725,20.284-17.544,26.164-23.803c5.563-5.927,11.646-9.988,18.078-12.075
			c35.382-11.486,59.192-29.981,72.934-43.474c17.225-16.911,27.505-34.539,27.505-47.16c0-6.667,2.601-12.917,7.323-17.597
			c4.781-4.738,11.113-7.241,17.955-7.251c8.427,0.079,14.007,4.39,17.207,7.993c5.486,6.179,8.187,15.063,7.232,23.761
			c-3.283,29.866-27.169,66.785-60.852,94.051c-4.948,4.007-6.836,10.697-4.712,16.699s7.802,10.015,14.169,10.015h138.77
			c13.814,0,25.052,11.236,25.052,25.052C825.546,437.698,814.311,448.935,800.497,448.935z"/>
	</g>
</g>
<g>
	<g>
		<path fill="#FFFFFF" d="M439.667,593.073c-8.301,0-15.11,6.81-15.11,15.11s6.81,15.111,15.11,15.111s15.11-6.811,15.11-15.111
			C454.779,599.885,447.97,593.073,439.667,593.073z"/>
	</g>
</g>
<g>
	<g>
		<path fill="#FFFFFF" d="M1053.206,480l25.822-68.331c1.881-4.971,0.994-10.563-2.33-14.713l-45.674-57.008l3.443-72.966
			c0.251-5.306-2.321-10.355-6.762-13.271l-61.054-40.104l-19.271-70.459c-1.402-5.126-5.407-9.131-10.531-10.532l-70.459-19.271
			l-40.104-61.052c-2.917-4.442-7.965-7.004-13.271-6.762l-72.965,3.442L683.042,3.302c-4.147-3.322-9.74-4.21-14.713-2.331
			l-68.331,25.823L531.671,0.973c-4.974-1.881-10.565-0.993-14.713,2.331L459.95,48.977l-72.965-3.442
			c-5.333-0.251-10.355,2.321-13.271,6.761l-40.103,61.054l-70.459,19.271c-5.126,1.402-9.131,5.408-10.532,10.532l-19.271,70.459
			l-61.054,40.103c-4.442,2.917-7.012,7.965-6.761,13.271l3.443,72.966l-45.673,57.008c-3.322,4.147-4.209,9.74-2.331,14.713
			L146.794,480l-25.823,68.328c-1.88,4.971-0.994,10.563,2.331,14.713l45.673,57.008l-3.442,72.966
			c-0.251,5.306,2.321,10.355,6.761,13.271l61.054,40.104l19.271,70.458c1.403,5.127,5.408,9.132,10.532,10.532l70.459,19.271
			l40.103,61.054c2.917,4.441,7.975,6.995,13.271,6.761l72.965-3.442l57.008,45.673c4.147,3.325,9.742,4.212,14.713,2.331
			L600,933.206l68.331,25.822c1.725,0.65,3.522,0.97,5.312,0.97c3.367,0,6.691-1.131,9.399-3.301l57.008-45.673l72.965,3.442
			c5.323,0.236,10.354-2.321,13.271-6.761l40.104-61.054l70.459-19.271c5.126-1.402,9.131-5.407,10.532-10.532l19.271-70.458
			l61.054-40.104c4.442-2.918,7.013-7.966,6.762-13.271l-3.442-72.966l45.673-57.008c3.322-4.147,4.209-9.74,2.33-14.713
			L1053.206,480z M1023.077,485.314l24.799,65.623l-43.864,54.748c-2.289,2.855-3.457,6.45-3.285,10.106l3.308,70.074
			l-58.633,38.515c-3.059,2.008-5.282,5.066-6.248,8.599l-18.508,67.667l-67.667,18.508c-3.53,0.966-6.587,3.188-8.599,6.247
			l-38.515,58.634l-70.074-3.308c-3.658-0.169-7.25,0.995-10.106,3.285l-54.748,43.863l-65.623-24.799
			c-1.712-0.646-3.514-0.969-5.313-0.969s-3.602,0.324-5.313,0.969l-65.623,24.799l-54.748-43.863
			c-2.856-2.29-6.456-3.454-10.106-3.285l-70.075,3.308l-38.514-58.634c-2.008-3.058-5.066-5.281-8.599-6.247l-67.667-18.508
			l-18.508-67.667c-0.966-3.531-3.188-6.587-6.248-8.599l-58.633-38.515l3.307-70.074c0.173-3.658-0.996-7.251-3.285-10.106
			l-43.864-54.748l24.8-65.623c1.294-3.424,1.294-7.204,0-10.628l-24.8-65.623l43.864-54.748c2.289-2.855,3.458-6.45,3.285-10.106
			l-3.307-70.074l58.633-38.514c3.058-2.009,5.282-5.066,6.248-8.599l18.508-67.667l67.667-18.509
			c3.53-0.965,6.586-3.188,8.599-6.247l38.514-58.633l70.075,3.307c3.652,0.171,7.25-0.995,10.106-3.284l54.748-43.864
			l65.623,24.801c3.426,1.294,7.203,1.294,10.627,0l65.623-24.801l54.748,43.864c2.856,2.291,6.452,3.457,10.106,3.284l70.074-3.307
			l38.515,58.633c2.008,3.058,5.066,5.282,8.599,6.247l67.667,18.509l18.508,67.667c0.966,3.53,3.188,6.587,6.248,8.599
			l58.633,38.514l-3.308,70.074c-0.172,3.658,0.996,7.251,3.285,10.106l43.864,54.748l-24.801,65.623
			C1021.783,478.112,1021.783,481.89,1023.077,485.314z"/>
	</g>
</g>
<g>
	<g>
		<path fill="#FFFFFF" d="M882.438,220.451c-3.74-4.072-7.619-8.123-11.537-12.038c-3.916-3.915-7.965-7.796-12.037-11.536
			c-6.114-5.614-15.622-5.209-21.238,0.907c-5.613,6.114-5.209,15.624,0.908,21.238c3.755,3.45,7.494,7.031,11.109,10.646
			c3.613,3.612,7.195,7.354,10.647,11.11c2.965,3.229,7.015,4.866,11.077,4.866c3.633,0,7.275-1.309,10.161-3.958
			C887.646,236.075,888.053,226.566,882.438,220.451z"/>
	</g>
</g>
<g>
	<g>
		<path fill="#FFFFFF" d="M805.485,155.86c-72.488-46.182-159.762-66.705-245.736-57.805
			c-87.234,9.037-169.49,48.229-231.62,110.356c-68.376,68.376-108.186,159.208-112.097,255.766
			c-3.887,95.988,27.906,189.184,89.524,262.413c2.972,3.533,7.224,5.354,11.511,5.354c3.416,0,6.851-1.159,9.669-3.529
			c6.351-5.345,7.168-14.827,1.825-21.178c-56.777-67.479-86.072-153.365-82.491-241.841
			c3.604-88.991,40.294-172.706,103.314-235.726c57.263-57.264,133.072-93.386,213.461-101.713
			c79.266-8.212,159.696,10.705,226.485,53.256c7.003,4.461,16.292,2.402,20.752-4.6C814.545,169.611,812.484,160.32,805.485,155.86
			z"/>
	</g>
</g>
<g>
	<g>
		<path fill="#FFFFFF" d="M923.458,273.83c-4.461-7.003-13.757-9.062-20.754-4.601c-7.004,4.46-9.061,13.753-4.6,20.752
			c42.551,66.791,61.464,147.225,53.256,226.485c-8.327,80.389-44.449,156.196-101.712,213.463
			c-63.021,63.019-146.735,99.711-235.725,103.314c-88.461,3.596-174.364-25.712-241.841-82.487
			c-6.351-5.346-15.833-4.528-21.178,1.824c-5.346,6.351-4.528,15.833,1.824,21.179c69.228,58.247,156.283,89.844,246.687,89.842
			c5.229,0,10.479-0.106,15.729-0.318c96.557-3.909,187.388-43.72,255.765-112.095c62.13-62.13,101.323-144.389,110.357-231.623
			C990.169,433.586,969.64,346.316,923.458,273.83z"/>
	</g>
</g>
</svg>
