<?xml version="1.0" encoding="utf-8"?>
<!-- Generator: Adobe Illustrator 16.0.0, SVG Export Plug-In . SVG Version: 6.00 Build 0)  -->
<!DOCTYPE svg PUBLIC "-//W3C//DTD SVG 1.1//EN" "http://www.w3.org/Graphics/SVG/1.1/DTD/svg11.dtd">
<svg version="1.1" id="Layer_1" xmlns="http://www.w3.org/2000/svg" xmlns:xlink="http://www.w3.org/1999/xlink" x="0px" y="0px"
	 width="600.72px" height="601.001px" viewBox="-99.01 10.002 600.72 601.001"
	 enable-background="new -99.01 10.002 600.72 601.001" xml:space="preserve">
<g>
	<path fill="#FFFFFF" d="M120.566,407.087c2.591,0,5.045-0.99,6.91-2.788l14.527-14.02l6.827,5.197
		c8.237,6.271,17.883,9.587,27.897,9.587c11.847,0,23.07-4.7,31.601-13.234l1.471-1.471c8.742-8.739,13.488-20.322,13.363-32.616
		c-0.127-12.159-5.005-23.663-13.733-32.39l-12.928-12.925c-4.956-4.959-7.595-11.678-7.433-18.92
		c0.158-7.075,2.984-13.711,7.96-18.683l3.148-3.148c4.921-4.926,11.14-7.53,17.984-7.53l0.222,0.001
		c6.901,0.076,13.454,2.888,18.482,7.916l12.223,12.227c3.889,3.881,6.116,8.936,6.269,14.229c0.155,5.171-1.759,10.021-5.389,13.65
		c-1.88,1.879-2.916,4.378-2.916,7.034c0,2.658,1.036,5.158,2.916,7.039c1.88,1.88,4.379,2.915,7.037,2.915
		c2.656,0,5.154-1.035,7.034-2.914c7.544-7.541,11.525-17.597,11.212-28.314c-0.231-7.9-2.778-15.533-7.364-22.071l-4.742-6.764
		l14.206-14.671c3.816-3.944,3.715-10.258-0.227-14.075c-1.865-1.807-4.323-2.802-6.919-2.802c-2.721,0-5.261,1.077-7.154,3.031
		l-14.141,14.604L242.079,251c-7.071-4.328-15.178-6.664-23.444-6.756l-0.5,0.001c-12.043,0-23.417,4.743-32.029,13.355
		l-3.158,3.154c-18.266,18.269-18.5,47.763-0.521,65.745l12.93,12.926c5.021,5.022,7.828,11.599,7.903,18.519
		c0.071,6.903-2.605,13.416-7.536,18.341l-1.455,1.46c-4.727,4.724-10.953,7.321-17.537,7.321c-6.978,0-13.696-2.876-18.917-8.099
		l-21.013-21.014c-3.848-3.839-6.029-8.79-6.139-13.938c-0.11-5.138,1.8-9.817,5.522-13.532c3.874-3.875,3.872-10.188-0.008-14.069
		c-1.879-1.878-4.378-2.913-7.037-2.913c-2.659,0-5.159,1.035-7.041,2.916c-7.533,7.533-11.559,17.486-11.336,28.025
		c0.207,9.678,4.035,19.031,10.778,26.336l6.633,7.188l-14.515,14.007c-1.915,1.847-2.995,4.327-3.043,6.986
		c-0.047,2.656,0.942,5.173,2.787,7.084C115.295,406.007,117.839,407.087,120.566,407.087z"/>
	<path fill="#FFFFFF" d="M463.952,10.002c-0.273,0-0.541,0.011-0.817,0.035c-2.881,0.238-70.643,6.359-95.6,54.791l-3.121,6.057
		L258.617,60.134c-2.372-0.241-4.781-0.363-7.159-0.363c-18.599,0-36.096,7.266-49.268,20.458L-78.656,360.51
		c-27.149,27.198-27.137,71.455,0.034,98.648L52.407,590.297c13.342,13.353,31.06,20.706,49.889,20.706
		c18.51-0.004,35.852-7.146,48.831-20.111c1.88-1.879,2.916-4.378,2.917-7.036c0.001-2.657-1.033-5.156-2.912-7.036
		c-1.88-1.883-4.38-2.919-7.04-2.919c-2.657,0-5.155,1.033-7.034,2.91c-9.231,9.225-21.576,14.306-34.76,14.307
		c-13.5,0.001-26.217-5.287-35.811-14.892L-64.544,445.089c-19.424-19.439-19.446-51.062-0.05-70.491L216.257,94.312
		c9.424-9.437,21.948-14.637,35.26-14.637c1.688,0,3.399,0.086,5.086,0.257l159.927,16.256l3.586,35.196l-7.24,2.698
		c-29.047,10.828-56.328,12.534-57.476,12.602c-5.509,0.296-9.736,4.99-9.449,10.463c0.278,5.287,4.637,9.429,9.92,9.429
		c0.17,0,0.341-0.003,0.511-0.012c1.041-0.054,25.371-1.405,54.107-10.6l11.746-3.759l10.536,103.471
		c1.525,14.964-3.694,29.656-14.321,40.305L191.087,521.917c-1.918,1.89-2.978,4.386-2.997,7.044
		c-0.02,2.659,0.996,5.166,2.861,7.06c1.884,1.911,4.402,2.965,7.088,2.965c2.629,0,5.109-1.018,6.983-2.864l227.5-226.067
		c14.877-14.864,22.188-35.423,20.05-56.395l-11.243-110.38l5.547-3.248c12.444-7.285,22.954-15.877,31.238-25.54
		c15.675-18.294,23.613-40.475,23.596-65.924v-0.803C501.71,26.942,484.771,10.002,463.952,10.002z M481.808,48.571
		c0.018,25.157-9.382,46.101-27.938,62.246l-14.559,12.667l-3.807-37.386c-0.476-4.676-4.217-8.416-8.896-8.893l-44.737-4.544
		l15.703-14.988c22.646-21.619,58.891-26.841,65.927-27.669l1.04-0.122l1.041,0.096c9.25,0.848,16.226,8.494,16.226,17.786V48.571z"
		/>
</g>
</svg>
