<?xml version="1.0" encoding="utf-8"?>
<!-- Generator: Adobe Illustrator 16.0.0, SVG Export Plug-In . SVG Version: 6.00 Build 0)  -->
<!DOCTYPE svg PUBLIC "-//W3C//DTD SVG 1.1//EN" "http://www.w3.org/Graphics/SVG/1.1/DTD/svg11.dtd">
<svg version="1.1" id="Layer_1" xmlns="http://www.w3.org/2000/svg" xmlns:xlink="http://www.w3.org/1999/xlink" x="0px" y="0px"
	 width="200px" height="200px" viewBox="0 0 200 200" enable-background="new 0 0 200 200" xml:space="preserve">
<g>
	<path fill="#FFFFFF" d="M100,195c-52.383,0-95-42.617-95-95C5,47.617,47.617,5,100,5s95,42.617,95,95
		C195,152.382,152.383,195,100,195z"/>
	<path fill="#F3F3F3" d="M100,10c49.626,0,90,40.374,90,90c0,49.625-40.374,90-90,90s-90-40.375-90-90C10,50.374,50.374,10,100,10
		 M100,0C44.771,0,0,44.771,0,100c0,55.228,44.771,100,100,100c55.229,0,100-44.771,100-100C200,44.771,155.229,0,100,0L100,0z"/>
</g>
<circle fill="#F24976" cx="99.08" cy="100.388" r="68.132"/>
<path fill="#C3DDF4" d="M120.543,152.855c-0.303-0.873-1.317-1.594-2.256-1.594h-4.835c-0.677,0-1.228-0.552-1.228-1.229v-8.671
	c0-0.677,0.55-1.227,1.228-1.227h4.833c0.94,0,1.955-0.724,2.264-1.611l0.915-2.196c0.409-0.828,0.205-2.053-0.463-2.716
	l-3.411-3.385c-0.23-0.229-0.359-0.536-0.359-0.863s0.129-0.634,0.359-0.863l6.187-6.139c0.232-0.229,0.543-0.356,0.873-0.356
	c0.332,0,0.642,0.127,0.874,0.356l3.41,3.385c0.422,0.419,1.076,0.67,1.749,0.67c0.359,0,0.704-0.075,0.993-0.215l2.227-0.913
	c0.875-0.299,1.598-1.312,1.598-2.251v-4.774c0-0.678,0.551-1.228,1.228-1.228h8.76c0.678,0,1.229,0.551,1.229,1.228v4.774
	c0,0.939,0.724,1.952,1.612,2.257l2.23,0.913c0.272,0.135,0.615,0.209,0.976,0.209c0.673,0,1.326-0.251,1.749-0.67l1.691-1.68
	v-8.491h-5.52c-0.357,0-0.83-0.271-1.01-0.582l-4.482-7.766c-0.181-0.311-0.181-0.855-0.001-1.166l4.483-7.765
	c0.18-0.312,0.651-0.583,1.01-0.583h5.521V84.005h-3.101c0.002,0.22-0.041,0.441-0.134,0.601l-3.463,5.998
	c-0.18,0.311-0.652,0.584-1.011,0.584h-2.026v5.193c0,0.307-0.249,0.556-0.556,0.556H53.473c-0.307,0-0.557-0.249-0.557-0.556
	V84.005h-9.733v55.341c4.115,5.894,9.137,11.104,14.865,15.433h63.296L120.543,152.855z"/>
<g>
	<path fill="#EEF6FF" d="M112.225,141.363c0-0.677,0.551-1.228,1.228-1.228h4.834c0.939,0,1.954-0.723,2.264-1.61l0.727-1.746
		H53.473c-0.459,0-0.834,0.376-0.834,0.835v5.482c0,0.46,0.375,0.835,0.834,0.835h58.752V141.363z"/>
	<path fill="#EEF6FF" d="M154.594,72.446l-2.783-4.819c-0.18-0.311-0.18-0.856,0-1.167l2.783-4.82
		c0.081-0.14,0.221-0.27,0.383-0.373v-4.261H43.183v27.277h9.733v-18.83c0-0.307,0.25-0.556,0.557-0.556h91.215
		c0.306,0,0.555,0.25,0.555,0.556v11.405h2.026c0.358,0,0.831,0.272,1.011,0.583l3.463,5.998c0.127,0.22,0.162,0.556,0.11,0.844
		h3.124V72.818C154.814,72.716,154.675,72.585,154.594,72.446z"/>
</g>
<path fill="#293D7C" d="M152.196,41.676H45.964c-1.53,0-2.781,1.251-2.781,2.781v12.827h111.794V44.457
	C154.977,42.927,153.725,41.676,152.196,41.676z"/>
<path fill="#1A2B63" d="M51.482,41.676h-5.518c-1.53,0-2.781,1.251-2.781,2.781v12.827h5.519V44.457
	C48.701,42.927,49.952,41.676,51.482,41.676z"/>
<path fill="#E26693" d="M49.697,51.708c-0.616,0-1.217-0.25-1.653-0.682c-0.433-0.436-0.682-1.037-0.682-1.653
	c0-0.613,0.249-1.214,0.682-1.65c0.436-0.436,1.037-0.685,1.653-0.685c0.613,0,1.217,0.25,1.65,0.685
	c0.436,0.436,0.685,1.037,0.685,1.65c0,0.617-0.25,1.217-0.685,1.653C50.915,51.458,50.311,51.708,49.697,51.708z"/>
<path fill="#FFAF10" d="M57.354,51.708c-0.614,0-1.218-0.25-1.65-0.686c-0.436-0.433-0.685-1.033-0.685-1.649
	c0-0.613,0.249-1.214,0.685-1.65c0.436-0.436,1.037-0.685,1.65-0.685c0.617,0,1.217,0.249,1.653,0.685
	c0.433,0.436,0.681,1.037,0.681,1.65s-0.248,1.217-0.681,1.649C58.572,51.458,57.971,51.708,57.354,51.708z"/>
<path fill="#37C47A" d="M65.015,51.708c-0.616,0-1.217-0.25-1.65-0.682c-0.435-0.436-0.685-1.037-0.685-1.653
	c0-0.613,0.25-1.214,0.685-1.65c0.434-0.436,1.034-0.685,1.65-0.685c0.613,0,1.217,0.25,1.649,0.685
	c0.437,0.436,0.686,1.037,0.686,1.65c0,0.617-0.25,1.217-0.686,1.653C66.229,51.458,65.628,51.708,65.015,51.708z"/>
<path fill="#02AF8E" d="M140.343,91.187c-0.358,0-0.831-0.272-1.011-0.584l-3.463-5.998c-0.179-0.311-0.179-0.856,0-1.167
	l3.463-5.998c0.18-0.311,0.652-0.583,1.011-0.583h5.179V65.453c0-0.458-0.376-0.834-0.834-0.834H53.473
	c-0.459,0-0.834,0.376-0.834,0.834V96.38c0,0.458,0.375,0.834,0.834,0.834h91.215c0.458,0,0.834-0.375,0.834-0.834v-5.193H140.343
	L140.343,91.187z"/>
<path fill="#0F9390" d="M58.156,96.38V65.453c0-0.458,0.375-0.834,0.834-0.834h-5.518c-0.459,0-0.834,0.376-0.834,0.834V96.38
	c0,0.458,0.375,0.834,0.834,0.834h5.518C58.532,97.214,58.156,96.839,58.156,96.38z"/>
<g>
	<path fill="#EEF6FF" d="M80.586,114.285c0,0.459-0.375,0.835-0.834,0.835H53.473c-0.459,0-0.834-0.376-0.834-0.835v-12.124
		c0-0.46,0.375-0.835,0.834-0.835h26.279c0.459,0,0.834,0.375,0.834,0.835V114.285z"/>
	<path fill="#EEF6FF" d="M102.953,131.976c0,0.459-0.375,0.834-0.835,0.834H85.855c-0.459,0-0.834-0.375-0.834-0.834V102.16
		c0-0.459,0.375-0.834,0.834-0.834h16.263c0.46,0,0.835,0.375,0.835,0.834V131.976z"/>
	<path fill="#EEF6FF" d="M117.591,130.228c-0.231-0.229-0.359-0.537-0.359-0.863c0-0.328,0.128-0.634,0.359-0.864l6.186-6.139
		c0.132-0.13,0.289-0.223,0.46-0.282v-19.92c0-0.459-0.375-0.834-0.835-0.834H107.14c-0.458,0-0.834,0.375-0.834,0.834v29.816
		c0,0.459,0.376,0.834,0.834,0.834h13.054L117.591,130.228z"/>
	<path fill="#EEF6FF" d="M128.935,125.747c0.422,0.42,1.076,0.67,1.748,0.67c0.359,0,0.704-0.074,0.993-0.215l2.227-0.913
		c0.875-0.299,1.598-1.312,1.598-2.251v-4.774c0-0.677,0.551-1.227,1.228-1.227h8.76c0.012,0,0.022,0.002,0.034,0.002v-7.109
		l-1.559-2.7c-0.181-0.312-0.181-0.856-0.001-1.167l1.56-2.699v-1.202c0-0.46-0.376-0.835-0.834-0.835h-16.264
		c-0.46,0-0.835,0.375-0.835,0.835v22.251L128.935,125.747z"/>
	<path fill="#EEF6FF" d="M80.586,131.976c0,0.459-0.375,0.834-0.834,0.834H53.473c-0.459,0-0.834-0.375-0.834-0.834v-12.125
		c0-0.459,0.375-0.834,0.834-0.834h26.279c0.459,0,0.834,0.375,0.834,0.834V131.976z"/>
</g>
<g>
	<path fill="#D9EAFC" d="M58.156,143.096v-5.482c0-0.459,0.375-0.835,0.834-0.835h-5.518c-0.459,0-0.834,0.376-0.834,0.835v5.482
		c0,0.46,0.375,0.834,0.834,0.834h5.518C58.532,143.93,58.156,143.556,58.156,143.096z"/>
	<path fill="#D9EAFC" d="M58.156,114.285v-12.124c0-0.46,0.375-0.835,0.834-0.835h-5.518c-0.459,0-0.834,0.375-0.834,0.835v12.124
		c0,0.459,0.375,0.835,0.834,0.835h5.518C58.532,115.12,58.156,114.744,58.156,114.285z"/>
	<path fill="#D9EAFC" d="M90.539,131.976V102.16c0-0.459,0.375-0.834,0.834-0.834h-5.518c-0.459,0-0.834,0.375-0.834,0.834v29.816
		c0,0.459,0.375,0.834,0.834,0.834h5.518C90.914,132.81,90.539,132.435,90.539,131.976z"/>
	<path fill="#D9EAFC" d="M111.822,131.976V102.16c0-0.459,0.376-0.834,0.835-0.834h-5.518c-0.458,0-0.834,0.375-0.834,0.834v29.816
		c0,0.459,0.376,0.834,0.834,0.834h5.518C112.198,132.81,111.822,132.435,111.822,131.976z"/>
	<path fill="#D9EAFC" d="M128.935,125.747c0.422,0.42,1.076,0.67,1.748,0.67c0.359,0,0.704-0.074,0.993-0.215l1.432-0.587v-23.454
		c0-0.46,0.375-0.835,0.835-0.835h-5.519c-0.46,0-0.835,0.375-0.835,0.835v22.251L128.935,125.747z"/>
	<path fill="#D9EAFC" d="M58.156,131.976v-12.125c0-0.459,0.375-0.834,0.834-0.834h-5.518c-0.459,0-0.834,0.375-0.834,0.834v12.125
		c0,0.459,0.375,0.834,0.834,0.834h5.518C58.532,132.81,58.156,132.435,58.156,131.976z"/>
</g>
<path fill="#AEC1ED" d="M147.979,51.209h-12.302c-1.152,0-2.086-0.934-2.086-2.086c0-1.152,0.934-2.086,2.086-2.086h12.302
	c1.151,0,2.086,0.934,2.086,2.086C150.065,50.275,149.131,51.209,147.979,51.209z"/>
<path fill="#445EA0" d="M135.224,173.132c0,0.827,0.677,1.506,1.504,1.506h8.76c0.828,0,1.507-0.679,1.507-1.506v-4.774
	c0-0.828,0.642-1.726,1.426-1.993l2.244-0.921c0.745-0.362,1.835-0.182,2.423,0.402l3.412,3.386c0.587,0.583,1.55,0.583,2.138,0
	l6.185-6.14c0.588-0.583,0.588-1.539,0-2.121l-3.41-3.386c-0.589-0.583-0.77-1.669-0.401-2.412l0.92-2.212
	c0.271-0.782,1.172-1.424,2.002-1.423h4.833c0.828,0,1.506-0.678,1.506-1.506v-8.671c0-0.828-0.678-1.506-1.506-1.506h-4.833
	c-0.83,0-1.73-0.64-2.002-1.422l-0.92-2.213c-0.367-0.744-0.188-1.828,0.401-2.412l3.41-3.384c0.588-0.584,0.588-1.538,0-2.123
	l-6.185-6.138c-0.588-0.585-1.551-0.585-2.138,0l-3.412,3.385c-0.588,0.584-1.68,0.765-2.423,0.402l-2.245-0.92
	c-0.783-0.27-1.426-1.166-1.426-1.995v-4.773c0-0.829-0.678-1.507-1.507-1.507h-8.759c-0.827,0-1.505,0.679-1.505,1.507v4.773
	c0,0.829-0.643,1.726-1.427,1.995l-2.243,0.92c-0.745,0.362-1.835,0.182-2.424-0.402l-3.411-3.385c-0.587-0.585-1.55-0.585-2.138,0
	l-6.187,6.138c-0.589,0.585-0.589,1.539,0,2.123l3.411,3.384c0.588,0.584,0.769,1.669,0.401,2.412l-0.92,2.213
	c-0.272,0.783-1.172,1.422-2.002,1.422h-4.833c-0.828,0-1.506,0.678-1.506,1.506v8.671c0,0.828,0.678,1.506,1.506,1.506h4.833
	c0.83-0.001,1.729,0.641,2.002,1.423l0.92,2.213c0.367,0.742,0.187,1.828-0.401,2.411l-3.411,3.386
	c-0.589,0.582-0.589,1.538,0,2.121l6.187,6.14c0.588,0.583,1.551,0.583,2.138-0.001l3.411-3.385
	c0.588-0.585,1.678-0.765,2.423-0.402l2.244,0.921c0.784,0.268,1.427,1.165,1.427,1.993L135.224,173.132L135.224,173.132
	L135.224,173.132z"/>
<ellipse fill="#FF9518" cx="141.107" cy="145.697" rx="14.035" ry="13.929"/>
<path fill="#EF8318" d="M131.344,145.699c0-6.974,5.161-12.749,11.899-13.77c-0.695-0.105-1.408-0.16-2.135-0.16
	c-7.752,0-14.034,6.236-14.035,13.93c0,7.691,6.283,13.928,14.035,13.928c0.727,0,1.439-0.055,2.135-0.16
	C136.505,158.446,131.344,152.671,131.344,145.699z"/>
<path fill="#293D7C" d="M141.107,161.886c-8.983,0-16.293-7.261-16.293-16.188s7.31-16.189,16.293-16.189
	c8.986,0,16.296,7.263,16.296,16.188C157.403,154.625,150.094,161.886,141.107,161.886z M141.107,134.03
	c-6.492,0-11.774,5.233-11.774,11.669c0,6.434,5.281,11.669,11.774,11.669c6.494,0,11.776-5.235,11.776-11.67
	S147.602,134.03,141.107,134.03z"/>
<ellipse fill="#C3DDF4" cx="141.107" cy="145.697" rx="5.933" ry="5.887"/>
<path fill="#AEC1ED" d="M139.445,145.699c0-2.505,1.577-4.639,3.798-5.49c-0.663-0.254-1.382-0.399-2.136-0.399
	c-3.275,0-5.933,2.636-5.933,5.89c0,3.25,2.656,5.887,5.933,5.887c0.754,0,1.473-0.145,2.136-0.398
	C141.022,150.335,139.445,148.202,139.445,145.699z"/>
<path fill="#DB722C" d="M141.107,153.845c-4.517,0-8.191-3.656-8.191-8.147c0-4.492,3.675-8.146,8.191-8.146
	c4.519,0,8.194,3.654,8.194,8.146C149.301,150.189,145.626,153.845,141.107,153.845z M141.107,142.07
	c-2.023,0-3.674,1.627-3.674,3.629c0,2,1.65,3.627,3.674,3.627c2.026,0,3.675-1.627,3.675-3.628
	C144.782,143.696,143.134,142.07,141.107,142.07z"/>
<path fill="#EF8318" d="M140.343,91.465c-0.459,0-1.021-0.325-1.252-0.722l-3.462-5.998c-0.23-0.397-0.23-1.048,0-1.444l3.462-5.999
	c0.23-0.397,0.793-0.723,1.252-0.723h6.926c0.459,0,1.022,0.325,1.252,0.723l3.463,5.999c0.229,0.396,0.229,1.047,0,1.444
	l-3.463,5.998c-0.229,0.397-0.793,0.722-1.252,0.722H140.343L140.343,91.465z"/>
<g>
	<path fill="#FFD00D" d="M155.604,73.308c-0.458,0-1.022-0.325-1.251-0.723l-2.782-4.82c-0.229-0.397-0.229-1.047,0-1.445
		l2.782-4.82c0.229-0.398,0.793-0.722,1.251-0.722h5.566c0.458,0,1.021,0.324,1.251,0.722l2.783,4.82
		c0.229,0.397,0.229,1.047,0,1.445l-2.783,4.82c-0.229,0.397-0.793,0.723-1.251,0.723H155.604z"/>
	<path fill="#FFD00D" d="M149.455,115.855c-0.458,0-1.021-0.326-1.252-0.723l-4.481-7.765c-0.229-0.397-0.229-1.047,0-1.444
		l4.481-7.765c0.23-0.397,0.794-0.723,1.252-0.723h8.967c0.459,0,1.021,0.326,1.251,0.723l4.482,7.765
		c0.23,0.397,0.23,1.047,0,1.444l-4.482,7.765c-0.229,0.397-0.792,0.723-1.251,0.723H149.455L149.455,115.855z"/>
</g>
<path fill="#DB722C" d="M144.61,90.743l-3.464-5.998c-0.229-0.397-0.229-1.048,0-1.444l3.464-5.999
	c0.229-0.397,0.792-0.723,1.251-0.723h-5.519c-0.459,0-1.021,0.325-1.251,0.723l-3.463,5.999c-0.23,0.396-0.23,1.047,0,1.444
	l3.463,5.998c0.229,0.397,0.792,0.722,1.251,0.722h5.519C145.402,91.465,144.839,91.14,144.61,90.743z"/>
<g>
	<path fill="#FFAF10" d="M159.87,72.585l-2.782-4.82c-0.23-0.397-0.23-1.047,0-1.445l2.782-4.82c0.23-0.398,0.793-0.722,1.252-0.722
		h-5.519c-0.458,0-1.021,0.324-1.251,0.722l-2.782,4.82c-0.229,0.397-0.229,1.047,0,1.445l2.782,4.82
		c0.229,0.397,0.793,0.723,1.251,0.723h5.519C160.663,73.308,160.1,72.983,159.87,72.585z"/>
	<path fill="#FFAF10" d="M153.723,115.132l-4.484-7.765c-0.229-0.397-0.229-1.047,0-1.444l4.484-7.765
		c0.229-0.397,0.793-0.723,1.251-0.723h-5.519c-0.458,0-1.021,0.326-1.252,0.723l-4.481,7.765c-0.23,0.397-0.23,1.047,0,1.444
		l4.481,7.765c0.23,0.397,0.794,0.723,1.252,0.723h5.519C154.516,115.855,153.951,115.529,153.723,115.132z"/>
</g>
</svg>
