<?xml version="1.0" encoding="utf-8"?>
<!-- Generator: Adobe Illustrator 16.0.0, SVG Export Plug-In . SVG Version: 6.00 Build 0)  -->
<!DOCTYPE svg PUBLIC "-//W3C//DTD SVG 1.1//EN" "http://www.w3.org/Graphics/SVG/1.1/DTD/svg11.dtd">
<svg version="1.1" id="Capa_1" xmlns="http://www.w3.org/2000/svg" xmlns:xlink="http://www.w3.org/1999/xlink" x="0px" y="0px"
	 width="951.77px" height="954px" viewBox="124.123 3 951.77 954" enable-background="new 124.123 3 951.77 954"
	 xml:space="preserve">
<g>
	<path fill="#FFFFFF" d="M860.388,729.526c-12.178-36.501-43.267-63.459-81.134-70.353l-105.941-19.277v-12.251l1.494-0.867
		c17.649-10.243,32.879-23.767,45.268-40.196l0.9-1.194h32.757c23.96,0,43.452-19.492,43.452-43.452V356.129
		c0-109.337-88.953-198.29-198.291-198.29c-109.337,0-198.29,88.953-198.29,198.29v108.387c0,27.81,19.76,52.081,46.986,57.713
		l1.954,0.404l0.382,1.958c8.365,42.854,34.993,80.1,73.055,102.187l1.494,0.867v12.252l-105.957,19.276
		c-37.874,6.897-68.957,33.855-81.118,70.353l-7.728,23.203l-56.172-56.172c-7.21-7.211-7.21-18.942,0-26.151l59.039-59.025
		L221.984,500.826l-66.999,66.998c-19.902,19.902-30.863,46.368-30.863,74.523c0,28.145,10.961,54.605,30.863,74.509L364.25,926.121
		C384.163,946.033,410.629,957,438.774,957c28.14,0,54.43-10.801,74.027-30.413l0.095-0.092l73.109-66.986l-26.433-26.38h335.344
		L860.388,729.526z M772.216,541.935c0,10.192-8.292,18.484-18.484,18.484h-17.613l1.845-4.205
		c4.44-10.122,7.771-20.762,9.898-31.625l0.384-1.954l1.95-0.406c5.795-1.205,11.522-3.487,17.51-6.979l4.511-2.63V541.935z
		 M755.243,493.771l-4.512,2.631V432.63l4.512,2.631c10.469,6.105,16.973,17.315,16.973,29.254S765.712,487.664,755.243,493.771z
		 M447.054,496.402l-4.511-2.631c-10.469-6.105-16.972-17.315-16.972-29.255s6.503-23.149,16.972-29.254l4.511-2.631V496.402z
		 M447.054,390.097v17l-2.242,0.586c-5.145,1.343-10.1,3.395-14.729,6.098l-4.513,2.635v-60.287
		c0-95.57,77.752-173.322,173.322-173.322s173.323,77.752,173.323,173.322v60.286l-4.513-2.635
		c-4.676-2.729-9.629-4.781-14.722-6.096l-2.25-0.581v-17.006h-12.483c-46.576,0-90.381-18.145-123.345-51.093l-16.011-16.011
		l-16.011,16.01c-32.963,32.949-76.767,51.094-123.344,51.094H447.054z M472.021,495.484v-80.791l2.775-0.209
		c46.188-3.476,88.386-22.222,122.029-54.212l2.067-1.965l2.067,1.965c33.662,32.007,75.858,50.753,122.028,54.212l2.775,0.208
		v80.792c0,22.171-5.934,44.109-17.158,63.441l-0.867,1.494H601.893v24.968h86.611l-5.967,5.252
		c-23.237,20.452-52.942,31.716-83.645,31.716C528.936,622.355,472.021,565.441,472.021,495.484z M648.345,639.096v6.06
		l-49.452,49.45l-49.451-49.45v-6.06l3.899,1.226c14.778,4.646,30.104,7.001,45.552,7.001c15.449,0,30.775-2.355,45.553-7.001
		L648.345,639.096z M221.969,536.129l75.251,75.251l-21.058,21.059l-75.252-75.252L221.969,536.129z M495.553,908.547
		c-15.199,15.145-35.372,23.484-56.81,23.484c-21.464,0-41.662-8.367-56.871-23.562L172.606,699.22
		c-15.185-15.184-23.547-35.375-23.547-56.856c0-21.49,8.362-41.688,23.547-56.872l10.637-10.637l75.252,75.251l-2.679,2.679
		c-16.929,16.943-16.929,44.513,0,61.456l111.035,111.034c8.224,8.209,19.14,12.731,30.735,12.731
		c11.452,0,22.444-4.441,30.159-12.186l0.127-0.12l3.276-2.926l75.555,75.555L495.553,908.547z M525.129,881.421l-75.44-75.441
		l24.911-22.515l75.29,75.288L525.129,881.421z M534.616,808.161l-59.171-59.171l-64.843,58.655
		c-3.338,3.322-8.074,5.227-13.008,5.227c-4.962,0-9.729-1.926-13.077-5.283l-35.125-35.125l11.672-35.049
		c9.277-27.85,32.998-48.428,61.905-53.703l109.781-19.946l66.144,66.144l66.129-66.128l109.763,19.945
		c28.915,5.277,52.636,25.855,61.907,53.705l23.598,70.729H534.616z"/>
	<path fill="#FFFFFF" d="M1032.441,3H815.667c-23.959,0-43.451,19.492-43.451,43.451v123.871c0,23.959,19.492,43.451,43.451,43.451
		h44.915l-15.479,90.291l144.471-90.291h42.868c23.959,0,43.451-19.492,43.451-43.451V46.451C1075.893,22.492,1056.4,3,1032.441,3z
		 M1050.925,170.323c0,10.192-8.292,18.484-18.483,18.484h-50.035l-103.287,64.548l11.074-64.548h-74.526
		c-10.191,0-18.483-8.292-18.483-18.484V46.451c0-10.192,8.292-18.483,18.483-18.483h216.774c10.191,0,18.483,8.292,18.483,18.483
		V170.323z"/>
	<rect x="834.151" y="64.936" fill="#FFFFFF" width="179.806" height="24.968"/>
	<rect x="834.151" y="126.871" fill="#FFFFFF" width="117.871" height="24.968"/>
	<rect x="988.989" y="126.871" fill="#FFFFFF" width="24.968" height="24.968"/>
	<path fill="#FFFFFF" d="M262.106,383.853l-12.846-21.41l-45.564,27.338l1.719-6.994c10.869-44.234,28.959-85.981,53.767-124.083
		c24.232-37.218,54.258-70.044,89.242-97.566c35.074-27.593,74.138-49.07,116.108-63.835
		c43.162-15.185,88.368-22.884,134.362-22.884c39.979,0,79.43,5.792,117.308,17.218l7.39-23.843
		c-40.259-12.173-82.192-18.343-124.697-18.343c-201.199,0-373.485,136.863-418.966,332.827l-1.678,7.229l-31.616-52.705
		l-21.41,12.846l51.338,85.543L262.106,383.853z"/>
	<path fill="#FFFFFF" d="M951.794,390.939l28.876-48.131l2.089,6.111c14.409,42.163,21.715,86.265,21.715,131.082
		c0,91.762-31.437,181.493-88.58,253.024l19.389,15.729c60.739-75.947,94.159-171.268,94.159-268.754
		c0-46.719-7.522-92.793-22.357-136.944l-2.593-7.715l49.914,29.941l12.847-21.41l-85.544-51.338l-51.324,85.559L951.794,390.939z"
		/>
</g>
</svg>
