<?xml version="1.0" encoding="utf-8"?>
<!-- Generator: Adobe Illustrator 16.0.0, SVG Export Plug-In . SVG Version: 6.00 Build 0)  -->
<!DOCTYPE svg PUBLIC "-//W3C//DTD SVG 1.1//EN" "http://www.w3.org/Graphics/SVG/1.1/DTD/svg11.dtd">
<svg version="1.1" id="Layer_1" xmlns="http://www.w3.org/2000/svg" xmlns:xlink="http://www.w3.org/1999/xlink" x="0px" y="0px"
	 width="200px" height="200px" viewBox="0 0 200 200" enable-background="new 0 0 200 200" xml:space="preserve">
<g>
	<path fill="#FFFFFF" d="M100,195c-52.383,0-95-42.617-95-95S47.617,5,100,5s95,42.617,95,95C195,152.382,152.383,195,100,195z"/>
	<path fill="#F3F3F3" d="M100,10c49.626,0,90,40.374,90,90c0,49.625-40.374,90-90,90s-90-40.375-90-90C10,50.374,50.374,10,100,10
		 M100,0C44.771,0,0,44.771,0,100c0,55.229,44.771,100,100,100c55.229,0,100-44.771,100-100C200,44.771,155.229,0,100,0L100,0z"/>
</g>
<path fill="#445EA0" d="M168.289,100.383c0,37.649-30.521,68.17-68.171,68.17c-3.545,0-7.025-0.27-10.422-0.79
	c-3.086-0.474-6.102-1.155-9.039-2.025c-24.935-7.415-43.895-28.713-47.918-54.933c-0.512-3.35-0.782-6.781-0.791-10.272v-0.149
	c0-37.649,30.521-68.17,68.17-68.17c10.456,0,20.365,2.354,29.221,6.562c1.649,0.784,3.265,1.633,4.84,2.545
	c5.021,2.902,9.643,6.425,13.748,10.465c5.661,5.572,10.354,12.123,13.801,19.383C165.935,80.021,168.289,89.929,168.289,100.383z"
	/>
<path opacity="0.1" d="M150.203,92.383l-1.103-19.652l-1.174-20.946l-0.007-0.086c-0.308-5.49-4.689-9.87-10.177-10.179l-3.564-0.2
	l-3.636-0.203l-13.832-0.78l-19.656-1.104c-2.292-0.131-4.53,0.723-6.155,2.349l-58.951,58.95c0.008,3.491,0.278,6.923,0.791,10.272
	c4.023,26.22,22.983,47.518,47.918,54.933l67.196-67.202C149.478,96.913,150.333,94.676,150.203,92.383z M131.218,73.971
	c-4.35,4.349-11.401,4.352-15.751,0.003c-4.352-4.355-4.35-11.408,0-15.758c4.35-4.349,11.401-4.352,15.757,0
	C135.572,62.566,135.569,69.62,131.218,73.971z"/>
<path fill="#F26065" d="M161.728,71.167l-1.18-21.034c-0.309-5.489-4.692-9.869-10.179-10.178l-7.199-0.404l-13.831-0.777
	l-19.659-1.106c-2.293-0.129-4.529,0.725-6.153,2.349l-70.788,70.788c4.496,29.306,27.651,52.463,56.957,56.958l70.787-70.79
	c1.621-1.623,2.477-3.86,2.349-6.152L161.728,71.167z M143.845,72.408c-4.349,4.349-11.402,4.353-15.752,0.003
	c-4.351-4.354-4.348-11.408,0-15.757c4.35-4.349,11.403-4.352,15.758,0C148.199,61.002,148.197,68.057,143.845,72.408z"/>
<g>
	<path fill="#FFFFFF" d="M47.907,131.779c-0.904-0.905-0.395-2.317,0.565-3.277l9.802-9.803c0.933-0.933,2.316-0.339,3.221,0.565
		c1.045,1.044,1.469,2.429,0.622,3.276l-7.317,7.316l4.774,4.773l4.266-4.266c0.848-0.845,2.147-0.508,3.051,0.397
		c0.763,0.762,1.271,2.063,0.339,2.993l-4.267,4.266l7.289,7.289c0.904,0.903,0.255,2.459-0.847,3.56
		c-1.103,1.102-2.656,1.751-3.559,0.848L47.907,131.779z"/>
	<path fill="#FFFFFF" d="M64.123,115.506c-0.706-0.706-0.791-1.863,0.028-2.683l5.849-5.85c3.87-3.869,8.39-5.508,12.995-0.904
		c3.165,3.166,3.531,6.413,2.316,9.153l9.69,2.798c0.283,0.057,0.508,0.228,0.65,0.367c1.102,1.102,0.819,3.757-0.481,5.057
		c-0.564,0.565-1.327,0.876-2.231,0.593l-11.386-3.644l-1.864,1.865l6.809,6.809c0.904,0.903,0.254,2.458-0.848,3.56
		c-1.101,1.102-2.656,1.751-3.56,0.848L64.123,115.506z M71.045,113.614l5.254,5.254l2.797-2.796
		c1.582-1.582,1.894-3.193-0.084-5.169c-1.978-1.978-3.588-1.668-5.17-0.086L71.045,113.614z"/>
	<path fill="#FFFFFF" d="M94.013,100.194l4.238-4.237c0.847-0.847,2.146-0.509,3.05,0.396c0.763,0.763,1.272,2.061,0.339,2.994
		l-4.237,4.239l4.803,4.802l7.572-7.572c0.847-0.847,2.231-0.423,3.277,0.622c0.903,0.903,1.496,2.288,0.564,3.22l-10.059,10.058
		c-0.96,0.961-2.372,1.469-3.276,0.565L82.346,97.341c-0.905-0.904-0.397-2.316,0.565-3.277l10.057-10.057
		c0.933-0.933,2.317-0.339,3.22,0.564c1.046,1.045,1.47,2.43,0.622,3.278l-7.572,7.57L94.013,100.194z"/>
	<path fill="#FFFFFF" d="M110.935,83.272l4.237-4.236c0.848-0.848,2.147-0.509,3.051,0.395c0.763,0.763,1.271,2.063,0.339,2.994
		l-4.236,4.238l4.801,4.802l7.571-7.571c0.849-0.847,2.233-0.424,3.277,0.622c0.905,0.904,1.498,2.289,0.565,3.22l-10.057,10.058
		c-0.961,0.96-2.372,1.469-3.275,0.565l-17.94-17.939c-0.904-0.904-0.396-2.316,0.563-3.277l10.058-10.058
		c0.934-0.932,2.316-0.338,3.221,0.564c1.045,1.046,1.471,2.43,0.622,3.278l-7.571,7.57L110.935,83.272z"/>
</g>
</svg>
