<?xml version="1.0" encoding="utf-8"?>
<!-- Generator: Adobe Illustrator 16.0.0, SVG Export Plug-In . SVG Version: 6.00 Build 0)  -->
<!DOCTYPE svg PUBLIC "-//W3C//DTD SVG 1.1//EN" "http://www.w3.org/Graphics/SVG/1.1/DTD/svg11.dtd">
<svg version="1.1" id="Layer_1" xmlns="http://www.w3.org/2000/svg" xmlns:xlink="http://www.w3.org/1999/xlink" x="0px" y="0px"
	 width="200px" height="200px" viewBox="0 0 200 200" enable-background="new 0 0 200 200" xml:space="preserve">
<g>
	<path fill="#FFFFFF" d="M100,195c-52.383,0-95-42.617-95-95C5,47.617,47.617,5,100,5s95,42.617,95,95
		C195,152.382,152.383,195,100,195z"/>
	<path fill="#F3F3F3" d="M100,10c49.626,0,90,40.374,90,90c0,49.625-40.374,90-90,90s-90-40.375-90-90C10,50.374,50.374,10,100,10
		 M100,0C44.771,0,0,44.771,0,100c0,55.228,44.771,100,100,100c55.229,0,100-44.771,100-100C200,44.771,155.229,0,100,0L100,0z"/>
</g>
<circle fill="#F24976" cx="99.416" cy="100.188" r="68.247"/>
<rect x="86.948" y="135.767" fill="#445EA0" width="24.938" height="12.376"/>
<rect x="86.948" y="135.767" fill="#2E4C89" width="5.526" height="12.376"/>
<path fill="#293D7C" d="M124.234,155.285c0,0.678-0.555,1.233-1.234,1.233H75.83c-0.678,0-1.233-0.556-1.233-1.233V149.1
	c0-0.678,0.556-1.233,1.233-1.233H123c0.68,0,1.234,0.556,1.234,1.233V155.285L124.234,155.285z"/>
<path fill="#1A2B63" d="M80.124,155.285V149.1c0-0.678,0.556-1.233,1.233-1.233h-5.526c-0.679,0-1.234,0.556-1.234,1.233v6.185
	c0,0.678,0.556,1.233,1.234,1.233h5.526C80.68,156.518,80.124,155.962,80.124,155.285z"/>
<path fill="#293D7C" d="M169.109,40.818H29.722c-0.889,0-1.617,0.727-1.617,1.617v91.994c0,0.89,0.728,1.616,1.617,1.616h95.954
	v-4.832c0-0.492,0.398-0.891,0.891-0.891h3.758c0.767,0,1.564-0.569,1.816-1.294l0.711-1.704c0.333-0.674,0.173-1.638-0.374-2.18
	l-2.651-2.629c-0.167-0.168-0.26-0.39-0.26-0.627c0-0.238,0.093-0.461,0.26-0.627l4.809-4.771c0.168-0.168,0.395-0.261,0.635-0.261
	s0.467,0.093,0.634,0.261l2.651,2.63c0.341,0.337,0.863,0.539,1.403,0.539c0.29,0,0.566-0.061,0.8-0.173l1.726-0.709
	c0.713-0.242,1.281-1.039,1.281-1.808v-3.71c0-0.492,0.4-0.892,0.893-0.892h6.808c0.492,0,0.892,0.399,0.892,0.892v3.71
	c0,0.769,0.57,1.565,1.295,1.813l1.731,0.71c0.215,0.105,0.492,0.166,0.781,0.166c0.538,0,1.063-0.202,1.403-0.539l2.651-2.63
	c0.168-0.168,0.394-0.261,0.635-0.261c0.24,0,0.466,0.093,0.634,0.261l4.809,4.771c0.168,0.166,0.259,0.39,0.259,0.627
	s-0.091,0.461-0.259,0.627l-2.651,2.631c-0.547,0.54-0.707,1.506-0.366,2.194l0.707,1.704c0.246,0.708,1.044,1.277,1.813,1.277
	h3.757c0.492,0,0.892,0.398,0.892,0.893v4.118c0.177-0.259,0.278-0.568,0.278-0.904V42.435
	C170.726,41.545,169.999,40.818,169.109,40.818z"/>
<path fill="#FFFFFF" d="M35.201,119.881c0,0.534,0.437,0.971,0.97,0.971h94.069l4.395-4.362c0.168-0.166,0.395-0.259,0.635-0.259
	s0.467,0.093,0.636,0.259l2.651,2.632c0.339,0.337,0.863,0.537,1.401,0.537c0.29,0,0.566-0.06,0.8-0.171l1.728-0.709
	c0.711-0.242,1.279-1.039,1.279-1.808v-3.71c0-0.492,0.4-0.892,0.893-0.892h6.808c0.492,0,0.892,0.399,0.892,0.892v3.71
	c0,0.769,0.57,1.565,1.297,1.813l1.729,0.71c0.215,0.105,0.492,0.164,0.781,0.164c0.54,0,1.063-0.2,1.403-0.537l2.651-2.63
	c0.168-0.168,0.394-0.261,0.635-0.261c0.24,0,0.466,0.093,0.634,0.261l2.143,2.125V56.708H35.201V119.881z"/>
<path fill="#D9EAFC" d="M40.729,119.881V56.708h-5.528v63.173c0,0.534,0.437,0.971,0.97,0.971h5.527
	C41.165,120.852,40.729,120.416,40.729,119.881z"/>
<g>
	<path fill="#FF9518" d="M97.638,99.5c-2.544-2.542-6.264-3.206-9.421-1.992L77.559,86.851l-2.143,2.142
		c-0.059,0.059-0.089,0.143-0.08,0.226c0.065,0.628-0.107,1.248-0.484,1.746c-0.07,0.092-0.075,0.218-0.014,0.316
		c0.594,0.943,0.53,2.089-0.144,2.824l8.462,8.462c-1.214,3.159-0.551,6.879,1.992,9.422c2.201,2.201,5.316,3.074,8.332,2.337
		c0.08-0.021,0.153-0.063,0.21-0.119c0.053-0.053,0.093-0.12,0.115-0.194c0.043-0.157,0-0.323-0.115-0.438l-5.436-5.436l5.532-5.534
		l5.436,5.438c0.115,0.114,0.28,0.158,0.438,0.114c0.074-0.021,0.142-0.062,0.195-0.114c0.056-0.057,0.098-0.13,0.118-0.21
		C100.711,104.815,99.839,101.701,97.638,99.5z"/>
	<path fill="#FF9518" d="M69.59,87c0.478,0,0.951,0.141,1.372,0.405c0.046,0.029,0.097,0.042,0.147,0.042
		c0.061,0,0.12-0.019,0.17-0.056c0.428-0.326,0.942-0.498,1.486-0.498c0.086,0,0.173,0.004,0.258,0.014
		c0.01,0.001,0.02,0.002,0.029,0.002c0.073,0,0.145-0.029,0.196-0.082l2.143-2.143L64.735,74.027c1.213-3.16,0.551-6.88-1.992-9.422
		c-2.201-2.201-5.316-3.075-8.332-2.337c-0.081,0.02-0.153,0.061-0.209,0.118c-0.054,0.054-0.094,0.12-0.115,0.197
		c-0.044,0.156,0,0.322,0.115,0.437l5.437,5.436l-5.533,5.534l-5.437-5.438c-0.114-0.115-0.282-0.158-0.437-0.115
		c-0.076,0.021-0.142,0.061-0.196,0.115c-0.058,0.056-0.099,0.128-0.118,0.21c-0.738,3.015,0.136,6.13,2.337,8.331
		c2.543,2.543,6.263,3.205,9.421,1.992l8.463,8.463C68.524,87.195,69.034,87,69.59,87z"/>
</g>
<circle fill="#445EA0" cx="99.416" cy="128.419" r="4.363"/>
<path fill="#5DC1D8" d="M162.66,49.062H36.171c-0.534,0-0.97,0.436-0.97,0.969v6.956H163.63v-6.956
	C163.63,49.498,163.194,49.062,162.66,49.062z"/>
<path fill="#28A5A5" d="M41.698,49.062h-5.527c-0.534,0-0.97,0.436-0.97,0.969v6.956h5.528v-6.956
	C40.729,49.498,41.165,49.062,41.698,49.062z"/>
<path fill="#FF9518" d="M143.487,155.904c0,0.646,0.526,1.172,1.17,1.172h6.808c0.644,0,1.17-0.528,1.17-1.172v-3.708
	c0-0.645,0.499-1.343,1.108-1.551l1.745-0.714c0.58-0.282,1.427-0.143,1.883,0.312l2.651,2.631c0.457,0.452,1.204,0.452,1.661,0
	l4.808-4.772c0.459-0.451,0.459-1.195,0-1.648l-2.649-2.632c-0.458-0.451-0.598-1.295-0.313-1.873l0.716-1.72
	c0.211-0.608,0.911-1.106,1.555-1.106h3.757c0.646,0,1.17-0.526,1.17-1.17v-6.738c0-0.644-0.526-1.17-1.17-1.17h-3.757
	c-0.644,0-1.344-0.497-1.555-1.106l-0.716-1.72c-0.284-0.577-0.145-1.421,0.313-1.873l2.649-2.632c0.459-0.453,0.459-1.195,0-1.648
	l-4.808-4.771c-0.457-0.456-1.204-0.456-1.661,0l-2.651,2.629c-0.458,0.454-1.303,0.595-1.883,0.313l-1.745-0.716
	c-0.609-0.208-1.108-0.905-1.108-1.549v-3.71c0-0.644-0.526-1.172-1.17-1.172h-6.808c-0.644,0-1.17,0.528-1.17,1.172v3.71
	c0,0.644-0.499,1.341-1.107,1.549l-1.746,0.716c-0.577,0.281-1.425,0.141-1.882-0.313l-2.651-2.629
	c-0.458-0.456-1.205-0.456-1.662,0l-4.809,4.771c-0.458,0.453-0.458,1.195,0,1.648l2.651,2.632c0.457,0.452,0.598,1.296,0.313,1.873
	l-0.717,1.72c-0.211,0.609-0.911,1.106-1.554,1.106h-3.758c-0.645,0-1.17,0.526-1.17,1.17v6.738c0,0.644,0.527,1.17,1.17,1.17h3.758
	c0.643,0,1.343,0.498,1.554,1.106l0.717,1.72c0.284,0.578,0.146,1.422-0.313,1.873l-2.651,2.632c-0.458,0.453-0.458,1.197,0,1.648
	l4.809,4.772c0.457,0.452,1.204,0.452,1.662,0l2.651-2.631c0.457-0.454,1.305-0.594,1.882-0.313l1.746,0.716
	c0.608,0.208,1.107,0.906,1.107,1.551V155.904L143.487,155.904z"/>
<path fill="#FFAF10" d="M148.062,145.409c-6.024,0-10.908-4.846-10.908-10.826c0-5.979,4.884-10.823,10.908-10.823
	c6.023,0,10.909,4.845,10.909,10.823C158.971,140.563,154.085,145.409,148.062,145.409z"/>
<path fill="#FF9518" d="M140.472,134.583c0-5.419,4.011-9.907,9.249-10.7c-0.541-0.082-1.095-0.123-1.659-0.123
	c-6.024,0-10.908,4.845-10.908,10.823c0,5.98,4.884,10.826,10.908,10.826c0.564,0,1.118-0.042,1.659-0.124
	C144.482,144.49,140.472,140.001,140.472,134.583z"/>
<path fill="#DB722C" d="M148.062,147.165c-6.983,0-12.665-5.645-12.665-12.582c0-6.937,5.682-12.58,12.665-12.58
	c6.982,0,12.664,5.644,12.664,12.58C160.726,141.52,155.044,147.165,148.062,147.165z M148.062,125.513
	c-5.046,0-9.151,4.069-9.151,9.069c0,5.002,4.105,9.071,9.151,9.071c5.047,0,9.15-4.069,9.152-9.071
	C157.214,129.583,153.108,125.513,148.062,125.513z"/>
<path fill="#FFAF10" d="M148.062,139.16c-2.546,0-4.61-2.05-4.61-4.577s2.064-4.577,4.61-4.577c2.547,0,4.611,2.05,4.611,4.577
	S150.608,139.16,148.062,139.16z"/>
<path fill="#FF9518" d="M146.768,134.583c0-1.946,1.227-3.604,2.953-4.266c-0.516-0.197-1.072-0.31-1.659-0.31
	c-2.546,0-4.61,2.048-4.61,4.575s2.064,4.577,4.61,4.577c0.587,0,1.144-0.112,1.659-0.31
	C147.994,138.187,146.768,136.529,146.768,134.583z"/>
<path fill="#DB722C" d="M148.062,140.917c-3.512,0-6.367-2.841-6.367-6.334c0-3.491,2.855-6.332,6.367-6.332
	c3.511,0,6.366,2.841,6.366,6.332C154.428,138.076,151.572,140.917,148.062,140.917z M148.062,131.762
	c-1.575,0-2.855,1.266-2.855,2.82s1.28,2.821,2.855,2.821c1.574,0,2.855-1.267,2.855-2.821S149.636,131.762,148.062,131.762z"/>
<g>
	<path fill="#445EA0" d="M67.227,92l3.016,3.018c0.251,0.25,0.437,0.542,0.559,0.851l1.307-1.307
		c-0.308-0.133-0.595-0.326-0.839-0.57l-3.017-3.018c-0.251-0.25-0.441-0.536-0.572-0.837l-1.307,1.307
		C66.689,91.567,66.979,91.753,67.227,92z"/>
	<path fill="#445EA0" d="M98.507,65.301l-1.565-1.564c-0.173-0.174-0.498-0.228-0.718-0.12l-3.486,1.701
		c-0.222,0.108-0.49,0.377-0.598,0.598l-1.551,3.178L73.053,86.629c-0.774-0.08-1.569,0.164-2.167,0.729
		c0.199,0.117,0.388,0.259,0.556,0.426l3.017,3.017c0.171,0.17,0.312,0.358,0.428,0.555c0.563-0.598,0.807-1.393,0.728-2.166
		l17.536-17.536l3.178-1.55c0.223-0.108,0.49-0.377,0.598-0.599l1.702-3.487C98.734,65.798,98.68,65.475,98.507,65.301z"/>
</g>
<path fill="#293D7C" d="M74.832,94.365c-0.985,0.986-2.678,0.906-3.761-0.177l-3.017-3.017c-1.083-1.084-1.163-2.776-0.178-3.762
	c0.986-0.986,2.678-0.906,3.762,0.178l3.016,3.017C75.738,91.687,75.818,93.38,74.832,94.365z"/>
<g>
	<path fill="#69CDFF" d="M148.005,70.099h-36.733c-1.154,0-2.089-0.936-2.089-2.089c0-1.154,0.935-2.089,2.089-2.089h36.733
		c1.153,0,2.09,0.935,2.09,2.089C150.095,69.163,149.158,70.099,148.005,70.099z"/>
	<path fill="#69CDFF" d="M148.005,76.919h-36.733c-1.154,0-2.089-0.935-2.089-2.088c0-1.154,0.935-2.09,2.089-2.09h36.733
		c1.153,0,2.09,0.936,2.09,2.09C150.095,75.984,149.158,76.919,148.005,76.919z"/>
	<path fill="#69CDFF" d="M148.005,83.741h-36.733c-1.154,0-2.089-0.935-2.089-2.089c0-1.153,0.935-2.089,2.089-2.089h36.733
		c1.153,0,2.09,0.936,2.09,2.089C150.095,82.806,149.158,83.741,148.005,83.741z"/>
</g>
<g>
	<path fill="#37C47A" d="M148.005,95.167h-36.733c-1.154,0-2.089-0.935-2.089-2.088c0-1.154,0.935-2.089,2.089-2.089h36.733
		c1.153,0,2.09,0.935,2.09,2.089C150.095,94.232,149.158,95.167,148.005,95.167z"/>
	<path fill="#37C47A" d="M148.005,101.989h-36.733c-1.154,0-2.089-0.935-2.089-2.09c0-1.153,0.935-2.088,2.089-2.088h36.733
		c1.153,0,2.09,0.935,2.09,2.088C150.095,101.054,149.158,101.989,148.005,101.989z"/>
	<path fill="#37C47A" d="M129.523,108.809h-18.252c-1.154,0-2.089-0.935-2.089-2.09c0-1.153,0.935-2.088,2.089-2.088h18.252
		c1.154,0,2.089,0.935,2.089,2.088C131.612,107.875,130.678,108.809,129.523,108.809z"/>
</g>
<path fill="#293D7C" d="M57.516,111.681c-1.083,1.084-2.855,1.084-3.939,0l-3.017-3.016c-1.083-1.082-1.083-2.855,0-3.939
	l12.924-12.923c1.083-1.083,2.855-1.083,3.939,0l3.017,3.018c1.083,1.083,1.083,2.855,0,3.94L57.516,111.681z"/>
<g>
	<path fill="#1A2B63" d="M55.252,108.666c-1.083-1.082-1.083-2.855,0-3.939l12.547-12.547l-0.376-0.376
		c-1.084-1.083-2.855-1.083-3.939,0L50.56,104.726c-1.083,1.084-1.083,2.857,0,3.939l3.017,3.016c1.083,1.084,2.856,1.084,3.939,0
		l0.376-0.375L55.252,108.666z"/>
	<path fill="#1A2B63" d="M69.688,89.22c0.986-0.985,2.678-0.905,3.761,0.179l-1.81-1.811c-1.084-1.083-2.776-1.164-3.762-0.178
		s-0.905,2.678,0.178,3.762l1.811,1.81C68.783,91.897,68.703,90.206,69.688,89.22z"/>
</g>
</svg>
