<?xml version="1.0" encoding="utf-8"?>
<!-- Generator: Adobe Illustrator 16.0.0, SVG Export Plug-In . SVG Version: 6.00 Build 0)  -->
<!DOCTYPE svg PUBLIC "-//W3C//DTD SVG 1.1//EN" "http://www.w3.org/Graphics/SVG/1.1/DTD/svg11.dtd">
<svg version="1.1" id="Layer_1" xmlns="http://www.w3.org/2000/svg" xmlns:xlink="http://www.w3.org/1999/xlink" x="0px" y="0px"
	 width="494.835px" height="405.764px" viewBox="0 0 494.835 405.764" enable-background="new 0 0 494.835 405.764"
	 xml:space="preserve">
<g id="BACKGROUND">
</g>
<g id="OBJECTS">
	<path fill="#F3F3F3" d="M115.546,96.833c63.814,0,115.547,51.72,115.547,115.519c0,63.798-51.732,115.517-115.547,115.517
		S0,276.149,0,212.352C0,148.553,51.731,96.833,115.546,96.833z"/>
	<g display="none">
		<path display="inline" fill="#945C87" d="M329.557,194.656l-5.921-7.021c-0.02-0.034-0.041-0.067-0.066-0.098l-1.445-1.72
			c-0.213-0.254-0.594-0.287-0.848-0.072l-2.813,2.364l-0.291-0.347c-0.881-1.047-2.448-1.183-3.495-0.302
			c-1.048,0.881-1.183,2.448-0.302,3.495l0.291,0.347l-2.813,2.365c-0.254,0.214-0.287,0.594-0.072,0.849
			c3.02,3.59,2.873,3.514,3.209,3.543c0.32,0.027,0.409-0.114,1.248-0.819c0.866-0.729,2.19-0.042,2.094,1.088
			c-0.057,0.646-0.438,0.857-1.258,1.546c-0.255,0.214-0.287,0.594-0.074,0.849c3.021,3.59,2.875,3.514,3.211,3.543
			c0.348,0.029-0.25,0.439,9.16-7.473C330.012,196.254,330.093,195.296,329.557,194.656z"/>
		<path display="inline" fill="#945C87" stroke="#945C87" stroke-width="0.5" stroke-miterlimit="10" d="M318.283,205.873h-3.752
			v-0.454c0-1.368-1.113-2.481-2.48-2.481s-2.48,1.113-2.48,2.481v0.454h-3.148v-3.675c0-0.331-0.27-0.602-0.602-0.602h-1.057
			c-0.704,0-1.276-0.573-1.276-1.277c0-0.703,0.572-1.276,1.276-1.276h1.057c0.332,0,0.602-0.271,0.602-0.603v-4.275
			c0-0.332-0.27-0.603-0.602-0.603h-2.926c-0.333,0-0.604,0.271-0.604,0.603c0,0.333,0.271,0.602,0.604,0.602h2.322v3.072h-0.453
			c-1.368,0-2.48,1.113-2.48,2.48c0,1.368,1.112,2.48,2.48,2.48h0.453v3.073h-3.75c-0.332,0-0.602,0.27-0.602,0.602v1.056
			c0,0.705-0.572,1.277-1.277,1.277s-1.276-0.572-1.276-1.277v-1.056c0-0.332-0.269-0.602-0.603-0.602h-3.75V195.08
			c0-0.174,0.141-0.313,0.313-0.313h6.296c0.332,0,0.601-0.27,0.601-0.602s-0.269-0.603-0.601-0.603h-6.296
			c-0.836,0-1.516,0.681-1.516,1.518c0,1.001,0,21.79,0,22.79c0,0.837,0.68,1.518,1.516,1.518c1.014,0,22.083,0,23.096,0
			c0.838,0,1.518-0.681,1.518-1.518v-11.396C318.882,206.143,318.613,205.873,318.283,205.873z M305.216,214.509v3.674h-10.945
			c-0.172,0-0.313-0.141-0.313-0.313v-10.793h3.147v0.453c0,1.368,1.113,2.481,2.481,2.481c1.367,0,2.479-1.113,2.479-2.481v-0.453
			h3.147v3.674c0,0.333,0.271,0.603,0.604,0.603h1.057c0.703,0,1.275,0.573,1.275,1.277c0,0.705-0.572,1.275-1.275,1.275h-1.057
			C305.487,213.906,305.216,214.176,305.216,214.509z M317.367,218.183h-10.945v-3.072h0.453c1.369,0,2.48-1.112,2.48-2.479
			c0-1.368-1.111-2.481-2.48-2.481h-0.453v-3.071h3.75c0.332,0,0.603-0.271,0.603-0.603v-1.055c0-0.705,0.572-1.277,1.276-1.277
			c0.705,0,1.277,0.572,1.277,1.277v1.055c0,0.333,0.269,0.603,0.602,0.603h3.751v10.793l0,0
			C317.68,218.042,317.539,218.183,317.367,218.183z"/>
	</g>
	<path fill="none" stroke="#DDD3DB" stroke-width="4" stroke-miterlimit="10" d="M170.563,111.896
		c35.848,19.413,60.195,57.356,60.195,100.985c0,43.576-24.286,81.479-60.061,100.914"/>
	<g>
		<g>
			<g>
				<g>
					
						<line fill="none" stroke="#945C87" stroke-width="3" stroke-linecap="round" stroke-miterlimit="10" x1="174.502" y1="107.935" x2="174.502" y2="107.935"/>
					
						<line fill="none" stroke="#945C87" stroke-width="3" stroke-linecap="round" stroke-miterlimit="10" stroke-dasharray="0,9.5574" x1="181.239" y1="101.156" x2="231.766" y2="50.313"/>
					
						<line fill="none" stroke="#945C87" stroke-width="3" stroke-linecap="round" stroke-miterlimit="10" x1="235.135" y1="46.923" x2="235.135" y2="46.923"/>
					
						<line fill="none" stroke="#945C87" stroke-width="3" stroke-linecap="round" stroke-miterlimit="10" stroke-dasharray="0,10.1257" x1="245.26" y1="46.923" x2="321.203" y2="46.923"/>
					
						<line fill="none" stroke="#945C87" stroke-width="3" stroke-linecap="round" stroke-miterlimit="10" x1="326.266" y1="46.923" x2="326.266" y2="46.923"/>
				</g>
			</g>
			<g>
				<path fill="#FFFFFF" d="M171.155,117.611c-3.137,0-5.69-2.553-5.69-5.689s2.553-5.688,5.69-5.688c3.137,0,5.69,2.553,5.69,5.688
					C176.845,115.059,174.292,117.611,171.155,117.611z"/>
				<path fill="#945C87" d="M171.155,107.232c2.59,0,4.69,2.101,4.69,4.688c0,2.59-2.1,4.689-4.69,4.689
					c-2.59,0-4.69-2.101-4.69-4.689C166.465,109.332,168.565,107.232,171.155,107.232 M171.155,105.232c-3.689,0-6.69,3-6.69,6.688
					s3.001,6.689,6.69,6.689s6.69-3.001,6.69-6.689C177.845,108.233,174.844,105.232,171.155,105.232L171.155,105.232z"/>
			</g>
		</g>
		<g>
			<g>
				<g>
					
						<line fill="none" stroke="#945C87" stroke-width="3" stroke-linecap="round" stroke-miterlimit="10" x1="214.001" y1="145.799" x2="214.001" y2="145.799"/>
					
						<line fill="none" stroke="#945C87" stroke-width="3" stroke-linecap="round" stroke-miterlimit="10" stroke-dasharray="0,11.1846" x1="221.783" y1="137.765" x2="225.673" y2="133.748"/>
					
						<line fill="none" stroke="#945C87" stroke-width="3" stroke-linecap="round" stroke-miterlimit="10" x1="229.564" y1="129.73" x2="229.564" y2="129.73"/>
					
						<line fill="none" stroke="#945C87" stroke-width="3" stroke-linecap="round" stroke-miterlimit="10" stroke-dasharray="0,9.7772" x1="239.341" y1="129.73" x2="322.447" y2="129.73"/>
					
						<line fill="none" stroke="#945C87" stroke-width="3" stroke-linecap="round" stroke-miterlimit="10" x1="327.335" y1="129.73" x2="327.335" y2="129.73"/>
				</g>
			</g>
			<g>
				<path fill="#FFFFFF" d="M211.419,154.653c-1.521,0-2.95-0.593-4.024-1.668c-1.075-1.074-1.666-2.504-1.666-4.022
					c0.001-3.135,2.554-5.687,5.69-5.687c1.521,0,2.95,0.594,4.024,1.668c1.075,1.075,1.666,2.503,1.666,4.023
					C217.109,152.102,214.556,154.653,211.419,154.653L211.419,154.653z"/>
				<g>
					<path fill="#945C87" d="M211.42,144.275C211.421,144.275,211.421,144.275,211.42,144.275c2.591,0.001,4.69,2.103,4.689,4.69
						s-2.101,4.688-4.69,4.688c-0.001,0-0.001,0-0.002,0c-2.59-0.001-4.689-2.103-4.688-4.69
						C206.731,146.374,208.831,144.275,211.42,144.275 M211.423,142.275L211.423,142.275h-0.003c-3.688,0-6.688,3-6.69,6.687
						c0,1.787,0.694,3.467,1.958,4.73c1.264,1.265,2.943,1.961,4.729,1.961c3.69,0,6.691-3,6.693-6.687
						c0-1.787-0.695-3.466-1.958-4.73C214.889,142.973,213.209,142.276,211.423,142.275L211.423,142.275z"/>
				</g>
			</g>
		</g>
		<g>
			<g>
				<g>
					
						<line fill="none" stroke="#945C87" stroke-width="3" stroke-linecap="round" stroke-miterlimit="10" x1="217.077" y1="273.299" x2="217.077" y2="273.299"/>
					
						<line fill="none" stroke="#945C87" stroke-width="3" stroke-linecap="round" stroke-miterlimit="10" stroke-dasharray="0,9.1414" x1="223.32" y1="279.976" x2="226.442" y2="283.314"/>
					
						<line fill="none" stroke="#945C87" stroke-width="3" stroke-linecap="round" stroke-miterlimit="10" x1="229.564" y1="286.653" x2="229.564" y2="286.653"/>
					
						<line fill="none" stroke="#945C87" stroke-width="3" stroke-linecap="round" stroke-miterlimit="10" stroke-dasharray="0,9.7772" x1="239.341" y1="286.653" x2="322.447" y2="286.653"/>
					
						<line fill="none" stroke="#945C87" stroke-width="3" stroke-linecap="round" stroke-miterlimit="10" x1="327.335" y1="286.653" x2="327.335" y2="286.653"/>
				</g>
			</g>
			<g>
				<path fill="#FFFFFF" d="M214.973,276.273c-3.136,0-5.689-2.551-5.69-5.687c0-1.52,0.591-2.947,1.665-4.023
					c1.074-1.075,2.503-1.667,4.022-1.668c3.138,0,5.691,2.551,5.692,5.688c0,1.519-0.591,2.946-1.665,4.021
					c-1.074,1.075-2.503,1.667-4.022,1.668H214.973L214.973,276.273z"/>
				<g>
					<path fill="#945C87" d="M214.973,265.896c2.589,0,4.689,2.101,4.69,4.688c0.001,2.589-2.098,4.688-4.688,4.689
						c0,0-0.001,0-0.002,0c-2.589,0-4.689-2.099-4.69-4.687c-0.001-2.589,2.098-4.69,4.688-4.691
						C214.971,265.896,214.972,265.896,214.973,265.896 M214.973,263.896h-0.002c-1.788,0.001-3.467,0.697-4.73,1.962
						c-1.263,1.265-1.958,2.944-1.958,4.73c0.001,3.687,3.002,6.686,6.69,6.686c1.79-0.001,3.469-0.696,4.732-1.961
						c1.263-1.264,1.958-2.942,1.958-4.729C221.661,266.896,218.66,263.896,214.973,263.896L214.973,263.896z"/>
				</g>
			</g>
		</g>
		<g>
			<g>
				<path fill="#FFFFFF" d="M170.405,320.07c-3.137,0-5.69-2.552-5.69-5.688c0-3.139,2.553-5.69,5.69-5.69
					c3.137,0,5.69,2.553,5.69,5.69C176.095,317.519,173.542,320.07,170.405,320.07z"/>
				<g>
					<path fill="#945C87" d="M170.405,309.691c2.59,0,4.69,2.102,4.69,4.69s-2.1,4.688-4.69,4.688c-2.59,0-4.69-2.1-4.69-4.688
						C165.715,311.791,167.815,309.691,170.405,309.691 M170.405,307.691c-3.689,0-6.69,3.001-6.69,6.69
						c0,3.688,3.001,6.688,6.69,6.688s6.69-3,6.69-6.688C177.095,310.692,174.094,307.691,170.405,307.691L170.405,307.691z"/>
				</g>
			</g>
			<g>
				<g>
					
						<line fill="none" stroke="#945C87" stroke-width="3" stroke-linecap="round" stroke-miterlimit="10" x1="180.079" y1="323.976" x2="180.079" y2="323.976"/>
					
						<polyline fill="none" stroke="#945C87" stroke-width="3" stroke-linecap="round" stroke-miterlimit="10" stroke-dasharray="0,9.9328" points="
						187.114,330.987 235.135,378.841 321.298,378.841 					"/>
					
						<line fill="none" stroke="#945C87" stroke-width="3" stroke-linecap="round" stroke-miterlimit="10" x1="326.266" y1="378.841" x2="326.266" y2="378.841"/>
				</g>
			</g>
		</g>
		<g>
			<g>
				<g>
					
						<line fill="none" stroke="#945C87" stroke-width="3" stroke-linecap="round" stroke-miterlimit="10" x1="232.013" y1="213.527" x2="232.013" y2="213.527"/>
					
						<line fill="none" stroke="#945C87" stroke-width="3" stroke-linecap="round" stroke-miterlimit="10" stroke-dasharray="0,10.2774" x1="242.291" y1="213.527" x2="339.925" y2="213.527"/>
					
						<line fill="none" stroke="#945C87" stroke-width="3" stroke-linecap="round" stroke-miterlimit="10" x1="345.064" y1="213.527" x2="345.064" y2="213.527"/>
				</g>
			</g>
			<g>
				<path fill="#FFFFFF" d="M230.789,219.217c-3.136,0-5.69-2.551-5.692-5.688c0-3.138,2.552-5.69,5.688-5.691
					c3.137,0,5.69,2.551,5.693,5.687C236.477,216.661,233.926,219.215,230.789,219.217L230.789,219.217z"/>
				<g>
					<path fill="#945C87" d="M230.787,208.838c2.589,0,4.688,2.099,4.69,4.688c0,2.59-2.099,4.689-4.688,4.691
						c-2.59,0-4.69-2.098-4.692-4.688c0-2.589,2.099-4.689,4.688-4.69C230.785,208.838,230.786,208.838,230.787,208.838
						 M230.787,206.838h-0.002c-3.688,0.001-6.688,3.003-6.688,6.69c0.003,3.688,3.005,6.688,6.692,6.688
						c3.689-0.003,6.688-3.005,6.688-6.691C237.474,209.837,234.473,206.838,230.787,206.838L230.787,206.838z"/>
				</g>
			</g>
		</g>
	</g>
	<path fill="#945C87" d="M471.083,176.884H354.72c-6.573-6.457-15.58-10.445-25.524-10.445c-20.125,0-36.442,16.316-36.442,36.443
		c0,20.126,16.317,36.44,36.443,36.44c11.84,0,22.356-5.649,29.012-14.399h112.875c13.266,0,24.021-10.754,24.021-24.021
		C495.105,187.638,484.349,176.884,471.083,176.884z"/>
	<path fill="#945C87" d="M471.083,10.445H354.72C348.146,3.988,339.14,0,329.195,0c-20.125,0-36.441,16.315-36.441,36.441
		s16.316,36.442,36.441,36.442c11.84,0,22.357-5.651,29.014-14.4h112.875c13.266,0,24.021-10.753,24.021-24.02
		C495.105,21.197,484.349,10.445,471.083,10.445z"/>
	<g>
		<g>
			<g>
				<path fill="#945C87" d="M115.546,131.255c-44.788,0-81.096,36.308-81.096,81.095c0,44.788,36.308,81.096,81.096,81.096
					s81.095-36.308,81.095-81.096C196.642,167.563,160.334,131.255,115.546,131.255z"/>
			</g>
		</g>
	</g>
	<path fill="#945C87" d="M471.083,93.665H354.72c-6.573-6.457-15.58-10.445-25.524-10.445c-20.125,0-36.442,16.316-36.442,36.442
		c0,20.127,16.317,36.441,36.443,36.441c11.84,0,22.356-5.65,29.012-14.399h112.875c13.266,0,24.021-10.754,24.021-24.021
		C495.105,104.418,484.349,93.665,471.083,93.665z"/>
	<path fill="#945C87" d="M471.083,260.104H354.72c-6.573-6.456-15.58-10.443-25.524-10.443c-20.125,0-36.442,16.315-36.442,36.442
		c0,20.126,16.317,36.441,36.443,36.441c11.84,0,22.356-5.65,29.012-14.4h112.875c13.266,0,24.021-10.752,24.021-24.019
		C495.105,270.858,484.349,260.104,471.083,260.104z"/>
	<path fill="#945C87" d="M471.083,343.323H354.72c-6.573-6.457-15.58-10.443-25.524-10.443c-20.125,0-36.442,16.314-36.442,36.441
		c0,20.126,16.317,36.442,36.443,36.442c11.84,0,22.356-5.65,29.012-14.401h112.875c13.266,0,24.021-10.752,24.021-24.018
		C495.105,354.076,484.349,343.323,471.083,343.323z"/>
	<circle fill="#FFFFFF" cx="328.896" cy="369.321" r="31.5"/>
	<circle fill="#FFFFFF" cx="328.896" cy="286.103" r="31.5"/>
	<g>
		<circle fill="#FFFFFF" cx="328.896" cy="119.662" r="31.5"/>
		<circle fill="#FFFFFF" cx="328.896" cy="202.883" r="31.5"/>
		<circle fill="#FFFFFF" cx="328.896" cy="36.442" r="31.5"/>
	</g>
	<g>
		<path fill="#FFFFFF" d="M149.094,205.452c-1.711,0.604-2.718,2.265-3.624,3.726c-1.913,3.372-2.416,7.75-0.655,11.325
			c0.454,1.006,1.309,1.963,2.467,2.014c1.258,0.05,2.366-0.756,3.272-1.61c1.963-1.913,2.819-4.632,3.121-7.299
			c0.302-2.466-0.101-5.134-1.56-7.249C151.51,205.502,150.202,205.099,149.094,205.452z"/>
		<path fill="#FFFFFF" d="M122.92,205.452c-1.56,0.504-2.567,1.963-3.422,3.271c-2.115,3.422-2.719,7.902-1.007,11.577
			c0.453,0.956,1.157,2.014,2.315,2.215c1.208,0.201,2.316-0.504,3.171-1.259c1.913-1.661,2.87-4.127,3.373-6.594
			c0.504-2.77,0.252-5.838-1.358-8.254C125.336,205.502,124.028,205.099,122.92,205.452z"/>
		<path fill="#FFFFFF" d="M162.987,190.653c-1.762-1.609-4.178-2.517-6.594-2.467c-27.785,0-55.52,0-83.254,0
			c-3.674,0-7.198,2.417-8.607,5.789c-0.654,1.459-0.805,3.07-0.805,4.631c0.05,10.369,0,20.789,0.05,31.208
			c0.05,4.783,4.228,9.063,9.01,9.212c13.339,0.051,26.678-0.051,39.966,0.051c6.091,3.271,12.03,6.694,18.07,10.018
			c-1.359-3.372-2.718-6.694-4.078-10.067c10.118,0,20.235,0.051,30.353,0c4.782-0.101,8.96-4.429,9.01-9.212
			c0-10.671,0-21.291,0-31.912C166.158,195.184,165,192.465,162.987,190.653z M105.655,230.418c0.101,1.561-0.655,3.423-2.315,3.825
			c-1.561,0.354-3.021-0.704-4.027-1.813c-4.53-4.882-7.098-11.174-8.96-17.465c-1.862,3.673-3.725,7.397-5.537,11.073
			c-1.258,2.517-2.617,5.084-4.63,7.098c-0.855,0.854-2.315,1.609-3.423,0.754c-1.661-1.46-2.063-3.774-2.769-5.738
			c-2.667-9.21-4.178-18.724-5.738-28.187c-0.352-1.562,0.302-3.473,1.862-4.078c1.258-0.453,2.92-0.554,3.977,0.403
			c0.754,0.653,0.957,1.711,1.107,2.667c1.107,7.35,2.366,14.646,4.178,21.845c3.02-5.738,6.04-11.477,9.06-17.264
			c0.453-0.856,1.007-1.711,1.813-2.216c1.107-0.704,2.718-0.653,3.674,0.354c0.755,0.805,1.057,1.963,1.259,3.021
			c0.906,4.731,2.114,9.463,3.875,13.941c0.755-6.794,1.712-13.69,4.178-20.083c0.554-1.359,1.057-2.717,1.963-3.825
			c1.51-1.61,4.429-1.106,5.587,0.755c0.604,0.956,0.654,2.266,0.151,3.271c-2.114,4.228-3.02,8.91-3.826,13.49
			C106.158,218.237,105.353,224.327,105.655,230.418z M131.93,222.465c-1.258,2.314-2.869,4.58-5.185,5.938
			c-3.372,2.064-7.902,1.813-11.174-0.352c-2.617-1.813-4.077-4.834-4.681-7.854c-1.208-6.896,0.856-14.547,6.041-19.328
			c1.51-1.359,3.373-2.216,5.335-2.468c3.271-0.401,6.795,0.705,9.01,3.173c1.812,2.063,2.819,4.731,3.171,7.398
			C135,213.556,134.145,218.388,131.93,222.465z M158.155,222.313c-1.259,2.366-2.919,4.683-5.335,6.091
			c-3.222,1.964-7.55,1.763-10.772-0.149c-2.165-1.311-3.624-3.524-4.479-5.891c-2.266-7.196-0.353-15.653,4.882-21.091
			c1.711-1.51,3.775-2.617,5.939-2.869c3.171-0.401,6.645,0.604,8.859,2.971c2.014,2.165,3.071,5.034,3.372,7.953
			C161.074,213.757,160.269,218.388,158.155,222.313z"/>
	</g>
	<g enable-background="new    ">
		<path fill="#FFFFFF" d="M376.555,23.088h3.132c0.433,0,0.824,0.067,1.176,0.204c0.353,0.136,0.654,0.323,0.906,0.563
			s0.446,0.526,0.582,0.858c0.137,0.332,0.204,0.694,0.204,1.086c0,0.288-0.048,0.558-0.144,0.81s-0.229,0.48-0.396,0.685
			s-0.363,0.384-0.588,0.54c-0.225,0.155-0.46,0.277-0.708,0.365l-0.012,0.084l2.304,3.301v0.096h-1.859l-2.221-3.228h-0.756v3.228
			h-1.62V23.088z M379.675,26.964c0.368,0,0.67-0.112,0.906-0.336s0.354-0.508,0.354-0.853c0-0.151-0.025-0.3-0.078-0.443
			c-0.052-0.145-0.13-0.272-0.233-0.385c-0.104-0.111-0.233-0.201-0.39-0.27s-0.334-0.102-0.535-0.102h-1.523v2.388H379.675z"/>
		<path fill="#FFFFFF" d="M389.251,30.264c-0.272,0.48-0.639,0.868-1.098,1.164c-0.461,0.296-1.022,0.444-1.687,0.444
			c-0.448,0-0.862-0.078-1.242-0.234s-0.71-0.374-0.989-0.654c-0.281-0.279-0.498-0.609-0.654-0.989s-0.234-0.799-0.234-1.255
			c0-0.424,0.076-0.825,0.229-1.206c0.151-0.379,0.363-0.712,0.636-0.995c0.271-0.284,0.594-0.511,0.966-0.679
			s0.781-0.252,1.23-0.252c0.472,0,0.892,0.078,1.26,0.234c0.367,0.156,0.676,0.372,0.924,0.647
			c0.248,0.276,0.436,0.603,0.564,0.979c0.127,0.376,0.191,0.784,0.191,1.224c0,0.057,0,0.104,0,0.145
			c-0.008,0.048-0.012,0.092-0.012,0.132c-0.008,0.04-0.012,0.084-0.012,0.132h-4.429c0.032,0.24,0.099,0.446,0.198,0.618
			s0.224,0.316,0.372,0.432c0.147,0.116,0.31,0.2,0.485,0.252c0.176,0.053,0.356,0.078,0.541,0.078c0.359,0,0.657-0.082,0.894-0.246
			c0.235-0.164,0.422-0.37,0.558-0.618L389.251,30.264z M387.824,27.984c-0.009-0.104-0.043-0.22-0.103-0.348
			s-0.147-0.248-0.265-0.36c-0.115-0.111-0.26-0.204-0.432-0.275c-0.172-0.072-0.377-0.108-0.617-0.108
			c-0.336,0-0.633,0.096-0.889,0.288s-0.436,0.46-0.54,0.804H387.824z"/>
		<path fill="#FFFFFF" d="M392.744,31.872c-0.385,0-0.727-0.049-1.026-0.145s-0.56-0.222-0.78-0.378s-0.406-0.336-0.558-0.54
			c-0.152-0.204-0.269-0.41-0.349-0.618l1.404-0.6c0.137,0.304,0.318,0.53,0.546,0.678c0.228,0.148,0.481,0.222,0.763,0.222
			c0.287,0,0.516-0.052,0.684-0.155c0.168-0.104,0.252-0.229,0.252-0.372c0-0.16-0.07-0.29-0.21-0.391
			c-0.14-0.1-0.382-0.189-0.726-0.27l-0.828-0.18c-0.185-0.04-0.375-0.104-0.57-0.192c-0.196-0.088-0.374-0.2-0.534-0.336
			s-0.292-0.3-0.396-0.492c-0.104-0.191-0.156-0.416-0.156-0.672c0-0.288,0.062-0.544,0.186-0.768
			c0.125-0.225,0.295-0.414,0.51-0.57c0.217-0.156,0.471-0.276,0.763-0.36s0.606-0.126,0.942-0.126c0.56,0,1.06,0.11,1.5,0.33
			c0.439,0.221,0.764,0.57,0.972,1.05l-1.356,0.553c-0.111-0.232-0.275-0.4-0.492-0.504c-0.215-0.104-0.432-0.156-0.647-0.156
			c-0.224,0-0.42,0.046-0.588,0.138s-0.253,0.21-0.253,0.354c0,0.136,0.07,0.244,0.211,0.323c0.14,0.08,0.33,0.152,0.57,0.217
			l0.899,0.216c0.601,0.144,1.046,0.374,1.338,0.689c0.292,0.316,0.438,0.69,0.438,1.122c0,0.257-0.061,0.5-0.18,0.732
			c-0.121,0.232-0.291,0.438-0.511,0.618c-0.22,0.18-0.483,0.321-0.792,0.426C393.46,31.82,393.119,31.872,392.744,31.872z"/>
		<path fill="#FFFFFF" d="M396.103,25.8h1.477v0.708h0.096c0.145-0.248,0.368-0.46,0.672-0.636c0.305-0.176,0.68-0.265,1.129-0.265
			c0.375,0,0.733,0.078,1.073,0.234c0.341,0.156,0.64,0.372,0.9,0.647c0.26,0.276,0.466,0.606,0.618,0.99
			c0.151,0.384,0.228,0.804,0.228,1.26s-0.076,0.876-0.228,1.261c-0.152,0.384-0.358,0.714-0.618,0.989
			c-0.261,0.276-0.56,0.492-0.9,0.648c-0.34,0.156-0.698,0.234-1.073,0.234c-0.449,0-0.824-0.089-1.129-0.265
			c-0.304-0.176-0.527-0.388-0.672-0.636h-0.096l0.096,0.84v2.46h-1.572V25.8z M399.152,30.42c0.207,0,0.406-0.04,0.594-0.12
			s0.354-0.192,0.498-0.336c0.145-0.145,0.26-0.32,0.348-0.528s0.133-0.439,0.133-0.696c0-0.256-0.045-0.487-0.133-0.695
			s-0.203-0.384-0.348-0.528c-0.145-0.144-0.311-0.256-0.498-0.336s-0.387-0.12-0.594-0.12c-0.209,0-0.406,0.038-0.594,0.114
			c-0.188,0.076-0.354,0.186-0.498,0.33c-0.145,0.144-0.261,0.32-0.349,0.527c-0.088,0.209-0.132,0.444-0.132,0.708
			c0,0.265,0.044,0.501,0.132,0.708c0.088,0.209,0.204,0.385,0.349,0.528c0.144,0.145,0.31,0.254,0.498,0.33
			C398.746,30.382,398.943,30.42,399.152,30.42z"/>
		<path fill="#FFFFFF" d="M406.087,25.608c0.456,0,0.874,0.078,1.254,0.234s0.708,0.372,0.984,0.647
			c0.275,0.276,0.492,0.606,0.647,0.99c0.156,0.384,0.234,0.804,0.234,1.26s-0.078,0.876-0.234,1.261
			c-0.155,0.384-0.372,0.714-0.647,0.989c-0.276,0.276-0.604,0.492-0.984,0.648s-0.798,0.234-1.254,0.234s-0.874-0.078-1.254-0.234
			c-0.381-0.156-0.708-0.372-0.984-0.648c-0.275-0.275-0.492-0.605-0.648-0.989c-0.155-0.385-0.233-0.805-0.233-1.261
			s0.078-0.876,0.233-1.26c0.156-0.384,0.373-0.714,0.648-0.99c0.276-0.275,0.604-0.491,0.984-0.647
			C405.213,25.686,405.631,25.608,406.087,25.608z M406.087,30.42c0.199,0,0.395-0.038,0.582-0.114s0.354-0.186,0.498-0.33
			c0.145-0.144,0.258-0.319,0.342-0.528c0.084-0.207,0.126-0.443,0.126-0.708c0-0.264-0.042-0.499-0.126-0.708
			c-0.084-0.207-0.197-0.384-0.342-0.527c-0.145-0.145-0.311-0.254-0.498-0.33s-0.383-0.114-0.582-0.114
			c-0.208,0-0.404,0.038-0.588,0.114s-0.348,0.186-0.492,0.33c-0.145,0.144-0.258,0.32-0.342,0.527
			c-0.084,0.209-0.126,0.444-0.126,0.708c0,0.265,0.042,0.501,0.126,0.708c0.084,0.209,0.197,0.385,0.342,0.528
			c0.145,0.145,0.309,0.254,0.492,0.33S405.879,30.42,406.087,30.42z"/>
		<path fill="#FFFFFF" d="M411.571,26.568h0.097c0.184-0.296,0.432-0.529,0.743-0.702c0.312-0.172,0.668-0.258,1.068-0.258
			c0.368,0,0.692,0.061,0.972,0.181c0.28,0.119,0.51,0.29,0.689,0.51c0.181,0.22,0.316,0.484,0.408,0.792s0.139,0.65,0.139,1.025
			v3.564h-1.572v-3.372c0-0.424-0.094-0.738-0.281-0.942c-0.188-0.203-0.463-0.306-0.822-0.306c-0.217,0-0.406,0.046-0.57,0.138
			c-0.164,0.093-0.305,0.217-0.42,0.372c-0.116,0.156-0.204,0.341-0.264,0.553c-0.061,0.212-0.09,0.438-0.09,0.678v2.88h-1.572V25.8
			h1.476V26.568z"/>
		<path fill="#FFFFFF" d="M419.251,31.872c-0.385,0-0.727-0.049-1.026-0.145s-0.56-0.222-0.78-0.378s-0.406-0.336-0.558-0.54
			c-0.152-0.204-0.269-0.41-0.349-0.618l1.404-0.6c0.137,0.304,0.318,0.53,0.546,0.678c0.228,0.148,0.481,0.222,0.763,0.222
			c0.287,0,0.516-0.052,0.684-0.155c0.168-0.104,0.252-0.229,0.252-0.372c0-0.16-0.07-0.29-0.21-0.391
			c-0.14-0.1-0.382-0.189-0.726-0.27l-0.828-0.18c-0.185-0.04-0.375-0.104-0.57-0.192c-0.196-0.088-0.374-0.2-0.534-0.336
			s-0.292-0.3-0.396-0.492c-0.104-0.191-0.156-0.416-0.156-0.672c0-0.288,0.062-0.544,0.186-0.768
			c0.125-0.225,0.295-0.414,0.51-0.57c0.217-0.156,0.471-0.276,0.763-0.36s0.606-0.126,0.942-0.126c0.56,0,1.06,0.11,1.5,0.33
			c0.439,0.221,0.764,0.57,0.972,1.05l-1.356,0.553c-0.111-0.232-0.275-0.4-0.492-0.504c-0.215-0.104-0.432-0.156-0.647-0.156
			c-0.224,0-0.42,0.046-0.588,0.138s-0.253,0.21-0.253,0.354c0,0.136,0.07,0.244,0.211,0.323c0.14,0.08,0.33,0.152,0.57,0.217
			l0.899,0.216c0.601,0.144,1.046,0.374,1.338,0.689c0.292,0.316,0.438,0.69,0.438,1.122c0,0.257-0.061,0.5-0.18,0.732
			c-0.121,0.232-0.291,0.438-0.511,0.618c-0.22,0.18-0.483,0.321-0.792,0.426C419.968,31.82,419.626,31.872,419.251,31.872z"/>
		<path fill="#FFFFFF" d="M423.535,25.008c-0.135,0-0.266-0.026-0.389-0.078c-0.125-0.052-0.232-0.124-0.324-0.216
			c-0.093-0.092-0.164-0.198-0.217-0.318c-0.052-0.12-0.078-0.252-0.078-0.396c0-0.145,0.026-0.276,0.078-0.396
			c0.053-0.12,0.124-0.226,0.217-0.317c0.092-0.093,0.199-0.164,0.324-0.217c0.123-0.052,0.254-0.078,0.389-0.078
			c0.281,0,0.521,0.099,0.721,0.295c0.199,0.195,0.3,0.434,0.3,0.714s-0.101,0.518-0.3,0.714
			C424.055,24.91,423.816,25.008,423.535,25.008z M422.755,31.68V25.8h1.572v5.88H422.755z"/>
		<path fill="#FFFFFF" d="M425.142,25.8h1.789l1.463,3.744h0.084l1.477-3.744h1.776l-2.532,5.88h-1.548L425.142,25.8z"/>
		<path fill="#FFFFFF" d="M437.839,30.264c-0.273,0.48-0.639,0.868-1.099,1.164s-1.022,0.444-1.687,0.444
			c-0.447,0-0.861-0.078-1.242-0.234c-0.379-0.156-0.709-0.374-0.989-0.654c-0.28-0.279-0.498-0.609-0.654-0.989
			c-0.155-0.38-0.233-0.799-0.233-1.255c0-0.424,0.076-0.825,0.228-1.206c0.151-0.379,0.364-0.712,0.636-0.995
			c0.271-0.284,0.594-0.511,0.967-0.679c0.371-0.168,0.781-0.252,1.229-0.252c0.472,0,0.892,0.078,1.26,0.234
			s0.677,0.372,0.925,0.647c0.247,0.276,0.436,0.603,0.563,0.979s0.192,0.784,0.192,1.224c0,0.057,0,0.104,0,0.145
			c-0.008,0.048-0.012,0.092-0.012,0.132c-0.009,0.04-0.013,0.084-0.013,0.132h-4.429c0.033,0.24,0.099,0.446,0.199,0.618
			c0.1,0.172,0.223,0.316,0.371,0.432c0.148,0.116,0.311,0.2,0.486,0.252c0.176,0.053,0.355,0.078,0.54,0.078
			c0.36,0,0.657-0.082,0.894-0.246s0.422-0.37,0.559-0.618L437.839,30.264z M436.411,27.984c-0.009-0.104-0.042-0.22-0.103-0.348
			c-0.06-0.128-0.147-0.248-0.264-0.36c-0.115-0.111-0.26-0.204-0.432-0.275c-0.172-0.072-0.378-0.108-0.618-0.108
			c-0.336,0-0.632,0.096-0.888,0.288s-0.437,0.46-0.541,0.804H436.411z"/>
	</g>
	<g enable-background="new    ">
		<path fill="#FFFFFF" d="M376.555,37.489h2.904c0.68,0,1.292,0.104,1.836,0.312s1.008,0.502,1.392,0.882
			c0.385,0.381,0.678,0.834,0.883,1.362c0.203,0.528,0.306,1.108,0.306,1.74c0,0.64-0.103,1.224-0.306,1.752
			c-0.205,0.528-0.498,0.98-0.883,1.355c-0.384,0.377-0.848,0.669-1.392,0.877s-1.156,0.312-1.836,0.312h-2.904V37.489z
			 M379.387,44.544c0.472,0,0.888-0.065,1.248-0.198c0.36-0.132,0.66-0.317,0.9-0.558c0.239-0.24,0.42-0.53,0.54-0.87
			c0.119-0.34,0.18-0.718,0.18-1.134s-0.061-0.794-0.18-1.134c-0.12-0.34-0.301-0.63-0.54-0.87c-0.24-0.24-0.54-0.426-0.9-0.559
			c-0.36-0.132-0.776-0.197-1.248-0.197h-1.212v5.52H379.387z"/>
		<path fill="#FFFFFF" d="M390.379,44.664c-0.272,0.48-0.638,0.868-1.099,1.164c-0.46,0.296-1.021,0.444-1.686,0.444
			c-0.448,0-0.862-0.078-1.242-0.234s-0.71-0.374-0.99-0.654c-0.279-0.279-0.498-0.609-0.654-0.989
			c-0.155-0.38-0.233-0.799-0.233-1.255c0-0.424,0.076-0.825,0.228-1.206c0.152-0.379,0.364-0.712,0.637-0.995
			c0.271-0.284,0.594-0.511,0.966-0.679s0.782-0.252,1.229-0.252c0.473,0,0.893,0.078,1.26,0.234
			c0.369,0.156,0.677,0.372,0.925,0.647c0.247,0.276,0.437,0.603,0.563,0.979c0.129,0.376,0.192,0.784,0.192,1.224
			c0,0.057,0,0.104,0,0.145c-0.008,0.048-0.012,0.092-0.012,0.132c-0.009,0.04-0.013,0.084-0.013,0.132h-4.428
			c0.032,0.24,0.098,0.446,0.198,0.618s0.224,0.316,0.372,0.432c0.148,0.116,0.311,0.2,0.486,0.252
			c0.176,0.053,0.355,0.078,0.539,0.078c0.36,0,0.658-0.082,0.895-0.246s0.422-0.37,0.559-0.618L390.379,44.664z M388.951,42.384
			c-0.008-0.104-0.041-0.22-0.102-0.348s-0.148-0.248-0.264-0.36c-0.116-0.111-0.26-0.204-0.432-0.275
			c-0.173-0.072-0.379-0.108-0.619-0.108c-0.336,0-0.631,0.096-0.888,0.288c-0.256,0.192-0.437,0.46-0.54,0.804H388.951z"/>
		<path fill="#FFFFFF" d="M393.871,46.273c-0.383,0-0.726-0.049-1.025-0.145c-0.301-0.096-0.561-0.222-0.78-0.378
			s-0.405-0.336-0.558-0.54s-0.269-0.41-0.348-0.618l1.403-0.6c0.136,0.304,0.317,0.53,0.546,0.678
			c0.229,0.148,0.482,0.222,0.762,0.222c0.289,0,0.517-0.052,0.685-0.155c0.168-0.104,0.252-0.229,0.252-0.372
			c0-0.16-0.07-0.29-0.21-0.391c-0.141-0.1-0.383-0.189-0.727-0.27l-0.828-0.18c-0.184-0.04-0.373-0.104-0.569-0.192
			s-0.374-0.2-0.534-0.336s-0.292-0.3-0.396-0.492c-0.104-0.191-0.155-0.416-0.155-0.672c0-0.288,0.062-0.544,0.187-0.768
			c0.123-0.225,0.293-0.414,0.51-0.57c0.216-0.156,0.469-0.276,0.762-0.36c0.292-0.084,0.605-0.126,0.941-0.126
			c0.561,0,1.061,0.11,1.5,0.33c0.44,0.221,0.764,0.57,0.973,1.05l-1.355,0.553c-0.113-0.232-0.277-0.4-0.492-0.504
			c-0.217-0.104-0.433-0.156-0.648-0.156c-0.225,0-0.42,0.046-0.588,0.138s-0.252,0.21-0.252,0.354c0,0.136,0.07,0.244,0.21,0.323
			c0.14,0.08,0.329,0.152,0.569,0.217l0.9,0.216c0.6,0.144,1.046,0.374,1.338,0.689c0.292,0.316,0.438,0.69,0.438,1.122
			c0,0.257-0.059,0.5-0.18,0.732c-0.119,0.232-0.289,0.438-0.51,0.618c-0.221,0.18-0.484,0.321-0.792,0.426
			C394.589,46.22,394.248,46.273,393.871,46.273z"/>
		<path fill="#FFFFFF" d="M398.156,39.408c-0.137,0-0.267-0.026-0.391-0.078s-0.232-0.124-0.324-0.216s-0.164-0.198-0.215-0.318
			c-0.053-0.12-0.078-0.252-0.078-0.396c0-0.145,0.025-0.276,0.078-0.396c0.051-0.12,0.123-0.226,0.215-0.317
			c0.092-0.093,0.2-0.164,0.324-0.217c0.124-0.052,0.254-0.078,0.391-0.078c0.279,0,0.52,0.099,0.72,0.295
			c0.2,0.195,0.3,0.434,0.3,0.714s-0.1,0.518-0.3,0.714S398.435,39.408,398.156,39.408z M397.375,46.08V40.2h1.571v5.88H397.375z"/>
		<path fill="#FFFFFF" d="M403.039,48.865c-0.416,0-0.785-0.054-1.109-0.162s-0.605-0.248-0.846-0.42s-0.44-0.362-0.6-0.57
			c-0.16-0.208-0.277-0.416-0.349-0.624l1.5-0.6c0.112,0.312,0.296,0.554,0.552,0.726s0.54,0.258,0.852,0.258
			c0.496,0,0.889-0.161,1.177-0.482c0.288-0.322,0.433-0.765,0.433-1.329v-0.408h-0.097c-0.185,0.256-0.426,0.458-0.726,0.606
			c-0.301,0.147-0.654,0.222-1.063,0.222c-0.352,0-0.693-0.071-1.025-0.214s-0.627-0.347-0.883-0.612
			c-0.256-0.265-0.464-0.584-0.623-0.956c-0.16-0.372-0.24-0.788-0.24-1.248c0-0.459,0.08-0.877,0.24-1.253
			c0.159-0.377,0.367-0.697,0.623-0.963s0.551-0.47,0.883-0.612s0.674-0.214,1.025-0.214c0.408,0,0.762,0.074,1.063,0.223
			c0.3,0.147,0.541,0.35,0.726,0.605h0.097V40.2h1.5v5.46c0,0.496-0.076,0.942-0.229,1.338c-0.152,0.396-0.364,0.732-0.637,1.008
			c-0.271,0.276-0.598,0.488-0.978,0.636C403.925,48.79,403.503,48.865,403.039,48.865z M403.099,44.664
			c0.192,0,0.383-0.035,0.57-0.105c0.188-0.071,0.354-0.175,0.498-0.313c0.144-0.138,0.26-0.307,0.348-0.507s0.133-0.43,0.133-0.689
			c0-0.259-0.045-0.49-0.133-0.695c-0.088-0.204-0.204-0.375-0.348-0.512c-0.145-0.138-0.311-0.242-0.498-0.313
			s-0.378-0.106-0.57-0.106c-0.191,0-0.38,0.036-0.564,0.106c-0.184,0.07-0.348,0.177-0.491,0.318
			c-0.144,0.141-0.261,0.312-0.349,0.512c-0.088,0.201-0.131,0.431-0.131,0.689c0,0.26,0.043,0.489,0.131,0.689
			s0.205,0.369,0.349,0.507s0.308,0.241,0.491,0.313C402.719,44.629,402.908,44.664,403.099,44.664z"/>
		<path fill="#FFFFFF" d="M408.966,40.968h0.097c0.184-0.296,0.432-0.529,0.743-0.702c0.313-0.172,0.668-0.258,1.068-0.258
			c0.368,0,0.692,0.061,0.973,0.181c0.279,0.119,0.51,0.29,0.689,0.51s0.316,0.484,0.408,0.792s0.139,0.65,0.139,1.025v3.564h-1.572
			v-3.372c0-0.424-0.095-0.738-0.282-0.942c-0.188-0.203-0.462-0.306-0.822-0.306c-0.216,0-0.406,0.046-0.569,0.138
			c-0.164,0.093-0.305,0.217-0.42,0.372c-0.117,0.156-0.205,0.341-0.265,0.553s-0.09,0.438-0.09,0.678v2.88h-1.572V40.2h1.476
			V40.968z"/>
	</g>
	<g enable-background="new    ">
		<path fill="#FFFFFF" d="M378.379,114.68v-7.056h-2.399v-1.536h6.42v1.536H380v7.056H378.379z"/>
		<path fill="#FFFFFF" d="M383.359,106.088h1.572v2.412l-0.096,1.067h0.096c0.168-0.279,0.41-0.51,0.727-0.689
			c0.316-0.181,0.67-0.271,1.063-0.271c0.76,0,1.321,0.225,1.686,0.672c0.363,0.448,0.546,1.061,0.546,1.836v3.564h-1.572v-3.372
			c0-0.408-0.096-0.718-0.288-0.93c-0.191-0.212-0.46-0.318-0.804-0.318c-0.216,0-0.408,0.046-0.576,0.138
			c-0.168,0.093-0.31,0.219-0.426,0.379c-0.116,0.159-0.204,0.346-0.265,0.558c-0.06,0.212-0.09,0.438-0.09,0.678v2.868h-1.572
			V106.088z"/>
		<path fill="#FFFFFF" d="M395.816,113.264c-0.273,0.48-0.639,0.868-1.099,1.164s-1.022,0.444-1.687,0.444
			c-0.447,0-0.861-0.078-1.242-0.234c-0.379-0.156-0.709-0.374-0.989-0.654c-0.28-0.279-0.498-0.609-0.654-0.989
			c-0.155-0.38-0.233-0.799-0.233-1.255c0-0.424,0.076-0.825,0.228-1.206c0.151-0.379,0.364-0.712,0.636-0.995
			c0.271-0.284,0.594-0.511,0.967-0.679c0.371-0.168,0.781-0.252,1.229-0.252c0.472,0,0.892,0.078,1.26,0.234
			s0.677,0.372,0.925,0.647c0.247,0.276,0.436,0.603,0.563,0.979s0.192,0.784,0.192,1.224c0,0.057,0,0.104,0,0.145
			c-0.008,0.048-0.012,0.092-0.012,0.132c-0.009,0.04-0.013,0.084-0.013,0.132h-4.429c0.033,0.24,0.099,0.446,0.199,0.618
			c0.1,0.172,0.223,0.316,0.371,0.432c0.148,0.116,0.311,0.2,0.486,0.252c0.176,0.053,0.355,0.078,0.54,0.078
			c0.36,0,0.657-0.082,0.894-0.246s0.422-0.37,0.559-0.618L395.816,113.264z M394.387,110.984c-0.009-0.104-0.042-0.22-0.103-0.348
			c-0.06-0.128-0.147-0.248-0.264-0.36c-0.115-0.111-0.26-0.204-0.432-0.275c-0.172-0.072-0.378-0.108-0.618-0.108
			c-0.336,0-0.632,0.096-0.888,0.288s-0.437,0.46-0.541,0.804H394.387z"/>
		<path fill="#FFFFFF" d="M396.919,108.8h1.476v0.768h0.097c0.184-0.288,0.434-0.52,0.75-0.695c0.315-0.176,0.666-0.265,1.049-0.265
			c0.448,0,0.824,0.104,1.129,0.313c0.304,0.208,0.52,0.464,0.647,0.768c0.185-0.296,0.444-0.55,0.78-0.762s0.744-0.318,1.225-0.318
			c0.359,0,0.672,0.059,0.936,0.174c0.264,0.116,0.481,0.278,0.654,0.486c0.172,0.208,0.301,0.458,0.39,0.75
			c0.088,0.292,0.132,0.61,0.132,0.954v3.708h-1.572v-3.42c0-0.8-0.328-1.2-0.984-1.2c-0.207,0-0.392,0.046-0.551,0.138
			c-0.16,0.093-0.295,0.217-0.402,0.372c-0.108,0.156-0.192,0.343-0.252,0.559c-0.061,0.216-0.09,0.448-0.09,0.695v2.856h-1.572
			v-3.42c0-0.8-0.344-1.2-1.032-1.2c-0.2,0-0.376,0.046-0.528,0.138c-0.152,0.093-0.279,0.217-0.384,0.372
			c-0.104,0.156-0.185,0.343-0.239,0.559c-0.057,0.216-0.084,0.448-0.084,0.695v2.856h-1.572V108.8z"/>
		<path fill="#FFFFFF" d="M413.047,113.264c-0.272,0.48-0.638,0.868-1.099,1.164c-0.46,0.296-1.021,0.444-1.686,0.444
			c-0.448,0-0.862-0.078-1.242-0.234s-0.71-0.374-0.99-0.654c-0.279-0.279-0.498-0.609-0.654-0.989
			c-0.155-0.38-0.233-0.799-0.233-1.255c0-0.424,0.076-0.825,0.228-1.206c0.152-0.379,0.364-0.712,0.637-0.995
			c0.271-0.284,0.594-0.511,0.966-0.679s0.782-0.252,1.229-0.252c0.473,0,0.893,0.078,1.26,0.234
			c0.369,0.156,0.677,0.372,0.925,0.647c0.247,0.276,0.437,0.603,0.563,0.979c0.129,0.376,0.192,0.784,0.192,1.224
			c0,0.057,0,0.104,0,0.145c-0.008,0.048-0.012,0.092-0.012,0.132c-0.009,0.04-0.013,0.084-0.013,0.132h-4.428
			c0.032,0.24,0.098,0.446,0.198,0.618s0.224,0.316,0.372,0.432c0.148,0.116,0.311,0.2,0.486,0.252
			c0.176,0.053,0.355,0.078,0.539,0.078c0.36,0,0.658-0.082,0.895-0.246s0.422-0.37,0.559-0.618L413.047,113.264z M411.619,110.984
			c-0.008-0.104-0.041-0.22-0.102-0.348s-0.148-0.248-0.264-0.36c-0.116-0.111-0.26-0.204-0.432-0.275
			c-0.173-0.072-0.379-0.108-0.619-0.108c-0.336,0-0.631,0.096-0.888,0.288c-0.256,0.192-0.437,0.46-0.54,0.804H411.619z"/>
	</g>
	<g enable-background="new    ">
		<path fill="#FFFFFF" d="M376.555,120.489h2.904c0.68,0,1.292,0.104,1.836,0.312s1.008,0.502,1.392,0.882
			c0.385,0.381,0.678,0.834,0.883,1.362c0.203,0.528,0.306,1.108,0.306,1.74c0,0.64-0.103,1.224-0.306,1.752
			c-0.205,0.528-0.498,0.98-0.883,1.355c-0.384,0.377-0.848,0.669-1.392,0.877s-1.156,0.312-1.836,0.312h-2.904V120.489z
			 M379.387,127.544c0.472,0,0.888-0.065,1.248-0.198c0.36-0.132,0.66-0.317,0.9-0.558c0.239-0.24,0.42-0.53,0.54-0.87
			c0.119-0.34,0.18-0.718,0.18-1.134s-0.061-0.794-0.18-1.134c-0.12-0.34-0.301-0.63-0.54-0.87c-0.24-0.24-0.54-0.426-0.9-0.559
			c-0.36-0.132-0.776-0.197-1.248-0.197h-1.212v5.52H379.387z"/>
		<path fill="#FFFFFF" d="M390.379,127.664c-0.272,0.48-0.638,0.868-1.099,1.164c-0.46,0.296-1.021,0.444-1.686,0.444
			c-0.448,0-0.862-0.078-1.242-0.234s-0.71-0.374-0.99-0.654c-0.279-0.279-0.498-0.609-0.654-0.989
			c-0.155-0.38-0.233-0.799-0.233-1.255c0-0.424,0.076-0.825,0.228-1.206c0.152-0.379,0.364-0.712,0.637-0.995
			c0.271-0.284,0.594-0.511,0.966-0.679s0.782-0.252,1.229-0.252c0.473,0,0.893,0.078,1.26,0.234
			c0.369,0.156,0.677,0.372,0.925,0.647c0.247,0.276,0.437,0.603,0.563,0.979c0.129,0.376,0.192,0.784,0.192,1.224
			c0,0.057,0,0.104,0,0.145c-0.008,0.048-0.012,0.092-0.012,0.132c-0.009,0.04-0.013,0.084-0.013,0.132h-4.428
			c0.032,0.24,0.098,0.446,0.198,0.618s0.224,0.316,0.372,0.432c0.148,0.116,0.311,0.2,0.486,0.252
			c0.176,0.053,0.355,0.078,0.539,0.078c0.36,0,0.658-0.082,0.895-0.246s0.422-0.37,0.559-0.618L390.379,127.664z M388.951,125.384
			c-0.008-0.104-0.041-0.22-0.102-0.348s-0.148-0.248-0.264-0.36c-0.116-0.111-0.26-0.204-0.432-0.275
			c-0.173-0.072-0.379-0.108-0.619-0.108c-0.336,0-0.631,0.096-0.888,0.288c-0.256,0.192-0.437,0.46-0.54,0.804H388.951z"/>
		<path fill="#FFFFFF" d="M390.74,123.2h1.787l1.465,3.744h0.084l1.476-3.744h1.776l-2.532,5.88h-1.548L390.74,123.2z"/>
		<path fill="#FFFFFF" d="M403.435,127.664c-0.271,0.48-0.638,0.868-1.098,1.164c-0.461,0.296-1.021,0.444-1.686,0.444
			c-0.449,0-0.863-0.078-1.242-0.234c-0.381-0.156-0.711-0.374-0.99-0.654c-0.28-0.279-0.498-0.609-0.654-0.989
			s-0.234-0.799-0.234-1.255c0-0.424,0.076-0.825,0.229-1.206c0.152-0.379,0.363-0.712,0.637-0.995
			c0.271-0.284,0.594-0.511,0.965-0.679c0.373-0.168,0.782-0.252,1.23-0.252c0.473,0,0.893,0.078,1.26,0.234
			c0.368,0.156,0.676,0.372,0.924,0.647c0.248,0.276,0.437,0.603,0.564,0.979s0.191,0.784,0.191,1.224c0,0.057,0,0.104,0,0.145
			c-0.008,0.048-0.012,0.092-0.012,0.132c-0.008,0.04-0.012,0.084-0.012,0.132h-4.428c0.031,0.24,0.098,0.446,0.197,0.618
			c0.101,0.172,0.225,0.316,0.373,0.432c0.147,0.116,0.31,0.2,0.485,0.252c0.176,0.053,0.356,0.078,0.54,0.078
			c0.359,0,0.658-0.082,0.895-0.246c0.235-0.164,0.422-0.37,0.558-0.618L403.435,127.664z M402.007,125.384
			c-0.008-0.104-0.042-0.22-0.102-0.348c-0.061-0.128-0.148-0.248-0.265-0.36c-0.116-0.111-0.26-0.204-0.432-0.275
			c-0.173-0.072-0.378-0.108-0.618-0.108c-0.336,0-0.632,0.096-0.889,0.288c-0.256,0.192-0.436,0.46-0.539,0.804H402.007z"/>
		<path fill="#FFFFFF" d="M404.539,129.08v-8.592h1.572v8.592H404.539z"/>
		<path fill="#FFFFFF" d="M410.179,123.008c0.457,0,0.875,0.078,1.254,0.234c0.381,0.156,0.709,0.372,0.984,0.647
			c0.276,0.276,0.492,0.606,0.648,0.99s0.234,0.804,0.234,1.26s-0.078,0.876-0.234,1.261c-0.156,0.384-0.372,0.714-0.648,0.989
			c-0.275,0.276-0.604,0.492-0.984,0.648c-0.379,0.156-0.797,0.234-1.254,0.234c-0.455,0-0.873-0.078-1.254-0.234
			c-0.38-0.156-0.707-0.372-0.984-0.648c-0.275-0.275-0.491-0.605-0.647-0.989c-0.155-0.385-0.233-0.805-0.233-1.261
			s0.078-0.876,0.233-1.26c0.156-0.384,0.372-0.714,0.647-0.99c0.277-0.275,0.604-0.491,0.984-0.647
			C409.306,123.086,409.724,123.008,410.179,123.008z M410.179,127.821c0.2,0,0.395-0.038,0.582-0.114
			c0.188-0.076,0.354-0.186,0.498-0.33c0.145-0.144,0.258-0.319,0.342-0.528c0.084-0.207,0.127-0.443,0.127-0.708
			c0-0.264-0.043-0.499-0.127-0.708c-0.084-0.207-0.197-0.384-0.342-0.527c-0.144-0.145-0.31-0.254-0.498-0.33
			c-0.188-0.076-0.382-0.114-0.582-0.114c-0.207,0-0.404,0.038-0.588,0.114s-0.348,0.186-0.492,0.33
			c-0.144,0.144-0.258,0.32-0.342,0.527c-0.084,0.209-0.125,0.444-0.125,0.708c0,0.265,0.041,0.501,0.125,0.708
			c0.084,0.209,0.198,0.385,0.342,0.528c0.145,0.145,0.309,0.254,0.492,0.33S409.972,127.821,410.179,127.821z"/>
		<path fill="#FFFFFF" d="M414.199,123.2h1.477v0.708h0.096c0.145-0.248,0.368-0.46,0.672-0.636c0.305-0.176,0.68-0.265,1.129-0.265
			c0.375,0,0.733,0.078,1.073,0.234c0.341,0.156,0.64,0.372,0.9,0.647c0.26,0.276,0.466,0.606,0.618,0.99
			c0.151,0.384,0.228,0.804,0.228,1.26s-0.076,0.876-0.228,1.261c-0.152,0.384-0.358,0.714-0.618,0.989
			c-0.261,0.276-0.56,0.492-0.9,0.648c-0.34,0.156-0.698,0.234-1.073,0.234c-0.449,0-0.824-0.089-1.129-0.265
			c-0.304-0.176-0.527-0.388-0.672-0.636h-0.096l0.096,0.84v2.46h-1.572V123.2z M417.248,127.821c0.207,0,0.406-0.04,0.594-0.12
			s0.354-0.192,0.498-0.336c0.145-0.145,0.26-0.32,0.348-0.528s0.133-0.439,0.133-0.696c0-0.256-0.045-0.487-0.133-0.695
			s-0.203-0.384-0.348-0.528c-0.145-0.144-0.311-0.256-0.498-0.336s-0.387-0.12-0.594-0.12c-0.209,0-0.406,0.038-0.594,0.114
			c-0.188,0.076-0.354,0.186-0.498,0.33c-0.145,0.144-0.261,0.32-0.349,0.527c-0.088,0.209-0.132,0.444-0.132,0.708
			c0,0.265,0.044,0.501,0.132,0.708c0.088,0.209,0.204,0.385,0.349,0.528c0.144,0.145,0.31,0.254,0.498,0.33
			C416.841,127.782,417.039,127.821,417.248,127.821z"/>
		<path fill="#FFFFFF" d="M421.339,123.2h1.477v0.768h0.096c0.184-0.288,0.434-0.52,0.75-0.695s0.666-0.265,1.05-0.265
			c0.448,0,0.823,0.104,1.128,0.313s0.52,0.464,0.648,0.768c0.184-0.296,0.443-0.55,0.779-0.762s0.744-0.318,1.225-0.318
			c0.359,0,0.672,0.059,0.936,0.174c0.264,0.116,0.482,0.278,0.654,0.486s0.302,0.458,0.391,0.75
			c0.088,0.292,0.131,0.61,0.131,0.954v3.708h-1.572v-3.42c0-0.8-0.328-1.2-0.983-1.2c-0.208,0-0.392,0.046-0.552,0.138
			c-0.16,0.093-0.294,0.217-0.402,0.372c-0.107,0.156-0.191,0.343-0.252,0.559s-0.09,0.448-0.09,0.695v2.856h-1.572v-3.42
			c0-0.8-0.344-1.2-1.031-1.2c-0.201,0-0.377,0.046-0.528,0.138c-0.152,0.093-0.28,0.217-0.384,0.372
			c-0.104,0.156-0.185,0.343-0.24,0.559c-0.057,0.216-0.084,0.448-0.084,0.695v2.856h-1.572V123.2z"/>
		<path fill="#FFFFFF" d="M437.468,127.664c-0.273,0.48-0.639,0.868-1.099,1.164s-1.022,0.444-1.687,0.444
			c-0.447,0-0.861-0.078-1.242-0.234c-0.379-0.156-0.709-0.374-0.989-0.654c-0.28-0.279-0.498-0.609-0.654-0.989
			c-0.155-0.38-0.233-0.799-0.233-1.255c0-0.424,0.076-0.825,0.228-1.206c0.151-0.379,0.364-0.712,0.636-0.995
			c0.271-0.284,0.594-0.511,0.967-0.679c0.371-0.168,0.781-0.252,1.229-0.252c0.472,0,0.892,0.078,1.26,0.234
			s0.677,0.372,0.925,0.647c0.247,0.276,0.436,0.603,0.563,0.979s0.192,0.784,0.192,1.224c0,0.057,0,0.104,0,0.145
			c-0.008,0.048-0.012,0.092-0.012,0.132c-0.009,0.04-0.013,0.084-0.013,0.132h-4.429c0.033,0.24,0.099,0.446,0.199,0.618
			c0.1,0.172,0.223,0.316,0.371,0.432c0.148,0.116,0.311,0.2,0.486,0.252c0.176,0.053,0.355,0.078,0.54,0.078
			c0.36,0,0.657-0.082,0.894-0.246s0.422-0.37,0.559-0.618L437.468,127.664z M436.04,125.384c-0.009-0.104-0.042-0.22-0.103-0.348
			c-0.06-0.128-0.147-0.248-0.264-0.36c-0.115-0.111-0.26-0.204-0.432-0.275c-0.172-0.072-0.378-0.108-0.618-0.108
			c-0.336,0-0.632,0.096-0.888,0.288s-0.437,0.46-0.541,0.804H436.04z"/>
		<path fill="#FFFFFF" d="M440.047,123.968h0.097c0.184-0.296,0.432-0.529,0.743-0.702c0.312-0.172,0.668-0.258,1.068-0.258
			c0.368,0,0.692,0.061,0.972,0.181c0.28,0.119,0.51,0.29,0.689,0.51c0.181,0.22,0.316,0.484,0.408,0.792s0.139,0.65,0.139,1.025
			v3.564h-1.572v-3.372c0-0.424-0.094-0.738-0.281-0.942c-0.188-0.203-0.463-0.306-0.822-0.306c-0.217,0-0.406,0.046-0.57,0.138
			c-0.164,0.093-0.305,0.217-0.42,0.372c-0.116,0.156-0.204,0.341-0.264,0.553c-0.061,0.212-0.09,0.438-0.09,0.678v2.88h-1.572
			v-5.88h1.476V123.968z"/>
		<path fill="#FFFFFF" d="M445.807,124.544h-1.032V123.2h1.032v-1.8h1.572v1.8h1.44v1.344h-1.44v2.35
			c0,0.141,0.014,0.271,0.042,0.39c0.027,0.12,0.082,0.221,0.162,0.303c0.111,0.133,0.271,0.198,0.48,0.198
			c0.135,0,0.243-0.014,0.323-0.042s0.156-0.066,0.228-0.114l0.444,1.38c-0.185,0.088-0.382,0.154-0.594,0.198
			s-0.446,0.066-0.702,0.066c-0.296,0-0.563-0.048-0.798-0.142c-0.236-0.094-0.435-0.222-0.595-0.386
			c-0.375-0.367-0.563-0.89-0.563-1.567V124.544z"/>
	</g>
	<g enable-background="new    ">
		<path fill="#FFFFFF" d="M376.555,198.219v-8.592h3.024c0.408,0,0.789,0.065,1.146,0.198c0.355,0.132,0.666,0.317,0.93,0.558
			s0.472,0.526,0.623,0.858c0.152,0.332,0.229,0.697,0.229,1.098c0,0.408-0.076,0.778-0.229,1.11
			c-0.151,0.332-0.359,0.617-0.623,0.857s-0.574,0.426-0.93,0.559c-0.357,0.132-0.738,0.197-1.146,0.197h-1.404v3.156H376.555z
			 M379.603,193.527c0.424,0,0.744-0.119,0.961-0.359c0.215-0.24,0.323-0.517,0.323-0.828c0-0.152-0.026-0.3-0.077-0.444
			c-0.053-0.144-0.133-0.27-0.24-0.378c-0.108-0.107-0.242-0.193-0.402-0.258s-0.348-0.096-0.564-0.096h-1.428v2.363H379.603z"/>
		<path fill="#FFFFFF" d="M383.527,198.219v-8.592h1.572v8.592H383.527z"/>
		<path fill="#FFFFFF" d="M390.511,197.451h-0.096c-0.185,0.296-0.433,0.529-0.744,0.701c-0.313,0.172-0.668,0.259-1.068,0.259
			c-0.744,0-1.298-0.229-1.662-0.685s-0.546-1.063-0.546-1.824v-3.563h1.571v3.372c0,0.424,0.095,0.738,0.283,0.941
			c0.188,0.204,0.461,0.307,0.821,0.307c0.216,0,0.406-0.046,0.57-0.139c0.163-0.092,0.304-0.216,0.42-0.371
			c0.116-0.156,0.204-0.341,0.265-0.553c0.059-0.212,0.09-0.438,0.09-0.678v-2.88h1.571v5.88h-1.476V197.451z"/>
		<path fill="#FFFFFF" d="M395.983,201.003c-0.416,0-0.786-0.054-1.11-0.162c-0.323-0.108-0.605-0.248-0.846-0.42
			s-0.439-0.362-0.6-0.57s-0.276-0.416-0.348-0.624l1.5-0.6c0.111,0.312,0.295,0.554,0.552,0.726
			c0.256,0.172,0.54,0.258,0.852,0.258c0.496,0,0.888-0.161,1.177-0.482c0.287-0.322,0.432-0.765,0.432-1.329v-0.408h-0.096
			c-0.185,0.256-0.426,0.458-0.727,0.606c-0.3,0.147-0.654,0.222-1.063,0.222c-0.352,0-0.693-0.071-1.025-0.214
			s-0.626-0.347-0.882-0.612c-0.257-0.265-0.464-0.584-0.624-0.956s-0.24-0.788-0.24-1.248c0-0.459,0.08-0.877,0.24-1.253
			c0.16-0.377,0.367-0.697,0.624-0.963c0.256-0.266,0.55-0.47,0.882-0.612s0.674-0.214,1.025-0.214c0.408,0,0.763,0.074,1.063,0.223
			c0.301,0.147,0.542,0.35,0.727,0.605h0.096v-0.636h1.5v5.46c0,0.496-0.076,0.942-0.229,1.338
			c-0.152,0.396-0.363,0.732-0.636,1.008c-0.272,0.276-0.599,0.488-0.978,0.636C396.869,200.929,396.447,201.003,395.983,201.003z
			 M396.042,196.803c0.193,0,0.383-0.035,0.57-0.105c0.188-0.071,0.354-0.175,0.498-0.313c0.145-0.138,0.26-0.307,0.348-0.507
			s0.133-0.43,0.133-0.689c0-0.259-0.045-0.49-0.133-0.695c-0.088-0.204-0.203-0.375-0.348-0.512
			c-0.144-0.138-0.311-0.242-0.498-0.313s-0.377-0.106-0.57-0.106c-0.191,0-0.379,0.036-0.563,0.106s-0.348,0.177-0.491,0.318
			c-0.145,0.141-0.261,0.312-0.349,0.512c-0.089,0.201-0.132,0.431-0.132,0.689c0,0.26,0.043,0.489,0.132,0.689
			c0.088,0.2,0.204,0.369,0.349,0.507c0.144,0.138,0.307,0.241,0.491,0.313C395.664,196.768,395.851,196.803,396.042,196.803z"/>
		<path fill="#FFFFFF" d="M401.311,191.547c-0.136,0-0.267-0.026-0.39-0.078c-0.125-0.052-0.232-0.124-0.324-0.216
			s-0.164-0.198-0.216-0.318s-0.078-0.252-0.078-0.396c0-0.145,0.026-0.276,0.078-0.396s0.124-0.226,0.216-0.317
			c0.092-0.093,0.199-0.164,0.324-0.217c0.123-0.052,0.254-0.078,0.39-0.078c0.28,0,0.521,0.099,0.72,0.295
			c0.2,0.195,0.301,0.434,0.301,0.714s-0.101,0.518-0.301,0.714C401.832,191.449,401.591,191.547,401.311,191.547z M400.531,198.219
			v-5.88h1.572v5.88H400.531z"/>
		<path fill="#FFFFFF" d="M405.019,193.107h0.096c0.184-0.296,0.432-0.529,0.744-0.702c0.313-0.172,0.668-0.258,1.068-0.258
			c0.367,0,0.691,0.061,0.972,0.181c0.28,0.119,0.511,0.29,0.69,0.51s0.316,0.484,0.408,0.792s0.138,0.65,0.138,1.025v3.564h-1.572
			v-3.372c0-0.424-0.095-0.738-0.282-0.942c-0.188-0.203-0.461-0.306-0.822-0.306c-0.215,0-0.406,0.046-0.569,0.138
			c-0.164,0.093-0.304,0.217-0.42,0.372c-0.116,0.156-0.204,0.341-0.265,0.553c-0.06,0.212-0.09,0.438-0.09,0.678v2.88h-1.572v-5.88
			h1.477V193.107z"/>
	</g>
	<g enable-background="new    ">
		<path fill="#FFFFFF" d="M376.555,204.028h2.904c0.68,0,1.292,0.104,1.836,0.312s1.008,0.502,1.392,0.882
			c0.385,0.381,0.678,0.834,0.883,1.362c0.203,0.528,0.306,1.108,0.306,1.74c0,0.64-0.103,1.224-0.306,1.752
			c-0.205,0.528-0.498,0.98-0.883,1.355c-0.384,0.377-0.848,0.669-1.392,0.877s-1.156,0.312-1.836,0.312h-2.904V204.028z
			 M379.387,211.083c0.472,0,0.888-0.065,1.248-0.198c0.36-0.132,0.66-0.317,0.9-0.558c0.239-0.24,0.42-0.53,0.54-0.87
			c0.119-0.34,0.18-0.718,0.18-1.134s-0.061-0.794-0.18-1.134c-0.12-0.34-0.301-0.63-0.54-0.87c-0.24-0.24-0.54-0.426-0.9-0.559
			c-0.36-0.132-0.776-0.197-1.248-0.197h-1.212v5.52H379.387z"/>
		<path fill="#FFFFFF" d="M390.379,211.203c-0.272,0.48-0.638,0.868-1.099,1.164c-0.46,0.296-1.021,0.444-1.686,0.444
			c-0.448,0-0.862-0.078-1.242-0.234s-0.71-0.374-0.99-0.654c-0.279-0.279-0.498-0.609-0.654-0.989
			c-0.155-0.38-0.233-0.799-0.233-1.255c0-0.424,0.076-0.825,0.228-1.206c0.152-0.379,0.364-0.712,0.637-0.995
			c0.271-0.284,0.594-0.511,0.966-0.679s0.782-0.252,1.229-0.252c0.473,0,0.893,0.078,1.26,0.234
			c0.369,0.156,0.677,0.372,0.925,0.647c0.247,0.276,0.437,0.603,0.563,0.979c0.129,0.376,0.192,0.784,0.192,1.224
			c0,0.057,0,0.104,0,0.145c-0.008,0.048-0.012,0.092-0.012,0.132c-0.009,0.04-0.013,0.084-0.013,0.132h-4.428
			c0.032,0.24,0.098,0.446,0.198,0.618s0.224,0.316,0.372,0.432c0.148,0.116,0.311,0.2,0.486,0.252
			c0.176,0.053,0.355,0.078,0.539,0.078c0.36,0,0.658-0.082,0.895-0.246s0.422-0.37,0.559-0.618L390.379,211.203z M388.951,208.923
			c-0.008-0.104-0.041-0.22-0.102-0.348s-0.148-0.248-0.264-0.36c-0.116-0.111-0.26-0.204-0.432-0.275
			c-0.173-0.072-0.379-0.108-0.619-0.108c-0.336,0-0.631,0.096-0.888,0.288c-0.256,0.192-0.437,0.46-0.54,0.804H388.951z"/>
		<path fill="#FFFFFF" d="M390.74,206.74h1.787l1.465,3.744h0.084l1.476-3.744h1.776l-2.532,5.88h-1.548L390.74,206.74z"/>
		<path fill="#FFFFFF" d="M403.435,211.203c-0.271,0.48-0.638,0.868-1.098,1.164c-0.461,0.296-1.021,0.444-1.686,0.444
			c-0.449,0-0.863-0.078-1.242-0.234c-0.381-0.156-0.711-0.374-0.99-0.654c-0.28-0.279-0.498-0.609-0.654-0.989
			s-0.234-0.799-0.234-1.255c0-0.424,0.076-0.825,0.229-1.206c0.152-0.379,0.363-0.712,0.637-0.995
			c0.271-0.284,0.594-0.511,0.965-0.679c0.373-0.168,0.782-0.252,1.23-0.252c0.473,0,0.893,0.078,1.26,0.234
			c0.368,0.156,0.676,0.372,0.924,0.647c0.248,0.276,0.437,0.603,0.564,0.979s0.191,0.784,0.191,1.224c0,0.057,0,0.104,0,0.145
			c-0.008,0.048-0.012,0.092-0.012,0.132c-0.008,0.04-0.012,0.084-0.012,0.132h-4.428c0.031,0.24,0.098,0.446,0.197,0.618
			c0.101,0.172,0.225,0.316,0.373,0.432c0.147,0.116,0.31,0.2,0.485,0.252c0.176,0.053,0.356,0.078,0.54,0.078
			c0.359,0,0.658-0.082,0.895-0.246c0.235-0.164,0.422-0.37,0.558-0.618L403.435,211.203z M402.007,208.923
			c-0.008-0.104-0.042-0.22-0.102-0.348c-0.061-0.128-0.148-0.248-0.265-0.36c-0.116-0.111-0.26-0.204-0.432-0.275
			c-0.173-0.072-0.378-0.108-0.618-0.108c-0.336,0-0.632,0.096-0.889,0.288c-0.256,0.192-0.436,0.46-0.539,0.804H402.007z"/>
		<path fill="#FFFFFF" d="M404.539,212.619v-8.592h1.572v8.592H404.539z"/>
		<path fill="#FFFFFF" d="M410.179,206.547c0.457,0,0.875,0.078,1.254,0.234c0.381,0.156,0.709,0.372,0.984,0.647
			c0.276,0.276,0.492,0.606,0.648,0.99s0.234,0.804,0.234,1.26s-0.078,0.876-0.234,1.261c-0.156,0.384-0.372,0.714-0.648,0.989
			c-0.275,0.276-0.604,0.492-0.984,0.648c-0.379,0.156-0.797,0.234-1.254,0.234c-0.455,0-0.873-0.078-1.254-0.234
			c-0.38-0.156-0.707-0.372-0.984-0.648c-0.275-0.275-0.491-0.605-0.647-0.989c-0.155-0.385-0.233-0.805-0.233-1.261
			s0.078-0.876,0.233-1.26c0.156-0.384,0.372-0.714,0.647-0.99c0.277-0.275,0.604-0.491,0.984-0.647
			C409.306,206.625,409.724,206.547,410.179,206.547z M410.179,211.36c0.2,0,0.395-0.038,0.582-0.114
			c0.188-0.076,0.354-0.186,0.498-0.33c0.145-0.144,0.258-0.319,0.342-0.528c0.084-0.207,0.127-0.443,0.127-0.708
			c0-0.264-0.043-0.499-0.127-0.708c-0.084-0.207-0.197-0.384-0.342-0.527c-0.144-0.145-0.31-0.254-0.498-0.33
			c-0.188-0.076-0.382-0.114-0.582-0.114c-0.207,0-0.404,0.038-0.588,0.114s-0.348,0.186-0.492,0.33
			c-0.144,0.144-0.258,0.32-0.342,0.527c-0.084,0.209-0.125,0.444-0.125,0.708c0,0.265,0.041,0.501,0.125,0.708
			c0.084,0.209,0.198,0.385,0.342,0.528c0.145,0.145,0.309,0.254,0.492,0.33S409.972,211.36,410.179,211.36z"/>
		<path fill="#FFFFFF" d="M414.199,206.74h1.477v0.708h0.096c0.145-0.248,0.368-0.46,0.672-0.636
			c0.305-0.176,0.68-0.265,1.129-0.265c0.375,0,0.733,0.078,1.073,0.234c0.341,0.156,0.64,0.372,0.9,0.647
			c0.26,0.276,0.466,0.606,0.618,0.99c0.151,0.384,0.228,0.804,0.228,1.26s-0.076,0.876-0.228,1.261
			c-0.152,0.384-0.358,0.714-0.618,0.989c-0.261,0.276-0.56,0.492-0.9,0.648c-0.34,0.156-0.698,0.234-1.073,0.234
			c-0.449,0-0.824-0.089-1.129-0.265c-0.304-0.176-0.527-0.388-0.672-0.636h-0.096l0.096,0.84v2.46h-1.572V206.74z M417.248,211.36
			c0.207,0,0.406-0.04,0.594-0.12s0.354-0.192,0.498-0.336c0.145-0.145,0.26-0.32,0.348-0.528s0.133-0.439,0.133-0.696
			c0-0.256-0.045-0.487-0.133-0.695s-0.203-0.384-0.348-0.528c-0.145-0.144-0.311-0.256-0.498-0.336s-0.387-0.12-0.594-0.12
			c-0.209,0-0.406,0.038-0.594,0.114c-0.188,0.076-0.354,0.186-0.498,0.33c-0.145,0.144-0.261,0.32-0.349,0.527
			c-0.088,0.209-0.132,0.444-0.132,0.708c0,0.265,0.044,0.501,0.132,0.708c0.088,0.209,0.204,0.385,0.349,0.528
			c0.144,0.145,0.31,0.254,0.498,0.33C416.841,211.322,417.039,211.36,417.248,211.36z"/>
		<path fill="#FFFFFF" d="M421.339,206.74h1.477v0.768h0.096c0.184-0.288,0.434-0.52,0.75-0.695s0.666-0.265,1.05-0.265
			c0.448,0,0.823,0.104,1.128,0.313s0.52,0.464,0.648,0.768c0.184-0.296,0.443-0.55,0.779-0.762s0.744-0.318,1.225-0.318
			c0.359,0,0.672,0.059,0.936,0.174c0.264,0.116,0.482,0.278,0.654,0.486s0.302,0.458,0.391,0.75
			c0.088,0.292,0.131,0.61,0.131,0.954v3.708h-1.572v-3.42c0-0.8-0.328-1.2-0.983-1.2c-0.208,0-0.392,0.046-0.552,0.138
			c-0.16,0.093-0.294,0.217-0.402,0.372c-0.107,0.156-0.191,0.343-0.252,0.559s-0.09,0.448-0.09,0.695v2.856h-1.572v-3.42
			c0-0.8-0.344-1.2-1.031-1.2c-0.201,0-0.377,0.046-0.528,0.138c-0.152,0.093-0.28,0.217-0.384,0.372
			c-0.104,0.156-0.185,0.343-0.24,0.559c-0.057,0.216-0.084,0.448-0.084,0.695v2.856h-1.572V206.74z"/>
		<path fill="#FFFFFF" d="M437.468,211.203c-0.273,0.48-0.639,0.868-1.099,1.164s-1.022,0.444-1.687,0.444
			c-0.447,0-0.861-0.078-1.242-0.234c-0.379-0.156-0.709-0.374-0.989-0.654c-0.28-0.279-0.498-0.609-0.654-0.989
			c-0.155-0.38-0.233-0.799-0.233-1.255c0-0.424,0.076-0.825,0.228-1.206c0.151-0.379,0.364-0.712,0.636-0.995
			c0.271-0.284,0.594-0.511,0.967-0.679c0.371-0.168,0.781-0.252,1.229-0.252c0.472,0,0.892,0.078,1.26,0.234
			s0.677,0.372,0.925,0.647c0.247,0.276,0.436,0.603,0.563,0.979s0.192,0.784,0.192,1.224c0,0.057,0,0.104,0,0.145
			c-0.008,0.048-0.012,0.092-0.012,0.132c-0.009,0.04-0.013,0.084-0.013,0.132h-4.429c0.033,0.24,0.099,0.446,0.199,0.618
			c0.1,0.172,0.223,0.316,0.371,0.432c0.148,0.116,0.311,0.2,0.486,0.252c0.176,0.053,0.355,0.078,0.54,0.078
			c0.36,0,0.657-0.082,0.894-0.246s0.422-0.37,0.559-0.618L437.468,211.203z M436.04,208.923c-0.009-0.104-0.042-0.22-0.103-0.348
			c-0.06-0.128-0.147-0.248-0.264-0.36c-0.115-0.111-0.26-0.204-0.432-0.275c-0.172-0.072-0.378-0.108-0.618-0.108
			c-0.336,0-0.632,0.096-0.888,0.288s-0.437,0.46-0.541,0.804H436.04z"/>
		<path fill="#FFFFFF" d="M440.047,207.507h0.097c0.184-0.296,0.432-0.529,0.743-0.702c0.312-0.172,0.668-0.258,1.068-0.258
			c0.368,0,0.692,0.061,0.972,0.181c0.28,0.119,0.51,0.29,0.689,0.51c0.181,0.22,0.316,0.484,0.408,0.792s0.139,0.65,0.139,1.025
			v3.564h-1.572v-3.372c0-0.424-0.094-0.738-0.281-0.942c-0.188-0.203-0.463-0.306-0.822-0.306c-0.217,0-0.406,0.046-0.57,0.138
			c-0.164,0.093-0.305,0.217-0.42,0.372c-0.116,0.156-0.204,0.341-0.264,0.553c-0.061,0.212-0.09,0.438-0.09,0.678v2.88h-1.572
			v-5.88h1.476V207.507z"/>
		<path fill="#FFFFFF" d="M445.807,208.083h-1.032v-1.344h1.032v-1.8h1.572v1.8h1.44v1.344h-1.44v2.35
			c0,0.141,0.014,0.271,0.042,0.39c0.027,0.12,0.082,0.221,0.162,0.303c0.111,0.133,0.271,0.198,0.48,0.198
			c0.135,0,0.243-0.014,0.323-0.042s0.156-0.066,0.228-0.114l0.444,1.38c-0.185,0.088-0.382,0.154-0.594,0.198
			s-0.446,0.066-0.702,0.066c-0.296,0-0.563-0.048-0.798-0.142c-0.236-0.094-0.435-0.222-0.595-0.386
			c-0.375-0.367-0.563-0.89-0.563-1.567V208.083z"/>
	</g>
	<g enable-background="new    ">
		<path fill="#FFFFFF" d="M384.068,279.839c-0.425,0.512-0.924,0.902-1.5,1.17s-1.221,0.402-1.933,0.402
			c-0.64,0-1.233-0.116-1.782-0.349c-0.548-0.231-1.021-0.548-1.422-0.947c-0.4-0.4-0.716-0.874-0.947-1.423
			c-0.232-0.548-0.349-1.138-0.349-1.77s0.116-1.222,0.349-1.771c0.231-0.548,0.547-1.021,0.947-1.422
			c0.4-0.399,0.874-0.716,1.422-0.947c0.549-0.232,1.143-0.349,1.782-0.349c0.688,0,1.294,0.12,1.818,0.36
			c0.523,0.24,0.989,0.588,1.397,1.044l-1.14,1.104c-0.257-0.296-0.55-0.531-0.882-0.708c-0.332-0.176-0.727-0.264-1.182-0.264
			c-0.4,0-0.776,0.07-1.129,0.21c-0.352,0.141-0.658,0.338-0.918,0.594c-0.26,0.257-0.466,0.566-0.617,0.931
			c-0.152,0.364-0.229,0.77-0.229,1.218s0.076,0.854,0.229,1.218c0.151,0.364,0.357,0.674,0.617,0.93
			c0.26,0.257,0.566,0.454,0.918,0.595c0.353,0.14,0.729,0.21,1.129,0.21c0.479,0,0.905-0.098,1.277-0.294s0.702-0.475,0.99-0.834
			L384.068,279.839z"/>
		<path fill="#FFFFFF" d="M389.06,280.451h-0.097c-0.185,0.296-0.433,0.529-0.744,0.701s-0.668,0.259-1.067,0.259
			c-0.744,0-1.299-0.229-1.662-0.685c-0.365-0.456-0.547-1.063-0.547-1.824v-3.563h1.572v3.372c0,0.424,0.094,0.738,0.282,0.941
			c0.188,0.204,0.462,0.307,0.821,0.307c0.217,0,0.406-0.046,0.57-0.139c0.164-0.092,0.305-0.216,0.42-0.371
			c0.116-0.156,0.205-0.341,0.265-0.553s0.09-0.438,0.09-0.678v-2.88h1.571v5.88h-1.475V280.451z"/>
		<path fill="#FFFFFF" d="M394.148,281.411c-0.385,0-0.727-0.049-1.026-0.145s-0.56-0.222-0.78-0.378s-0.406-0.336-0.558-0.54
			c-0.152-0.204-0.269-0.41-0.349-0.618l1.404-0.6c0.137,0.304,0.318,0.53,0.546,0.678c0.228,0.148,0.481,0.222,0.763,0.222
			c0.287,0,0.516-0.052,0.684-0.155c0.168-0.104,0.252-0.229,0.252-0.372c0-0.16-0.07-0.29-0.21-0.391
			c-0.14-0.1-0.382-0.189-0.726-0.27l-0.828-0.18c-0.185-0.04-0.375-0.104-0.57-0.192c-0.196-0.088-0.374-0.2-0.534-0.336
			s-0.292-0.3-0.396-0.492c-0.104-0.191-0.156-0.416-0.156-0.672c0-0.288,0.062-0.544,0.186-0.768
			c0.125-0.225,0.295-0.414,0.51-0.57c0.217-0.156,0.471-0.276,0.763-0.36s0.606-0.126,0.942-0.126c0.56,0,1.06,0.11,1.5,0.33
			c0.439,0.221,0.764,0.57,0.972,1.05l-1.356,0.553c-0.111-0.232-0.275-0.4-0.492-0.504c-0.215-0.104-0.432-0.156-0.647-0.156
			c-0.224,0-0.42,0.046-0.588,0.138s-0.253,0.21-0.253,0.354c0,0.136,0.07,0.244,0.211,0.323c0.14,0.08,0.33,0.152,0.57,0.217
			l0.899,0.216c0.601,0.144,1.046,0.374,1.338,0.689c0.292,0.316,0.438,0.69,0.438,1.122c0,0.257-0.061,0.5-0.18,0.732
			c-0.121,0.232-0.291,0.438-0.511,0.618c-0.22,0.18-0.483,0.321-0.792,0.426C394.865,281.359,394.523,281.411,394.148,281.411z"/>
		<path fill="#FFFFFF" d="M398.203,276.683h-1.031v-1.344h1.031v-1.8h1.572v1.8h1.44v1.344h-1.44v2.35
			c0,0.141,0.014,0.271,0.043,0.39c0.027,0.12,0.082,0.221,0.162,0.303c0.111,0.133,0.271,0.198,0.479,0.198
			c0.136,0,0.243-0.014,0.323-0.042s0.156-0.066,0.229-0.114l0.443,1.38c-0.184,0.088-0.381,0.154-0.594,0.198
			c-0.211,0.044-0.445,0.066-0.701,0.066c-0.297,0-0.563-0.048-0.799-0.142s-0.434-0.222-0.594-0.386
			c-0.376-0.367-0.564-0.89-0.564-1.567V276.683z"/>
		<path fill="#FFFFFF" d="M405.091,275.147c0.456,0,0.874,0.078,1.254,0.234s0.708,0.372,0.984,0.647
			c0.275,0.276,0.492,0.606,0.647,0.99c0.156,0.384,0.234,0.804,0.234,1.26s-0.078,0.876-0.234,1.261
			c-0.155,0.384-0.372,0.714-0.647,0.989c-0.276,0.276-0.604,0.492-0.984,0.648s-0.798,0.234-1.254,0.234s-0.874-0.078-1.254-0.234
			c-0.381-0.156-0.708-0.372-0.984-0.648c-0.275-0.275-0.492-0.605-0.648-0.989c-0.155-0.385-0.233-0.805-0.233-1.261
			s0.078-0.876,0.233-1.26c0.156-0.384,0.373-0.714,0.648-0.99c0.276-0.275,0.604-0.491,0.984-0.647
			C404.217,275.225,404.635,275.147,405.091,275.147z M405.091,279.959c0.199,0,0.395-0.038,0.582-0.114s0.354-0.186,0.498-0.33
			c0.145-0.144,0.258-0.319,0.342-0.528c0.084-0.207,0.126-0.443,0.126-0.708c0-0.264-0.042-0.499-0.126-0.708
			c-0.084-0.207-0.197-0.384-0.342-0.527c-0.145-0.145-0.311-0.254-0.498-0.33s-0.383-0.114-0.582-0.114
			c-0.208,0-0.404,0.038-0.588,0.114s-0.348,0.186-0.492,0.33c-0.145,0.144-0.258,0.32-0.342,0.527
			c-0.084,0.209-0.126,0.444-0.126,0.708c0,0.265,0.042,0.501,0.126,0.708c0.084,0.209,0.197,0.385,0.342,0.528
			c0.145,0.145,0.309,0.254,0.492,0.33S404.883,279.959,405.091,279.959z"/>
		<path fill="#FFFFFF" d="M409.099,275.339h1.477v0.768h0.096c0.184-0.288,0.434-0.52,0.75-0.695s0.666-0.265,1.05-0.265
			c0.448,0,0.823,0.104,1.128,0.313s0.52,0.464,0.648,0.768c0.184-0.296,0.443-0.55,0.779-0.762s0.744-0.318,1.225-0.318
			c0.359,0,0.672,0.059,0.936,0.174c0.264,0.116,0.482,0.278,0.654,0.486s0.302,0.458,0.391,0.75
			c0.088,0.292,0.131,0.61,0.131,0.954v3.708h-1.572v-3.42c0-0.8-0.328-1.2-0.983-1.2c-0.208,0-0.392,0.046-0.552,0.138
			c-0.16,0.093-0.294,0.217-0.402,0.372c-0.107,0.156-0.191,0.343-0.252,0.559s-0.09,0.448-0.09,0.695v2.856h-1.572v-3.42
			c0-0.8-0.344-1.2-1.031-1.2c-0.201,0-0.377,0.046-0.528,0.138c-0.152,0.093-0.28,0.217-0.384,0.372
			c-0.104,0.156-0.185,0.343-0.24,0.559c-0.057,0.216-0.084,0.448-0.084,0.695v2.856h-1.572V275.339z"/>
	</g>
	<g enable-background="new    ">
		<path fill="#FFFFFF" d="M376.555,287.028h2.904c0.68,0,1.292,0.104,1.836,0.312s1.008,0.502,1.392,0.882
			c0.385,0.381,0.678,0.834,0.883,1.362c0.203,0.528,0.306,1.108,0.306,1.74c0,0.64-0.103,1.224-0.306,1.752
			c-0.205,0.528-0.498,0.98-0.883,1.355c-0.384,0.377-0.848,0.669-1.392,0.877s-1.156,0.312-1.836,0.312h-2.904V287.028z
			 M379.387,294.083c0.472,0,0.888-0.065,1.248-0.198c0.36-0.132,0.66-0.317,0.9-0.558c0.239-0.24,0.42-0.53,0.54-0.87
			c0.119-0.34,0.18-0.718,0.18-1.134s-0.061-0.794-0.18-1.134c-0.12-0.34-0.301-0.63-0.54-0.87c-0.24-0.24-0.54-0.426-0.9-0.559
			c-0.36-0.132-0.776-0.197-1.248-0.197h-1.212v5.52H379.387z"/>
		<path fill="#FFFFFF" d="M390.379,294.203c-0.272,0.48-0.638,0.868-1.099,1.164c-0.46,0.296-1.021,0.444-1.686,0.444
			c-0.448,0-0.862-0.078-1.242-0.234s-0.71-0.374-0.99-0.654c-0.279-0.279-0.498-0.609-0.654-0.989
			c-0.155-0.38-0.233-0.799-0.233-1.255c0-0.424,0.076-0.825,0.228-1.206c0.152-0.379,0.364-0.712,0.637-0.995
			c0.271-0.284,0.594-0.511,0.966-0.679s0.782-0.252,1.229-0.252c0.473,0,0.893,0.078,1.26,0.234
			c0.369,0.156,0.677,0.372,0.925,0.647c0.247,0.276,0.437,0.603,0.563,0.979c0.129,0.376,0.192,0.784,0.192,1.224
			c0,0.057,0,0.104,0,0.145c-0.008,0.048-0.012,0.092-0.012,0.132c-0.009,0.04-0.013,0.084-0.013,0.132h-4.428
			c0.032,0.24,0.098,0.446,0.198,0.618s0.224,0.316,0.372,0.432c0.148,0.116,0.311,0.2,0.486,0.252
			c0.176,0.053,0.355,0.078,0.539,0.078c0.36,0,0.658-0.082,0.895-0.246s0.422-0.37,0.559-0.618L390.379,294.203z M388.951,291.923
			c-0.008-0.104-0.041-0.22-0.102-0.348s-0.148-0.248-0.264-0.36c-0.116-0.111-0.26-0.204-0.432-0.275
			c-0.173-0.072-0.379-0.108-0.619-0.108c-0.336,0-0.631,0.096-0.888,0.288c-0.256,0.192-0.437,0.46-0.54,0.804H388.951z"/>
		<path fill="#FFFFFF" d="M390.74,289.74h1.787l1.465,3.744h0.084l1.476-3.744h1.776l-2.532,5.88h-1.548L390.74,289.74z"/>
		<path fill="#FFFFFF" d="M403.435,294.203c-0.271,0.48-0.638,0.868-1.098,1.164c-0.461,0.296-1.021,0.444-1.686,0.444
			c-0.449,0-0.863-0.078-1.242-0.234c-0.381-0.156-0.711-0.374-0.99-0.654c-0.28-0.279-0.498-0.609-0.654-0.989
			s-0.234-0.799-0.234-1.255c0-0.424,0.076-0.825,0.229-1.206c0.152-0.379,0.363-0.712,0.637-0.995
			c0.271-0.284,0.594-0.511,0.965-0.679c0.373-0.168,0.782-0.252,1.23-0.252c0.473,0,0.893,0.078,1.26,0.234
			c0.368,0.156,0.676,0.372,0.924,0.647c0.248,0.276,0.437,0.603,0.564,0.979s0.191,0.784,0.191,1.224c0,0.057,0,0.104,0,0.145
			c-0.008,0.048-0.012,0.092-0.012,0.132c-0.008,0.04-0.012,0.084-0.012,0.132h-4.428c0.031,0.24,0.098,0.446,0.197,0.618
			c0.101,0.172,0.225,0.316,0.373,0.432c0.147,0.116,0.31,0.2,0.485,0.252c0.176,0.053,0.356,0.078,0.54,0.078
			c0.359,0,0.658-0.082,0.895-0.246c0.235-0.164,0.422-0.37,0.558-0.618L403.435,294.203z M402.007,291.923
			c-0.008-0.104-0.042-0.22-0.102-0.348c-0.061-0.128-0.148-0.248-0.265-0.36c-0.116-0.111-0.26-0.204-0.432-0.275
			c-0.173-0.072-0.378-0.108-0.618-0.108c-0.336,0-0.632,0.096-0.889,0.288c-0.256,0.192-0.436,0.46-0.539,0.804H402.007z"/>
		<path fill="#FFFFFF" d="M404.539,295.619v-8.592h1.572v8.592H404.539z"/>
		<path fill="#FFFFFF" d="M410.179,289.547c0.457,0,0.875,0.078,1.254,0.234c0.381,0.156,0.709,0.372,0.984,0.647
			c0.276,0.276,0.492,0.606,0.648,0.99s0.234,0.804,0.234,1.26s-0.078,0.876-0.234,1.261c-0.156,0.384-0.372,0.714-0.648,0.989
			c-0.275,0.276-0.604,0.492-0.984,0.648c-0.379,0.156-0.797,0.234-1.254,0.234c-0.455,0-0.873-0.078-1.254-0.234
			c-0.38-0.156-0.707-0.372-0.984-0.648c-0.275-0.275-0.491-0.605-0.647-0.989c-0.155-0.385-0.233-0.805-0.233-1.261
			s0.078-0.876,0.233-1.26c0.156-0.384,0.372-0.714,0.647-0.99c0.277-0.275,0.604-0.491,0.984-0.647
			C409.306,289.625,409.724,289.547,410.179,289.547z M410.179,294.36c0.2,0,0.395-0.038,0.582-0.114
			c0.188-0.076,0.354-0.186,0.498-0.33c0.145-0.144,0.258-0.319,0.342-0.528c0.084-0.207,0.127-0.443,0.127-0.708
			c0-0.264-0.043-0.499-0.127-0.708c-0.084-0.207-0.197-0.384-0.342-0.527c-0.144-0.145-0.31-0.254-0.498-0.33
			c-0.188-0.076-0.382-0.114-0.582-0.114c-0.207,0-0.404,0.038-0.588,0.114s-0.348,0.186-0.492,0.33
			c-0.144,0.144-0.258,0.32-0.342,0.527c-0.084,0.209-0.125,0.444-0.125,0.708c0,0.265,0.041,0.501,0.125,0.708
			c0.084,0.209,0.198,0.385,0.342,0.528c0.145,0.145,0.309,0.254,0.492,0.33S409.972,294.36,410.179,294.36z"/>
		<path fill="#FFFFFF" d="M414.199,289.74h1.477v0.708h0.096c0.145-0.248,0.368-0.46,0.672-0.636
			c0.305-0.176,0.68-0.265,1.129-0.265c0.375,0,0.733,0.078,1.073,0.234c0.341,0.156,0.64,0.372,0.9,0.647
			c0.26,0.276,0.466,0.606,0.618,0.99c0.151,0.384,0.228,0.804,0.228,1.26s-0.076,0.876-0.228,1.261
			c-0.152,0.384-0.358,0.714-0.618,0.989c-0.261,0.276-0.56,0.492-0.9,0.648c-0.34,0.156-0.698,0.234-1.073,0.234
			c-0.449,0-0.824-0.089-1.129-0.265c-0.304-0.176-0.527-0.388-0.672-0.636h-0.096l0.096,0.84v2.46h-1.572V289.74z M417.248,294.36
			c0.207,0,0.406-0.04,0.594-0.12s0.354-0.192,0.498-0.336c0.145-0.145,0.26-0.32,0.348-0.528s0.133-0.439,0.133-0.696
			c0-0.256-0.045-0.487-0.133-0.695s-0.203-0.384-0.348-0.528c-0.145-0.144-0.311-0.256-0.498-0.336s-0.387-0.12-0.594-0.12
			c-0.209,0-0.406,0.038-0.594,0.114c-0.188,0.076-0.354,0.186-0.498,0.33c-0.145,0.144-0.261,0.32-0.349,0.527
			c-0.088,0.209-0.132,0.444-0.132,0.708c0,0.265,0.044,0.501,0.132,0.708c0.088,0.209,0.204,0.385,0.349,0.528
			c0.144,0.145,0.31,0.254,0.498,0.33C416.841,294.322,417.039,294.36,417.248,294.36z"/>
		<path fill="#FFFFFF" d="M421.339,289.74h1.477v0.768h0.096c0.184-0.288,0.434-0.52,0.75-0.695s0.666-0.265,1.05-0.265
			c0.448,0,0.823,0.104,1.128,0.313s0.52,0.464,0.648,0.768c0.184-0.296,0.443-0.55,0.779-0.762s0.744-0.318,1.225-0.318
			c0.359,0,0.672,0.059,0.936,0.174c0.264,0.116,0.482,0.278,0.654,0.486s0.302,0.458,0.391,0.75
			c0.088,0.292,0.131,0.61,0.131,0.954v3.708h-1.572v-3.42c0-0.8-0.328-1.2-0.983-1.2c-0.208,0-0.392,0.046-0.552,0.138
			c-0.16,0.093-0.294,0.217-0.402,0.372c-0.107,0.156-0.191,0.343-0.252,0.559s-0.09,0.448-0.09,0.695v2.856h-1.572v-3.42
			c0-0.8-0.344-1.2-1.031-1.2c-0.201,0-0.377,0.046-0.528,0.138c-0.152,0.093-0.28,0.217-0.384,0.372
			c-0.104,0.156-0.185,0.343-0.24,0.559c-0.057,0.216-0.084,0.448-0.084,0.695v2.856h-1.572V289.74z"/>
		<path fill="#FFFFFF" d="M437.468,294.203c-0.273,0.48-0.639,0.868-1.099,1.164s-1.022,0.444-1.687,0.444
			c-0.447,0-0.861-0.078-1.242-0.234c-0.379-0.156-0.709-0.374-0.989-0.654c-0.28-0.279-0.498-0.609-0.654-0.989
			c-0.155-0.38-0.233-0.799-0.233-1.255c0-0.424,0.076-0.825,0.228-1.206c0.151-0.379,0.364-0.712,0.636-0.995
			c0.271-0.284,0.594-0.511,0.967-0.679c0.371-0.168,0.781-0.252,1.229-0.252c0.472,0,0.892,0.078,1.26,0.234
			s0.677,0.372,0.925,0.647c0.247,0.276,0.436,0.603,0.563,0.979s0.192,0.784,0.192,1.224c0,0.057,0,0.104,0,0.145
			c-0.008,0.048-0.012,0.092-0.012,0.132c-0.009,0.04-0.013,0.084-0.013,0.132h-4.429c0.033,0.24,0.099,0.446,0.199,0.618
			c0.1,0.172,0.223,0.316,0.371,0.432c0.148,0.116,0.311,0.2,0.486,0.252c0.176,0.053,0.355,0.078,0.54,0.078
			c0.36,0,0.657-0.082,0.894-0.246s0.422-0.37,0.559-0.618L437.468,294.203z M436.04,291.923c-0.009-0.104-0.042-0.22-0.103-0.348
			c-0.06-0.128-0.147-0.248-0.264-0.36c-0.115-0.111-0.26-0.204-0.432-0.275c-0.172-0.072-0.378-0.108-0.618-0.108
			c-0.336,0-0.632,0.096-0.888,0.288s-0.437,0.46-0.541,0.804H436.04z"/>
		<path fill="#FFFFFF" d="M440.047,290.507h0.097c0.184-0.296,0.432-0.529,0.743-0.702c0.312-0.172,0.668-0.258,1.068-0.258
			c0.368,0,0.692,0.061,0.972,0.181c0.28,0.119,0.51,0.29,0.689,0.51c0.181,0.22,0.316,0.484,0.408,0.792s0.139,0.65,0.139,1.025
			v3.564h-1.572v-3.372c0-0.424-0.094-0.738-0.281-0.942c-0.188-0.203-0.463-0.306-0.822-0.306c-0.217,0-0.406,0.046-0.57,0.138
			c-0.164,0.093-0.305,0.217-0.42,0.372c-0.116,0.156-0.204,0.341-0.264,0.553c-0.061,0.212-0.09,0.438-0.09,0.678v2.88h-1.572
			v-5.88h1.476V290.507z"/>
		<path fill="#FFFFFF" d="M445.807,291.083h-1.032v-1.344h1.032v-1.8h1.572v1.8h1.44v1.344h-1.44v2.35
			c0,0.141,0.014,0.271,0.042,0.39c0.027,0.12,0.082,0.221,0.162,0.303c0.111,0.133,0.271,0.198,0.48,0.198
			c0.135,0,0.243-0.014,0.323-0.042s0.156-0.066,0.228-0.114l0.444,1.38c-0.185,0.088-0.382,0.154-0.594,0.198
			s-0.446,0.066-0.702,0.066c-0.296,0-0.563-0.048-0.798-0.142c-0.236-0.094-0.435-0.222-0.595-0.386
			c-0.375-0.367-0.563-0.89-0.563-1.567V291.083z"/>
	</g>
	<g enable-background="new    ">
		<path fill="#FFFFFF" d="M379.183,364.601c-0.367,0-0.72-0.053-1.056-0.156c-0.336-0.104-0.644-0.26-0.924-0.468
			s-0.524-0.462-0.732-0.763c-0.208-0.3-0.372-0.649-0.491-1.05l1.523-0.6c0.111,0.432,0.309,0.79,0.588,1.074
			c0.28,0.283,0.648,0.426,1.104,0.426c0.168,0,0.33-0.022,0.486-0.066s0.296-0.107,0.42-0.191c0.125-0.084,0.223-0.19,0.295-0.318
			c0.071-0.128,0.107-0.276,0.107-0.444c0-0.16-0.028-0.304-0.084-0.432c-0.057-0.128-0.15-0.248-0.282-0.36
			c-0.132-0.111-0.304-0.22-0.516-0.324c-0.212-0.104-0.474-0.211-0.786-0.323l-0.527-0.192c-0.232-0.08-0.467-0.188-0.703-0.324
			c-0.236-0.136-0.449-0.3-0.642-0.491c-0.192-0.192-0.351-0.418-0.474-0.679c-0.125-0.26-0.187-0.554-0.187-0.882
			c0-0.336,0.066-0.649,0.198-0.942c0.132-0.291,0.32-0.548,0.564-0.768s0.535-0.392,0.875-0.516s0.719-0.187,1.135-0.187
			c0.432,0,0.806,0.059,1.121,0.174c0.316,0.116,0.584,0.265,0.805,0.444c0.22,0.18,0.398,0.378,0.534,0.594s0.235,0.42,0.3,0.612
			l-1.428,0.6c-0.08-0.239-0.227-0.456-0.438-0.647c-0.212-0.192-0.502-0.288-0.87-0.288c-0.352,0-0.644,0.082-0.875,0.246
			c-0.232,0.164-0.349,0.378-0.349,0.642c0,0.256,0.112,0.475,0.336,0.654s0.58,0.354,1.067,0.521l0.541,0.181
			c0.344,0.12,0.658,0.258,0.941,0.414c0.284,0.155,0.528,0.342,0.732,0.558c0.203,0.216,0.359,0.462,0.468,0.738
			c0.108,0.275,0.162,0.594,0.162,0.954c0,0.448-0.091,0.834-0.271,1.157c-0.18,0.324-0.41,0.591-0.689,0.799
			c-0.28,0.208-0.596,0.363-0.948,0.468C379.863,364.548,379.519,364.601,379.183,364.601z"/>
		<path fill="#FFFFFF" d="M383.215,358.529h1.476v0.708h0.096c0.145-0.248,0.369-0.46,0.673-0.636s0.68-0.265,1.128-0.265
			c0.376,0,0.734,0.078,1.074,0.234s0.64,0.372,0.9,0.647c0.26,0.276,0.465,0.606,0.617,0.99s0.229,0.804,0.229,1.26
			s-0.076,0.876-0.229,1.261c-0.152,0.384-0.357,0.714-0.617,0.989c-0.261,0.276-0.561,0.492-0.9,0.648s-0.698,0.234-1.074,0.234
			c-0.448,0-0.824-0.089-1.128-0.265s-0.528-0.388-0.673-0.636h-0.096l0.096,0.84V367h-1.571V358.529z M386.263,363.149
			c0.208,0,0.406-0.04,0.594-0.12c0.188-0.08,0.354-0.192,0.498-0.336c0.145-0.145,0.26-0.32,0.348-0.528s0.133-0.439,0.133-0.696
			c0-0.256-0.045-0.487-0.133-0.695s-0.203-0.384-0.348-0.528c-0.144-0.144-0.31-0.256-0.498-0.336
			c-0.188-0.08-0.386-0.12-0.594-0.12s-0.406,0.038-0.594,0.114s-0.354,0.186-0.498,0.33c-0.145,0.144-0.26,0.32-0.348,0.527
			c-0.088,0.209-0.133,0.444-0.133,0.708c0,0.265,0.045,0.501,0.133,0.708c0.088,0.209,0.203,0.385,0.348,0.528
			c0.145,0.145,0.311,0.254,0.498,0.33S386.055,363.149,386.263,363.149z"/>
		<path fill="#FFFFFF" d="M395.984,362.992c-0.273,0.48-0.639,0.868-1.099,1.164s-1.022,0.444-1.687,0.444
			c-0.447,0-0.861-0.078-1.242-0.234c-0.379-0.156-0.709-0.374-0.989-0.654c-0.28-0.279-0.498-0.609-0.654-0.989
			c-0.155-0.38-0.233-0.799-0.233-1.255c0-0.424,0.076-0.825,0.228-1.206c0.151-0.379,0.364-0.712,0.636-0.995
			c0.271-0.284,0.594-0.511,0.967-0.679c0.371-0.168,0.781-0.252,1.229-0.252c0.472,0,0.892,0.078,1.26,0.234
			s0.677,0.372,0.925,0.647c0.247,0.276,0.436,0.603,0.563,0.979s0.192,0.784,0.192,1.224c0,0.057,0,0.104,0,0.145
			c-0.008,0.048-0.012,0.092-0.012,0.132c-0.009,0.04-0.013,0.084-0.013,0.132h-4.429c0.033,0.24,0.099,0.446,0.199,0.618
			c0.1,0.172,0.223,0.316,0.371,0.432c0.148,0.116,0.311,0.2,0.486,0.252c0.176,0.053,0.355,0.078,0.54,0.078
			c0.36,0,0.657-0.082,0.894-0.246s0.422-0.37,0.559-0.618L395.984,362.992z M394.555,360.712c-0.009-0.104-0.042-0.22-0.103-0.348
			c-0.06-0.128-0.147-0.248-0.264-0.36c-0.115-0.111-0.26-0.204-0.432-0.275c-0.172-0.072-0.378-0.108-0.618-0.108
			c-0.336,0-0.632,0.096-0.888,0.288s-0.437,0.46-0.541,0.804H394.555z"/>
		<path fill="#FFFFFF" d="M402.715,362.992c-0.272,0.48-0.638,0.868-1.099,1.164c-0.46,0.296-1.021,0.444-1.686,0.444
			c-0.448,0-0.862-0.078-1.242-0.234s-0.71-0.374-0.99-0.654c-0.279-0.279-0.498-0.609-0.654-0.989
			c-0.155-0.38-0.233-0.799-0.233-1.255c0-0.424,0.076-0.825,0.228-1.206c0.152-0.379,0.364-0.712,0.637-0.995
			c0.271-0.284,0.594-0.511,0.966-0.679s0.782-0.252,1.229-0.252c0.473,0,0.893,0.078,1.26,0.234
			c0.369,0.156,0.677,0.372,0.925,0.647c0.247,0.276,0.437,0.603,0.563,0.979c0.129,0.376,0.192,0.784,0.192,1.224
			c0,0.057,0,0.104,0,0.145c-0.008,0.048-0.012,0.092-0.012,0.132c-0.009,0.04-0.013,0.084-0.013,0.132h-4.428
			c0.032,0.24,0.098,0.446,0.198,0.618s0.224,0.316,0.372,0.432c0.148,0.116,0.311,0.2,0.486,0.252
			c0.176,0.053,0.355,0.078,0.539,0.078c0.36,0,0.658-0.082,0.895-0.246s0.422-0.37,0.559-0.618L402.715,362.992z M401.287,360.712
			c-0.008-0.104-0.041-0.22-0.102-0.348s-0.148-0.248-0.264-0.36c-0.116-0.111-0.26-0.204-0.432-0.275
			c-0.173-0.072-0.379-0.108-0.619-0.108c-0.336,0-0.631,0.096-0.888,0.288c-0.256,0.192-0.437,0.46-0.54,0.804H401.287z"/>
		<path fill="#FFFFFF" d="M408.259,363.7h-0.096c-0.145,0.248-0.369,0.46-0.672,0.636c-0.305,0.176-0.681,0.265-1.129,0.265
			c-0.376,0-0.734-0.078-1.074-0.234s-0.64-0.372-0.899-0.648c-0.261-0.275-0.466-0.605-0.618-0.989
			c-0.152-0.385-0.229-0.805-0.229-1.261s0.076-0.876,0.229-1.26s0.357-0.714,0.618-0.99c0.26-0.275,0.56-0.491,0.899-0.647
			s0.698-0.234,1.074-0.234c0.448,0,0.824,0.089,1.129,0.265c0.303,0.176,0.527,0.388,0.672,0.636h0.096l-0.096-0.84v-2.58h1.571
			v8.592h-1.476V363.7z M406.687,363.149c0.208,0,0.406-0.038,0.594-0.114s0.354-0.186,0.498-0.33
			c0.145-0.144,0.26-0.319,0.348-0.528c0.088-0.207,0.133-0.443,0.133-0.708c0-0.264-0.045-0.499-0.133-0.708
			c-0.088-0.207-0.203-0.384-0.348-0.527c-0.144-0.145-0.311-0.254-0.498-0.33s-0.386-0.114-0.594-0.114s-0.406,0.04-0.594,0.12
			c-0.188,0.08-0.354,0.192-0.498,0.336c-0.145,0.145-0.26,0.32-0.348,0.528c-0.089,0.208-0.133,0.439-0.133,0.695
			c0,0.257,0.044,0.488,0.133,0.696c0.088,0.208,0.203,0.384,0.348,0.528c0.145,0.144,0.31,0.256,0.498,0.336
			C406.281,363.109,406.479,363.149,406.687,363.149z"/>
	</g>
	<g enable-background="new    ">
		<path fill="#FFFFFF" d="M380.624,378.999c-0.64,0-1.234-0.116-1.782-0.349c-0.548-0.231-1.021-0.55-1.422-0.954
			c-0.4-0.403-0.714-0.88-0.941-1.428c-0.229-0.548-0.343-1.134-0.343-1.758s0.114-1.21,0.343-1.758
			c0.228-0.548,0.541-1.024,0.941-1.429c0.4-0.403,0.874-0.722,1.422-0.953c0.548-0.232,1.143-0.349,1.782-0.349
			s1.233,0.116,1.782,0.349c0.547,0.231,1.021,0.55,1.422,0.953c0.4,0.404,0.714,0.881,0.941,1.429
			c0.229,0.548,0.342,1.134,0.342,1.758s-0.113,1.21-0.342,1.758c-0.228,0.548-0.541,1.024-0.941,1.428
			c-0.4,0.404-0.875,0.723-1.422,0.954C381.857,378.883,381.263,378.999,380.624,378.999z M380.624,377.463
			c0.399,0,0.774-0.072,1.122-0.216c0.348-0.145,0.652-0.345,0.912-0.601s0.463-0.565,0.611-0.93s0.223-0.766,0.223-1.206
			s-0.074-0.842-0.223-1.206s-0.352-0.674-0.611-0.93s-0.564-0.456-0.912-0.601c-0.348-0.144-0.723-0.216-1.122-0.216
			c-0.4,0-0.774,0.072-1.122,0.216c-0.348,0.145-0.652,0.345-0.912,0.601s-0.464,0.565-0.611,0.93
			c-0.148,0.364-0.223,0.766-0.223,1.206s0.074,0.842,0.223,1.206c0.147,0.364,0.352,0.674,0.611,0.93s0.564,0.456,0.912,0.601
			C379.849,377.391,380.223,377.463,380.624,377.463z"/>
		<path fill="#FFFFFF" d="M386.179,372.927h1.477v0.708h0.096c0.144-0.248,0.367-0.46,0.672-0.636
			c0.304-0.176,0.68-0.265,1.128-0.265c0.376,0,0.733,0.078,1.073,0.234c0.341,0.156,0.641,0.372,0.9,0.647
			c0.26,0.276,0.467,0.606,0.618,0.99s0.228,0.804,0.228,1.26s-0.076,0.876-0.228,1.261c-0.151,0.384-0.358,0.714-0.618,0.989
			c-0.26,0.276-0.56,0.492-0.9,0.648c-0.34,0.156-0.697,0.234-1.073,0.234c-0.448,0-0.824-0.089-1.128-0.265
			c-0.305-0.176-0.528-0.388-0.672-0.636h-0.096l0.096,0.84v2.46h-1.572V372.927z M389.227,377.547c0.208,0,0.406-0.04,0.595-0.12
			c0.188-0.08,0.354-0.192,0.498-0.336c0.144-0.145,0.26-0.32,0.348-0.528s0.132-0.439,0.132-0.696c0-0.256-0.044-0.487-0.132-0.695
			s-0.204-0.384-0.348-0.528c-0.145-0.144-0.311-0.256-0.498-0.336c-0.188-0.08-0.387-0.12-0.595-0.12s-0.405,0.038-0.594,0.114
			s-0.354,0.186-0.498,0.33c-0.144,0.144-0.261,0.32-0.349,0.527c-0.088,0.209-0.131,0.444-0.131,0.708
			c0,0.265,0.043,0.501,0.131,0.708c0.088,0.209,0.205,0.385,0.349,0.528c0.144,0.145,0.31,0.254,0.498,0.33
			S389.019,377.547,389.227,377.547z"/>
		<path fill="#FFFFFF" d="M393.787,374.271h-1.031v-1.344h1.031v-1.8h1.572v1.8h1.44v1.344h-1.44v2.35
			c0,0.141,0.014,0.271,0.043,0.39c0.027,0.12,0.082,0.221,0.162,0.303c0.111,0.133,0.271,0.198,0.479,0.198
			c0.136,0,0.243-0.014,0.323-0.042s0.156-0.066,0.229-0.114l0.443,1.38c-0.184,0.088-0.381,0.154-0.594,0.198
			c-0.211,0.044-0.445,0.066-0.701,0.066c-0.297,0-0.563-0.048-0.799-0.142s-0.434-0.222-0.594-0.386
			c-0.376-0.367-0.564-0.89-0.564-1.567V374.271z"/>
		<path fill="#FFFFFF" d="M398.886,372.135c-0.135,0-0.266-0.026-0.389-0.078c-0.125-0.052-0.232-0.124-0.324-0.216
			c-0.093-0.092-0.164-0.198-0.217-0.318c-0.052-0.12-0.078-0.252-0.078-0.396c0-0.145,0.026-0.276,0.078-0.396
			c0.053-0.12,0.124-0.226,0.217-0.317c0.092-0.093,0.199-0.164,0.324-0.217c0.123-0.052,0.254-0.078,0.389-0.078
			c0.281,0,0.521,0.099,0.721,0.295c0.199,0.195,0.3,0.434,0.3,0.714s-0.101,0.518-0.3,0.714
			C399.407,372.037,399.167,372.135,398.886,372.135z M398.107,378.807v-5.88h1.572v5.88H398.107z"/>
		<path fill="#FFFFFF" d="M401.119,372.927h1.477v0.768h0.096c0.184-0.288,0.434-0.52,0.75-0.695s0.666-0.265,1.05-0.265
			c0.448,0,0.823,0.104,1.128,0.313s0.52,0.464,0.648,0.768c0.184-0.296,0.443-0.55,0.779-0.762s0.744-0.318,1.225-0.318
			c0.359,0,0.672,0.059,0.936,0.174c0.264,0.116,0.482,0.278,0.654,0.486s0.302,0.458,0.391,0.75
			c0.088,0.292,0.131,0.61,0.131,0.954v3.708h-1.572v-3.42c0-0.8-0.328-1.2-0.983-1.2c-0.208,0-0.392,0.046-0.552,0.138
			c-0.16,0.093-0.294,0.217-0.402,0.372c-0.107,0.156-0.191,0.343-0.252,0.559s-0.09,0.448-0.09,0.695v2.856h-1.572v-3.42
			c0-0.8-0.344-1.2-1.031-1.2c-0.201,0-0.377,0.046-0.528,0.138c-0.152,0.093-0.28,0.217-0.384,0.372
			c-0.104,0.156-0.185,0.343-0.24,0.559c-0.057,0.216-0.084,0.448-0.084,0.695v2.856h-1.572V372.927z"/>
		<path fill="#FFFFFF" d="M412.554,372.135c-0.135,0-0.266-0.026-0.389-0.078c-0.125-0.052-0.232-0.124-0.324-0.216
			c-0.093-0.092-0.164-0.198-0.217-0.318c-0.052-0.12-0.078-0.252-0.078-0.396c0-0.145,0.026-0.276,0.078-0.396
			c0.053-0.12,0.124-0.226,0.217-0.317c0.092-0.093,0.199-0.164,0.324-0.217c0.123-0.052,0.254-0.078,0.389-0.078
			c0.281,0,0.521,0.099,0.721,0.295c0.199,0.195,0.3,0.434,0.3,0.714s-0.101,0.518-0.3,0.714
			C413.075,372.037,412.835,372.135,412.554,372.135z M411.775,378.807v-5.88h1.572v5.88H411.775z"/>
		<path fill="#FFFFFF" d="M414.499,377.511l3-3.24h-2.903v-1.344h4.836v1.296l-3,3.24h3.047v1.344h-4.979V377.511z"/>
		<path fill="#FFFFFF" d="M424.039,378.183h-0.096c-0.184,0.224-0.406,0.416-0.666,0.576s-0.594,0.24-1.002,0.24
			c-0.305,0-0.59-0.051-0.858-0.15s-0.502-0.238-0.702-0.414c-0.199-0.176-0.355-0.388-0.468-0.636s-0.168-0.521-0.168-0.816
			c0-0.304,0.06-0.578,0.181-0.822c0.119-0.243,0.287-0.453,0.504-0.63c0.215-0.176,0.469-0.31,0.762-0.401
			c0.291-0.092,0.609-0.139,0.953-0.139c0.385,0,0.701,0.03,0.949,0.091c0.247,0.06,0.451,0.122,0.611,0.186v-0.18
			c0-0.313-0.124-0.57-0.372-0.774s-0.556-0.306-0.924-0.306c-0.544,0-1.004,0.228-1.38,0.684l-1.141-0.78
			c0.625-0.783,1.477-1.176,2.557-1.176c0.912,0,1.607,0.215,2.088,0.643s0.721,1.062,0.721,1.901v3.528h-1.549V378.183z
			 M424.039,376.419c-0.184-0.088-0.374-0.158-0.57-0.21c-0.195-0.053-0.41-0.078-0.642-0.078c-0.376,0-0.666,0.082-0.87,0.246
			s-0.306,0.365-0.306,0.605s0.098,0.433,0.294,0.576c0.195,0.145,0.422,0.216,0.678,0.216c0.208,0,0.4-0.038,0.576-0.114
			c0.176-0.075,0.326-0.176,0.449-0.3c0.125-0.124,0.221-0.268,0.289-0.432C424.004,376.765,424.039,376.595,424.039,376.419z"/>
		<path fill="#FFFFFF" d="M427.363,374.271h-1.032v-1.344h1.032v-1.8h1.572v1.8h1.439v1.344h-1.439v2.35
			c0,0.141,0.014,0.271,0.041,0.39c0.028,0.12,0.082,0.221,0.162,0.303c0.112,0.133,0.271,0.198,0.48,0.198
			c0.136,0,0.244-0.014,0.324-0.042s0.156-0.066,0.228-0.114l0.444,1.38c-0.185,0.088-0.383,0.154-0.594,0.198
			c-0.213,0.044-0.447,0.066-0.703,0.066c-0.295,0-0.562-0.048-0.797-0.142c-0.236-0.094-0.435-0.222-0.595-0.386
			c-0.376-0.367-0.563-0.89-0.563-1.567V374.271z"/>
		<path fill="#FFFFFF" d="M432.462,372.135c-0.137,0-0.267-0.026-0.391-0.078s-0.232-0.124-0.324-0.216s-0.164-0.198-0.215-0.318
			c-0.053-0.12-0.078-0.252-0.078-0.396c0-0.145,0.025-0.276,0.078-0.396c0.051-0.12,0.123-0.226,0.215-0.317
			c0.092-0.093,0.2-0.164,0.324-0.217c0.124-0.052,0.254-0.078,0.391-0.078c0.279,0,0.52,0.099,0.72,0.295
			c0.2,0.195,0.3,0.434,0.3,0.714s-0.1,0.518-0.3,0.714S432.742,372.135,432.462,372.135z M431.682,378.807v-5.88h1.571v5.88
			H431.682z"/>
		<path fill="#FFFFFF" d="M437.417,372.735c0.457,0,0.875,0.078,1.254,0.234c0.381,0.156,0.709,0.372,0.984,0.647
			c0.276,0.276,0.492,0.606,0.648,0.99s0.234,0.804,0.234,1.26s-0.078,0.876-0.234,1.261c-0.156,0.384-0.372,0.714-0.648,0.989
			c-0.275,0.276-0.604,0.492-0.984,0.648c-0.379,0.156-0.797,0.234-1.254,0.234c-0.455,0-0.873-0.078-1.254-0.234
			c-0.38-0.156-0.707-0.372-0.984-0.648c-0.275-0.275-0.491-0.605-0.647-0.989c-0.155-0.385-0.233-0.805-0.233-1.261
			s0.078-0.876,0.233-1.26c0.156-0.384,0.372-0.714,0.647-0.99c0.277-0.275,0.604-0.491,0.984-0.647
			C436.544,372.813,436.962,372.735,437.417,372.735z M437.417,377.547c0.2,0,0.395-0.038,0.582-0.114
			c0.188-0.076,0.354-0.186,0.498-0.33c0.145-0.144,0.258-0.319,0.342-0.528c0.084-0.207,0.127-0.443,0.127-0.708
			c0-0.264-0.043-0.499-0.127-0.708c-0.084-0.207-0.197-0.384-0.342-0.527c-0.144-0.145-0.31-0.254-0.498-0.33
			c-0.188-0.076-0.382-0.114-0.582-0.114c-0.207,0-0.404,0.038-0.588,0.114s-0.348,0.186-0.492,0.33
			c-0.144,0.144-0.258,0.32-0.342,0.527c-0.084,0.209-0.125,0.444-0.125,0.708c0,0.265,0.041,0.501,0.125,0.708
			c0.084,0.209,0.198,0.385,0.342,0.528c0.145,0.145,0.309,0.254,0.492,0.33S437.21,377.547,437.417,377.547z"/>
		<path fill="#FFFFFF" d="M442.902,373.695h0.096c0.184-0.296,0.432-0.529,0.744-0.702c0.313-0.172,0.668-0.258,1.068-0.258
			c0.367,0,0.691,0.061,0.972,0.181c0.28,0.119,0.511,0.29,0.69,0.51s0.316,0.484,0.408,0.792s0.138,0.65,0.138,1.025v3.564h-1.572
			v-3.372c0-0.424-0.095-0.738-0.282-0.942c-0.188-0.203-0.461-0.306-0.822-0.306c-0.215,0-0.406,0.046-0.569,0.138
			c-0.164,0.093-0.304,0.217-0.42,0.372c-0.116,0.156-0.204,0.341-0.265,0.553c-0.06,0.212-0.09,0.438-0.09,0.678v2.88h-1.572v-5.88
			h1.477V373.695z"/>
	</g>
	<g>
		<path fill="#945C87" stroke="#945C87" stroke-width="0.1" stroke-miterlimit="10" d="M343.112,274.173h-28.12
			c-1.191,0-2.16,0.969-2.16,2.159v18.518c0,1.192,0.969,2.159,2.16,2.159h10.646l-0.115,0.323
			c-0.241,0.681-0.694,1.658-1.483,2.448c-0.229,0.226-0.295,0.562-0.172,0.857c0.123,0.295,0.407,0.484,0.727,0.484h8.916
			c0.435,0,0.787-0.353,0.787-0.787c0-0.256-0.125-0.498-0.338-0.646c-0.754-0.8-1.174-1.721-1.399-2.356l-0.114-0.323h10.668
			c1.191,0,2.159-0.967,2.159-2.159v-18.518C345.271,275.142,344.304,274.173,343.112,274.173z M326.214,299.55l0.197-0.357
			c0.426-0.774,0.674-1.519,0.807-2.005l0.048-0.179h3.546l0.051,0.178c0.133,0.487,0.385,1.232,0.807,2.006l0.195,0.357H326.214
			L326.214,299.55z M343.697,294.85c0,0.323-0.263,0.586-0.585,0.586h-28.12c-0.322,0-0.584-0.263-0.584-0.586v-2.642h29.288
			L343.697,294.85L343.697,294.85z M343.697,290.633h-29.289v-14.301c0-0.322,0.262-0.585,0.584-0.585h28.121
			c0.321,0,0.584,0.263,0.584,0.585V290.633z"/>
		<path fill="#945C87" stroke="#945C87" stroke-width="0.1" stroke-miterlimit="10" d="M334.107,280.62
			c-0.148-0.176-0.369-0.274-0.6-0.274c-0.188,0-0.369,0.066-0.512,0.188c-0.162,0.139-0.258,0.329-0.272,0.54
			c-0.015,0.209,0.051,0.412,0.188,0.57l1.618,1.889l-1.618,1.89c-0.281,0.328-0.242,0.825,0.088,1.109
			c0.315,0.271,0.834,0.231,1.107-0.085l2.059-2.401c0.254-0.296,0.254-0.729,0-1.025L334.107,280.62z"/>
		<path fill="#945C87" stroke="#945C87" stroke-width="0.1" stroke-miterlimit="10" d="M323.574,283.532l1.617-1.887
			c0.137-0.159,0.203-0.363,0.188-0.572c-0.017-0.21-0.111-0.399-0.273-0.538c-0.143-0.123-0.325-0.19-0.514-0.19
			c-0.229,0-0.447,0.1-0.596,0.274l-2.06,2.399c-0.253,0.298-0.253,0.73,0,1.025l2.058,2.4c0.273,0.316,0.789,0.358,1.114,0.083
			c0.328-0.28,0.366-0.778,0.084-1.106L323.574,283.532z"/>
		<path fill="#945C87" stroke="#945C87" stroke-width="0.1" stroke-miterlimit="10" d="M330.255,278.309
			c-0.055-0.013-0.113-0.019-0.172-0.019c-0.371,0-0.689,0.25-0.771,0.608l-2.06,8.916c-0.045,0.205-0.01,0.416,0.102,0.596
			c0.111,0.178,0.285,0.302,0.49,0.348c0.395,0.096,0.849-0.169,0.943-0.591l2.059-8.916c0.046-0.205,0.011-0.416-0.102-0.596
			C330.634,278.477,330.46,278.354,330.255,278.309z"/>
	</g>
	<path fill="#945C87" d="M345.75,204.328l-5.584-6.057c-0.246-0.267-0.66-0.349-0.99-0.193c-0.338,0.157-0.532,0.514-0.485,0.887
		c0.12,0.905-0.212,1.817-0.888,2.439c-0.52,0.479-1.193,0.742-1.901,0.742c-0.782,0-1.534-0.329-2.065-0.901
		c-1.047-1.139-0.977-2.917,0.16-3.968c0.525-0.482,1.205-0.749,1.916-0.749c0.198,0,0.396,0.021,0.592,0.063
		c0.354,0.078,0.74-0.094,0.922-0.413c0.186-0.326,0.14-0.729-0.114-1.003l-5.582-6.055c-0.308-0.335-0.873-0.356-1.209-0.051
		l-4.698,4.333c-0.183-0.733-0.549-1.412-1.064-1.972c-0.851-0.924-2.063-1.454-3.322-1.454c-1.139,0-2.225,0.424-3.061,1.194
		c-1.832,1.689-1.947,4.554-0.258,6.386c0.514,0.558,1.159,0.977,1.877,1.218l-4.688,4.325c-0.17,0.155-0.268,0.366-0.275,0.594
		c-0.01,0.229,0.071,0.447,0.227,0.614l10.865,11.802c0.31,0.335,0.875,0.357,1.209,0.05c0.168-0.155,0.266-0.366,0.273-0.596
		c0.01-0.228-0.07-0.444-0.227-0.611l-10.285-11.175l5.459-5.032c0.275-0.257,0.353-0.656,0.191-0.998
		c-0.16-0.332-0.521-0.526-0.896-0.478c-0.907,0.133-1.852-0.199-2.475-0.875c-0.508-0.551-0.771-1.267-0.74-2.017
		c0.029-0.75,0.351-1.443,0.902-1.95c0.52-0.479,1.193-0.742,1.899-0.742c0.782,0,1.536,0.329,2.065,0.903
		c0.629,0.681,0.881,1.629,0.672,2.536c-0.086,0.369,0.076,0.743,0.402,0.931c0.316,0.185,0.739,0.138,1.01-0.109l5.465-5.039
		l3.736,4.052c-0.725,0.186-1.395,0.55-1.947,1.059c-1.832,1.689-1.949,4.553-0.26,6.385c0.853,0.925,2.063,1.454,3.323,1.454
		c1.14,0,2.228-0.424,3.063-1.194c0.551-0.512,0.967-1.15,1.211-1.857l3.736,4.052l-13.957,12.871l-2.947-3.195
		c-0.309-0.332-0.875-0.354-1.209-0.048c-0.346,0.319-0.367,0.861-0.049,1.208l3.526,3.822c0.162,0.177,0.392,0.277,0.63,0.277
		c0.215,0,0.422-0.08,0.578-0.228l15.215-14.03c0.17-0.156,0.268-0.367,0.276-0.597C345.985,204.714,345.904,204.496,345.75,204.328
		z"/>
	<g>
		<g>
			<path fill="#945C87" d="M345.328,112.989h-2.221l-0.093-0.191c-2.306-4.802-7.029-8.083-12.331-8.56l-0.039-0.006
				c-0.1-0.023-0.184-0.029-0.266-0.021l-0.037,0.002c-0.355-0.024-0.697-0.036-1.032-0.036c-5.901,0-11.153,3.303-13.705,8.621
				l-0.092,0.191h-2.222c-1.369,0-2.48,1.114-2.48,2.482v7.807c0,1.368,1.111,2.482,2.48,2.482h2.222l0.092,0.193
				c2.515,5.235,7.896,8.619,13.705,8.619c0.403,0,0.81-0.017,1.208-0.048c5.386-0.432,10.166-3.716,12.498-8.572l0.092-0.192h2.221
				c1.369,0,2.481-1.114,2.481-2.482v-7.807C347.81,114.103,346.697,112.989,345.328,112.989z M333.279,106.289
				c3.313,1.001,6.096,3.199,7.84,6.188l0.297,0.511h-5.312l-0.083-0.224c-0.736-2.059-1.786-4.062-3.118-5.956l-0.565-0.806
				L333.279,106.289z M330.074,105.651l0.604,0.746c0.855,1.059,2.466,3.26,3.617,6.125l0.188,0.466h-4.409V105.651z
				 M328.546,105.69v7.299h-4.401l0.188-0.467c1.147-2.833,2.754-5.028,3.608-6.085L328.546,105.69z M317.5,112.478
				c1.75-3,4.545-5.201,7.871-6.199l0.944-0.282l-0.569,0.805c-1.322,1.869-2.408,3.931-3.141,5.963l-0.081,0.225h-5.321
				L317.5,112.478z M325.382,132.472c-3.329-0.996-6.129-3.198-7.881-6.201l-0.297-0.511h5.336l0.082,0.224
				c0.928,2.567,2.217,4.662,3.137,5.968l0.564,0.802L325.382,132.472z M328.546,133.061l-0.604-0.752
				c-0.846-1.05-2.437-3.236-3.59-6.081l-0.188-0.468h4.385v7.301H328.546z M330.074,133.081v-7.321h4.387l-0.19,0.467
				c-1.147,2.839-2.742,5.04-3.591,6.099L330.074,133.081z M341.119,126.271c-1.748,2.999-4.543,5.2-7.867,6.198l-0.938,0.281
				l0.562-0.804c1.332-1.899,2.383-3.906,3.123-5.963l0.082-0.225h5.336L341.119,126.271z M346.283,123.278
				c0,0.526-0.429,0.954-0.955,0.954h-32.035c-0.526,0-0.955-0.428-0.955-0.954v-7.807c0-0.526,0.429-0.954,0.955-0.954h32.035
				c0.526,0,0.955,0.428,0.955,0.954V123.278z"/>
		</g>
		<path fill="#945C87" d="M323.707,116.655c-0.271-0.147-0.539-0.224-0.793-0.224c-0.313,0-0.396,0.132-0.429,0.231l-1.206,3.441
			l-0.881-2.96c-0.063-0.204-0.236-0.303-0.54-0.303c-0.303,0-0.478,0.099-0.54,0.303l-0.88,2.96l-1.206-3.439
			c-0.02-0.06-0.078-0.233-0.441-0.233c-0.256,0-0.521,0.073-0.793,0.219c-0.25,0.135-0.377,0.287-0.377,0.454
			c0,0.036,0.01,0.106,0.057,0.226l1.912,4.78c0.074,0.183,0.289,0.274,0.643,0.274c0.407,0,0.646-0.091,0.715-0.271l0.912-2.403
			l0.911,2.402c0.065,0.182,0.303,0.271,0.704,0.271c0.359,0,0.578-0.092,0.654-0.274l1.914-4.786v-0.003
			c0.026-0.053,0.041-0.117,0.041-0.191C324.083,116.95,323.958,116.795,323.707,116.655z"/>
		<path fill="#945C87" d="M333.169,116.655c-0.271-0.147-0.537-0.224-0.791-0.224c-0.314,0-0.396,0.132-0.428,0.231l-1.207,3.441
			l-0.882-2.96c-0.062-0.204-0.237-0.303-0.54-0.303c-0.302,0-0.479,0.099-0.537,0.303l-0.884,2.96l-1.205-3.439
			c-0.021-0.06-0.077-0.233-0.44-0.233c-0.256,0-0.522,0.073-0.791,0.219c-0.252,0.135-0.377,0.287-0.377,0.454
			c0,0.037,0.009,0.106,0.056,0.226l1.911,4.78c0.074,0.183,0.29,0.274,0.643,0.274c0.406,0,0.647-0.091,0.715-0.271l0.912-2.403
			l0.912,2.402c0.064,0.182,0.303,0.271,0.702,0.271c0.36,0,0.58-0.092,0.653-0.275l1.914-4.785l0.002-0.003
			c0.025-0.053,0.039-0.117,0.039-0.191C333.546,116.95,333.423,116.795,333.169,116.655z"/>
		<path fill="#945C87" d="M342.632,116.655c-0.268-0.147-0.534-0.224-0.789-0.224c-0.315,0-0.396,0.132-0.428,0.231l-1.207,3.441
			l-0.883-2.96c-0.061-0.204-0.236-0.303-0.539-0.303c-0.302,0-0.479,0.099-0.539,0.303l-0.881,2.96l-1.205-3.439
			c-0.021-0.06-0.078-0.233-0.441-0.233c-0.256,0-0.521,0.073-0.793,0.219c-0.25,0.135-0.377,0.287-0.377,0.454
			c0,0.037,0.011,0.106,0.056,0.226l1.913,4.78c0.072,0.183,0.29,0.274,0.641,0.274c0.409,0,0.65-0.091,0.717-0.271l0.912-2.403
			l0.912,2.402c0.065,0.182,0.303,0.271,0.701,0.271c0.359,0,0.581-0.092,0.654-0.274l1.914-4.786l0.002-0.003
			c0.025-0.053,0.039-0.117,0.039-0.191C343.011,116.95,342.888,116.795,342.632,116.655z"/>
	</g>
	<g>
		<path fill="#945C87" d="M312.335,369.882c0,9.098,7.401,16.5,16.5,16.5c9.098,0,16.5-7.402,16.5-16.5
			c0-9.099-7.402-16.5-16.5-16.5C319.737,353.382,312.335,360.783,312.335,369.882z M319.044,381.068l0.109-0.123
			c2.452-2.75,5.98-4.327,9.682-4.327s7.229,1.577,9.681,4.327l0.11,0.123l-0.127,0.108c-2.691,2.308-6.125,3.578-9.664,3.578
			c-3.541,0-6.974-1.271-9.666-3.578L319.044,381.068z M337.85,369.068v1.627h1.923l-0.016,0.178
			c-0.217,2.383-1.211,4.659-2.805,6.413l-0.093,0.104l-0.116-0.075c-2.359-1.52-5.095-2.322-7.908-2.322
			c-2.814,0-5.549,0.804-7.909,2.322l-0.116,0.075l-0.093-0.104c-1.593-1.754-2.589-4.03-2.804-6.414l-0.017-0.178h1.923v-1.626
			h-1.924l0.018-0.178c0.199-2.224,1.063-4.309,2.502-6.027l0.113-0.137l1.338,1.337l1.149-1.15l-1.337-1.338l0.137-0.112
			c1.721-1.438,3.805-2.303,6.027-2.503l0.178-0.017v1.924h1.627v-1.924l0.178,0.017c2.224,0.2,4.309,1.065,6.027,2.503l0.137,0.112
			l-1.336,1.338l1.149,1.15l1.338-1.337l0.112,0.137c1.438,1.72,2.303,3.806,2.503,6.027l0.017,0.178H337.85z M313.962,369.882
			c0-8.201,6.672-14.873,14.873-14.873s14.873,6.672,14.873,14.873c0,3.659-1.35,7.181-3.797,9.913l-0.121,0.135l-0.121-0.135
			c-0.42-0.466-0.881-0.911-1.367-1.326l-0.127-0.107l0.109-0.124c2.027-2.305,3.145-5.271,3.145-8.354
			c0-6.944-5.649-12.596-12.594-12.596c-6.945,0-12.596,5.65-12.596,12.596c0,3.084,1.117,6.051,3.146,8.354l0.109,0.124
			l-0.127,0.107c-0.488,0.415-0.949,0.86-1.369,1.326l-0.121,0.135l-0.121-0.135C315.311,377.063,313.962,373.541,313.962,369.882z"
			/>
		<rect x="326.068" y="378.896" fill="#945C87" width="5.533" height="1.627"/>
		<path fill="#945C87" d="M331.224,371.278l3.154-6.939l-6.939,3.154l-0.042,0.025c-0.831,0.507-1.328,1.391-1.328,2.363
			c0,1.524,1.241,2.767,2.767,2.767c0.974,0,1.856-0.497,2.363-1.328L331.224,371.278z M331.102,367.615l-1.312,2.882l-0.013,0.024
			c-0.213,0.313-0.565,0.499-0.942,0.499c-0.629,0-1.14-0.511-1.14-1.139c0-0.378,0.187-0.73,0.499-0.943L331.102,367.615z"/>
	</g>
	<g>
		<g>
			<path fill="none" d="M333.837,49.333h9.932V37.79h-9.932V49.333z M335.08,39.726c0-0.343,0.277-0.621,0.621-0.621h6.207
				c0.342,0,0.619,0.278,0.619,0.621v2.482c0,0.343-0.277,0.621-0.619,0.621h-6.207c-0.344,0-0.621-0.278-0.621-0.621V39.726
				L335.08,39.726z M335.08,44.716c0-0.343,0.277-0.621,0.621-0.621h6.207c0.342,0,0.619,0.278,0.619,0.621v2.482
				c0,0.344-0.277,0.621-0.619,0.621h-6.207c-0.344,0-0.621-0.277-0.621-0.621V44.716L335.08,44.716z"/>
			<rect x="336.32" y="45.336" fill="none" width="4.967" height="1.241"/>
			<path fill="none" d="M343.148,35.308h-8.689c-0.342,0-0.621,0.278-0.621,0.621v0.621h9.932v-0.621
				C343.769,35.586,343.49,35.308,343.148,35.308z"/>
			<rect x="336.32" y="40.346" fill="none" width="4.967" height="1.241"/>
			<path fill="none" d="M332.598,46.852h-6.991c-0.234,1.861-1.514,3.447-3.327,4.053l-0.356,0.118v0.794h10.781
				c-0.068-0.192-0.105-0.402-0.105-0.62L332.598,46.852L332.598,46.852z"/>
			<rect x="318.063" y="34.37" fill="none" width="3.989" height="2.838"/>
			<path fill="none" d="M343.148,22.522h-28.055c-0.342,0-0.619,0.278-0.619,0.621v17.315h18.123v-4.53
				c0-1.026,0.835-1.862,1.861-1.862h8.688c0.218,0,0.427,0.038,0.62,0.107v-11.03C343.769,22.801,343.49,22.522,343.148,22.522z
				 M323.294,37.829c0,0.343-0.278,0.621-0.621,0.621h-5.23c-0.343,0-0.619-0.278-0.619-0.621V33.75
				c0-0.344,0.276-0.621,0.619-0.621h5.23c0.343,0,0.621,0.276,0.621,0.621V37.829z M331.472,37.829c0,0.343-0.278,0.621-0.62,0.621
				h-5.231c-0.343,0-0.619-0.278-0.619-0.621V33.75c0-0.344,0.276-0.621,0.619-0.621h5.231c0.342,0,0.62,0.276,0.62,0.621V37.829z
				 M341.058,30.469c0,0.343-0.277,0.621-0.622,0.621h-23.087c-0.344,0-0.62-0.277-0.62-0.621v-4.886c0-0.342,0.276-0.62,0.62-0.62
				h23.087c0.345,0,0.622,0.278,0.622,0.62V30.469z"/>
			<rect x="317.97" y="26.204" fill="none" width="21.846" height="3.645"/>
			<rect x="326.24" y="34.37" fill="none" width="3.99" height="2.838"/>
			<path fill="#945C87" d="M340.436,24.963h-23.087c-0.344,0-0.62,0.278-0.62,0.62v4.886c0,0.343,0.276,0.621,0.62,0.621h23.087
				c0.345,0,0.622-0.277,0.622-0.621v-4.886C341.058,25.241,340.779,24.963,340.436,24.963z M339.815,29.848H317.97v-3.645h21.846
				L339.815,29.848L339.815,29.848z"/>
			<path fill="#945C87" d="M329.083,44.369c0.344,0,0.621-0.278,0.621-0.621c0-0.344-0.277-0.62-0.621-0.62h-1.239
				c-0.345,0-0.621,0.276-0.621,0.62c0,0.343,0.276,0.621,0.621,0.621H329.083z"/>
			<path fill="#945C87" d="M322.673,33.129h-5.23c-0.343,0-0.619,0.276-0.619,0.621v4.079c0,0.343,0.276,0.621,0.619,0.621h5.23
				c0.343,0,0.621-0.278,0.621-0.621V33.75C323.294,33.406,323.016,33.129,322.673,33.129z M322.053,37.208h-3.99V34.37h3.99V37.208
				z"/>
			<path fill="#945C87" d="M330.852,33.129h-5.231c-0.343,0-0.619,0.276-0.619,0.621v4.079c0,0.343,0.276,0.621,0.619,0.621h5.231
				c0.342,0,0.62-0.278,0.62-0.621V33.75C331.472,33.406,331.193,33.129,330.852,33.129z M330.23,37.208h-3.99V34.37h3.99V37.208z"
				/>
			<path fill="#945C87" d="M335.701,47.82h6.207c0.342,0,0.619-0.277,0.619-0.621v-2.482c0-0.343-0.277-0.621-0.619-0.621h-6.207
				c-0.344,0-0.621,0.278-0.621,0.621v2.482C335.08,47.542,335.357,47.82,335.701,47.82z M336.32,45.336h4.967v1.241h-4.967V45.336z
				"/>
			<path fill="#945C87" d="M335.701,42.83h6.207c0.342,0,0.619-0.278,0.619-0.621v-2.482c0-0.343-0.277-0.621-0.619-0.621h-6.207
				c-0.344,0-0.621,0.278-0.621,0.621v2.482C335.08,42.552,335.357,42.83,335.701,42.83z M336.32,40.346h4.967v1.241h-4.967V40.346z
				"/>
		</g>
		<g>
			<g>
				<path fill="#945C87" d="M343.146,21.281h-28.051c-1.025,0-1.861,0.836-1.861,1.861v21.845c0,1.027,0.836,1.862,1.861,1.862
					h9.257c-0.226,1.325-1.16,2.44-2.468,2.876l-0.779,0.259c-0.254,0.084-0.424,0.322-0.424,0.589v1.861
					c0,0.343,0.277,0.621,0.619,0.621h13.158h8.688c1.025,0,1.861-0.835,1.861-1.862V35.928V23.144
					C345.009,22.117,344.173,21.281,343.146,21.281z M315.096,45.609c-0.343,0-0.62-0.277-0.62-0.621V41.7h18.121v3.908H315.096z
					 M321.921,51.815v-0.793l0.357-0.119c1.814-0.604,3.094-2.189,3.327-4.053h6.99v4.344c0,0.219,0.038,0.429,0.106,0.621H321.921z
					 M343.768,51.194c0,0.343-0.278,0.621-0.621,0.621h-8.688c-0.342,0-0.619-0.278-0.619-0.621v-0.62h9.929V51.194z
					 M343.768,49.333h-9.929V37.79h9.929V49.333z M343.768,36.549h-9.929v-0.621c0-0.342,0.277-0.62,0.619-0.62h8.688
					c0.343,0,0.621,0.278,0.621,0.62V36.549z M343.768,34.173c-0.192-0.069-0.403-0.107-0.621-0.107h-8.688
					c-1.026,0-1.861,0.836-1.861,1.862v4.531h-18.121V23.144c0-0.342,0.277-0.62,0.62-0.62h28.051c0.343,0,0.621,0.278,0.621,0.62
					V34.173z"/>
			</g>
		</g>
	</g>
</g>
</svg>
