<?xml version="1.0" encoding="utf-8"?>
<!-- Generator: Adobe Illustrator 16.0.0, SVG Export Plug-In . SVG Version: 6.00 Build 0)  -->
<!DOCTYPE svg PUBLIC "-//W3C//DTD SVG 1.1//EN" "http://www.w3.org/Graphics/SVG/1.1/DTD/svg11.dtd">
<svg version="1.1" id="Layer_1" xmlns="http://www.w3.org/2000/svg" xmlns:xlink="http://www.w3.org/1999/xlink" x="0px" y="0px"
	 width="200px" height="200px" viewBox="0 0 200 200" enable-background="new 0 0 200 200" xml:space="preserve">
<g>
	<path fill="#FFFFFF" d="M100,195c-52.383,0-95-42.617-95-95C5,47.617,47.617,5,100,5s95,42.617,95,95
		C195,152.382,152.383,195,100,195z"/>
	<path fill="#F3F3F3" d="M100,10c49.626,0,90,40.374,90,90c0,49.625-40.374,90-90,90s-90-40.375-90-90C10,50.374,50.374,10,100,10
		 M100,0C44.771,0,0,44.771,0,100c0,55.228,44.771,100,100,100c55.229,0,100-44.771,100-100C200,44.771,155.229,0,100,0L100,0z"/>
</g>
<circle fill="#02AF8E" cx="99.763" cy="100.117" r="68.275"/>
<circle fill="#FFFFFF" cx="99.493" cy="99.138" r="55.349"/>
<path fill="#445EA0" d="M133.038,101.801c-1.471,0-2.662-1.191-2.662-2.662c0-6.684-2.134-12.876-5.756-17.936h-0.003
	c-3.485-4.872-8.354-8.69-14.023-10.882l0,0c-3.447-1.332-7.188-2.064-11.101-2.064c-3.896,0-7.624,0.726-11.059,2.049v-0.001
	c-5.68,2.185-10.555,6.002-14.05,10.874v0.001c-3.632,5.063-5.772,11.266-5.772,17.959c0,1.469-1.193,2.662-2.664,2.662h-11.9
	c-0.05-0.881-0.08-1.769-0.08-2.662c0,25.143,20.382,45.524,45.525,45.524c24.247,0,44.065-18.96,45.443-42.862H133.038
	L133.038,101.801z"/>
<g>
	<path fill="#FF9518" d="M74.384,81.18l-11.629-8.923c0,0,0,0,0-0.001c-5.523,7.534-8.786,16.827-8.786,26.884
		c0,0.893,0.028,1.781,0.08,2.662h11.899c1.471,0,2.664-1.191,2.664-2.662C68.612,92.446,70.753,86.244,74.384,81.18L74.384,81.18z"
		/>
	<path fill="#FF9518" d="M136.248,72.28L136.248,72.28l-11.628,8.923c3.622,5.06,5.756,11.252,5.756,17.936
		c0,1.47,1.191,2.662,2.662,2.662h11.9c0.051-0.881,0.08-1.769,0.08-2.662C145.019,89.093,141.762,79.809,136.248,72.28z"/>
</g>
<g>
	<path fill="#FFAF10" d="M83.381,56.552C83.381,56.551,83.381,56.551,83.381,56.552c-8.311,3.145-15.458,8.654-20.626,15.705
		l11.629,8.923c3.495-4.872,8.371-8.689,14.05-10.875L83.381,56.552z"/>
	<path fill="#FFAF10" d="M115.647,56.567c0,0,0,0.001,0,0.001l-5.054,13.753c5.67,2.192,10.538,6.011,14.023,10.882l11.631-8.923
		C131.088,65.23,123.948,59.719,115.647,56.567z"/>
</g>
<path fill="#FFD00D" d="M115.647,56.568c-5.021-1.905-10.465-2.953-16.154-2.953c-5.673,0-11.102,1.041-16.111,2.937l5.055,13.754
	c3.435-1.322,7.161-2.049,11.057-2.049c3.912,0,7.653,0.732,11.101,2.065L115.647,56.568z"/>
<path fill="#D9EAFC" d="M49.674,99.14c0-29.641,23.301-53.839,52.585-55.28c-0.916-0.045-1.838-0.069-2.766-0.069
	c-30.567,0-55.349,24.781-55.349,55.349c0,30.569,24.782,55.347,55.349,55.347c0.927,0,1.85-0.022,2.766-0.068
	C72.975,152.978,49.674,128.781,49.674,99.14z"/>
<path fill="#293D7C" d="M59.578,101.801h-5.531c1.379,23.905,21.198,42.862,45.446,42.862c0.929,0,1.851-0.029,2.766-0.086
	C79.284,143.203,60.904,124.791,59.578,101.801z"/>
<path fill="#FF9518" d="M117.654,101.23c-1.155,0-2.092-0.936-2.092-2.09c0-8.861-7.208-16.071-16.069-16.071
	c-8.861,0-16.071,7.209-16.071,16.071c0,1.154-0.935,2.09-2.089,2.09c-1.154,0-2.09-0.936-2.09-2.09
	c0-11.166,9.084-20.251,20.251-20.251s20.249,9.085,20.249,20.251C119.742,100.294,118.808,101.23,117.654,101.23z"/>
<path fill="#91E0E8" d="M92.808,125.714c0,0.459-0.377,0.834-0.837,0.834H83.55c-0.46,0-0.836-0.375-0.836-0.834v-8.421
	c0-0.461,0.376-0.838,0.836-0.838h8.421c0.46,0,0.837,0.377,0.837,0.838V125.714z"/>
<path id="SVGCleanerId_0" fill="#91E0E8" d="M104.538,125.714c0,0.459-0.375,0.834-0.834,0.834h-8.421
	c-0.46,0-0.836-0.375-0.836-0.834v-8.421c0-0.461,0.376-0.838,0.836-0.838h8.421c0.459,0,0.834,0.377,0.834,0.838V125.714z"/>
<path id="SVGCleanerId_1" fill="#FFFFFF" d="M116.271,125.714c0,0.459-0.376,0.834-0.834,0.834h-8.421
	c-0.459,0-0.835-0.375-0.835-0.834v-8.421c0-0.461,0.376-0.838,0.835-0.838h8.421c0.458,0,0.834,0.377,0.834,0.838V125.714z"/>
<path fill="#5DC1D8" d="M92.808,125.714c0,0.459-0.377,0.834-0.837,0.834H83.55c-0.46,0-0.836-0.375-0.836-0.834v-8.421
	c0-0.461,0.376-0.838,0.836-0.838h8.421c0.46,0,0.837,0.377,0.837,0.838V125.714z"/>
<g>
	<path id="SVGCleanerId_0_1_" fill="#91E0E8" d="M104.538,125.714c0,0.459-0.375,0.834-0.834,0.834h-8.421
		c-0.46,0-0.836-0.375-0.836-0.834v-8.421c0-0.461,0.376-0.838,0.836-0.838h8.421c0.459,0,0.834,0.377,0.834,0.838V125.714z"/>
</g>
<g>
	<path id="SVGCleanerId_1_1_" fill="#FFFFFF" d="M116.271,125.714c0,0.459-0.376,0.834-0.834,0.834h-8.421
		c-0.459,0-0.835-0.375-0.835-0.834v-8.421c0-0.461,0.376-0.838,0.835-0.838h8.421c0.458,0,0.834,0.377,0.834,0.838V125.714z"/>
</g>
<path fill="#FE3745" d="M92.726,102.328c-1.759-3.732-0.152-8.198,3.58-9.957c0.204-0.097,0.416-0.184,0.646-0.267
	c0.018-0.006,0.031-0.01,0.047-0.014l36.834-9.705c0.249-0.066,0.506,0.057,0.616,0.289c0.108,0.232,0.039,0.51-0.172,0.658
	l-30.937,22.222c-0.015,0.01-0.026,0.019-0.041,0.026c-0.212,0.124-0.413,0.231-0.618,0.329
	C98.95,107.666,94.483,106.061,92.726,102.328z"/>
<g>
	<path fill="#B7092B" d="M96.305,94.557c0.204-0.096,0.416-0.185,0.646-0.268c0.018-0.005,0.031-0.012,0.047-0.014l34.814-9.172
		l2.465-1.771c0.209-0.149,0.28-0.427,0.172-0.659c-0.11-0.232-0.367-0.353-0.616-0.288L96.998,92.09
		c-0.016,0.004-0.029,0.008-0.047,0.014c-0.229,0.083-0.441,0.172-0.646,0.267c-3.055,1.439-4.683,4.691-4.211,7.871
		C92.448,97.846,93.955,95.664,96.305,94.557z"/>
	<circle fill="#B7092B" cx="99.493" cy="99.139" r="3.754"/>
</g>
<path fill="#FF9518" d="M135.503,53.549c-0.791,0-1.434-0.641-1.434-1.434V41.001h-4.803c-0.544,0-1.044-0.311-1.286-0.8
	s-0.182-1.074,0.147-1.507l9.54-12.422c0.27-0.353,0.69-0.56,1.136-0.56l0,0c0.445,0,0.866,0.207,1.138,0.56l9.54,12.422
	c0.33,0.433,0.391,1.017,0.147,1.507c-0.242,0.49-0.738,0.8-1.285,0.8h-4.804v11.114c0,0.793-0.64,1.434-1.434,1.434H135.503z"/>
<path fill="#EF8318" d="M137.205,39.259c0-0.77-0.624-1.394-1.396-1.394h-7.044l-0.638,0.828c-0.329,0.433-0.39,1.018-0.147,1.507
	s0.742,0.8,1.286,0.8h4.803v11.114c0,0.793,0.643,1.434,1.434,1.434h1.702V39.259z"/>
<path fill="#FF9518" d="M156.337,74.86c-0.792,0-1.434-0.642-1.434-1.434V62.312h-4.801c-0.547,0-1.046-0.311-1.288-0.799
	c-0.24-0.491-0.183-1.075,0.15-1.508l9.537-12.421c0.272-0.354,0.692-0.561,1.139-0.561c0.444,0,0.864,0.207,1.138,0.561
	l9.537,12.421c0.333,0.433,0.391,1.018,0.15,1.508c-0.242,0.489-0.741,0.799-1.288,0.799h-4.801v11.114
	c0,0.792-0.643,1.434-1.437,1.434H156.337L156.337,74.86z"/>
<path fill="#EF8318" d="M158.04,60.57c0-0.77-0.625-1.394-1.394-1.394H149.6l-0.635,0.828c-0.333,0.433-0.391,1.018-0.15,1.508
	c0.242,0.489,0.741,0.799,1.288,0.799h4.801v11.114c0,0.792,0.644,1.434,1.436,1.434h1.701V60.57z"/>
</svg>
