<?xml version="1.0" encoding="utf-8"?>
<!-- Generator: Adobe Illustrator 16.0.0, SVG Export Plug-In . SVG Version: 6.00 Build 0)  -->
<!DOCTYPE svg PUBLIC "-//W3C//DTD SVG 1.1//EN" "http://www.w3.org/Graphics/SVG/1.1/DTD/svg11.dtd">
<svg version="1.1" id="Layer_1" xmlns="http://www.w3.org/2000/svg" xmlns:xlink="http://www.w3.org/1999/xlink" x="0px" y="0px"
	 width="200px" height="200px" viewBox="0 0 200 200" enable-background="new 0 0 200 200" xml:space="preserve">
<g>
	<path fill="#FFFFFF" d="M100,195c-52.383,0-95-42.617-95-95S47.617,5,100,5s95,42.617,95,95C195,152.382,152.383,195,100,195z"/>
	<path fill="#F3F3F3" d="M100,10c49.626,0,90,40.374,90,90c0,49.625-40.374,90-90,90s-90-40.375-90-90C10,50.374,50.374,10,100,10
		 M100,0C44.771,0,0,44.771,0,100c0,55.229,44.771,100,100,100c55.229,0,100-44.771,100-100C200,44.771,155.229,0,100,0L100,0z"/>
</g>
<g display="none">
	<circle display="inline" fill="#F1333F" cx="99.37" cy="100.319" r="68.103"/>
	<g display="inline">
		<path fill="#FFFFFF" d="M145.639,138.542c0-4.709,3.93-8.642,8.642-8.642c0.937,0,1.84,0.158,2.688,0.443V53.787H40.982v88.047
			h105.325C145.878,140.814,145.639,139.701,145.639,138.542z"/>
		<g>
			<path fill="#E0E0E0" d="M145.639,138.542c0-4.709,3.93-8.642,8.642-8.642c0.938,0,1.843,0.158,2.69,0.445V53.787H98.978v88.047
				h47.331C145.878,140.814,145.639,139.701,145.639,138.542z"/>
			<rect x="40.982" y="53.787" fill="#E0E0E0" width="115.985" height="11.329"/>
		</g>
		<rect x="98.978" y="53.787" fill="#C0C0C0" width="57.993" height="11.329"/>
		<g>
			<circle fill="#FF6838" cx="47.97" cy="59.449" r="3.14"/>
			<circle fill="#FF6838" cx="57.392" cy="59.449" r="3.14"/>
			<circle fill="#FF6838" cx="66.813" cy="59.449" r="3.14"/>
		</g>
		<path fill="#005C83" d="M149.316,109.303l4.305-4.306c-2.46-3.521-5.526-6.585-9.046-9.046l-4.304,4.304
			c-3.06-1.982-6.494-3.431-10.174-4.216V89.95c-2.078-0.367-4.216-0.56-6.397-0.56c-2.183,0-4.319,0.193-6.396,0.56v6.089
			c-3.682,0.785-7.117,2.233-10.176,4.216l-4.303-4.304c-3.521,2.461-6.586,5.525-9.047,9.044l4.305,4.308
			c-1.981,3.055-3.432,6.489-4.217,10.174H87.78c-0.368,2.076-0.56,4.213-0.56,6.396s0.191,4.319,0.56,6.396h6.088
			c0.785,3.683,2.235,7.117,4.217,10.174l-4.305,4.306c2.461,3.521,5.526,6.584,9.047,9.045l4.303-4.304
			c3.058,1.982,6.494,3.431,10.175,4.216v6.09c2.076,0.367,4.215,0.562,6.396,0.562c2.184,0,4.318-0.192,6.396-0.562v-6.09
			c3.68-0.785,7.115-2.231,10.174-4.216l4.305,4.304c3.521-2.461,6.586-5.524,9.046-9.045l-4.306-4.306
			c1.981-3.058,3.432-6.492,4.219-10.174h6.088c0.368-2.076,0.561-4.215,0.561-6.396s-0.19-4.317-0.561-6.396h-6.088
			C152.747,115.794,151.299,112.359,149.316,109.303z M123.7,139.346c-7.44,0-13.472-6.033-13.472-13.476
			c0-7.438,6.029-13.474,13.472-13.474s13.475,6.033,13.475,13.474C137.175,133.313,131.141,139.346,123.7,139.346z"/>
		<path fill="#00263F" d="M159.622,132.268c0.368-2.076,0.56-4.213,0.56-6.396s-0.189-4.317-0.56-6.396h-6.09
			c-0.785-3.683-2.233-7.117-4.216-10.174l4.305-4.306c-2.46-3.521-5.526-6.585-9.046-9.046l-4.304,4.304
			c-3.06-1.982-6.494-3.431-10.174-4.216V89.95c-2.078-0.367-4.216-0.56-6.397-0.56c-0.142,0-0.28,0.008-0.423,0.01v23.01
			c0.143-0.006,0.281-0.012,0.423-0.012c7.442,0,13.475,6.033,13.475,13.473c0,7.441-6.032,13.475-13.475,13.475
			c-0.142,0-0.28-0.008-0.423-0.012v23.01c0.143,0.002,0.281,0.01,0.423,0.01c2.184,0,4.319-0.191,6.397-0.561v-6.09
			c3.68-0.785,7.114-2.232,10.174-4.215l4.304,4.303c3.52-2.461,6.586-5.525,9.046-9.045l-4.305-4.305
			c1.98-3.057,3.431-6.492,4.216-10.174H159.622L159.622,132.268z"/>
		<g>
			<path fill="#005C83" d="M45.5,94.363l8.714-22.662h4.245l8.682,22.662h-5.555l-1.755-5.075h-7.055l-1.723,5.075H45.5z
				 M56.319,77.255l-2.712,8.427h5.33L56.319,77.255z"/>
			<path fill="#005C83" d="M69.215,94.363V71.701h9.671c1.086,0,2.08,0.222,2.985,0.67c0.905,0.446,1.681,1.032,2.329,1.755
				c0.65,0.724,1.161,1.543,1.533,2.458c0.373,0.917,0.56,1.841,0.56,2.777c0,1.001-0.177,1.959-0.527,2.873
				c-0.351,0.917-0.841,1.736-1.468,2.459c-0.628,0.724-1.389,1.298-2.282,1.723c-0.895,0.427-1.884,0.639-2.969,0.639h-4.598v7.309
				L69.215,94.363L69.215,94.363z M74.449,82.49h4.278c0.616,0,1.148-0.266,1.596-0.798c0.446-0.532,0.67-1.309,0.67-2.331
				c0-0.532-0.069-0.99-0.208-1.373c-0.139-0.383-0.324-0.702-0.56-0.957c-0.233-0.256-0.499-0.441-0.796-0.56
				c-0.299-0.117-0.597-0.175-0.894-0.175h-4.087L74.449,82.49L74.449,82.49z"/>
			<path fill="#005C83" d="M89.005,94.363V71.701h5.234v22.662H89.005z"/>
		</g>
	</g>
</g>
<g display="none">
	<circle display="inline" fill="#65A3E6" cx="98.969" cy="100.429" r="68.032"/>
	<path display="inline" fill="#F2F2F7" d="M153.333,59.729v81.744c-3.856,5.123-8.422,9.68-13.548,13.53
		c-11.371,8.539-25.503,13.599-40.816,13.599c-14.944,0-28.763-4.816-39.986-12.983c-0.839-0.611-1.663-1.241-2.471-1.888
		c-0.997-0.795-1.969-1.619-2.916-2.469c-0.761-0.682-1.508-1.379-2.235-2.095c-1.002-0.983-1.977-1.997-2.915-3.038
		c-0.77-0.854-1.517-1.722-2.238-2.609c-0.547-0.67-1.083-1.354-1.603-2.043V59.729H153.333z"/>
	<path display="inline" fill="#E3E7FC" d="M153.333,59.588v13.704c-0.267,0.039-0.542,0.055-0.819,0.055H45.424
		c-0.278,0-0.553-0.017-0.819-0.055V59.588H153.333z"/>
	<path display="inline" fill="#FFE261" d="M152.514,68.765H45.425c-3.533,0-6.396-2.864-6.396-6.396V42.131
		c0-3.532,2.864-6.396,6.396-6.396h107.087c3.533,0,6.396,2.864,6.396,6.396v20.238C158.909,65.901,156.045,68.765,152.514,68.765z"
		/>
	<g display="inline">
		<path fill="#374266" d="M90.224,52.25c0,4.06-3.293,7.351-7.353,7.351c-2.197,0-4.169-0.963-5.516-2.489
			c-1.145-1.294-1.838-2.997-1.838-4.862s0.693-3.569,1.838-4.864c1.347-1.526,3.318-2.488,5.516-2.488
			C86.931,44.898,90.224,48.189,90.224,52.25z"/>
		<path fill="#374266" d="M122.42,52.25c0,4.06-3.293,7.351-7.354,7.351c-2.196,0-4.168-0.963-5.516-2.489
			c-1.145-1.294-1.838-2.997-1.838-4.862s0.693-3.569,1.838-4.864c1.348-1.526,3.318-2.488,5.516-2.488
			C119.127,44.898,122.42,48.189,122.42,52.25z"/>
	</g>
	
		<text transform="matrix(1 0 0 1 61.522 106.8477)" display="inline" fill="#FF526C" font-family="'GothamRounded-Bold'" font-size="23.5966">Since</text>
	
		<text transform="matrix(1 0 0 1 56.2798 140.3682)" display="inline" fill="#374266" font-family="'GothamRounded-Bold'" font-size="34.0839">2010</text>
</g>
<g display="none">
	<path display="inline" fill="#FCDA42" d="M168.104,100c0,37.611-30.492,68.104-68.104,68.104c-37.612,0-68.103-30.49-68.103-68.104
		c0-37.611,30.49-68.103,68.103-68.103C137.611,31.897,168.104,62.389,168.104,100z"/>
	<path display="inline" fill="#EDEDED" d="M157.121,40.979v96.119c-1.688,2.592-3.545,5.063-5.561,7.395
		c-12.488,14.46-30.955,23.611-51.561,23.611c-20.606,0-39.071-9.151-51.561-23.611c-2.015-2.331-3.872-4.803-5.56-7.395V40.979
		c0-5.015,4.067-9.081,9.081-9.081h96.078C153.055,31.897,157.121,35.964,157.121,40.979z"/>
	<path display="inline" fill="#FFFFFF" d="M151.563,40.979v103.513c-1.742,2.016-3.598,3.929-5.561,5.727
		c-12.12,11.107-28.268,17.885-46.001,17.885c-4.909,0-9.698-0.52-14.313-1.51c-1.981-0.42-3.927-0.932-5.84-1.523
		c-9.729-3.008-18.523-8.139-25.848-14.852c-1.962-1.798-3.819-3.711-5.56-5.727V40.979c0-1.943,1.58-3.521,3.521-3.521h96.078
		C149.982,37.457,151.563,39.036,151.563,40.979z"/>
	<path display="inline" fill="#583377" d="M151.563,40.979v14.858H48.44V40.979c0-1.943,1.58-3.521,3.521-3.521h96.078
		C149.982,37.457,151.563,39.036,151.563,40.979z"/>
	<g display="inline">
		<path fill="#FFFFFF" d="M62.752,46.646c0,2.661-2.157,4.818-4.817,4.818c-2.661,0-4.818-2.157-4.818-4.818
			s2.157-4.818,4.818-4.818C60.595,41.829,62.752,43.986,62.752,46.646z"/>
		<path fill="#FFFFFF" d="M75.023,46.646c0,2.661-2.157,4.818-4.818,4.818c-2.66,0-4.817-2.157-4.817-4.818s2.157-4.818,4.817-4.818
			C72.866,41.829,75.023,43.986,75.023,46.646z"/>
		<path fill="#FFFFFF" d="M87.294,46.646c0,2.661-2.157,4.818-4.817,4.818c-2.661,0-4.818-2.157-4.818-4.818
			s2.157-4.818,4.818-4.818C85.137,41.829,87.294,43.986,87.294,46.646z"/>
	</g>
	<path display="inline" fill="#EDEDED" d="M139.829,102.221c0,21.996-17.832,39.828-39.829,39.828s-39.829-17.832-39.829-39.828
		c0-21.998,17.832-39.83,39.829-39.83S139.829,80.223,139.829,102.221z"/>
	<path display="inline" fill="#E0A792" d="M86.864,103.816c0,3.668-2.975,6.644-6.644,6.644c-3.668,0-6.643-2.976-6.643-6.644
		c0-3.669,2.975-6.644,6.643-6.644C83.89,97.174,86.864,100.147,86.864,103.816z"/>
	<path display="inline" fill="#E0A792" d="M126.309,103.816c0,3.668-2.975,6.644-6.644,6.644c-3.668,0-6.644-2.976-6.644-6.644
		c0-3.669,2.976-6.644,6.644-6.644C123.334,97.174,126.309,100.147,126.309,103.816z"/>
	<path display="inline" fill="#F9D8C7" d="M99.999,127.908c-10.924,0-19.778-8.855-19.778-19.777V82.743h39.556v25.388
		C119.775,119.053,110.922,127.908,99.999,127.908z"/>
	<path display="inline" fill="#E0A792" d="M102.828,127.706c-0.926,0.133-1.867,0.202-2.828,0.202
		c-10.924,0-19.778-8.854-19.778-19.777V82.743h5.658v25.388C85.88,118.094,93.246,126.333,102.828,127.706z"/>
	<path display="inline" fill="#442463" d="M84.399,87.034l-6.121,3.082v14.017c3.381,0,6.121-2.74,6.121-6.121V87.034z"/>
	<path display="inline" fill="#583377" d="M115.598,76.251h6.123v27.882c-3.382,0-6.123-2.74-6.123-6.121V76.251z"/>
	<path display="inline" fill="#583377" d="M112.723,90.116H78.278c0-10.937,8.865-19.802,19.801-19.802h34.442
		C132.521,81.25,123.657,90.116,112.723,90.116z"/>
	<path display="inline" fill="#442463" d="M107.365,70.314h-9.286c-10.936,0-19.801,8.865-19.801,19.802h9.286
		C87.564,79.179,96.43,70.314,107.365,70.314z"/>
	<path display="inline" fill="#384361" d="M95.183,101.822c0-2.042-1.654-3.697-3.696-3.697s-3.697,1.655-3.697,3.697"/>
	<path display="inline" fill="#384361" d="M112.128,101.822c0-2.042-1.655-3.697-3.696-3.697c-2.043,0-3.697,1.655-3.697,3.697"/>
	<path display="inline" fill="#E0A792" d="M103.136,105.325H96.86c-1.074,0-1.945,0.87-1.945,1.944c0,1.076,0.871,1.945,1.945,1.945
		h6.275c1.075,0,1.947-0.869,1.947-1.945C105.083,106.195,104.211,105.325,103.136,105.325z"/>
	<path display="inline" fill="#FFFFFF" d="M90.756,111.271c0,5.104,4.139,9.242,9.243,9.242c5.104,0,9.242-4.139,9.242-9.242"/>
	<path display="inline" fill="#384361" d="M72.1,148.604h55.802v4.021H72.1V148.604z"/>
	<path display="inline" fill="#384361" d="M72.1,156.166h55.802v4.021H72.1V156.166z"/>
</g>
<circle fill="#F24976" cx="100" cy="100" r="68.104"/>
<g>
	<path fill="#FFFFFF" d="M146.269,138.223c0-4.709,3.931-8.64,8.64-8.64c0.937,0,1.841,0.158,2.69,0.444V53.466H41.612v88.047
		h105.325C146.508,140.495,146.269,139.383,146.269,138.223z"/>
	<g>
		<path fill="#E0E0E0" d="M146.269,138.223c0-4.709,3.931-8.64,8.64-8.64c0.938,0,1.844,0.158,2.694,0.445V53.466H99.607v88.047
			h47.33C146.508,140.495,146.269,139.383,146.269,138.223z"/>
		<rect x="41.612" y="53.466" fill="#E0E0E0" width="115.986" height="11.33"/>
	</g>
	<rect x="99.607" y="53.466" fill="#C0C0C0" width="57.995" height="11.33"/>
	<g>
		<circle fill="#FF6838" cx="48.6" cy="59.129" r="3.141"/>
		<circle fill="#FF6838" cx="58.021" cy="59.129" r="3.141"/>
		<circle fill="#FF6838" cx="67.442" cy="59.129" r="3.141"/>
	</g>
	<path fill="#005C83" d="M149.947,108.982l4.304-4.304c-2.46-3.521-5.525-6.586-9.046-9.046l-4.304,4.304
		c-3.058-1.982-6.493-3.431-10.174-4.217v-6.089c-2.077-0.368-4.214-0.56-6.396-0.56s-4.319,0.192-6.396,0.56v6.089
		c-3.681,0.786-7.116,2.234-10.174,4.216l-4.304-4.304c-3.521,2.46-6.586,5.526-9.046,9.045l4.304,4.305
		c-1.982,3.057-3.431,6.492-4.217,10.174h-6.089c-0.367,2.076-0.56,4.214-0.56,6.396c0,2.182,0.192,4.319,0.56,6.396h6.089
		c0.786,3.681,2.234,7.115,4.217,10.174l-4.304,4.304c2.46,3.521,5.526,6.586,9.046,9.046l4.304-4.304
		c3.058,1.982,6.493,3.431,10.174,4.217v6.089c2.077,0.367,4.214,0.56,6.396,0.56s4.319-0.192,6.396-0.56v-6.089
		c3.681-0.786,7.116-2.234,10.174-4.217l4.304,4.304c3.521-2.46,6.586-5.525,9.046-9.046l-4.304-4.304
		c1.982-3.059,3.432-6.493,4.217-10.174h6.089c0.367-2.077,0.56-4.215,0.56-6.396c0-2.183-0.192-4.32-0.56-6.396h-6.089
		C153.379,115.475,151.93,112.04,149.947,108.982z M124.331,139.026c-7.441,0-13.474-6.032-13.474-13.474
		s6.032-13.473,13.474-13.473s13.474,6.031,13.474,13.473S131.771,139.026,124.331,139.026z"/>
	<path fill="#00263F" d="M160.253,131.949c0.367-2.076,0.56-4.214,0.56-6.396c0-2.182-0.192-4.319-0.56-6.396h-6.089
		c-0.785-3.682-2.234-7.116-4.217-10.174l4.304-4.304c-2.46-3.521-5.525-6.586-9.046-9.046l-4.304,4.304
		c-3.058-1.982-6.493-3.431-10.174-4.217v-6.089c-2.077-0.368-4.214-0.56-6.396-0.56c-0.142,0-0.281,0.008-0.422,0.009v23.01
		c0.141-0.004,0.28-0.01,0.422-0.01c7.441,0,13.474,6.031,13.474,13.473c0,7.44-6.032,13.473-13.474,13.473
		c-0.142,0-0.281-0.006-0.422-0.01v23.009c0.141,0.002,0.28,0.01,0.422,0.01c2.183,0,4.319-0.192,6.396-0.56v-6.089
		c3.681-0.786,7.116-2.234,10.174-4.217l4.304,4.304c3.521-2.46,6.586-5.525,9.046-9.047l-4.304-4.303
		c1.982-3.059,3.432-6.493,4.217-10.175L160.253,131.949L160.253,131.949z"/>
</g>
<g>
	<path fill="#945C87" d="M85.35,80.62c-0.733,0.259-1.165,0.971-1.553,1.597c-0.82,1.445-1.036,3.322-0.281,4.854
		c0.194,0.431,0.561,0.841,1.057,0.863c0.54,0.021,1.014-0.324,1.403-0.69c0.841-0.82,1.208-1.985,1.338-3.128
		c0.129-1.057-0.043-2.201-0.669-3.107C86.385,80.641,85.825,80.469,85.35,80.62z"/>
	<path fill="#945C87" d="M74.13,80.62c-0.668,0.216-1.1,0.842-1.467,1.403c-0.907,1.467-1.166,3.387-0.432,4.962
		c0.194,0.41,0.496,0.863,0.992,0.949c0.518,0.086,0.993-0.216,1.359-0.54c0.82-0.712,1.23-1.769,1.445-2.826
		c0.216-1.187,0.108-2.503-0.582-3.538C75.167,80.641,74.605,80.469,74.13,80.62z"/>
	<path fill="#945C87" d="M91.305,74.277c-0.755-0.69-1.791-1.079-2.826-1.057c-11.91,0-23.798,0-35.686,0
		c-1.575,0-3.085,1.036-3.689,2.481c-0.28,0.625-0.345,1.316-0.345,1.985c0.022,4.444,0,8.911,0.022,13.376
		c0.021,2.05,1.812,3.884,3.862,3.949c5.717,0.021,11.435-0.022,17.131,0.021c2.611,1.402,5.156,2.87,7.746,4.293
		c-0.583-1.445-1.165-2.869-1.748-4.315c4.337,0,8.673,0.021,13.01,0c2.05-0.043,3.841-1.898,3.862-3.949c0-4.574,0-9.126,0-13.678
		C92.664,76.219,92.167,75.053,91.305,74.277z M66.73,91.321c0.043,0.669-0.28,1.467-0.992,1.64
		c-0.669,0.151-1.294-0.302-1.726-0.777c-1.942-2.093-3.042-4.79-3.84-7.486c-0.798,1.575-1.597,3.171-2.374,4.747
		c-0.54,1.079-1.122,2.179-1.985,3.042c-0.367,0.367-0.992,0.69-1.467,0.323c-0.712-0.625-0.885-1.618-1.187-2.459
		c-1.143-3.948-1.791-8.026-2.459-12.082c-0.151-0.669,0.129-1.489,0.798-1.748c0.539-0.194,1.251-0.237,1.705,0.173
		c0.323,0.28,0.41,0.733,0.474,1.144c0.475,3.15,1.015,6.278,1.792,9.363c1.294-2.459,2.589-4.919,3.883-7.4
		c0.194-0.367,0.431-0.733,0.777-0.95c0.474-0.302,1.165-0.28,1.575,0.151c0.324,0.345,0.453,0.841,0.54,1.294
		c0.388,2.028,0.906,4.056,1.661,5.976c0.324-2.913,0.734-5.869,1.791-8.608c0.237-0.583,0.453-1.165,0.842-1.64
		c0.647-0.69,1.898-0.475,2.395,0.324c0.259,0.41,0.28,0.971,0.064,1.402c-0.906,1.812-1.294,3.819-1.64,5.782
		C66.946,86.1,66.601,88.71,66.73,91.321z M77.993,87.912c-0.54,0.993-1.23,1.963-2.223,2.546c-1.445,0.885-3.387,0.777-4.79-0.151
		c-1.122-0.777-1.748-2.072-2.006-3.366c-0.518-2.956,0.367-6.235,2.589-8.285c0.647-0.583,1.446-0.95,2.287-1.058
		c1.402-0.172,2.913,0.302,3.862,1.359c0.776,0.885,1.208,2.028,1.359,3.171C79.309,84.093,78.942,86.165,77.993,87.912z
		 M89.233,87.847c-0.54,1.015-1.251,2.007-2.287,2.611c-1.381,0.841-3.236,0.755-4.617-0.064c-0.928-0.561-1.553-1.511-1.92-2.524
		c-0.971-3.085-0.151-6.71,2.093-9.04c0.733-0.647,1.618-1.122,2.546-1.23c1.359-0.172,2.848,0.259,3.797,1.273
		c0.863,0.928,1.316,2.158,1.445,3.409C90.485,84.18,90.139,86.165,89.233,87.847z"/>
</g>
</svg>
