<?xml version="1.0" encoding="utf-8"?>
<!-- Generator: Adobe Illustrator 16.0.0, SVG Export Plug-In . SVG Version: 6.00 Build 0)  -->
<!DOCTYPE svg PUBLIC "-//W3C//DTD SVG 1.1//EN" "http://www.w3.org/Graphics/SVG/1.1/DTD/svg11.dtd">
<svg version="1.1" id="Layer_1" xmlns="http://www.w3.org/2000/svg" xmlns:xlink="http://www.w3.org/1999/xlink" x="0px" y="0px"
	 width="200px" height="200px" viewBox="0 0 200 200" enable-background="new 0 0 200 200" xml:space="preserve">
<g display="none">
	<circle display="inline" fill="#F1333F" cx="99.37" cy="100.319" r="68.103"/>
	<g display="inline">
		<path fill="#FFFFFF" d="M145.639,138.542c0-4.709,3.93-8.642,8.642-8.642c0.937,0,1.84,0.158,2.688,0.443V53.787H40.982v88.047
			h105.325C145.878,140.814,145.639,139.701,145.639,138.542z"/>
		<g>
			<path fill="#E0E0E0" d="M145.639,138.542c0-4.709,3.93-8.642,8.642-8.642c0.938,0,1.843,0.158,2.69,0.445V53.787H98.978v88.047
				h47.331C145.878,140.814,145.639,139.701,145.639,138.542z"/>
			<rect x="40.982" y="53.787" fill="#E0E0E0" width="115.985" height="11.329"/>
		</g>
		<rect x="98.978" y="53.787" fill="#C0C0C0" width="57.993" height="11.329"/>
		<g>
			<circle fill="#FF6838" cx="47.97" cy="59.449" r="3.14"/>
			<circle fill="#FF6838" cx="57.392" cy="59.449" r="3.14"/>
			<circle fill="#FF6838" cx="66.813" cy="59.449" r="3.14"/>
		</g>
		<path fill="#005C83" d="M149.316,109.303l4.305-4.306c-2.46-3.521-5.526-6.585-9.046-9.046l-4.304,4.304
			c-3.06-1.982-6.494-3.431-10.174-4.216V89.95c-2.078-0.367-4.216-0.56-6.397-0.56c-2.183,0-4.319,0.193-6.396,0.56v6.089
			c-3.682,0.785-7.117,2.233-10.176,4.216l-4.303-4.304c-3.521,2.461-6.586,5.525-9.047,9.044l4.305,4.308
			c-1.981,3.055-3.432,6.489-4.217,10.174H87.78c-0.368,2.076-0.56,4.213-0.56,6.396s0.191,4.319,0.56,6.396h6.088
			c0.785,3.683,2.235,7.117,4.217,10.174l-4.305,4.306c2.461,3.521,5.526,6.584,9.047,9.045l4.303-4.304
			c3.058,1.982,6.494,3.431,10.175,4.216v6.09c2.076,0.367,4.215,0.562,6.396,0.562c2.184,0,4.318-0.192,6.396-0.562v-6.09
			c3.68-0.785,7.115-2.231,10.174-4.216l4.305,4.304c3.521-2.461,6.586-5.524,9.046-9.045l-4.306-4.306
			c1.981-3.058,3.432-6.492,4.219-10.174h6.088c0.368-2.076,0.561-4.215,0.561-6.396s-0.19-4.317-0.561-6.396h-6.088
			C152.747,115.794,151.299,112.359,149.316,109.303z M123.7,139.346c-7.44,0-13.472-6.033-13.472-13.476
			c0-7.438,6.029-13.474,13.472-13.474s13.475,6.033,13.475,13.474C137.175,133.313,131.141,139.346,123.7,139.346z"/>
		<path fill="#00263F" d="M159.622,132.268c0.368-2.076,0.56-4.213,0.56-6.396s-0.189-4.317-0.56-6.396h-6.09
			c-0.785-3.683-2.233-7.117-4.216-10.174l4.305-4.306c-2.46-3.521-5.526-6.585-9.046-9.046l-4.304,4.304
			c-3.06-1.982-6.494-3.431-10.174-4.216V89.95c-2.078-0.367-4.216-0.56-6.397-0.56c-0.142,0-0.28,0.008-0.423,0.01v23.01
			c0.143-0.006,0.281-0.012,0.423-0.012c7.442,0,13.475,6.033,13.475,13.473c0,7.441-6.032,13.475-13.475,13.475
			c-0.142,0-0.28-0.008-0.423-0.012v23.01c0.143,0.002,0.281,0.01,0.423,0.01c2.184,0,4.319-0.191,6.397-0.561v-6.09
			c3.68-0.785,7.114-2.232,10.174-4.215l4.304,4.303c3.52-2.461,6.586-5.525,9.046-9.045l-4.305-4.305
			c1.98-3.057,3.431-6.492,4.216-10.174H159.622L159.622,132.268z"/>
		<g>
			<path fill="#005C83" d="M45.5,94.363l8.714-22.662h4.245l8.682,22.662h-5.555l-1.755-5.075h-7.055l-1.723,5.075H45.5z
				 M56.319,77.255l-2.712,8.427h5.33L56.319,77.255z"/>
			<path fill="#005C83" d="M69.215,94.363V71.701h9.671c1.086,0,2.08,0.222,2.985,0.67c0.905,0.446,1.681,1.032,2.329,1.755
				c0.65,0.724,1.161,1.543,1.533,2.458c0.373,0.917,0.56,1.841,0.56,2.777c0,1.001-0.177,1.959-0.527,2.873
				c-0.351,0.917-0.841,1.736-1.468,2.459c-0.628,0.724-1.389,1.298-2.282,1.723c-0.895,0.427-1.884,0.639-2.969,0.639h-4.598v7.309
				L69.215,94.363L69.215,94.363z M74.449,82.49h4.278c0.616,0,1.148-0.266,1.596-0.798c0.446-0.532,0.67-1.309,0.67-2.331
				c0-0.532-0.069-0.99-0.208-1.373c-0.139-0.383-0.324-0.702-0.56-0.957c-0.233-0.256-0.499-0.441-0.796-0.56
				c-0.299-0.117-0.597-0.175-0.894-0.175h-4.087L74.449,82.49L74.449,82.49z"/>
			<path fill="#005C83" d="M89.005,94.363V71.701h5.234v22.662H89.005z"/>
		</g>
	</g>
</g>
<g display="none">
	<circle display="inline" fill="#65A3E6" cx="98.969" cy="100.429" r="68.032"/>
	<path display="inline" fill="#F2F2F7" d="M153.333,59.729v81.744c-3.856,5.123-8.422,9.68-13.548,13.53
		c-11.371,8.539-25.503,13.599-40.816,13.599c-14.944,0-28.763-4.816-39.986-12.983c-0.839-0.611-1.663-1.241-2.471-1.888
		c-0.997-0.795-1.969-1.619-2.916-2.469c-0.761-0.682-1.508-1.379-2.235-2.095c-1.002-0.983-1.977-1.997-2.915-3.038
		c-0.77-0.854-1.517-1.722-2.238-2.609c-0.547-0.67-1.083-1.354-1.603-2.043V59.729H153.333z"/>
	<path display="inline" fill="#E3E7FC" d="M153.333,59.588v13.704c-0.267,0.039-0.542,0.055-0.819,0.055H45.424
		c-0.278,0-0.553-0.017-0.819-0.055V59.588H153.333z"/>
	<path display="inline" fill="#FFE261" d="M152.514,68.765H45.425c-3.533,0-6.396-2.864-6.396-6.396V42.131
		c0-3.532,2.864-6.396,6.396-6.396h107.087c3.533,0,6.396,2.864,6.396,6.396v20.238C158.909,65.901,156.045,68.765,152.514,68.765z"
		/>
	<g display="inline">
		<path fill="#374266" d="M90.224,52.25c0,4.06-3.293,7.351-7.353,7.351c-2.197,0-4.169-0.963-5.516-2.489
			c-1.145-1.294-1.838-2.997-1.838-4.862s0.693-3.569,1.838-4.864c1.347-1.526,3.318-2.488,5.516-2.488
			C86.931,44.898,90.224,48.189,90.224,52.25z"/>
		<path fill="#374266" d="M122.42,52.25c0,4.06-3.293,7.351-7.354,7.351c-2.196,0-4.168-0.963-5.516-2.489
			c-1.145-1.294-1.838-2.997-1.838-4.862s0.693-3.569,1.838-4.864c1.348-1.526,3.318-2.488,5.516-2.488
			C119.127,44.898,122.42,48.189,122.42,52.25z"/>
	</g>
	
		<text transform="matrix(1 0 0 1 61.522 106.8477)" display="inline" fill="#FF526C" font-family="'GothamRounded-Bold'" font-size="23.5966">Since</text>
	
		<text transform="matrix(1 0 0 1 56.2798 140.3682)" display="inline" fill="#374266" font-family="'GothamRounded-Bold'" font-size="34.0839">2010</text>
</g>
<g display="none">
	<path display="inline" fill="#FCDA42" d="M168.104,100c0,37.611-30.492,68.104-68.104,68.104c-37.612,0-68.103-30.49-68.103-68.104
		c0-37.611,30.49-68.103,68.103-68.103C137.611,31.897,168.104,62.389,168.104,100z"/>
	<path display="inline" fill="#EDEDED" d="M157.121,40.979v96.119c-1.688,2.592-3.545,5.063-5.561,7.395
		c-12.488,14.46-30.955,23.611-51.561,23.611c-20.606,0-39.071-9.151-51.561-23.611c-2.015-2.331-3.872-4.803-5.56-7.395V40.979
		c0-5.015,4.067-9.081,9.081-9.081h96.078C153.055,31.897,157.121,35.964,157.121,40.979z"/>
	<path display="inline" fill="#FFFFFF" d="M151.563,40.979v103.513c-1.742,2.016-3.598,3.929-5.561,5.727
		c-12.12,11.107-28.268,17.885-46.001,17.885c-4.909,0-9.698-0.52-14.313-1.51c-1.981-0.42-3.927-0.932-5.84-1.523
		c-9.729-3.008-18.523-8.139-25.848-14.852c-1.962-1.798-3.819-3.711-5.56-5.727V40.979c0-1.943,1.58-3.521,3.521-3.521h96.078
		C149.982,37.457,151.563,39.036,151.563,40.979z"/>
	<path display="inline" fill="#583377" d="M151.563,40.979v14.858H48.44V40.979c0-1.943,1.58-3.521,3.521-3.521h96.078
		C149.982,37.457,151.563,39.036,151.563,40.979z"/>
	<g display="inline">
		<path fill="#FFFFFF" d="M62.752,46.646c0,2.661-2.157,4.818-4.817,4.818c-2.661,0-4.818-2.157-4.818-4.818
			s2.157-4.818,4.818-4.818C60.595,41.829,62.752,43.986,62.752,46.646z"/>
		<path fill="#FFFFFF" d="M75.023,46.646c0,2.661-2.157,4.818-4.818,4.818c-2.66,0-4.817-2.157-4.817-4.818s2.157-4.818,4.817-4.818
			C72.866,41.829,75.023,43.986,75.023,46.646z"/>
		<path fill="#FFFFFF" d="M87.294,46.646c0,2.661-2.157,4.818-4.817,4.818c-2.661,0-4.818-2.157-4.818-4.818
			s2.157-4.818,4.818-4.818C85.137,41.829,87.294,43.986,87.294,46.646z"/>
	</g>
	<path display="inline" fill="#EDEDED" d="M139.829,102.221c0,21.996-17.832,39.828-39.829,39.828s-39.829-17.832-39.829-39.828
		c0-21.998,17.832-39.83,39.829-39.83S139.829,80.223,139.829,102.221z"/>
	<path display="inline" fill="#E0A792" d="M86.864,103.816c0,3.668-2.975,6.644-6.644,6.644c-3.668,0-6.643-2.976-6.643-6.644
		c0-3.669,2.975-6.644,6.643-6.644C83.89,97.174,86.864,100.147,86.864,103.816z"/>
	<path display="inline" fill="#E0A792" d="M126.309,103.816c0,3.668-2.975,6.644-6.644,6.644c-3.668,0-6.644-2.976-6.644-6.644
		c0-3.669,2.976-6.644,6.644-6.644C123.334,97.174,126.309,100.147,126.309,103.816z"/>
	<path display="inline" fill="#F9D8C7" d="M99.999,127.908c-10.924,0-19.778-8.855-19.778-19.777V82.743h39.556v25.388
		C119.775,119.053,110.922,127.908,99.999,127.908z"/>
	<path display="inline" fill="#E0A792" d="M102.828,127.706c-0.926,0.133-1.867,0.202-2.828,0.202
		c-10.924,0-19.778-8.854-19.778-19.777V82.743h5.658v25.388C85.88,118.094,93.246,126.333,102.828,127.706z"/>
	<path display="inline" fill="#442463" d="M84.399,87.034l-6.121,3.082v14.017c3.381,0,6.121-2.74,6.121-6.121V87.034z"/>
	<path display="inline" fill="#583377" d="M115.598,76.251h6.123v27.882c-3.382,0-6.123-2.74-6.123-6.121V76.251z"/>
	<path display="inline" fill="#583377" d="M112.723,90.116H78.278c0-10.937,8.865-19.802,19.801-19.802h34.442
		C132.521,81.25,123.657,90.116,112.723,90.116z"/>
	<path display="inline" fill="#442463" d="M107.365,70.314h-9.286c-10.936,0-19.801,8.865-19.801,19.802h9.286
		C87.564,79.179,96.43,70.314,107.365,70.314z"/>
	<path display="inline" fill="#384361" d="M95.183,101.822c0-2.042-1.654-3.697-3.696-3.697s-3.697,1.655-3.697,3.697"/>
	<path display="inline" fill="#384361" d="M112.128,101.822c0-2.042-1.655-3.697-3.696-3.697c-2.043,0-3.697,1.655-3.697,3.697"/>
	<path display="inline" fill="#E0A792" d="M103.136,105.325H96.86c-1.074,0-1.945,0.87-1.945,1.944c0,1.076,0.871,1.945,1.945,1.945
		h6.275c1.075,0,1.947-0.869,1.947-1.945C105.083,106.195,104.211,105.325,103.136,105.325z"/>
	<path display="inline" fill="#FFFFFF" d="M90.756,111.271c0,5.104,4.139,9.242,9.243,9.242c5.104,0,9.242-4.139,9.242-9.242"/>
	<path display="inline" fill="#384361" d="M72.1,148.604h55.802v4.021H72.1V148.604z"/>
	<path display="inline" fill="#384361" d="M72.1,156.166h55.802v4.021H72.1V156.166z"/>
</g>
<g>
	<path fill="#FFFFFF" d="M100,195c-52.383,0-95-42.617-95-95S47.617,5,100,5s95,42.617,95,95C195,152.382,152.383,195,100,195z"/>
	<path fill="#F3F3F3" d="M100,10c49.626,0,90,40.374,90,90c0,49.625-40.374,90-90,90s-90-40.375-90-90C10,50.374,50.374,10,100,10
		 M100,0C44.771,0,0,44.771,0,100c0,55.229,44.771,100,100,100c55.229,0,100-44.771,100-100C200,44.771,155.229,0,100,0L100,0z"/>
</g>
<g>
	<path fill="#006CBC" d="M146.978,96.224v46.339c0,4.604-2.172,8.93-5.839,11.714c-11.429,8.675-25.682,13.824-41.139,13.824
		c-37.611,0-68.103-30.49-68.103-68.102c0-37.641,30.773-68.271,68.413-68.103c29.448,0.131,54.478,18.954,63.846,45.214
		c1.135,3.182-1.217,6.529-4.596,6.529C152.61,83.64,146.978,89.274,146.978,96.224z"/>
	<path fill="#FFF1C5" d="M97.499,122.69H44.128c-2.303,0-4.17-1.866-4.17-4.169V58.33c0-2.303,1.868-4.17,4.17-4.17h53.371
		c2.303,0,4.169,1.867,4.169,4.17v60.19C101.668,120.824,99.802,122.69,97.499,122.69z"/>
	<path fill="#FFF5F5" d="M136.414,122.69H51.912c-2.303,0-4.17-1.866-4.17-4.169V58.33c0-2.303,1.867-4.17,4.17-4.17h84.502
		c2.303,0,4.17,1.867,4.17,4.17v60.19C140.584,120.824,138.717,122.69,136.414,122.69z"/>
	<path fill="#FFAA00" d="M140.584,51.38v8.339H39.958V51.38c0-3.07,2.49-5.559,5.56-5.559h89.507
		C138.095,45.822,140.584,48.311,140.584,51.38z"/>
	<path fill="#FFCF48" d="M140.584,51.38v8.339H47.742V51.38c0-3.07,2.489-5.559,5.559-5.559h81.724
		C138.095,45.822,140.584,48.311,140.584,51.38z"/>
	<path fill="#F48C03" d="M51.655,52.771c0,1.772-1.436,3.207-3.208,3.207c-1.771,0-3.207-1.435-3.207-3.207
		c0-1.771,1.436-3.208,3.207-3.208C50.219,49.563,51.655,50.999,51.655,52.771z M59.138,49.564c-1.771,0-3.207,1.435-3.207,3.207
		c0,1.772,1.436,3.207,3.207,3.207c1.771,0,3.208-1.435,3.208-3.207C62.346,51,60.91,49.564,59.138,49.564z M69.83,49.564
		c-1.772,0-3.208,1.435-3.208,3.207c0,1.772,1.436,3.207,3.208,3.207c1.771,0,3.207-1.435,3.207-3.207
		C73.037,50.999,71.601,49.564,69.83,49.564z"/>
	<path fill="#FFE266" d="M95.553,69.144v2.78c0,0.768-0.623,1.391-1.39,1.391H46.908c-0.768,0-1.391-0.623-1.391-1.391v-2.78
		c0-0.767,0.623-1.389,1.391-1.389h47.255C94.93,67.754,95.553,68.377,95.553,69.144z M66.365,101.11H46.908
		c-0.768,0-1.391,0.622-1.391,1.391v2.779c0,0.768,0.623,1.39,1.391,1.39h19.457c0.768,0,1.391-0.622,1.391-1.39v-2.779
		C67.756,101.732,67.133,101.11,66.365,101.11z M121.96,67.754h-19.458c-0.768,0-1.39,0.623-1.39,1.389v2.78
		c0,0.768,0.622,1.391,1.39,1.391h19.458c0.768,0,1.39-0.623,1.39-1.391v-2.78C123.35,68.377,122.728,67.754,121.96,67.754z"/>
	<path fill="#FF6466" d="M56.637,80.263v2.78c0,0.768-0.623,1.389-1.389,1.389h-8.339c-0.768,0-1.391-0.621-1.391-1.389v-2.78
		c0-0.767,0.623-1.389,1.391-1.389h8.339C56.014,78.874,56.637,79.496,56.637,80.263z M55.248,89.991h-8.339
		c-0.768,0-1.391,0.623-1.391,1.391v2.78c0,0.767,0.623,1.389,1.391,1.389h8.339c0.767,0,1.389-0.623,1.389-1.389v-2.78
		C56.637,90.614,56.014,89.991,55.248,89.991z"/>
	<path fill="#FFE59C" d="M86.508,91.382v2.78c0,0.767-0.622,1.389-1.39,1.389H63.585c-0.767,0-1.389-0.623-1.389-1.389v-2.78
		c0-0.768,0.623-1.391,1.389-1.391h21.533C85.886,89.991,86.508,90.614,86.508,91.382z M85.118,78.874H63.585
		c-0.767,0-1.389,0.622-1.389,1.389v2.78c0,0.768,0.623,1.389,1.389,1.389h21.533c0.768,0,1.39-0.621,1.39-1.389v-2.78
		C86.508,79.496,85.886,78.874,85.118,78.874z"/>
	<path fill="#97F0F2" d="M83.877,154.177h-9.172c-2.303,0-4.17-1.868-4.17-4.171V89.815c0-2.302,1.867-4.169,4.17-4.169h9.172
		c2.303,0,4.171,1.868,4.171,4.169v60.191C88.048,152.309,86.18,154.177,83.877,154.177z"/>
	<path fill="#C0FBFF" d="M168.103,99.998c0,22.1-10.528,41.735-26.84,54.179H82.488c-2.303,0-4.169-1.868-4.169-4.171V89.815
		c0-2.302,1.866-4.169,4.169-4.169h84.094C167.576,90.274,168.103,95.074,168.103,99.998z"/>
	<path fill="#02CC69" d="M90.74,91.205H70.535v-8.339c0-3.071,2.489-5.56,5.56-5.56h14.607c3.116,0,5.847,2.093,6.65,5.103
		c0.012,0.047,0.023,0.092,0.036,0.138C98.546,86.918,95.263,91.205,90.74,91.205z"/>
	<path fill="#54D680" d="M167.538,91.205H78.319v-8.339c0-3.07,2.488-5.56,5.558-5.56h80.349
		C165.795,81.747,166.919,86.397,167.538,91.205z"/>
	<path fill="#00B96F" d="M82.231,84.256c0,1.771-1.437,3.207-3.207,3.207c-1.771,0-3.208-1.436-3.208-3.207
		c0-1.772,1.437-3.208,3.207-3.208C80.795,81.048,82.231,82.484,82.231,84.256z M89.716,81.048c-1.772,0-3.208,1.436-3.208,3.208
		c0,1.771,1.436,3.207,3.208,3.207c1.771,0,3.206-1.436,3.206-3.207C92.922,82.484,91.487,81.048,89.716,81.048z M100.406,81.048
		c-1.771,0-3.207,1.436-3.207,3.208c0,1.771,1.437,3.207,3.207,3.207c1.771,0,3.207-1.436,3.207-3.207
		C103.613,82.484,102.178,81.048,100.406,81.048z"/>
	<g>
		<path fill="#00769D" d="M109.735,114.34h-2.232l6.087,17.208l3.408-9.739l-2.642-7.469H112v-1.64h10.433v1.64h-2.442l6.087,17.208
			l2.188-6.253c2.871-8.012-2.353-10.508-2.353-12.296s1.449-3.237,3.237-3.237c0.097,0,0.19,0.005,0.282,0.014
			c-3.029-2.86-7.114-4.613-11.608-4.613c-5.874,0-11.048,2.994-14.081,7.538h5.992V114.34L109.735,114.34L109.735,114.34z"/>
		<path fill="#00769D" d="M100.907,122.078c0,6.477,3.641,12.103,8.985,14.944l-7.634-21.579
			C101.389,117.48,100.907,119.723,100.907,122.078z"/>
		<path fill="#00769D" d="M132.546,113.742c0.242,1.425,0.169,3.026-0.202,4.634h0.067l-0.256,0.731l0,0
			c-0.151,0.527-0.343,1.067-0.56,1.598l-5.82,16.307c5.334-2.846,8.965-8.465,8.965-14.934
			C134.74,119.047,133.942,116.203,132.546,113.742z"/>
		<path fill="#00769D" d="M112.606,138.174c1.644,0.532,3.396,0.821,5.218,0.821c1.736,0,3.412-0.263,4.989-0.749l-4.948-13.987
			L112.606,138.174z"/>
		<path fill="#00769D" d="M132.12,107.782c-3.819-3.818-8.896-5.922-14.296-5.922c-5.401,0-10.479,2.104-14.297,5.922
			s-5.921,8.896-5.921,14.296s2.103,10.478,5.921,14.296s8.896,5.922,14.297,5.922c5.4,0,10.477-2.104,14.296-5.922
			c3.818-3.818,5.921-8.896,5.921-14.296S135.938,111.601,132.12,107.782z M117.824,140.87c-10.362,0-18.792-8.431-18.792-18.792
			s8.43-18.791,18.792-18.791c10.361,0,18.791,8.43,18.791,18.791S128.186,140.87,117.824,140.87z"/>
	</g>
</g>
</svg>
