<?xml version="1.0" encoding="utf-8"?>
<!-- Generator: Adobe Illustrator 16.0.0, SVG Export Plug-In . SVG Version: 6.00 Build 0)  -->
<!DOCTYPE svg PUBLIC "-//W3C//DTD SVG 1.1//EN" "http://www.w3.org/Graphics/SVG/1.1/DTD/svg11.dtd">
<svg version="1.1" id="Capa_1" xmlns="http://www.w3.org/2000/svg" xmlns:xlink="http://www.w3.org/1999/xlink" x="0px" y="0px"
	 width="503.995px" height="503.999px" viewBox="4.002 4 503.995 503.999" enable-background="new 4.002 4 503.995 503.999"
	 xml:space="preserve">
<g>
	<path fill="#F76724" d="M337.388,246.429l39.25-39.25l2.207,0.564c15.523,3.963,31.969,4.261,47.66,0.86
		c19.379-4.201,37.063-13.862,51.143-27.94c27.645-27.645,37.313-67.942,25.234-105.167l-4.366-13.455l-68.867,43.468
		l-23.165-23.165l43.461-68.86l-13.456-4.366C426.021,5.722,415.189,4,404.294,4c-27.483,0-53.396,10.777-72.966,30.345
		c-14.076,14.077-23.733,31.76-27.929,51.137c-3.393,15.67-3.093,32.146,0.867,47.648l0.563,2.207l-46.808,46.808l-82.78-82.779
		l8.243-24.728L62.795,5.672L5.672,62.794l68.967,120.69l24.726-8.243l82.78,82.78l-46.806,46.808l-2.207-0.563
		c-15.522-3.964-31.966-4.262-47.648-0.866c-19.378,4.194-37.061,13.853-51.137,27.931C6.706,358.969-2.961,399.263,9.118,436.487
		l4.366,13.456l68.86-43.461l23.165,23.165L62.04,498.515l13.456,4.367c10.464,3.396,21.294,5.117,32.189,5.117
		c27.488,0,53.406-10.779,72.978-30.352c14.078-14.079,23.74-31.764,27.94-51.145c3.396-15.676,3.099-32.155-0.861-47.657
		l-0.564-2.208l39.25-39.251l168.776,168.776l90.959-90.959L337.388,246.429z M330.021,141.25l-2.313-6.537
		c-10.416-29.462-2.891-62.754,19.171-84.817c15.404-15.404,35.813-23.887,57.467-23.887c1.52,0,3.06,0.043,4.577,0.129l6.785,0.382
		l-37.205,58.947l48.021,48.021l58.954-37.211l0.383,6.785c1.296,23.034-7.366,45.65-23.767,62.051
		c-15.131,15.131-36.199,23.81-57.801,23.811c-9.259,0-18.354-1.556-27.03-4.624l-6.543-2.313l-56.524,56.333l-40.623-40.623
		L330.021,141.25z M181.986,370.723l2.313,6.542c10.418,29.46,2.887,62.759-19.186,84.831
		c-15.409,15.409-35.826,23.896-57.49,23.896c-1.514,0-3.048-0.043-4.56-0.128l-6.786-0.381l37.211-58.957l-48.021-48.021
		L26.52,415.71l-0.382-6.785c-1.298-23.033,7.362-45.647,23.759-62.044c15.125-15.123,36.185-23.796,57.781-23.796
		c9.261,0,18.357,1.556,27.036,4.624l6.538,2.312l56.446-56.446l40.623,40.624L181.986,370.723z M105.305,150.08l-20.518,6.84
		L33.102,66.47l33.367-33.367l90.45,51.685l-6.838,20.518l148.571,148.57l-44.775,44.774L105.305,150.08z M261.886,321.742
		l59.856-59.854l153.316,153.317l-59.854,59.856L261.886,321.742z"/>
</g>
</svg>
