<?xml version="1.0" encoding="utf-8"?>
<!-- Generator: Adobe Illustrator 16.0.0, SVG Export Plug-In . SVG Version: 6.00 Build 0)  -->
<!DOCTYPE svg PUBLIC "-//W3C//DTD SVG 1.1//EN" "http://www.w3.org/Graphics/SVG/1.1/DTD/svg11.dtd">
<svg version="1.1" id="Layer_1" xmlns="http://www.w3.org/2000/svg" xmlns:xlink="http://www.w3.org/1999/xlink" x="0px" y="0px"
	 width="200px" height="199.999px" viewBox="0 0 200 199.999" enable-background="new 0 0 200 199.999" xml:space="preserve">
<g>
	<path fill-rule="evenodd" clip-rule="evenodd" fill="#FFFFFF" d="M100,194.999c-52.383,0-95-42.616-95-94.999
		C5,47.617,47.617,5,100,5c52.383,0,95,42.617,95,95C195,152.382,152.383,194.999,100,194.999z"/>
	<path fill="#F3F3F3" d="M100,10c49.626,0,90,40.374,90,90c0,49.625-40.374,89.999-90,89.999S10,149.625,10,100
		C10,50.374,50.374,10,100,10 M100,0C44.771,0,0,44.771,0,100c0,55.228,44.771,99.999,100,99.999S200,155.228,200,100
		C200,44.771,155.229,0,100,0L100,0z"/>
</g>
<g>
	<circle fill="#69CDFF" cx="101.053" cy="99.999" r="68"/>
	<rect x="78.494" y="128.457" fill="#445EA0" width="21.846" height="11.443"/>
	<rect x="78.494" y="128.457" fill="#2E4C89" width="5.507" height="11.443"/>
	<path fill="#293D7C" d="M114.891,139.623H62.352c-0.778,0-1.416,0.638-1.416,1.417v7.097c0,0.779,0.638,1.416,1.416,1.416h52.539
		V139.623L114.891,139.623z"/>
	<path fill="#1A2B63" d="M66.443,148.136v-7.098c0-0.778,0.637-1.416,1.416-1.416h-5.508c-0.778,0-1.416,0.638-1.416,1.416v7.098
		c0,0.779,0.638,1.416,1.416,1.416h5.507C67.08,149.552,66.443,148.916,66.443,148.136z"/>
	<path fill="#293D7C" d="M150.472,45.312H28.363c-0.779,0-1.416,0.637-1.416,1.416v80.591c0,0.778,0.637,1.415,1.416,1.415h86.527
		V86.334c0-1.071,0.872-1.943,1.943-1.943h35.055V46.728C151.889,45.949,151.251,45.312,150.472,45.312z"/>
	<path fill="#FFFFFF" d="M33.163,114.575c0,0.467,0.383,0.849,0.85,0.849h80.878V86.334c0-1.071,0.872-1.943,1.943-1.943h28.838
		V59.199H33.163V114.575z"/>
	<path fill="#D9EAFC" d="M38.671,114.575V59.199h-5.508v55.376c0,0.467,0.383,0.849,0.85,0.849h5.508
		C39.053,115.423,38.671,115.042,38.671,114.575z"/>
	<circle fill="#445EA0" cx="89.418" cy="122.053" r="3.823"/>
	<path fill="#C3DDF4" d="M114.891,90.88h-14.828c-0.457,0-0.832,0.375-0.832,0.833v16.553c0,0.458,0.375,0.832,0.832,0.832h14.828
		V90.88z"/>
	<path fill="#AEC1ED" d="M104.737,108.266V91.713c0-0.458,0.375-0.833,0.833-0.833h-5.508c-0.457,0-0.832,0.375-0.832,0.833v16.553
		c0,0.458,0.375,0.832,0.832,0.832h5.508C105.112,109.098,104.737,108.724,104.737,108.266z"/>
	<path fill="#C3DDF4" d="M116.834,84.392h12.938V66.245c0-0.764-0.625-1.388-1.388-1.388H50.451c-0.764,0-1.389,0.625-1.389,1.388
		v18.464c0,0.763,0.625,1.388,1.389,1.388h64.456C115.024,85.138,115.843,84.392,116.834,84.392z"/>
	<path fill="#AEC1ED" d="M54.57,84.708V66.245c0-0.763,0.624-1.388,1.388-1.388h-5.507c-0.764,0-1.389,0.625-1.389,1.388v18.464
		c0,0.764,0.625,1.388,1.389,1.388h5.507C55.194,86.097,54.57,85.472,54.57,84.708z"/>
	<path fill="#FFAF10" d="M144.822,52.533H34.013c-0.467,0-0.85,0.382-0.85,0.85v6.093h112.509v-6.093
		C145.672,52.915,145.29,52.533,144.822,52.533z"/>
	<path fill="#FF9518" d="M39.521,52.533h-5.508c-0.467,0-0.85,0.382-0.85,0.85v6.093h5.508v-6.093
		C38.671,52.915,39.053,52.533,39.521,52.533z"/>
	<g>
		<path fill="#5DC1D8" d="M74.548,95.275H51.187c-1.149,0-2.081-0.932-2.081-2.082s0.932-2.082,2.081-2.082h23.361
			c1.15,0,2.082,0.932,2.082,2.082S75.698,95.275,74.548,95.275z"/>
		<path fill="#5DC1D8" d="M74.548,102.071H51.187c-1.149,0-2.081-0.931-2.081-2.081s0.932-2.082,2.081-2.082h23.361
			c1.15,0,2.082,0.932,2.082,2.082C76.63,101.139,75.698,102.071,74.548,102.071z"/>
		<path fill="#5DC1D8" d="M74.548,108.868H51.187c-1.149,0-2.081-0.932-2.081-2.082c0-1.149,0.932-2.082,2.081-2.082h23.361
			c1.15,0,2.082,0.933,2.082,2.082C76.63,107.936,75.698,108.868,74.548,108.868z"/>
		<path fill="#5DC1D8" d="M92.882,95.275H80.857c-1.15,0-2.082-0.932-2.082-2.082s0.932-2.082,2.082-2.082h12.024
			c1.15,0,2.082,0.932,2.082,2.082S94.032,95.275,92.882,95.275z"/>
		<path fill="#5DC1D8" d="M92.882,102.071H80.857c-1.15,0-2.082-0.931-2.082-2.081s0.932-2.082,2.082-2.082h12.024
			c1.15,0,2.082,0.932,2.082,2.082C94.964,101.139,94.032,102.071,92.882,102.071z"/>
		<path fill="#5DC1D8" d="M92.882,108.868H80.857c-1.15,0-2.082-0.932-2.082-2.082c0-1.149,0.932-2.082,2.082-2.082h12.024
			c1.15,0,2.082,0.933,2.082,2.082C94.964,107.936,94.032,108.868,92.882,108.868z"/>
	</g>
	<path fill="#445EA0" d="M166.833,84.114c1.221,0,2.22,0.999,2.22,2.22v67.104c0,1.222-0.999,2.221-2.22,2.221h-49.999
		c-1.222,0-2.221-0.999-2.221-2.221V86.334c0-1.221,0.999-2.22,2.221-2.22H166.833L166.833,84.114z"/>
	<path fill="#FFFFFF" d="M120.639,146.94c-0.763,0-1.388-0.624-1.388-1.388V89.78c0-0.764,0.625-1.388,1.388-1.388h42.389
		c0.764,0,1.388,0.625,1.388,1.388v55.772c0,0.764-0.624,1.388-1.388,1.388H120.639z"/>
	<path fill="#D9EAFC" d="M124.759,145.552V89.78c0-0.764,0.624-1.388,1.388-1.388h-5.508c-0.763,0-1.388,0.625-1.388,1.388v55.772
		c0,0.764,0.625,1.388,1.388,1.388h5.508C125.383,146.94,124.759,146.316,124.759,145.552z"/>
	<path fill="#445EA0" d="M139.235,152.491c-0.764,0-1.389-0.624-1.389-1.388v-0.54c0-0.763,0.625-1.388,1.389-1.388h5.196
		c0.763,0,1.388,0.625,1.388,1.388v0.54c0,0.764-0.625,1.388-1.388,1.388H139.235z"/>
	<path fill="#FFAF10" d="M164.415,93.747V89.78c0-0.764-0.624-1.388-1.388-1.388h-42.389c-0.763,0-1.388,0.625-1.388,1.388v3.967
		H164.415L164.415,93.747z"/>
	<path fill="#FF9518" d="M126.146,88.392h-5.508c-0.763,0-1.388,0.625-1.388,1.388v3.967h5.508V89.78
		C124.759,89.016,125.383,88.392,126.146,88.392z"/>
	<g>
		<path fill="#5DC1D8" d="M151.293,119.131h-18.92c-1.149,0-2.082-0.932-2.082-2.082c0-1.149,0.933-2.081,2.082-2.081h18.92
			c1.15,0,2.082,0.932,2.082,2.081C153.375,118.2,152.443,119.131,151.293,119.131z"/>
		<path fill="#5DC1D8" d="M151.293,125.55h-18.92c-1.149,0-2.082-0.932-2.082-2.081c0-1.15,0.933-2.082,2.082-2.082h18.92
			c1.15,0,2.082,0.932,2.082,2.082C153.375,124.619,152.443,125.55,151.293,125.55z"/>
		<path fill="#5DC1D8" d="M151.293,131.969h-18.92c-1.149,0-2.082-0.933-2.082-2.082s0.933-2.082,2.082-2.082h18.92
			c1.15,0,2.082,0.933,2.082,2.082S152.443,131.969,151.293,131.969z"/>
	</g>
	<path fill="#C3DDF4" d="M160.104,110.062c0,0.764-0.624,1.388-1.388,1.388H124.95c-0.763,0-1.388-0.624-1.388-1.388V98.615
		c0-0.763,0.625-1.388,1.388-1.388h33.766c0.764,0,1.388,0.625,1.388,1.388V110.062z"/>
	<path fill="#AEC1ED" d="M129.07,110.062V98.615c0-0.763,0.624-1.388,1.388-1.388h-5.508c-0.763,0-1.388,0.625-1.388,1.388v11.447
		c0,0.764,0.625,1.388,1.388,1.388h5.508C129.694,111.45,129.07,110.826,129.07,110.062z"/>
	<path fill="#C3DDF4" d="M155.108,142.58c0,0.764-0.625,1.388-1.388,1.388h-23.774c-0.764,0-1.388-0.624-1.388-1.388v-4.693
		c0-0.763,0.624-1.388,1.388-1.388h23.774c0.763,0,1.388,0.625,1.388,1.388V142.58L155.108,142.58z"/>
	<path fill="#AEC1ED" d="M134.065,142.58v-4.693c0-0.763,0.625-1.388,1.388-1.388h-5.507c-0.764,0-1.388,0.625-1.388,1.388v4.693
		c0,0.764,0.624,1.388,1.388,1.388h5.507C134.69,143.967,134.065,143.343,134.065,142.58z"/>
</g>
</svg>
