<?xml version="1.0" encoding="utf-8"?>
<!-- Generator: Adobe Illustrator 16.0.0, SVG Export Plug-In . SVG Version: 6.00 Build 0)  -->
<!DOCTYPE svg PUBLIC "-//W3C//DTD SVG 1.1//EN" "http://www.w3.org/Graphics/SVG/1.1/DTD/svg11.dtd">
<svg version="1.1" id="Layer_1" xmlns="http://www.w3.org/2000/svg" xmlns:xlink="http://www.w3.org/1999/xlink" x="0px" y="0px"
	 width="200px" height="199.999px" viewBox="0 0 200 199.999" enable-background="new 0 0 200 199.999" xml:space="preserve">
<g>
	<path fill-rule="evenodd" clip-rule="evenodd" fill="#FFFFFF" d="M100,194.999c-52.383,0-95-42.616-95-94.999
		C5,47.617,47.617,5,100,5c52.383,0,95,42.617,95,95C195,152.382,152.383,194.999,100,194.999z"/>
	<path fill="#F3F3F3" d="M100,10c49.626,0,90,40.374,90,90c0,49.625-40.374,89.999-90,89.999S10,149.625,10,100
		C10,50.374,50.374,10,100,10 M100,0C44.771,0,0,44.771,0,100c0,55.228,44.771,99.999,100,99.999S200,155.228,200,100
		C200,44.771,155.229,0,100,0L100,0z"/>
</g>
<g>
	<circle fill="#FFAF10" cx="99.5" cy="100" r="68"/>
	<rect x="76.916" y="134.369" fill="#445EA0" width="29.975" height="12.814"/>
	<rect x="76.916" y="134.369" fill="#2E4C89" width="5.507" height="12.814"/>
	<path fill="#293D7C" d="M120.908,153.844c0,0.764-0.625,1.388-1.388,1.388H64.287c-0.763,0-1.388-0.624-1.388-1.388v-5.551
		c0-0.764,0.625-1.388,1.388-1.388h55.233c0.763,0,1.388,0.624,1.388,1.388V153.844z"/>
	<path fill="#1A2B63" d="M68.407,153.844v-5.551c0-0.764,0.625-1.388,1.388-1.388h-5.507c-0.763,0-1.388,0.624-1.388,1.388v5.551
		c0,0.764,0.625,1.388,1.388,1.388h5.507C69.031,155.232,68.407,154.608,68.407,153.844z"/>
	<path fill="#293D7C" d="M28.447,131.872c0,1.526,1.249,2.775,2.775,2.775h83.314v-18.582H28.447V131.872z"/>
	<path fill="#1A2B63" d="M33.954,131.872v-15.807h-5.507v15.807c0,1.526,1.249,2.775,2.775,2.775h5.507
		C35.203,134.647,33.954,133.398,33.954,131.872z"/>
	<path fill="#445EA0" d="M114.536,108.6c0-0.612,0.498-1.11,1.11-1.11h39.715V47.394c0-1.678-1.373-3.051-3.051-3.051H31.498
		c-1.678,0-3.051,1.373-3.051,3.051v68.948h86.089V108.6z"/>
	<path fill="#EEF6FF" d="M114.536,108.6c0-0.612,0.498-1.11,1.11-1.11h33.613V51.833c0-0.764-0.625-1.388-1.388-1.388H35.936
		c-0.763,0-1.388,0.624-1.388,1.388v57.021c0,0.763,0.625,1.388,1.388,1.388h78.599L114.536,108.6L114.536,108.6z"/>
	<circle fill="#445EA0" cx="91.903" cy="125.592" r="3.861"/>
	<path fill="#FFAF10" d="M144.008,86.226c0,0.764-0.624,1.388-1.388,1.388H98.641c-0.764,0-1.388-0.624-1.388-1.388V66.043
		c0-0.764,0.624-1.388,1.388-1.388h43.979c0.764,0,1.388,0.624,1.388,1.388V86.226L144.008,86.226z"/>
	<path fill="#FF9518" d="M102.76,86.226V66.043c0-0.764,0.625-1.388,1.389-1.388h-5.508c-0.763,0-1.388,0.624-1.388,1.388v20.183
		c0,0.764,0.625,1.388,1.388,1.388h5.508C103.385,87.614,102.76,86.99,102.76,86.226z"/>
	<g>
		<path fill="#C3DDF4" d="M111.508,95.592H99.542c-1.149,0-2.082-0.932-2.082-2.082c0-1.149,0.932-2.081,2.082-2.081h11.965
			c1.15,0,2.082,0.932,2.082,2.081C113.59,94.661,112.658,95.592,111.508,95.592z"/>
		<path fill="#C3DDF4" d="M111.508,101.919H99.542c-1.149,0-2.082-0.933-2.082-2.082s0.932-2.082,2.082-2.082h11.965
			c1.15,0,2.082,0.933,2.082,2.082S112.658,101.919,111.508,101.919z"/>
		<path fill="#C3DDF4" d="M125.945,95.592h-8.898c-1.15,0-2.082-0.932-2.082-2.082c0-1.149,0.932-2.081,2.082-2.081h8.898
			c1.149,0,2.081,0.932,2.081,2.081C128.026,94.661,127.095,95.592,125.945,95.592z"/>
		<path fill="#C3DDF4" d="M125.945,101.919h-8.898c-1.15,0-2.082-0.933-2.082-2.082s0.932-2.082,2.082-2.082h8.898
			c1.149,0,2.081,0.933,2.081,2.082S127.095,101.919,125.945,101.919z"/>
		<path fill="#C3DDF4" d="M142.734,95.592H131.4c-1.149,0-2.082-0.932-2.082-2.082c0-1.149,0.933-2.081,2.082-2.081h11.334
			c1.149,0,2.082,0.932,2.082,2.081C144.816,94.661,143.884,95.592,142.734,95.592z"/>
		<path fill="#C3DDF4" d="M142.734,101.919H131.4c-1.149,0-2.082-0.933-2.082-2.082s0.933-2.082,2.082-2.082h11.334
			c1.149,0,2.082,0.933,2.082,2.082S143.884,101.919,142.734,101.919z"/>
	</g>
	<g>
		<path fill="#EF8318" d="M128.188,59.778c0,0.764-0.624,1.388-1.388,1.388h-3.053c-0.763,0-1.387-0.624-1.387-1.388v-3.053
			c0-0.764,0.624-1.388,1.387-1.388h3.053c0.764,0,1.388,0.624,1.388,1.388V59.778z"/>
		<path fill="#EF8318" d="M135.96,59.778c0,0.764-0.625,1.388-1.388,1.388h-3.053c-0.764,0-1.388-0.624-1.388-1.388v-3.053
			c0-0.764,0.624-1.388,1.388-1.388h3.053c0.763,0,1.388,0.624,1.388,1.388V59.778z"/>
		<path fill="#EF8318" d="M143.73,59.778c0,0.764-0.624,1.388-1.388,1.388h-3.053c-0.764,0-1.388-0.624-1.388-1.388v-3.053
			c0-0.764,0.624-1.388,1.388-1.388h3.053c0.764,0,1.388,0.624,1.388,1.388V59.778z"/>
	</g>
	<g>
		<path fill="#69CDFF" d="M81.431,100.279h-2.498c-1.149,0-2.082-0.932-2.082-2.082s0.932-2.082,2.082-2.082h2.498
			c1.149,0,2.082,0.932,2.082,2.082S82.58,100.279,81.431,100.279z"/>
		<path fill="#69CDFF" d="M71.994,100.279h-2.498c-1.15,0-2.082-0.932-2.082-2.082s0.932-2.082,2.082-2.082h2.498
			c1.149,0,2.082,0.932,2.082,2.082S73.144,100.279,71.994,100.279z"/>
		<path fill="#69CDFF" d="M62.557,100.279h-2.498c-1.15,0-2.082-0.932-2.082-2.082s0.932-2.082,2.082-2.082h2.498
			c1.15,0,2.082,0.932,2.082,2.082S63.707,100.279,62.557,100.279z"/>
		<path fill="#69CDFF" d="M53.12,100.279h-2.498c-1.149,0-2.082-0.932-2.082-2.082s0.932-2.082,2.082-2.082h2.498
			c1.15,0,2.082,0.932,2.082,2.082S54.27,100.279,53.12,100.279z"/>
		<path fill="#69CDFF" d="M89.549,91.703c-1.149,0-2.082-0.932-2.082-2.082v-2.498c0-1.149,0.932-2.081,2.082-2.081
			c1.15,0,2.082,0.932,2.082,2.081v2.498C91.631,90.771,90.699,91.703,89.549,91.703z"/>
		<path fill="#69CDFF" d="M89.549,82.265c-1.149,0-2.082-0.932-2.082-2.081v-2.498c0-1.149,0.932-2.082,2.082-2.082
			c1.15,0,2.082,0.933,2.082,2.082v2.498C91.631,81.333,90.699,82.265,89.549,82.265z"/>
		<path fill="#69CDFF" d="M89.549,72.829c-1.149,0-2.082-0.932-2.082-2.081V68.25c0-1.149,0.932-2.082,2.082-2.082
			c1.15,0,2.082,0.933,2.082,2.082v2.498C91.631,71.897,90.699,72.829,89.549,72.829z"/>
		<path fill="#69CDFF" d="M42.365,91.703c-1.15,0-2.082-0.932-2.082-2.082v-2.498c0-1.149,0.932-2.081,2.082-2.081
			c1.149,0,2.082,0.932,2.082,2.081v2.498C44.447,90.771,43.515,91.703,42.365,91.703z"/>
		<path fill="#69CDFF" d="M42.365,82.265c-1.15,0-2.082-0.932-2.082-2.081v-2.498c0-1.149,0.932-2.082,2.082-2.082
			c1.149,0,2.082,0.933,2.082,2.082v2.498C44.447,81.333,43.515,82.265,42.365,82.265z"/>
		<path fill="#69CDFF" d="M42.365,72.829c-1.15,0-2.082-0.932-2.082-2.081V68.25c0-1.149,0.932-2.082,2.082-2.082
			c1.149,0,2.082,0.933,2.082,2.082v2.498C44.447,71.897,43.515,72.829,42.365,72.829z"/>
		<path fill="#69CDFF" d="M81.431,62.532h-2.498c-1.149,0-2.082-0.932-2.082-2.082c0-1.149,0.932-2.081,2.082-2.081h2.498
			c1.149,0,2.082,0.932,2.082,2.081C83.512,61.6,82.58,62.532,81.431,62.532z"/>
		<path fill="#69CDFF" d="M71.994,62.532h-2.498c-1.15,0-2.082-0.932-2.082-2.082c0-1.149,0.932-2.081,2.082-2.081h2.498
			c1.149,0,2.082,0.932,2.082,2.081C74.076,61.6,73.144,62.532,71.994,62.532z"/>
		<path fill="#69CDFF" d="M62.557,62.532h-2.498c-1.15,0-2.082-0.932-2.082-2.082c0-1.149,0.932-2.081,2.082-2.081h2.498
			c1.15,0,2.082,0.932,2.082,2.081C64.639,61.6,63.707,62.532,62.557,62.532z"/>
		<path fill="#69CDFF" d="M53.12,62.532h-2.498c-1.149,0-2.082-0.932-2.082-2.082c0-1.149,0.932-2.081,2.082-2.081h2.498
			c1.15,0,2.082,0.932,2.082,2.081C55.202,61.6,54.27,62.532,53.12,62.532z"/>
	</g>
	<path fill="#5DC1D8" d="M83.998,91.258c0,0.763-0.625,1.388-1.388,1.388H49.304c-0.763,0-1.388-0.625-1.388-1.388v-23.87
		c0-0.763,0.625-1.388,1.388-1.388H82.61c0.763,0,1.388,0.625,1.388,1.388V91.258z"/>
	<path fill="#28A5A5" d="M53.424,91.258v-23.87c0-0.763,0.624-1.388,1.388-1.388h-5.508c-0.763,0-1.388,0.625-1.388,1.388v23.87
		c0,0.763,0.625,1.388,1.388,1.388h5.508C54.048,92.646,53.424,92.021,53.424,91.258z"/>
	<g>
		<path fill="#52BBEF" d="M93.434,62.533c0,0.764-0.625,1.388-1.388,1.388h-5.829c-0.764,0-1.388-0.624-1.388-1.388v-5.829
			c0-0.763,0.624-1.388,1.388-1.388h5.829c0.763,0,1.388,0.625,1.388,1.388V62.533z"/>
		<path fill="#52BBEF" d="M47.36,63.087c0,0.764-0.625,1.388-1.388,1.388h-5.829c-0.763,0-1.388-0.624-1.388-1.388v-5.828
			c0-0.764,0.625-1.388,1.388-1.388h5.829c0.763,0,1.388,0.624,1.388,1.388V63.087z"/>
		<path fill="#52BBEF" d="M93.434,101.355c0,0.763-0.625,1.388-1.388,1.388h-5.829c-0.764,0-1.388-0.625-1.388-1.388v-5.829
			c0-0.763,0.624-1.388,1.388-1.388h5.829c0.763,0,1.388,0.625,1.388,1.388V101.355z"/>
		<path fill="#52BBEF" d="M47.36,101.355c0,0.763-0.625,1.388-1.388,1.388h-5.829c-0.763,0-1.388-0.625-1.388-1.388v-5.829
			c0-0.763,0.625-1.388,1.388-1.388h5.829c0.763,0,1.388,0.625,1.388,1.388V101.355z"/>
	</g>
	<g>
		<path fill="#1E99D6" d="M87.889,62.533v-5.829c0-0.763,0.625-1.388,1.388-1.388h-3.059c-0.764,0-1.388,0.625-1.388,1.388v5.829
			c0,0.764,0.624,1.388,1.388,1.388h3.059C88.514,63.92,87.889,63.296,87.889,62.533z"/>
		<path fill="#1E99D6" d="M41.815,63.087v-5.828c0-0.764,0.625-1.388,1.388-1.388h-3.059c-0.763,0-1.388,0.624-1.388,1.388v5.828
			c0,0.764,0.625,1.388,1.388,1.388h3.059C42.44,64.475,41.815,63.851,41.815,63.087z"/>
		<path fill="#1E99D6" d="M87.889,101.355v-5.829c0-0.763,0.625-1.388,1.388-1.388h-3.059c-0.764,0-1.388,0.625-1.388,1.388v5.829
			c0,0.763,0.624,1.388,1.388,1.388h3.059C88.514,102.743,87.889,102.118,87.889,101.355z"/>
		<path fill="#1E99D6" d="M41.815,101.355v-5.829c0-0.763,0.625-1.388,1.388-1.388h-3.059c-0.763,0-1.388,0.625-1.388,1.388v5.829
			c0,0.763,0.625,1.388,1.388,1.388h3.059C42.44,102.743,41.815,102.118,41.815,101.355z"/>
	</g>
	<path fill="#5DC1D8" d="M149.309,130.745c-0.043-0.117-0.04-0.184-0.033-0.205c0,0,0.017-0.002,0.033-0.002
		c0.031,0,0.086,0.007,0.17,0.037l11.686,4.292V108.6c0-0.763-0.624-1.388-1.388-1.388h-44.13c-0.764,0-1.389,0.625-1.389,1.388
		v31.863c0,0.763,0.625,1.388,1.389,1.388h37.741L149.309,130.745z"/>
	<path fill="#28A5A5" d="M119.766,140.462V108.6c0-0.764,0.625-1.388,1.388-1.388h-5.507c-0.764,0-1.388,0.624-1.388,1.388v31.862
		c0,0.764,0.624,1.389,1.388,1.389h5.507C120.391,141.851,119.766,141.226,119.766,140.462z"/>
	<path fill="#293D7C" d="M149.574,130.314c-0.457-0.168-0.694,0.069-0.526,0.526l7.317,19.923c0.168,0.458,0.588,0.55,0.932,0.205
		l3.886-3.885c0.344-0.344,0.907-0.344,1.253,0l4.477,4.478c0.344,0.344,0.908,0.344,1.252,0l2.131-2.13
		c0.344-0.345,0.344-0.909,0-1.253l-4.477-4.477c-0.345-0.345-0.345-0.908,0-1.253l3.884-3.885c0.345-0.345,0.253-0.764-0.205-0.932
		L149.574,130.314z"/>
</g>
</svg>
