<?xml version="1.0" encoding="utf-8"?>
<!-- Generator: Adobe Illustrator 16.0.0, SVG Export Plug-In . SVG Version: 6.00 Build 0)  -->
<!DOCTYPE svg PUBLIC "-//W3C//DTD SVG 1.1//EN" "http://www.w3.org/Graphics/SVG/1.1/DTD/svg11.dtd">
<svg version="1.1" id="Layer_1" xmlns="http://www.w3.org/2000/svg" xmlns:xlink="http://www.w3.org/1999/xlink" x="0px" y="0px"
	 width="200px" height="199.999px" viewBox="0 0 200 199.999" enable-background="new 0 0 200 199.999" xml:space="preserve">
<g>
	<path fill-rule="evenodd" clip-rule="evenodd" fill="#FFFFFF" d="M100,194.999c-52.383,0-95-42.616-95-94.999
		C5,47.617,47.617,5,100,5c52.383,0,95,42.617,95,95C195,152.382,152.383,194.999,100,194.999z"/>
	<path fill="#F3F3F3" d="M100,10c49.626,0,90,40.374,90,90c0,49.625-40.374,89.999-90,89.999S10,149.625,10,100
		C10,50.374,50.374,10,100,10 M100,0C44.771,0,0,44.771,0,100c0,55.228,44.771,99.999,100,99.999S200,155.228,200,100
		C200,44.771,155.229,0,100,0L100,0z"/>
</g>
<g>
	<path fill="#7ECD00" d="M52.229,147.764c-11.654-12.029-18.805-28.447-18.735-46.535c0.141-36.559,30.066-66.308,66.625-66.244
		c36.676,0.064,66.388,29.816,66.388,66.507c0,17.982-7.137,34.299-18.733,46.27c-0.27,0.278-0.67,0.385-1.044,0.281
		c-14.209-3.934-30.04-6.129-46.729-6.129c-16.69,0-32.523,2.195-46.733,6.13C52.896,148.146,52.497,148.041,52.229,147.764z"/>
	<path fill="#EE4424" d="M127.146,121.58H72.854c-2.249,0-4.072-1.823-4.072-4.071V59.145h62.436v58.364
		C131.218,119.756,129.395,121.58,127.146,121.58z"/>
	<path fill="#FC6930" d="M127.146,121.58H84.798V59.145h46.419v58.364C131.218,119.756,129.395,121.58,127.146,121.58z"/>
	<path fill="#E3AC6E" d="M74.49,129.967c9.353-3.396,16.204-11.521,17.232-21.254h16.555c1.028,9.734,7.879,17.858,17.232,21.254
		c-7.856,3.265-16.473,5.068-25.51,5.068S82.346,133.233,74.49,129.967z"/>
	<path fill="#EABE8D" d="M127.457,130.595c-8.37,3.799-17.666,5.914-27.457,5.914c-3.818,0-7.561-0.321-11.203-0.938
		c5.611-3.665,9.97-9.143,12.43-15.587c-4.791,0.286-9.662-1.098-13.68-4.149C76.741,107.625,69.41,91.688,69.41,76.698
		c0-20.234,13.356-31.645,30.586-33.995c17.23,2.35,30.586,13.761,30.586,33.995c0,14.991-7.33,30.928-18.137,39.137
		c-0.562,0.426-1.139,0.819-1.73,1.181C113.967,123.506,120.044,128.5,127.457,130.595z"/>
	<path fill="#F3D6AC" d="M112.446,115.834c-0.033,0.024-0.065,0.05-0.099,0.074c-0.542,0.406-1.053,0.805-1.635,1.108
		c-5.112,2.663-11.609,1.336-15.353-3.286c-5.676-7.008-13.194-19.771-12.355-37.565c0.768-16.302,6.999-27.488,17.4-33.405
		c17.032,2.473,30.178,13.863,30.178,33.937C130.583,91.688,123.252,107.625,112.446,115.834L112.446,115.834z"/>
	<path fill="#EABE8D" d="M95.792,91.991c0-1.125,0.912-2.036,2.036-2.036h4.344c1.124,0,2.035,0.911,2.035,2.036
		c0,1.125-0.911,2.036-2.035,2.036h-4.344C96.704,94.027,95.792,93.116,95.792,91.991z M107.971,101.142
		c-0.568-0.97-1.815-1.295-2.785-0.728c-2.995,1.754-8.055,1.754-11.049,0c-0.97-0.569-2.217-0.243-2.786,0.728
		c-0.568,0.97-0.242,2.218,0.728,2.787c2.126,1.245,4.854,1.867,7.583,1.867c2.728,0,5.456-0.622,7.582-1.867
		C108.214,103.36,108.539,102.112,107.971,101.142z"/>
	<path fill="#7D402D" d="M90.838,82.218c0,2.249-1.823,4.072-4.072,4.072c-2.249,0-4.072-1.823-4.072-4.072
		c0-2.249,1.823-4.072,4.072-4.072C89.015,78.146,90.838,79.97,90.838,82.218z M112.555,78.146c-2.248,0-4.072,1.823-4.072,4.072
		c0,2.249,1.824,4.072,4.072,4.072c2.249,0,4.072-1.823,4.072-4.072C116.627,79.97,114.804,78.146,112.555,78.146z"/>
	<path fill="#FFF5F5" d="M91.517,80.183c0,1.125-0.912,2.036-2.036,2.036s-2.036-0.911-2.036-2.036s0.911-2.036,2.036-2.036
		S91.517,79.058,91.517,80.183z M115.27,78.146c-1.124,0-2.036,0.912-2.036,2.036s0.912,2.036,2.036,2.036s2.036-0.911,2.036-2.036
		S116.394,78.146,115.27,78.146z"/>
	<path fill="#EE4424" d="M131.218,65.117v8.958c0,0.3-0.243,0.543-0.543,0.543h-0.081c-1.443,0-7.579-9.019-10.518-11.625
		c-0.004-0.004-0.009-0.008-0.014-0.012c-0.764-0.677-1.877-0.774-2.761-0.265C113.335,65,107.062,66.474,100,66.474
		S86.664,65,82.698,62.716c-0.886-0.51-2.001-0.413-2.767,0.265c-0.005,0.004-0.009,0.008-0.014,0.012
		c-2.938,2.606-9.074,11.625-10.517,11.625h-0.075c-0.3,0-0.543-0.243-0.543-0.543v-8.958c0-17.241,13.977-31.218,31.218-31.218
		S131.218,47.875,131.218,65.117L131.218,65.117z"/>
	<path fill="#FC6930" d="M120.076,62.993c-0.005-0.004-0.01-0.008-0.014-0.012c-0.764-0.677-1.877-0.774-2.761-0.265
		C113.335,65,107.062,66.474,100,66.474c-5.907,0-11.208-1.008-15.123-2.683c2.874-13.639,8.884-23.576,18.268-29.736
		c15.765,1.577,28.073,14.881,28.073,31.061v8.958c0,0.3-0.243,0.543-0.543,0.543h-0.081
		C129.15,74.618,123.015,65.599,120.076,62.993L120.076,62.993z"/>
	<path fill="#056099" d="M147.776,143.124v4.635C135.687,160.24,118.749,168,100,168c-18.75,0-35.687-7.76-47.776-20.241v-4.635
		c0-6.386,5.557-11.481,12.352-11.45c0.045,0,0.09,0,0.135,0c7.572,0,14.42-2.914,19.344-7.613L100,132.438l15.946-8.378
		c4.923,4.699,11.771,7.613,19.343,7.613c0.045,0,0.091,0,0.136,0C142.22,131.642,147.776,136.738,147.776,143.124L147.776,143.124z
		"/>
	<path fill="#0571B3" d="M100,168c-13.795,0-26.609-4.201-37.234-11.393c-0.873-8.243,4.815-15.5,12.633-16.294
		c0.052-0.005,0.103-0.011,0.155-0.017c7.878-0.84,14.747-4.687,19.699-10.352l4.746,2.493l15.946-8.378
		c4.923,4.699,11.771,7.613,19.343,7.613c0.045,0,0.091,0,0.136,0c6.795-0.031,12.352,5.064,12.352,11.45v4.635
		C135.687,160.24,118.749,168,100,168z"/>
	<path fill="#FFF5F5" d="M120.296,127.477l-11.951,16.732c-0.589,0.824-1.841,0.735-2.309-0.163l-5.321-9.792
		c-0.309-0.567-1.123-0.567-1.431,0l-5.321,9.792c-0.468,0.898-1.72,0.987-2.309,0.163l-11.951-16.732
		c-0.182-0.254-0.112-0.608,0.152-0.774l4.198-2.643l14.7,7.594c0.781,0.404,1.71,0.404,2.492,0l14.7-7.594l4.198,2.643
		C120.408,126.869,120.478,127.223,120.296,127.477z"/>
	<path fill="#0571B3" d="M133.254,65.252v16.171c0,18.336-14.918,33.254-33.254,33.254c-0.113,0-0.227-0.001-0.339-0.003v-4.07
		c0.113,0,0.226,0.001,0.339,0.001c16.091,0,29.182-13.091,29.182-29.182V65.252c0-16.09-13.091-29.182-29.182-29.182
		S70.818,49.162,70.818,65.252v8.958h-4.072v-8.958c0-18.336,14.917-33.253,33.253-33.253S133.254,46.917,133.254,65.252
		L133.254,65.252z"/>
	<path fill="#012D4E" d="M71.497,79.459v5.394c0,1.489-1.208,2.697-2.697,2.697h-4.045c-2.979,0-5.394-2.415-5.394-5.394
		s2.415-5.394,5.394-5.394H68.8C70.29,76.763,71.497,77.97,71.497,79.459z M131.199,87.55h4.046c2.979,0,5.394-2.415,5.394-5.394
		s-2.415-5.394-5.394-5.394h-4.046c-1.489,0-2.696,1.208-2.696,2.697v5.393C128.503,86.342,129.711,87.55,131.199,87.55z
		 M100,108.006c-3.748,0-6.787,1.824-6.787,4.072s3.039,4.072,6.787,4.072s6.786-1.824,6.786-4.072S103.748,108.006,100,108.006z"/>
	<path fill="#059BC3" d="M71.497,75.415v13.484c0,1.49-1.208,2.697-2.697,2.697c-3.724,0-6.742-3.019-6.742-6.742V79.46
		c0-3.724,3.019-6.742,6.742-6.742C70.29,72.717,71.497,73.925,71.497,75.415z M131.199,91.595c3.724,0,6.742-3.019,6.742-6.742
		V79.46c0-3.724-3.019-6.742-6.742-6.742c-1.489,0-2.696,1.208-2.696,2.697v13.484C128.503,90.388,129.711,91.595,131.199,91.595z"
		/>
	<path fill="#013F69" d="M93.305,111.411c0.531-1.932,3.327-3.404,6.695-3.404c3.369,0,6.164,1.473,6.695,3.404
		c-1.706,0.748-4.075,1.211-6.695,1.211C97.38,112.622,95.011,112.159,93.305,111.411z M71.497,88.898V75.414
		c0-1.489-1.208-2.697-2.697-2.697c-0.503,0-0.994,0.055-1.465,0.16c-0.776,1.098-1.231,2.438-1.231,3.885V87.55
		c0,1.447,0.456,2.787,1.231,3.885c0.472,0.104,0.962,0.16,1.465,0.16C70.29,91.595,71.497,90.388,71.497,88.898z M131.199,72.717
		c0.504,0,0.994,0.056,1.466,0.16c0.775,1.098,1.231,2.438,1.231,3.885V87.55c0,1.447-0.456,2.788-1.231,3.885
		c-0.472,0.104-0.962,0.16-1.466,0.16c-1.489,0-2.696-1.208-2.696-2.697V75.414C128.503,73.925,129.711,72.717,131.199,72.717z"/>
</g>
</svg>
