<?xml version="1.0" encoding="utf-8"?>
<!-- Generator: Adobe Illustrator 16.0.0, SVG Export Plug-In . SVG Version: 6.00 Build 0)  -->
<!DOCTYPE svg PUBLIC "-//W3C//DTD SVG 1.1//EN" "http://www.w3.org/Graphics/SVG/1.1/DTD/svg11.dtd">
<svg version="1.1" id="Layer_1" xmlns="http://www.w3.org/2000/svg" xmlns:xlink="http://www.w3.org/1999/xlink" x="0px" y="0px"
	 width="243.276px" height="249.931px" viewBox="0 0 243.276 249.931" enable-background="new 0 0 243.276 249.931"
	 xml:space="preserve">
<g>
	<g>
		<path fill="#F76724" d="M115.985,205.937c-12.148,0-21.997,9.848-21.997,21.997c0,12.148,9.849,21.997,21.997,21.997
			c12.149,0,21.998-9.849,21.998-21.997C137.983,215.784,128.134,205.937,115.985,205.937z M170.979,205.937
			c-12.149,0-21.997,9.848-21.997,21.997c0,12.148,9.848,21.997,21.997,21.997c12.148,0,21.997-9.849,21.997-21.997
			C192.976,215.784,183.127,205.937,170.979,205.937z M50.994,61.954c-1.759-6.458-6.999-6.999-6.999-6.999L9.999,47.956
			C5.381,47.956,0,49.535,0,54.955s6,6.999,6,6.999l31.996,6.999c0,0,27.795,112.391,29.996,118.985
			c2.2,6.595,6.999,5.999,6.999,5.999s129.604,0,136.982,0c7.379,0,7.999-14.998,7.999-14.998H80.99
			C80.99,178.939,52.753,68.413,50.994,61.954z M237.97,78.952c-7.163,0-15.998,0-15.998,0s-8.5,54.993-65.991,54.993
			c-57.492,0-66.992-54.993-66.992-54.993H67.992l20.997,80.99h135.983l17.997-70.992C242.969,88.951,245.133,78.952,237.97,78.952z
			 M154.981,121.947c34.023,0,55.993-24.09,55.993-58.993c0-2.209-1.304-9.999-8.999-9.999c-9.471,0-9.999,9.999-9.999,9.999
			c0,32.742-24.985,39.995-36.995,39.995c-12.011,0-34.996-9.286-34.996-34.996c0-22.759,18.084-36.996,35.996-36.996
			c0,0,0,6.845,0,9.999c0,3.154,3.999,1,3.999,1s30.028-17.518,31.996-18.998c1.968-1.479,0-3,0-3S165.234,3.605,160.98,0.962
			s-4.999,1-4.999,1v8.999c-27.189,0-54.994,21.042-54.994,56.993C100.987,98.861,125.535,121.947,154.981,121.947z M147.67,67.573
			c0.397-0.623,0.717-1.276,0.959-1.958s0.363-1.444,0.363-2.287c0-1.684-0.449-2.998-1.348-3.941
			c-0.899-0.943-2.248-1.415-4.046-1.415c-1.313,0-2.377,0.261-3.188,0.783c-0.813,0.522-1.405,1.242-1.776,2.16
			c-0.372,0.918-0.558,1.983-0.558,3.196v0.91h3.526v-0.859c0-0.589,0.056-1.128,0.169-1.617c0.111-0.488,0.323-0.884,0.635-1.187
			s0.743-0.455,1.297-0.455c0.587,0,1.02,0.202,1.296,0.606s0.415,0.985,0.415,1.743c0,0.674-0.108,1.293-0.324,1.857
			c-0.216,0.564-0.492,1.107-0.829,1.629c-0.338,0.522-0.696,1.07-1.076,1.642l-5.187,7.807v2.476h10.45v-2.804h-6.379l4.304-6.366
			C146.84,68.835,147.273,68.196,147.67,67.573z M153.116,78.663h3.423v-3.461h-3.423V78.663z M169.62,58.705
			c-0.804-0.505-1.837-0.758-3.099-0.758s-2.295,0.252-3.099,0.758s-1.4,1.209-1.789,2.109c-0.389,0.901-0.584,1.95-0.584,3.146
			v9.069c0,1.162,0.203,2.189,0.609,3.082c0.406,0.893,1.012,1.592,1.815,2.097c0.804,0.505,1.819,0.758,3.047,0.758
			s2.243-0.253,3.047-0.758c0.804-0.505,1.408-1.204,1.814-2.097c0.406-0.893,0.609-1.92,0.609-3.082V63.96
			c0-1.196-0.194-2.244-0.583-3.146C171.02,59.914,170.423,59.21,169.62,58.705z M168.362,72.979c0,0.438-0.043,0.884-0.13,1.339
			s-0.259,0.842-0.519,1.162c-0.259,0.32-0.657,0.48-1.192,0.48c-0.519,0-0.907-0.16-1.167-0.48
			c-0.259-0.32-0.437-0.708-0.531-1.162c-0.096-0.455-0.143-0.901-0.143-1.339V64.01c0-0.471,0.039-0.938,0.116-1.402
			c0.078-0.463,0.246-0.854,0.506-1.175c0.259-0.32,0.665-0.48,1.219-0.48c0.553,0,0.959,0.16,1.219,0.48
			c0.259,0.32,0.428,0.712,0.506,1.175c0.077,0.463,0.116,0.931,0.116,1.402V72.979z"/>
	</g>
</g>
</svg>
