<?xml version="1.0" encoding="utf-8"?>
<!-- Generator: Adobe Illustrator 16.0.0, SVG Export Plug-In . SVG Version: 6.00 Build 0)  -->
<!DOCTYPE svg PUBLIC "-//W3C//DTD SVG 1.1//EN" "http://www.w3.org/Graphics/SVG/1.1/DTD/svg11.dtd">
<svg version="1.1" id="Layer_1" xmlns="http://www.w3.org/2000/svg" xmlns:xlink="http://www.w3.org/1999/xlink" x="0px" y="0px"
	 width="256px" height="153px" viewBox="0 0 256 153" enable-background="new 0 0 256 153" xml:space="preserve">
<path fill="#F76724" d="M158.709,49.743c-1.562-4.059-3.643-6.244-6.141-6.764c-3.746-0.729-7.389,1.353-10.822,6.452
	c-2.811,3.955-4.579,8.117-5.516,12.384c-0.521,2.394-0.729,4.995-0.729,7.597c0,3.018,0.624,6.244,1.873,9.47
	c1.561,4.059,3.643,6.244,6.14,6.765c2.602,0.521,5.411-0.624,8.429-3.33c3.852-3.435,6.453-8.533,7.91-15.401
	c0.52-2.394,0.832-4.995,0.729-7.701C160.582,56.195,159.957,52.969,158.709,49.743z"/>
<path fill="#F76724" d="M217.817,42.979c-3.747-0.729-7.389,1.353-10.823,6.452c-2.81,3.955-4.578,8.117-5.516,12.384
	c-0.52,2.394-0.729,4.995-0.729,7.597c0,3.018,0.625,6.244,1.873,9.47c1.562,4.059,3.643,6.244,6.141,6.765
	c2.602,0.521,5.411-0.624,8.43-3.33c3.85-3.435,6.451-8.533,7.908-15.401c0.521-2.394,0.729-4.995,0.729-7.701
	c0-3.018-0.624-6.244-1.873-9.47C222.396,45.685,220.314,43.499,217.817,42.979z"/>
<path fill="#F76724" d="M232.138,0H23.759C10.571,0-0.104,10.78,0.001,23.862v79.542c0,13.188,10.675,23.863,23.862,23.863h98.695
	l45.108,25.118l-10.256-25.118h74.728c13.187,0,23.862-10.676,23.862-23.863V23.862C256,10.675,245.324,0,232.138,0z
	 M106.051,104.377c0.208,2.602-0.208,4.892-1.249,6.869c-1.249,2.289-3.122,3.537-5.516,3.746c-2.706,0.208-5.516-1.041-8.221-3.851
	c-9.678-9.886-17.379-24.663-22.999-44.332C61.303,80.13,56.308,90.12,53.082,96.78c-6.14,11.76-11.343,17.796-15.713,18.107
	c-2.81,0.208-5.204-2.185-7.285-7.181c-5.308-13.633-11.031-39.961-17.171-78.985c-0.416-2.706,0.208-5.099,1.665-6.972
	c1.457-1.977,3.643-3.018,6.556-3.226c5.307-0.416,8.325,2.082,9.054,7.493c3.226,21.75,6.764,40.169,10.511,55.259l22.79-43.396
	c2.082-3.955,4.683-6.036,7.805-6.244c4.579-0.312,7.389,2.602,8.534,8.742c2.602,13.84,5.932,25.6,9.886,35.59
	c2.706-26.432,7.284-45.476,13.736-57.236c1.561-2.914,3.851-4.371,6.868-4.579c2.394-0.208,4.579,0.521,6.556,2.082
	c1.978,1.561,3.018,3.538,3.226,5.932c0.104,1.873-0.208,3.434-1.041,4.995c-4.059,7.493-7.389,20.084-10.094,37.567
	C106.364,81.691,105.427,94.907,106.051,104.377z M169.947,88.039c-6.244,10.406-14.361,15.609-24.455,15.609
	c-1.77,0-3.643-0.208-5.619-0.624c-7.389-1.562-12.905-5.516-16.651-12.071c-3.33-5.724-4.995-12.592-4.995-20.605
	c0-10.719,2.706-20.501,8.117-29.347c6.347-10.406,14.464-15.61,24.455-15.61c1.77,0,3.643,0.208,5.62,0.625
	c7.284,1.561,12.903,5.516,16.65,12.072c3.33,5.62,4.995,12.384,4.995,20.501C178.064,69.307,175.359,79.09,169.947,88.039z
	 M235.092,88.039c-6.244,10.406-14.361,15.609-24.455,15.609c-1.77,0-3.643-0.208-5.619-0.624
	c-7.389-1.562-12.904-5.516-16.65-12.071c-3.33-5.724-4.996-12.592-4.996-20.605c0-10.719,2.706-20.501,8.117-29.347
	c6.349-10.406,14.465-15.61,24.455-15.61c1.77,0,3.643,0.208,5.62,0.625c7.389,1.561,12.904,5.516,16.65,12.072
	c3.33,5.62,5.099,12.384,4.995,20.501C243.209,69.307,240.504,79.09,235.092,88.039z"/>
</svg>
