<?xml version="1.0" encoding="utf-8"?>
<!-- Generator: Adobe Illustrator 16.0.0, SVG Export Plug-In . SVG Version: 6.00 Build 0)  -->
<!DOCTYPE svg PUBLIC "-//W3C//DTD SVG 1.1//EN" "http://www.w3.org/Graphics/SVG/1.1/DTD/svg11.dtd">
<svg version="1.1" id="Layer_1" xmlns="http://www.w3.org/2000/svg" xmlns:xlink="http://www.w3.org/1999/xlink" x="0px" y="0px"
	 width="200px" height="200px" viewBox="0 0 200 200" enable-background="new 0 0 200 200" xml:space="preserve">
<g>
	<path fill="#FFFFFF" d="M100,195c-52.383,0-95-42.617-95-95C5,47.617,47.617,5,100,5s95,42.617,95,95
		C195,152.382,152.383,195,100,195z"/>
	<path fill="#F3F3F3" d="M100,10c49.626,0,90,40.374,90,90c0,49.625-40.374,90-90,90s-90-40.375-90-90C10,50.374,50.374,10,100,10
		 M100,0C44.771,0,0,44.771,0,100c0,55.228,44.771,100,100,100c55.229,0,100-44.771,100-100C200,44.771,155.229,0,100,0L100,0z"/>
</g>
<g>
	<circle fill="#F24976" cx="99.369" cy="100.318" r="68.102"/>
	<path fill="#EEF6FF" d="M62.678,97.817c-9.598,0-18.322-3.805-24.745-9.985v41.905c4.834,10.076,12.077,18.78,20.979,25.364h80.916
		c7.188-5.315,13.291-12.014,17.921-19.698V69.532H97.615C94.187,85.672,79.825,97.817,62.678,97.817z"/>
	<path fill="#D9EAFC" d="M37.932,87.833v41.905c1.587,3.307,3.437,6.463,5.516,9.447V92.188
		C41.467,90.918,39.621,89.457,37.932,87.833z"/>
	<path fill="#293D7C" d="M154.746,51.191H96.693c1.105,3.441,1.705,7.104,1.705,10.907c0,2.647-0.292,5.227-0.842,7.712h60.193
		V54.195C157.749,52.543,156.396,51.191,154.746,51.191z"/>
	<path fill="#E26693" d="M132.4,62.453c-0.596,0-1.175-0.24-1.594-0.657c-0.419-0.421-0.658-1-0.658-1.594
		c0-0.592,0.239-1.171,0.658-1.592c0.419-0.42,1-0.66,1.594-0.66c0.592,0,1.175,0.24,1.591,0.66c0.421,0.421,0.661,1,0.661,1.592
		c0,0.594-0.24,1.173-0.661,1.594C133.575,62.213,132.992,62.453,132.4,62.453z"/>
	<path fill="#FFAF10" d="M139.785,62.453c-0.591,0-1.174-0.24-1.592-0.661c-0.42-0.417-0.66-0.997-0.66-1.59
		c0-0.592,0.24-1.171,0.66-1.592c0.421-0.42,1.001-0.66,1.592-0.66c0.596,0,1.174,0.24,1.595,0.66c0.418,0.421,0.657,1,0.657,1.592
		c0,0.591-0.239,1.173-0.657,1.59C140.959,62.213,140.381,62.453,139.785,62.453z"/>
	<path fill="#37C47A" d="M147.173,62.453c-0.594,0-1.174-0.24-1.591-0.657c-0.42-0.421-0.661-1-0.661-1.594
		c0-0.592,0.241-1.171,0.661-1.592c0.417-0.42,0.997-0.66,1.591-0.66c0.592,0,1.175,0.24,1.592,0.66
		c0.421,0.421,0.661,1,0.661,1.592c0,0.594-0.24,1.173-0.661,1.594C148.344,62.213,147.765,62.453,147.173,62.453z"/>
	<path fill="#FFAF10" d="M63.169,139.14c0,0.458-0.375,0.834-0.833,0.834h-9.001c-0.458,0-0.834-0.376-0.834-0.834v-14.336
		c0-0.457,0.376-0.834,0.834-0.834h9.001c0.458,0,0.833,0.377,0.833,0.834V139.14z"/>
	<path fill="#EF9614" d="M58.016,139.14v-14.336c0-0.457,0.375-0.834,0.834-0.834h-5.516c-0.458,0-0.834,0.377-0.834,0.834v14.336
		c0,0.458,0.376,0.834,0.834,0.834h5.517C58.392,139.974,58.016,139.598,58.016,139.14z"/>
	<path fill="#FFAF10" d="M76.504,139.14c0,0.458-0.375,0.834-0.833,0.834h-9c-0.459,0-0.834-0.376-0.834-0.834v-33.005
		c0-0.458,0.375-0.834,0.834-0.834h9c0.459,0,0.833,0.376,0.833,0.834V139.14z"/>
	<path fill="#EF9614" d="M71.352,139.14v-33.005c0-0.458,0.375-0.834,0.834-0.834H66.67c-0.459,0-0.834,0.376-0.834,0.834v33.005
		c0,0.458,0.375,0.834,0.834,0.834h5.516C71.727,139.974,71.352,139.598,71.352,139.14z"/>
	<path fill="#37C47A" d="M89.839,139.14c0,0.458-0.376,0.834-0.834,0.834h-9c-0.459,0-0.834-0.376-0.834-0.834v-37.006
		c0-0.457,0.375-0.833,0.834-0.833h9c0.458,0,0.834,0.376,0.834,0.833V139.14z"/>
	<path fill="#02AF8E" d="M84.687,139.14v-37.006c0-0.457,0.376-0.833,0.834-0.833h-5.516c-0.459,0-0.834,0.376-0.834,0.833v37.006
		c0,0.458,0.375,0.832,0.834,0.832h5.516C85.062,139.974,84.687,139.598,84.687,139.14z"/>
	<g>
		<path fill="#37C47A" d="M103.175,139.14c0,0.458-0.376,0.834-0.833,0.834H93.34c-0.458,0-0.833-0.376-0.833-0.834v-32.337
			c0-0.461,0.375-0.835,0.833-0.835h9.002c0.457,0,0.833,0.374,0.833,0.835V139.14z"/>
		<path fill="#37C47A" d="M116.511,139.14c0,0.458-0.376,0.834-0.835,0.834h-9c-0.459,0-0.835-0.376-0.835-0.834v-39.006
			c0-0.458,0.376-0.834,0.835-0.834h9c0.459,0,0.835,0.375,0.835,0.834V139.14z"/>
	</g>
	<g>
		<path fill="#02AF8E" d="M98.021,139.14v-32.337c0-0.461,0.376-0.835,0.835-0.835H93.34c-0.458,0-0.833,0.374-0.833,0.835v32.337
			c0,0.458,0.375,0.832,0.833,0.832h5.517C98.397,139.974,98.021,139.598,98.021,139.14z"/>
		<path fill="#02AF8E" d="M111.357,139.14v-39.006c0-0.458,0.376-0.834,0.833-0.834h-5.515c-0.459,0-0.835,0.375-0.835,0.834v39.006
			c0,0.458,0.376,0.832,0.835,0.832h5.515C111.733,139.974,111.357,139.598,111.357,139.14z"/>
	</g>
	<g>
		<path fill="#69CDFF" d="M129.844,139.14c0,0.458-0.374,0.834-0.833,0.834h-9.001c-0.457,0-0.833-0.376-0.833-0.834V91.467
			c0-0.459,0.376-0.834,0.833-0.834h9.001c0.459,0,0.833,0.375,0.833,0.834V139.14z"/>
		<path fill="#69CDFF" d="M143.18,139.14c0,0.458-0.375,0.834-0.833,0.834h-9.001c-0.459,0-0.834-0.376-0.834-0.834V87.466
			c0-0.458,0.375-0.834,0.834-0.834h9.001c0.458,0,0.833,0.375,0.833,0.834V139.14z"/>
	</g>
	<g>
		<path fill="#52BBEF" d="M124.692,139.14V91.467c0-0.459,0.375-0.834,0.834-0.834h-5.517c-0.457,0-0.833,0.375-0.833,0.834v47.673
			c0,0.458,0.376,0.834,0.833,0.834h5.517C125.067,139.974,124.692,139.598,124.692,139.14z"/>
		<path fill="#52BBEF" d="M138.026,139.14V87.466c0-0.458,0.376-0.834,0.835-0.834h-5.516c-0.459,0-0.834,0.375-0.834,0.834v51.674
			c0,0.458,0.375,0.834,0.834,0.834h5.516C138.402,139.974,138.026,139.598,138.026,139.14z"/>
	</g>
	<path fill="#91E0E8" d="M62.678,98.096c-19.849,0-35.998-16.148-35.998-35.998c0-19.849,16.149-35.998,35.998-35.998
		s35.998,16.148,35.998,35.998C98.676,81.948,82.527,98.096,62.678,98.096z"/>
	<circle fill="#5DC1D8" cx="62.677" cy="62.098" r="28.353"/>
	<path fill="#28A5A5" d="M39.84,62.098c0-14.728,11.23-26.833,25.596-28.22c-0.908-0.087-1.828-0.134-2.758-0.134
		c-15.659,0-28.354,12.694-28.354,28.354c0,15.659,12.694,28.353,28.354,28.353c0.93,0,1.85-0.046,2.758-0.133
		C51.07,88.931,39.84,76.827,39.84,62.098z"/>
	<path fill="#A53535" d="M62.678,37.545c-7.094,0-12.845,2.131-12.845,9.226v4.734c0-7.093,5.751-9.225,12.845-9.225
		s12.844,2.131,12.844,9.225v-4.734C75.522,39.677,69.772,37.545,62.678,37.545z"/>
	<path fill="#FFFFFF" d="M75.615,73.405h-8.944v1.547c0,2.201-1.792,3.993-3.993,3.993c-2.203,0-3.994-1.792-3.994-3.993v-1.547
		H49.74c-2.6,0-4.706,2.106-4.706,4.705v6.184c4.843,3.854,10.973,6.158,17.643,6.158c6.67,0,12.8-2.305,17.642-6.158V78.11
		C80.32,75.511,78.214,73.405,75.615,73.405z"/>
	<path fill="#D9EAFC" d="M50.551,78.11c0-2.599,2.106-4.705,4.705-4.705H49.74c-2.6,0-4.706,2.106-4.706,4.705v6.184
		c1.691,1.346,3.542,2.498,5.516,3.434V78.11z"/>
	<g>
		<path fill="#FFDD8D" d="M62.678,72.454c-1.5,0-2.937-0.265-4.271-0.749v3.247c0,2.359,1.912,4.271,4.271,4.271
			c2.358,0,4.271-1.912,4.271-4.271v-3.247C65.615,72.189,64.177,72.454,62.678,72.454z"/>
		<path fill="#FFDD8D" d="M50.111,59.887v-6.648c-2.059,0.501-3.59,2.354-3.59,4.566v1.361c0,2.439,1.855,4.445,4.233,4.682
			C50.339,62.603,50.111,61.271,50.111,59.887z"/>
		<path fill="#FFDD8D" d="M75.244,53.239v6.648c0,1.384-0.229,2.715-0.644,3.961c2.377-0.237,4.233-2.242,4.233-4.682v-1.361
			C78.834,55.592,77.304,53.74,75.244,53.239z"/>
	</g>
	<path fill="#FFE2B8" d="M75.522,59.887c0,7.094-5.75,12.845-12.844,12.845l0,0c-7.094,0-12.845-5.751-12.845-12.845v-8.659
		c0-7.094,5.751-9.226,12.845-9.226l0,0c7.094,0,12.844,2.132,12.844,9.226V59.887L75.522,59.887z"/>
	<path fill="#FFC987" d="M53.542,59.887v-8.659c0-6.464,4.775-8.807,10.99-9.172c-0.606-0.036-1.224-0.054-1.854-0.054
		c-7.094,0-12.845,2.132-12.845,9.226v8.659c0,7.094,5.751,12.845,12.845,12.845c0.63,0,1.248-0.047,1.854-0.135
		C58.317,71.698,53.542,66.351,53.542,59.887z"/>
</g>
</svg>
