<?xml version="1.0" encoding="utf-8"?>
<!-- Generator: Adobe Illustrator 16.0.0, SVG Export Plug-In . SVG Version: 6.00 Build 0)  -->
<!DOCTYPE svg PUBLIC "-//W3C//DTD SVG 1.1//EN" "http://www.w3.org/Graphics/SVG/1.1/DTD/svg11.dtd">
<svg version="1.1" id="Layer_1" xmlns="http://www.w3.org/2000/svg" xmlns:xlink="http://www.w3.org/1999/xlink" x="0px" y="0px"
	 width="200px" height="200px" viewBox="0 0 200 200" enable-background="new 0 0 200 200" xml:space="preserve">
<g>
	<path fill="#FFFFFF" d="M100,195c-52.383,0-95-42.617-95-95C5,47.617,47.617,5,100,5s95,42.617,95,95
		C195,152.382,152.383,195,100,195z"/>
	<path fill="#F3F3F3" d="M100,10c49.626,0,90,40.374,90,90c0,49.625-40.374,90-90,90s-90-40.375-90-90C10,50.374,50.374,10,100,10
		 M100,0C44.771,0,0,44.771,0,100c0,55.228,44.771,100,100,100c55.229,0,100-44.771,100-100C200,44.771,155.229,0,100,0L100,0z"/>
</g>
<circle fill="#F1333F" cx="99.37" cy="100.319" r="68.103"/>
<g>
	<path fill="#FFFFFF" d="M145.639,138.542c0-4.709,3.929-8.641,8.64-8.641c0.937,0,1.84,0.158,2.689,0.443V53.787H40.982v88.047
		h105.325C145.878,140.814,145.639,139.701,145.639,138.542z"/>
	<g>
		<path fill="#E0E0E0" d="M145.639,138.542c0-4.709,3.929-8.641,8.64-8.641c0.938,0,1.843,0.158,2.692,0.445V53.787H98.978v88.047
			h47.33C145.878,140.814,145.639,139.701,145.639,138.542z"/>
		<rect x="40.982" y="53.787" fill="#E0E0E0" width="115.985" height="11.329"/>
	</g>
	<rect x="98.978" y="53.787" fill="#C0C0C0" width="57.993" height="11.329"/>
	<g>
		<circle fill="#FF6838" cx="47.97" cy="59.449" r="3.14"/>
		<circle fill="#FF6838" cx="57.392" cy="59.449" r="3.14"/>
		<circle fill="#FF6838" cx="66.813" cy="59.449" r="3.14"/>
	</g>
	<path fill="#005C83" d="M149.316,109.302l4.305-4.305c-2.46-3.52-5.526-6.585-9.046-9.046l-4.304,4.304
		c-3.058-1.982-6.493-3.431-10.174-4.216V89.95c-2.078-0.367-4.214-0.56-6.397-0.56c-2.182,0-4.319,0.193-6.396,0.56v6.089
		c-3.68,0.785-7.116,2.233-10.174,4.216l-4.303-4.304c-3.521,2.461-6.586,5.525-9.047,9.044l4.305,4.307
		c-1.981,3.055-3.432,6.49-4.217,10.174H87.78c-0.368,2.076-0.56,4.213-0.56,6.395s0.191,4.32,0.56,6.396h6.088
		c0.785,3.682,2.235,7.117,4.217,10.174l-4.305,4.305c2.461,3.52,5.526,6.584,9.047,9.045l4.303-4.303
		c3.058,1.982,6.494,3.43,10.174,4.215v6.09c2.077,0.367,4.215,0.561,6.396,0.561c2.184,0,4.319-0.193,6.397-0.561v-6.09
		c3.681-0.785,7.116-2.232,10.174-4.215l4.304,4.303c3.52-2.461,6.586-5.525,9.046-9.045l-4.305-4.305
		c1.982-3.057,3.431-6.492,4.218-10.174h6.088c0.368-2.076,0.56-4.215,0.56-6.396s-0.191-4.318-0.56-6.395h-6.088
		C152.747,115.794,151.299,112.359,149.316,109.302z M123.7,139.345c-7.44,0-13.472-6.033-13.472-13.475
		c0-7.439,6.031-13.473,13.472-13.473c7.442,0,13.475,6.033,13.475,13.473C137.175,133.312,131.141,139.345,123.7,139.345z"/>
	<path fill="#00263F" d="M159.622,132.267c0.368-2.076,0.56-4.213,0.56-6.396c0-2.182-0.191-4.318-0.56-6.395h-6.09
		c-0.785-3.682-2.233-7.117-4.216-10.174l4.305-4.305c-2.46-3.52-5.526-6.585-9.046-9.046l-4.304,4.304
		c-3.058-1.982-6.493-3.431-10.174-4.216V89.95c-2.078-0.367-4.214-0.56-6.397-0.56c-0.142,0-0.28,0.008-0.422,0.01v23.01
		c0.142-0.006,0.28-0.012,0.422-0.012c7.442,0,13.475,6.033,13.475,13.473c0,7.441-6.032,13.475-13.475,13.475
		c-0.142,0-0.28-0.008-0.422-0.012v23.01c0.142,0.002,0.28,0.01,0.422,0.01c2.184,0,4.319-0.193,6.397-0.561v-6.09
		c3.681-0.785,7.116-2.232,10.174-4.215l4.304,4.303c3.52-2.461,6.586-5.525,9.046-9.045l-4.305-4.305
		c1.982-3.057,3.431-6.492,4.216-10.174H159.622L159.622,132.267z"/>
	<g>
		<path fill="#005C83" d="M45.5,94.363l8.714-22.662h4.245l8.682,22.662h-5.555l-1.755-5.075h-7.055l-1.723,5.075H45.5z
			 M56.319,77.255l-2.712,8.427h5.33L56.319,77.255z"/>
		<path fill="#005C83" d="M69.215,94.363V71.701h9.671c1.086,0,2.08,0.222,2.985,0.67c0.905,0.446,1.681,1.032,2.329,1.755
			c0.65,0.724,1.161,1.543,1.533,2.458c0.373,0.917,0.56,1.841,0.56,2.777c0,1.001-0.177,1.959-0.527,2.873
			c-0.351,0.917-0.841,1.736-1.468,2.459c-0.628,0.724-1.389,1.298-2.282,1.723c-0.895,0.427-1.884,0.639-2.969,0.639h-4.598v7.309
			H69.215L69.215,94.363z M74.449,82.49h4.278c0.616,0,1.148-0.266,1.596-0.798c0.446-0.532,0.67-1.309,0.67-2.331
			c0-0.532-0.069-0.99-0.208-1.373s-0.324-0.702-0.56-0.957c-0.233-0.256-0.499-0.441-0.796-0.56
			c-0.299-0.117-0.597-0.175-0.894-0.175h-4.087V82.49L74.449,82.49z"/>
		<path fill="#005C83" d="M89.005,94.363V71.701h5.234v22.662H89.005z"/>
	</g>
</g>
</svg>
