<?xml version="1.0" encoding="utf-8"?>
<!-- Generator: Adobe Illustrator 16.0.0, SVG Export Plug-In . SVG Version: 6.00 Build 0)  -->
<!DOCTYPE svg PUBLIC "-//W3C//DTD SVG 1.1//EN" "http://www.w3.org/Graphics/SVG/1.1/DTD/svg11.dtd">
<svg version="1.1" id="Layer_1" xmlns="http://www.w3.org/2000/svg" xmlns:xlink="http://www.w3.org/1999/xlink" x="0px" y="0px"
	 width="200px" height="200px" viewBox="0 0 200 200" enable-background="new 0 0 200 200" xml:space="preserve">
<g>
	<path fill="#FFFFFF" d="M100,195c-52.383,0-95-42.617-95-95C5,47.617,47.617,5,100,5s95,42.617,95,95
		C195,152.382,152.383,195,100,195z"/>
	<path fill="#F3F3F3" d="M100,10c49.626,0,90,40.374,90,90c0,49.625-40.374,90-90,90s-90-40.375-90-90C10,50.374,50.374,10,100,10
		 M100,0C44.771,0,0,44.771,0,100c0,55.228,44.771,100,100,100c55.229,0,100-44.771,100-100C200,44.771,155.229,0,100,0L100,0z"/>
</g>
<g>
	<path fill="#442463" d="M168.103,100c0,11.647-2.924,22.61-8.077,32.198c-7.781,14.476-20.648,25.814-36.209,31.624
		c-2.771,1.034-5.629,1.896-8.559,2.566c-4.903,1.122-10.012,1.714-15.258,1.714c-37.612,0-68.103-30.489-68.103-68.103
		c0-37.612,30.49-68.102,68.103-68.102S168.103,62.388,168.103,100z"/>
	<path fill="#EDEDED" d="M160.854,100.258c0,26.104-16.543,48.344-39.714,56.812c-6.474,2.366-13.465,3.655-20.756,3.655
		c-0.697,0-1.393-0.011-2.085-0.036c-3.772-0.128-7.453-0.601-11.02-1.384c-27.096-5.985-47.368-30.149-47.368-59.047
		c0-29.609,21.279-54.248,49.381-59.454c3.594-0.67,7.302-1.019,11.091-1.019c24.851,0,46.201,14.994,55.499,36.429
		c0.045,0.103,0.09,0.205,0.133,0.308c0.028,0.068,0.057,0.131,0.085,0.198c0.097,0.226,0.188,0.451,0.282,0.679
		c0.062,0.152,0.123,0.305,0.184,0.458c0.087,0.212,0.17,0.426,0.251,0.64c0.275,0.706,0.536,1.42,0.78,2.14
		c0.072,0.209,0.143,0.415,0.209,0.624c0.069,0.208,0.139,0.419,0.206,0.631c0.094,0.294,0.186,0.592,0.275,0.889
		c0.058,0.189,0.113,0.375,0.166,0.564c0.069,0.233,0.136,0.467,0.2,0.701c0.137,0.495,0.268,0.989,0.392,1.487
		c0.048,0.186,0.092,0.375,0.14,0.561c0.014,0.07,0.03,0.136,0.047,0.201c0.048,0.199,0.092,0.396,0.136,0.598
		c0.057,0.239,0.109,0.481,0.159,0.72c0.078,0.367,0.156,0.734,0.225,1.104c0.062,0.322,0.12,0.645,0.179,0.97
		c0.027,0.153,0.055,0.309,0.08,0.465C160.564,93.437,160.854,96.815,160.854,100.258z"/>
	<path fill="#D6D6D6" d="M78.04,150.064l9.239,9.239c-27.096-5.985-47.368-30.148-47.368-59.047
		c0-29.608,21.279-54.248,49.381-59.454l-10.141,8.915l-8.061,13.064L65.81,83.906v26.963l3.614,21.682L78.04,150.064z"/>
	<path fill="#D6D6D6" d="M160.011,90.132c-0.025-0.149-0.053-0.301-0.08-0.448c-0.059-0.325-0.117-0.647-0.179-0.97
		c-0.068-0.369-0.146-0.736-0.225-1.104c-0.05-0.238-0.103-0.48-0.159-0.72c-0.044-0.201-0.088-0.398-0.136-0.598
		c-0.017-0.064-0.033-0.131-0.047-0.201c-0.048-0.186-0.092-0.375-0.14-0.561c-0.124-0.498-0.255-0.992-0.392-1.487
		c-0.064-0.234-0.131-0.468-0.2-0.701c-0.053-0.189-0.108-0.375-0.166-0.564c-0.09-0.297-0.182-0.595-0.275-0.889
		c-0.067-0.212-0.137-0.423-0.206-0.631c-0.066-0.209-0.137-0.415-0.209-0.624c-0.244-0.719-0.505-1.434-0.78-2.14
		c-0.081-0.214-0.164-0.428-0.251-0.64c-0.061-0.153-0.122-0.306-0.184-0.458c-0.094-0.228-0.186-0.453-0.282-0.679
		c-0.028-0.066-0.057-0.13-0.085-0.198c-0.043-0.103-0.088-0.205-0.133-0.308c-0.045-0.101-0.089-0.204-0.136-0.303
		c-14.261,5.857-36.84-0.473-36.84-0.473s-16.2,12.172-40.726,12.172c0,0-5.688,46.398,20.053,73.064
		c0.023,0,0.045,0.006,0.064,0.014c0.692,0.025,1.388,0.036,2.085,0.036c7.291,0,14.282-1.289,20.756-3.655
		c-1.256-4.489-2.549-9.189-2.933-9.601c-8.027-8.625-28.345-8.328-30.982-18.396c-0.411-1.551-0.771-3.091-1.087-4.614
		c-1.718-8.272-2.179-15.997-2.192-21.84c-0.003-1.757,0.035-3.344,0.091-4.723c0.156-3.723,0.445-5.938,0.445-5.938
		c5.976,0,11.461-0.677,16.333-1.701c0.812-0.169,1.606-0.35,2.38-0.536c13.715-3.315,22.012-9.147,22.012-9.147
		s2.297,1.612,6.466,3.625c1.477,0.712,3.188,1.474,5.117,2.229c5.885,2.318,13.79,4.596,23.183,5.304
		c-0.008-0.194,0.003-0.758,0.039-1.581V90.132z"/>
	<path fill="#583377" d="M66.138,130.935c-4.678,1.769-9.21,3.898-13.556,6.362c1.042,1.343,2.14,2.642,3.289,3.891
		c3.81-2.109,7.768-3.948,11.842-5.499c0.739,2.03,1.546,4.005,2.419,5.914c2.908,6.359,6.474,11.709,10.475,15.813
		c2.172,0.751,4.397,1.386,6.673,1.888c2.15,0.475,4.343,0.833,6.572,1.073c-0.107-0.041-0.213-0.078-0.319-0.121
		c-8.793-3.452-16.208-13.188-20.943-26.267c3.569-1.132,7.213-2.051,10.917-2.737c4.702-0.877,9.526-1.381,14.375-1.511v30.93
		c0.831,0.033,1.664,0.057,2.503,0.057c0.838,0,1.672-0.022,2.501-0.056v-30.933c8.71,0.23,17.214,1.671,25.322,4.231
		c-1.327,3.646-2.877,7.068-4.643,10.208c-4.693,8.339-10.444,13.89-16.631,16.194c4.604-0.496,9.053-1.509,13.287-2.979
		c2.837-2.925,5.467-6.501,7.825-10.693c1.913-3.4,3.59-7.104,5.019-11.045c4.074,1.545,8.031,3.389,11.851,5.505
		c1.146-1.246,2.24-2.542,3.28-3.883c-3.238-1.834-6.586-3.488-10.042-4.951c-1.168-0.493-2.345-0.957-3.526-1.402
		c2.58-8.631,4.041-18.209,4.25-28.164h21.921c0.034-0.831,0.056-1.664,0.056-2.503c0-0.838-0.021-1.672-0.056-2.501h-21.921
		c-0.208-9.899-1.653-19.423-4.206-28.016c1.167-0.442,2.328-0.899,3.482-1.386c3.488-1.476,6.866-3.147,10.133-5.001
		c-1.036-1.343-2.126-2.641-3.268-3.891c-3.835,2.132-7.809,3.988-11.899,5.544c-1.441-3.998-3.136-7.751-5.073-11.194
		c-2.358-4.192-4.988-7.77-7.825-10.693c-4.234-1.47-8.683-2.483-13.287-2.98c6.187,2.305,11.938,7.856,16.631,16.195
		c1.789,3.182,3.359,6.655,4.697,10.358c-8.125,2.571-16.646,4.017-25.376,4.248V39.841c-0.83-0.034-1.664-0.056-2.501-0.056
		c-0.839,0-1.672,0.02-2.503,0.054v31.104c-5.881-0.159-11.737-0.874-17.441-2.132c-2.675-0.591-5.315-1.306-7.918-2.135
		c0.801-2.225,1.685-4.365,2.646-6.401c4.888-10.336,11.495-17.45,18.682-20.137c-1.537,0.166-3.058,0.386-4.558,0.666
		c-2.981,0.553-5.887,1.326-8.697,2.298c-3.816,3.915-7.236,8.969-10.077,14.976c-1.038,2.198-1.989,4.504-2.851,6.904
		c-4.095-1.563-8.07-3.42-11.897-5.547c-1.146,1.251-2.237,2.55-3.275,3.895c4.364,2.482,8.918,4.63,13.618,6.412
		c-2.556,8.629-4.014,18.208-4.226,28.016H39.964c-0.034,0.83-0.053,1.664-0.053,2.501c0,0.839,0.019,1.672,0.052,2.503h21.922
		C62.093,112.737,63.539,122.277,66.138,130.935z M102.885,75.948c9.225-0.231,18.24-1.749,26.927-4.516
		c2.37,8.056,3.717,17.001,3.922,26.323h-30.849V75.948z M102.885,102.759h30.849c-0.206,9.38-1.568,18.38-3.967,26.475
		c-8.673-2.758-17.674-4.271-26.882-4.502V102.759z M70.971,71.432c2.757,0.878,5.556,1.638,8.391,2.264
		c6.059,1.337,12.275,2.092,18.52,2.25v21.809H67.03C67.239,88.522,68.598,79.526,70.971,71.432z M97.881,102.759v21.975
		c-5.156,0.132-10.288,0.666-15.29,1.599c-3.923,0.726-7.782,1.701-11.563,2.902c-2.367-8.01-3.784-17.025-3.998-26.476H97.881z"/>
	<path fill="#FF4F9B" d="M164.548,89.176c-1.946,0-3.839-0.073-5.68-0.203c-3.524-0.253-6.841-0.729-9.921-1.349
		c-15.56-3.11-25.131-9.834-25.131-9.834s-5.398,3.792-14.677,7c-6.8,2.352-15.677,4.387-26.049,4.387
		c0,0-2.546,19.413,3.475,39.735c3.011,10.173,8.17,20.572,16.865,28.878c1.962,1.874,4.099,3.642,6.44,5.276
		c1.692,1.182,3.485,2.29,5.387,3.322c19.374-4.438,35.6-17.135,44.768-34.19C167.371,110.738,164.548,89.176,164.548,89.176z"/>
	<path fill="#E8388C" d="M123.816,77.79v86.032c-2.771,1.034-5.629,1.896-8.559,2.566c-1.901-1.032-3.694-2.141-5.387-3.322
		c-2.342-1.635-4.479-3.402-6.44-5.276c-8.695-8.306-13.854-18.705-16.865-28.878c-6.021-20.322-3.475-39.735-3.475-39.735
		c10.372,0,19.249-2.035,26.049-4.387C118.418,81.582,123.816,77.79,123.816,77.79z"/>
	<path fill="#FCDA42" d="M152.628,121.433c-4.319,18.698-14.004,31.44-28.812,37.931c-14.805-6.49-24.489-19.232-28.809-37.931
		c-2.001-8.667-2.418-16.901-2.368-22.697c14.065-1.517,24.962-6.082,31.177-9.303c6.221,3.221,17.114,7.786,31.183,9.303
		C155.047,104.53,154.632,112.763,152.628,121.433z"/>
	<path fill="#F4A441" d="M123.816,89.433v69.931c-14.805-6.49-24.489-19.232-28.809-37.931c-2.001-8.667-2.418-16.901-2.368-22.697
		C106.705,97.219,117.602,92.654,123.816,89.433z"/>
</g>
</svg>
