<svg width="108" height="170" viewBox="0 0 108 170" fill="none" xmlns="http://www.w3.org/2000/svg">
<path fill-rule="evenodd" clip-rule="evenodd" d="M0 169.477L108 1.01016e-05L0 0V169.477Z" fill="#E90F01"/>
<path d="M34.4381 57.553C35.1424 57.553 35.8103 57.553 36.4816 57.553C39.2227 57.553 41.9638 57.5496 44.7017 57.5563C45.5481 57.5596 46.2161 58.0258 46.4971 58.7764C46.7749 59.5204 46.593 60.4065 45.9482 60.8694C45.5878 61.1273 45.0951 61.3257 44.662 61.329C40.628 61.3621 36.5907 61.3555 32.5567 61.3456C31.3829 61.3423 30.619 60.5454 30.6157 59.3616C30.6124 58.3366 30.6157 57.3116 30.6455 56.2865C30.6554 55.9526 30.5463 55.7443 30.2818 55.5326C27.1207 53.0362 25.2757 49.7759 24.816 45.7849C24.0456 39.0693 28.1358 32.734 34.5373 30.6145C42.9128 27.837 51.8008 33.2134 53.1962 41.9526C53.7186 45.2195 53.1764 48.3409 51.533 51.2407C51.08 52.0376 50.2831 52.3815 49.4995 52.1401C48.3984 51.8029 47.9222 50.6158 48.4976 49.5775C49.4796 47.8052 49.9459 45.9106 49.9128 43.8837C49.8301 38.8544 45.9019 34.3244 40.9123 33.5209C35.1358 32.5918 29.766 36.0901 28.4929 41.784C27.4977 46.2445 28.9492 49.9512 32.4707 52.8477C32.722 53.056 33.0295 53.2015 33.3271 53.3536C34.038 53.714 34.4216 54.2795 34.4315 55.0797C34.4447 55.8798 34.4381 56.6833 34.4381 57.553Z" fill="white"/>
<path d="M34.6993 51.3102C34.3191 51.1185 33.8859 50.9928 33.5685 50.725C29.2997 47.1208 29.5841 39.8894 34.1108 36.6225C35.0035 35.9778 36.1278 36.0968 36.7725 36.9036C37.4438 37.7401 37.3115 38.8743 36.4617 39.5984C33.6908 41.9527 33.5586 45.3915 36.1377 47.9508C36.713 48.5228 36.8817 49.3594 36.5642 50.0901C36.26 50.7944 35.5392 51.2375 34.6993 51.3102Z" fill="white"/>
<path d="M38.7763 66.4313C37.2123 66.4313 35.6516 66.4346 34.0876 66.4313C33.0097 66.428 32.1797 65.6311 32.1632 64.5895C32.1467 63.5149 32.9667 62.6816 34.0711 62.6816C37.2123 62.675 40.3569 62.675 43.4981 62.6816C44.6058 62.6849 45.4456 63.5215 45.4324 64.5763C45.4159 65.6344 44.576 66.4313 43.465 66.4346C41.901 66.4313 40.337 66.4313 38.7763 66.4313Z" fill="white"/>
<path d="M37.1991 23.0954C37.1991 22.0538 37.1925 21.0123 37.1991 19.9707C37.2057 18.8035 37.9861 18 39.0938 18C40.1981 18 40.9884 18.8068 40.995 19.9707C41.0049 22.0538 41.0016 24.137 40.995 26.2201C40.9917 27.3939 40.2147 28.2106 39.1202 28.2173C37.9861 28.2272 37.2057 27.4138 37.1991 26.2168C37.1925 25.1785 37.1991 24.137 37.1991 23.0954Z" fill="white"/>
<path d="M19.1519 26.9375C19.5818 27.169 20.0844 27.3178 20.425 27.6451C21.9162 29.0735 23.3645 30.545 24.8161 32.0131C25.5733 32.7769 25.57 33.9375 24.8392 34.6848C24.1019 35.442 22.9115 35.4519 22.1311 34.6781C20.663 33.2266 19.2048 31.7651 17.75 30.3003C17.1548 29.7018 17.0457 28.9776 17.3399 28.2105C17.6078 27.5062 18.322 27.0631 19.0825 27.0665C19.1056 27.0202 19.1288 26.9772 19.1519 26.9375Z" fill="white"/>
<path d="M60.0077 28.2137C60.0242 28.584 59.8126 29.0271 59.439 29.4008C58.2883 30.5547 57.1409 31.712 55.9803 32.8561C55.1801 33.6431 53.9699 33.6398 53.2293 32.866C52.5051 32.1088 52.5415 30.9449 53.3251 30.158C54.4857 28.9907 55.6463 27.8235 56.8202 26.6662C57.412 26.0843 58.1362 25.9917 58.8735 26.2992C59.6208 26.6133 60.0011 27.2217 60.0077 28.2137Z" fill="white"/>
<path d="M18.4773 51.5879C17.5879 51.5879 16.6984 51.5946 15.809 51.5879C14.7806 51.578 14.0168 50.8539 14.0003 49.8851C13.9837 48.8832 14.731 48.0995 15.7693 48.0863C17.5978 48.0665 19.4296 48.0665 21.2582 48.0863C22.2997 48.0962 23.0701 48.8898 23.0536 49.8718C23.0371 50.8473 22.2435 51.5846 21.1953 51.5879C20.2893 51.5913 19.3833 51.5879 18.4773 51.5879Z" fill="white"/>
<path d="M60.907 51.5881C60.0011 51.5881 59.0951 51.5914 58.1891 51.5881C57.131 51.5815 56.3638 50.864 56.3473 49.8687C56.3308 48.8701 57.0814 48.0997 58.1329 48.0898C59.9614 48.0699 61.7932 48.0699 63.6217 48.0898C64.6765 48.103 65.3907 48.8668 65.3709 49.8919C65.3544 50.8805 64.617 51.5848 63.5754 51.5914C62.686 51.5914 61.7965 51.5881 60.907 51.5881Z" fill="white"/>
<path d="M38.8126 70.7694C37.2685 70.7694 35.7243 70.7727 34.1768 70.7694C33.3436 70.7694 32.7881 70.2569 32.7914 69.5063C32.7947 68.7557 33.3502 68.2531 34.1868 68.2531C37.2586 68.2498 40.3336 68.2498 43.4054 68.2531C44.2354 68.2531 44.7876 68.7656 44.7843 69.5162C44.781 70.2701 44.2321 70.7694 43.3955 70.7694C41.8679 70.7694 40.3403 70.7694 38.8126 70.7694Z" fill="white"/>
</svg>
