<svg width="130" height="30" viewBox="0 0 130 30" fill="none" xmlns="http://www.w3.org/2000/svg">
<path d="M111.295 14.0267L100.065 4.4812H128.701L113.541 28.0641L111.295 14.0267Z" stroke="black" stroke-width="2" stroke-linecap="round" stroke-linejoin="round"/>
<path d="M111.856 14.0264L128.14 4.48096" stroke="black" stroke-width="2"/>
<path d="M78.8786 27.7158L76.5045 21.3081C77.6945 19.2681 78.3488 16.8765 78.259 14.3192C78.0187 7.48147 72.3729 1.94849 65.5545 1.86712C58.1571 1.77994 52.1725 7.95806 52.546 15.4439C52.8732 22.0201 58.2005 27.3584 64.7496 27.6838C67.2512 27.8059 69.6021 27.2131 71.623 26.0885L78.398 28.2215C78.7049 28.3203 78.9915 28.018 78.8786 27.7158Z" stroke="black" stroke-width="2" stroke-miterlimit="10"/>
<path d="M27.9825 6.44357C23.468 0.931558 16.4028 7.07678 15.7409 7.67373V7.61794C15.7409 7.61794 8.18817 0.554979 3.4494 6.34315C0.189584 10.3237 2.92317 15.4815 6.08051 19.1803C10.1934 23.995 15.1565 27.7078 15.691 28.1011V28.2406C15.691 28.2406 21.0003 24.3799 25.3486 19.2835C28.5087 15.5819 31.2395 10.4242 27.9825 6.44357Z" stroke="black" stroke-width="2" stroke-miterlimit="10" stroke-linecap="round" stroke-linejoin="round"/>
</svg>
