<svg width="58" height="58" viewBox="0 0 58 58" fill="none" xmlns="http://www.w3.org/2000/svg">
<path d="M27.8438 51.6802H29.7508V53.5872H27.8438V51.6802Z" fill="#63821F"/>
<path d="M44.2954 45.6519L45.6439 44.3034L46.9924 45.6519L45.6439 47.0003L44.2954 45.6519Z" fill="#63821F"/>
<path d="M51.6816 27.8423H53.5887V29.7493H51.6816V27.8423Z" fill="#63821F"/>
<path d="M56.4492 22.1212H49.6887C49.3198 20.9578 48.8525 19.8279 48.2918 18.7438L53.0699 13.9648C53.2486 13.786 53.3491 13.5435 53.3491 13.2907C53.3491 13.0379 53.2486 12.7954 53.0699 12.6166L49.0241 8.57174C46.3773 5.87404 43.2221 3.72757 39.7409 2.25636C36.2596 0.785155 32.5214 0.0183759 28.7421 0.000326259C24.9628 -0.0177234 21.2174 0.713315 17.7222 2.1512C14.2271 3.58909 11.0515 5.70532 8.37906 8.37763C5.70656 11.0499 3.59011 14.2253 2.15197 17.7204C0.713837 21.2154 -0.0174657 24.9607 0.000316669 28.74C0.018099 32.5193 0.784614 36.2577 2.25557 39.739C3.72654 43.2203 5.87278 46.3757 8.5703 49.0227L12.6151 53.0685C12.7939 53.2472 13.0364 53.3477 13.2892 53.3477C13.5421 53.3477 13.7846 53.2472 13.9634 53.0685L18.7424 48.2904C19.8275 48.8508 20.9583 49.3178 22.1226 49.6864V56.4477C22.1226 56.7006 22.2231 56.9431 22.4019 57.122C22.5807 57.3008 22.8232 57.4012 23.0761 57.4012H34.5183C34.7712 57.4012 35.0137 57.3008 35.1925 57.122C35.3714 56.9431 35.4718 56.7006 35.4718 56.4477V49.6873C36.6352 49.3186 37.765 48.8516 38.8492 48.2914L43.6282 53.0694C43.807 53.2482 44.0495 53.3486 44.3023 53.3486C44.5552 53.3486 44.7976 53.2482 44.9765 53.0694L53.067 44.9789C53.2458 44.8 53.3462 44.5576 53.3462 44.3047C53.3462 44.0519 53.2458 43.8094 53.067 43.6306L48.289 38.8516C48.8504 37.7663 49.3184 36.6351 49.6878 35.4704H56.4492C56.702 35.4704 56.9446 35.3699 57.1234 35.1911C57.3022 35.0123 57.4027 34.7698 57.4027 34.5169V23.0747C57.4027 22.8218 57.3022 22.5793 57.1234 22.4005C56.9446 22.2217 56.702 22.1212 56.4492 22.1212ZM9.91762 9.9162C14.8069 5.02539 21.4037 2.22342 28.3182 2.10069C35.2327 1.97796 41.9248 4.54405 46.9846 9.25828L45.6382 10.6046C40.9327 6.26214 34.7296 3.90864 28.3278 4.037C21.9261 4.16536 15.8223 6.76562 11.2947 11.2932C6.76704 15.8209 4.16677 21.9247 4.03841 28.3264C3.91006 34.7282 6.26356 40.9313 10.6061 45.6368L9.25969 46.9831C4.54547 41.9234 1.97938 35.2313 2.10211 28.3168C2.22484 21.4023 5.0268 14.8055 9.91762 9.9162ZM36.8878 20.7052C39.0047 22.8569 40.1857 25.758 40.1734 28.7765C40.1611 31.795 38.9566 34.6863 36.8222 36.8208C34.6878 38.9552 31.7964 40.1597 28.7779 40.172C25.7594 40.1843 22.8584 39.0033 20.7066 36.8864C20.5278 36.7076 20.2853 36.6072 20.0325 36.6072C19.7797 36.6072 19.5372 36.7076 19.3584 36.8864L11.9553 44.2895C7.9562 39.9445 5.79153 34.2218 5.91385 28.3179C6.03617 22.4139 8.436 16.7858 12.6116 12.6102C16.7872 8.43459 22.4153 6.03475 28.3193 5.91244C34.2232 5.79012 39.9459 7.95478 44.2909 11.9539L36.8878 19.356C36.7991 19.4446 36.7288 19.5497 36.6808 19.6655C36.6328 19.7812 36.6081 19.9053 36.6081 20.0306C36.6081 20.1559 36.6328 20.28 36.6808 20.3958C36.7288 20.5115 36.7991 20.6167 36.8878 20.7052ZM55.4956 33.5634H48.9774C48.769 33.5633 48.5662 33.6314 48.4002 33.7575C48.2342 33.8835 48.1141 34.0605 48.0582 34.2613C47.6394 35.7571 47.0437 37.1975 46.2837 38.5522C46.1813 38.7339 46.1413 38.9443 46.1699 39.151C46.1985 39.3576 46.2941 39.5492 46.442 39.6964L51.0465 44.3019L44.3052 51.0432L39.6997 46.4387C39.5526 46.2907 39.361 46.1952 39.1543 46.1666C38.9476 46.138 38.7373 46.178 38.5555 46.2804C37.2008 47.0404 35.7604 47.6361 34.2647 48.0549C34.0639 48.1108 33.8869 48.2309 33.7608 48.3969C33.6348 48.5629 33.5666 48.7656 33.5667 48.9741V55.4942H24.0296V48.976C24.0298 48.7675 23.9616 48.5648 23.8355 48.3988C23.7095 48.2328 23.5325 48.1127 23.3317 48.0568C21.8359 47.638 20.3955 47.0423 19.0408 46.2823C18.8591 46.1799 18.6487 46.1399 18.442 46.1685C18.2354 46.1971 18.0438 46.2927 17.8966 46.4406L13.2912 51.0451L10.5946 48.3486L20.0582 38.8859C22.6096 41.0947 25.9029 42.2553 29.2754 42.134C32.6479 42.0127 35.8494 40.6187 38.2355 38.2323C40.6217 35.8459 42.0154 32.6443 42.1364 29.2718C42.2573 25.8993 41.0964 22.6061 38.8873 20.0549L48.35 10.5913L51.0465 13.2878L46.442 17.8933C46.2941 18.0404 46.1985 18.232 46.1699 18.4387C46.1413 18.6454 46.1813 18.8558 46.2837 19.0375C47.0438 20.3921 47.6395 21.8326 48.0582 23.3283C48.1141 23.5292 48.2342 23.7061 48.4002 23.8322C48.5662 23.9583 48.769 24.0264 48.9774 24.0263H55.4956V33.5634Z" fill="#63821F"/>
<path d="M29.7507 25.1171V14.4931C29.7507 14.2402 29.6502 13.9976 29.4714 13.8188C29.2926 13.64 29.05 13.5396 28.7972 13.5396C28.5443 13.5396 28.3017 13.64 28.1229 13.8188C27.9441 13.9976 27.8436 14.2402 27.8436 14.4931V25.1171C27.1883 25.2885 26.5905 25.6312 26.1116 26.1102C25.6326 26.5891 25.2898 27.187 25.1185 27.8423H18.3085C18.0556 27.8423 17.8131 27.9427 17.6343 28.1216C17.4554 28.3004 17.355 28.5429 17.355 28.7958C17.355 29.0487 17.4554 29.2912 17.6343 29.47C17.8131 29.6488 18.0556 29.7493 18.3085 29.7493H25.1185C25.2852 30.4 25.6212 30.9949 26.0922 31.4738C26.5633 31.9526 27.1527 32.2983 27.8005 32.4757C28.4484 32.6531 29.1316 32.6559 29.7809 32.4838C30.4302 32.3118 31.0224 31.9709 31.4973 31.496C31.9723 31.021 32.3131 30.4288 32.4852 29.7795C32.6573 29.1302 32.6545 28.447 32.4771 27.7991C32.2997 27.1513 31.954 26.5619 31.4752 26.0909C30.9963 25.6198 30.4014 25.2839 29.7507 25.1171ZM28.7972 30.7028C28.42 30.7028 28.0513 30.591 27.7377 30.3814C27.4241 30.1719 27.1796 29.874 27.0353 29.5256C26.891 29.1771 26.8532 28.7937 26.9268 28.4237C27.0004 28.0538 27.182 27.714 27.4487 27.4473C27.7154 27.1806 28.0552 26.999 28.4251 26.9254C28.795 26.8518 29.1785 26.8896 29.5269 27.0339C29.8754 27.1783 30.1733 27.4227 30.3828 27.7363C30.5923 28.0499 30.7042 28.4186 30.7042 28.7958C30.7042 29.3016 30.5033 29.7866 30.1456 30.1443C29.788 30.5019 29.3029 30.7028 28.7972 30.7028Z" fill="#63821F"/>
<path d="M28.7973 10.6788C28.5444 10.6788 28.3018 10.5783 28.123 10.3995C27.9442 10.2207 27.8438 9.97818 27.8438 9.72529V7.81826C27.8438 7.56537 27.9442 7.32284 28.123 7.14402C28.3018 6.96521 28.5444 6.86475 28.7973 6.86475C29.0502 6.86475 29.2927 6.96521 29.4715 7.14402C29.6503 7.32284 29.7508 7.56537 29.7508 7.81826V9.72529C29.7508 9.97818 29.6503 10.2207 29.4715 10.3995C29.2927 10.5783 29.0502 10.6788 28.7973 10.6788Z" fill="#63821F"/>
<path d="M38.3324 13.2347C38.1651 13.2345 38.0008 13.1903 37.856 13.1065C37.7112 13.0228 37.591 12.9024 37.5074 12.7575C37.4238 12.6126 37.3798 12.4482 37.3799 12.2809C37.3799 12.1136 37.424 11.9493 37.5076 11.8044L38.4611 10.1519C38.5885 9.93473 38.7966 9.7767 39.04 9.71234C39.2834 9.64798 39.5424 9.68252 39.7605 9.80842C39.9786 9.93432 40.138 10.1414 40.2039 10.3844C40.2699 10.6273 40.2371 10.8866 40.1126 11.1055L39.1591 12.7579C39.0754 12.903 38.9548 13.0235 38.8097 13.1071C38.6646 13.1908 38.5 13.2348 38.3324 13.2347Z" fill="#63821F"/>
<path d="M19.262 13.2347C19.0945 13.2348 18.9298 13.1908 18.7847 13.1071C18.6396 13.0235 18.5191 12.903 18.4353 12.7579L17.4818 11.1055C17.3573 10.8866 17.3245 10.6273 17.3905 10.3844C17.4565 10.1414 17.6159 9.93432 17.8339 9.80842C18.052 9.68252 18.311 9.64798 18.5544 9.71234C18.7978 9.7767 19.0059 9.93473 19.1333 10.1519L20.0868 11.8044C20.1704 11.9493 20.2145 12.1136 20.2145 12.2809C20.2146 12.4482 20.1706 12.6126 20.087 12.7575C20.0035 12.9024 19.8832 13.0228 19.7384 13.1065C19.5936 13.1903 19.4293 13.2345 19.262 13.2347Z" fill="#63821F"/>
<path d="M12.2814 20.2143C12.114 20.2147 11.9494 20.1706 11.8046 20.0865L10.1522 19.133C9.93497 19.0057 9.77694 18.7976 9.71258 18.5542C9.64823 18.3107 9.68276 18.0517 9.80866 17.8337C9.93456 17.6156 10.1416 17.4562 10.3846 17.3902C10.6276 17.3243 10.8868 17.3571 11.1057 17.4815L12.7581 18.4351C12.9399 18.54 13.082 18.702 13.1623 18.8959C13.2426 19.0899 13.2567 19.3049 13.2024 19.5076C13.148 19.7103 13.0283 19.8895 12.8618 20.0173C12.6953 20.145 12.4913 20.2143 12.2814 20.2143Z" fill="#63821F"/>
<path d="M9.727 29.7493H7.81997C7.56708 29.7493 7.32455 29.6489 7.14573 29.47C6.96691 29.2912 6.86646 29.0487 6.86646 28.7958C6.86646 28.5429 6.96691 28.3004 7.14573 28.1216C7.32455 27.9427 7.56708 27.8423 7.81997 27.8423H9.727C9.97989 27.8423 10.2224 27.9427 10.4012 28.1216C10.5801 28.3004 10.6805 28.5429 10.6805 28.7958C10.6805 29.0487 10.5801 29.2912 10.4012 29.47C10.2224 29.6489 9.97989 29.7493 9.727 29.7493Z" fill="#63821F"/>
<path d="M10.6307 40.2377C10.4208 40.2377 10.2168 40.1685 10.0503 40.0407C9.88377 39.9129 9.76406 39.7338 9.70974 39.531C9.65541 39.3283 9.6695 39.1133 9.74982 38.9193C9.83014 38.7254 9.97219 38.5634 10.154 38.4585L11.8064 37.505C11.9149 37.4414 12.0349 37.3998 12.1595 37.3828C12.2841 37.3658 12.4108 37.3736 12.5324 37.4057C12.6539 37.4378 12.7679 37.4937 12.8678 37.5701C12.9677 37.6465 13.0515 37.7419 13.1144 37.8508C13.1773 37.9597 13.218 38.0799 13.2342 38.2046C13.2504 38.3293 13.2418 38.456 13.2088 38.5774C13.1759 38.6987 13.1193 38.8124 13.0422 38.9117C12.9652 39.0111 12.8692 39.0943 12.7599 39.1564L11.1075 40.11C10.9627 40.194 10.7981 40.2381 10.6307 40.2377Z" fill="#63821F"/>
<path d="M28.7971 38.3308C27.5444 38.3343 26.3035 38.0888 25.1466 37.6085C23.9896 37.1282 22.9396 36.4228 22.0577 35.5332C21.9667 35.4451 21.8942 35.3398 21.8444 35.2234C21.7946 35.107 21.7685 34.9818 21.7676 34.8552C21.7667 34.7286 21.791 34.6031 21.8391 34.486C21.8872 34.3689 21.9582 34.2625 22.0478 34.1731C22.1375 34.0837 22.244 34.0131 22.3613 33.9653C22.4785 33.9175 22.6041 33.8936 22.7307 33.8948C22.8573 33.8961 22.9824 33.9226 23.0986 33.9727C23.2149 34.0229 23.32 34.0956 23.4078 34.1868C24.1129 34.9071 24.9539 35.4803 25.882 35.8734C26.8101 36.2666 27.8069 36.4717 28.8148 36.4771C29.8227 36.4824 30.8217 36.2879 31.7539 35.9046C32.6861 35.5214 33.5331 34.9571 34.2458 34.2444C34.9585 33.5317 35.5228 32.6847 35.9061 31.7525C36.2893 30.8202 36.4839 29.8213 36.4785 28.8134C36.4732 27.8055 36.268 26.8086 35.8749 25.8805C35.4818 24.9524 34.9085 24.1115 34.1883 23.4064C34.0971 23.3185 34.0243 23.2134 33.9742 23.0972C33.9241 22.9809 33.8976 22.8558 33.8963 22.7292C33.895 22.6026 33.919 22.477 33.9668 22.3598C34.0145 22.2426 34.0852 22.136 34.1746 22.0463C34.264 21.9567 34.3703 21.8857 34.4874 21.8376C34.6046 21.7895 34.7301 21.7652 34.8567 21.7661C34.9833 21.7671 35.1084 21.7932 35.2248 21.843C35.3412 21.8928 35.4466 21.9653 35.5346 22.0562C36.8669 23.3896 37.774 25.0879 38.1415 26.9366C38.509 28.7853 38.3204 30.7014 37.5994 32.4429C36.8784 34.1844 35.6575 35.6732 34.0908 36.7212C32.5241 37.7691 30.682 38.3293 28.7971 38.3308Z" fill="#63821F"/>
</svg>
