<svg width="60" height="60" viewBox="0 0 60 60" fill="none" xmlns="http://www.w3.org/2000/svg">
<circle cx="30" cy="30" r="29" stroke="#63821F" stroke-width="2"/>
<path d="M13.2702 42.5368L9.03223 44.6557C6.78781 45.778 6.30342 48.7622 8.07768 50.5365L10.4634 52.9222C12.2364 54.6951 15.2219 54.2119 16.3442 51.9676L18.4631 47.7298C18.7375 47.4554 33.3525 32.8403 33.61 32.583L38.8025 37.7755C38.9045 37.8775 39.0328 37.9544 39.1613 37.9973L45.0031 39.9442C45.3308 40.0535 45.6951 39.9699 45.9424 39.7224L53.731 31.9337C53.9769 31.6879 54.0627 31.3243 53.9528 30.9945L52.0059 25.1528C51.961 25.0178 51.8778 24.8871 51.7841 24.7939L48.0334 21.0431V13.7927C48.0334 13.2857 47.6223 12.8748 47.1155 12.8748H39.865L36.2061 9.21584C36.1055 9.11523 35.9705 9.03519 35.8473 8.99407L30.0056 7.04715C29.6759 6.93718 29.3121 7.023 29.0663 7.26892L21.2776 15.0575C21.0317 15.3033 20.9459 15.667 21.0558 15.9968L23.0027 21.8385C23.044 21.9625 23.1228 22.0957 23.2245 22.1974L23.2249 22.1979L28.4171 27.3901L13.2702 42.5368ZM17.7088 45.8878L15.1121 43.2911L19.8529 38.5503V43.7443L17.7088 45.8878ZM21.6889 36.7145L25.7278 32.6756V37.8687L21.6889 41.9076V36.7145ZM14.7021 51.1466C14.1409 52.269 12.6488 52.5113 11.7615 51.6241L9.37581 49.2384C8.48845 48.3511 8.73088 46.859 9.85323 46.2978L13.6326 44.4081L16.5917 47.3672L14.7021 51.1466ZM27.5636 36.0329V30.8397L29.7152 28.6881L32.3118 31.2846L27.5636 36.0329ZM45.0454 38.0231L41.151 36.7252L42.9918 34.8845C43.3502 34.526 43.3502 33.9448 42.9918 33.5863C42.6333 33.2279 42.0523 33.2279 41.6935 33.5863L39.4516 35.8283C37.9205 34.2972 26.5153 22.8919 25.1717 21.5484L35.5569 11.163C35.6216 11.2292 35.3666 10.9729 49.8368 25.443L47.5323 27.7474C47.1738 28.1059 47.1738 28.6871 47.5323 29.0455C47.8907 29.404 48.4718 29.4041 48.8305 29.0455L50.7338 27.1423L52.0317 31.0367L45.0454 38.0231ZM46.1975 14.7106V19.2073L41.7009 14.7106H46.1975ZM29.9632 8.96818L33.8575 10.2661L24.2747 19.8489L22.9767 15.9545L29.9632 8.96818Z" fill="#63821F"/>
<path d="M34.9075 20.8995C33.477 22.3313 33.477 24.6608 34.908 26.093C36.3397 27.5233 38.6692 27.5234 40.1009 26.093C40.1011 26.0928 40.1013 26.0926 40.1015 26.0924C41.5319 24.6607 41.5319 22.3312 40.1009 20.899C38.6693 19.4684 36.3398 19.4685 34.9075 20.8995ZM38.8029 24.7943C38.0868 25.5097 36.9218 25.5096 36.2064 24.7946C35.4909 24.0785 35.4909 22.9133 36.2059 22.1977C36.9213 21.4829 38.0863 21.4815 38.8027 22.1972C39.5181 22.9133 39.5182 24.0783 38.8029 24.7943Z" fill="#63821F"/>
<path d="M45.2474 32.2194C45.7544 32.2194 46.1655 31.8084 46.1655 31.3014C46.1655 30.7943 45.7544 30.3833 45.2474 30.3833C44.7404 30.3833 44.3293 30.7943 44.3293 31.3014C44.3293 31.8084 44.7404 32.2194 45.2474 32.2194Z" fill="#63821F"/>
</svg>
