<svg width="60" height="60" viewBox="0 0 60 60" fill="none" xmlns="http://www.w3.org/2000/svg">
<circle cx="30" cy="30" r="29" stroke="#63821F" stroke-width="2"/>
<path d="M53.1035 27.3534L45.1077 18.3058C44.9337 18.1089 44.6835 17.9961 44.4207 17.9961H15.9128C15.65 17.9961 15.3998 18.1089 15.2257 18.3058L7.22985 27.3534C6.99107 27.6236 6.93284 28.0087 7.08102 28.3375C7.13687 28.4615 7.2183 28.5686 7.31733 28.6541C7.31926 28.6562 7.32072 28.6586 7.32265 28.6608L29.4807 53.6407C29.6547 53.8369 29.9044 53.9492 30.1667 53.9492C30.4289 53.9492 30.6786 53.8368 30.8527 53.6407L53.0107 28.6608C53.0126 28.6587 53.0142 28.6563 53.016 28.6541C53.115 28.5686 53.1964 28.4614 53.2523 28.3375C53.4005 28.0087 53.3423 27.6236 53.1035 27.3534ZM42.7947 19.83L38.7195 26.3996L32.1888 19.83H42.7947ZM36.7739 27.0436H23.5595L30.1667 20.3971L36.7739 27.0436ZM28.1446 19.83L21.6138 26.3996L17.5387 19.83H28.1446ZM15.7705 20.4587L19.8552 27.0436H9.95107L15.7705 20.4587ZM9.96648 28.8776H20.8031L28.289 49.5335L9.96648 28.8776ZM32.0784 49.4952L37.3087 35.3396C37.4842 34.8645 37.2414 34.3372 36.7664 34.1617C36.2911 33.986 35.7638 34.2289 35.5884 34.704L30.175 49.3552L22.7538 28.8776H50.3669L32.0784 49.4952ZM40.4782 27.0436L44.5629 20.4587L50.3823 27.0436H40.4782Z" fill="#63821F"/>
<path d="M30.1667 7C29.6604 7 29.2498 7.41053 29.2498 7.91698V12.6406C29.2498 13.1471 29.6604 13.5576 30.1667 13.5576C30.6731 13.5576 31.0837 13.1471 31.0837 12.6406V7.91698C31.0837 7.41053 30.6731 7 30.1667 7Z" fill="#63821F"/>
<path d="M38.517 10.624C38.1589 10.2659 37.5784 10.2659 37.2201 10.624L33.8799 13.9641C33.5218 14.3222 33.5218 14.9028 33.8799 15.2609C34.0591 15.44 34.2937 15.5295 34.5284 15.5295C34.763 15.5295 34.9977 15.4399 35.1768 15.2609L38.517 11.9208C38.875 11.5627 38.875 10.9821 38.517 10.624Z" fill="#63821F"/>
<path d="M26.2749 13.9641L22.9348 10.624C22.5768 10.2659 21.9964 10.2659 21.6379 10.624C21.2799 10.9821 21.2799 11.5627 21.6379 11.9208L24.9781 15.2609C25.1572 15.44 25.3919 15.5295 25.6265 15.5295C25.8612 15.5295 26.0958 15.4399 26.2749 15.2609C26.633 14.9028 26.633 14.3222 26.2749 13.9641Z" fill="#63821F"/>
<path d="M37.6335 32.5249C38.14 32.5249 38.5505 32.1143 38.5505 31.6079C38.5505 31.1015 38.14 30.6909 37.6335 30.6909C37.1271 30.6909 36.7166 31.1015 36.7166 31.6079C36.7166 32.1143 37.1271 32.5249 37.6335 32.5249Z" fill="#63821F"/>
</svg>
