<svg width="127" height="52" viewBox="0 0 127 52" fill="none" xmlns="http://www.w3.org/2000/svg">
<path d="M0 52L34.6045 0H127L92.0838 52H0Z" fill="#E90F01"/>
<path d="M48.705 41.8583C48.5585 41.7116 48.3551 41.6273 48.1478 41.6273C47.9405 41.6273 47.7372 41.7116 47.5906 41.8583C47.444 42.005 47.3596 42.2082 47.3596 42.4155C47.3596 42.6228 47.4439 42.8262 47.5906 42.9727C47.7372 43.1193 47.9405 43.2037 48.1478 43.2037C48.3551 43.2037 48.5585 43.1194 48.705 42.9727C48.8516 42.8262 48.936 42.6228 48.936 42.4155C48.936 42.2082 48.8517 42.0049 48.705 41.8583Z" fill="white"/>
<path d="M79.0077 20.4193C78.8611 20.2726 78.6585 20.1884 78.4504 20.1884C78.2431 20.1884 78.0398 20.2726 77.8932 20.4193C77.7466 20.5659 77.6622 20.7693 77.6622 20.9766C77.6622 21.1839 77.7466 21.3872 77.8932 21.5338C78.0398 21.6804 78.2431 21.7648 78.4504 21.7648C78.6585 21.7648 78.8611 21.6804 79.0077 21.5338C79.155 21.3872 79.2394 21.1839 79.2394 20.9766C79.2394 20.7693 79.155 20.5659 79.0077 20.4193Z" fill="white"/>
<path d="M82.1246 6.23087C81.9767 6.08308 81.7762 6 81.5671 6L62.1775 6.00102C61.7423 6.00102 61.3894 6.35399 61.3894 6.78924V9.04329L53.918 11.0453C53.4975 11.158 53.248 11.5902 53.3607 12.0106L57.2329 26.4618L53.8831 29.8117C53.4567 29.1891 52.7409 28.7797 51.9312 28.7797H44.3646C43.0607 28.7797 42 29.8405 42 31.1443V43.9919C42 45.2957 43.0607 46.3565 44.3646 46.3565H51.9312C53.0389 46.3565 53.9707 45.5907 54.2261 44.5609L55.1633 45.3782C55.8868 46.0091 56.8137 46.3566 57.7737 46.3566H81.5673C82.0025 46.3566 82.3555 46.0036 82.3555 45.5684V6.78821C82.3553 6.57918 82.2724 6.37866 82.1246 6.23087ZM52.7193 43.9919C52.7193 44.4265 52.3657 44.7801 51.9311 44.7801H44.3645C43.9299 44.7801 43.5763 44.4266 43.5763 43.9919V31.1444C43.5763 30.7098 43.9299 30.3562 44.3645 30.3562H47.3596V39.436C47.3596 39.8712 47.7126 40.2242 48.1478 40.2242C48.5831 40.2242 48.936 39.8712 48.936 39.436V30.3562H51.9312C52.3658 30.3562 52.7194 30.7098 52.7194 31.1444V43.9919H52.7193ZM55.0873 12.364L61.3894 10.6753V13.596L60.8611 13.7376C60.6591 13.7917 60.4871 13.9237 60.3825 14.1048C60.278 14.2859 60.2496 14.501 60.3038 14.7029C60.6067 15.8333 59.9335 16.9993 58.8031 17.3022C58.6009 17.3564 58.4286 17.4887 58.3241 17.6701C58.2197 17.8515 58.1915 18.067 58.2462 18.2691L61.3185 29.646H59.7366L58.9214 26.4566C58.8954 26.355 58.85 26.2615 58.7892 26.1801L55.0873 12.364ZM61.3894 17.2107V23.8617L59.9518 18.5385C60.5523 18.2284 61.0438 17.7645 61.3894 17.2107ZM72.7132 44.7801H57.7736C57.1946 44.7801 56.6355 44.5706 56.1992 44.1901L54.2957 42.53V31.6285L57.7369 28.1873L58.361 30.6292C58.4502 30.9781 58.7645 31.2222 59.1246 31.2222L74.6212 31.2231C75.2297 31.2231 75.7247 31.7181 75.7247 32.3266C75.7247 32.9351 75.2297 33.4301 74.6212 33.4301H66.6808C66.2455 33.4301 65.8925 33.7831 65.8925 34.2183C65.8925 34.6536 66.2455 35.0065 66.6808 35.0065H77.0883C77.6968 35.0065 78.1918 35.5015 78.1918 36.11C78.1918 36.7185 77.6968 37.2135 77.0883 37.2135H66.6808C66.2455 37.2135 65.8925 37.5665 65.8925 38.0018C65.8925 38.437 66.2455 38.79 66.6808 38.79H75.4018C76.0103 38.79 76.5053 39.285 76.5053 39.8935C76.5053 40.502 76.0103 40.997 75.4018 40.997H66.6808C66.2455 40.997 65.8925 41.3499 65.8925 41.7852C65.8925 42.2204 66.2455 42.5734 66.6808 42.5734H72.7132C73.3217 42.5734 73.8167 43.0684 73.8167 43.6769C73.8166 44.2851 73.3216 44.7801 72.7132 44.7801ZM80.779 44.7801H80.779H75.1544C75.3072 44.4433 75.393 44.0699 75.393 43.6766C75.393 43.2833 75.3072 42.9099 75.1544 42.5731H75.4018C76.8794 42.5731 78.0816 41.3709 78.0816 39.8932C78.0816 39.4622 77.9788 39.055 77.7972 38.6938C78.9319 38.3821 79.7681 37.3421 79.7681 36.1099C79.7681 35.5121 79.5712 34.9595 79.2391 34.5134V24.5236C79.2391 24.0883 78.8862 23.7353 78.4509 23.7353C78.0156 23.7353 77.6627 24.0883 77.6627 24.5236V33.4928C77.4775 33.4522 77.2854 33.4301 77.0882 33.4301H77.0623C77.2151 33.0933 77.301 32.7199 77.301 32.3266C77.301 30.8489 76.0988 29.6468 74.6211 29.6468H73.3541C74.6995 29.0698 75.6444 27.7325 75.6444 26.1782C75.6444 24.0982 73.9523 22.406 71.8722 22.406C69.7923 22.406 68.1001 24.0982 68.1001 26.1782C68.1001 27.7325 69.0451 29.0698 70.3904 29.6468H66.0818V14.6595C67.4899 14.3527 68.6009 13.2417 68.9077 11.8336H74.8367C75.1435 13.2417 76.2545 14.3527 77.6626 14.6595V17.1101C77.6626 17.5453 78.0156 17.8983 78.4508 17.8983C78.8861 17.8983 79.239 17.5453 79.239 17.1101V13.9558C79.239 13.5206 78.8861 13.1676 78.4508 13.1676C77.2806 13.1676 76.3286 12.2155 76.3286 11.0454C76.3286 10.6101 75.9757 10.2571 75.5404 10.2571H68.2041C67.7688 10.2571 67.4158 10.6101 67.4158 11.0454C67.4158 12.2156 66.4638 13.1676 65.2937 13.1676C64.8584 13.1676 64.5054 13.5206 64.5054 13.9558V29.6467H62.9659V7.57729L80.779 7.57643V44.7801ZM71.8724 28.3741C70.6616 28.3741 69.6767 27.389 69.6767 26.1783C69.6767 24.9676 70.6617 23.9825 71.8724 23.9825C73.0831 23.9825 74.0681 24.9676 74.0681 26.1782C74.0681 27.3889 73.0832 28.3741 71.8724 28.3741Z" fill="white"/>
</svg>
