<svg width="127" height="52" viewBox="0 0 127 52" fill="none" xmlns="http://www.w3.org/2000/svg">
<path d="M0 52L34.6045 0H127L92.0838 52H0Z" fill="#E90F01"/>
<path d="M62.7278 34.7635C62.4302 35.0608 62.4302 35.5436 62.7278 35.8415C63.026 36.1391 63.5085 36.1391 63.8058 35.8415C64.1039 35.5436 64.1039 35.0608 63.8058 34.7635C63.5085 34.4654 63.026 34.4654 62.7278 34.7635Z" fill="white"/>
<path d="M82.2814 33.4391L76.4921 28.5163C76.4653 28.4937 76.437 28.4728 76.4075 28.454C74.8887 27.4872 72.9386 27.7013 71.6652 28.9744L68.5088 32.1306C68.2901 32.3495 67.964 32.4141 67.678 32.2962C64.1138 30.8218 61.1858 28.6021 58.9754 25.6994C57.2898 23.486 56.6821 21.7271 56.602 21.4793C56.5925 21.4263 56.5773 21.3735 56.5558 21.322C56.4376 21.0361 56.5022 20.7105 56.7214 20.4919L59.8776 17.3348C61.151 16.0615 61.3648 14.1113 60.398 12.5925C60.3902 12.5803 60.3822 12.5684 60.3738 12.5565L56.193 6.74668C54.8777 4.70602 52.0125 4.39773 50.293 6.117L49.6609 6.74906C49.6606 6.74966 49.66 6.75025 49.6594 6.75055L47.4028 9.00716C44.7119 11.6984 44.2717 15.7421 46.13 20.7022C47.7218 24.9509 50.9083 29.6008 55.1025 33.795C59.3959 38.0884 64.1716 41.3339 68.5496 42.9338C72.8829 44.5169 77.4923 44.712 80.7548 41.4492L82.883 39.3213C84.5949 37.6092 84.2961 34.7628 82.2814 33.4391ZM75.5473 29.7143L81.3315 34.6329C81.358 34.6556 81.3863 34.6764 81.4158 34.6952C82.6513 35.4818 82.8384 37.2094 81.8045 38.243L81.6466 38.4012L71.7811 31.0148L72.7435 30.0527C73.4956 29.3003 74.6418 29.1642 75.5473 29.7143ZM54.9191 7.58457C54.9268 7.59678 54.9349 7.60899 54.9432 7.62061L59.1222 13.4283C59.6899 14.3371 59.5586 15.4973 58.7993 16.2566L57.8667 17.1895L51.1922 7.37428L51.3712 7.19526C52.4093 6.15721 54.1354 6.3535 54.9191 7.58457ZM69.0726 41.5013C64.899 39.9763 60.3205 36.8565 56.1808 32.7168C52.137 28.6733 49.0747 24.2164 47.5577 20.1672C46.4189 17.1278 45.6549 12.9116 48.4811 10.0857L50.0946 8.4719L56.7691 18.2871L55.6435 19.4133C55.0031 20.0525 54.8017 20.9985 55.1213 21.8409C55.362 22.8286 56.4694 24.8788 57.5867 26.3896C59.2309 28.6128 62.2152 31.6865 67.0951 33.7054C67.9527 34.0601 68.9305 33.8653 69.587 33.2091L70.6918 32.1041L80.5573 39.4905L79.6766 40.371C76.647 43.4008 72.238 42.6579 69.0726 41.5013Z" fill="white"/>
<path d="M61.2965 32.9428C60.4911 32.2366 59.098 31.0219 58.3643 30.2671C56.5653 28.4183 54.6777 26.1772 53.5553 24.558C53.3156 24.2119 52.8405 24.1255 52.4944 24.3655C52.1482 24.6053 52.0622 25.0804 52.3019 25.4265C53.7174 27.4687 55.7971 29.8153 57.2712 31.3302C58.0456 32.1273 59.4507 33.3527 60.2909 34.0893C60.607 34.3663 61.0886 34.3359 61.3671 34.0187C61.6447 33.7024 61.6131 33.2204 61.2965 32.9428Z" fill="white"/>
</svg>
