<svg width="127" height="52" viewBox="0 0 127 52" fill="none" xmlns="http://www.w3.org/2000/svg">
<path d="M0 52L34.6045 0H127L92.0838 52H0Z" fill="#E90F01"/>
<path d="M83.1919 6H44.4181C43.0847 6 42 7.08472 42 8.41806V35.1627C42 36.4961 43.0847 37.5808 44.4181 37.5808H59.5568L58.5579 41.8147H53.4678C52.6581 41.8147 51.9992 42.4735 51.9992 43.2833V44.5314C51.9992 45.3412 52.658 46 53.4678 46H74.1423C74.952 46 75.6109 45.3412 75.6109 44.5314V43.2833C75.6109 42.4735 74.9521 41.8147 74.1423 41.8147H69.0522L68.0533 37.5808H83.1919C84.5253 37.5808 85.6101 36.4961 85.6101 35.1627V8.41806C85.6101 7.08472 84.5254 6 83.1919 6ZM74.1423 43.0934C74.2469 43.0934 74.3322 43.1785 74.3322 43.2833V44.5314C74.3322 44.6362 74.2469 44.7214 74.1423 44.7214H53.4678C53.3632 44.7214 53.2779 44.6362 53.2779 44.5314V43.2833C53.2779 43.1785 53.3632 43.0934 53.4678 43.0934H74.1423ZM59.8716 41.8148L60.8706 37.5809H66.7397L67.7386 41.8148H59.8716ZM83.192 36.3023H44.4181C43.7898 36.3023 43.2787 35.7911 43.2787 35.1628V8.41806C43.2787 7.78972 43.7899 7.27858 44.4181 7.27858H83.1919C83.8203 7.27858 84.3314 7.7898 84.3314 8.41806V35.1628H84.3315C84.3315 35.7911 83.8203 36.3023 83.192 36.3023Z" fill="white"/>
<path d="M82.1582 22.8557C81.8051 22.8557 81.5189 23.1419 81.5189 23.495V31.2611H46.0919V23.495C46.0919 23.142 45.8057 22.8557 45.4526 22.8557C45.0994 22.8557 44.8132 23.1419 44.8132 23.495V31.3016C44.8132 31.9843 45.3687 32.5397 46.0514 32.5397H81.5593C82.242 32.5397 82.7974 31.9843 82.7974 31.3016V23.495C82.7975 23.142 82.5113 22.8557 82.1582 22.8557Z" fill="white"/>
<path d="M81.5593 8.81287H46.0514C45.3686 8.81287 44.8132 9.3683 44.8132 10.0511V20.0856C44.8132 20.4386 45.0994 20.7249 45.4526 20.7249C45.8057 20.7249 46.0919 20.4387 46.0919 20.0856V10.0914H81.5189V20.0856C81.5189 20.4386 81.8051 20.7249 82.1582 20.7249C82.5113 20.7249 82.7975 20.4387 82.7975 20.0856V10.0511C82.7975 9.3683 82.242 8.81287 81.5593 8.81287Z" fill="white"/>
</svg>
