<svg width="36" height="37" viewBox="0 0 36 37" fill="none" xmlns="http://www.w3.org/2000/svg">
<path fill-rule="evenodd" clip-rule="evenodd" d="M36 18.4132L33.003 18.1981C32.8978 26.3803 26.209 33.0042 18.0023 33.0042C9.73025 33.0042 3.00039 26.2744 3.00039 18.0023C3.00039 9.73025 9.73025 3.00039 18.0023 3.00039C22.0049 3.00039 25.7637 4.55485 28.5961 7.37953L30.8488 5.39551C30.826 5.36911 30.8021 5.34332 30.7772 5.31818C27.3718 1.88874 22.8344 0 18.0023 0C8.07554 0 0 8.07554 0 18.0023C0 27.9291 8.07554 36.0046 18.0023 36.0046C27.7917 36.0046 35.7808 28.151 36 18.4132Z" fill="#FFC700"/>
<path fill-rule="evenodd" clip-rule="evenodd" d="M26.9513 14.3818L17.0334 23.9305L11.2251 18.0072L13.4343 15.8409L17.096 19.5751L24.8053 12.1528L26.9513 14.3818Z" fill="#FFC700"/>
</svg>
