<svg width="367" height="54" viewBox="0 0 367 54" fill="none" xmlns="http://www.w3.org/2000/svg">
<path d="M0 52L34.6045 0H127L92.0838 52H0Z" fill="#E90F01"/>
<path d="M120 52L154.604 0H247L212.084 52H120Z" fill="#E90F01"/>
<path d="M240 52L274.604 0H367L332.084 52H240Z" fill="#E90F01"/>
<path d="M120.504 27.225C119.82 27.225 119.245 26.9917 118.779 26.525C118.312 26.0583 118.079 25.475 118.079 24.775C118.079 24.0583 118.312 23.4833 118.779 23.05C119.245 22.6 119.82 22.375 120.504 22.375C121.187 22.375 121.762 22.6 122.229 23.05C122.695 23.4833 122.929 24.0583 122.929 24.775C122.929 25.475 122.695 26.0583 122.229 26.525C121.762 26.9917 121.187 27.225 120.504 27.225ZM120.504 36.2C119.82 36.2 119.245 35.9667 118.779 35.5C118.312 35.0333 118.079 34.45 118.079 33.75C118.079 33.0333 118.312 32.4583 118.779 32.025C119.245 31.575 119.82 31.35 120.504 31.35C121.187 31.35 121.762 31.575 122.229 32.025C122.695 32.4583 122.929 33.0333 122.929 33.75C122.929 34.45 122.695 35.0333 122.229 35.5C121.762 35.9667 121.187 36.2 120.504 36.2Z" fill="#E90F01"/>
<path d="M239.504 27.225C238.82 27.225 238.245 26.9917 237.779 26.525C237.312 26.0583 237.079 25.475 237.079 24.775C237.079 24.0583 237.312 23.4833 237.779 23.05C238.245 22.6 238.82 22.375 239.504 22.375C240.187 22.375 240.762 22.6 241.229 23.05C241.695 23.4833 241.929 24.0583 241.929 24.775C241.929 25.475 241.695 26.0583 241.229 26.525C240.762 26.9917 240.187 27.225 239.504 27.225ZM239.504 36.2C238.82 36.2 238.245 35.9667 237.779 35.5C237.312 35.0333 237.079 34.45 237.079 33.75C237.079 33.0333 237.312 32.4583 237.779 32.025C238.245 31.575 238.82 31.35 239.504 31.35C240.187 31.35 240.762 31.575 241.229 32.025C241.695 32.4583 241.929 33.0333 241.929 33.75C241.929 34.45 241.695 35.0333 241.229 35.5C240.762 35.9667 240.187 36.2 239.504 36.2Z" fill="#E90F01"/>
</svg>
