<svg width="34" height="23" viewBox="0 0 34 23" fill="none" xmlns="http://www.w3.org/2000/svg">
<path d="M28.0797 3.21433H5.9204C5.51632 3.21433 5.18867 3.54509 5.18867 3.95317V15.1121C5.18867 15.5202 5.51632 15.8509 5.9204 15.8509C6.32449 15.8509 6.65213 15.5202 6.65213 15.1121V4.69194H27.3479V15.112C27.3479 15.5201 27.6756 15.8509 28.0797 15.8509C28.4838 15.8509 28.8114 15.5201 28.8114 15.112V3.9531C28.8113 3.54509 28.4837 3.21433 28.0797 3.21433Z" fill="white"/>
<path d="M33.3415 17.7503H31.9938V2.23431C31.9938 1.00285 31.0016 0.000976562 29.7819 0.000976562H4.21813C2.99845 0.000976562 2.00627 1.00285 2.00627 2.23431V17.7503H0.658552C0.294844 17.7503 0 18.0479 0 18.4152V19.7206C0 21.5294 1.45742 23.001 3.24887 23.001H30.7511C32.5426 23.001 34 21.5294 34 19.7206V18.4152C34.0001 18.0479 33.7053 17.7503 33.3415 17.7503ZM3.46967 2.23431C3.46967 1.81766 3.80548 1.47858 4.21813 1.47858H29.7818C30.1946 1.47858 30.5303 1.81759 30.5303 2.23431V17.7503H20.6224C20.5758 17.7487 20.5276 17.7528 20.4798 17.7621C20.1698 17.8223 19.9458 18.0963 19.9458 18.4149C19.9458 18.9762 19.4936 19.4328 18.9378 19.4328H15.0623C14.5064 19.4328 14.0543 18.9762 14.0543 18.4149C14.0543 18.0426 13.7488 17.7422 13.3805 17.7501H3.46967V2.23431ZM32.683 19.7206C32.683 20.7961 31.8163 21.6711 30.7512 21.6711H3.24887C2.18371 21.6711 1.3171 20.7961 1.3171 19.7206V19.0802H12.8322C13.1169 20.0518 14.0089 20.7627 15.0622 20.7627H18.9378C19.9911 20.7627 20.8831 20.0517 21.1679 19.0802H32.683L32.683 19.7206Z" fill="white"/>
<path d="M18.0845 7.50895C17.7987 7.22043 17.3355 7.22043 17.0496 7.50895L12.4479 12.1556C12.1621 12.4441 12.1621 12.9119 12.4479 13.2004C12.5908 13.3447 12.778 13.4168 12.9652 13.4168C13.1525 13.4168 13.3397 13.3446 13.4826 13.2004L18.0845 8.55387C18.3703 8.26535 18.3703 7.79753 18.0845 7.50895Z" fill="white"/>
<path d="M20.8121 10.2016C20.5263 9.91307 20.0631 9.91307 19.7773 10.2016L17.944 12.0526C17.6583 12.3411 17.6583 12.8089 17.944 13.0975C18.0869 13.2418 18.2742 13.3139 18.4614 13.3139C18.6487 13.3139 18.8359 13.2418 18.9788 13.0975L20.812 11.2465C21.0978 10.958 21.0978 10.4902 20.8121 10.2016Z" fill="white"/>
</svg>
