<svg xmlns="http://www.w3.org/2000/svg" viewBox="0 0 20 20" width="13px" height="13px">
    <defs>
        <style>
            .cls-1{fill:#fbfbfb}.cls-2{fill:#4caf50}.cls-3{clip-path:url(#clip-path)}
        </style>
        <clipPath id="clip-path">
            <path id="Rectangle_21" d="M0 0h10.55v9.242H0z" class="cls-1" data-name="Rectangle 21"/>
        </clipPath>
    </defs>
    <g id="Group_43" data-name="Group 43" transform="translate(-145 -687)">
        <circle id="Ellipse_19" cx="10" cy="10" r="10" class="cls-2" data-name="Ellipse 19" transform="translate(145 687)"/>
        <g id="Group_16" data-name="Group 16" transform="translate(150 692)">
            <g id="Group_15" data-name="Group 15">
                <g id="Group_14" class="cls-3" data-name="Group 14">
                    <path id="Path_7" d="M9.862.061C9.389-.187 8.87.287 8.555.58c-.7.676-1.307 1.488-1.961 2.209-.744.789-1.42 1.578-2.187 2.367A6.676 6.676 0 0 0 3.212 6.6a25.321 25.321 0 0 0-1.938-1.873C.755 4.322-.124 4.051-.1 5c.045 1.24 1.127 2.57 1.939 3.426a2.071 2.071 0 0 0 1.307.766c.631.045 1.285-.721 1.668-1.127.676-.721 1.217-1.533 1.826-2.277.789-.969 1.6-1.939 2.389-2.93.5-.631 2.029-2.141.834-2.8zM.71 4.908a.083.083 0 0 0-.068.023l-.2-.068c.065-.045.158-.023.268.045zm0 0" class="cls-1" data-name="Path 7" transform="translate(.079 .006)"/>
                </g>
            </g>
        </g>
    </g>
</svg>
