<svg xmlns="http://www.w3.org/2000/svg" id="Group_72" width="57.176" height="54.959" data-name="Group 72" viewBox="0 0 57.176 54.959">
    <defs>
        <style>
            .cls-1{fill:#39c37c}
        </style>
    </defs>
    <path id="Path_54" d="M143.555 141.76l-3.481-3.29a5.158 5.158 0 1 0-1.776 1.895l3.474 3.284a11.587 11.587 0 0 1 1.782-1.889zm0 0" class="cls-1" data-name="Path 54" transform="translate(-122.184 -123.478)"/>
    <path id="Path_55" d="M149.49 143.867l4.621-7.775a5.1 5.1 0 1 0-2.24-1.308l-4.609 7.752a11.714 11.714 0 0 1 2.228 1.331zm0 0" class="cls-1" data-name="Path 55" transform="translate(-113.411 -126)"/>
    <path id="Path_56" d="M163.142 142.031a5.158 5.158 0 0 0-4.823 3.38l-6.421-.636c0 .047.006.094.006.141a11.825 11.825 0 0 1-.255 2.448l6.415.63a5.153 5.153 0 1 0 5.079-5.964zm0 0" class="cls-1" data-name="Path 56" transform="translate(-111.128 -117.655)"/>
    <path id="Path_57" d="M149.379 157.518l-1.438-6.272a11.994 11.994 0 0 1-2.53.582l1.438 6.278a5.14 5.14 0 1 0 2.53-.588zm0 0" class="cls-1" data-name="Path 57" transform="translate(-115.077 -112.858)"/>
    <path id="Path_58" d="M142.462 145.566l-7.989 2.679a5.151 5.151 0 1 0 .844 2.815 3.126 3.126 0 0 0-.035-.344l8.018-2.685a12.044 12.044 0 0 1-.838-2.465zm0 0" class="cls-1" data-name="Path 58" transform="translate(-125 -115.815)"/>
    <path id="Path_59" d="M155.935 146.957a8.844 8.844 0 1 1-8.845-8.844 8.841 8.841 0 0 1 8.845 8.844zm0 0" class="cls-1" data-name="Path 59" transform="translate(-118.105 -119.694)"/>
</svg>
