<svg xmlns="http://www.w3.org/2000/svg" id="Group_22" width="109.078" height="61.591" data-name="Group 22" viewBox="0 0 109.078 61.591">
    <defs>
        <style>
            .cls-1{fill:#f79220}
        </style>
    </defs>
    <path id="Path_13" d="M183.973 172.943a19.258 19.258 0 0 0-9.225-2.343H166.8a19.289 19.289 0 0 0-19.3 19.3v5.944h46.55V189.9a19.286 19.286 0 0 0-10.077-16.957z" class="cls-1" data-name="Path 13" transform="translate(-116.076 -134.255)"/>
    <path id="Path_14" d="M358.665 145.8h-6.6a19.1 19.1 0 0 0-10.46 3.11 26.188 26.188 0 0 1 4.069 3.323 25.489 25.489 0 0 1 7.52 18.172v2.795H377.9v-8.138a19.262 19.262 0 0 0-19.235-19.262z" class="cls-1" data-name="Path 14" transform="translate(-268.825 -114.739)"/>
    <path id="Path_15" d="M36.473 149.017a19.129 19.129 0 0 0-10.631-3.217h-6.6A19.257 19.257 0 0 0 0 165.038v8.138h25.032v-2.791a25.525 25.525 0 0 1 7.52-18.172 25.222 25.222 0 0 1 3.921-3.196z" class="cls-1" data-name="Path 15" transform="translate(0 -114.738)"/>
    <path id="Path_16" d="M358.351 37.333h.107a12.518 12.518 0 0 0 9.2-4.154 13.994 13.994 0 0 0 3.643-9.608C371.261 16.05 365.445 10 358.351 10h-.107c-7.158.064-12.91 6.242-12.846 13.784.043 7.478 5.859 13.549 12.953 13.549z" class="cls-1" data-name="Path 16" transform="translate(-271.813 -7.87)"/>
    <path id="Path_17" d="M57.951 37.333h.107a12.518 12.518 0 0 0 9.2-4.154 13.994 13.994 0 0 0 3.642-9.608C70.861 16.05 65.045 10 57.951 10h-.107c-7.158.064-12.91 6.242-12.846 13.784.043 7.478 5.859 13.549 12.953 13.549z" class="cls-1" data-name="Path 17" transform="translate(-35.411 -7.87)"/>
    <path id="Path_18" d="M195.164 30.06a14.259 14.259 0 0 0 12.782 0 15.921 15.921 0 0 0 8.564-14.274C216.511 7.073 209.8 0 201.556 0S186.6 7.073 186.6 15.786a15.858 15.858 0 0 0 8.564 14.274z" class="cls-1" data-name="Path 18" transform="translate(-146.846)"/>
</svg>
