<svg xmlns="http://www.w3.org/2000/svg" id="Group_21" width="67.457" height="67.46" data-name="Group 21" viewBox="0 0 67.457 67.46">
    <defs>
        <style>
            .cls-1{fill:#f79220}
        </style>
    </defs>
    <path id="Path_8" d="M311.1 11.516a5.891 5.891 0 0 0-1.739-4.19l-5.587-5.587A6.062 6.062 0 0 0 299.543 0h-.343v11.858h11.9v-.343z" class="cls-1" data-name="Path 8" transform="translate(-259.778)"/>
    <path id="Path_9" d="M46.128 50.793l-6.285 2.095-.962.053a4.938 4.938 0 0 1-4.681-6.51l1.884-5.652a8.06 8.06 0 0 1 1.9-3.083l13.388-13.321v-8.564H37.485a1.919 1.919 0 0 1-1.91-1.976V0H5.929A5.938 5.938 0 0 0 0 5.929v55.6a5.938 5.938 0 0 0 5.929 5.931H45.39a5.983 5.983 0 0 0 5.982-5.929V46.774L49.2 48.9a7.616 7.616 0 0 1-3.072 1.893zM9.882 19.764h27.6a1.976 1.976 0 0 1 0 3.953h-27.6a1.976 1.976 0 0 1 0-3.953zm0 7.905h19.7a1.976 1.976 0 0 1 0 3.953h-19.7a1.976 1.976 0 0 1 0-3.953zm0 7.905h19.7a1.976 1.976 0 1 1 0 3.953h-19.7a1.976 1.976 0 0 1 0-3.953zm-1.977 9.882a1.974 1.974 0 0 1 1.977-1.976h19.7a1.976 1.976 0 1 1 0 3.953h-19.7a1.974 1.974 0 0 1-1.977-1.977zm29.58 13.835H25.627a1.976 1.976 0 0 1 0-3.953h11.858a1.976 1.976 0 0 1 0 3.953z" class="cls-1" data-name="Path 9"/>
    <path id="Path_10" d="M288.993 329.117l5.152-1.726-4.691-4.691-1.713 5.165a.986.986 0 0 0 1.252 1.252z" class="cls-1" data-name="Path 10" transform="translate(-249.782 -280.182)"/>
    <path id="Path_11" d="M318.8 212.318l5.613 5.613 13.018-13.018-5.613-5.613z" class="cls-1" data-name="Path 11" transform="translate(-276.796 -173.041)"/>
    <path id="Path_12" d="M447.285 149.094a3.954 3.954 0 0 0-2.806-1.094 3.908 3.908 0 0 0-2.806 1.107l-2.872 2.872 5.613 5.613 2.872-2.872a4 4 0 0 0-.001-5.626z" class="cls-1" data-name="Path 12" transform="translate(-380.985 -128.5)"/>
</svg>
