<svg xmlns="http://www.w3.org/2000/svg" id="Group_75" width="58.29" height="58.625" data-name="Group 75" viewBox="0 0 58.29 58.625">
    <defs>
        <style>
            .cls-1{fill:#f79220}.cls-2{clip-path:url(#clip-path)}
        </style>
        <clipPath id="clip-path">
            <path id="Rectangle_101" d="M0 0h58.29v58.625H0z" class="cls-1" data-name="Rectangle 101"/>
        </clipPath>
    </defs>
    <g id="Group_74" data-name="Group 74">
        <g id="Group_73" class="cls-2" data-name="Group 73">
            <path id="Path_60" d="M168.431 134a21.91 21.91 0 0 0-18.3 33.958h-1.474v3.216a4.078 4.078 0 0 0-4.154.983l-10.3 10.3a4.056 4.056 0 0 0 0 5.768l1.918 1.921a4.084 4.084 0 0 0 5.77 0l10.3-10.307a3.975 3.975 0 0 0 .949-1.535h.611v-6.15A21.906 21.906 0 1 0 168.431 134zm0 39.781a17.862 17.862 0 1 1 17.869-17.864 17.858 17.858 0 0 1-17.864 17.864zm0 0" class="cls-1" data-name="Path 60" transform="translate(-133.002 -134)"/>
        </g>
    </g>
    <path id="Path_61" d="M171.229 149.087a16.738 16.738 0 0 0-31.013 0 2.231 2.231 0 1 0 4.218 1.452 8.46 8.46 0 0 1 .469-1.016 10.991 10.991 0 0 0 21.658.033 8.671 8.671 0 0 1 .447.983 2.236 2.236 0 0 0 2.116 1.5 2.16 2.16 0 0 0 .731-.12 2.223 2.223 0 0 0 1.374-2.836zm-15.5 7.711c-5.025 0-8.7-3.141-9.084-9.771a11.611 11.611 0 0 1 4.712-3.185 5.77 5.77 0 1 0 8.713-.011 11.418 11.418 0 0 1 4.821 3.294c-.394 6.935-4.157 9.673-9.162 9.673zm0 0" class="cls-1" data-name="Path 61" transform="translate(-120.292 -125.665)"/>
</svg>
