<svg xmlns="http://www.w3.org/2000/svg" width="66.582" height="66.582" viewBox="0 0 66.582 66.582">
    <defs>
        <style>
            .cls-1{fill:#54cb8e}
        </style>
    </defs>
    <path id="Path_53" d="M14.565 42.395a2.6 2.6 0 0 1 2.6 2.6 2.6 2.6 0 1 1-5.2 0 2.6 2.6 0 0 1 2.6-2.6zM21.717 45a2.6 2.6 0 1 0 5.2 0 2.6 2.6 0 0 0-5.2 0zm14.955 0a2.6 2.6 0 0 0-5.2 0 2.6 2.6 0 1 0 5.2 0zm4.681 0a2.6 2.6 0 1 0 5.2 0 2.6 2.6 0 0 0-5.2 0zm-7.8 18.986a2.6 2.6 0 0 1-2.6 2.6H10.4A10.415 10.415 0 0 1 0 56.179V34.852a10.415 10.415 0 0 1 10.4-10.4h3.12v-9.176A15.46 15.46 0 0 1 29.125 0a15.46 15.46 0 0 1 15.6 15.275v9.172h3.126a10.415 10.415 0 0 1 10.4 10.4v5.2a2.6 2.6 0 0 1-5.2 0v-5.2a5.208 5.208 0 0 0-5.2-5.2H10.4a5.208 5.208 0 0 0-5.2 5.2v21.332a5.208 5.208 0 0 0 5.2 5.2h20.55a2.6 2.6 0 0 1 2.601 2.602zM18.721 24.449h20.807v-9.173A10.254 10.254 0 0 0 29.125 5.2a10.254 10.254 0 0 0-10.4 10.074v9.172zM65.495 42.36a2.6 2.6 0 0 0-3.629.6l-12.82 17.908a1.485 1.485 0 0 1-2.138.111l-8.285-8.085a2.6 2.6 0 0 0-3.633 3.723l8.3 8.1.023.023a6.705 6.705 0 0 0 4.614 1.843q.22 0 .441-.015a6.705 6.705 0 0 0 4.768-2.483q.045-.057.088-.115L66.1 45.989a2.6 2.6 0 0 0-.605-3.629z" class="cls-1" data-name="Path 53" transform="translate(0 -.001)"/>
</svg>
