<svg xmlns="http://www.w3.org/2000/svg" id="Group_853" width="72.965" height="65.179" data-name="Group 853" viewBox="0 0 72.965 65.179">
    <defs>
        <style>
            .cls-1{fill:#fff}
        </style>
    </defs>
    <path id="Path_101" d="M-48.115-38.082l9.08-9.079-9.08-9.08 1.463-1.463a6.5 6.5 0 0 0 0-9.181 6.452 6.452 0 0 0-4.591-1.9 6.45 6.45 0 0 0-4.59 1.9l-1.463 1.463-9.08-9.08-6.96 6.96v-8.9h-12.84v-2.069A6.5 6.5 0 0 0-92.668-85a6.5 6.5 0 0 0-6.491 6.492v2.069H-112v17.121h6.349a2.214 2.214 0 0 1 2.212 2.211 2.214 2.214 0 0 1-2.212 2.212H-112v17.121h17.121v-6.064a2.214 2.214 0 0 1 2.211-2.212 2.214 2.214 0 0 1 2.212 2.212v6.064h16.909a2.2 2.2 0 0 1-.646 1.559l-4.288 4.288 12.107 12.106 9.08-9.08 1.261 1.261a6.451 6.451 0 0 0 4.59 1.9 6.449 6.449 0 0 0 4.59-1.9 6.5 6.5 0 0 0 0-9.181zm-29.5-16.818v12.841h-8.561v-1.784a6.5 6.5 0 0 0-6.492-6.492 6.5 6.5 0 0 0-6.491 6.492v1.784h-8.561v-8.561h2.069a6.5 6.5 0 0 0 6.492-6.492 6.5 6.5 0 0 0-6.492-6.491h-2.069v-8.561h12.841v-6.349a2.214 2.214 0 0 1 2.211-2.212 2.214 2.214 0 0 1 2.212 2.212v6.349h12.841v12.841h6.063a2.214 2.214 0 0 1 2.212 2.211 2.214 2.214 0 0 1-2.212 2.212zm27.735 24.234a2.214 2.214 0 0 1-3.127 0l-4.288-4.288-9.08 9.079-6.053-6.053 1.261-1.261a6.5 6.5 0 0 0 0-9.181 6.5 6.5 0 0 0-2.168-1.43v-6.813h1.783a6.5 6.5 0 0 0 6.492-6.492 6.5 6.5 0 0 0-6.174-6.484l4.858-4.857 9.08 9.079 4.49-4.489a2.2 2.2 0 0 1 1.564-.648 2.2 2.2 0 0 1 1.564.648 2.214 2.214 0 0 1 0 3.128l-4.49 4.489 9.08 9.08-9.08 9.08 4.288 4.288a2.214 2.214 0 0 1 0 3.128zm0 0" class="cls-1" data-name="Path 101" transform="translate(112 85)"/>
</svg>
