<svg xmlns="http://www.w3.org/2000/svg" width="75.398" height="76.725" viewBox="0 0 75.398 76.725">
    <defs>
        <style>
            .cls-1{fill:#fff;stroke:#fff;stroke-width:2px}
        </style>
    </defs>
    <g id="Group_852" data-name="Group 852" transform="translate(1 1.184)">
        <g id="Group_851" data-name="Group 851">
            <path id="Path_100" d="M-35.507-79.067a5.34 5.34 0 0 0-3.307-2.276 5.38 5.38 0 0 0-.276-5.467 5.357 5.357 0 0 0-3.305-2.274 5.386 5.386 0 0 0 .508-1.431 5.341 5.341 0 0 0-.786-4.039 5.334 5.334 0 0 0-3.306-2.276 5.38 5.38 0 0 0-.277-5.467 5.383 5.383 0 0 0-7.45-1.514l-5.352 3.544a33.437 33.437 0 0 0-9.036-3.058 24.832 24.832 0 0 0-3.448-4.172l-2.214-2.146a4.873 4.873 0 0 0-6.044-.557 4.85 4.85 0 0 0-1.365 6.714l.172.265A33.729 33.729 0 0 0-99.762-92.26 33.706 33.706 0 0 0-108-70.174a33.882 33.882 0 0 0 .317 4.632 33.82 33.82 0 0 0 20.5 26.529 33.507 33.507 0 0 0 12.894 2.555 33.492 33.492 0 0 0 19.58-6.263 33.63 33.63 0 0 0 12.143-16 1.159 1.159 0 0 0-.7-1.484 1.159 1.159 0 0 0-1.484.7 31.312 31.312 0 0 1-11.311 14.9 31.184 31.184 0 0 1-18.232 5.832 31.265 31.265 0 0 1-9.913-1.6l9.43-6.245 7.837-5.19a3.144 3.144 0 0 0 1.353-2.006 3.138 3.138 0 0 0-.462-2.375l-.1-.157 1.523-1.008a5.159 5.159 0 0 1 3.679-.795 7.476 7.476 0 0 0 5.334-1.151l12.627-8.363a31.432 31.432 0 0 1-.427 3.255 1.158 1.158 0 0 0 .928 1.351 1.132 1.132 0 0 0 .213.02 1.159 1.159 0 0 0 1.138-.948 33.9 33.9 0 0 0 .554-5.271l3.558-2.357a5.339 5.339 0 0 0 2.3-3.411 5.342 5.342 0 0 0-.786-4.04zm-25.8-19.709l-3.541 2.345-.7-1.879a24.867 24.867 0 0 0-.995-2.3 31.147 31.147 0 0 1 5.233 1.837zm-36.7 8.035a31.4 31.4 0 0 1 18.125-10.334 14.318 14.318 0 0 1 .722 8.672l-2.83 12.208a3.135 3.135 0 0 0-1.67-.933 3.136 3.136 0 0 0-2.375.462l-8 5.3-11.545 7.645c-.063-.814-.1-1.635-.1-2.455a31.392 31.392 0 0 1 7.67-20.565zm30.161 36.461a.839.839 0 0 1-.362.536l-6.884 4.559-12.775-19.054a1.159 1.159 0 0 0-1.608-.317 1.159 1.159 0 0 0-.317 1.608l12.768 19.042-9.826 6.506a31.5 31.5 0 0 1-18.433-23.786l11.558-7.629 1.331 1.985a1.159 1.159 0 0 0 .964.513 1.146 1.146 0 0 0 .644-.2 1.158 1.158 0 0 0 .317-1.608l-1.321-1.971 7.035-4.643a.833.833 0 0 1 .632-.123.84.84 0 0 1 .536.361l15.617 23.583a.838.838 0 0 1 .123.632zm30.853-21.21a3.038 3.038 0 0 1-1.307 1.941l-4.068 2.694-14.519 9.616a5.157 5.157 0 0 1-3.679.795A7.479 7.479 0 0 0-65.9-59.29l-1.522 1.009L-80.211-77.6l3.311-14.28a16.654 16.654 0 0 0-1.219-10.931.845.845 0 0 0-.049-.1 16.442 16.442 0 0 0-1.061-1.854 2.529 2.529 0 0 1 .712-3.5 2.54 2.54 0 0 1 3.153.292l2.214 2.146a22.642 22.642 0 0 1 5.43 8.327l1.206 3.248.007.016.009.023c.009.02.016.038.025.054a1.137 1.137 0 0 0 .08.144 1.158 1.158 0 0 0 1.606.326l12.362-8.186a3.061 3.061 0 0 1 4.238.861 3.061 3.061 0 0 1-.861 4.238l-1.073.711-2.394 1.585-.009.006c-.014.01-.027.019-.037.028a1.158 1.158 0 0 0-.28 1.572 1.159 1.159 0 0 0 1.607.326l2.395-1.587a3.039 3.039 0 0 1 2.3-.445 3.035 3.035 0 0 1 1.941 1.308 3.037 3.037 0 0 1 .447 2.3 3.038 3.038 0 0 1-1.308 1.941l-3.468 2.3a1.158 1.158 0 0 0-.326 1.606 1.157 1.157 0 0 0 .967.519 1.151 1.151 0 0 0 .639-.193l.537-.355 1.858-1.23a3.061 3.061 0 0 1 4.238.861 3.062 3.062 0 0 1-.862 4.238l-1.732 1.147-.027.018-1.716 1.12a1.16 1.16 0 0 0-.326 1.607 1.159 1.159 0 0 0 .967.519 1.152 1.152 0 0 0 .639-.193l.537-.355 1.858-1.23a3.034 3.034 0 0 1 2.3-.447 3.036 3.036 0 0 1 1.941 1.308 3.039 3.039 0 0 1 .447 2.3zm0 0" class="cls-1" data-name="Path 100" transform="translate(108 111)"/>
        </g>
    </g>
</svg>
