<svg xmlns="http://www.w3.org/2000/svg" width="86.55" height="86.55" viewBox="0 0 86.55 86.55">
    <defs>
        <style>
            .cls-1{fill:#fff;stroke:#fff}
        </style>
    </defs>
    <g id="Group_850" data-name="Group 850" transform="translate(.5 .5)">
        <path id="Path_96" d="M176.76 52.077h2.76v2.76h2.76v-2.76h2.76a2.763 2.763 0 0 0 2.76-2.76V43.8a2.763 2.763 0 0 0-2.76-2.76h-8.28v-5.521h8.279v2.76h2.76v-2.76a2.763 2.763 0 0 0-2.76-2.76h-2.76V30h-2.76v2.76h-2.76a2.763 2.763 0 0 0-2.76 2.76v5.519a2.763 2.763 0 0 0 2.76 2.76h8.279v5.519h-8.278v-2.76H174v2.76a2.763 2.763 0 0 0 2.76 2.76zm0 0" class="cls-1" data-name="Path 96" transform="translate(-124.326 -13.442)"/>
        <path id="Path_97" d="M14.574-42A29.009 29.009 0 0 0-14.4-13.023a28.8 28.8 0 0 0 5.11 16.4l-4.42 4.42-2.068-2.068-23.797 23.688A8.226 8.226 0 0 0-42 35.271a8.226 8.226 0 0 0 2.425 5.854 8.219 8.219 0 0 0 5.854 2.425 8.224 8.224 0 0 0 5.856-2.427L-4.176 17.33l-2.067-2.067 4.42-4.42a28.8 28.8 0 0 0 16.4 5.11A29.009 29.009 0 0 0 43.55-13.023 29.009 29.009 0 0 0 14.574-42zM-3.364-13.023a17.959 17.959 0 0 1 17.938-17.938 17.959 17.959 0 0 1 17.937 17.938A17.959 17.959 0 0 1 14.574 4.915a17.856 17.856 0 0 1-5.52-.885v-.495A7.987 7.987 0 0 0 6.7-2.152l-3-3A7.987 7.987 0 0 0-1.985-7.5c-.164 0-.325.014-.489.023a17.891 17.891 0 0 1-.891-5.543zM1.751-3.2l3 3a5.248 5.248 0 0 1 1.543 3.735v.54a5.312 5.312 0 0 1-1.057 3.169L2.868 10.4A26.37 26.37 0 0 1-8.439-.478L-5.72-3.2a5.41 5.41 0 0 1 7.47 0zm-21.684 16.954l7.729 7.729-2.183 2.193-7.739-7.739zm-9.884 25.42a5.524 5.524 0 0 1-7.806 0 5.526 5.526 0 0 1 0-7.8l13.543-13.489 7.748 7.748zm19.561-19.646l-7.722-7.722 2.193-2.184 7.712 7.712zm2.063-6.216l-3.568-3.568 4.156-4.156a29.343 29.343 0 0 0 3.567 3.569zm22.767-.119a26.009 26.009 0 0 1-9.1-1.663L7.445 8.9a8.042 8.042 0 0 0 1.126-2.124 20.674 20.674 0 0 0 6 .9 20.721 20.721 0 0 0 20.7-20.7 20.721 20.721 0 0 0-20.7-20.7 20.721 20.721 0 0 0-20.7 20.7 20.624 20.624 0 0 0 .958 6.176 8.05 8.05 0 0 0-2.5 1.7L-9.69-3.13a26.042 26.042 0 0 1-1.954-9.893A26.246 26.246 0 0 1 14.574-39.24a26.246 26.246 0 0 1 26.217 26.217 26.246 26.246 0 0 1-26.217 26.217zm0 0" class="cls-1" data-name="Path 97" transform="translate(42 42)"/>
        <path id="Path_98" d="M127.378 134.76a1.38 1.38 0 1 0-.976-.4 1.379 1.379 0 0 0 .976.4zm0 0" class="cls-1" data-name="Path 98" transform="translate(-87.362 -91.985)"/>
        <path id="Path_99" d="M145.378 152.76a1.38 1.38 0 1 0-.976-.4 1.379 1.379 0 0 0 .976.4zm0 0" class="cls-1" data-name="Path 99" transform="translate(-101.223 -105.845)"/>
    </g>
</svg>
