<svg xmlns="http://www.w3.org/2000/svg" width="105.578" height="105.577" viewBox="0 0 105.578 105.577">
    <defs>
        <style>
            .cls-1{fill:#fff}.cls-2{fill:#f79220}
        </style>
    </defs>
    <g id="Group_57" data-name="Group 57" transform="translate(-748 -13362)">
        <circle id="Ellipse_52" cx="52.789" cy="52.789" r="52.789" class="cls-1" data-name="Ellipse 52" transform="translate(748 13362)"/>
        <g id="Group_29" data-name="Group 29" transform="translate(771.999 13394.371)">
            <path id="Path_33" d="M45.608 27.365L51.76 9.122a1.931 1.931 0 0 0-.212-1.7 2.776 2.776 0 0 0-2.333-1.061H14.637l-.849-4.243A2.544 2.544 0 0 0 11.243 0H1.485A1.34 1.34 0 0 0 0 1.485v2.546c0 .849.636 1.061 1.7 1.061h8.27l6.364 26.728a5.6 5.6 0 0 0-1.485 4.031c0 3.182 2.546 6.152 5.728 6.152 2.97 0 5.3-2.758 5.728-4.455h11.879a6.008 6.008 0 0 0 5.728 4.667 5.888 5.888 0 0 0 5.728-5.94c0-3.182-1.909-5.94-5.728-5.94a5.537 5.537 0 0 0-4.243 2.121H24.607a5.093 5.093 0 0 0-4.031-2.333l-.212-1.061h22.91a2.383 2.383 0 0 0 2.333-1.7zm-1.7 6.364a2.121 2.121 0 1 1-2.118 2.121 2.126 2.126 0 0 1 2.121-2.121zm-21.422 2.333a2.121 2.121 0 1 1-2.121-2.121 2 2 0 0 1 2.121 2.121zm0 0" class="cls-2" data-name="Path 33"/>
        </g>
    </g>
</svg>
