<svg xmlns="http://www.w3.org/2000/svg" width="105.578" height="105.577" viewBox="0 0 105.578 105.577">
    <defs>
        <style>
            .cls-1{fill:#fff}.cls-2{fill:#f79220}
        </style>
    </defs>
    <g id="Group_58" data-name="Group 58" transform="translate(-1166 -13362.211)">
        <circle id="Ellipse_53" cx="52.789" cy="52.789" r="52.789" class="cls-1" data-name="Ellipse 53" transform="translate(1166 13362.211)"/>
        <g id="Group_30" data-name="Group 30" transform="translate(1192.646 13389.249)">
            <path id="Path_34" d="M231.5 355.015c3.956-.567 7.415-4.685 9.6-10.781a47.119 47.119 0 0 0-9.6-1.134zm0 0" class="cls-2" data-name="Path 34" transform="translate(-204.721 -303.412)"/>
            <path id="Path_35" d="M280 366.07l.694-.208c.2-.058.382-.127.578-.2.231-.081.451-.162.682-.243.2-.069.382-.15.578-.231l.659-.278c.185-.081.382-.174.567-.255.208-.1.428-.208.636-.312.185-.093.37-.185.555-.289.208-.116.416-.22.613-.335s.359-.208.544-.324.4-.243.6-.37c.174-.116.359-.231.532-.347.2-.127.382-.266.578-.4.174-.127.347-.243.509-.37.185-.139.37-.289.555-.44.162-.127.324-.266.486-.393.185-.15.359-.312.544-.474.162-.139.312-.278.474-.416.173-.162.347-.335.521-.509.15-.15.3-.289.451-.44a.658.658 0 0 0 .081-.093 31.118 31.118 0 0 0-6.327-2.441 22.985 22.985 0 0 1-5.911 9.589c.069-.023.15-.035.22-.058.2-.046.382-.1.578-.162zm0 0" class="cls-2" data-name="Path 35" transform="translate(-246.903 -315.439)"/>
            <path id="Path_36" d="M348.044 231h-11.082a48.235 48.235 0 0 1-1.862 12.782 31.879 31.879 0 0 1 7.01 2.788 25.74 25.74 0 0 0 5.934-15.57zm0 0" class="cls-2" data-name="Path 36" transform="translate(-296.337 -204.279)"/>
            <path id="Path_37" d="M231.5 120.831h12a46.355 46.355 0 0 0-1.816-12.331 48.674 48.674 0 0 1-10.179 1.215zm0 0" class="cls-2" data-name="Path 37" transform="translate(-204.721 -95.949)"/>
            <path id="Path_38" d="M231.5 0v11.915a47.12 47.12 0 0 0 9.6-1.134C238.915 4.685 235.456.567 231.5 0zm0 0" class="cls-2" data-name="Path 38" transform="translate(-204.721)"/>
            <path id="Path_39" d="M231.5 242.116a48.675 48.675 0 0 1 10.179 1.215A46.355 46.355 0 0 0 243.5 231h-12zm0 0" class="cls-2" data-name="Path 39" transform="translate(-204.721 -204.279)"/>
            <path id="Path_40" d="M342.11 80.4a31.879 31.879 0 0 1-7.01 2.788 47.769 47.769 0 0 1 1.862 12.782h11.082a25.794 25.794 0 0 0-5.934-15.57zm0 0" class="cls-2" data-name="Path 40" transform="translate(-296.337 -71.1)"/>
            <path id="Path_41" d="M291.25 13.649l-.081-.081c-.15-.15-.3-.3-.451-.44-.174-.174-.347-.335-.521-.509-.15-.139-.312-.278-.474-.416a10.667 10.667 0 0 0-.544-.474c-.162-.139-.324-.266-.486-.393-.185-.15-.37-.3-.567-.44-.162-.127-.335-.243-.509-.37-.2-.139-.382-.278-.578-.4l-.521-.347c-.2-.127-.393-.254-.6-.382-.174-.1-.359-.208-.544-.312l-.625-.347c-.185-.093-.37-.2-.555-.289-.208-.1-.428-.208-.648-.312a7.675 7.675 0 0 0-.567-.254l-.659-.283c-.185-.081-.382-.15-.567-.231a47.32 47.32 0 0 0-.682-.243c-.2-.069-.382-.139-.578-.2l-.693-.206c-.2-.058-.382-.116-.578-.162-.069-.023-.15-.035-.22-.058a23.1 23.1 0 0 1 5.911 9.589 30.958 30.958 0 0 0 6.339-2.441zm0 0" class="cls-2" data-name="Path 41" transform="translate(-246.727 -5.748)"/>
            <path id="Path_42" d="M0 96.07h11.082a48.236 48.236 0 0 1 1.862-12.782 31.879 31.879 0 0 1-7.01-2.788A25.74 25.74 0 0 0 0 96.07zm0 0" class="cls-2" data-name="Path 42" transform="translate(0 -71.188)"/>
            <path id="Path_43" d="M142.1 355.015V343.1a47.119 47.119 0 0 0-9.6 1.134c2.186 6.1 5.645 10.214 9.6 10.781zm0 0" class="cls-2" data-name="Path 43" transform="translate(-117.173 -303.412)"/>
            <path id="Path_44" d="M123.8 231h-12a46.355 46.355 0 0 0 1.816 12.331 48.675 48.675 0 0 1 10.179-1.215zm0 0" class="cls-2" data-name="Path 44" transform="translate(-98.868 -204.279)"/>
            <path id="Path_45" d="M142.1 0c-3.956.567-7.426 4.685-9.6 10.781a47.12 47.12 0 0 0 9.6 1.134zm0 0" class="cls-2" data-name="Path 45" transform="translate(-117.173)"/>
            <path id="Path_46" d="M123.8 109.715a48.675 48.675 0 0 1-10.179-1.215 46.354 46.354 0 0 0-1.816 12.331h12zm0 0" class="cls-2" data-name="Path 46" transform="translate(-98.868 -95.949)"/>
            <path id="Path_47" d="M74.427 6.5c-.069.023-.15.035-.22.058-.2.058-.393.116-.578.162l-.694.208c-.2.069-.393.127-.578.2-.231.081-.451.162-.671.243-.2.069-.382.15-.578.231l-.659.278c-.185.081-.382.174-.567.254-.208.1-.428.208-.636.312-.185.093-.37.2-.555.289-.208.116-.416.22-.613.335s-.37.208-.544.312c-.2.116-.4.243-.6.37-.174.116-.359.231-.532.347-.2.127-.382.266-.578.4-.174.127-.347.243-.509.37-.185.139-.37.289-.555.44-.162.127-.335.266-.486.393-.185.15-.359.312-.544.474-.162.139-.312.278-.474.428s-.347.335-.521.5c-.15.15-.3.289-.451.44a.661.661 0 0 0-.081.093 31.118 31.118 0 0 0 6.327 2.441 22.734 22.734 0 0 1 5.9-9.578zm0 0" class="cls-2" data-name="Path 47" transform="translate(-55.005 -5.748)"/>
            <path id="Path_48" d="M62.709 359.673c.174.174.347.335.521.509.15.139.312.278.474.416.174.162.359.324.544.474.162.139.324.266.486.393.185.15.37.3.567.44.162.127.335.243.509.37.2.139.393.278.59.4l.521.347c.2.127.4.254.6.37.174.1.359.208.544.312l.625.347c.185.093.37.2.555.289.208.1.428.208.648.312.185.093.37.173.567.254l.659.278c.185.081.382.15.567.231.22.081.451.162.682.243.2.069.382.139.578.2l.694.208c.2.058.382.116.578.162.069.023.15.035.22.058a23.1 23.1 0 0 1-5.911-9.589 30.861 30.861 0 0 0-6.327 2.441l.081.081a5.214 5.214 0 0 0 .428.451zm0 0" class="cls-2" data-name="Path 48" transform="translate(-55.005 -315.439)"/>
            <path id="Path_49" d="M5.934 246.67a31.881 31.881 0 0 1 7.01-2.788 47.768 47.768 0 0 1-1.862-12.782H0a25.794 25.794 0 0 0 5.934 15.57zm0 0" class="cls-2" data-name="Path 49" transform="translate(0 -204.367)"/>
        </g>
    </g>
</svg>
