<svg xmlns="http://www.w3.org/2000/svg" width="105.577" height="105.577" viewBox="0 0 105.577 105.577">
    <defs>
        <style>
            .cls-1{fill:#fff}.cls-2{fill:#f79220;stroke:#f79220}
        </style>
    </defs>
    <g id="Group_56" data-name="Group 56" transform="translate(-329 -13362.211)">
        <circle id="Ellipse_51" cx="52.789" cy="52.789" r="52.789" class="cls-1" data-name="Ellipse 51" transform="translate(329 13362.211)"/>
        <g id="Group_28" data-name="Group 28" transform="translate(359.249 13389.249)">
            <path id="Path_29" d="M300.889 190a.889.889 0 1 0 .889.889.891.891 0 0 0-.889-.889z" class="cls-2" data-name="Path 29" transform="translate(-273.339 -173.115)"/>
            <path id="Path_30" d="M44.462 39.432L32.6 27.567a17.614 17.614 0 0 0 2.95-9.793 17.774 17.774 0 1 0-17.776 17.774 17.614 17.614 0 0 0 9.793-2.95l3.279 3.279 8.585 8.585a3.521 3.521 0 0 0 2.515 1.04 3.558 3.558 0 0 0 2.515-1.04 3.521 3.521 0 0 0 1.04-2.515 3.558 3.558 0 0 0-1.039-2.515zm-15.446-7.9a17.7 17.7 0 0 0 2.515-2.515l2.524 2.524a21.683 21.683 0 0 1-2.515 2.515zM1.777 17.774a16 16 0 1 1 31.993 0 16.022 16.022 0 0 1-6.62 12.948 15.847 15.847 0 0 1-9.376 3.048A16.009 16.009 0 0 1 1.777 17.774zM43.2 43.2a1.759 1.759 0 0 1-2.506 0L32.8 35.308a23.174 23.174 0 0 0 2.515-2.515l7.892 7.892A1.76 1.76 0 0 1 43.2 43.2z" class="cls-2" data-name="Path 30"/>
            <path id="Path_31" d="M68.438 54.219a14.219 14.219 0 1 0-14.219 14.219 14.238 14.238 0 0 0 14.219-14.219zM54.219 66.661a12.442 12.442 0 1 1 12.442-12.442 12.455 12.455 0 0 1-12.442 12.442z" class="cls-2" data-name="Path 31" transform="translate(-36.445 -36.445)"/>
            <path id="Path_32" d="M200.336 88a.882.882 0 0 0 .507-1.146A10.7 10.7 0 0 0 190.889 80a.889.889 0 0 0 0 1.777 8.951 8.951 0 0 1 8.3 5.705.88.88 0 0 0 .826.569.808.808 0 0 0 .321-.051z" class="cls-2" data-name="Path 32" transform="translate(-173.115 -72.89)"/>
        </g>
    </g>
</svg>
