<svg xmlns="http://www.w3.org/2000/svg" width="132.004" height="132.006" viewBox="0 0 132.004 132.006">
    <defs>
        <style>
            .cls-1{fill:#fff;stroke:#fff;stroke-width:2px}
        </style>
    </defs>
    <g id="Group_849" data-name="Group 849" transform="translate(-23 -23)">
        <path id="Path_91" d="M144 176.548c17.226 0 25.371-17.571 29.188-32.548H144zm0 0" class="cls-1" data-name="Path 91" transform="translate(-54.995 -54.997)"/>
        <path id="Path_92" d="M87.5 116.7h29.173V84.449l-32.3 13.745A119.273 119.273 0 0 0 87.5 116.7zm0 0" class="cls-1" data-name="Path 92" transform="translate(-27.67 -27.704)"/>
        <path id="Path_93" d="M89 24a65 65 0 1 0 65 65 65 65 0 0 0-65-65zm39.2 44.472c-.1 2.441-2.935 59.821-39.2 59.821s-39.1-57.38-39.2-59.821l-.1-2.332L89 49.415l39.3 16.725zm0 0" class="cls-1" data-name="Path 93"/>
    </g>
</svg>
