<svg width="43" height="54" viewBox="0 0 43 54" fill="none" xmlns="http://www.w3.org/2000/svg">
<g filter="url(#filter0_d_8_284)">
<path fill-rule="evenodd" clip-rule="evenodd" d="M17.3386 1.13174C13.9696 1.54663 11.012 2.72641 8.21419 4.77142C7.20688 5.5076 5.24021 7.47514 4.4458 8.54131C2.59495 11.0254 1.35893 14.0342 0.929206 17.1021C0.865248 17.5588 0.665024 18.3313 0.484253 18.8187C-0.347983 21.0628 -0.103352 23.2948 1.18602 25.2235C2.21239 26.7585 4.10086 27.9675 5.81848 28.189C6.07559 28.2221 6.38545 28.2697 6.50708 28.2947C6.72263 28.3388 6.72813 28.3192 6.72813 27.5078C6.72813 27.0501 6.75328 26.6756 6.78413 26.6756C6.81488 26.6756 7.02493 26.8017 7.2508 26.9558C9.22602 28.3034 12.4467 29.1583 16.3562 29.373C17.3685 29.4285 17.6057 29.4707 17.7069 29.613C17.9224 29.916 18.4859 30.1966 19.0925 30.3029C21.0387 30.6437 22.5137 28.7832 21.2457 27.5867C20.7025 27.0741 20.3129 26.9232 19.5491 26.9298C18.7761 26.9364 18.3226 27.0948 17.8203 27.5333L17.4813 27.8294L16.1082 27.7468C12.2277 27.5136 9.34696 26.6294 7.41585 25.0789L6.77726 24.5661L6.75181 19.4655L6.72636 14.3648L6.30971 14.4192C5.20631 14.5632 4.17474 14.9285 3.17097 15.5304L2.80687 15.7488L3.00159 15.05C4.6863 9.00494 9.79279 4.25934 15.9966 2.97337C23.4844 1.4212 31.049 4.9706 34.6579 11.7293C35.182 12.7107 35.7189 14.0376 35.9949 15.0334L36.1932 15.7488L35.8291 15.5304C34.825 14.9283 33.7939 14.5633 32.6894 14.4191L32.2719 14.3645V21.3523V28.34L32.493 28.2947C32.6146 28.2697 32.9244 28.2221 33.1816 28.189C34.8992 27.9675 36.7876 26.7585 37.814 25.2235C39.1037 23.2944 39.348 21.0628 38.5153 18.8174C38.3348 18.3308 38.1348 17.5588 38.0708 17.1021C37.1917 10.8262 33.1579 5.41294 27.3785 2.75298C24.1824 1.28199 20.6936 0.71862 17.3386 1.13174ZM16.9456 4.1594C14.9878 4.42658 12.4409 5.48962 10.5713 6.82014C8.40803 8.35951 6.49637 10.6702 5.38836 13.085L5.05767 13.8057L5.42628 13.7476C5.62896 13.7157 6.04827 13.6601 6.35814 13.6241L6.92148 13.5588L7.37891 12.7485C9.73434 8.57599 14.0383 5.84081 18.6637 5.57705C21.1197 5.43697 22.8153 5.69741 24.927 6.53899C27.7884 7.67931 30.4921 10.0919 31.9778 12.8305C32.3618 13.5386 32.3961 13.5722 32.7919 13.6309C33.0193 13.6646 33.4176 13.739 33.6772 13.7963C33.9368 13.8536 34.1762 13.8736 34.2092 13.8408C34.3159 13.7346 33.0717 11.4127 32.436 10.5313C29.9156 7.03759 26.0448 4.63045 22.1806 4.15383C20.7905 3.98229 18.2232 3.98503 16.9456 4.1594ZM17.5351 8.17107C13.91 8.82461 10.8135 11.076 9.1486 14.2692C8.22156 16.0471 7.80883 17.7174 7.80883 19.6909C7.80883 21.4916 8.12626 22.9516 8.86526 24.5508C9.19812 25.271 9.24174 25.32 9.7646 25.5621C10.3079 25.8138 11.6031 26.2848 11.7516 26.2848C11.7938 26.2848 11.5908 25.9556 11.3005 25.5533C10.7598 24.8041 10.1744 23.6797 9.96767 22.9934C9.85931 22.6339 9.87454 22.5628 10.1945 21.931C11.3039 19.7406 12.9117 18.5775 15.5211 18.0777C15.8453 18.0157 17.459 17.9304 19.107 17.8884C22.4014 17.8043 22.7425 17.7529 23.9702 17.1551C24.3484 16.9708 24.931 16.6006 25.2648 16.3323L25.8716 15.8445L25.9397 16.4977C26.0549 17.6029 26.4365 18.9006 26.9279 19.8579C27.3111 20.6046 27.5575 20.928 28.3173 21.6823C29.3823 22.7393 29.3589 22.597 28.6954 23.9892C27.7074 26.0616 26.1209 27.6779 24.0684 28.7028C23.6361 28.9187 23.0981 29.1502 22.873 29.2173C22.5529 29.3127 22.3969 29.4414 22.1588 29.8067C21.6696 30.5575 20.5362 31.1693 19.6344 31.1693C18.8393 31.1693 17.9038 30.8577 17.4369 30.4375C17.2098 30.2331 17.0739 30.2124 15.6403 30.1638L14.0892 30.111L13.5628 30.5669C12.242 31.7106 9.95598 32.6787 6.96382 33.3614L5.54919 33.6841V31.3249V28.9657L4.83691 28.774C4.44521 28.6686 4.06942 28.5677 4.00183 28.5498C3.90525 28.5242 3.87902 29.2601 3.87902 31.9925V35.4675H4.16098C4.61448 35.4675 6.68255 35.0896 7.90708 34.7829C11.1751 33.9646 13.6506 32.7849 15.0779 31.3657L15.6777 30.7693L16.6801 31.0266C18.5502 31.5068 20.8996 31.4676 22.7817 30.9247L23.5772 30.6954L24.2126 31.3298C25.3279 32.4431 26.9566 33.3681 29.0886 34.0991C30.882 34.714 33.3023 35.2786 34.8017 35.4318L35.4157 35.4945V31.9642C35.4157 29.4763 35.384 28.434 35.3084 28.434C35.2493 28.434 34.8735 28.5495 34.4733 28.6909L33.7456 28.9477V31.2796C33.7456 33.1853 33.721 33.6115 33.6114 33.6115C33.428 33.6115 31.4629 33.1653 30.7982 32.9727C29.1131 32.4844 27.5835 31.8189 26.4719 31.0903C25.7985 30.6489 25.1046 30.0365 25.2054 29.9724C27.7089 28.3816 29.1243 26.8744 30.1605 24.6958C33.1735 18.3612 29.9376 10.8217 23.2552 8.60676C21.5282 8.03431 19.2546 7.86111 17.5351 8.17107ZM21.1328 9.7292C22.2243 9.91569 23.2694 10.2583 24.1956 10.7332C25.1382 11.2166 26.1807 11.9892 26.1807 12.2044C26.1807 12.298 26.0023 12.7415 25.7842 13.1899C25.2679 14.2515 24.2766 15.2658 23.308 15.7237C22.2807 16.2093 21.4655 16.3206 18.939 16.3206C13.9734 16.3206 11.6517 17.1759 9.65555 19.7404L9.38999 20.0816L9.38537 19.4839C9.37584 18.2449 9.84123 16.3765 10.4654 15.1484C11.2049 13.6932 12.5251 12.229 13.9446 11.2899C16.1013 9.86294 18.6618 9.30709 21.1328 9.7292ZM28.0113 14.1471C28.4235 14.7749 28.9186 15.7652 29.1465 16.4179C29.5625 17.6088 29.8057 19.4026 29.6714 20.2887L29.5992 20.7654L29.1169 20.2446C28.2401 19.2977 27.6491 17.7876 27.4994 16.1119C27.4298 15.3323 27.5254 13.683 27.6402 13.683C27.6768 13.683 27.8437 13.8918 28.0113 14.1471ZM15.3903 20.1379C14.9616 20.2281 14.513 20.6647 14.3735 21.1277C14.2197 21.6382 14.3936 22.1757 14.838 22.5636C15.1332 22.8214 15.2618 22.8657 15.7134 22.8657C16.2997 22.8657 16.7236 22.6057 16.9983 22.0775C17.5288 21.0572 16.5622 19.8913 15.3903 20.1379ZM23.086 20.1316C22.126 20.3355 21.6862 21.2448 22.1139 22.1412C22.5337 23.0209 23.866 23.121 24.4992 22.3205C25.275 21.34 24.3248 19.8685 23.086 20.1316ZM9.7195 36.4928C7.83516 36.9982 6.38123 38.0779 5.42275 39.6833C4.95687 40.4638 4.67883 41.3405 4.56015 42.4034C4.33232 44.4445 3.68253 50.6879 3.68253 50.836C3.68253 50.9889 4.76774 51 19.7074 51H35.7324L35.6769 50.6825C35.6463 50.5078 35.4426 48.6066 35.224 46.4575C35.0054 44.3083 34.7576 42.1763 34.6734 41.7196C34.3028 39.71 32.981 37.9903 31.072 37.0343C29.9448 36.4696 29.1823 36.3344 27.3128 36.3677L25.743 36.3956L22.7402 40.0025C21.0887 41.9864 19.7034 43.6043 19.6616 43.598C19.62 43.5916 18.1722 41.9575 16.4446 39.9666L13.3034 36.3467L11.7596 36.3532C10.7846 36.3572 10.033 36.4087 9.7195 36.4928Z" fill="white"/>
</g>
<defs>
<filter id="filter0_d_8_284" x="0" y="0" width="43" height="54" filterUnits="userSpaceOnUse" color-interpolation-filters="sRGB">
<feFlood flood-opacity="0" result="BackgroundImageFix"/>
<feColorMatrix in="SourceAlpha" type="matrix" values="0 0 0 0 0 0 0 0 0 0 0 0 0 0 0 0 0 0 127 0" result="hardAlpha"/>
<feOffset dx="2" dy="1"/>
<feGaussianBlur stdDeviation="1"/>
<feColorMatrix type="matrix" values="0 0 0 0 0 0 0 0 0 0 0 0 0 0 0 0 0 0 0.25 0"/>
<feBlend mode="normal" in2="BackgroundImageFix" result="effect1_dropShadow_8_284"/>
<feBlend mode="normal" in="SourceGraphic" in2="effect1_dropShadow_8_284" result="shape"/>
</filter>
</defs>
</svg>
