<svg width="81" height="63" viewBox="0 0 81 63" fill="none" xmlns="http://www.w3.org/2000/svg">
<g filter="url(#filter0_d_107_37)">
<path fill-rule="evenodd" clip-rule="evenodd" d="M7.96932 2.0704C6.65196 2.52978 5.53525 3.37987 4.77899 4.49911C4.01933 5.62345 3.67484 6.75072 3.69613 8.04324C3.74862 11.2433 5.90443 13.7357 9.09476 14.2846C12.6112 14.8898 16.183 12.149 16.4088 8.67226C16.4869 7.4715 16.5371 7.41934 17.6252 7.41218C18.4479 7.40677 19.6237 6.78739 20.0329 6.14376C20.557 5.31968 21.0554 3.78709 20.9515 3.31923C20.8387 2.81178 20.3827 2.32712 19.9071 2.20906C19.7029 2.15836 18.1911 2.24676 16.5476 2.40544C13.6873 2.68159 13.5403 2.68291 13.1157 2.43671C11.7596 1.65003 9.61282 1.4972 7.96932 2.0704ZM60.3392 3.40164C57.8731 4.15238 55.9957 6.29733 55.5986 8.81765C54.9758 12.771 58.166 16.4707 62.1979 16.4707C67.1874 16.4707 70.4512 11.3708 68.3001 6.93585C67.1537 4.57216 64.8664 3.16187 62.2159 3.18452C61.5578 3.19007 60.7133 3.28782 60.3392 3.40164ZM22.0006 13.4083C21.4053 13.5843 20.6066 14.3877 20.4422 14.9758C20.2474 15.6729 20.8093 23.4984 21.113 24.3174C21.3869 25.0565 22.1708 25.7752 22.8338 25.8949C23.0998 25.9429 25.9787 25.9626 29.2314 25.9387L35.1455 25.895L35.6446 25.5432C35.9192 25.3497 36.27 24.9093 36.4244 24.5646C36.7004 23.9476 36.7 23.8703 36.3961 19.5954C36.0737 15.0609 35.9799 14.5932 35.2667 13.9557C34.5144 13.2835 34.2247 13.2554 28.1643 13.2687C25.0106 13.2756 22.2369 13.3384 22.0006 13.4083ZM10.2326 16.2088C6.9073 16.3606 6.35685 16.5211 5.67644 17.5367L5.27961 18.129L5.18499 29.683C5.09554 40.6135 4.9678 44.3775 4.62937 46.0587C4.39916 47.2022 4.02126 48.169 2.32023 51.9681C0.911509 55.114 0.742664 55.5793 0.806683 56.1401C0.899977 56.9585 1.40134 57.6403 2.16011 57.9809C2.8559 58.2931 4.11085 58.3425 4.71822 58.0815C5.83228 57.6029 6.07091 57.2756 7.77829 53.8857C9.83297 49.8064 10.1821 48.8606 11.2856 44.3847C11.7701 42.4193 12.1884 40.7897 12.215 40.7633C12.2749 40.7042 16.1798 46.6221 16.4803 47.2276C16.9762 48.2263 17.1928 49.3143 17.6087 52.8945C17.9971 56.2369 18.0894 56.7344 18.4271 57.3036C19.2388 58.6724 21.47 59.1428 22.7117 58.2069C23.8336 57.3612 23.8653 57.0129 23.3136 51.611C22.7233 45.8319 22.8124 46.1772 20.1238 39.2333C18.4404 34.8857 18.2166 34.2038 18.2166 33.4253C18.2166 32.9402 18.2331 32.5366 18.2535 32.5286C18.2739 32.5205 20.353 32.4327 22.8739 32.3334C27.8684 32.1365 28.0154 32.1088 28.7703 31.2222C29.3159 30.5815 29.3159 29.537 28.7703 28.8963C28.0041 27.9966 27.8031 27.9543 23.8942 27.8706C20.1856 27.7914 20.035 27.7645 19.6875 27.1231C19.6109 26.9816 19.2491 24.9982 18.8837 22.7151C18.0298 17.384 18.1187 17.7499 17.5061 17.0425C16.5614 15.9518 16.3618 15.9289 10.2326 16.2088ZM55.401 18.2269C54.5158 18.402 53.4286 18.858 51.335 19.9322C48.6148 21.3278 48.6617 21.3284 44.6316 19.8466C42.4428 19.042 41.2065 18.6624 40.7743 18.6624C39.1806 18.6624 38.4226 20.459 39.2633 22.2432C39.7961 23.3739 40.3778 23.773 42.7704 24.6486C48.7634 26.8423 48.6385 26.8306 52.4867 25.5582C53.8927 25.0934 55.0737 24.7435 55.1111 24.7804C55.1487 24.8176 55.1793 32.0059 55.1793 40.7546C55.1793 54.7814 55.2063 56.7253 55.4081 57.2025C55.9234 58.4213 56.898 58.9816 58.5115 58.9866C59.8272 58.9907 60.6803 58.5985 61.3131 57.6989L61.7586 57.0653L61.7991 48.7494L61.8396 40.4333H62.2796H62.7196V48.6216C62.7196 56.3828 62.7343 56.838 63.001 57.3519C63.5945 58.4956 64.5271 58.9898 66.0923 58.9898C67.3558 58.9898 68.2163 58.5842 68.8555 57.6876L69.299 57.0653L69.34 47.0789L69.3808 37.0924L70.1234 36.8772C71.4433 36.4948 71.808 36.1373 73.5746 33.4929C76.4362 29.2096 76.3882 29.3016 76.3842 28.1042C76.3822 27.5265 76.2934 26.9014 76.1843 26.6986C76.0763 26.4977 74.8546 24.7676 73.4696 22.8538C71.6787 20.3793 70.7697 19.2508 70.3221 18.9466C69.1228 18.1311 68.5876 18.0763 61.9863 18.094C58.6897 18.1027 55.7263 18.1625 55.401 18.2269ZM70.3876 26.8311C71.4013 28.2755 71.4026 28.6345 70.3996 30.1165C69.9884 30.7239 69.5892 31.2594 69.5125 31.3063C69.4268 31.3586 69.3729 30.2505 69.3729 28.4314C69.3729 26.7609 69.4285 25.5318 69.5005 25.6101C69.5708 25.6863 69.97 26.2359 70.3876 26.8311Z" fill="black"/>
</g>
<defs>
<filter id="filter0_d_107_37" x="0.795349" y="0.579804" width="80.1705" height="61.8459" filterUnits="userSpaceOnUse" color-interpolation-filters="sRGB">
<feFlood flood-opacity="0" result="BackgroundImageFix"/>
<feColorMatrix in="SourceAlpha" type="matrix" values="0 0 0 0 0 0 0 0 0 0 0 0 0 0 0 0 0 0 127 0" result="hardAlpha"/>
<feOffset dx="2.29059" dy="1.14529"/>
<feGaussianBlur stdDeviation="1.14529"/>
<feColorMatrix type="matrix" values="0 0 0 0 0 0 0 0 0 0 0 0 0 0 0 0 0 0 0.25 0"/>
<feBlend mode="normal" in2="BackgroundImageFix" result="effect1_dropShadow_107_37"/>
<feBlend mode="normal" in="SourceGraphic" in2="effect1_dropShadow_107_37" result="shape"/>
</filter>
</defs>
</svg>
