<svg width="41" height="47" viewBox="0 0 41 47" fill="none" xmlns="http://www.w3.org/2000/svg">
<g filter="url(#filter0_d_1_118)">
<path d="M7.55704 32.2146C7.55704 32.2146 1.77247 25.984 6.51566 19.8625L7.81548 22.6927V17.0323L13.3239 10.4521L15.2369 14.7367V8.92426L22.1109 4.32295L22.5518 7.85248L24.2342 2.95726L28.2882 1.1887C32.2536 0.618602 35.8034 3.69458 35.8034 7.69792L32.9858 9.45888L34.8988 9.68945L27.7055 18.9351L23.2689 19.7105L27.2469 20.7037L23.2689 26.4401L16.8129 27.745L22.3973 28.6622C22.3973 28.6622 21.328 33.2509 7.55704 32.2146Z" fill="#1C172C"/>
<path d="M6.20907 37.7636C6.20907 37.7636 5.85181 36.028 7.55703 32.2172C9.72086 27.3752 15.2115 19.1861 28.985 6.95056" stroke="white" stroke-width="0.963542" stroke-miterlimit="10" stroke-linecap="round" stroke-linejoin="round"/>
<path d="M7.55704 32.2146C7.55704 32.2146 1.77247 25.984 6.51566 19.8625L7.81548 22.6927V17.0323L13.3239 10.4521L15.2369 14.7367V8.92426L22.1109 4.32295L22.5518 7.85248L24.2342 2.95726L28.2882 1.1887C32.2536 0.618602 35.8034 3.69458 35.8034 7.69792L32.9858 9.45888L34.8988 9.68945L27.7055 18.9351L23.2689 19.7105L27.2469 20.7037L23.2689 26.4401L16.8129 27.745L22.3973 28.6622C22.3973 28.6622 21.328 33.2509 7.55704 32.2146V32.2146Z" stroke="white" stroke-width="0.963542" stroke-miterlimit="10" stroke-linecap="round" stroke-linejoin="round"/>
</g>
<defs>
<filter id="filter0_d_1_118" x="0.165848" y="0.638611" width="40.1193" height="45.6069" filterUnits="userSpaceOnUse" color-interpolation-filters="sRGB">
<feFlood flood-opacity="0" result="BackgroundImageFix"/>
<feColorMatrix in="SourceAlpha" type="matrix" values="0 0 0 0 0 0 0 0 0 0 0 0 0 0 0 0 0 0 127 0" result="hardAlpha"/>
<feOffset dy="4"/>
<feGaussianBlur stdDeviation="2"/>
<feComposite in2="hardAlpha" operator="out"/>
<feColorMatrix type="matrix" values="0 0 0 0 1 0 0 0 0 0.42 0 0 0 0 0 0 0 0 0.5 0"/>
<feBlend mode="normal" in2="BackgroundImageFix" result="effect1_dropShadow_1_118"/>
<feBlend mode="normal" in="SourceGraphic" in2="effect1_dropShadow_1_118" result="shape"/>
</filter>
</defs>
</svg>
