<svg width="39" height="44" viewBox="0 0 39 44" fill="none" xmlns="http://www.w3.org/2000/svg">
<g filter="url(#filter0_d_1_111)">
<path d="M7.49743 9.88407L31.528 9.9102C32.3852 9.91116 32.9891 11.0781 33.0754 12.523L34.2789 32.679C34.3652 34.1239 33.5887 35.2917 32.7315 35.2917H6.52662C5.66938 35.2917 4.90925 34.1248 4.97928 32.679L5.95007 12.6445C6.02015 11.1987 6.64019 9.88363 7.49743 9.88456V9.88407Z" stroke="white" stroke-width="1.03212" stroke-linecap="round" stroke-linejoin="round"/>
<path d="M27.1935 8.38411C27.1935 7.00851 26.8427 5.65724 26.1765 4.46657C25.5104 3.27589 24.5524 2.28792 23.3991 1.60228C22.2459 0.916631 20.9382 0.557557 19.608 0.561278C18.2778 0.565 16.972 0.931383 15.8224 1.62348C14.6728 2.31558 13.72 3.30892 13.0601 4.50332C12.4002 5.69772 12.0565 7.05094 12.0637 8.42651" stroke="white" stroke-width="1.03212" stroke-linecap="round" stroke-linejoin="round"/>
</g>
<defs>
<filter id="filter0_d_1_111" x="0.458736" y="0.045166" width="38.3428" height="43.7626" filterUnits="userSpaceOnUse" color-interpolation-filters="sRGB">
<feFlood flood-opacity="0" result="BackgroundImageFix"/>
<feColorMatrix in="SourceAlpha" type="matrix" values="0 0 0 0 0 0 0 0 0 0 0 0 0 0 0 0 0 0 127 0" result="hardAlpha"/>
<feOffset dy="4"/>
<feGaussianBlur stdDeviation="2"/>
<feComposite in2="hardAlpha" operator="out"/>
<feColorMatrix type="matrix" values="0 0 0 0 1 0 0 0 0 0.42 0 0 0 0 0 0 0 0 1 0"/>
<feBlend mode="normal" in2="BackgroundImageFix" result="effect1_dropShadow_1_111"/>
<feBlend mode="normal" in="SourceGraphic" in2="effect1_dropShadow_1_111" result="shape"/>
</filter>
</defs>
</svg>
