<svg width="44" height="39" viewBox="0 0 44 39" fill="none" xmlns="http://www.w3.org/2000/svg">
<g filter="url(#filter0_d_1_115)">
<path d="M17.3042 29.6115C17.0479 30.5655 16.4949 30.9981 15.5546 30.9981C12.4947 31.0023 9.43616 30.9981 6.37621 30.9995C5.7383 30.9995 5.17815 30.7895 4.67416 30.4217C4.25801 30.1202 4.08665 29.7002 4.08233 29.1958C4.05641 26.4268 4.00745 23.6578 4.00025 20.8888C3.99593 19.264 4.04777 17.6379 4.08809 16.0117C4.11977 14.7139 5.23575 13.6584 6.55045 13.6598C9.81343 13.6626 13.0779 13.6612 16.3408 13.6753C16.6231 13.6753 16.816 13.5978 16.9701 13.3738C17.7823 12.1929 18.5973 11.0163 19.4094 9.83679C19.7118 9.39713 19.9739 8.92507 20.3181 8.52205C21.2728 7.40459 21.3836 6.13494 21.1691 4.76102C21.0308 3.88029 20.966 2.98689 20.9142 2.0963C20.8825 1.57492 21.1388 1.1564 21.555 0.815382C22.8682 -0.26403 24.7258 -0.279531 26.2464 0.815382C27.9643 2.05262 28.8254 3.78165 29.1177 5.80661C29.3726 7.57369 29.1149 9.30554 28.6526 11.0148C28.6224 11.129 28.5921 11.2431 28.5633 11.3573C28.559 11.3798 28.5633 11.4038 28.5633 11.4728C28.6901 11.4728 28.8153 11.4728 28.9406 11.4728C31.5326 11.4714 34.1245 11.4714 36.715 11.47C38.3609 11.4686 39.6929 12.4846 39.955 13.9783C40.1422 15.0352 39.7289 15.9215 39.0219 16.6881C38.8505 16.8741 38.8145 17.0178 38.8764 17.2701C39.2062 18.6102 38.8318 19.8108 38.0297 20.8972C37.8512 21.1382 37.7734 21.3355 37.8123 21.654C37.9793 23.0194 37.6338 24.2651 36.787 25.3755C36.6805 25.515 36.6056 25.7405 36.633 25.9096C37.0275 28.3235 35.2981 29.8158 33.2922 29.9863C31.9934 30.0976 30.6801 30.0511 29.3726 30.0539C25.9656 30.061 22.5587 30.0511 19.1517 30.0596C18.5037 30.061 17.8888 29.9807 17.3042 29.6115ZM36.6546 21.6455C36.489 21.6455 36.3479 21.6455 36.2067 21.6455C34.4068 21.6469 32.6068 21.6483 30.8068 21.6469C30.5908 21.6469 30.3705 21.6624 30.1603 21.6244C29.8564 21.568 29.6721 21.3735 29.6894 21.0522C29.7067 20.7366 29.891 20.5576 30.2092 20.5224C30.3403 20.5069 30.4728 20.5111 30.6052 20.5111C32.5967 20.5125 34.5882 20.5154 36.5811 20.5083C36.7107 20.5083 36.8907 20.4731 36.9627 20.3871C37.6352 19.5769 37.9851 18.6694 37.7792 17.6026C37.7245 17.3194 37.5906 17.2292 37.2939 17.232C35.3975 17.2447 33.501 17.2391 31.6046 17.2377C30.9998 17.2377 30.7046 17.0446 30.7161 16.6571C30.7276 16.2837 31.007 16.1075 31.6003 16.1075C33.6162 16.1047 35.6322 16.1061 37.6482 16.1005C37.7878 16.1005 37.9549 16.0991 38.0614 16.03C38.8865 15.4861 39.0852 14.1347 38.4574 13.3766C37.9909 12.8143 37.3717 12.6001 36.6459 12.6016C33.874 12.6086 31.102 12.6058 28.3301 12.6072C27.2184 12.6072 27.0931 12.455 27.3667 11.408C27.7829 9.81988 28.1602 8.22613 28.0421 6.56614C27.9312 5.01889 27.456 3.60833 26.3803 2.44296C25.6388 1.63974 24.7604 1.07185 23.5897 1.14372C22.5169 1.21135 21.9711 1.79052 22.0604 2.82061C22.1353 3.67597 22.2663 4.5271 22.3815 5.37822C22.5486 6.62533 22.275 7.76111 21.5247 8.78838C21.1691 9.27595 20.8264 9.77479 20.4937 10.2793C19.5189 11.7631 18.6102 13.292 17.4021 14.6152C17.3171 14.7068 17.2783 14.8689 17.2783 14.9985C17.2711 19.3007 17.2711 23.6028 17.2754 27.905C17.2754 28.0149 17.2912 28.1628 17.3618 28.2305C17.7563 28.6025 18.197 28.9182 18.7758 28.9182C23.4082 28.9224 28.0392 28.9238 32.6716 28.9182C33.3685 28.9167 34.0266 28.7491 34.6098 28.3573C35.4133 27.8162 35.7661 26.7269 35.3932 25.9167C33.8797 25.9167 32.3562 25.9181 30.8328 25.9167C30.2337 25.9167 29.6333 25.9251 29.0328 25.9096C28.7059 25.8997 28.4741 25.6658 28.4784 25.3727C28.4813 25.0613 28.6541 24.8668 28.9665 24.8076C29.0817 24.7851 29.2041 24.7851 29.3237 24.7851C31.3641 24.7837 33.4031 24.7865 35.4436 24.7781C35.5947 24.7766 35.8079 24.7372 35.8871 24.6357C36.5682 23.7649 36.8058 22.7742 36.6546 21.6455ZM16.096 14.7998C15.9189 14.7998 15.7663 14.7998 15.6137 14.7998C12.6142 14.797 9.61616 14.7942 6.61669 14.7914C5.85206 14.7914 5.24007 15.3564 5.23863 16.1061C5.22999 20.3815 5.22855 24.6583 5.22999 28.9337C5.23143 29.4762 5.32647 29.5988 5.85638 29.7721C6.0335 29.8313 6.23077 29.8566 6.41941 29.8609C7.00692 29.8721 7.59443 29.8651 8.18194 29.8665C10.6414 29.8665 13.0995 29.8679 15.5589 29.8665C16.001 29.8665 16.1148 29.7524 16.1162 29.324C16.1176 28.8646 16.1162 28.4052 16.1162 27.9458C16.1162 23.7057 16.1162 19.4641 16.1162 15.2226C16.1162 15.0958 16.1047 14.9689 16.096 14.7998Z" fill="white"/>
</g>
<defs>
<filter id="filter0_d_1_115" x="0" y="0" width="44" height="39" filterUnits="userSpaceOnUse" color-interpolation-filters="sRGB">
<feFlood flood-opacity="0" result="BackgroundImageFix"/>
<feColorMatrix in="SourceAlpha" type="matrix" values="0 0 0 0 0 0 0 0 0 0 0 0 0 0 0 0 0 0 127 0" result="hardAlpha"/>
<feOffset dy="4"/>
<feGaussianBlur stdDeviation="2"/>
<feComposite in2="hardAlpha" operator="out"/>
<feColorMatrix type="matrix" values="0 0 0 0 1 0 0 0 0 0.42 0 0 0 0 0 0 0 0 1 0"/>
<feBlend mode="normal" in2="BackgroundImageFix" result="effect1_dropShadow_1_115"/>
<feBlend mode="normal" in="SourceGraphic" in2="effect1_dropShadow_1_115" result="shape"/>
</filter>
</defs>
</svg>
