<svg width="12" height="12" viewBox="0 0 12 12" fill="none" xmlns="http://www.w3.org/2000/svg">
<path d="M4.80226 0.200436C4.55309 0.457903 4.55309 0.902618 4.80226 1.17179L8.77773 5.26784L0.656913 5.26784C0.294478 5.26784 -2.80972e-07 5.57212 -2.64602e-07 5.94662C-2.48232e-07 6.32111 0.294478 6.63709 0.656913 6.63709L8.85701 6.63709L4.80227 10.8268C4.55309 11.0842 4.55309 11.529 4.80227 11.7981C5.06277 12.0673 5.48183 12.0673 5.74233 11.7981L10.8844 6.48495C11.009 6.35622 11.0769 6.18068 11.0769 6.00513C11.0769 5.82959 11.009 5.65404 10.8844 5.52531L5.74233 0.212141C5.48183 -0.0687315 5.06277 -0.0687325 4.80226 0.200436Z" fill="#EB8FA5"/>
</svg>
