<svg width="74" height="45" viewBox="0 0 74 45" fill="none" xmlns="http://www.w3.org/2000/svg">
<g filter="url(#filter0_d_8_285)">
<path fill-rule="evenodd" clip-rule="evenodd" d="M12.7806 1.27221C12.021 1.64823 11.7766 2.23349 11.7766 3.67655V4.90499H7.58714C5.28314 4.90499 3.00813 4.97919 2.53191 5.06998C1.24433 5.31518 0.24183 6.40418 0.0199173 7.79843C-0.128295 8.72928 0.569839 10.1419 1.47612 10.7447L2.11416 11.1692L6.90488 11.2506L11.6956 11.332L11.7423 12.837L11.7887 14.3421H8.87262C4.95481 14.3421 4.05598 14.6458 3.33581 16.2132C2.82558 17.3237 2.95548 18.4565 3.72295 19.5918C4.33782 20.5014 4.75217 20.5988 8.37502 20.6877L11.6956 20.769V22.3147V23.8605L9.86167 23.9065C8.22275 23.9478 7.9631 23.9957 7.41998 24.3567C6.51824 24.9562 6.09466 25.6262 5.99326 26.614C5.88651 27.653 6.12835 28.4659 6.73043 29.091C7.6278 30.0229 7.67526 30.0391 9.73581 30.1247L11.6956 30.2061L11.7766 32.1586C11.9054 35.2616 12.1545 35.4941 15.3509 35.4941H17.257L17.4388 36.3483C17.6753 37.4594 18.7205 39.2159 19.5917 39.9661C21.0579 41.2287 22.9814 41.9941 24.7031 42C25.8996 42.0042 27.6735 41.5078 28.6225 40.9033C30.5256 39.6913 31.5225 38.3252 32.0653 36.1856L32.2407 35.4941H39.4073H46.5738L46.6888 36.1856C46.9652 37.8473 48.4627 39.8997 50.1244 40.894C53.2419 42.7593 57.0841 42.1921 59.605 39.4943C60.4157 38.6267 61.2431 37.0865 61.4267 36.1038L61.5349 35.524L64.5569 35.4653C67.0358 35.4171 67.6661 35.3566 68.0647 35.1283C68.8438 34.682 69.2175 34.2993 69.6257 33.5304C70.0013 32.8229 70.0083 32.7284 69.9974 28.4977C69.9874 24.5011 69.9612 24.1167 69.6378 23.2389C69.4461 22.7179 69.0981 22.0639 68.8647 21.7851C68.3047 21.1166 67.0021 20.4535 65.7944 20.2222C64.6902 20.0106 62.7548 19.3374 62.1986 18.9713C61.6901 18.6366 61.2845 17.9496 59.754 14.8302C59.0294 13.3536 58.2111 11.8718 57.9356 11.5371C57.3588 10.8372 55.9447 9.84969 55.1586 9.59814C54.8625 9.50328 53.3264 9.38809 51.7452 9.34171L48.87 9.25776V6.16468C48.87 2.56509 48.7494 1.96405 47.9116 1.39213L47.3371 1L30.3262 1.00374C14.9461 1.007 13.2641 1.03287 12.7806 1.27221ZM54.3774 12.8328C54.8674 13.118 55.4615 13.5601 55.6977 13.815C56.0182 14.1611 57.8437 17.6458 58.7226 19.5894C58.7529 19.6564 56.5486 19.7114 53.8239 19.7114H48.87V15.9511V12.1907L51.1783 12.2524C53.4278 12.3126 53.5092 12.3274 54.3774 12.8328ZM25.4968 31.738C25.7811 31.8198 26.267 32.0899 26.5767 32.338C27.6717 33.2159 27.7827 35.2606 26.786 36.197C25.9445 36.9874 25.5841 37.1588 24.763 37.1588C23.7652 37.1588 23.072 36.7948 22.464 35.952C21.4347 34.5245 22.0657 32.4139 23.6962 31.8302C24.4549 31.5587 24.8111 31.5405 25.4968 31.738ZM54.8633 31.7559C56.3701 32.1944 57.1576 33.8848 56.5892 35.4599C56.3561 36.106 55.1427 37.1121 54.557 37.1448C53.0836 37.2273 52.3797 36.8937 51.6807 35.7814C51.1658 34.962 51.1326 34.0177 51.5873 33.1239C51.9911 32.3302 52.2379 32.109 53.0396 31.8216C53.7836 31.5549 54.1299 31.5424 54.8633 31.7559Z" fill="white"/>
</g>
<defs>
<filter id="filter0_d_8_285" x="0" y="0" width="74" height="45" filterUnits="userSpaceOnUse" color-interpolation-filters="sRGB">
<feFlood flood-opacity="0" result="BackgroundImageFix"/>
<feColorMatrix in="SourceAlpha" type="matrix" values="0 0 0 0 0 0 0 0 0 0 0 0 0 0 0 0 0 0 127 0" result="hardAlpha"/>
<feOffset dx="2" dy="1"/>
<feGaussianBlur stdDeviation="1"/>
<feColorMatrix type="matrix" values="0 0 0 0 0 0 0 0 0 0 0 0 0 0 0 0 0 0 0.25 0"/>
<feBlend mode="normal" in2="BackgroundImageFix" result="effect1_dropShadow_8_285"/>
<feBlend mode="normal" in="SourceGraphic" in2="effect1_dropShadow_8_285" result="shape"/>
</filter>
</defs>
</svg>
