<svg width="85" height="53" viewBox="0 0 85 53" fill="none" xmlns="http://www.w3.org/2000/svg">
<g filter="url(#filter0_d_107_36)">
<path fill-rule="evenodd" clip-rule="evenodd" d="M14.8693 2.05395C13.9994 2.4846 13.7195 3.15489 13.7195 4.80762V6.21455H8.92132C6.28256 6.21455 3.677 6.29953 3.13159 6.40351C1.65693 6.68434 0.508778 7.93157 0.254623 9.52839C0.0848766 10.5945 0.884445 12.2124 1.9224 12.9028L2.65314 13.389L8.13993 13.4821L13.6267 13.5753L13.6801 15.299L13.7334 17.0228H10.3936C5.90652 17.0228 4.8771 17.3707 4.0523 19.1658C3.46793 20.4376 3.61671 21.735 4.49568 23.0353C5.19989 24.077 5.67444 24.1886 9.82366 24.2904L13.6267 24.3835V26.1538V27.9241L11.5263 27.9769C9.64928 28.0242 9.3519 28.079 8.72987 28.4925C7.69711 29.179 7.21199 29.9464 7.09585 31.0777C6.9736 32.2677 7.25057 33.1987 7.94013 33.9147C8.96788 34.9819 9.02224 35.0005 11.3822 35.0986L13.6267 35.1917L13.7195 37.4279C13.867 40.9818 14.1523 41.2481 17.813 41.2481H19.9962L20.2043 42.2264C20.4752 43.499 21.6723 45.5106 22.67 46.3698C24.3493 47.8159 26.5523 48.6925 28.5241 48.6992C29.8945 48.704 31.9261 48.1355 33.013 47.4432C35.1926 46.0551 36.3343 44.4905 36.956 42.04L37.1569 41.2481H45.3648H53.5725L53.7042 42.04C54.0207 43.9432 55.7358 46.2938 57.639 47.4326C61.2094 49.5689 65.6098 48.9193 68.497 45.8294C69.4255 44.8358 70.3731 43.0719 70.5835 41.9463L70.7074 41.2823L74.1684 41.2151C77.0075 41.1599 77.7293 41.0906 78.1859 40.8292C79.0782 40.318 79.5062 39.8797 79.9737 38.999C80.4039 38.1888 80.4119 38.0805 80.3994 33.2351C80.3879 28.6578 80.3579 28.2176 79.9876 27.2123C79.768 26.6156 79.3695 25.8665 79.1021 25.5473C78.4608 24.7816 76.9689 24.0222 75.5857 23.7572C74.321 23.515 72.1045 22.7438 71.4675 22.3246C70.8851 21.9412 70.4206 21.1545 68.6677 17.5818C67.8379 15.8907 66.9006 14.1936 66.5851 13.8103C65.9245 13.0086 64.3049 11.8777 63.4046 11.5896C63.0655 11.4809 61.3063 11.349 59.4953 11.2959L56.2024 11.1997V7.65726C56.2024 3.53467 56.0642 2.8463 55.1047 2.19129L54.4467 1.74219L34.9643 1.74647C17.3494 1.7502 15.4231 1.77983 14.8693 2.05395ZM62.5099 15.2942C63.0711 15.6209 63.7515 16.1272 64.022 16.4192C64.3891 16.8155 66.4799 20.8066 67.4865 23.0325C67.5212 23.1093 64.9965 23.1723 61.876 23.1723H56.2024V18.8656V14.5589L58.846 14.6295C61.4224 14.6984 61.5155 14.7154 62.5099 15.2942ZM29.4331 36.9462C29.7587 37.0399 30.3153 37.3493 30.67 37.6335C31.924 38.6388 32.0511 40.9807 30.9097 42.0531C29.9459 42.9584 29.5331 43.1546 28.5928 43.1546C27.45 43.1546 26.656 42.7377 25.9597 41.7724C24.7808 40.1376 25.5036 37.7203 27.371 37.0519C28.2399 36.7409 28.6479 36.72 29.4331 36.9462ZM63.0664 36.9667C64.7921 37.4689 65.6941 39.4049 65.0431 41.2089C64.7761 41.9489 63.3864 43.1011 62.7156 43.1386C61.0282 43.233 60.2219 42.851 59.4214 41.5772C58.8317 40.6387 58.7936 39.5571 59.3144 38.5335C59.7769 37.6245 60.0596 37.3711 60.9777 37.042C61.8298 36.7366 62.2264 36.7222 63.0664 36.9667Z" fill="black"/>
</g>
<defs>
<filter id="filter0_d_107_36" x="0.231812" y="0.596894" width="84.7517" height="51.5382" filterUnits="userSpaceOnUse" color-interpolation-filters="sRGB">
<feFlood flood-opacity="0" result="BackgroundImageFix"/>
<feColorMatrix in="SourceAlpha" type="matrix" values="0 0 0 0 0 0 0 0 0 0 0 0 0 0 0 0 0 0 127 0" result="hardAlpha"/>
<feOffset dx="2.29059" dy="1.14529"/>
<feGaussianBlur stdDeviation="1.14529"/>
<feColorMatrix type="matrix" values="0 0 0 0 0 0 0 0 0 0 0 0 0 0 0 0 0 0 0.25 0"/>
<feBlend mode="normal" in2="BackgroundImageFix" result="effect1_dropShadow_107_36"/>
<feBlend mode="normal" in="SourceGraphic" in2="effect1_dropShadow_107_36" result="shape"/>
</filter>
</defs>
</svg>
