<?xml version="1.0" encoding="utf-8"?>
<!-- Generator: Adobe Illustrator 16.0.0, SVG Export Plug-In . SVG Version: 6.00 Build 0)  -->
<!DOCTYPE svg PUBLIC "-//W3C//DTD SVG 1.1//EN" "http://www.w3.org/Graphics/SVG/1.1/DTD/svg11.dtd">
<svg version="1.1" id="Layer_1" xmlns="http://www.w3.org/2000/svg" xmlns:xlink="http://www.w3.org/1999/xlink" x="0px" y="0px"
	 width="92.4px" height="92.4px" viewBox="209.8 209.8 92.4 92.4" enable-background="new 209.8 209.8 92.4 92.4"
	 xml:space="preserve">
<g>
	<path fill="#F76724" d="M275.653,270.749c0-2.253-0.977-4.403-2.679-5.899l-0.271-0.238v-3.21l0.322-0.24
		c7.186-5.354,11.477-13.9,11.477-22.859c0-15.716-12.786-28.502-28.502-28.502s-28.502,12.786-28.502,28.502
		c0,8.959,4.291,17.504,11.477,22.859l0.322,0.24v3.211l-0.272,0.238c-1.701,1.495-2.677,3.646-2.677,5.898
		c0,1.991,0.751,3.893,2.116,5.354l0.51,0.546l-0.51,0.546c-1.365,1.461-2.116,3.362-2.116,5.354c0,3.462,2.223,6.478,5.532,7.503
		l0.472,0.146l0.081,0.488c1.097,6.673,6.803,11.516,13.567,11.516s12.471-4.843,13.568-11.516l0.08-0.488l0.473-0.146
		c3.309-1.026,5.532-4.041,5.532-7.503c0-1.991-0.752-3.893-2.116-5.354l-0.51-0.546l0.51-0.546
		C274.901,274.642,275.653,272.74,275.653,270.749z M231.406,238.302c0-13.562,11.033-24.594,24.594-24.594
		c13.562,0,24.594,11.033,24.594,24.594c0,8.224-4.086,15.869-10.931,20.452c-0.544,0.363-0.868,0.971-0.868,1.624v2.547
		l-0.995-0.029h-3.946V250.91l4.188-4.188c0.369-0.369,0.572-0.86,0.572-1.381c0-0.522-0.203-1.013-0.572-1.382
		c-0.739-0.74-2.025-0.738-2.763,0l-4.762,4.762c-0.369,0.369-0.572,0.859-0.572,1.381v12.794h-7.891v-12.794
		c0-0.514-0.209-1.018-0.573-1.381l-4.761-4.761c-0.737-0.738-2.025-0.738-2.763,0c-0.369,0.369-0.572,0.86-0.572,1.382
		c0,0.521,0.204,1.012,0.573,1.381l4.188,4.188v11.985l-4.894,0.031l-0.047-0.826v-1.723c0-0.653-0.325-1.261-0.868-1.624
		C235.493,254.171,231.406,246.526,231.406,238.302z M265.379,291.445c-1.312,4.096-5.081,6.847-9.379,6.847
		c-4.296,0-8.065-2.751-9.378-6.847l-0.335-1.044h19.427L265.379,291.445z M267.8,286.493h-23.599c-2.176,0-3.946-1.77-3.946-3.945
		s1.77-3.945,3.946-3.945H267.8c2.176,0,3.945,1.77,3.945,3.945S269.976,286.493,267.8,286.493z M267.8,274.694h-23.599
		c-2.176,0-3.946-1.77-3.946-3.945s1.77-3.945,3.946-3.945H267.8c2.176,0,3.945,1.77,3.945,3.945S269.976,274.694,267.8,274.694z"/>
	<path fill="#F76724" d="M219.607,238.302c0-1.077-0.877-1.954-1.954-1.954h-5.899c-1.077,0-1.954,0.877-1.954,1.954
		s0.877,1.954,1.954,1.954h5.899C218.73,240.256,219.607,239.379,219.607,238.302z"/>
	<path fill="#F76724" d="M300.246,236.348h-5.899c-1.077,0-1.954,0.877-1.954,1.954s0.877,1.954,1.954,1.954h5.899
		c1.077,0,1.954-0.877,1.954-1.954S301.323,236.348,300.246,236.348z"/>
	<path fill="#F76724" d="M222.788,255.521c-0.34,0-0.677,0.091-0.975,0.262l-5.109,2.949c-0.932,0.539-1.253,1.736-0.714,2.67
		c0.518,0.897,1.768,1.235,2.667,0.715l5.11-2.949c0.933-0.539,1.253-1.736,0.715-2.669
		C224.135,255.896,223.485,255.521,222.788,255.521z"/>
	<path fill="#F76724" d="M290.187,220.821l5.108-2.951c0.452-0.261,0.775-0.682,0.911-1.186c0.135-0.504,0.065-1.03-0.195-1.482
		c-0.349-0.603-0.998-0.978-1.694-0.978c-0.341,0-0.678,0.091-0.975,0.263l-5.109,2.95c-0.452,0.261-0.775,0.682-0.91,1.187
		c-0.136,0.504-0.066,1.03,0.194,1.482C288.035,221.003,289.277,221.344,290.187,220.821z"/>
	<path fill="#F76724" d="M295.296,258.733l-5.11-2.95c-0.297-0.171-0.634-0.262-0.974-0.262c-0.698,0-1.348,0.375-1.696,0.978
		c-0.538,0.933-0.217,2.13,0.716,2.668l5.11,2.95c0.904,0.521,2.15,0.181,2.669-0.716c0.261-0.452,0.33-0.979,0.195-1.482
		C296.07,259.415,295.747,258.994,295.296,258.733z"/>
	<path fill="#F76724" d="M216.705,217.872l5.109,2.95c0.907,0.523,2.151,0.181,2.67-0.716c0.538-0.933,0.217-2.13-0.716-2.669
		l-5.108-2.949c-0.297-0.172-0.634-0.262-0.975-0.262c-0.697,0-1.346,0.375-1.694,0.978c-0.261,0.452-0.331,0.979-0.195,1.483
		C215.93,217.189,216.253,217.611,216.705,217.872z"/>
</g>
</svg>
