<?xml version="1.0" encoding="utf-8"?>
<!-- Generator: Adobe Illustrator 16.0.0, SVG Export Plug-In . SVG Version: 6.00 Build 0)  -->
<!DOCTYPE svg PUBLIC "-//W3C//DTD SVG 1.1//EN" "http://www.w3.org/Graphics/SVG/1.1/DTD/svg11.dtd">
<svg version="1.1" id="Layer_1" xmlns="http://www.w3.org/2000/svg" xmlns:xlink="http://www.w3.org/1999/xlink" x="0px" y="0px"
	 width="383.238px" height="505px" viewBox="3.881 3.002 383.238 505" enable-background="new 3.881 3.002 383.238 505"
	 xml:space="preserve">
<path fill="#F76724" d="M375.148,63.883h-35.08c-50.031,0-99.639-20.912-136.104-57.374c-2.261-2.262-5.266-3.507-8.464-3.507
	s-6.203,1.245-8.463,3.506c-36.466,36.462-86.075,57.375-136.106,57.375h-35.08c-6.601,0-11.971,5.37-11.971,11.971v179.648
	c0,59.166,18.547,109.141,56.701,152.777c32.102,36.716,72.73,62.379,105.376,83c8.16,5.152,15.865,10.019,22.903,14.713
	c1.972,1.314,4.268,2.01,6.639,2.01s4.667-0.695,6.641-2.01c6.851-4.566,14.397-9.322,22.387-14.358
	c64.747-40.808,162.591-102.478,162.591-236.132V75.854C387.119,69.253,381.749,63.883,375.148,63.883z M363.178,255.502
	c0,120.442-87.515,175.601-151.416,215.875l-1.951,1.23c-4.429,2.795-8.613,5.435-12.684,8.056l-1.625,1.047l-1.625-1.048
	c-4.714-3.04-9.643-6.156-15.133-9.621c-63.7-40.241-150.923-95.343-150.923-215.539V87.824h23.109
	c51.843,0,102.482-19.392,142.589-54.603l1.979-1.738l1.979,1.738c40.107,35.211,90.746,54.603,142.589,54.603h23.109V255.502z"/>
<path fill="#F76724" d="M195.5,123.766c-72.64,0-131.736,59.097-131.736,131.736S122.86,387.238,195.5,387.238
	s131.736-59.097,131.736-131.736S268.14,123.766,195.5,123.766z M195.5,363.297c-59.438,0-107.795-48.356-107.795-107.795
	S136.062,147.707,195.5,147.707s107.795,48.356,107.795,107.795S254.938,363.297,195.5,363.297z"/>
<path fill="#F76724" d="M180.529,283.482l-36.448-36.443c-2.261-2.262-5.266-3.508-8.464-3.508s-6.203,1.246-8.463,3.507
	c-2.263,2.261-3.508,5.267-3.508,8.464s1.245,6.203,3.506,8.462l44.913,44.913c2.26,2.262,5.265,3.507,8.464,3.507
	s6.204-1.245,8.462-3.506l74.855-74.854c4.667-4.668,4.667-12.263,0-16.931c-2.26-2.259-5.266-3.504-8.462-3.504
	c-3.199,0-6.205,1.246-8.465,3.507L180.529,283.482z"/>
</svg>
