<svg xmlns="http://www.w3.org/2000/svg" id="Group_2255" width="25.282" height="19.854" data-name="Group 2255" viewBox="0 0 25.282 19.854">
    <defs>
        <style>
            .cls-1{fill:#fff}
        </style>
    </defs>
    <path id="Path_978" d="M2.422 6.12c.324.216 1.276.887 2.9 2.011 1.6 1.125 2.833 1.968 3.7 2.574.087.065.3.216.606.433s.562.389.757.541c.195.13.454.281.735.454a4.476 4.476 0 0 0 .8.389 2.273 2.273 0 0 0 .714.13h.022a2.273 2.273 0 0 0 .714-.13 3.867 3.867 0 0 0 .8-.389c.281-.173.541-.324.735-.454s.454-.324.757-.541.5-.368.606-.433c.865-.606 3.071-2.119 6.6-4.585a6.5 6.5 0 0 0 1.709-1.73 3.749 3.749 0 0 0 .692-2.119 2.157 2.157 0 0 0-.67-1.6A2.23 2.23 0 0 0 23.011 0H2.249A1.992 1.992 0 0 0 .584.735 2.836 2.836 0 0 0 0 2.574 3.309 3.309 0 0 0 .779 4.5a6.838 6.838 0 0 0 1.643 1.62zm0 0" class="cls-1" data-name="Path 978"/>
    <path id="Path_979" d="M23.855 30.754a299.342 299.342 0 0 0-7.029 4.844c-.541.389-.973.714-1.3.93a6.982 6.982 0 0 1-1.341.67 4 4 0 0 1-1.557.346h-.022a4 4 0 0 1-1.557-.346 7.4 7.4 0 0 1-1.319-.67c-.324-.216-.779-.519-1.3-.93Q6.521 34.2 1.427 30.733A7.145 7.145 0 0 1 0 29.5v11.2a2.157 2.157 0 0 0 .67 1.6 2.205 2.205 0 0 0 1.6.67h20.74a2.157 2.157 0 0 0 1.6-.67 2.205 2.205 0 0 0 .67-1.6V29.522a8.734 8.734 0 0 1-1.427 1.233zm0 0" class="cls-1" data-name="Path 979" transform="translate(0 -23.12)"/>
</svg>
