<svg width="143" height="44" viewBox="0 0 143 44" fill="none" xmlns="http://www.w3.org/2000/svg">
<path d="M90.2074 42.0314C89.876 42.2255 89.505 42.3429 89.1219 42.3747C88.7388 42.4065 88.3535 42.352 87.9944 42.2153C87.6353 42.0785 87.3116 41.863 87.0474 41.5847C86.7832 41.3063 86.5852 40.9723 86.468 40.6073C85.1445 37.3612 85.5437 30.8691 84.7874 29.3822C84.7874 29.3822 82.6866 26.2408 82.6866 26.911C82.6866 27.267 84.7874 24.5445 84.7874 24.5445C85.6487 22.89 84.5353 16.9633 86.0479 13.6544C86.358 12.8526 86.9745 12.2061 87.7622 11.8567C88.5498 11.5073 89.4442 11.4835 90.2494 11.7906C91.1948 12.1675 91.5939 10.6387 90.6696 10.2618C90.1305 9.99749 89.5444 9.84202 88.9449 9.8043C88.3454 9.76657 87.7443 9.84734 87.1762 10.042C86.6081 10.2366 86.0842 10.5412 85.6346 10.9383C85.185 11.3354 84.8185 11.8172 84.5563 12.356C82.1194 16.9424 86.384 23.4345 80.1027 26.1152C79.9853 26.1861 79.8882 26.286 79.8208 26.4052C79.7534 26.5244 79.718 26.659 79.718 26.7958C79.718 26.9326 79.7534 27.0672 79.8208 27.1864C79.8882 27.3056 79.9853 27.4055 80.1027 27.4764C86.2579 30.1361 82.3925 36.6701 84.8924 41.1728C85.1012 41.7165 85.4214 42.2109 85.8326 42.6243C86.2438 43.0378 86.7369 43.3613 87.2805 43.5741C87.8241 43.7869 88.4063 43.8844 88.9898 43.8604C89.5733 43.8364 90.1454 43.6913 90.6696 43.4345C91.5939 43.0576 91.1948 41.5497 90.2494 41.9267L90.2074 42.0314Z" fill="#1E9BD5"/>
<path d="M106.32 36C105.589 36.1888 104.845 36.3218 104.094 36.3979C103.799 36.3979 103.526 36.6073 103.064 36.5445C102.602 36.4817 101.93 35.3298 101.93 35.3298C102.016 35.0792 102.047 34.8132 102.022 34.5496C101.996 34.286 101.915 34.0308 101.783 33.801C101.3 33.1309 100.69 32 100.27 31.3089C99.2198 29.5497 98.4845 28.5654 98.0223 27.8743C97.5601 27.1832 97.0349 26.8272 96.8459 26.9947C96.0476 27.6649 96.1526 28.0838 95.8585 28.6492C95.5716 29.7857 95.4305 30.9538 95.4384 32.1256C95.4402 33.0372 95.37 33.9476 95.2283 34.8481C95.2283 35.0366 95.6905 35.267 95.8165 35.3927C95.7599 35.7916 95.5891 36.1658 95.3246 36.4704C95.06 36.775 94.7129 36.9971 94.3249 37.1099C93.9258 37.2356 93.4846 36.6492 93.0435 36.6492H92.4763C92.3082 36.6492 91.888 36.6492 91.741 36.6492C91.5939 36.6492 91.4679 36.6492 91.2998 36.4398C91.1318 36.2304 91.1528 35.9581 91.1528 35.6021C91.5939 35.3927 91.5519 35.3508 91.888 34.3455C91.9123 34.0039 91.9123 33.661 91.888 33.3194C92.1672 32.2984 92.3501 31.2538 92.4342 30.1989L92.2032 24.6911L92.4342 20.9424C92.4342 19.3717 92.1401 18.555 91.5309 18.4502C90.9217 18.3455 90.2494 18.8063 90.2494 18.4502C90.2494 18.0942 89.7032 17.822 90.0604 17.4031C90.4175 16.9843 90.7116 17.2146 91.0477 17.0471C92.087 16.7275 93.1817 16.6276 94.2619 16.7539C94.9191 16.7015 95.5795 16.7015 96.2367 16.7539C96.5518 16.8586 96.4047 16.9633 96.4047 17.068C96.1736 17.7591 96.7198 18.1361 96.7198 18.9947C96.7073 19.4725 96.6581 19.9486 96.5728 20.4188C96.2582 21.7921 96.117 23.1992 96.1526 24.6073C96.9299 24.0209 101.089 20.1675 101.846 19.5393C102.602 18.911 103.421 18.7644 103.421 18.4921C103.421 18.2199 103.421 18.1989 103.064 18.0105C102.707 17.822 102.707 17.6544 102.707 17.5288C102.707 17.4031 102.833 17.2356 103.106 17.089C103.375 16.9589 103.669 16.8875 103.968 16.8796C104.535 16.8796 105.564 16.8796 106.825 17.0262C106.993 17.0262 107.392 17.0262 107.56 17.0262C109.072 17.2146 107.707 18.4921 107.182 18.3874C105.9 18.1152 105.081 19.3298 104.577 19.9162C103.673 21.2146 101.026 23.5393 101.026 24.1047C101.026 24.6701 101.51 25.0471 102.455 26.5968C103.106 27.6858 104.178 29.4869 104.283 29.6126C104.735 30.6418 105.276 31.6299 105.9 32.5654C106.741 33.6544 107.014 34.3246 107.392 34.6597C107.77 34.9947 107.329 36 106.32 36Z" fill="#4B4B4A"/>
<path d="M115.102 11.7906C114.913 11.7906 114.66 11.4555 114.513 11.2042C113.631 9.78009 113.463 8.81674 112.896 7.89527C112.479 7.26939 111.952 6.72322 111.341 6.28271C109.997 5.21464 109.409 5.50784 108.379 4.52355C108.007 4.23336 107.703 3.86551 107.489 3.44582C107.275 3.02614 107.156 2.5648 107.14 2.09423C107.167 1.62 107.369 1.17251 107.707 0.837682C108.029 0.550652 108.451 0.400379 108.883 0.418833C109.535 0.418833 110.018 0.837681 110.753 1.61255C111.615 2.53483 112.422 3.50684 113.169 4.52355C114.534 6.28271 114.745 6.47119 114.955 7.1204C114.955 7.37171 114.955 7.1204 115.312 9.21465C115.384 9.82684 115.384 10.4454 115.312 11.0576C115.291 11.5393 115.228 11.7487 115.102 11.7906Z" fill="#1E9BD5"/>
<path d="M116.089 6.28271C116.383 6.28271 116.551 5.17276 117.602 2.78533C117.973 2.1542 118.1 1.40922 117.959 0.691085C117.926 0.545182 117.862 0.40801 117.771 0.288801C117.681 0.169591 117.565 0.0711098 117.433 -1.48341e-05C116.95 -0.230381 116.341 0.188467 116.215 0.293179C115.886 0.571901 115.651 0.944829 115.543 1.36124C115.449 1.8454 115.449 2.34306 115.543 2.82721C115.648 3.97904 115.732 4.56543 115.858 5.29841C115.984 6.0314 116.047 6.28271 116.089 6.28271Z" fill="#1E9BD5"/>
<path d="M117.349 12.5654C117.181 12.5654 117.013 12.2722 116.992 11.979C116.984 11.7512 117.058 11.528 117.202 11.3508C117.455 10.9529 117.37 10.8063 117.749 9.25653C117.875 8.69108 118.064 7.89527 118.379 6.93192C118.862 5.44501 119.156 5.10993 119.45 4.83768C119.631 4.6763 119.845 4.55689 120.078 4.48808C120.31 4.41927 120.555 4.40277 120.795 4.43978C121.005 4.48008 121.201 4.5721 121.366 4.70743C121.531 4.84277 121.66 5.01713 121.74 5.21464C121.95 5.69632 121.74 6.15705 121.467 6.95286C121.211 7.74677 120.764 8.46593 120.165 9.04711C119.681 9.4869 119.618 9.78009 119.135 10.2408C118.656 10.6526 118.233 11.1242 117.875 11.644C117.455 12.0838 117.644 12.5654 117.349 12.5654Z" fill="#1E9BD5"/>
<path d="M3.65527 24.2722C3.55023 24 3.23511 22.8691 3.10907 22.6597C2.70772 21.5864 2.40536 20.4788 2.20573 19.3508C2.20573 19.0157 2.37379 18.7225 2.20573 18.6597C1.65953 18.4712 1.21837 18.89 0.546117 18.6597C-0.126132 18.4293 -8.50717e-05 17.9476 -8.50717e-05 17.5916C-8.50717e-05 17.2356 -8.50707e-05 16.9424 0.209993 16.9005C0.713642 16.8677 1.2189 16.8677 1.72255 16.9005C3.06705 17.1728 5.06279 16.7539 6.30225 17.068C7.54171 17.3822 7.68876 17.3612 7.68876 17.6125C7.61353 18.0408 7.47921 18.4566 7.28962 18.8482C7.05908 19.2482 6.90921 19.6892 6.84845 20.1466C7.21298 21.9657 7.80586 23.7317 8.61311 25.4031C9.20108 27.0483 9.90303 28.6508 10.7139 30.1989C11.8266 28.7252 12.6986 27.0854 13.2978 25.3403C14.1216 23.6409 14.7083 21.837 15.0415 19.979C15.0013 19.6027 14.839 19.2498 14.5793 18.9738C14.2976 18.6769 14.127 18.2923 14.0961 17.8848C14.1183 17.725 14.1183 17.5629 14.0961 17.4031V16.9424H22.3522C22.7724 16.9424 22.7934 17.089 22.7724 17.3194C22.7513 17.5497 23.0665 17.3194 23.1925 17.4241C23.3186 17.5288 22.3522 19.5183 20.7136 18.6806C19.8103 18.2618 18.1506 21.4869 17.0162 24.1047C16.1689 26.1542 15.1646 28.1356 14.0121 30.0314C13.3633 31.0108 12.8077 32.0485 12.3525 33.1309C12.0794 33.8639 11.7433 34.7016 11.3441 35.6021C11.1771 36.0561 10.878 36.4501 10.485 36.7337C10.092 37.0172 9.62313 37.1774 9.1383 37.1937C8.27698 37.1937 7.5207 35.6021 6.80644 32.7958C6.32973 30.763 5.68324 28.7735 4.87372 26.8482L3.65527 24.2722Z" fill="#4B4B4A"/>
<path d="M39.9148 23.9162C39.9164 24.1968 39.8615 24.4749 39.7532 24.7339C39.6449 24.9929 39.4856 25.2276 39.2845 25.4241C39.1269 25.6139 38.9318 25.7695 38.7114 25.8812C38.4909 25.9929 38.2499 26.0582 38.0031 26.0733H28.3395C28.0971 26.0954 27.8642 26.1779 27.6623 26.3133C27.4604 26.4488 27.2959 26.6327 27.1841 26.8481C26.8927 27.2465 26.7181 27.7178 26.6799 28.2094C26.6651 28.9287 26.821 29.6413 27.135 30.2892C27.4489 30.937 27.9121 31.5017 28.4865 31.9372C29.8242 32.9469 31.4741 33.4582 33.1503 33.3822C33.8653 33.4006 34.5775 33.287 35.251 33.0471L37.856 31.2042H38.9064V32.733C37.8695 34.0065 36.6184 35.0907 35.209 35.9372C33.9018 36.5707 32.4603 36.8796 31.0075 36.8377C29.7363 36.8938 28.4675 36.6823 27.2839 36.2168C26.1002 35.7513 25.0283 35.0423 24.1379 34.1361C22.6357 32.7701 21.7181 30.8805 21.575 28.8586V26.7644C21.9351 24.4711 23.0867 22.3751 24.8312 20.8377C25.5349 19.882 26.4236 19.0764 27.4447 18.4685C28.4657 17.8607 29.5986 17.4628 30.7764 17.2984H35.188C36.1754 17.2984 37.2888 18.0314 38.2342 19.3927C39.2776 20.6756 39.8682 22.2653 39.9148 23.9162ZM34.8729 22.8482C34.798 22.2209 34.4998 21.6413 34.0326 21.2146C33.7794 20.9049 33.4584 20.657 33.0943 20.49C32.7302 20.3231 32.3325 20.2414 31.9318 20.2513C31.0403 20.2184 30.1602 20.4597 29.4109 20.9424C28.4998 21.7427 27.7816 22.7378 27.3101 23.8534C27.779 23.9981 28.2692 24.0618 28.7596 24.0419C29.0537 24.0419 29.6 24.0419 30.3982 24.0419H31.8898C32.5474 23.9709 33.1999 23.859 33.8435 23.7068C34.5158 23.4345 34.8309 23.1832 34.8309 22.8482H34.8729Z" fill="#4B4B4A"/>
<path d="M56.721 20.6911C56.6326 21.2163 56.3915 21.7042 56.0277 22.0942C55.8816 22.3486 55.6786 22.566 55.4345 22.7295C55.1904 22.8929 54.9117 22.9981 54.6202 23.0366C53.9456 23.0629 53.2713 22.978 52.6245 22.7853L51.4901 22.1989C50.7968 22.1989 50.2506 22.7434 49.8094 23.8534C49.3415 25.2638 49.1281 26.7457 49.1792 28.2304C49.1792 31.8953 49.6834 33.9895 50.6498 34.5131C51.6161 35.0366 52.1413 35.4764 52.1413 35.9581C52.1436 36.1147 52.104 36.2691 52.0264 36.4053C51.9489 36.5416 51.8362 36.6547 51.7001 36.733C51.3842 36.9031 51.0298 36.9896 50.6708 36.9843C49.3731 36.9445 48.0838 36.7619 46.8263 36.4398C45.3138 36.0628 44.5575 35.5602 44.5575 34.911C44.9944 34.2816 45.2949 33.5683 45.4398 32.8167C45.7237 31.439 45.8575 30.0347 45.839 28.6283C45.9133 26.5931 45.6723 24.5588 45.1247 22.5968C44.5785 21.8429 44.0323 21.0471 43.5071 20.2722C43.5071 20 44.0953 19.5602 45.2508 18.9529C46.4062 18.3455 47.5826 17.7382 48.7801 17.1518C48.916 17.1764 49.0455 17.228 49.161 17.3036C49.2765 17.3791 49.3756 17.4771 49.4523 17.5916C49.6599 17.8162 49.7857 18.1039 49.8094 18.4084C49.8094 18.7016 49.8094 19.0785 49.8094 19.5393C49.8094 20 49.8094 20.4607 49.8094 20.9424L51.238 18.8482C51.5653 18.539 51.9514 18.2982 52.3736 18.1399C52.7957 17.9817 53.2452 17.9092 53.6959 17.9267C54.4632 17.9022 55.2121 18.1635 55.7967 18.6597C56.101 18.9012 56.3435 19.2113 56.5042 19.5644C56.6649 19.9176 56.7392 20.3037 56.721 20.6911Z" fill="#4B4B4A"/>
<path d="M65.8804 24.356C66.5171 24.3183 67.1554 24.3183 67.7921 24.356C68.386 24.414 68.9711 24.5405 69.5358 24.733V24.2722C69.5558 23.4892 69.3279 22.7199 68.8845 22.0733C68.4864 21.5622 68.2586 20.9398 68.2333 20.2932H65.6493C64.809 20.2932 64.1578 20.8377 63.6746 21.9267C63.4926 22.4386 63.1479 22.8773 62.6928 23.176C62.2378 23.4746 61.6973 23.6169 61.1537 23.5811C60.7883 23.4048 60.449 23.1793 60.1453 22.911C59.9868 22.7875 59.8602 22.6281 59.7761 22.4459C59.6921 22.2637 59.653 22.0642 59.6621 21.8639C59.7343 21.2456 59.948 20.6521 60.2867 20.1292C60.6255 19.6063 61.0802 19.168 61.6158 18.8482C62.8995 17.8542 64.4864 17.3293 66.1115 17.3612C68.0599 17.3117 69.9562 17.9916 71.4265 19.267C72.1019 19.7892 72.6522 20.4549 73.0374 21.2156C73.4226 21.9763 73.633 22.813 73.6533 23.6649C73.6338 25.987 73.8166 28.3063 74.1995 30.5968C74.5566 32.6911 75.1658 33.6335 76.0062 33.6335L76.3003 33.4031C76.5191 33.2278 76.7982 33.1451 77.0776 33.1728C77.2374 33.1786 77.3944 33.217 77.5388 33.2854C77.6833 33.3538 77.8123 33.4509 77.9179 33.5707C78.0546 33.6873 78.1647 33.8317 78.2408 33.9942C78.3169 34.1568 78.3572 34.3337 78.359 34.5131C78.359 34.7644 78.0439 35.1204 77.4137 35.5811C76.7555 36.0566 75.9572 36.2997 75.1448 36.2722C74.2261 36.2828 73.3115 36.1485 72.4348 35.8743C71.5811 35.6197 70.8072 35.151 70.187 34.5131C69.6508 35.4085 68.8716 36.1345 67.9392 36.6073C66.9504 36.9947 65.8916 37.173 64.83 37.1309C63.0064 37.1036 61.2509 36.4362 59.8722 35.2461C59.1524 34.7295 58.5658 34.0502 58.1605 33.2639C57.7551 32.4775 57.5426 31.6066 57.5403 30.7225C57.4973 29.6577 57.7441 28.6012 58.2546 27.6649C58.7023 26.9391 59.3229 26.3349 60.0612 25.9057C61.0851 25.3981 62.1735 25.0318 63.2964 24.8167C64.146 24.6037 65.0094 24.4497 65.8804 24.356ZM69.9349 29.445C69.8714 29.1157 69.7581 28.7979 69.5988 28.5026C69.385 28.0985 69.2227 27.6693 69.1156 27.2251C68.5846 27.1985 68.0605 27.0926 67.561 26.911C67.0235 26.7064 66.4555 26.5932 65.8804 26.5759C64.9743 26.5294 64.0832 26.8205 63.3805 27.3927C63.0364 27.7473 62.7751 28.1734 62.6153 28.6404C62.4555 29.1074 62.4012 29.6038 62.4561 30.0942C62.4409 30.5776 62.535 31.0583 62.7314 31.5005C62.9278 31.9428 63.2214 32.3354 63.5906 32.6492C64.3413 33.2991 65.3064 33.6496 66.3006 33.6335C66.7853 33.621 67.2616 33.5041 67.6967 33.2908C68.1319 33.0775 68.5156 32.7729 68.8215 32.3979C69.5645 31.5959 69.964 30.5363 69.9349 29.445Z" fill="#4B4B4A"/>
<path d="M112.055 23.0366C112.974 22.9317 113.849 22.5927 114.597 22.0523C115.183 21.65 115.818 21.3261 116.488 21.089C116.754 21.089 116.901 21.2775 116.929 21.6544C116.948 21.9893 116.948 22.3248 116.929 22.6597L116.215 28.9424C116.181 30.508 116.423 32.0673 116.929 33.5497L118.526 36.5445C118.538 36.6595 118.512 36.7753 118.451 36.8738C118.39 36.9723 118.298 37.048 118.19 37.089C117.895 37.165 117.591 37.2003 117.286 37.1937C116.943 37.2069 116.601 37.1273 116.299 36.9633C115.576 36.7235 114.81 36.6379 114.051 36.712C113.467 36.7016 112.884 36.7437 112.308 36.8377C111.905 36.8896 111.514 37.01 111.152 37.1937V35.6021L112.245 34.8272C112.468 34.6896 112.649 34.4942 112.77 34.2618C112.77 34.0942 112.959 32.6701 113.106 30.0733C113.253 27.4764 113.337 26.0105 113.337 25.8848C113.383 25.3939 113.289 24.8999 113.064 24.4607C112.937 24.3449 112.788 24.257 112.625 24.2029C112.462 24.1488 112.289 24.1296 112.119 24.1466H111.152V23.2461L111.656 23.0366H112.055ZM116.761 18.3665C116.746 18.8065 116.566 19.225 116.257 19.5393C116.074 19.7313 115.852 19.8813 115.605 19.979C115.359 20.0766 115.094 20.1195 114.829 20.1047C114.633 20.1209 114.437 20.0956 114.252 20.0306C114.068 19.9657 113.899 19.8624 113.757 19.7277C113.628 19.5802 113.533 19.4062 113.478 19.2181C113.424 19.0299 113.412 18.8322 113.442 18.6387C113.416 18.4194 113.434 18.1971 113.495 17.9849C113.557 17.7727 113.66 17.5749 113.799 17.4031C114.214 17.1288 114.712 17.01 115.207 17.068C115.624 17.0359 116.043 17.1079 116.425 17.2775C116.649 17.431 116.761 17.7661 116.761 18.2827V18.3665Z" fill="#4B4B4A"/>
<path d="M126.446 22.7434H125.185C124.738 22.772 124.288 22.7151 123.862 22.5759C123.721 22.5106 123.604 22.4025 123.529 22.2671C123.453 22.1316 123.423 21.9758 123.442 21.822L124.975 20.5026L126.719 19.0785C127.37 18.5759 128.042 18.0314 128.694 17.466C129.345 16.9005 129.807 16.6283 130.038 16.6283C130.269 16.6283 130.29 16.6283 130.395 16.9214C130.479 17.0481 130.537 17.1907 130.563 17.3403C130.563 17.3403 130.563 17.6963 130.269 18.3036C130.045 19.0441 129.877 19.8001 129.765 20.5654L131.047 21.0471C131.462 21.2089 131.903 21.2941 132.349 21.2984C132.349 21.6335 132.349 21.9267 132.475 22.1152C132.601 22.3036 132.475 22.4921 132.475 22.6597C132.481 22.7433 132.481 22.8273 132.475 22.911H132.349V23.7068C132.349 23.7068 132.181 23.8743 131.971 23.8743H131.278C131.117 23.8962 130.955 23.8962 130.794 23.8743H130.416C130.112 23.8845 129.809 23.9266 129.513 24C129.345 25.0262 129.219 26.0942 129.114 27.1204C129.009 28.1466 128.946 29.0471 128.946 29.7173V30.2408C128.934 31.4766 129.147 32.7042 129.576 33.8639C129.975 34.9947 130.5 35.5602 131.11 35.5602C131.283 35.5957 131.462 35.5957 131.635 35.5602H132.16L132.412 35.1413L132.706 34.8272H133.42V35.3927C133.11 36.0355 132.602 36.5635 131.971 36.9005C131.065 37.2332 130.099 37.3758 129.135 37.3194C128.469 37.2858 127.823 37.0762 127.265 36.712C126.699 36.4121 126.248 35.9333 125.984 35.3508C125.799 34.8971 125.693 34.4157 125.669 33.9267C125.669 33.466 125.669 32.8796 125.669 32.1675C125.669 30.2408 125.669 28.3769 125.858 26.5131C125.831 25.2319 126.03 23.9559 126.446 22.7434Z" fill="#4B4B4A"/>
<path d="M132.454 42.0733C132.785 42.2674 133.156 42.3847 133.54 42.4166C133.923 42.4484 134.308 42.3939 134.667 42.2572C135.026 42.1204 135.35 41.9049 135.614 41.6265C135.878 41.3482 136.076 41.0142 136.193 40.6492C137.538 37.4031 137.139 30.911 137.874 29.4241C137.874 29.4241 140.08 26.2827 140.08 26.9529C140.08 27.623 137.979 24.5864 137.979 24.5864C137.139 22.9319 138.231 17.0052 136.74 13.6963C136.425 12.898 135.808 12.2551 135.022 11.9064C134.236 11.5576 133.344 11.5311 132.538 11.8324C131.593 12.2094 131.194 10.6806 132.118 10.3036C132.657 10.0394 133.243 9.8839 133.843 9.84618C134.442 9.80846 135.043 9.88923 135.611 10.0838C136.179 10.2785 136.703 10.5831 137.153 10.9802C137.603 11.3773 137.969 11.8591 138.231 12.3979C140.668 16.9843 136.425 23.4764 142.685 26.178C142.803 26.2461 142.9 26.3439 142.968 26.4615C143.036 26.5791 143.072 26.7124 143.072 26.8482C143.072 26.9839 143.036 27.1172 142.968 27.2348C142.9 27.3524 142.803 27.4502 142.685 27.5183C136.551 30.178 140.395 36.712 137.895 41.2146C137.686 41.7584 137.366 42.2528 136.955 42.6662C136.544 43.0797 136.051 43.4032 135.507 43.616C134.963 43.8288 134.381 43.9263 133.798 43.9023C133.214 43.8783 132.642 43.7332 132.118 43.4764C131.194 43.0995 131.593 41.5916 132.538 41.9686L132.454 42.0733Z" fill="#1E9BD5"/>
</svg>
