<?xml version="1.0" encoding="utf-8"?><svg xmlns="http://www.w3.org/2000/svg" xmlns:xlink="http://www.w3.org/1999/xlink"><symbol viewBox="0 0 48 48" id="description--icons--babygirl"><path d="M24 45.303c-8.938 0-16.777-5.872-18.873-14.043A5.23 5.23 0 010 26.036a5.23 5.23 0 015.225-5.224h.448c1.286-3.462 3.694-6.549 6.827-8.735a.726.726 0 11.832 1.193c-3.028 2.113-5.322 5.132-6.456 8.502a.727.727 0 01-.69.494h-.961a3.775 3.775 0 00-3.77 3.77 3.775 3.775 0 003.77 3.77h.477c.34 0 .637.238.71.572C8.137 38.183 15.533 43.85 24 43.85s15.865-5.667 17.59-13.472a.73.73 0 01.71-.571h.477a3.774 3.774 0 003.768-3.77c0-2.079-1.69-3.77-3.768-3.77h-.963c-.313 0-.59-.2-.69-.497-1.144-3.396-3.361-6.324-6.406-8.464a.726.726 0 11.835-1.19c3.154 2.216 5.487 5.215 6.774 8.697h.45A5.23 5.23 0 0148 26.038a5.23 5.23 0 01-5.126 5.223C40.778 39.431 32.938 45.303 24 45.303z"/><path d="M30.095 30.6a1.757 1.757 0 100-3.515 1.757 1.757 0 000 3.514zM18.576 30.6a1.757 1.757 0 100-3.515 1.757 1.757 0 000 3.514zM24 38.35a9.788 9.788 0 01-5.14-1.464l-.284-.173a.73.73 0 01.76-1.242l.284.174a8.309 8.309 0 008.76.002l.283-.176a.729.729 0 011.001.237c.21.342.103.79-.237 1l-.285.177A9.79 9.79 0 0124 38.35zM24 12.687a3.458 3.458 0 01-3.454-3.455A3.458 3.458 0 0124 5.778a3.458 3.458 0 013.455 3.454A3.458 3.458 0 0124 12.687zm0-5.455c-1.102 0-2 .898-2 2 0 1.103.898 2 2 2 1.103 0 2-.897 2-2 0-1.102-.897-2-2-2z"/><path d="M32.329 15.769c-.428 0-.858-.08-1.269-.242l-7.326-2.891a.726.726 0 01-.409-.943.722.722 0 01.943-.409l7.326 2.892c.629.246 1.303.17 1.86-.208.555-.378.875-.982.875-1.654V6.151c0-.673-.32-1.275-.876-1.655a1.971 1.971 0 00-1.859-.205l-7.326 2.89a.721.721 0 01-.943-.409.724.724 0 01.409-.942l7.326-2.89a3.455 3.455 0 014.723 3.213v6.163a3.455 3.455 0 01-3.454 3.453z"/><path d="M15.671 15.769a3.45 3.45 0 01-3.455-3.455V6.151a3.455 3.455 0 014.725-3.213l7.325 2.89c.374.149.557.57.409.943a.723.723 0 01-.943.409l-7.325-2.89a1.977 1.977 0 00-1.86.207c-.556.379-.876.98-.876 1.654v6.163c0 .672.319 1.274.875 1.654a1.985 1.985 0 001.861.208l7.325-2.892a.722.722 0 01.943.41.725.725 0 01-.409.942l-7.325 2.891c-.41.163-.84.242-1.27.242z"/></symbol><symbol viewBox="0 0 51 55" id="description--icons--cerebro"><path fill-rule="evenodd" clip-rule="evenodd" d="M18.214 24.75c0 .505.408.917.911.917.503 0 .91-.412.91-.917a.915.915 0 00-.91-.917.915.915 0 00-.91.917zm1.822 16.5a.915.915 0 00-.911-.917.915.915 0 00-.91.917c0 .505.407.917.91.917.503 0 .91-.412.91-.917zm-7.286-16.5a.915.915 0 00-.91-.917.915.915 0 00-.911.917c0 .505.408.917.91.917.503 0 .911-.412.911-.917zm0 11a.915.915 0 00-.91-.917.915.915 0 00-.911.917c0 .505.408.917.91.917.503 0 .911-.412.911-.917zm5.464-20.167c0 .505.408.917.911.917.503 0 .91-.412.91-.917a.915.915 0 00-.91-.916.915.915 0 00-.91.916zm-5.464.917v5.669a2.732 2.732 0 011.653 1.664h2.158C16.938 22.768 17.94 22 19.125 22a2.744 2.744 0 01.91 5.331V38.67a2.746 2.746 0 011.822 2.581c0 1.194-.764 2.2-1.821 2.581v2.919a.913.913 0 01-.911.917.913.913 0 01-.91-.917v-2.92a2.734 2.734 0 01-1.78-2.158l-3.418-3.44c-.003-.002-.003-.006-.006-.009a2.68 2.68 0 01-1.172.277 2.744 2.744 0 01-2.732-2.75A2.744 2.744 0 0111.84 33a2.744 2.744 0 012.732 2.75c0 .423-.103.821-.275 1.18l.009.005 2.647 2.666c.32-.425.755-.75 1.262-.932V27.33a2.729 2.729 0 01-1.653-1.663h-2.158c-.377 1.065-1.378 1.833-2.564 1.833a2.744 2.744 0 01-.91-5.331v-6.586c0-.506.407-.916.91-.916h4.722a2.733 2.733 0 011.653-1.665v-2.919c0-.506.407-.916.911-.916s.91.41.91.916v2.919a2.744 2.744 0 01-.91 5.331c-1.186 0-2.187-.768-2.564-1.833H12.75zm36.094 17.641A6.402 6.402 0 0051 29.333a6.369 6.369 0 00-2.354-4.973c.35-.737.533-1.539.533-2.36a5.513 5.513 0 00-2.543-4.63 5.481 5.481 0 00-2.932-7.884c.007-.107.01-.213.01-.32 0-3.033-2.45-5.5-5.464-5.5-.735 0-1.45.151-2.12.44C35.349 1.72 33.096 0 30.51 0c-3.832 0-5.536 3.48-5.901 5.32-.007.03.001.06 0 .091-.003.031-.019.057-.019.089v43.028c-.205 2.603-2.401 4.639-5.009 4.639-2.598 0-4.787-2.044-4.985-4.653-.036-.478-.459-.847-.934-.847a.912.912 0 00-.725.36 3.636 3.636 0 01-2.918 1.473c-2.01 0-3.643-1.645-3.643-3.667 0-.832.288-1.628.834-2.301a.92.92 0 00.067-1.065.903.903 0 00-.98-.407 3.636 3.636 0 01-.832.107c-2.009 0-3.643-1.645-3.643-3.667 0-1.512.954-2.887 2.372-3.422a.92.92 0 00.1-1.673 4.57 4.57 0 01-2.472-4.072c0-1.617.826-3.083 2.21-3.923a.919.919 0 00.276-1.31 3.66 3.66 0 01-.664-2.1c0-1.523.963-2.9 2.396-3.43a.918.918 0 00.365-1.471 3.66 3.66 0 01-.94-2.432 3.647 3.647 0 013.007-3.6.913.913 0 00.599-.394.928.928 0 00.132-.708 3.645 3.645 0 01-.095-.798c0-2.022 1.634-3.667 3.643-3.667.789 0 1.55.265 2.2.766.265.204.62.246.923.11a.92.92 0 00.539-.762c.173-2.12 1.965-3.78 4.08-3.78 1.014 0 1.852.328 2.563 1.002a.907.907 0 001.288-.038.92.92 0 00-.038-1.296C23.255.505 21.972 0 20.491 0c-2.586 0-4.839 1.72-5.622 4.107a5.31 5.31 0 00-2.119-.44c-3.014 0-5.464 2.466-5.464 5.5 0 .106.003.212.01.32a5.481 5.481 0 00-2.932 7.884A5.513 5.513 0 001.821 22c0 .821.183 1.623.533 2.36A6.369 6.369 0 000 29.332c0 1.872.8 3.608 2.156 4.808A5.521 5.521 0 000 38.5c0 2.835 2.143 5.176 4.884 5.469a5.381 5.381 0 00-.33 1.864c0 3.034 2.45 5.5 5.464 5.5a5.397 5.397 0 003.11-.979C14.059 53.062 16.626 55 19.58 55c3.56 0 6.558-2.788 6.828-6.347 0-.012-.005-.023-.005-.035.001-.013.008-.022.008-.035V5.601c.134-.563 1.033-3.768 4.098-3.768 2.114 0 3.906 1.661 4.079 3.78a.92.92 0 00.54.763.907.907 0 00.922-.11 3.585 3.585 0 012.2-.766c2.009 0 3.643 1.644 3.643 3.667 0 .25-.031.512-.095.798a.928.928 0 00.132.708c.138.208.355.35.6.394a3.647 3.647 0 013.006 3.6 3.66 3.66 0 01-.94 2.432.918.918 0 00.365 1.472A3.673 3.673 0 0147.357 22c0 .75-.23 1.475-.664 2.1a.923.923 0 00.275 1.31 4.555 4.555 0 012.21 3.923 4.57 4.57 0 01-2.47 4.072.92.92 0 00.1 1.673 3.679 3.679 0 012.37 3.422c0 2.022-1.633 3.667-3.642 3.667-.254 0-.527-.035-.832-.107a.905.905 0 00-.98.407.92.92 0 00.067 1.065c.546.673.834 1.469.834 2.301 0 2.023-1.634 3.667-3.643 3.667-1.151 0-2.213-.543-2.912-1.49a.91.91 0 00-1.365-.109.912.912 0 00-.3.613c-.198 2.61-2.387 4.653-4.985 4.653a4.967 4.967 0 01-3.124-1.095.908.908 0 00-1.28.15.922.922 0 00.149 1.288A6.861 6.861 0 0031.42 55c2.957 0 5.526-1.941 6.453-4.652.9.638 1.975.985 3.11.985 3.013 0 5.463-2.466 5.463-5.5a5.38 5.38 0 00-.33-1.864C48.857 43.676 51 41.335 51 38.5a5.521 5.521 0 00-2.156-4.359zM32.786 41.25c0 .506.407.917.91.917 1.328 0 2.733 1.413 2.733 2.75 0 .506.407.916.91.916.504 0 .911-.41.911-.916 0-2.356-2.213-4.584-4.554-4.584-.503 0-.91.411-.91.917zm8.196-24.75c-1.328 0-2.732-1.414-2.732-2.75a.913.913 0 00-.91-.917c-.504 0-.911.411-.911.917 0 2.356 2.213 4.583 4.553 4.583.504 0 .91-.41.91-.916a.914.914 0 00-.91-.917zM30.054 36.667c.503 0 .91-.411.91-.917 0-1.337 1.405-2.75 2.732-2.75.504 0 .911-.41.911-.917a.913.913 0 00-.91-.916c-2.341 0-4.554 2.227-4.554 4.583 0 .506.407.917.91.917zm3.642-11c.504 0 .911-.411.911-.917a.913.913 0 00-.91-.917c-1.328 0-2.733-1.413-2.733-2.75a.913.913 0 00-.91-.916c-.504 0-.911.41-.911.916 0 2.356 2.213 4.584 4.553 4.584zM42.804 22c-.504 0-.911.41-.911.917 0 1.336-1.404 2.75-2.732 2.75-.504 0-.911.41-.911.916s.407.917.91.917c2.341 0 4.554-2.227 4.554-4.583a.913.913 0 00-.91-.917zM39.16 33c-.504 0-.911.41-.911.917 0 .506.407.916.91.916 1.329 0 2.733 1.414 2.733 2.75 0 .506.407.917.91.917.504 0 .911-.41.911-.917 0-2.355-2.213-4.583-4.553-4.583zM29.143 12.833c0-2.356 2.213-4.583 4.553-4.583.504 0 .911.41.911.917a.913.913 0 01-.91.916c-1.328 0-2.733 1.414-2.733 2.75a.913.913 0 01-.91.917.913.913 0 01-.911-.917z"/></symbol><symbol viewBox="0 0 59 32" id="description--icons--eye"><path d="M29.482 18.143a2.268 2.268 0 100-4.536 2.268 2.268 0 000 4.536z"/><path d="M29.482 6.803c-4.99 0-9.071 4.083-9.071 9.072 0 4.99 4.082 9.071 9.071 9.071 4.99 0 9.072-4.082 9.072-9.071 0-4.99-4.083-9.072-9.072-9.072zm0 15.875c-3.855 0-6.803-2.948-6.803-6.803s2.948-6.804 6.803-6.804c3.856 0 6.804 2.949 6.804 6.804 0 3.855-2.948 6.803-6.804 6.803z"/><path d="M29.482 0C9.072 0 0 15.875 0 15.875S9.071 31.75 29.482 31.75c20.41 0 29.482-15.875 29.482-15.875S49.893 0 29.482 0zm0 29.482c-18.143 0-26.76-13.607-26.76-13.607s8.617-13.607 26.76-13.607 26.76 13.607 26.76 13.607-8.617 13.607-26.76 13.607z"/></symbol><symbol viewBox="0 0 55 63" id="description--icons--gear"><path d="M51.736 40.253a3.235 3.235 0 00-2.795 1.623h-3.845a9.684 9.684 0 00-1.664-4.012l2.72-2.72c.27.075.549.116.829.12a3.256 3.256 0 10-3.124-2.417l-2.721 2.721a9.684 9.684 0 00-4.012-1.664V30.06a3.247 3.247 0 10-3.248 0v3.845a9.683 9.683 0 00-4.012 1.664l-2.72-2.72a3.234 3.234 0 10-3.125 2.417c.28-.005.559-.046.828-.122l2.721 2.721a9.684 9.684 0 00-1.664 4.012H22.06a3.247 3.247 0 100 3.248h3.845a9.684 9.684 0 001.665 4.012l-2.722 2.72a3.233 3.233 0 00-3.124.829 3.248 3.248 0 105.422 1.461l2.721-2.721a9.683 9.683 0 004.01 1.67v3.846a3.247 3.247 0 103.248 0v-3.845a9.684 9.684 0 004.012-1.664l2.72 2.72a3.247 3.247 0 102.297-2.295l-2.721-2.721a9.684 9.684 0 001.664-4.012h3.845a3.247 3.247 0 102.795-4.871zm-11.84 5.346l-2.297 2.296 1.18 1.179a6.297 6.297 0 01-6.557 0l1.179-1.179-2.296-2.296-1.179 1.18a6.296 6.296 0 010-6.557l1.179 1.179 2.296-2.296-1.18-1.179a6.297 6.297 0 016.557 0L37.6 39.105l2.296 2.296 1.179-1.18a6.297 6.297 0 010 6.557L39.895 45.6zM16.72 19.143l2.554 2.555 2.424-2.424-2.555-2.555a8.518 8.518 0 001.257-3.005H24v-3.428h-3.6a8.517 8.517 0 00-1.255-3.005L21.7 4.726l-2.424-2.424-2.554 2.555A8.504 8.504 0 0013.714 3.6V0h-3.428v3.6A8.505 8.505 0 007.28 4.855L4.726 2.3 2.302 4.725l2.555 2.554A8.518 8.518 0 003.6 10.286H0v3.428h3.6a8.518 8.518 0 001.255 3.005L2.3 19.274l2.424 2.424 2.554-2.555a8.504 8.504 0 003.007 1.257V24h3.428v-3.6a8.504 8.504 0 003.005-1.257zM6.856 12a5.143 5.143 0 1110.286 0 5.143 5.143 0 01-10.286 0z"/></symbol><symbol viewBox="0 0 59 59" id="description--icons--motherhood"><path d="M4.874 20.73h-.219a.87.87 0 00-.864.865V57.352a.87.87 0 00.864.865h4.679a.87.87 0 00.864-.865V44.596 24.199v-2.616a.87.87 0 00-.864-.864h-.219c-1.118 0-1.118 1.729 0 1.729h.219l-.864-.864v35.768l.864-.864H4.655l.865.864V43.248 23.543v-1.948l-.865.864h.22c1.117 0 1.117-1.728 0-1.728zM49.885 20.73h-.219a.87.87 0 00-.864.865v35.768a.87.87 0 00.864.865h4.678a.87.87 0 00.865-.864V43.259 23.554v-1.947a.87.87 0 00-.865-.865h-.218c-1.118 0-1.118 1.729 0 1.729h.218l-.864-.864v35.757l.864-.864h-4.678l.864.864V44.607 24.211v-2.616l-.864.864h.219c1.118 0 1.118-1.728 0-1.728z"/><path d="M48.525 49.424v3.918l.864-.864H9.334l.864.864v-3.918l-.864.864H49.389c1.118 0 1.118-1.728 0-1.728H9.334a.87.87 0 00-.864.864v3.918a.87.87 0 00.864.864H49.389a.87.87 0 00.865-.864v-3.918c0-1.118-1.729-1.118-1.729 0zM8.746 20.074c-.034.98-.772 1.717-1.74 1.74-.98.035-1.717-.818-1.74-1.74-.034-.98.818-1.717 1.74-1.74.968-.035 1.706.806 1.74 1.74.035 1.118 1.763 1.118 1.729 0-.058-1.936-1.544-3.411-3.469-3.469-1.924-.057-3.422 1.625-3.468 3.469-.058 1.924 1.624 3.422 3.468 3.468 1.925.058 3.423-1.624 3.469-3.468.034-1.118-1.694-1.118-1.729 0zM53.745 20.074c-.034.98-.772 1.717-1.74 1.74-.98.035-1.717-.818-1.74-1.74-.034-.98.818-1.717 1.74-1.74.968-.035 1.717.806 1.74 1.74.035 1.118 1.763 1.118 1.729 0-.058-1.936-1.544-3.411-3.469-3.469-1.924-.057-3.422 1.625-3.468 3.469-.058 1.924 1.624 3.422 3.468 3.468 1.925.058 3.423-1.624 3.469-3.468.034-1.118-1.694-1.118-1.729 0z"/><path d="M9.334 22.46H49.666c1.118 0 1.118-1.73 0-1.73H9.334c-1.118 0-1.118 1.73 0 1.73z"/><path d="M19.37 48.56H9.335l.864.864V33.395v-11.8l-.864.864h10.037l-.864-.864V49.425c0 1.117 1.728 1.117 1.728 0v-16.03-11.8a.87.87 0 00-.864-.864H9.334a.87.87 0 00-.864.864V49.425a.87.87 0 00.864.863h10.037c1.118 0 1.118-1.728 0-1.728z"/><path d="M29.488 48.56H19.451l.865.864V33.395v-11.8l-.864.864h10.036l-.864-.864V49.425c0 1.117 1.729 1.117 1.729 0v-16.03-11.8a.87.87 0 00-.865-.864H19.451a.87.87 0 00-.864.864V49.425a.87.87 0 00.864.863h10.037c1.118 0 1.118-1.728 0-1.728z"/><path d="M39.537 48.56H29.5l.864.864V33.395v-11.8l-.864.864h10.037l-.864-.864V49.425c0 1.117 1.728 1.117 1.728 0v-16.03-11.8a.87.87 0 00-.864-.864H29.5a.87.87 0 00-.864.864V49.425a.87.87 0 00.864.863h10.037c1.106 0 1.106-1.728 0-1.728z"/><path d="M49.574 48.56H39.537l.864.864V33.395v-11.8l-.864.864h10.037l-.864-.864V49.425c0 1.117 1.728 1.117 1.728 0v-16.03-11.8a.87.87 0 00-.864-.864H39.537a.87.87 0 00-.864.864V49.425a.87.87 0 00.864.863h10.037c1.118 0 1.118-1.728 0-1.728zM28.474 1.648v5.508c0 1.118 1.729 1.118 1.729 0V1.648c0-1.118-1.729-1.118-1.729 0z"/><path d="M18.968 9.968c0-1.037.656-1.96 1.774-1.96H37.866c.323 0 .622 0 .945.081.841.23 1.221 1.06 1.221 1.867 0 1.118 1.729 1.118 1.729 0 0-1.336-.588-2.489-1.729-3.203-.645-.404-1.382-.473-2.12-.473H21.157c-.726 0-1.383.092-2.051.404-1.245.587-1.867 1.959-1.867 3.272 0 1.13 1.729 1.13 1.729.012z"/><path d="M30.203 9.968V7.145c0-1.118-1.729-1.118-1.729 0v2.823c0 1.118 1.729 1.118 1.729 0zM19.866 12.595a1.794 1.794 0 01-1.763 1.763c-.98.035-1.728-.818-1.763-1.763-.034-.98.818-1.728 1.763-1.763.98-.035 1.729.818 1.763 1.763.035 1.118 1.764 1.118 1.729 0-.058-1.936-1.544-3.434-3.492-3.491-1.936-.058-3.434 1.636-3.491 3.491-.058 1.936 1.636 3.434 3.491 3.492 1.936.057 3.434-1.636 3.492-3.492.035-1.118-1.694-1.118-1.729 0z"/><path d="M31.102 12.595a1.794 1.794 0 01-1.763 1.763c-.98.035-1.729-.818-1.763-1.763-.035-.98.818-1.728 1.763-1.763.99-.035 1.728.818 1.763 1.763.034 1.118 1.763 1.118 1.728 0-.057-1.936-1.544-3.434-3.491-3.491-1.936-.058-3.434 1.636-3.492 3.491-.058 1.936 1.636 3.434 3.492 3.492 1.936.057 3.434-1.636 3.491-3.492.035-1.118-1.694-1.118-1.728 0zM42.66 12.595a1.794 1.794 0 01-1.763 1.763c-.98.035-1.729-.818-1.763-1.763-.035-.98.818-1.728 1.763-1.763.99-.035 1.74.818 1.763 1.763.034 1.118 1.763 1.118 1.728 0-.057-1.936-1.544-3.434-3.491-3.491-1.936-.058-3.434 1.636-3.492 3.491-.058 1.936 1.636 3.434 3.492 3.492 1.936.057 3.434-1.636 3.491-3.492.035-1.118-1.694-1.118-1.728 0z"/></symbol><symbol viewBox="0 0 43 43" id="description--icons--search"><g clip-path="url(#fclip0_1_167)"><path d="M17.346 0C8.15 0 .694 7.456.694 16.652c0 9.196 7.456 16.653 16.652 16.653a16.58 16.58 0 009.512-2.982l12.592 12.59a.29.29 0 00.406.009l2.372-2.373c.11-.11.1-.298-.007-.405L29.792 27.715a16.581 16.581 0 004.206-11.063C33.998 7.456 26.542 0 17.346 0zm0 31.345c-8.114 0-14.693-6.578-14.693-14.693 0-8.114 6.579-14.693 14.693-14.693 8.115 0 14.693 6.579 14.693 14.693 0 8.115-6.578 14.693-14.693 14.693z"/></g><defs><clipPath id="fclip0_1_167"><path d="M0 0h43v43H0z"/></clipPath></defs></symbol><symbol viewBox="0 0 47 30" id="icons--arrow-right"><path d="M2 27l21-12L2 3m18 24l21-12L20 3" stroke="#4B4B4A" stroke-width="5"/></symbol><symbol viewBox="0 0 143 44" id="logo"><path d="M90.207 42.031a2.568 2.568 0 01-3.739-1.424c-1.324-3.246-.924-9.738-1.68-11.225 0 0-2.101-3.141-2.101-2.471 0 .356 2.1-2.367 2.1-2.367.862-1.654-.252-7.58 1.26-10.89a3.25 3.25 0 011.715-1.797 3.265 3.265 0 012.487-.066c.946.377 1.345-1.152.42-1.53a4.57 4.57 0 00-6.113 2.095c-2.437 4.586 1.828 11.079-4.453 13.76a.797.797 0 00-.282 1.07c.067.12.164.22.282.29 6.155 2.66 2.29 9.194 4.79 13.697a4.187 4.187 0 002.388 2.401 4.214 4.214 0 003.389-.14c.924-.376.525-1.884-.42-1.507l-.043.104z"/><path d="M106.32 36c-.731.189-1.475.322-2.226.398-.295 0-.568.21-1.03.146-.462-.062-1.134-1.214-1.134-1.214a1.862 1.862 0 00-.147-1.529c-.483-.67-1.093-1.801-1.513-2.492-1.05-1.76-1.785-2.744-2.248-3.435-.462-.69-.987-1.047-1.176-.88-.798.67-.693 1.09-.987 1.655a13.822 13.822 0 00-.42 3.477c.001.911-.069 1.822-.21 2.722 0 .189.462.419.588.545a2.092 2.092 0 01-1.492 1.717c-.4.126-.84-.46-1.282-.46h-1.302c-.147 0-.273 0-.441-.21-.168-.21-.147-.482-.147-.838.44-.21.399-.251.735-1.256a7.23 7.23 0 000-1.027 16.93 16.93 0 00.546-3.12l-.23-5.508.23-3.749c0-1.57-.294-2.387-.903-2.492-.61-.104-1.282.356-1.282 0s-.546-.628-.189-1.047c.358-.419.652-.188.988-.356a7.839 7.839 0 013.214-.293 12.424 12.424 0 011.975 0c.315.105.168.21.168.314-.231.691.315 1.068.315 1.927a9.348 9.348 0 01-.147 1.424 16.85 16.85 0 00-.42 4.188c.777-.586 4.936-4.44 5.693-5.068.756-.628 1.575-.775 1.575-1.047 0-.272 0-.293-.357-.482-.357-.188-.357-.356-.357-.481 0-.126.126-.293.399-.44.269-.13.563-.201.862-.21.567 0 1.596 0 2.857.147h.735c1.512.189.147 1.466-.378 1.361-1.282-.272-2.101.943-2.605 1.53-.904 1.298-3.551 3.622-3.551 4.188 0 .565.484.942 1.429 2.492.651 1.089 1.723 2.89 1.828 3.016.452 1.029.993 2.017 1.617 2.952.841 1.09 1.114 1.76 1.492 2.095.378.335-.063 1.34-1.072 1.34zM115.102 11.79c-.189 0-.442-.334-.589-.586-.882-1.424-1.05-2.387-1.617-3.309a6.285 6.285 0 00-1.555-1.612c-1.344-1.068-1.932-.775-2.962-1.76a3.226 3.226 0 01-1.239-2.429c.027-.474.229-.921.567-1.256a1.66 1.66 0 011.176-.42c.652 0 1.135.42 1.87 1.195a32.087 32.087 0 012.416 2.91c1.365 1.76 1.576 1.948 1.786 2.597 0 .252 0 0 .357 2.095a7.89 7.89 0 010 1.843c-.021.481-.084.69-.21.733zM116.089 6.283c.294 0 .462-1.11 1.513-3.498a2.994 2.994 0 00.357-2.094 1.041 1.041 0 00-.526-.691c-.483-.23-1.092.188-1.218.293a2.087 2.087 0 00-.672 1.068 3.846 3.846 0 000 1.466c.105 1.152.189 1.738.315 2.471.126.733.189.985.231.985zM117.349 12.565c-.168 0-.336-.293-.357-.586a.943.943 0 01.21-.628c.253-.398.168-.545.547-2.094.126-.566.315-1.362.63-2.325.483-1.487.777-1.822 1.071-2.094a1.642 1.642 0 011.345-.398 1.28 1.28 0 01.945.775c.21.481 0 .942-.273 1.738a5.098 5.098 0 01-1.302 2.094c-.484.44-.547.733-1.03 1.194a7.34 7.34 0 00-1.26 1.403c-.42.44-.231.921-.526.921zM3.655 24.272C3.55 24 3.235 22.87 3.11 22.66a18.802 18.802 0 01-.903-3.31c0-.334.168-.628 0-.69-.546-.189-.988.23-1.66 0-.672-.23-.546-.712-.546-1.068 0-.356 0-.65.21-.691a11.637 11.637 0 011.513 0c1.344.272 3.34-.147 4.58.167 1.239.314 1.386.293 1.386.544-.075.429-.21.845-.4 1.236-.23.4-.38.841-.44 1.299.364 1.819.957 3.585 1.764 5.256a37.629 37.629 0 002.1 4.796 17.488 17.488 0 002.585-4.859c.824-1.7 1.41-3.503 1.743-5.361a1.736 1.736 0 00-.462-1.005 1.778 1.778 0 01-.483-1.09 1.75 1.75 0 000-.48v-.462h8.256c.42 0 .441.147.42.377-.02.23.295 0 .42.105.127.105-.84 2.094-2.478 1.257-.904-.42-2.563 2.806-3.698 5.424a43.131 43.131 0 01-3.004 5.926 18.83 18.83 0 00-1.66 3.1c-.273.733-.609 1.57-1.008 2.471a2.43 2.43 0 01-2.206 1.592c-.861 0-1.617-1.592-2.332-4.398a37.34 37.34 0 00-1.932-5.948l-1.219-2.576zM39.915 23.916a2.089 2.089 0 01-.63 1.508 1.806 1.806 0 01-1.282.65H28.34a1.453 1.453 0 00-1.156.774c-.291.399-.466.87-.504 1.361a4.554 4.554 0 001.806 3.728 7.2 7.2 0 004.664 1.445 5.815 5.815 0 002.101-.335l2.605-1.843h1.05v1.529a14.188 14.188 0 01-3.697 3.204 9.037 9.037 0 01-4.202.9 9.08 9.08 0 01-6.87-2.7 7.886 7.886 0 01-2.562-5.278v-2.095a9.96 9.96 0 013.256-5.926 8.897 8.897 0 015.945-3.54h4.412c.987 0 2.1.733 3.046 2.095a7.504 7.504 0 011.68 4.523zm-5.042-1.068a2.636 2.636 0 00-.84-1.633 2.626 2.626 0 00-2.101-.964 4.359 4.359 0 00-2.521.691 8.042 8.042 0 00-2.1 2.911c.468.145.958.209 1.449.189h3.13a15.91 15.91 0 001.953-.335c.673-.273.988-.524.988-.859h.042zM56.721 20.691a2.719 2.719 0 01-.693 1.403 1.91 1.91 0 01-1.408.943 6.15 6.15 0 01-1.995-.252L51.49 22.2c-.693 0-1.24.544-1.68 1.654a12.531 12.531 0 00-.63 4.377c0 3.665.503 5.76 1.47 6.283.966.524 1.491.963 1.491 1.445a.877.877 0 01-.44.775c-.317.17-.671.257-1.03.251a17.678 17.678 0 01-3.845-.544c-1.512-.377-2.269-.88-2.269-1.529.437-.63.738-1.343.883-2.094.284-1.378.418-2.782.399-4.189a19.754 19.754 0 00-.714-6.031 91.462 91.462 0 01-1.618-2.325c0-.272.588-.712 1.744-1.32a138.297 138.297 0 013.53-1.8 1.03 1.03 0 01.671.44c.208.224.334.512.357.816v2.534l1.429-2.094a3.383 3.383 0 012.458-.921 3.094 3.094 0 012.1.733 2.452 2.452 0 01.925 2.031zM65.88 24.356a16.17 16.17 0 011.912 0 7.734 7.734 0 011.744.377v-.46a3.72 3.72 0 00-.651-2.2 3.094 3.094 0 01-.652-1.78H65.65c-.84 0-1.491.545-1.974 1.634a2.494 2.494 0 01-2.521 1.654 4.432 4.432 0 01-1.009-.67 1.258 1.258 0 01-.483-1.047 4.056 4.056 0 011.954-3.016 7.115 7.115 0 014.496-1.487 7.809 7.809 0 015.315 1.906 5.743 5.743 0 012.226 4.398c-.02 2.322.164 4.641.546 6.932.358 2.094.967 3.036 1.807 3.036l.294-.23c.22-.175.498-.258.778-.23a1.177 1.177 0 01.84.398 1.258 1.258 0 01.441.942c0 .251-.315.607-.945 1.068a3.663 3.663 0 01-2.27.691 8.741 8.741 0 01-2.71-.398 5.213 5.213 0 01-2.247-1.36 5.54 5.54 0 01-2.248 2.093 7.689 7.689 0 01-3.109.524 7.765 7.765 0 01-4.958-1.885 5.596 5.596 0 01-2.332-4.524 5.89 5.89 0 01.715-3.057 5.182 5.182 0 011.806-1.76 12.636 12.636 0 013.235-1.088 18.97 18.97 0 012.584-.461zm4.055 5.089a3.302 3.302 0 00-.336-.942 5.477 5.477 0 01-.483-1.278 5.33 5.33 0 01-1.555-.314 5.16 5.16 0 00-1.68-.335 3.662 3.662 0 00-2.5.817 3.348 3.348 0 00-.925 2.701 3.216 3.216 0 001.135 2.555c.75.65 1.715 1 2.71.984a3.37 3.37 0 002.52-1.235 4.18 4.18 0 001.114-2.953zM112.055 23.037a5.382 5.382 0 002.542-.985 8.135 8.135 0 011.891-.963c.266 0 .413.189.441.565.019.335.019.67 0 1.006l-.714 6.282a13.364 13.364 0 00.714 4.608l1.597 2.995a.522.522 0 01-.336.544 3.334 3.334 0 01-.904.105 1.917 1.917 0 01-.987-.23 5.457 5.457 0 00-2.248-.252 9.742 9.742 0 00-1.743.126 3.56 3.56 0 00-1.156.356v-1.592l1.093-.775c.223-.137.404-.333.525-.565 0-.168.189-1.592.336-4.189.147-2.597.231-4.063.231-4.188a2.592 2.592 0 00-.273-1.424 1.223 1.223 0 00-.945-.314h-.967v-.9l.504-.21h.399zm4.706-4.67c-.015.44-.195.858-.504 1.172a1.83 1.83 0 01-1.428.566 1.392 1.392 0 01-1.072-.377 1.349 1.349 0 01-.279-.51 1.35 1.35 0 01-.036-.58 1.66 1.66 0 01.357-1.235 2.107 2.107 0 011.408-.335c.417-.032.836.04 1.218.21.224.153.336.488.336 1.005v.083zM126.446 22.743h-1.261a3.537 3.537 0 01-1.323-.167.732.732 0 01-.42-.754l1.533-1.32 1.744-1.424a45.134 45.134 0 001.975-1.612c.651-.566 1.113-.838 1.344-.838.231 0 .252 0 .357.293a1.1 1.1 0 01.168.42s0 .355-.294.963c-.224.74-.392 1.496-.504 2.261l1.282.482c.415.162.856.247 1.302.251 0 .336 0 .629.126.817.126.189 0 .377 0 .545.006.083.006.167 0 .251h-.126v.796s-.168.167-.378.167h-.693a1.791 1.791 0 01-.484 0h-.378c-.304.01-.607.053-.903.126a52.798 52.798 0 00-.399 3.12c-.105 1.027-.168 1.927-.168 2.597v.524a10.157 10.157 0 00.63 3.623c.399 1.13.924 1.696 1.534 1.696.173.036.352.036.525 0h.525l.252-.419.294-.314h.714v.566a3.371 3.371 0 01-1.449 1.508 7.037 7.037 0 01-2.836.418 3.77 3.77 0 01-1.87-.607 2.893 2.893 0 01-1.281-1.361 4.333 4.333 0 01-.315-1.424v-1.76c0-1.926 0-3.79.189-5.654a10.908 10.908 0 01.588-3.77z"/><path d="M132.454 42.073a2.566 2.566 0 003.739-1.424c1.345-3.246.946-9.738 1.681-11.225 0 0 2.206-3.141 2.206-2.471 0 .67-2.101-2.367-2.101-2.367-.84-1.654.252-7.58-1.239-10.89a3.273 3.273 0 00-1.718-1.79 3.287 3.287 0 00-2.484-.074c-.945.377-1.344-1.151-.42-1.528a4.57 4.57 0 015.035.676c.45.397.816.88 1.078 1.418 2.437 4.586-1.806 11.078 4.454 13.78a.773.773 0 010 1.34c-6.134 2.66-2.29 9.194-4.79 13.697a4.191 4.191 0 01-2.388 2.401 4.216 4.216 0 01-3.389-.14c-.924-.377-.525-1.884.42-1.507l-.084.104z"/></symbol></svg>