<svg width="49" height="59" viewBox="0 0 49 59" fill="none" xmlns="http://www.w3.org/2000/svg">
<g filter="url(#filter0_d_8_283)">
<path fill-rule="evenodd" clip-rule="evenodd" d="M17.0388 1.11593C16.6104 1.25283 15.7743 1.96743 15.561 2.37888C15.4758 2.54319 15.3744 2.87609 15.3355 3.11873L15.2647 3.55985L12.0203 3.56092C8.83844 3.56189 8.76563 3.56683 8.23743 3.81495C7.27204 4.26853 6.94601 4.69579 6.5238 6.0605C5.68152 8.78274 5.66688 8.97132 6.25324 9.53183L6.58207 9.84614H17.8773H29.1725L29.5013 9.53183C30.0308 9.0257 30.0246 8.73159 29.4437 6.76435C28.9812 5.19869 28.879 4.95981 28.4907 4.5375C28.2513 4.27745 27.8133 3.95153 27.5171 3.81323C26.99 3.56726 26.9094 3.56189 23.7204 3.56092L20.4623 3.55985L20.4612 3.31807C20.4597 2.95518 19.9923 2.04039 19.6411 1.71254C18.9578 1.07467 17.9153 0.835679 17.0388 1.11593ZM18.6496 2.23005C18.9987 2.40543 19.3353 2.86395 19.4088 3.26434L19.463 3.55985H17.8602H16.2576L16.3283 3.26434C16.4378 2.80753 16.5587 2.62335 16.9362 2.33816C17.4675 1.93691 17.9992 1.90338 18.6496 2.23005ZM1.12872 5.88793C0.62971 6.15098 0.415372 6.3702 0.200387 6.83732C0.0103906 7.24996 0.00242009 8.15723 0.000158232 29.5413C-0.00199592 49.3464 0.0160988 51.8592 0.163443 52.211C0.377243 52.7215 0.60386 52.9655 1.09748 53.2168C1.48071 53.412 1.88741 53.4204 10.9886 53.4204C16.209 53.4204 20.4641 53.3831 20.4443 53.3374C20.2749 52.9464 19.4564 51.5896 19.3231 51.4794C19.2303 51.4024 18.3459 50.8719 17.3579 50.3003L15.5616 49.261L15.5295 48.6004L15.4975 47.94H14.1562H12.815V43.2656V38.5912H8.34513H3.87527V22.1501V5.70901L2.66355 5.71331C1.77195 5.71642 1.36643 5.76263 1.12872 5.88793ZM31.987 15.6394V25.5699L32.8436 26.0628L33.7003 26.5559H34.7823H35.8644V16.8135V7.07115L35.5967 6.61531C35.1772 5.90103 34.6675 5.70901 33.1916 5.70901H31.987V15.6394ZM22.9395 14.6667C22.3175 14.8599 20.6938 15.4586 19.3313 15.997C16.172 17.2458 15.47 17.4738 14.8076 17.4667C14.1475 17.4595 13.8531 17.3099 12.6975 16.3936C12.1993 15.9986 11.4856 15.5303 11.1112 15.353C10.2838 14.9611 9.77679 14.9928 8.83144 15.4955C8.12606 15.8707 6.32378 17.4951 6.07013 17.9846C5.64889 18.7972 6.44312 19.8945 7.45116 19.8929C7.80089 19.8924 7.90817 19.8382 8.83499 19.195C9.21865 18.9288 9.40444 18.8732 9.90183 18.8759C10.4073 18.8787 10.7114 18.9775 11.7942 19.4904C13.631 20.3604 14.0984 20.4643 15.2732 20.2631C16.5573 20.0432 17.8079 19.6677 20.0853 18.8182C22.4963 17.9188 22.9541 17.8078 24.232 17.8121C25.3722 17.8161 26.0803 17.9753 27.5057 18.5486C28.0221 18.7563 28.5995 18.9261 28.7887 18.9259C29.8664 18.9247 30.6852 17.4701 30.0213 16.7362C29.7012 16.3825 26.661 14.7648 25.8329 14.5077C24.9181 14.2237 24.2474 14.2605 22.9395 14.6667ZM23.2627 22.095C22.7591 22.2334 21.0627 22.8538 19.4929 23.4739C16.5043 24.6542 15.3203 25.0514 14.7903 25.0514C14.3348 25.0514 13.5296 24.6154 12.5996 23.8649C11.7359 23.1679 11.0285 22.7583 10.4872 22.6416C9.65691 22.4627 8.50142 23.0654 7.0395 24.4401C6.02005 25.3988 5.83544 25.7372 6.01165 26.3241C6.19766 26.9436 6.66856 27.3286 7.3162 27.3907C7.81995 27.439 7.89987 27.4118 8.42527 27.0126C9.11384 26.4893 9.64851 26.3046 10.1964 26.4006C10.4222 26.4401 11.2129 26.7526 11.9533 27.095C13.7769 27.9381 14.1584 28.0162 15.3632 27.7933C16.5927 27.5658 17.7168 27.2239 19.9776 26.3901C22.3575 25.5121 22.997 25.3542 24.1882 25.3498C24.936 25.347 25.4106 25.4148 26.1942 25.6367L27.2207 25.9271L28.575 25.1572C29.3216 24.7326 29.985 24.4214 30.0534 24.4637C30.1446 24.5199 30.1478 24.4848 30.0651 24.3308C29.92 24.06 26.5107 22.217 25.7473 21.9966C24.9634 21.7703 24.3572 21.7943 23.2627 22.095ZM28.1633 26.9312L26.44 27.9424L24.3936 27.9511L22.3471 27.9597L21.3584 29.6907L20.3697 31.4217L18.6657 32.4051L16.9618 33.3885L16.9325 35.405L16.9031 37.4216L15.8726 39.1889L14.8423 40.9564L15.8751 42.7366L16.9079 44.5168L16.9111 46.5239L16.9144 48.531L18.6315 49.4981L20.3486 50.4653L21.3479 52.2092L22.3471 53.9531L24.3657 53.9554L26.3842 53.9577L28.1556 54.9788L29.927 56L31.6301 55.0057L33.3333 54.0114L35.4191 53.9577L37.5049 53.9039L38.4971 52.1985L39.4894 50.4929L41.2044 49.5051L42.9193 48.5175L42.9732 46.4288L43.027 44.3402L44.0135 42.6477L45 40.9552L44.0135 39.2628L43.027 37.5703L42.9732 35.4894L42.9193 33.4084L41.1981 32.4117L39.477 31.415L38.4897 29.7107L37.5025 28.0065L35.4179 27.9528L33.3333 27.8991L31.6272 26.9051C30.6889 26.3584 29.9134 25.9132 29.9039 25.9156C29.8944 25.9181 29.1112 26.3751 28.1633 26.9312ZM9.56029 29.8233C8.8854 30.0043 8.10312 30.5357 7.03196 31.5411C6.04374 32.4686 5.82865 32.8799 6.0236 33.4692C6.17213 33.9183 6.64152 34.3747 7.0856 34.5017C7.51169 34.6237 8.08114 34.4765 8.35591 34.1733C8.71123 33.7814 9.37224 33.5124 9.967 33.5177C10.4115 33.5217 10.7911 33.6497 11.9096 34.1725C13.5615 34.9448 14.1886 35.1123 14.9256 34.9784L15.4538 34.8825L15.5077 33.7696L15.5616 32.6568L16.726 31.9817C17.3665 31.6105 17.9128 31.2843 17.9402 31.257C17.9675 31.2299 17.3707 31.4179 16.6142 31.6752C15.8575 31.9323 15.0688 32.1425 14.8615 32.1422C14.3284 32.1413 13.5382 31.7339 12.5996 30.9761C11.1925 29.84 10.4909 29.5738 9.56029 29.8233ZM36.166 34.5512C36.6056 34.7792 37.9952 36.2581 38.0776 36.5856C38.1175 36.7438 38.1171 37.0543 38.0768 37.2756C38.0127 37.6276 37.4104 38.2715 33.245 42.4402C30.6278 45.0596 28.3556 47.2718 28.1957 47.3564C27.8506 47.5389 27.3775 47.5539 26.9586 47.3957C26.6336 47.273 22.5831 43.3292 22.0656 42.6316C21.8209 42.3017 21.7547 42.0987 21.7547 41.6782C21.7547 41.1546 21.7722 41.126 22.6326 40.2467C24.123 38.7232 24.4558 38.7534 26.2773 40.5771L27.5147 41.8161L31.0703 38.2839C33.0258 36.3412 34.7457 34.6726 34.8922 34.576C35.2188 34.3604 35.7772 34.3495 36.166 34.5512ZM10.1223 43.6954C10.1223 45.0252 10.1098 46.1132 10.0945 46.1132C10.0792 46.1132 8.97695 45.0252 7.64503 43.6954L5.22344 41.2776H7.67282H10.1223V43.6954Z" fill="white"/>
</g>
<defs>
<filter id="filter0_d_8_283" x="0" y="0" width="49" height="59" filterUnits="userSpaceOnUse" color-interpolation-filters="sRGB">
<feFlood flood-opacity="0" result="BackgroundImageFix"/>
<feColorMatrix in="SourceAlpha" type="matrix" values="0 0 0 0 0 0 0 0 0 0 0 0 0 0 0 0 0 0 127 0" result="hardAlpha"/>
<feOffset dx="2" dy="1"/>
<feGaussianBlur stdDeviation="1"/>
<feColorMatrix type="matrix" values="0 0 0 0 0 0 0 0 0 0 0 0 0 0 0 0 0 0 0.25 0"/>
<feBlend mode="normal" in2="BackgroundImageFix" result="effect1_dropShadow_8_283"/>
<feBlend mode="normal" in="SourceGraphic" in2="effect1_dropShadow_8_283" result="shape"/>
</filter>
</defs>
</svg>
