<svg width="51" height="55" viewBox="0 0 51 55" fill="none" xmlns="http://www.w3.org/2000/svg">
<path fill-rule="evenodd" clip-rule="evenodd" d="M18.2143 24.75C18.2143 25.2551 18.6223 25.6667 19.125 25.6667C19.6277 25.6667 20.0357 25.2551 20.0357 24.75C20.0357 24.2449 19.6277 23.8333 19.125 23.8333C18.6223 23.8333 18.2143 24.2449 18.2143 24.75ZM20.0357 41.25C20.0357 40.7449 19.6277 40.3333 19.125 40.3333C18.6223 40.3333 18.2143 40.7449 18.2143 41.25C18.2143 41.7551 18.6223 42.1667 19.125 42.1667C19.6277 42.1667 20.0357 41.7551 20.0357 41.25ZM12.75 24.75C12.75 24.2449 12.342 23.8333 11.8393 23.8333C11.3366 23.8333 10.9286 24.2449 10.9286 24.75C10.9286 25.2551 11.3366 25.6667 11.8393 25.6667C12.342 25.6667 12.75 25.2551 12.75 24.75ZM12.75 35.75C12.75 35.2449 12.342 34.8333 11.8393 34.8333C11.3366 34.8333 10.9286 35.2449 10.9286 35.75C10.9286 36.2551 11.3366 36.6667 11.8393 36.6667C12.342 36.6667 12.75 36.2551 12.75 35.75ZM18.2143 15.5833C18.2143 16.0884 18.6223 16.5 19.125 16.5C19.6277 16.5 20.0357 16.0884 20.0357 15.5833C20.0357 15.0783 19.6277 14.6667 19.125 14.6667C18.6223 14.6667 18.2143 15.0783 18.2143 15.5833ZM12.75 16.5V22.1687C13.5223 22.4455 14.1288 23.0569 14.4029 23.8333H16.5613C16.9384 22.7682 17.9392 22 19.125 22C20.6313 22 21.8571 23.2338 21.8571 24.75C21.8571 25.9435 21.0931 26.9509 20.0357 27.3313V38.6687C21.0931 39.0491 21.8571 40.0565 21.8571 41.25C21.8571 42.4435 21.0931 43.4509 20.0357 43.8313V46.75C20.0357 47.256 19.6286 47.6667 19.125 47.6667C18.6214 47.6667 18.2143 47.256 18.2143 46.75V43.8304C17.2844 43.4977 16.5914 42.6782 16.4357 41.6717L13.0168 38.2314C13.0141 38.2296 13.0141 38.2259 13.0114 38.2232C12.6553 38.3955 12.2609 38.5 11.8393 38.5C10.333 38.5 9.10714 37.2662 9.10714 35.75C9.10714 34.2338 10.333 33 11.8393 33C13.3456 33 14.5714 34.2338 14.5714 35.75C14.5714 36.1735 14.4676 36.5713 14.2964 36.9297C14.2991 36.9325 14.3019 36.9334 14.3046 36.9353L16.952 39.6009C17.2717 39.1756 17.707 38.8511 18.2143 38.6687V27.3304C17.442 27.0545 16.8355 26.4431 16.5613 25.6667H14.4029C14.0259 26.7318 13.025 27.5 11.8393 27.5C10.333 27.5 9.10714 26.2662 9.10714 24.75C9.10714 23.5565 9.87123 22.5491 10.9286 22.1687V15.5833C10.9286 15.0773 11.3357 14.6667 11.8393 14.6667H16.5613C16.8355 13.8903 17.442 13.2788 18.2143 13.002V10.0833C18.2143 9.57733 18.6214 9.16667 19.125 9.16667C19.6286 9.16667 20.0357 9.57733 20.0357 10.0833V13.002C21.0931 13.3824 21.8571 14.3898 21.8571 15.5833C21.8571 17.0995 20.6313 18.3333 19.125 18.3333C17.9392 18.3333 16.9384 17.5652 16.5613 16.5H12.75ZM48.8443 34.1412C50.2004 32.9413 51 31.2052 51 29.3333C51 27.3717 50.1339 25.5695 48.6458 24.3595C48.9964 23.6234 49.1786 22.8213 49.1786 22C49.1786 20.108 48.1923 18.3654 46.6359 17.3708C47.1058 16.5468 47.3571 15.6173 47.3571 14.6667C47.3571 12.3017 45.8645 10.2456 43.7043 9.48658C43.7106 9.37933 43.7143 9.273 43.7143 9.16667C43.7143 6.13342 41.2636 3.66667 38.25 3.66667C37.5151 3.66667 36.7992 3.817 36.1308 4.10667C35.3476 1.71967 33.0954 0 30.5089 0C26.6766 0 24.9727 3.47967 24.6075 5.32033C24.6011 5.35058 24.6093 5.37992 24.6075 5.41108C24.6048 5.44225 24.5893 5.46792 24.5893 5.5V48.5283C24.3835 51.1307 22.1877 53.1667 19.5804 53.1667C16.9821 53.1667 14.7927 51.1234 14.5951 48.5137C14.5587 48.0361 14.1361 47.6667 13.6607 47.6667C13.3766 47.6667 13.1088 47.8005 12.9358 48.0278C12.2291 48.9638 11.1654 49.5 10.0179 49.5C8.00882 49.5 6.375 47.8555 6.375 45.8333C6.375 45.001 6.66279 44.2053 7.20921 43.5316C7.45511 43.2282 7.48243 42.8001 7.2757 42.4673C7.06988 42.1346 6.68009 41.9696 6.29577 42.0603C5.99068 42.1318 5.71837 42.1667 5.46429 42.1667C3.45525 42.1667 1.82143 40.5222 1.82143 38.5C1.82143 36.9884 2.77495 35.6134 4.19293 35.0781C4.5308 34.9507 4.76212 34.6353 4.78307 34.2742C4.80402 33.9121 4.61095 33.5711 4.2922 33.4052C2.76766 32.6141 1.82143 31.053 1.82143 29.3333C1.82143 27.7163 2.64745 26.2497 4.03173 25.41C4.24757 25.2789 4.39966 25.0635 4.45248 24.8151C4.50439 24.5657 4.45157 24.3073 4.30677 24.0992C3.87236 23.4749 3.64286 22.7498 3.64286 22C3.64286 20.4774 4.60639 19.0997 6.03895 18.5708C6.32218 18.4663 6.5362 18.227 6.60996 17.9328C6.68282 17.6376 6.60541 17.325 6.40414 17.0986C5.79761 16.4175 5.46429 15.554 5.46429 14.6667C5.46429 12.8902 6.72927 11.3768 8.47055 11.0669C8.71462 11.0229 8.93229 10.8808 9.0698 10.6727C9.20732 10.4647 9.25468 10.2089 9.20186 9.96508C9.13811 9.67908 9.10714 9.41783 9.10714 9.16667C9.10714 7.1445 10.741 5.5 12.75 5.5C13.5387 5.5 14.2991 5.76492 14.9503 6.26633C15.2153 6.46983 15.5696 6.512 15.8728 6.37633C16.1779 6.23975 16.3837 5.94733 16.412 5.61367C16.585 3.49433 18.3773 1.83333 20.4911 1.83333C21.5056 1.83333 22.3444 2.1615 23.0547 2.83617C23.4218 3.18358 23.9982 3.16617 24.3425 2.79767C24.6876 2.42917 24.6712 1.84983 24.3051 1.50242C23.2551 0.505083 21.9719 0 20.4911 0C17.9046 0 15.6524 1.71967 14.8692 4.10667C14.2008 3.817 13.4849 3.66667 12.75 3.66667C9.73645 3.66667 7.28571 6.13342 7.28571 9.16667C7.28571 9.273 7.28936 9.37933 7.29573 9.48658C5.13552 10.2456 3.64286 12.3017 3.64286 14.6667C3.64286 15.6173 3.89421 16.5468 4.36414 17.3708C2.80773 18.3654 1.82143 20.108 1.82143 22C1.82143 22.8213 2.00357 23.6234 2.3542 24.3595C0.866089 25.5695 0 27.3717 0 29.3333C0 31.2052 0.799607 32.9413 2.15566 34.1412C0.825107 35.1652 0 36.773 0 38.5C0 41.3353 2.14291 43.6764 4.88416 43.9688C4.66559 44.5628 4.55357 45.1898 4.55357 45.8333C4.55357 48.8666 7.0043 51.3333 10.0179 51.3333C11.149 51.3333 12.2254 50.9878 13.1289 50.3543C14.0578 53.0622 16.6251 55 19.5804 55C23.1394 55 26.1384 52.2115 26.408 48.653C26.4089 48.6411 26.4034 48.6301 26.4034 48.6182C26.4043 48.6053 26.4107 48.5962 26.4107 48.5833V5.60083C26.5455 5.038 27.4444 1.83333 30.5089 1.83333C32.6227 1.83333 34.415 3.49433 34.588 5.61367C34.6162 5.94733 34.8221 6.23975 35.1272 6.37633C35.4304 6.512 35.7847 6.46983 36.0497 6.26633C36.7009 5.76492 37.4613 5.5 38.25 5.5C40.259 5.5 41.8929 7.1445 41.8929 9.16667C41.8929 9.41783 41.8619 9.67908 41.7981 9.96508C41.7453 10.2089 41.7927 10.4647 41.9302 10.6727C42.0677 10.8808 42.2854 11.0229 42.5294 11.0669C44.2707 11.3768 45.5357 12.8902 45.5357 14.6667C45.5357 15.554 45.2024 16.4175 44.5959 17.0986C44.3946 17.325 44.3172 17.6376 44.39 17.9328C44.4638 18.227 44.6778 18.4663 44.9611 18.5708C46.3936 19.0997 47.3571 20.4774 47.3571 22C47.3571 22.7498 47.1276 23.4749 46.6932 24.0992C46.5484 24.3073 46.4956 24.5657 46.5475 24.8151C46.6003 25.0635 46.7524 25.2789 46.9683 25.41C48.3526 26.2497 49.1786 27.7163 49.1786 29.3333C49.1786 31.053 48.2323 32.6141 46.7078 33.4052C46.3891 33.5711 46.196 33.9121 46.2169 34.2742C46.2379 34.6353 46.4692 34.9507 46.8071 35.0781C48.2251 35.6134 49.1786 36.9884 49.1786 38.5C49.1786 40.5222 47.5447 42.1667 45.5357 42.1667C45.2816 42.1667 45.0093 42.1318 44.7042 42.0603C44.3217 41.9696 43.931 42.1346 43.7243 42.4673C43.5176 42.8001 43.5449 43.2282 43.7908 43.5316C44.3372 44.2053 44.625 45.001 44.625 45.8333C44.625 47.8555 42.9912 49.5 40.9821 49.5C39.831 49.5 38.7691 48.9573 38.0697 48.0104C37.8347 47.6942 37.4258 47.5649 37.0533 47.6877C36.9185 47.7327 36.8001 47.8069 36.7045 47.9013C36.5351 48.0535 36.4231 48.2698 36.4049 48.5137C36.2073 51.1234 34.0179 53.1667 31.4196 53.1667C30.2749 53.1667 29.1948 52.7881 28.2959 52.0722C27.8997 51.7578 27.3287 51.8256 27.0163 52.2216C26.704 52.6185 26.7714 53.1951 27.1648 53.5095C28.3715 54.4702 29.8833 55 31.4196 55C34.3767 55 36.9459 53.0585 37.873 50.3479C38.7737 50.9859 39.8483 51.3333 40.9821 51.3333C43.9957 51.3333 46.4464 48.8666 46.4464 45.8333C46.4464 45.1898 46.3344 44.5628 46.1158 43.9688C48.8571 43.6764 51 41.3353 51 38.5C51 36.773 50.1749 35.1652 48.8443 34.1412ZM32.7857 41.25C32.7857 41.756 33.1928 42.1667 33.6964 42.1667C35.0242 42.1667 36.4286 43.5802 36.4286 44.9167C36.4286 45.4227 36.8357 45.8333 37.3393 45.8333C37.8429 45.8333 38.25 45.4227 38.25 44.9167C38.25 42.5608 36.037 40.3333 33.6964 40.3333C33.1928 40.3333 32.7857 40.744 32.7857 41.25ZM40.9821 16.5C39.6543 16.5 38.25 15.0865 38.25 13.75C38.25 13.244 37.8429 12.8333 37.3393 12.8333C36.8357 12.8333 36.4286 13.244 36.4286 13.75C36.4286 16.1058 38.6416 18.3333 40.9821 18.3333C41.4858 18.3333 41.8929 17.9227 41.8929 17.4167C41.8929 16.9107 41.4858 16.5 40.9821 16.5ZM30.0536 36.6667C30.5572 36.6667 30.9643 36.256 30.9643 35.75C30.9643 34.4135 32.3686 33 33.6964 33C34.2001 33 34.6071 32.5893 34.6071 32.0833C34.6071 31.5773 34.2001 31.1667 33.6964 31.1667C31.3559 31.1667 29.1429 33.3942 29.1429 35.75C29.1429 36.256 29.5499 36.6667 30.0536 36.6667ZM33.6964 25.6667C34.2001 25.6667 34.6071 25.256 34.6071 24.75C34.6071 24.244 34.2001 23.8333 33.6964 23.8333C32.3686 23.8333 30.9643 22.4198 30.9643 21.0833C30.9643 20.5773 30.5572 20.1667 30.0536 20.1667C29.5499 20.1667 29.1429 20.5773 29.1429 21.0833C29.1429 23.4392 31.3559 25.6667 33.6964 25.6667ZM42.8036 22C42.2999 22 41.8929 22.4107 41.8929 22.9167C41.8929 24.2532 40.4885 25.6667 39.1607 25.6667C38.6571 25.6667 38.25 26.0773 38.25 26.5833C38.25 27.0893 38.6571 27.5 39.1607 27.5C41.5012 27.5 43.7143 25.2725 43.7143 22.9167C43.7143 22.4107 43.3072 22 42.8036 22ZM39.1607 33C38.6571 33 38.25 33.4107 38.25 33.9167C38.25 34.4227 38.6571 34.8333 39.1607 34.8333C40.4885 34.8333 41.8929 36.2468 41.8929 37.5833C41.8929 38.0893 42.2999 38.5 42.8036 38.5C43.3072 38.5 43.7143 38.0893 43.7143 37.5833C43.7143 35.2275 41.5012 33 39.1607 33ZM29.1429 12.8333C29.1429 10.4775 31.3559 8.25 33.6964 8.25C34.2001 8.25 34.6071 8.66067 34.6071 9.16667C34.6071 9.67267 34.2001 10.0833 33.6964 10.0833C32.3686 10.0833 30.9643 11.4968 30.9643 12.8333C30.9643 13.3393 30.5572 13.75 30.0536 13.75C29.5499 13.75 29.1429 13.3393 29.1429 12.8333Z" fill="white"/>
</svg>
