<svg width="55" height="63" viewBox="0 0 55 63" fill="none" xmlns="http://www.w3.org/2000/svg">
<path d="M51.7364 40.2527C51.1689 40.2544 50.6119 40.4053 50.1212 40.6903C49.6304 40.9753 49.2233 41.3843 48.9405 41.8764H45.0957C44.8519 40.4303 44.2829 39.0584 43.4315 37.8643L46.1527 35.1431C46.4224 35.219 46.7007 35.2599 46.9808 35.2649C47.6617 35.2695 48.3269 35.0604 48.8828 34.6672C49.4386 34.2739 49.8572 33.7163 50.0796 33.0727C50.3019 32.4291 50.3169 31.732 50.1224 31.0795C49.9278 30.4269 49.5336 29.8518 48.9951 29.4351C48.4566 29.0184 47.801 28.781 47.1205 28.7563C46.44 28.7317 45.769 28.921 45.2017 29.2977C44.6345 29.6744 44.1997 30.2195 43.9584 30.8562C43.7172 31.4929 43.6817 32.1893 43.8569 32.8473L41.1357 35.5685C39.9416 34.7171 38.5698 34.1481 37.1237 33.9043V30.0595C37.7427 29.7021 38.2266 29.1504 38.5001 28.49C38.7737 27.8295 38.8217 27.0973 38.6366 26.4068C38.4516 25.7163 38.0439 25.1062 37.4768 24.671C36.9097 24.2359 36.2149 24 35.5 24C34.7852 24 34.0903 24.2359 33.5232 24.671C32.9561 25.1062 32.5484 25.7163 32.3634 26.4068C32.1784 27.0973 32.2264 27.8295 32.4999 28.49C32.7735 29.1504 33.2573 29.7021 33.8764 30.0595V33.9043C32.4303 34.1481 31.0584 34.7171 29.8644 35.5685L27.1431 32.8473C27.3136 32.1941 27.2754 31.5038 27.0338 30.8734C26.7923 30.243 26.3595 29.7039 25.7962 29.3319C25.2328 28.9598 24.5672 28.7733 23.8925 28.7986C23.2179 28.8239 22.5681 29.0596 22.0342 29.4728C21.5002 29.886 21.109 30.4559 20.9153 31.1027C20.7216 31.7494 20.7352 32.4406 20.9541 33.0792C21.1729 33.7179 21.5862 34.272 22.1359 34.664C22.6856 35.0559 23.3441 35.2661 24.0192 35.2649C24.2993 35.2599 24.5776 35.219 24.8473 35.1431L27.5685 37.8643C26.7171 39.0584 26.1481 40.4303 25.9043 41.8764H22.0595C21.7021 41.2573 21.1504 40.7735 20.49 40.4999C19.8295 40.2263 19.0973 40.1784 18.4068 40.3634C17.7163 40.5484 17.1062 40.9561 16.671 41.5232C16.2359 42.0903 16 42.7852 16 43.5C16 44.2148 16.2359 44.9097 16.671 45.4768C17.1062 46.0439 17.7163 46.4516 18.4068 46.6366C19.0973 46.8216 19.8295 46.7737 20.49 46.5001C21.1504 46.2265 21.7021 45.7427 22.0595 45.1236H25.9043C26.1481 46.5697 26.7171 47.9416 27.5685 49.1357L24.8473 51.8569C24.2997 51.7088 23.7228 51.7074 23.1745 51.8528C22.6262 51.9981 22.1258 52.2851 21.7234 52.6849C21.318 53.0868 21.0257 53.5884 20.8759 54.1392C20.7261 54.69 20.7241 55.2706 20.8703 55.8224C21.0164 56.3743 21.3053 56.8778 21.7081 57.2823C22.1108 57.6869 22.6131 57.9781 23.1642 58.1267C23.7154 58.2752 24.296 58.2759 24.8475 58.1285C25.399 57.9812 25.9019 57.6911 26.3055 57.2875C26.7092 56.8838 26.9993 56.3809 27.1466 55.8294C27.294 55.278 27.2933 54.6974 27.1448 54.1462L29.866 51.425C31.059 52.2785 32.4303 52.8497 33.8764 53.0957V56.9405C33.2573 57.2979 32.7735 57.8496 32.4999 58.51C32.2264 59.1705 32.1784 59.9027 32.3634 60.5932C32.5484 61.2837 32.9561 61.8938 33.5232 62.329C34.0903 62.7641 34.7852 63 35.5 63C36.2149 63 36.9097 62.7641 37.4768 62.329C38.0439 61.8938 38.4516 61.2837 38.6366 60.5932C38.8217 59.9027 38.7737 59.1705 38.5001 58.51C38.2266 57.8496 37.7427 57.2979 37.1237 56.9405V53.0957C38.5698 52.8519 39.9416 52.2829 41.1357 51.4315L43.8569 54.1527C43.6718 54.8432 43.7198 55.5755 43.9933 56.2359C44.2668 56.8964 44.7506 57.4481 45.3697 57.8056C45.9888 58.163 46.7085 58.3062 47.4172 58.2129C48.126 58.1196 48.7841 57.7951 49.2896 57.2896C49.7951 56.7841 50.1197 56.126 50.213 55.4172C50.3063 54.7085 50.1631 53.9887 49.8056 53.3697C49.4482 52.7506 48.8964 52.2668 48.2359 51.9933C47.5755 51.7197 46.8432 51.6718 46.1527 51.8569L43.4315 49.1357C44.2829 47.9416 44.8519 46.5697 45.0957 45.1236H48.9405C49.2259 45.6179 49.6365 46.0282 50.1309 46.3132C50.6253 46.5983 51.1861 46.748 51.7568 46.7472C52.3275 46.7465 52.888 46.5954 53.3817 46.3091C53.8754 46.0228 54.2849 45.6115 54.569 45.1165C54.8531 44.6216 55.0018 44.0605 55 43.4898C54.9982 42.9191 54.846 42.3589 54.5588 41.8657C54.2716 41.3726 53.8595 40.9638 53.364 40.6806C52.8685 40.3975 52.3071 40.2499 51.7364 40.2527ZM39.8952 45.5994L37.5994 47.8952L38.7781 49.074C37.7907 49.6761 36.6565 49.9946 35.5 49.9946C34.3435 49.9946 33.2093 49.6761 32.2219 49.074L33.4007 47.8952L31.1048 45.5994L29.9261 46.7781C29.3239 45.7907 29.0054 44.6565 29.0054 43.5C29.0054 42.3435 29.3239 41.2093 29.9261 40.2219L31.1048 41.4006L33.4007 39.1048L32.2219 37.926C33.2093 37.3239 34.3435 37.0054 35.5 37.0054C36.6565 37.0054 37.7907 37.3239 38.7781 37.926L37.5994 39.1048L39.8952 41.4006L41.074 40.2219C41.6761 41.2093 41.9946 42.3435 41.9946 43.5C41.9946 44.6565 41.6761 45.7907 41.074 46.7781L39.8952 45.5994Z" fill="white"/>
<path d="M16.7194 19.1434L19.2737 21.6977L21.6977 19.2737L19.1434 16.7194C19.7517 15.8079 20.1783 14.7875 20.4 13.7143H24V10.2857H20.4C20.1789 9.21262 19.7528 8.19226 19.1451 7.28057L21.6994 4.72629L19.2754 2.30229L16.7211 4.85657C15.8092 4.2478 14.7882 3.82111 13.7143 3.6V0H10.2857V3.6C9.21252 3.8208 8.1921 4.24689 7.28057 4.85486L4.72629 2.30057L2.30229 4.72457L4.85657 7.27886C4.24811 8.19094 3.82144 9.2119 3.6 10.2857H0V13.7143H3.6C3.82113 14.7874 4.2472 15.8077 4.85486 16.7194L2.30057 19.2737L4.72457 21.6977L7.27886 19.1434C8.19077 19.7522 9.2118 20.1789 10.2857 20.4V24H13.7143V20.4C14.7876 20.1787 15.808 19.752 16.7194 19.1434ZM6.85714 12C6.85714 10.9828 7.15876 9.98852 7.72387 9.14278C8.28897 8.29704 9.09218 7.63787 10.0319 7.24862C10.9716 6.85937 12.0057 6.75752 13.0033 6.95596C14.0009 7.1544 14.9173 7.64421 15.6365 8.36345C16.3558 9.08269 16.8456 9.99906 17.044 10.9967C17.2425 11.9943 17.1406 13.0284 16.7514 13.9681C16.3621 14.9078 15.703 15.711 14.8572 16.2761C14.0115 16.8412 13.0172 17.1429 12 17.1429C10.636 17.1429 9.32792 16.601 8.36345 15.6365C7.39898 14.6721 6.85714 13.364 6.85714 12Z" fill="white"/>
</svg>
