<svg width="43" height="43" viewBox="0 0 43 43" fill="none" xmlns="http://www.w3.org/2000/svg">
<g clip-path="url(#clip0_1_167)">
<path d="M17.3461 0C8.15012 0 0.693848 7.45634 0.693848 16.6523C0.693848 25.8483 8.15012 33.3046 17.3461 33.3046C20.8823 33.3046 24.1618 32.2015 26.8575 30.3227L39.4505 42.9138C39.5641 43.0275 39.7482 43.0275 39.856 42.9216L42.2285 40.5492C42.3382 40.4395 42.3285 40.2514 42.2207 40.1436L29.7921 27.7151C32.4095 24.7746 33.9983 20.8995 33.9983 16.6522C33.9984 7.45634 26.5421 0 17.3461 0ZM17.3461 31.3454C9.23158 31.3454 2.65292 24.7668 2.65292 16.6523C2.65292 8.53773 9.23151 1.95914 17.3461 1.95914C25.4607 1.95914 32.0392 8.53773 32.0392 16.6523C32.0392 24.7668 25.4606 31.3454 17.3461 31.3454Z" fill="white"/>
</g>
<defs>
<clipPath id="clip0_1_167">
<rect width="43" height="43" fill="white"/>
</clipPath>
</defs>
</svg>
