<?xml version="1.0" encoding="utf-8"?>
<!-- Generator: Adobe Illustrator 16.0.0, SVG Export Plug-In . SVG Version: 6.00 Build 0)  -->
<!DOCTYPE svg PUBLIC "-//W3C//DTD SVG 1.1//EN" "http://www.w3.org/Graphics/SVG/1.1/DTD/svg11.dtd">
<svg version="1.1" id="Layer_1" xmlns="http://www.w3.org/2000/svg" xmlns:xlink="http://www.w3.org/1999/xlink" x="0px" y="0px"
	 width="200px" height="200px" viewBox="0 0 200 200" enable-background="new 0 0 200 200" xml:space="preserve">
<ellipse fill="#FFFFFF" stroke="#F3F3F3" stroke-width="10" stroke-miterlimit="10" cx="100.5" cy="99.875" rx="93.436" ry="94.085"/>
<g>
	<g>
		<circle fill="#F24976" cx="99.262" cy="99.926" r="68.048"/>
		<path fill="#D9EAFC" d="M46.629,54.653v40.394v48.158c12.479,15.211,31.422,24.916,52.633,24.916s40.152-9.705,52.633-24.917
			V54.653H50.223"/>
		<path fill="#C3DDF4" d="M51.754,54.746h-5.125v88.459c1.717,2.093,3.561,4.077,5.512,5.95V55.117
			C52.141,54.768,51.907,54.746,51.754,54.746z"/>
		<path fill="#52BBEF" d="M143.797,60.607H64.68c0.008,0.018,0.012,0.038,0.022,0.053c0.052,0.071-10.81-0.053-10.81-0.053v51.499
			c0,0.459,0.375,0.834,0.832,0.834h89.07c0.459,0,0.834-0.375,0.834-0.834V61.441C144.63,60.982,144.255,60.607,143.797,60.607z"/>
		<g>
			<path fill="#EEF6FF" d="M127.409,155.268c0,0.457-0.375,0.834-0.833,0.834H71.945c-0.459,0-0.834-0.377-0.834-0.834v-4
				c0-0.459,0.375-0.834,0.834-0.834h54.631c0.458,0,0.833,0.375,0.833,0.834V155.268L127.409,155.268z"/>
		</g>
		<path fill="#293D7C" d="M149.344,41.138H49.137c-1.484,0-2.394,0.812-2.394,2.267l-0.114,11.526h105.266V43.687
			C151.895,42.284,150.746,41.138,149.344,41.138z"/>
		<path fill="#FE3745" d="M133.714,49.68c-0.435,0-0.856-0.176-1.164-0.48c-0.306-0.307-0.479-0.73-0.479-1.165
			c0-0.433,0.176-0.855,0.479-1.163c0.308-0.308,0.729-0.483,1.164-0.483c0.433,0,0.858,0.175,1.163,0.483
			c0.307,0.307,0.482,0.73,0.482,1.163c0,0.434-0.176,0.857-0.482,1.165C134.572,49.504,134.146,49.68,133.714,49.68z"/>
		<path fill="#FFAF10" d="M139.109,49.68c-0.433,0-0.857-0.176-1.162-0.482c-0.309-0.305-0.482-0.729-0.482-1.163
			c0-0.433,0.176-0.855,0.482-1.163s0.729-0.483,1.162-0.483c0.435,0,0.856,0.175,1.164,0.483c0.306,0.307,0.48,0.73,0.48,1.163
			c0,0.432-0.176,0.857-0.48,1.163C139.967,49.504,139.544,49.68,139.109,49.68z"/>
		<path fill="#02AF8E" d="M144.507,49.68c-0.435,0-0.856-0.176-1.161-0.48c-0.309-0.307-0.484-0.73-0.484-1.165
			c0-0.433,0.177-0.855,0.484-1.163c0.305-0.308,0.728-0.483,1.161-0.483c0.433,0,0.856,0.175,1.163,0.483
			c0.307,0.307,0.48,0.73,0.48,1.163c0,0.434-0.174,0.857-0.48,1.165C145.361,49.504,144.939,49.68,144.507,49.68z"/>
	</g>
	<g>
		<path fill="#FFFFFF" d="M111.917,142.769c0,0.459-0.375,0.834-0.832,0.834H84.432c-0.458,0-0.833-0.375-0.833-0.834v-21.877
			c0-0.457,0.375-0.832,0.833-0.832h26.651c0.459,0,0.834,0.375,0.834,0.832V142.769L111.917,142.769z"/>
		<path fill="#FFFFFF" d="M144.693,142.769c0,0.459-0.375,0.834-0.833,0.834h-26.652c-0.459,0-0.834-0.375-0.834-0.834v-21.877
			c0-0.457,0.375-0.832,0.834-0.832h26.652c0.458,0,0.833,0.375,0.833,0.832V142.769z"/>
	</g>
	<g>
		<path fill="#EEF6FF" d="M89.11,142.769v-21.877c0-0.457,0.374-0.832,0.833-0.832h-5.512c-0.458,0-0.833,0.375-0.833,0.832v21.877
			c0,0.459,0.375,0.834,0.833,0.834h5.512C89.484,143.603,89.11,143.228,89.11,142.769z"/>
		<path fill="#EEF6FF" d="M121.884,142.769v-21.877c0-0.457,0.375-0.832,0.834-0.832h-5.512c-0.457,0-0.832,0.375-0.832,0.832
			v21.877c0,0.459,0.375,0.834,0.832,0.834h5.512C122.259,143.603,121.884,143.228,121.884,142.769z"/>
	</g>
	<g>
		<path fill="#445EA0" d="M77.227,124.394H55.91c-1.15,0-2.082-0.933-2.082-2.082c0-1.15,0.932-2.084,2.082-2.084h21.316
			c1.15,0,2.083,0.934,2.083,2.084C79.31,123.461,78.377,124.394,77.227,124.394z"/>
		<path fill="#445EA0" d="M77.227,130.771H55.91c-1.15,0-2.082-0.933-2.082-2.082c0-1.151,0.932-2.084,2.082-2.084h21.316
			c1.15,0,2.083,0.933,2.083,2.084C79.31,129.838,78.377,130.771,77.227,130.771z"/>
		<path fill="#445EA0" d="M77.227,137.147H55.91c-1.15,0-2.082-0.934-2.082-2.084c0-1.149,0.932-2.082,2.082-2.082h21.316
			c1.15,0,2.083,0.933,2.083,2.082C79.31,136.214,78.377,137.147,77.227,137.147z"/>
		<path fill="#445EA0" d="M66.611,143.522H55.91c-1.15,0-2.082-0.934-2.082-2.084c0-1.149,0.932-2.082,2.082-2.082h10.701
			c1.15,0,2.083,0.933,2.083,2.082C68.694,142.589,67.762,143.522,66.611,143.522z"/>
	</g>
	<g>
		<path fill="#FFFFFF" d="M105.617,72.241l-1.132,0.345c-0.128-0.471-0.315-0.912-0.535-1.352c-0.818-1.542-1.983-2.36-3.398-2.36
			c-0.092,0-0.188,0-0.282,0.032c-0.032-0.063-0.095-0.094-0.126-0.158c-0.63-0.661-1.416-0.976-2.36-0.976
			c-1.856,0.063-3.681,1.385-5.159,3.743c-1.039,1.668-1.856,3.744-2.076,5.379l-3.618,1.134c-1.069,0.345-1.101,0.377-1.227,1.384
			c-0.094,0.755-2.894,22.363-2.894,22.363l23.181,3.997V72.211C105.807,72.211,105.711,72.211,105.617,72.241z M100.27,73.909
			l-3.901,1.227c0.377-1.447,1.1-2.894,1.983-3.837c0.313-0.346,0.785-0.754,1.319-0.976
			C100.175,71.392,100.27,72.871,100.27,73.909z M97.752,69.032c0.378-0.031,0.787,0.094,1.101,0.284
			c-0.534,0.282-1.006,0.66-1.415,1.1c-1.166,1.258-2.076,3.209-2.423,5.096l-3.239,1.007
			C92.437,73.563,94.892,69.127,97.752,69.032z M94.168,85.893c0.125,1.982,5.316,2.391,5.599,7.015
			c0.221,3.649-1.918,6.134-5.032,6.323c-3.743,0.252-5.787-1.95-5.787-1.95l0.787-3.367c0,0,2.074,1.573,3.712,1.447
			c1.068-0.062,1.478-0.944,1.416-1.572c-0.158-2.58-4.373-2.421-4.657-6.639c-0.22-3.552,2.109-7.171,7.267-7.485
			c1.981-0.126,2.989,0.377,2.989,0.377l-1.165,4.405c0,0-1.321-0.598-2.863-0.504C94.168,84.101,94.137,85.547,94.168,85.893z
			 M101.495,73.531c0-0.944-0.124-2.233-0.565-3.366c1.385,0.251,2.076,1.856,2.391,2.799
			C103.289,72.965,101.495,73.531,101.495,73.531z"/>
		<path fill="#D9EAFC" d="M105.961,105.773l9.75-2.422c0,0-4.206-28.359-4.206-28.55c-0.032-0.159-0.159-0.287-0.351-0.319
			c-0.126,0-2.867-0.063-2.867-0.063s-1.655-1.625-2.295-2.231v33.585H105.961z"/>
	</g>
</g>
</svg>
