<?xml version="1.0" encoding="utf-8"?>
<!-- Generator: Adobe Illustrator 16.0.0, SVG Export Plug-In . SVG Version: 6.00 Build 0)  -->
<!DOCTYPE svg PUBLIC "-//W3C//DTD SVG 1.1//EN" "http://www.w3.org/Graphics/SVG/1.1/DTD/svg11.dtd">
<svg version="1.1" id="Layer_1" xmlns="http://www.w3.org/2000/svg" xmlns:xlink="http://www.w3.org/1999/xlink" x="0px" y="0px"
	 width="436.442px" height="504.072px" viewBox="3.932 3.466 436.442 504.072" enable-background="new 3.932 3.466 436.442 504.072"
	 xml:space="preserve">
<path fill="#F76724" d="M3.932,129.484v252.033l218.223,126.021l218.219-126.021V129.484L222.155,3.466L3.932,129.484z
	 M416.413,367.685L222.155,479.865L27.893,367.685V143.318L222.155,31.138l194.258,112.181V367.685z"/>
<polygon fill="#F76724" points="152.49,215.229 135.543,198.283 78.328,255.502 135.543,312.718 152.489,295.775 112.213,255.502 
	"/>
<polygon fill="#F76724" points="308.763,312.718 365.981,255.502 308.763,198.283 291.82,215.229 332.093,255.502 291.82,295.775 
	"/>
<rect x="146.303" y="243.514" transform="matrix(-0.4472 0.8944 -0.8944 -0.4472 550.0183 171.0494)" fill="#F76724" width="151.696" height="23.956"/>
</svg>
