<?xml version="1.0" encoding="utf-8"?>
<!-- Generator: Adobe Illustrator 16.0.0, SVG Export Plug-In . SVG Version: 6.00 Build 0)  -->
<!DOCTYPE svg PUBLIC "-//W3C//DTD SVG 1.1//EN" "http://www.w3.org/Graphics/SVG/1.1/DTD/svg11.dtd">
<svg version="1.1" id="Layer_1" xmlns="http://www.w3.org/2000/svg" xmlns:xlink="http://www.w3.org/1999/xlink" x="0px" y="0px"
	 width="501px" height="428.117px" viewBox="5.5 6.5 501 428.117" enable-background="new 5.5 6.5 501 428.117"
	 xml:space="preserve">
<path fill="#1184BF" d="M123.173,54.567c-0.082-0.381-0.18-0.772-0.291-1.146c-0.092-0.305-0.215-0.644-0.375-1.026
	c-0.146-0.373-0.292-0.684-0.476-1.026c-0.181-0.338-0.385-0.677-0.591-0.991c-0.188-0.272-0.419-0.598-0.667-0.902
	c-0.26-0.315-0.497-0.577-0.711-0.784c-0.323-0.326-0.578-0.556-0.834-0.758l-0.085-0.069c-0.267-0.225-0.564-0.447-0.86-0.644
	c-0.31-0.204-0.643-0.4-0.981-0.582c-0.295-0.158-0.635-0.318-1.04-0.489c-0.337-0.136-0.696-0.263-1.012-0.357
	c-0.387-0.125-0.72-0.208-1.105-0.284c-0.364-0.074-0.741-0.13-1.146-0.173c-0.353-0.035-0.732-0.054-1.107-0.054
	s-0.754,0.019-1.128,0.056c-0.396,0.041-0.774,0.097-1.11,0.166c-0.401,0.081-0.735,0.166-1.034,0.262l-0.109,0.034
	c-0.29,0.083-0.615,0.2-1.056,0.375c-0.281,0.121-0.636,0.282-0.974,0.464c-0.373,0.2-0.699,0.393-0.968,0.573
	c-0.303,0.199-0.6,0.421-0.908,0.675c-0.323,0.26-0.582,0.494-0.8,0.721l-0.084,0.084c-0.214,0.207-0.451,0.469-0.725,0.8
	c-0.241,0.296-0.466,0.6-0.654,0.887c-0.203,0.301-0.388,0.612-0.59,0.99c-0.171,0.318-0.328,0.652-0.481,1.02
	c-0.124,0.311-0.262,0.673-0.372,1.042c-0.124,0.386-0.208,0.72-0.272,1.061c-0.079,0.377-0.13,0.727-0.177,1.174
	c-0.042,0.412-0.063,0.776-0.063,1.111c0,0.336,0.021,0.711,0.063,1.114c0.042,0.403,0.099,0.78,0.167,1.118
	c0.074,0.388,0.161,0.734,0.269,1.078c0.119,0.387,0.258,0.767,0.402,1.128c0.131,0.313,0.294,0.657,0.464,0.974
	c0.182,0.338,0.378,0.671,0.59,0.994c0.184,0.279,0.401,0.57,0.645,0.864c0.284,0.344,0.535,0.623,0.776,0.864
	c0.268,0.273,0.531,0.513,0.812,0.738c0.304,0.248,0.607,0.47,0.913,0.671c0.33,0.221,0.665,0.421,0.994,0.598
	c0.323,0.173,0.65,0.327,0.974,0.456c0.408,0.173,0.747,0.295,1.081,0.395c0.38,0.114,0.761,0.21,1.134,0.288
	c0.333,0.07,0.694,0.124,1.082,0.161c0.717,0.074,1.593,0.07,2.255,0.002c0.402-0.039,0.76-0.093,1.085-0.162
	c0.4-0.082,0.777-0.176,1.147-0.288c0.35-0.107,0.702-0.234,1.002-0.363c0.411-0.165,0.737-0.317,1.06-0.49
	c0.339-0.182,0.67-0.386,0.994-0.598c0.316-0.21,0.611-0.427,0.864-0.637c0.314-0.25,0.566-0.478,0.86-0.772
	c0.256-0.256,0.51-0.538,0.753-0.837c0.215-0.258,0.423-0.538,0.674-0.901c0.204-0.32,0.405-0.649,0.584-0.984
	c0.173-0.323,0.327-0.65,0.456-0.974c0.166-0.397,0.298-0.764,0.404-1.108c0.104-0.353,0.199-0.743,0.281-1.13
	c0.063-0.294,0.114-0.643,0.162-1.091c0.033-0.323,0.051-0.698,0.051-1.109c0-0.411-0.017-0.775-0.052-1.113
	C123.289,55.219,123.237,54.87,123.173,54.567z"/>
<path fill="#1184BF" d="M75.172,54.545c-0.079-0.37-0.179-0.756-0.292-1.146c-0.085-0.283-0.208-0.622-0.368-1.003
	c-0.149-0.374-0.298-0.691-0.476-1.022c-0.169-0.318-0.366-0.645-0.576-0.955c-0.237-0.36-0.461-0.668-0.693-0.956
	c-0.249-0.301-0.485-0.563-0.7-0.77c-0.321-0.321-0.62-0.586-0.925-0.844c-0.219-0.173-0.535-0.411-0.855-0.624
	c-0.311-0.207-0.631-0.397-0.959-0.57c-0.36-0.193-0.718-0.358-1.072-0.509c-0.286-0.113-0.66-0.248-1.028-0.36
	c-0.371-0.117-0.713-0.203-1.051-0.267c-0.404-0.084-0.762-0.139-1.174-0.183c-0.705-0.07-1.492-0.072-2.233,0.002
	c-0.401,0.042-0.76,0.096-1.085,0.165c-0.403,0.077-0.736,0.161-1.097,0.274c-0.412,0.124-0.774,0.257-1.128,0.398
	c-0.281,0.121-0.635,0.286-0.974,0.468c-0.375,0.198-0.687,0.382-0.949,0.56c-0.355,0.234-0.661,0.465-0.954,0.692
	c-0.328,0.279-0.581,0.511-0.792,0.727c-0.29,0.284-0.532,0.553-0.777,0.853c-0.267,0.331-0.489,0.631-0.668,0.904
	c-0.202,0.3-0.39,0.617-0.584,0.982c-0.193,0.361-0.352,0.693-0.491,1.028c-0.124,0.311-0.258,0.673-0.368,1.042
	c-0.126,0.404-0.211,0.736-0.271,1.059c-0.081,0.386-0.132,0.733-0.178,1.176c-0.042,0.412-0.063,0.776-0.063,1.111
	c0,3.023,1.23,5.988,3.375,8.136c0.254,0.26,0.523,0.502,0.824,0.748c0.277,0.227,0.581,0.448,0.903,0.66
	c0.339,0.229,0.669,0.428,0.994,0.602c0.318,0.168,0.653,0.324,0.974,0.452c0.407,0.172,0.748,0.296,1.085,0.397
	c0.365,0.109,0.734,0.205,1.113,0.282c0.352,0.074,0.711,0.128,1.123,0.171c0.707,0.068,1.503,0.069,2.258-0.003
	c0.376-0.04,0.734-0.094,1.058-0.163c0.4-0.082,0.777-0.176,1.147-0.288c0.346-0.105,0.692-0.23,1.013-0.367
	c0.398-0.161,0.744-0.321,1.072-0.494c0.317-0.17,0.648-0.378,0.972-0.59c0.336-0.223,0.617-0.43,0.848-0.624
	c0.343-0.28,0.624-0.532,0.877-0.786c0.257-0.257,0.504-0.532,0.756-0.84c0.224-0.267,0.433-0.553,0.654-0.888
	c0.212-0.324,0.42-0.652,0.602-0.99c0.157-0.292,0.313-0.629,0.466-1.002c0.159-0.381,0.291-0.745,0.392-1.076
	c0.1-0.343,0.199-0.738,0.283-1.132c0.063-0.311,0.12-0.688,0.163-1.093c0.033-0.325,0.051-0.702,0.051-1.113
	c0-0.411-0.017-0.775-0.052-1.113C75.297,55.261,75.241,54.884,75.172,54.545z"/>
<path fill="#1184BF" d="M172.169,54.567c-0.081-0.378-0.174-0.758-0.288-1.136c-0.101-0.337-0.225-0.678-0.367-1.013
	c-0.162-0.401-0.319-0.739-0.486-1.05c-0.166-0.313-0.36-0.639-0.591-0.991c-0.232-0.343-0.448-0.637-0.654-0.886
	c-0.259-0.317-0.501-0.586-0.735-0.814c-0.28-0.288-0.537-0.52-0.854-0.777c-0.331-0.271-0.625-0.489-0.903-0.672
	c-0.3-0.202-0.617-0.39-0.982-0.584c-0.35-0.188-0.704-0.349-1.058-0.5c-0.369-0.146-0.695-0.263-0.987-0.348
	c-0.47-0.14-0.821-0.23-1.123-0.29c-0.369-0.074-0.739-0.129-1.139-0.17c-0.36-0.036-0.738-0.055-1.114-0.055
	c-0.376,0-0.756,0.019-1.129,0.056c-0.396,0.041-0.766,0.096-1.116,0.167c-0.308,0.062-0.66,0.152-1.112,0.287
	c-0.31,0.09-0.636,0.207-1.077,0.383c-0.295,0.125-0.647,0.288-0.989,0.47c-0.366,0.197-0.677,0.381-0.939,0.559
	c-0.329,0.217-0.627,0.438-0.925,0.684c-0.333,0.271-0.59,0.503-0.8,0.721l-0.084,0.084c-0.218,0.21-0.449,0.467-0.707,0.784
	c-0.245,0.297-0.471,0.602-0.685,0.922c-0.19,0.282-0.375,0.593-0.578,0.971c-0.171,0.324-0.339,0.688-0.494,1.05
	c-0.146,0.369-0.263,0.695-0.348,0.987l-0.031,0.102c-0.101,0.31-0.182,0.632-0.249,0.984c-0.083,0.398-0.138,0.757-0.181,1.175
	c-0.04,0.386-0.06,0.75-0.06,1.11c0,0.361,0.02,0.736,0.06,1.115c0.042,0.409,0.097,0.767,0.166,1.091
	c0.083,0.435,0.167,0.773,0.266,1.08c0.127,0.412,0.262,0.792,0.407,1.153c0.121,0.281,0.282,0.635,0.464,0.974
	s0.378,0.671,0.59,0.994c0.194,0.291,0.412,0.583,0.635,0.848c0.279,0.342,0.536,0.628,0.8,0.895
	c0.242,0.248,0.511,0.491,0.811,0.735c0.292,0.235,0.6,0.46,0.904,0.66c0.33,0.223,0.659,0.421,0.99,0.598
	c0.331,0.176,0.661,0.33,0.968,0.452c0.417,0.176,0.758,0.3,1.095,0.401c0.37,0.11,0.751,0.208,1.126,0.286
	c0.333,0.07,0.694,0.124,1.082,0.161c0.72,0.074,1.599,0.07,2.252,0.002c0.409-0.039,0.763-0.092,1.11-0.164
	c0.381-0.079,0.76-0.175,1.137-0.287c0.329-0.099,0.67-0.223,1.005-0.365c0.396-0.159,0.723-0.313,1.046-0.486
	c0.327-0.173,0.648-0.367,0.968-0.581c0.329-0.217,0.638-0.442,0.942-0.688c0.287-0.234,0.556-0.476,0.784-0.71
	c0.278-0.281,0.535-0.567,0.777-0.865c0.237-0.282,0.445-0.563,0.693-0.93c0.159-0.251,0.372-0.589,0.553-0.934
	c0.185-0.345,0.338-0.672,0.468-0.996c0.161-0.381,0.291-0.739,0.404-1.108c0.104-0.353,0.199-0.743,0.281-1.13
	c0.067-0.317,0.121-0.677,0.159-1.063c0.036-0.351,0.054-0.726,0.054-1.137c0-0.411-0.017-0.775-0.052-1.113
	C172.292,55.251,172.238,54.891,172.169,54.567z"/>
<path fill="#1184BF" d="M493.305,6.5H18.695C11.419,6.5,5.5,12.419,5.5,19.695v401.727c0,7.276,5.919,13.195,13.195,13.195h474.609
	c7.276,0,13.195-5.919,13.195-13.195V19.695C506.5,12.419,500.581,6.5,493.305,6.5z M24.5,25.5h463v33.389l-180.861,0.439
	c-3.293,0.008-6.437,1.251-8.851,3.5l-26.253,24.503H24.5V25.5z M487.504,415.617H24.5V106.328h249.402
	c3.308,0,6.458-1.242,8.871-3.496l26.265-24.511l178.466-0.437V415.617z"/>
<path fill="#1184BF" d="M189.471,193.039c-1.813-1.922-4.269-2.98-6.915-2.98c-2.431,0-4.744,0.919-6.514,2.587l-63.227,59.613
	c-2.027,1.916-3.191,4.62-3.191,7.417c0.002,2.791,1.169,5.492,3.202,7.408l63.215,59.605c1.771,1.669,4.084,2.588,6.512,2.588
	c2.644,0,5.101-1.061,6.918-2.986c1.74-1.844,2.656-4.255,2.582-6.791c-0.075-2.538-1.133-4.894-2.98-6.635l-56.42-53.197
	l56.42-53.197c1.848-1.742,2.906-4.098,2.981-6.635C192.13,197.299,191.212,194.886,189.471,193.039z"/>
<path fill="#1184BF" d="M224.741,328.456c1.229,0.548,2.526,0.825,3.856,0.825c3.75,0,7.161-2.214,8.687-5.64l53.535-120.219
	c2.131-4.784-0.029-10.411-4.815-12.543c-1.23-0.548-2.528-0.826-3.857-0.826c-3.75,0-7.159,2.214-8.685,5.641l-53.535,120.219
	C217.796,320.698,219.956,326.325,224.741,328.456z"/>
<path fill="#1184BF" d="M379.345,259.668l-56.419,53.197c-1.843,1.737-2.899,4.094-2.975,6.633c-0.074,2.54,0.841,4.953,2.578,6.795
	c1.815,1.925,4.271,2.984,6.916,2.984c2.428,0,4.741-0.92,6.514-2.59l63.213-59.604c2.033-1.917,3.2-4.618,3.203-7.413
	c0-2.793-1.168-5.499-3.205-7.421l-63.213-59.604c-1.77-1.668-4.082-2.587-6.514-2.587c-2.645,0-5.101,1.059-6.916,2.981
	c-1.739,1.845-2.656,4.258-2.582,6.795c0.075,2.536,1.133,4.891,2.979,6.63L379.345,259.668z"/>
</svg>
