<?xml version="1.0" encoding="utf-8"?>
<!-- Generator: Adobe Illustrator 16.0.0, SVG Export Plug-In . SVG Version: 6.00 Build 0)  -->
<!DOCTYPE svg PUBLIC "-//W3C//DTD SVG 1.1//EN" "http://www.w3.org/Graphics/SVG/1.1/DTD/svg11.dtd">
<svg version="1.1" id="Capa_1" xmlns="http://www.w3.org/2000/svg" xmlns:xlink="http://www.w3.org/1999/xlink" x="0px" y="0px"
	 width="504.734px" height="505px" viewBox="3.612 3.5 504.734 505" enable-background="new 3.612 3.5 504.734 505"
	 xml:space="preserve">
<g>
	<path fill="#1184BF" d="M496.001,6.835C484.654,4.622,472.612,3.5,460.211,3.5c-65.949,0-141.812,31.237-208.137,85.701
		l-1.732,1.423l-2.017-0.979c-15.226-7.39-32.325-11.297-49.451-11.297c-5.322,0-10.667,0.38-15.884,1.129
		c-24.166,3.47-46.051,14.417-63.29,31.655l-96.876,96.876c-3.132,3.131-4.189,7.847-2.691,12.014
		c1.497,4.169,5.313,7.135,9.721,7.559l103.436,9.939l-2.107,4.495c-1.857,3.961-3.59,7.821-5.15,11.474
		c-7.453,17.441-3.752,36.605,9.657,50.016l72.726,72.725c8.679,8.679,19.976,13.459,31.81,13.459c6.181,0,12.305-1.278,18.204-3.8
		c3.761-1.607,7.675-3.365,11.634-5.227l4.498-2.113l9.966,103.704c0.424,4.407,3.39,8.223,7.558,9.72
		c1.251,0.449,2.559,0.677,3.884,0.677c3.071,0,5.959-1.196,8.131-3.367l96.877-96.876c33.946-33.948,42.537-85.73,21.378-128.854
		l-0.992-2.023l1.431-1.74c64.729-78.787,96.263-172.232,82.294-243.87C504.185,11.3,500.619,7.735,496.001,6.835z M56.322,207.027
		l79.635-79.636c16.5-16.5,39.599-25.963,63.375-25.963c8.993,0,17.871,1.329,26.385,3.95l5.725,1.762l-4.346,4.123
		c-3.094,2.935-6.093,5.854-8.915,8.675c-28.717,28.716-53.004,60.222-72.187,93.641l-1.124,1.958L56.322,207.027z M274.59,352.75
		c-8.345,4.382-16.822,8.419-25.197,11.998c-2.956,1.263-6.002,1.902-9.057,1.902c-5.793,0-11.356-2.371-15.664-6.677
		l-72.725-72.726c-6.727-6.729-8.512-15.97-4.774-24.721c3.582-8.379,7.618-16.856,11.998-25.197l2.211-4.21l117.419,117.419
		L274.59,352.75z M384.717,376.148l-79.638,79.637l-8.535-88.828l1.956-1.124c33.362-19.169,64.814-43.426,93.483-72.095
		c2.694-2.694,5.492-5.576,8.805-9.07l4.083-4.307l1.794,5.657C416.785,317.955,408.376,352.491,384.717,376.148z M463.287,150.614
		c-15.075,35.355-37.635,70.926-65.241,102.868c-7.074,8.185-14.584,16.258-22.322,23.997c-22.893,22.895-47.8,42.936-74.029,59.569
		l-2.367,1.501L173.37,212.592l1.501-2.367c16.636-26.233,36.678-51.14,59.569-74.03c38.241-38.241,82.081-68.548,126.78-87.644
		l2.177-0.93l100.817,100.818L463.287,150.614z M474.77,119.194l-1.695,5.586l-86.025-86.024l5.586-1.696
		c23.261-7.062,45.773-10.643,66.912-10.643c7.362,0,14.629,0.443,21.597,1.316l2.701,0.338l0.337,2.702
		C487.544,57.801,484.378,87.55,474.77,119.194z"/>
	<path fill="#1184BF" d="M285.262,181.217c0,12.159,4.721,23.576,13.293,32.148c8.588,8.587,20.005,13.317,32.149,13.317
		c12.144,0,23.561-4.729,32.148-13.317c17.727-17.727,17.727-46.57,0-64.297c-8.573-8.572-19.99-13.293-32.149-13.293
		s-23.576,4.721-32.148,13.293C289.982,157.641,285.262,169.058,285.262,181.217z M314.813,165.327
		c4.238-4.239,9.882-6.573,15.89-6.573c6.009,0,11.652,2.334,15.891,6.573c8.76,8.762,8.76,23.019,0.001,31.781
		c-4.246,4.245-9.89,6.582-15.891,6.582c-6.003,0-11.646-2.337-15.891-6.582C306.053,188.345,306.053,174.088,314.813,165.327z"/>
	<path fill="#1184BF" d="M144.131,367.975c-2.171-2.172-5.058-3.368-8.129-3.368s-5.958,1.196-8.129,3.368L6.974,488.873
		c-4.482,4.482-4.482,11.777,0,16.26c2.171,2.171,5.059,3.367,8.128,3.367c3.071,0,5.958-1.195,8.128-3.367L144.13,384.233
		c2.172-2.172,3.369-5.059,3.369-8.13C147.499,373.033,146.303,370.146,144.131,367.975z"/>
	<path fill="#1184BF" d="M96.092,336.194c4.482-4.482,4.482-11.776,0-16.259c-2.17-2.171-5.056-3.367-8.127-3.367
		c-3.071,0-5.959,1.196-8.132,3.368L39,360.768c-4.482,4.482-4.482,11.777,0,16.26c2.171,2.171,5.058,3.367,8.128,3.367
		c3.072-0.001,5.96-1.196,8.13-3.367L96.092,336.194z"/>
	<path fill="#1184BF" d="M184.042,412.646c-3.071,0-5.958,1.196-8.128,3.367l-40.833,40.833c-2.172,2.172-3.368,5.059-3.368,8.129
		c0,3.071,1.196,5.958,3.367,8.13c2.172,2.172,5.059,3.368,8.129,3.368c3.071,0,5.958-1.196,8.127-3.367l40.834-40.834
		c2.171-2.172,3.367-5.059,3.367-8.129c0-3.071-1.196-5.958-3.367-8.13C190,413.843,187.112,412.646,184.042,412.646z"/>
</g>
</svg>
