<?xml version="1.0" encoding="utf-8"?>
<!-- Generator: Adobe Illustrator 16.0.0, SVG Export Plug-In . SVG Version: 6.00 Build 0)  -->
<!DOCTYPE svg PUBLIC "-//W3C//DTD SVG 1.1//EN" "http://www.w3.org/Graphics/SVG/1.1/DTD/svg11.dtd">
<svg version="1.1" id="Capa_1" xmlns="http://www.w3.org/2000/svg" xmlns:xlink="http://www.w3.org/1999/xlink" x="0px" y="0px"
	 width="792px" height="627.255px" viewBox="4 168.745 792 627.255" enable-background="new 4 168.745 792 627.255"
	 xml:space="preserve">
<g>
	<g>
		<path fill="#1184BF" d="M410.639,773.328c-2.904-2.906-6.936-4.578-11.045-4.578c-4.111,0-8.143,1.672-11.047,4.578
			c-2.906,2.906-4.578,6.938-4.578,11.047s1.67,8.141,4.578,11.047c2.904,2.906,6.936,4.578,11.047,4.578
			c4.109,0,8.141-1.672,11.045-4.578c2.906-2.906,4.58-6.938,4.58-11.047S413.547,776.234,410.639,773.328z"/>
	</g>
</g>
<path fill="#1184BF" d="M715.57,514.939l-55.192-13.186v-26.036l1.863-1.177c29.015-18.339,46.337-49.679,46.337-83.835v-58.229
	c0-54.658-44.469-99.125-99.128-99.125c-28.28,0-55.313,12.195-74.163,33.458l-4.82,5.437l-2.016-6.981
	c-16.41-56.83-69.164-96.521-128.289-96.521c-59.258,0-112.045,39.8-128.369,96.786l-2.014,7.032l-4.833-5.491
	c-18.864-21.43-45.979-33.721-74.391-33.721c-54.659,0-99.128,44.467-99.128,99.125v58.229c0,34.157,17.322,65.498,46.337,83.834
	l1.863,1.178v26.036l-55.192,13.186C37.076,526.251,4,568.154,4,616.842v105.033c0,6.41,5.215,11.625,11.625,11.625h128.942v50.875
	c0,6.41,5.215,11.625,11.625,11.625h171.412c6.41,0,11.625-5.215,11.625-11.625s-5.215-11.625-11.625-11.625H253.85v-72.769
	c0-6.41-5.215-11.625-11.625-11.625s-11.625,5.215-11.625,11.625v72.769h-62.785v-74.497c0-54.848,37.252-102.08,90.591-114.861
	l80.098-19.195l50.792,115.554c1.854,4.221,6.03,6.947,10.639,6.947c4.611,0,8.788-2.727,10.643-6.945l50.742-115.387l79.872,19.08
	c53.386,12.752,90.672,59.993,90.672,114.881v18.252l-0.319,0.75c-0.612,1.44-0.923,2.969-0.923,4.545
	c0,1.577,0.311,3.106,0.923,4.545l0.319,0.751v45.581H569.4v-72.769c0-6.41-5.215-11.625-11.625-11.625s-11.625,5.215-11.625,11.625
	v72.769h-80.523c-6.41,0-11.625,5.215-11.625,11.625S459.217,796,465.627,796h177.862c6.41,0,11.625-5.215,11.625-11.625V733.5
	h129.261c6.41,0,11.625-5.215,11.625-11.625V616.842C796,568.155,762.926,526.251,715.57,514.939z M536.628,311.123
	c9.431-32.101,39.375-54.521,72.82-54.521c41.839,0,75.878,34.038,75.878,75.875v9.439h-48.691
	c-34.396,0-68.341-9.059-98.162-26.197l-2.733-1.571L536.628,311.123z M533.572,388.019c0.039-1.261,0.076-25.736,0.092-41.879
	l0.006-6.417l5.76,2.832c30.08,14.793,63.693,22.613,97.206,22.613h48.692v25.541c-0.002,41.837-34.042,75.873-75.88,75.873
	c-41.839,0-75.878-34.037-75.878-75.875L533.572,388.019z M289.906,302.247c0-60.792,49.46-110.25,110.255-110.25
	c60.794,0,110.253,49.458,110.253,110.25v9.026l-64.019-37.611c-1.784-1.049-3.817-1.603-5.88-1.603
	c-3.452,0-6.703,1.516-8.919,4.16c-23.293,27.797-57.455,43.74-93.724,43.74h-47.967V302.247z M114.673,332.477
	c0-41.837,34.039-75.875,75.878-75.875c33.446,0,63.39,22.42,72.819,54.523l0.888,3.024l-2.733,1.571
	c-29.825,17.139-63.769,26.197-98.162,26.197h-48.691V332.477z M114.673,390.706v-25.541h48.692c33.55,0,67.195-7.834,97.297-22.655
	l5.767-2.84v51.036c0,41.838-34.039,75.875-75.878,75.875S114.673,432.544,114.673,390.706z M175.73,609.549
	c-20.096,24.965-31.163,56.467-31.163,88.704v11.997H89.75v-73.42c0-6.41-5.215-11.625-11.625-11.625S66.5,630.42,66.5,636.83v73.42
	H27.25v-93.408c0-37.881,25.734-70.486,62.582-79.289l52.838-12.623l34.553,82.767L175.73,609.549z M190.554,579.277l-27.785-66.558
	l0.066-0.946c0.02-0.28,0.039-0.561,0.039-0.844v-24.925l4.918,1.159c14.969,3.53,30.429,3.541,45.421,0.022l4.914-1.152
	l-0.007,24.139c-0.013,0.217-0.018,0.433-0.018,0.649c0,0.3,0.037,0.682,0.075,1.085l0.096,0.998l-0.386,0.929L190.554,579.277z
	 M252.99,560.782c-8.732,2.093-17.378,5.065-25.697,8.835l-9.26,4.196l20.449-48.964l52.847,12.664
	c3.963,0.948,7.929,2.228,11.788,3.801l11.516,4.696L252.99,560.782z M333.614,531.514l-6.108-3.789
	c-9.5-5.894-19.849-10.207-30.758-12.821l-55.371-13.267v-25.854l1.867-1.177c12.433-7.836,23.169-18.541,31.048-30.958l3.75-5.909
	l3.188,6.23c11.435,22.34,28.877,40.99,50.443,53.935l1.941,1.165V531.514z M442.958,548.361l-43.019,97.825l-43.075-97.999v-38.436
	l5.145,1.537c12.353,3.691,25.188,5.563,38.15,5.563c12.789,0,25.462-1.823,37.668-5.42l5.131-1.512V548.361z M400.161,493.604
	c-60.795-0.002-110.255-49.461-110.255-110.252v-40.141h47.966c38.85,0,75.35-15.089,102.777-42.488l2.188-2.185l67.485,39.646
	l-0.002,48.971c-0.978,28.604-12.88,55.368-33.515,75.363C456.119,482.563,428.899,493.604,400.161,493.604z M466.208,531.644
	v-32.292l1.956-1.163c21.698-12.898,39.26-31.555,50.787-53.953l3.183-6.184l3.744,5.859c7.859,12.299,18.537,22.913,30.879,30.694
	l1.866,1.177v25.854l-55.37,13.267c-10.969,2.629-21.375,6.979-30.93,12.932L466.208,531.644z M572.642,569.806
	c-8.416-3.834-17.18-6.853-26.05-8.972l-61.441-14.68l11.432-4.715c3.953-1.63,8.021-2.951,12.089-3.926l52.727-12.635
	l20.521,49.154L572.642,569.806z M581.683,513.113l0.113-1.026c0.058-0.521,0.084-0.926,0.084-1.271
	c0-0.101-0.001-0.202-0.005-0.304l-0.002-0.134v-24.346l4.915,1.155c14.967,3.515,30.446,3.51,45.421-0.024l4.918-1.16v24.925
	c0,0.16,0.012,0.317,0.021,0.476l0.06,1.064l-27.9,66.81L581.683,513.113z M772.75,710.25H733.5v-73.42
	c0-6.41-5.215-11.625-11.625-11.625s-11.625,5.215-11.625,11.625v73.42h-55.136v-11.922c0-32.193-11.034-63.657-31.068-88.597
	l-1.489-1.853l34.654-82.977l52.958,12.65c36.847,8.803,62.581,41.408,62.581,79.289V710.25z"/>
<g>
	<g>
		<path fill="#1184BF" d="M358.639,365.906c-2.904-2.906-6.936-4.578-11.045-4.578s-8.141,1.672-11.047,4.578
			s-4.578,6.938-4.578,11.047s1.67,8.141,4.578,11.047s6.938,4.578,11.047,4.578c4.125,0,8.141-1.672,11.045-4.578
			c2.922-2.906,4.58-6.938,4.58-11.047S361.561,368.813,358.639,365.906z"/>
	</g>
</g>
<g>
	<g>
		<path fill="#1184BF" d="M463.123,365.906c-2.904-2.906-6.936-4.578-11.045-4.578s-8.141,1.672-11.047,4.578
			s-4.578,6.938-4.578,11.047s1.67,8.141,4.578,11.047s6.938,4.578,11.047,4.578s8.141-1.672,11.045-4.578
			c2.922-2.906,4.58-6.938,4.58-11.047S466.045,368.813,463.123,365.906z"/>
	</g>
</g>
<g>
	<g>
		<path fill="#1184BF" d="M430.073,418.503c-6.103-6.102-15.993-6.102-22.099,0c-4.62,4.62-12.137,4.62-16.758,0
			c-6.103-6.102-15.993-6.102-22.098,0c-6.102,6.102-6.102,15.995,0,22.099c8.402,8.401,19.438,12.604,30.477,12.604
			c11.037,0,22.073-4.2,30.477-12.604C436.175,434.498,436.175,424.604,430.073,418.503z"/>
	</g>
</g>
</svg>
