<?xml version="1.0" encoding="utf-8"?>
<!-- Generator: Adobe Illustrator 16.0.0, SVG Export Plug-In . SVG Version: 6.00 Build 0)  -->
<!DOCTYPE svg PUBLIC "-//W3C//DTD SVG 1.1//EN" "http://www.w3.org/Graphics/SVG/1.1/DTD/svg11.dtd">
<svg version="1.1" id="Layer_1" xmlns="http://www.w3.org/2000/svg" xmlns:xlink="http://www.w3.org/1999/xlink" x="0px" y="0px"
	 width="299.963px" height="284.626px" viewBox="0 0 299.963 284.626" enable-background="new 0 0 299.963 284.626"
	 xml:space="preserve">
<g>
	<g>
		<path fill-rule="evenodd" clip-rule="evenodd" fill="#F76723" d="M186.977,275.627c-5.43-3.905-5.999-20.997-5.999-20.997h-61.993
			c0,0-0.063,1.188-1,7.999c-1.857,13.492-10.874,17.311-11.999,17.998c-1.125,0.687-2,1.249-2,1.999c0,2.063,3,2,3,2
			s81.418,0,84.989,0s4-1.079,4-2S192.407,279.532,186.977,275.627z M289.964,44.656c-8.986,0-39.995,0-39.995,0l-15.998,17.998
			h47.994v143.982H17.998V62.654h153.981l11.998-17.998H9.999c0,0-9.999,1.239-9.999,10.999c0,9.759,0,175.978,0,175.978
			s0.571,10.998,10.999,10.998s277.965,0,277.965,0s10.999,0.893,10.999-11.998c0-12.892,0-174.978,0-174.978
			S298.95,44.656,289.964,44.656z M128.984,141.644c0,0,8.943,7.409,10.999,8.999c2.056,1.59,4-1,4-1S245.211,39.435,248.969,34.657
			s6.999-11.288,6.999-16.998c0-5.71-0.765-9.271-3.999-12.998C248.876,1.097,245.605,0,238.978,0
			c-12.134,0-16.006,6.661-16.006,6.661s-92.819,130.372-93.988,131.984C127.845,140.215,128.984,141.644,128.984,141.644z
			 M96.988,171.64c-6.045,7.155-18.724,5.009-19.998,5s-1,1-1,1s8.669,2.999,20.997,2.999c12.329,0,42.995-2.772,42.995-15.998
			c0-13.225-16.039-17.997-21.997-17.997C102.048,146.644,103.033,164.485,96.988,171.64z"/>
	</g>
</g>
<path fill-rule="evenodd" clip-rule="evenodd" fill="#FFFFFF" d="M224.972,13.237l5,4L241.97,5.239
	C227.913,5.239,224.972,13.237,224.972,13.237z"/>
</svg>
