<?xml version="1.0" encoding="utf-8"?>
<!-- Generator: Adobe Illustrator 16.0.0, SVG Export Plug-In . SVG Version: 6.00 Build 0)  -->
<!DOCTYPE svg PUBLIC "-//W3C//DTD SVG 1.1//EN" "http://www.w3.org/Graphics/SVG/1.1/DTD/svg11.dtd">
<svg version="1.1" id="Layer_1" xmlns="http://www.w3.org/2000/svg" xmlns:xlink="http://www.w3.org/1999/xlink" x="0px" y="0px"
	 width="228px" height="167px" viewBox="0 0 228 167" enable-background="new 0 0 228 167" xml:space="preserve">
<g>
	<g>
		<path fill-rule="evenodd" clip-rule="evenodd" fill="#F76724" d="M24,116c0,0,0-102.55,0-106s5-4,5-4s165.248,0,169,0s5,4,5,4
			s0,104.509,0,107s-4,3-4,3h-12l14,15h-27l4,6c0,0,22.161,0,26,0s4-5,4-5s0-124.979,0-130s-4-6-4-6S29.081,0,24,0s-5,6-5,6
			s0,124.947,0,130s5,5,5,5h105v-21c0,0-96.182,0-100,0S24,116,24,116z M184,128l-48-48v67l15-14l19,34l10-6l-17-33H184z
			 M73.744,45.554c-1.526-0.745-3.19-1.118-4.992-1.118H52.84v36.92h10.14V70.02h6.032c1.802,0,3.458-0.355,4.966-1.066
			c1.508-0.71,2.79-1.664,3.848-2.86c1.057-1.196,1.88-2.565,2.47-4.108c0.589-1.542,0.884-3.128,0.884-4.758
			c0-1.56-0.312-3.111-0.936-4.654c-0.624-1.542-1.482-2.912-2.574-4.108C76.578,47.27,75.269,46.3,73.744,45.554z M70.078,60.322
			c-0.538,0.572-1.118,0.858-1.742,0.858H62.98v-7.904h5.096c0.624,0,1.248,0.278,1.872,0.832c0.624,0.555,0.936,1.595,0.936,3.12
			C70.884,58.719,70.615,59.75,70.078,60.322z M118.619,45.554c-1.526-0.745-3.19-1.118-4.992-1.118H97.715v36.92h10.14V70.02h6.032
			c1.802,0,3.458-0.355,4.965-1.066c1.509-0.71,2.791-1.664,3.849-2.86c1.057-1.196,1.88-2.565,2.47-4.108
			c0.589-1.542,0.884-3.128,0.884-4.758c0-1.56-0.312-3.111-0.936-4.654c-0.624-1.542-1.482-2.912-2.574-4.108
			C121.453,47.27,120.145,46.3,118.619,45.554z M114.953,60.322c-0.538,0.572-1.118,0.858-1.742,0.858h-5.356v-7.904h5.096
			c0.624,0,1.248,0.278,1.872,0.832c0.624,0.555,0.936,1.595,0.936,3.12C115.759,58.719,115.49,59.75,114.953,60.322z
			 M152.86,56.318c0.676-0.918,1.542-1.664,2.6-2.236c1.058-0.572,2.314-0.858,3.771-0.858c0.692,0,1.412,0.07,2.158,0.208
			c0.744,0.139,1.464,0.382,2.157,0.728c0.693,0.347,1.326,0.815,1.898,1.404c0.572,0.59,1.031,1.335,1.378,2.236l7.748-5.512
			c-1.283-2.426-3.232-4.376-5.85-5.85c-2.618-1.473-5.712-2.21-9.282-2.21c-2.982,0-5.634,0.538-7.956,1.612
			c-2.323,1.075-4.299,2.479-5.928,4.212c-1.63,1.734-2.869,3.692-3.719,5.876s-1.273,4.403-1.273,6.656
			c0,2.358,0.45,4.68,1.352,6.968s2.176,4.334,3.822,6.136c1.646,1.803,3.604,3.25,5.876,4.342c2.271,1.092,4.775,1.638,7.514,1.638
			c1.561,0,3.163-0.191,4.811-0.572c1.646-0.381,3.188-0.936,4.628-1.664c1.438-0.728,2.721-1.629,3.848-2.704
			c1.126-1.074,1.967-2.288,2.522-3.64l-8.269-4.94c-0.312,0.832-0.736,1.534-1.273,2.106c-0.538,0.572-1.145,1.04-1.82,1.404
			s-1.378,0.624-2.106,0.78c-0.728,0.156-1.438,0.234-2.132,0.234c-1.317,0-2.505-0.268-3.562-0.806
			c-1.058-0.537-1.95-1.256-2.678-2.158c-0.729-0.901-1.283-1.941-1.664-3.12c-0.382-1.178-0.572-2.409-0.572-3.692
			c0-1.144,0.164-2.296,0.494-3.458C151.682,58.276,152.185,57.237,152.86,56.318z M138,156l-5,5h26l-3-5H138z M148,146l-7,7h13
			l-3-7H148z M8,161h121v-5H0C0,160.553,8,161,8,161z M1,153h128v-7H16L1,153z M186,156l2,5h32c0,0,8-0.233,8-5H186z M212,146h-32
			l4,7h43L212,146z"/>
	</g>
</g>
</svg>
