<?xml version="1.0" encoding="utf-8"?>
<!-- Generator: Adobe Illustrator 16.0.0, SVG Export Plug-In . SVG Version: 6.00 Build 0)  -->
<!DOCTYPE svg PUBLIC "-//W3C//DTD SVG 1.1//EN" "http://www.w3.org/Graphics/SVG/1.1/DTD/svg11.dtd">
<svg version="1.1" id="Capa_1" xmlns="http://www.w3.org/2000/svg" xmlns:xlink="http://www.w3.org/1999/xlink" x="0px" y="0px"
	 width="800px" height="800px" viewBox="0 0 800 800" enable-background="new 0 0 800 800" xml:space="preserve">
<g>
	<g>
		<path id="WordPress" fill="#1184BF" d="M0,400.093c0,220.972,179.121,400.093,400.093,400.093s400.093-179.121,400.093-400.093
			C800,179.121,620.879,0,400.093,0C179.121,0,0,179.121,0,400.093z M30.876,400.093c0-53.569,11.532-104.348,31.993-150.291
			l176.145,482.493C115.694,672.401,30.876,546.105,30.876,400.093z M400.093,769.123c-36.271,0-71.239-5.208-104.348-15.065
			l110.858-321.786l113.462,310.812c0.744,1.86,1.674,3.534,2.604,5.022C484.166,761.869,443.06,769.123,400.093,769.123z
			 M698.442,393.025c21.019-52.639,28.086-94.862,28.086-132.249c0-13.578-0.93-26.226-2.604-37.944
			c28.83,52.639,45.198,112.904,45.198,177.075c0,136.154-73.843,255.196-183.585,318.995L698.442,393.025z M618.833,279.563
			c13.95,24.552,30.505,56.173,30.505,101.744c0,31.62-9.486,71.425-28.087,119.414l-36.829,122.948l-133.55-396.745
			c22.32-1.302,42.223-3.534,42.223-3.534c19.902-2.418,17.484-31.62-2.232-30.504c0,0-59.893,4.65-98.396,4.65
			c-36.271,0-97.28-4.65-97.28-4.65c-19.902-1.116-22.134,29.389-2.418,30.504c0,0,18.787,2.232,38.689,3.534l57.475,157.545
			l-80.726,242.362l-134.48-399.907c22.32-1.302,42.223-3.534,42.223-3.534c19.902-2.418,17.484-31.62-2.418-30.504
			c0,0-59.707,4.65-98.396,4.65c-6.882,0-15.066-0.186-23.809-0.372C157.359,96.908,270.821,30.69,399.721,30.69
			c96.164,0,183.586,36.829,249.245,96.908c-1.488-0.186-3.162-0.372-4.65-0.372c-36.271,0-61.939,31.621-61.939,65.473
			C582.563,223.39,600.047,249.244,618.833,279.563z"/>
	</g>
</g>
</svg>
