<?xml version="1.0" encoding="utf-8"?>
<!-- Generator: Adobe Illustrator 16.0.0, SVG Export Plug-In . SVG Version: 6.00 Build 0)  -->
<!DOCTYPE svg PUBLIC "-//W3C//DTD SVG 1.1//EN" "http://www.w3.org/Graphics/SVG/1.1/DTD/svg11.dtd">
<svg version="1.1" id="Layer_1" xmlns="http://www.w3.org/2000/svg" xmlns:xlink="http://www.w3.org/1999/xlink" x="0px" y="0px"
	 width="208.142px" height="229.039px" viewBox="0 0 208.142 229.039" enable-background="new 0 0 208.142 229.039"
	 xml:space="preserve">
<g>
	<g>
		<path fill="#1184BF" d="M206,195c0,0-36.44-43.418-41-49s-8.894-2.697-10-2s-2-1-2-1l-13-16c9.766-11.704,12-23,12-23
			c-8.131-0.439-8-8-8-8h-7c-3.813,8.233-10,7-10,7c-8.869,13.969-23.328,30-48,30s-54-17.522-54-55c0-32.418,24.965-53,54-53
			c19.376,0,27.551,7.958,29,9s3.021,1.107,4,1s2.544,0.107,5,2s4.248-0.431,6-2s0-2.042,0-8s7-7,7-7S109.164,0,79,0
			C36.269,0,0,34.034,0,77c0,60.273,53.084,81,78,81s37-10,37-10s10.361,13.854,12,16s1,2,1,2c-4.819,3.824,0,10,0,10
			s38.455,46.411,43,51s9,0,9,0s21.181-17.352,26-22S206,195,206,195z M79,42c2.102,0,4-1.267,4-4c0-3.489-4-4-4-4
			c-44.259,0-45,45-45,45s-0.531,4,4,4s4-5,4-5C46.76,40.872,76.898,42,79,42z M128.683,35.264l1.642,5.21
			c-2.252,1.352-4.279,3.052-6.002,5.032l-4.845-2.524c-1.414-0.732-3.169-0.189-3.908,1.23l-2.731,5.241
			c-0.354,0.681-0.425,1.476-0.193,2.209c0.23,0.733,0.743,1.345,1.425,1.7l4.845,2.524c-0.637,2.546-0.868,5.183-0.687,7.802
			l-5.21,1.641c-0.732,0.23-1.344,0.743-1.699,1.424c-0.355,0.682-0.425,1.476-0.194,2.209l1.775,5.637
			c0.23,0.733,0.744,1.345,1.425,1.7c0.68,0.352,1.477,0.425,2.21,0.194l5.21-1.641c1.352,2.251,3.053,4.279,5.033,6.001
			l-2.524,4.844c-0.74,1.419-0.189,3.169,1.23,3.908l5.241,2.731c0.037,0.02,0.074,0.038,0.111,0.055
			c0.656,0.307,1.405,0.358,2.098,0.14c0.733-0.23,1.345-0.744,1.7-1.424l2.523-4.845c2.546,0.636,5.184,0.868,7.803,0.686
			l1.642,5.21c0.229,0.733,0.743,1.345,1.424,1.7c0.685,0.357,1.478,0.425,2.21,0.194l5.637-1.775
			c1.527-0.48,2.374-2.107,1.894-3.633l-1.641-5.21c2.251-1.352,4.279-3.052,6.002-5.032l4.844,2.524
			c1.421,0.732,3.169,0.189,3.909-1.23l2.73-5.241c0.355-0.682,0.425-1.476,0.194-2.209c-0.23-0.732-0.744-1.344-1.425-1.699
			l-4.845-2.524c0.636-2.546,0.867-5.183,0.685-7.802l5.211-1.641c1.527-0.48,2.374-2.107,1.894-3.634l-1.775-5.637
			c-0.23-0.733-0.743-1.344-1.425-1.7c-0.682-0.35-1.477-0.424-2.209-0.194l-5.21,1.641c-1.353-2.251-3.053-4.28-5.033-6.001
			l2.524-4.845c0.739-1.419,0.188-3.169-1.231-3.908l-5.241-2.731c-1.416-0.729-3.169-0.188-3.908,1.23l-2.524,4.845
			c-2.546-0.636-5.183-0.868-7.803-0.687l-1.641-5.21c-0.23-0.732-0.743-1.344-1.425-1.699c-0.682-0.354-1.477-0.425-2.209-0.194
			l-5.638,1.775C129.05,32.11,128.202,33.737,128.683,35.264z M149.751,47.508c0.21,0.098,0.419,0.201,0.627,0.31
			c7.821,4.076,10.87,13.754,6.795,21.575c-4.078,7.827-13.688,10.895-21.576,6.793c-7.821-4.075-10.87-13.754-6.795-21.575
			C132.772,46.99,141.975,43.87,149.751,47.508z"/>
	</g>
</g>
</svg>
