<?xml version="1.0" encoding="utf-8"?>
<!-- Generator: Adobe Illustrator 16.0.0, SVG Export Plug-In . SVG Version: 6.00 Build 0)  -->
<!DOCTYPE svg PUBLIC "-//W3C//DTD SVG 1.1//EN" "http://www.w3.org/Graphics/SVG/1.1/DTD/svg11.dtd">
<svg version="1.1" id="layer" xmlns="http://www.w3.org/2000/svg" xmlns:xlink="http://www.w3.org/1999/xlink" x="0px" y="0px"
	 width="156.663px" height="177.865px" viewBox="150.037 383.116 156.663 177.865"
	 enable-background="new 150.037 383.116 156.663 177.865" xml:space="preserve">
<path fill="#1184BF" d="M256.785,404.025l-5.3,1.619c-0.589-2.208-1.473-4.27-2.503-6.331c-3.828-7.215-9.276-11.043-15.902-11.043
	l0,0c-0.441,0-0.883,0-1.325,0.147c-0.147-0.295-0.441-0.442-0.589-0.736c-2.945-3.092-6.625-4.564-11.043-4.564
	c-8.687,0.294-17.227,6.479-24.147,17.521c-4.859,7.804-8.688,17.521-9.718,25.178l-16.933,5.301
	c-5.006,1.619-5.153,1.767-5.742,6.479c-0.442,3.533-13.546,104.687-13.546,104.687l108.516,18.7V403.877
	C257.669,403.877,257.227,403.877,256.785,404.025L256.785,404.025z M231.754,411.828l-18.257,5.742
	c1.767-6.773,5.153-13.546,9.276-17.964c1.473-1.619,3.681-3.533,6.184-4.564C231.313,400.049,231.754,406.969,231.754,411.828z
	 M219.976,389.006c1.767-0.147,3.681,0.441,5.153,1.325c-2.503,1.325-4.712,3.092-6.626,5.153
	c-5.448,5.89-9.718,15.019-11.337,23.853L192,424.049C195.092,410.208,206.577,389.448,219.976,389.006L219.976,389.006z
	 M203.19,467.926c0.589,9.276,24.883,11.19,26.208,32.834c1.031,17.08-8.982,28.712-23.559,29.596
	c-17.521,1.178-27.092-9.129-27.092-9.129l3.681-15.755c0,0,9.718,7.362,17.374,6.773c5.006-0.295,6.92-4.417,6.626-7.362
	c-0.736-12.073-20.466-11.337-21.792-31.067c-1.031-16.638,9.865-33.57,34.012-35.043c9.276-0.589,13.988,1.767,13.988,1.767
	l-5.448,20.614c0,0-6.184-2.798-13.399-2.356C203.19,459.533,203.043,466.307,203.19,467.926z M237.497,410.061
	c0-4.417-0.589-10.454-2.65-15.754c6.479,1.178,9.718,8.687,11.19,13.104C245.89,407.41,237.497,410.061,237.497,410.061z
	 M261.644,560.687l45.055-11.19c0,0-19.436-131.043-19.436-131.926c-0.147-0.736-0.736-1.325-1.62-1.473
	c-0.589,0-13.251-0.295-13.251-0.295s-7.656-7.509-10.601-10.307v155.19H261.644z"/>
</svg>
