<svg width="80" height="50" viewBox="0 0 80 50" xmlns="http://www.w3.org/2000/svg"><path d="M80 0H0v50h80z" fill="#C02"/><path d="M39.089 12l.236.003.261.009.431.027.311.029.329.038.343.05.355.06.183.035.37.08.19.045.381.1c.32.091.646.198.972.323l.39.159c2.332 1.01 4.538 3.036 4.656 7.015l.005.336v.275c0 .72-.033 1.304-.361 1.648-.266.309-.611.507-1.132.543l-.18.006h-3.575c-.718 0-1.496-.28-1.625-1.434l-.015-.18c-.033-.755-.557-1.545-2.361-1.545-1.495 0-1.896.997-2 1.623l-.02.161-.011.136-.003.106v7.633l.007.113.015.14c.082.582.45 1.625 2.012 1.625 1.666 0 2.277-.725 2.354-1.45l.007-.095c.063-1.243.81-1.582 1.532-1.612l.108-.002h3.706c.623 0 .853.206 1.18.55.299.311.353.794.36 1.447l.002.475c0 6.112-4.69 8.31-9.479 8.31a9.608 9.608 0 01-6.658-2.679c-1.322-1.253-2.463-3.802-2.552-6.07l-.006-.282v-8.927c0-2.678.951-4.635 2.591-6.215C34.005 13.064 36.367 12 39.088 12zm-12.5.55c.624.034 1.05.274 1.378.617.268.313.537.823.583 1.507l.008.21v2.747c0 .446-.165.961-.394 1.27a1.99 1.99 0 01-.689.584c-.32.155-.529.193-.71.203l-.175.003h-2.82c-.307 0-.41.26-.443.432l-.015.109-.002.043v15.897c-.03.68-.245 1.165-.527 1.505l-.096.108c-.295.34-.67.597-1.197.645l-.18.008H17.8c-.623-.035-1.05-.31-1.378-.653-.298-.343-.569-.771-.616-1.414l-.007-.2v-15.93c0-.438-.19-.562-.396-.582l-.063-.002h-2.723l-.17-.01a2.025 2.025 0 01-.321-.059l-.22-.093a1.727 1.727 0 01-.764-.628c-.23-.3-.359-.732-.387-1.112l-.007-.158V14.85c.033-.755.296-1.27.624-1.614.295-.309.67-.618 1.196-.677l.181-.01h13.84zm30.242 0c.623 0 1.082.24 1.41.583.298.312.57.738.616 1.354l.007.191v6.25c0 .374.082.663.368.713l.092.007h2.59c.299 0 .434-.255.456-.611l.004-.11v-6.249c0-.72.295-1.202.623-1.545.32-.305.693-.529 1.21-.575l.2-.008h3.542c.624 0 1.083.24 1.41.583.296.31.564.73.64 1.336l.017.21v21.424a2.14 2.14 0 01-.624 1.545c-.324.31-.702.563-1.229.61l-.18.008h-3.576c-.623-.034-1.082-.274-1.41-.618a2.131 2.131 0 01-.616-1.354l-.007-.19V29.51c0-.539-.14-.668-.394-.685l-.065-.002h-2.591c-.366 0-.449.089-.459.569v6.71a2.14 2.14 0 01-.624 1.545c-.324.31-.702.563-1.229.61l-.181.008h-3.575c-.623-.034-1.082-.274-1.41-.618a2.131 2.131 0 01-.616-1.354l-.007-.19V14.677c0-.72.295-1.202.623-1.545.32-.305.693-.529 1.21-.575l.2-.008h3.575zm-17.775.514c-4.603 0-8.037 3.407-8.163 7.916l-.004.256v8.103c0 4.635 3.543 8.24 8.233 8.24s8.363-2.506 8.363-7.21c0-.966-.144-1.418-.595-1.471l-.094-.005h-3.05c-.525 0-1.079.09-1.197.903l-.017.161c-.13 1.634-1.374 2.145-2.39 2.286l-.26.03-.243.014-.222.005c-2.277 0-2.954-1.267-3.144-2.193l-.035-.2-.021-.184-.011-.165-.003-.142V21.27l.007-.154.016-.176.012-.094.035-.2c.19-.927.867-2.2 3.144-2.226l.264.006.274.02c1.11.111 2.36.609 2.558 2.115l.02.193c.061.905.588 1.05 1.114 1.063l3.15.002c.524 0 .688-.447.688-1.477 0-4.67-3.739-7.279-8.429-7.279zm-12.466.55H12.75c-.49 0-.923.449-.979.983l-.006.116v3.021c0 .206.066.446.23.618.14.147.353.244.618.268l.136.007h3.378c.391 0 .644.317.684.634l.005.087v16.927c.03.545.433 1.03.913 1.092l.104.007h3.51c.52 0 .954-.45 1.01-.984l.006-.115V19.348c0-.254.112-.654.542-.714l.114-.007h3.607c.328 0 .59-.103.755-.275a.876.876 0 00.224-.513l.005-.105v-3.022c-.03-.544-.432-1.03-.912-1.091l-.104-.007zm30.241-.069h-3.575c-.55 0-1.016.449-1.076.983l-.006.116V36.24c.03.577.461 1.034.972 1.093l.11.006h3.575c.551 0 1.016-.419 1.076-.977l.006-.122.001-7.737.012-.084c.027-.155.113-.447.373-.51l.106-.012h4.428c.286 0 .416.327.466.505l.026.113v7.725c.03.545.461 1.03.972 1.092l.11.007h3.542c.551 0 1.017-.449 1.076-.983l.007-.116.032-21.596c-.03-.545-.46-1.03-.971-1.092l-.11-.007h-3.576c-.55 0-1.016.449-1.076.983l-.006.116v7.416c0 .344-.081.545-.392.579l-.1.005h-4.428c-.324 0-.463-.223-.488-.492l-.004-.092v-7.416c-.03-.545-.46-1.03-.971-1.092l-.111-.007zm-17.742.755c3.476 0 7.15 1.717 7.346 5.7.03.34-.127.624-.35.678l-.076.009h-1.837c-.393 0-.656-.069-.721-.447-.36-2.163-1.673-3.09-4.231-3.09-2.449 0-4.096 1.84-4.194 3.956l-.004.199v8.103c0 2.163 1.64 4.154 4.198 4.154 2.361 0 3.87-1.064 4.23-3.124.06-.34.278-.43.608-.444l.114-.003h1.837c.262 0 .46.31.426.687-.196 4.017-3.804 5.871-7.28 5.871-4.113 0-7.124-3.327-7.245-6.917l-.004-.224v-8.103c0-3.674 2.952-7.005 7.183-7.005zm17.414.275c.233 0 .389.163.42.416l.006.1v7.793c0 .312.217.653.528.712l.096.01h6.067c.39 0 .671-.232.716-.587l.006-.1v-7.863c0-.31.212-.451.47-.477l.087-.004h2.23c.542 0 .835.173.854.493v20.623c0 .375-.136.579-.457.613l-.101.005h-2.591l-.043-.018c-.107-.047-.379-.196-.438-.485l-.011-.115v-8.069c0-.283-.276-.624-.625-.679l-.097-.007h-6.067c-.328 0-.575.312-.617.6l-.007.086v8.07c0 .36-.295.527-.442.588l-.082.03h-2.46c-.515 0-.694-.235-.719-.541l-.003-.078V15.125c0-.281.19-.506.57-.544l.119-.006h2.591zm-30.47.172c.261 0 .394.108.444.35l.014.096v1.751c0 .305-.103.53-.334.575l-.092.009H21.9c-.298 0-.597.284-.648.593l-.008.094v17.58c0 .274-.182.413-.337.44l-.057.005h-2.59c-.144 0-.263-.157-.29-.358l-.006-.088v-17.58c0-.28-.271-.618-.518-.677l-.072-.009h-4.198c-.144 0-.262-.105-.29-.315l-.006-.097v-1.923c0-.154.133-.392.447-.438l.11-.008h12.595z" fill="#FFF"/></svg>