<?xml version="1.0" standalone="no"?>
<!DOCTYPE svg PUBLIC "-//W3C//DTD SVG 20010904//EN"
 "http://www.w3.org/TR/2001/REC-SVG-20010904/DTD/svg10.dtd">
<svg version="1.0" xmlns="http://www.w3.org/2000/svg"
 width="512.000000pt" height="512.000000pt" viewBox="0 0 512.000000 512.000000"
 preserveAspectRatio="xMidYMid meet">
<metadata>
Created by potrace 1.11, written by Peter Selinger 2001-2013
</metadata>
<g transform="translate(0.000000,512.000000) scale(0.100000,-0.100000)"
fill="#000000" stroke="none">
<path d="M2350 3404 c-79 -17 -209 -80 -270 -131 -98 -81 -174 -202 -198 -318
-6 -29 -11 -193 -12 -395 0 -311 1 -353 19 -421 32 -126 76 -204 161 -289 131
-131 277 -183 485 -176 200 7 341 60 451 170 97 97 133 191 141 362 l6 121
-31 34 -30 34 -159 2 c-215 2 -216 1 -255 -126 -17 -57 -65 -84 -148 -84 -64
0 -103 20 -126 64 -22 43 -21 537 2 584 32 68 140 90 224 46 34 -17 43 -34 69
-131 3 -15 21 -32 41 -43 30 -15 57 -17 192 -15 157 3 158 3 185 31 27 26 28
32 30 131 1 63 -4 124 -12 157 -51 191 -187 319 -405 380 -94 27 -267 33 -360
13z m271 -68 c168 -26 327 -133 388 -259 47 -98 67 -261 37 -302 -13 -18 -27
-19 -145 -19 -150 0 -166 7 -175 78 -9 69 -53 117 -124 137 -92 26 -209 3
-255 -49 -42 -46 -46 -84 -46 -382 -1 -256 1 -289 18 -325 10 -22 27 -48 37
-57 72 -64 245 -67 315 -6 33 29 45 53 54 105 11 70 25 76 176 76 86 0 134 -4
142 -12 7 -7 13 -45 14 -86 3 -134 -38 -238 -129 -328 -73 -72 -141 -109 -251
-136 -95 -24 -242 -26 -324 -4 -178 46 -326 186 -385 362 -21 62 -22 87 -25
391 -2 255 0 340 12 393 64 302 337 476 666 423z"/>
<path d="M2487 3264 c-1 -1 -27 -4 -57 -7 -186 -17 -349 -156 -404 -344 -23
-80 -23 -655 0 -733 50 -169 184 -304 343 -346 198 -52 451 26 551 170 54 80
87 215 58 244 -13 13 -156 17 -174 4 -6 -4 -14 -20 -18 -37 -20 -88 -74 -147
-160 -177 -120 -41 -253 -12 -329 72 -73 81 -78 109 -77 445 1 280 2 292 25
345 50 118 157 178 300 167 128 -9 197 -57 230 -159 25 -77 27 -78 115 -78 95
0 105 9 97 81 -18 147 -137 278 -297 323 -48 14 -196 36 -203 30z"/>
<path d="M675 3370 c-29 -12 -71 -60 -82 -95 -6 -16 -9 -87 -8 -158 1 -110 4
-131 21 -155 36 -49 78 -62 196 -62 74 0 109 -4 115 -12 4 -7 8 -249 9 -538 1
-387 4 -535 13 -563 7 -21 28 -49 48 -64 34 -26 39 -27 181 -28 174 -1 208 10
241 79 20 41 21 58 21 572 0 399 3 533 12 542 8 8 51 12 129 12 104 0 119 2
150 23 55 37 63 65 63 212 0 147 -14 193 -68 226 -29 18 -59 19 -526 18 -272
0 -504 -4 -515 -9z m1016 -79 c23 -19 24 -24 24 -156 0 -124 -2 -138 -19 -151
-15 -10 -55 -14 -160 -14 -78 0 -148 -5 -156 -10 -13 -8 -15 -84 -15 -580 l-1
-570 -22 -23 c-21 -20 -32 -22 -155 -23 -144 -1 -171 5 -185 45 -6 16 -10 241
-10 578 1 431 -2 556 -12 568 -10 12 -39 15 -151 15 -184 0 -179 -5 -179 165
0 120 1 127 25 150 l24 25 484 0 c462 0 486 -1 508 -19z"/>
<path d="M749 3228 c-22 -8 -21 -4 -23 -86 -2 -103 -10 -98 159 -97 100 1 152
-3 163 -11 15 -11 17 -68 22 -601 l5 -588 99 -3 c73 -2 102 1 108 10 4 7 8
272 8 589 0 521 2 578 16 590 12 10 55 14 164 14 98 0 152 4 162 12 10 9 13
32 11 89 -1 42 -5 79 -7 82 -8 8 -865 8 -887 0z"/>
<path d="M3390 3362 c-22 -10 -43 -32 -55 -57 -20 -39 -21 -56 -20 -772 0
-723 0 -732 21 -759 49 -66 60 -69 237 -69 140 0 166 2 189 18 61 42 63 49 68
327 l5 255 113 3 c61 1 113 -1 113 -5 1 -4 3 -116 4 -249 2 -265 5 -281 68
-328 26 -19 41 -21 190 -21 152 0 164 1 193 22 67 48 64 14 64 818 -1 786 2
752 -55 805 -26 24 -32 25 -185 28 -181 4 -214 -5 -251 -64 -20 -33 -21 -49
-23 -269 -1 -128 -5 -237 -10 -242 -11 -11 -187 -12 -208 -1 -16 8 -18 30 -18
235 0 208 -2 230 -20 269 -32 65 -60 74 -237 74 -121 0 -154 -3 -183 -18z
m309 -51 c10 -1 29 -10 42 -20 l24 -19 1 -261 c0 -163 4 -265 10 -271 7 -7 74
-9 180 -8 l169 3 5 267 c6 335 -9 309 185 312 151 1 188 -9 196 -56 3 -12 4
-344 4 -735 l0 -713 -22 -21 c-20 -21 -32 -22 -165 -23 -143 -2 -143 -2 -170
25 l-28 27 0 264 c0 145 -4 269 -9 277 -12 18 -325 21 -343 3 -8 -8 -12 -94
-12 -282 -1 -338 14 -312 -183 -315 -138 -1 -167 4 -190 34 -17 23 -18 1438
-1 1476 6 14 23 28 40 33 23 6 178 8 267 3z"/>
<path d="M3484 3241 c-10 -2 -22 -8 -26 -15 -4 -6 -8 -316 -8 -688 0 -552 2
-679 13 -690 19 -18 199 -17 221 1 14 12 16 50 16 287 0 234 2 275 16 288 13
14 49 16 233 16 198 0 219 -2 234 -18 15 -16 17 -51 17 -289 0 -245 2 -271 18
-285 22 -19 209 -18 221 1 13 21 8 1368 -5 1381 -13 13 -184 19 -214 8 -19 -7
-20 -17 -20 -280 0 -254 -1 -274 -18 -285 -13 -7 -90 -11 -232 -12 -184 0
-217 2 -232 16 -16 15 -18 39 -18 284 0 201 -3 270 -12 275 -13 8 -169 12
-204 5z"/>
</g>
</svg>
