<?xml version="1.0" encoding="utf-8"?>
<!-- Generator: Adobe Illustrator 16.0.0, SVG Export Plug-In . SVG Version: 6.00 Build 0)  -->
<!DOCTYPE svg PUBLIC "-//W3C//DTD SVG 1.1//EN" "http://www.w3.org/Graphics/SVG/1.1/DTD/svg11.dtd">
<svg version="1.1" id="Layer_1" xmlns="http://www.w3.org/2000/svg" xmlns:xlink="http://www.w3.org/1999/xlink" x="0px" y="0px"
	 width="200px" height="200px" viewBox="0 0 200 200" enable-background="new 0 0 200 200" xml:space="preserve">
<g>
	<path fill="#FFFFFF" d="M100,195c-52.383,0-95-42.617-95-95S47.617,5,100,5s95,42.617,95,95C195,152.382,152.383,195,100,195z"/>
	<path fill="#F3F3F3" d="M100,10c49.626,0,90,40.374,90,90c0,49.625-40.374,90-90,90s-90-40.375-90-90C10,50.374,50.374,10,100,10
		 M100,0C44.771,0,0,44.771,0,100c0,55.229,44.771,100,100,100c55.229,0,100-44.771,100-100C200,44.771,155.229,0,100,0L100,0z"/>
</g>
<g>
	<circle fill="#F24976" cx="99.262" cy="99.926" r="68.048"/>
	<path fill="#D9EAFC" d="M46.629,54.653v40.394v48.158c12.479,15.211,31.422,24.916,52.633,24.916s40.152-9.705,52.633-24.917
		V54.653H50.223"/>
	<path fill="#C3DDF4" d="M51.754,54.746h-5.125v88.459c1.717,2.093,3.561,4.077,5.512,5.95V55.117
		C52.141,54.768,51.907,54.746,51.754,54.746z"/>
	<path fill="#52BBEF" d="M143.797,60.607H64.68c0.008,0.018,0.012,0.038,0.022,0.053c0.052,0.071-10.81-0.053-10.81-0.053v51.499
		c0,0.459,0.375,0.834,0.832,0.834h89.07c0.459,0,0.834-0.375,0.834-0.834V61.441C144.63,60.982,144.255,60.607,143.797,60.607z"/>
	<g>
		<path fill="#EEF6FF" d="M127.409,155.268c0,0.457-0.375,0.834-0.833,0.834H71.945c-0.459,0-0.834-0.377-0.834-0.834v-4
			c0-0.459,0.375-0.834,0.834-0.834h54.631c0.458,0,0.833,0.375,0.833,0.834V155.268L127.409,155.268z"/>
	</g>
	<path fill="#293D7C" d="M149.344,41.138H49.137c-1.484,0-2.394,0.812-2.394,2.267l-0.114,11.526h105.266V43.687
		C151.895,42.284,150.746,41.138,149.344,41.138z"/>
	<path fill="#FE3745" d="M133.714,49.68c-0.435,0-0.856-0.176-1.164-0.48c-0.306-0.307-0.479-0.73-0.479-1.165
		c0-0.433,0.176-0.855,0.479-1.163c0.308-0.308,0.729-0.483,1.164-0.483c0.433,0,0.858,0.175,1.163,0.483
		c0.307,0.307,0.482,0.73,0.482,1.163c0,0.434-0.176,0.857-0.482,1.165C134.572,49.504,134.146,49.68,133.714,49.68z"/>
	<path fill="#FFAF10" d="M139.109,49.68c-0.433,0-0.857-0.176-1.162-0.482c-0.309-0.305-0.482-0.729-0.482-1.163
		c0-0.433,0.176-0.855,0.482-1.163s0.729-0.483,1.162-0.483c0.435,0,0.856,0.175,1.164,0.483c0.306,0.307,0.48,0.73,0.48,1.163
		c0,0.432-0.176,0.857-0.48,1.163C139.967,49.504,139.544,49.68,139.109,49.68z"/>
	<path fill="#02AF8E" d="M144.507,49.68c-0.435,0-0.856-0.176-1.161-0.48c-0.309-0.307-0.484-0.73-0.484-1.165
		c0-0.433,0.177-0.855,0.484-1.163c0.305-0.308,0.728-0.483,1.161-0.483c0.433,0,0.856,0.175,1.163,0.483
		c0.307,0.307,0.48,0.73,0.48,1.163c0,0.434-0.174,0.857-0.48,1.165C145.361,49.504,144.939,49.68,144.507,49.68z"/>
</g>
<g id="Logo">
	<path id="Shape" fill="#FFFFFF" d="M111.57,98.865V79.88l-12.309-7.602L86.953,79.88v18.984l-4.432-2.737V77.42l16.738-10.34
		L116,77.42v18.708L111.57,98.865z M96.801,101.008l2.461,1.521l2.463-1.521v-22.01l5.416,3.344v15.32v3.389v0.551l-7.879,4.865
		l-7.877-4.865v-0.551v-3.389v-15.32l5.416-3.344V101.008z"/>
	<path id="Highlight" fill="#FFFFFF" d="M111.57,79.88l-12.309-7.602L86.953,79.88v0.015l-4.432-2.476L99.26,67.08L116,77.419
		l-4.432,2.476V79.88H111.57z M107.141,82.371l-5.416,3.026v-6.399l5.416,3.345V82.371z M96.801,85.397l-5.416-3.026v-0.027
		l5.416-3.345V85.397z"/>
</g>
<g>
	<path fill="#FFFFFF" d="M111.917,142.769c0,0.459-0.375,0.834-0.832,0.834H84.432c-0.458,0-0.833-0.375-0.833-0.834v-21.877
		c0-0.457,0.375-0.832,0.833-0.832h26.651c0.459,0,0.834,0.375,0.834,0.832V142.769L111.917,142.769z"/>
	<path fill="#FFFFFF" d="M144.693,142.769c0,0.459-0.375,0.834-0.833,0.834h-26.652c-0.459,0-0.834-0.375-0.834-0.834v-21.877
		c0-0.457,0.375-0.832,0.834-0.832h26.652c0.458,0,0.833,0.375,0.833,0.832V142.769z"/>
</g>
<g>
	<path fill="#EEF6FF" d="M89.11,142.769v-21.877c0-0.457,0.374-0.832,0.833-0.832h-5.512c-0.458,0-0.833,0.375-0.833,0.832v21.877
		c0,0.459,0.375,0.834,0.833,0.834h5.512C89.484,143.603,89.11,143.228,89.11,142.769z"/>
	<path fill="#EEF6FF" d="M121.884,142.769v-21.877c0-0.457,0.375-0.832,0.834-0.832h-5.512c-0.457,0-0.832,0.375-0.832,0.832v21.877
		c0,0.459,0.375,0.834,0.832,0.834h5.512C122.259,143.603,121.884,143.228,121.884,142.769z"/>
</g>
<g>
	<path fill="#445EA0" d="M77.227,124.394H55.91c-1.15,0-2.082-0.933-2.082-2.082c0-1.15,0.932-2.084,2.082-2.084h21.316
		c1.15,0,2.083,0.934,2.083,2.084C79.31,123.461,78.377,124.394,77.227,124.394z"/>
	<path fill="#445EA0" d="M77.227,130.771H55.91c-1.15,0-2.082-0.933-2.082-2.082c0-1.151,0.932-2.084,2.082-2.084h21.316
		c1.15,0,2.083,0.933,2.083,2.084C79.31,129.838,78.377,130.771,77.227,130.771z"/>
	<path fill="#445EA0" d="M77.227,137.147H55.91c-1.15,0-2.082-0.934-2.082-2.084c0-1.149,0.932-2.082,2.082-2.082h21.316
		c1.15,0,2.083,0.933,2.083,2.082C79.31,136.214,78.377,137.147,77.227,137.147z"/>
	<path fill="#445EA0" d="M66.611,143.522H55.91c-1.15,0-2.082-0.934-2.082-2.084c0-1.149,0.932-2.082,2.082-2.082h10.701
		c1.15,0,2.083,0.933,2.083,2.082C68.694,142.589,67.762,143.522,66.611,143.522z"/>
</g>
</svg>
