<svg xmlns="http://www.w3.org/2000/svg" width="39.29" height="42.307" viewBox="0 0 39.29 42.307">
    <defs>
        <style>
            .cls-1{fill:#18424d}
        </style>
    </defs>
    <g id="return-on-investment" transform="translate(-4.494 -2)">
        <path id="Path_987" d="M31.614 9.239a.6.6 0 0 1-.43-1.032l2.587-2.587-2.587-2.588a.6.6 0 1 1 .855-.855l3.015 3.015a.6.6 0 0 1 0 .855l-3.015 3.015a.6.6 0 0 1-.425.177z" class="cls-1" data-name="Path 987" transform="translate(-10.489)"/>
        <path id="Path_988" d="M24.14 46.281a19.646 19.646 0 1 1 0-39.292.6.6 0 1 1 0 1.209 18.434 18.434 0 1 0 11.06 3.686.6.6 0 0 1 .725-.967A19.647 19.647 0 0 1 24.14 46.281z" class="cls-1" data-name="Path 988" transform="translate(0 -1.974)"/>
        <path id="Path_989" d="M28.827 43.807a12.485 12.485 0 1 1 12.486-12.486 12.485 12.485 0 0 1-12.486 12.486zm0-23.762A11.277 11.277 0 1 0 40.1 31.321a11.277 11.277 0 0 0-11.273-11.276z" class="cls-1" data-name="Path 989" transform="translate(-4.687 -6.661)"/>
        <path id="Path_990" d="M34.631 35.756a3.619 3.619 0 1 1 3.619-3.619.6.6 0 1 1-1.209 0 2.41 2.41 0 1 0-2.41 2.41.6.6 0 1 1 0 1.209z" class="cls-1" data-name="Path 990" transform="translate(-10.491 -10.491)"/>
        <path id="Path_991" d="M34.631 45.733a3.626 3.626 0 0 1-3.619-3.619.6.6 0 1 1 1.209 0 2.41 2.41 0 1 0 2.41-2.411.6.6 0 1 1 0-1.209 3.62 3.62 0 1 1 0 7.239z" class="cls-1" data-name="Path 991" transform="translate(-10.491 -14.438)"/>
        <path id="Path_992" d="M36.6 42.242a.6.6 0 0 1-.6-.6v-14.7a.6.6 0 1 1 1.209 0v14.7a.6.6 0 0 1-.609.6z" class="cls-1" data-name="Path 992" transform="translate(-12.464 -9.625)"/>
    </g>
</svg>
