<svg xmlns="http://www.w3.org/2000/svg" width="79.963" height="79.964" viewBox="0 0 79.963 79.964">
    <defs>
        <style>
            .cls-1{fill:#f79220}.cls-4{fill:#404242}
        </style>
    </defs>
    <g id="boss" transform="translate(-1.319 -1.318)">
        <g id="Group_105" data-name="Group 105" transform="translate(1.319 1.318)">
            <path id="Path_1506" d="M86.3 40.663l-4.08-.509a1.333 1.333 0 0 1-1.129-1 34.426 34.426 0 0 0-3.961-9.525 1.334 1.334 0 0 1 .087-1.511l2.536-3.258a1.335 1.335 0 0 0-.109-1.763l-7.77-7.77a1.335 1.335 0 0 0-1.763-.11l-3.274 2.549a1.334 1.334 0 0 1-1.508.089 34.418 34.418 0 0 0-9.5-3.931 1.333 1.333 0 0 1-1-1.129L54.3 8.67a1.335 1.335 0 0 0-1.321-1.17H41.99a1.335 1.335 0 0 0-1.324 1.17l-.514 4.123a1.334 1.334 0 0 1-1 1.129 34.428 34.428 0 0 0-9.5 3.931 1.333 1.333 0 0 1-1.508-.089l-3.274-2.549a1.335 1.335 0 0 0-1.763.11l-7.77 7.77a1.335 1.335 0 0 0-.11 1.763l2.536 3.258a1.334 1.334 0 0 1 .087 1.511 34.423 34.423 0 0 0-3.961 9.525 1.333 1.333 0 0 1-1.129 1l-4.08.509a1.335 1.335 0 0 0-1.18 1.327v10.988A1.335 1.335 0 0 0 8.673 54.3l4.052.505a1.333 1.333 0 0 1 1.13 1.006 34.418 34.418 0 0 0 3.952 9.575 1.333 1.333 0 0 1-.089 1.508l-2.5 3.21a1.335 1.335 0 0 0 .11 1.763l7.77 7.77a1.335 1.335 0 0 0 1.763.109l3.194-2.486a1.333 1.333 0 0 1 1.511-.087 34.429 34.429 0 0 0 9.6 3.982 1.333 1.333 0 0 1 1 1.129l.5 4.008a1.335 1.335 0 0 0 1.324 1.17h10.989a1.335 1.335 0 0 0 1.324-1.17l.5-4.008a1.333 1.333 0 0 1 1-1.129 34.419 34.419 0 0 0 9.6-3.982 1.333 1.333 0 0 1 1.511.087l3.194 2.486a1.335 1.335 0 0 0 1.763-.109l7.77-7.77a1.334 1.334 0 0 0 .109-1.763l-2.5-3.21a1.333 1.333 0 0 1-.089-1.508 34.418 34.418 0 0 0 3.952-9.575 1.333 1.333 0 0 1 1.13-1.006L86.3 54.3a1.335 1.335 0 0 0 1.17-1.324V41.988a1.335 1.335 0 0 0-1.17-1.324z" class="cls-1" data-name="Path 1506" transform="translate(-7.503 -7.5)"/>
            <g id="Group_104" data-name="Group 104" transform="translate(15.992 16.015)">
                <g id="Group_101" data-name="Group 101">
                    <circle id="Ellipse_95" cx="23.989" cy="23.989" r="23.989" fill="#fff" data-name="Ellipse 95"/>
                </g>
                <path id="Path_1507" fill="#f79220" d="M246.35 107.038q-.934 0-1.85.07a23.99 23.99 0 0 1 0 47.838q.916.07 1.85.07a23.989 23.989 0 0 0 0-47.978z" data-name="Path 1507" opacity="0.201" transform="translate(-222.361 -107.038)"/>
                <g id="Group_103" data-name="Group 103" transform="translate(10.662 5.331)">
                    <path id="Path_1508" d="M191.824 272.7l-5.459.8-5.2-.8a8 8 0 0 0-8 8v9.286a24 24 0 0 0 26.655 0V280.7a8 8 0 0 0-7.996-8z" class="cls-4" data-name="Path 1508" transform="translate(-173.166 -251.381)"/>
                    <path id="Path_1509" d="M269.856 272.7h-3.7a8 8 0 0 1 8 8v11.314a23.937 23.937 0 0 0 3.7-2.027V280.7a8 8 0 0 0-8-8z" class="cls-4" data-name="Path 1509" transform="translate(-251.198 -251.381)"/>
                    <g id="Group_102" data-name="Group 102" transform="translate(3.998)">
                        <path id="Path_1510" d="M233.528 318.338l-4.188 6.98a1.333 1.333 0 0 1-2.286 0l-4.188-6.98v-2.9h10.662z" class="cls-1" data-name="Path 1510" transform="translate(-218.868 -287.241)"/>
                        <path id="Path_1511" d="M222.483 272.7l2.077 8.307a1.333 1.333 0 0 1-1.714 1.588l-5.693-1.9-5.693 1.9a1.333 1.333 0 0 1-1.714-1.588l2.077-8.307z" class="cls-1" data-name="Path 1511" transform="translate(-207.823 -251.381)"/>
                        <path id="Path_1512" fill="#f2cdbe" d="M245.075 251.205h3.261v6.918h-3.261z" data-name="Path 1512" transform="translate(-237.504 -233.341)"/>
                        <path id="Path_1513" d="M222.293 171.274v8.326a8 8 0 0 1-8.133 8 8.082 8.082 0 0 1-7.86-8.127v-8.192z" class="cls-1" data-name="Path 1513" transform="translate(-204.967 -166.27)"/>
                        <path id="Path_1515" d="M222.867 272.7l5.331 8 5.331-8z" class="cls-1" data-name="Path 1515" transform="translate(-218.869 -251.381)"/>
                        <path id="Path_1516" d="M216.675 146.837V145.5a5.331 5.331 0 0 0-5.331-5.331h-8a5.331 5.331 0 0 0-5.331 5.331v1.333a1.333 1.333 0 0 0 1.333 1.333h15.993a1.333 1.333 0 0 0 1.336-1.329z" class="cls-4" data-name="Path 1516" transform="translate(-198.017 -140.173)"/>
                        <path id="Path_1517" d="M261.568 140.172h-3.7a5.331 5.331 0 0 1 5.332 5.328v1.333a1.333 1.333 0 0 1-1.333 1.333h3.7a1.333 1.333 0 0 0 1.333-1.333V145.5a5.331 5.331 0 0 0-5.332-5.328z" class="cls-4" data-name="Path 1517" transform="translate(-248.241 -140.172)"/>
                    </g>
                </g>
            </g>
        </g>
    </g>
</svg>
