<svg xmlns="http://www.w3.org/2000/svg" width="38.968" height="38.968" viewBox="0 0 38.968 38.968">
    <defs>
        <style>
            .cls-1{fill:#18424d}
        </style>
    </defs>
    <g id="cash-back">
        <path id="Path_1002" d="M3.991 23.82A16.092 16.092 0 0 1 7.164 9.156 5.278 5.278 0 0 0 15.891 3.8a16.108 16.108 0 0 1 3.593-.4 15.923 15.923 0 0 1 10.479 3.878H28.73a.947.947 0 0 0-.946.946v1.507a.947.947 0 0 0 .946.946h6.055a1.023 1.023 0 0 0 1.021-1.021V3.6a.947.947 0 0 0-.946-.946h-1.507a.947.947 0 0 0-.946.946v1.3A19.3 19.3 0 0 0 19.484 0a19.535 19.535 0 0 0-5.859.893A5.276 5.276 0 0 0 6.43 8.261a17.233 17.233 0 0 0-3.586 15.682l-1.075.326a18.393 18.393 0 0 1-.63-4.785A18.175 18.175 0 0 1 4.594 8.76a.569.569 0 1 0-.922-.667A19.307 19.307 0 0 0 0 19.484a19.523 19.523 0 0 0 .724 5.281.952.952 0 0 0 1.186.651l1.443-.438a.95.95 0 0 0 .637-1.158zM32.57 6.62a.569.569 0 0 0 .976-.4V3.793h1.123v5.746h-5.747V8.416H31.4a.569.569 0 0 0 .4-.966 17.061 17.061 0 0 0-12.316-5.189 17.235 17.235 0 0 0-4.061.484 5.307 5.307 0 0 0-.729-.978 18.445 18.445 0 0 1 4.79-.629 18.175 18.175 0 0 1 13.085 5.487zM10.853 1.243a4.141 4.141 0 1 1-4.141 4.141 4.146 4.146 0 0 1 4.141-4.141z" class="cls-1" data-name="Path 1002"/>
        <path id="Path_1003" d="M169.729 424.418a18.387 18.387 0 0 1-20.35 3.836.569.569 0 0 0-.457 1.043 19.526 19.526 0 0 0 21.612-4.073.569.569 0 1 0-.805-.805z" class="cls-1" data-name="Path 1003" transform="translate(-137.272 -391.962)"/>
        <path id="Path_1004" d="M76.58 176.3a.947.947 0 0 0-1.192-.641l-1.439.449a.95.95 0 0 0-.627 1.163 16.066 16.066 0 0 1-15.831 20.542 15.948 15.948 0 0 1-10.109-3.876h1.236a.947.947 0 0 0 .946-.946v-1.507a.947.947 0 0 0-.946-.946h-6.055a1.023 1.023 0 0 0-1.021 1.021v6.055a.947.947 0 0 0 .946.946H44a.947.947 0 0 0 .946-.946v-1.3a19.44 19.44 0 0 0 2.744 2.039.569.569 0 1 0 .6-.97 18.351 18.351 0 0 1-3.5-2.8.569.569 0 0 0-.976.4v2.431h-1.133v-5.746h5.746v1.132h-2.478a.569.569 0 0 0-.408.966 17.087 17.087 0 0 0 11.925 5.186h.4a17.237 17.237 0 0 0 16.6-21.817l1.072-.335a18.382 18.382 0 0 1 .67 4.929 18.146 18.146 0 0 1-3.7 11.048.569.569 0 1 0 .908.687 19.277 19.277 0 0 0 3.926-11.735 19.51 19.51 0 0 0-.762-5.429z" class="cls-1" data-name="Path 1004" transform="translate(-38.38 -162.251)"/>
        <path id="Path_1005" d="M101.289 104.2H118.8a1.928 1.928 0 0 0 1.926-1.926V90.71a1.928 1.928 0 0 0-1.926-1.926h-.628a3.862 3.862 0 0 0-3.595-2.477c-.117 0-.233.007-.349.017a3.846 3.846 0 1 0-7.145 2.459h-5.794a1.928 1.928 0 0 0-1.926 1.926v3.045h-.1a1.33 1.33 0 0 0-1.328 1.328V97.9a1.33 1.33 0 0 0 1.328 1.328h.1v3.045a1.928 1.928 0 0 0 1.926 1.927zm15.623-15.413h-3.149a3.793 3.793 0 0 0 .46-1.314 2.7 2.7 0 0 1 2.689 1.314zm-9.2-1.907a2.708 2.708 0 1 1 5.416 0 2.684 2.684 0 0 1-.787 1.907H108.5a2.68 2.68 0 0 1-.787-1.91zm-7.212 5.537h.519a.569.569 0 1 0 0-1.139h-.519v-.568a.788.788 0 0 1 .787-.787H118.8a.788.788 0 0 1 .788.787v11.561a.788.788 0 0 1-.788.787h-17.51a.788.788 0 0 1-.787-.787v-.571h.519a.569.569 0 1 0 0-1.139h-.522v-1.334h3.811a1.33 1.33 0 0 0 1.328-1.328v-2.816a1.33 1.33 0 0 0-1.328-1.328H100.5zM99.077 97.9v-2.817a.19.19 0 0 1 .19-.19h5.046a.19.19 0 0 1 .19.19V97.9a.19.19 0 0 1-.19.19h-5.046a.19.19 0 0 1-.19-.19z" class="cls-1" data-name="Path 1005" transform="translate(-90.485 -76.711)"/>
        <path id="Path_1006" d="M119.008 34.3a2.116 2.116 0 0 0 .867.355v.1a.569.569 0 1 0 1.139 0v-.158a1.8 1.8 0 0 0 1.177-1.39 1.592 1.592 0 0 0-1.081-1.8 4.258 4.258 0 0 1-1.068-.493.269.269 0 0 1-.04-.233.385.385 0 0 1 .248-.3.764.764 0 0 1 .707.106l-.009-.008.157.066a.557.557 0 0 0 .615-.9 1.754 1.754 0 0 0-.707-.37v-.086a.569.569 0 1 0-1.139 0v.111a1.514 1.514 0 0 0-.991 1.168 1.362 1.362 0 0 0 .456 1.34 5.051 5.051 0 0 0 1.391.671.451.451 0 0 1 .337.54.632.632 0 0 1-.628.533 1.134 1.134 0 0 1-.831-.216.569.569 0 0 0-.822.224.584.584 0 0 0 .221.743z" class="cls-1" data-name="Path 1006" transform="translate(-109.694 -26.43)"/>
        <path id="Path_1007" d="M136.592 253.4h-.906a.569.569 0 1 0 0 1.139h.906a.569.569 0 1 0 0-1.139z" class="cls-1" data-name="Path 1007" transform="translate(-124.833 -234.115)"/>
        <path id="Path_1008" d="M222.658 192.55h1.947a.569.569 0 1 0 0-1.139h-1.947a.569.569 0 0 0 0 1.139z" class="cls-1" data-name="Path 1008" transform="translate(-205.186 -176.843)"/>
        <path id="Path_1009" d="M281.131 192.55h1.947a.569.569 0 1 0 0-1.139h-1.947a.569.569 0 1 0 0 1.139z" class="cls-1" data-name="Path 1009" transform="translate(-259.209 -176.843)"/>
        <path id="Path_1010" d="M166.7 191.981a.569.569 0 0 0-.569-.569h-1.947a.569.569 0 1 0 0 1.139h1.947a.569.569 0 0 0 .569-.57z" class="cls-1" data-name="Path 1010" transform="translate(-151.161 -176.844)"/>
        <path id="Path_1011" d="M338.385 192.551h.519v.519a.569.569 0 1 0 1.139 0v-.712a.947.947 0 0 0-.946-.946h-.712a.569.569 0 1 0 0 1.138z" class="cls-1" data-name="Path 1011" transform="translate(-312.105 -176.845)"/>
        <path id="Path_1012" d="M352.684 239.335a.569.569 0 0 0-.569.569v2a.569.569 0 1 0 1.139 0v-2a.569.569 0 0 0-.57-.569z" class="cls-1" data-name="Path 1012" transform="translate(-325.316 -221.119)"/>
        <path id="Path_1013" d="M338.381 301.335h.712a.947.947 0 0 0 .946-.946v-.712a.569.569 0 1 0-1.139 0v.519h-.519a.569.569 0 1 0 0 1.138z" class="cls-1" data-name="Path 1013" transform="translate(-312.101 -276.343)"/>
        <path id="Path_1014" d="M165.139 313.409h-1.947a.569.569 0 0 0 0 1.139h1.947a.569.569 0 0 0 0-1.139z" class="cls-1" data-name="Path 1014" transform="translate(-150.246 -289.556)"/>
        <path id="Path_1015" d="M221.665 314.547h1.947a.569.569 0 1 0 0-1.139h-1.947a.569.569 0 0 0 0 1.139z" class="cls-1" data-name="Path 1015" transform="translate(-204.269 -289.555)"/>
        <path id="Path_1016" d="M280.139 314.547h1.947a.569.569 0 0 0 0-1.139h-1.947a.569.569 0 0 0 0 1.139z" class="cls-1" data-name="Path 1016" transform="translate(-258.292 -289.555)"/>
    </g>
</svg>
