<svg xmlns="http://www.w3.org/2000/svg" width="54.17" height="51.842" viewBox="0 0 54.17 51.842">
    <defs>
        <style>
            .cls-1{fill:#fff}.cls-4{fill:#477b9e}
        </style>
    </defs>
    <g id="certificate" transform="translate(0 -11)">
        <path id="Path_1715" d="M0 11h54.17v41.262H0z" class="cls-1" data-name="Path 1715"/>
        <path id="Path_1716" d="M256 11h27.085v41.262H256z" class="cls-1" data-name="Path 1716" transform="translate(-228.915)"/>
        <path id="Path_1717" fill="#e6f2ff" d="M30 41h47.822v34.914H30z" data-name="Path 1717" transform="translate(-26.826 -26.826)"/>
        <path id="Path_1718" fill="#efefef" d="M256 41h23.911v34.914H256z" data-name="Path 1718" transform="translate(-228.915 -26.826)"/>
        <g id="Group_158" data-name="Group 158" transform="translate(6.348 36.392)">
            <path id="Path_1719" d="M75.976 260.522h-1.587a4.746 4.746 0 0 1-3.174-1.215 5.015 5.015 0 0 1-6.348 0 4.746 4.746 0 0 1-3.174 1.215H60v-3.174h1.693a1.588 1.588 0 0 0 1.587-1.587V251h3.174v4.761a1.587 1.587 0 0 0 3.174 0v-1.587H72.8v1.587a1.588 1.588 0 0 0 1.587 1.587h1.587z" class="cls-4" data-name="Path 1719" transform="translate(-60 -251)"/>
        </g>
        <g id="Group_159" data-name="Group 159" transform="translate(6.348 16.29)">
            <path id="Path_1720" d="M60 61h41.474v3.174H60z" class="cls-1" data-name="Path 1720" transform="translate(-60 -61)"/>
        </g>
        <g id="Group_160" data-name="Group 160" transform="translate(6.348 23.696)">
            <path id="Path_1721" d="M60 131h41.474v3.174H60z" class="cls-1" data-name="Path 1721" transform="translate(-60 -131)"/>
        </g>
        <g id="Group_161" data-name="Group 161" transform="translate(6.348 30.044)">
            <path id="Path_1722" d="M60 191h15.976v3.174H60z" class="cls-1" data-name="Path 1722" transform="translate(-60 -191)"/>
        </g>
        <g id="Group_163" data-name="Group 163" transform="translate(25.498 30.044)">
            <path id="Path_1723" d="M320.761 348.031h-3.174l-1.587 2.43v6.348l1.587 4.155 1.587-.793 1.587.793 1.587-4.155v-6.348z" class="cls-4" data-name="Path 1723" transform="translate(-308.065 -331.417)"/>
            <path id="Path_1724" d="M349.174 356.809v-6.348l-1.587-2.43H346v12.14l1.587.793z" class="cls-4" data-name="Path 1724" transform="translate(-334.891 -331.417)"/>
            <path id="Path_1725" d="M367.348 348.031H361v12.933l6.348 3.251z" class="cls-1" data-name="Path 1725" transform="translate(-348.304 -331.417)"/>
            <g id="Group_162" data-name="Group 162" transform="translate(3.174 16.614)">
                <path id="Path_1726" d="M271 348.031v16.184l6.348-3.251v-12.933z" class="cls-1" data-name="Path 1726" transform="translate(-271 -348.031)"/>
            </g>
            <path id="Path_1727" fill="#5f91b2" d="M252.109 191a11.11 11.11 0 1 0 11.215 11.109A11.109 11.109 0 0 0 252.109 191z" data-name="Path 1727" transform="translate(-241 -191)"/>
            <path id="Path_1728" d="M357.215 202.109A11.2 11.2 0 0 0 346 191v22.218a11.2 11.2 0 0 0 11.215-11.109z" class="cls-4" data-name="Path 1728" transform="translate(-334.891 -191)"/>
            <circle id="Ellipse_97" cx="4" cy="4" r="4" class="cls-1" data-name="Ellipse 97" transform="translate(7.524 6.877)"/>
        </g>
        <g id="Group_164" data-name="Group 164" transform="translate(27.085 16.29)">
            <path id="Path_1730" d="M256 61h20.737v3.174H256z" class="cls-4" data-name="Path 1730" transform="translate(-256 -61)"/>
            <path id="Path_1731" d="M256 131h20.737v3.174H256z" class="cls-4" data-name="Path 1731" transform="translate(-256 -123.594)"/>
        </g>
    </g>
</svg>
