<svg xmlns="http://www.w3.org/2000/svg" width="67.674" height="71.05" viewBox="0 0 67.674 71.05">
    <defs>
        <style>
            .cls-2{fill:#f9f6f6}.cls-3{fill:#e7ecf1}.cls-4{fill:#40596b}.cls-5{fill:#c9e2e7}
        </style>
    </defs>
    <g id="classified" transform="translate(-12.163)">
        <g id="Group_79" data-name="Group 79" transform="translate(12.163)">
            <g id="Group_57" data-name="Group 57" transform="translate(0 21.757)">
                <path id="Path_1104" fill="#c6d0da" d="M17.611 206.076h-1.42a4.028 4.028 0 0 1-4.028-4.028v-43.074a2.191 2.191 0 0 1 2.191-2.191h8.7v43.338a5.979 5.979 0 0 1-5.448 5.955z" data-name="Path 1104" transform="translate(-12.163 -156.783)"/>
            </g>
            <g id="Group_75" data-name="Group 75" transform="translate(4.464)">
                <g id="Group_74" data-name="Group 74">
                    <g id="Group_73" data-name="Group 73">
                        <g id="Group_58" data-name="Group 58">
                            <path id="Path_1105" d="M98.942 65.918V3.234A3.234 3.234 0 0 0 95.708 0H51.155a3.234 3.234 0 0 0-3.235 3.234v63.812a4.028 4.028 0 0 1-3.592 4h49.483a5.131 5.131 0 0 0 5.131-5.131z" class="cls-2" data-name="Path 1105" transform="translate(-44.328)"/>
                            <path id="Path_1106" d="M402.123 0h-5.815a3.234 3.234 0 0 1 3.234 3.234v62.684a5.132 5.132 0 0 1-5.132 5.132h5.815a5.132 5.132 0 0 0 5.132-5.132V3.234A3.234 3.234 0 0 0 402.123 0z" class="cls-3" data-name="Path 1106" transform="translate(-345.83)"/>
                            <path id="Path_1107" d="M153.347 58.575H111.49a1.362 1.362 0 0 1-1.362-1.362V46a1.362 1.362 0 0 1 1.362-1.362h41.858A1.362 1.362 0 0 1 154.709 46v11.213a1.362 1.362 0 0 1-1.362 1.362z" class="cls-4" data-name="Path 1107" transform="translate(-100.997 -38.448)"/>
                        </g>
                        <g id="Group_68" data-name="Group 68" transform="translate(8.227 26.346)">
                            <g id="Group_61" data-name="Group 61">
                                <g id="Group_59" data-name="Group 59">
                                    <path id="Path_1109" d="M121.131 192h-16.444a1.073 1.073 0 0 1 0-2.145h16.443a1.073 1.073 0 0 1 0 2.145z" class="cls-5" data-name="Path 1109" transform="translate(-103.614 -189.851)"/>
                                </g>
                                <g id="Group_60" data-name="Group 60" transform="translate(0 5.597)">
                                    <path id="Path_1110" d="M121.131 232.327h-16.444a1.073 1.073 0 1 1 0-2.145h16.443a1.073 1.073 0 0 1 0 2.145z" class="cls-5" data-name="Path 1110" transform="translate(-103.614 -230.182)"/>
                                </g>
                            </g>
                            <g id="Group_64" data-name="Group 64" transform="translate(0 14.671)">
                                <g id="Group_62" data-name="Group 62">
                                    <path id="Path_1111" d="M121.131 297.717h-16.444a1.073 1.073 0 0 1 0-2.145h16.443a1.073 1.073 0 0 1 0 2.145z" class="cls-5" data-name="Path 1111" transform="translate(-103.614 -295.572)"/>
                                </g>
                                <g id="Group_63" data-name="Group 63" transform="translate(0 5.597)">
                                    <path id="Path_1112" d="M121.131 338.048h-16.444a1.073 1.073 0 1 1 0-2.145h16.443a1.073 1.073 0 0 1 0 2.145z" class="cls-5" data-name="Path 1112" transform="translate(-103.614 -335.903)"/>
                                </g>
                            </g>
                            <g id="Group_67" data-name="Group 67" transform="translate(0 29.342)">
                                <g id="Group_65" data-name="Group 65">
                                    <path id="Path_1113" d="M121.131 403.437h-16.444a1.073 1.073 0 1 1 0-2.145h16.443a1.073 1.073 0 0 1 0 2.145z" class="cls-5" data-name="Path 1113" transform="translate(-103.614 -401.292)"/>
                                </g>
                                <g id="Group_66" data-name="Group 66" transform="translate(0 5.597)">
                                    <path id="Path_1114" d="M121.131 443.768h-16.444a1.073 1.073 0 0 1 0-2.145h16.443a1.073 1.073 0 0 1 0 2.145z" class="cls-5" data-name="Path 1114" transform="translate(-103.614 -441.623)"/>
                                </g>
                            </g>
                        </g>
                        <g id="Group_72" data-name="Group 72" transform="translate(36.027 26.346)">
                            <g id="Group_71" data-name="Group 71">
                                <g id="Group_69" data-name="Group 69">
                                    <path id="Path_1115" d="M321.464 192H305.02a1.073 1.073 0 0 1 0-2.145h16.444a1.073 1.073 0 0 1 0 2.145z" class="cls-5" data-name="Path 1115" transform="translate(-303.947 -189.851)"/>
                                </g>
                                <g id="Group_70" data-name="Group 70" transform="translate(13.725 5.597)">
                                    <path id="Path_1116" d="M406.642 232.327h-2.719a1.073 1.073 0 0 1 0-2.145h2.719a1.073 1.073 0 0 1 0 2.145z" class="cls-5" data-name="Path 1116" transform="translate(-402.85 -230.182)"/>
                                </g>
                            </g>
                        </g>
                    </g>
                </g>
            </g>
            <g id="Group_78" data-name="Group 78" transform="translate(29.926 33.301)">
                <g id="Group_76" data-name="Group 76" transform="translate(22.039 22.039)">
                    <path id="Path_1117" d="M401.587 413.75a2.574 2.574 0 0 1-3.639 0l-11.084-11.084a.794.794 0 0 1 0-1.122l2.517-2.517a.794.794 0 0 1 1.123 0l11.084 11.084a2.573 2.573 0 0 1-.001 3.639z" class="cls-4" data-name="Path 1117" transform="translate(-386.632 -398.794)"/>
                </g>
                <g id="Group_77" data-name="Group 77">
                    <circle id="Ellipse_25" cx="15.011" cy="15.011" r="15.011" fill="#f79220" data-name="Ellipse 25"/>
                    <circle id="Ellipse_26" cx="10.614" cy="10.614" r="10.614" class="cls-2" data-name="Ellipse 26" transform="translate(4.396 4.396)"/>
                    <path id="Path_1118" d="M325.445 274.778a10.609 10.609 0 0 0-10.413-2.7 10.614 10.614 0 0 1 0 20.416 10.614 10.614 0 0 0 10.413-17.713z" class="cls-3" data-name="Path 1118" transform="translate(-302.929 -267.273)"/>
                </g>
            </g>
        </g>
    </g>
</svg>
