<svg xmlns="http://www.w3.org/2000/svg" width="94.139" height="92.739" viewBox="0 0 94.139 92.739">
    <defs>
        <style>
            .cls-1,.cls-6{fill:#f79220}.cls-1{fill-rule:evenodd}
        </style>
    </defs>
    <g id="clock_7_" data-name="clock (7)" transform="translate(0 -2.139)">
        <g id="Group_90" data-name="Group 90" transform="translate(1.399 2.139)">
            <g id="Group_88" data-name="Group 88">
                <path id="Path_1188" d="M53.87 7.5A46.37 46.37 0 0 0 7.5 53.87l5.6 3.981 5.6-3.981a35.174 35.174 0 1 1 35.17 35.173l3.981 5.6-3.981 5.6a46.37 46.37 0 1 0 0-92.739z" class="cls-1" data-name="Path 1188" transform="translate(-7.5 -7.5)"/>
                <circle id="Ellipse_89" cx="4.198" cy="4.198" r="4.198" fill="#f0d5b3" data-name="Ellipse 89" transform="rotate(-9.25 285.561 -234.948)"/>
                <path id="Path_1189" fill="#e8bc85" fill-rule="evenodd" d="M233.5 237.69a4.2 4.2 0 0 0 5.6 3.959 4.208 4.208 0 0 1 0-7.918 4.2 4.2 0 0 0-5.6 3.959z" data-name="Path 1189" transform="translate(-191.329 -191.32)"/>
                <path id="Path_1190" d="M113.436 78.272a35.174 35.174 0 0 1-35.174 35.174l3.853 5.418A40.773 40.773 0 1 0 37.67 82.125l5.418-3.853a35.174 35.174 0 1 1 70.347 0z" class="cls-1" data-name="Path 1190" transform="translate(-31.892 -31.902)"/>
            </g>
            <g id="Group_89" data-name="Group 89" transform="translate(46.37 4.198)">
                <path id="Path_1191" fill="#fff" d="M298.171 77.769h-2.8v-2.8h2.8zm0-5.6h-2.8A39.417 39.417 0 0 0 256 32.8V30a42.171 42.171 0 0 1 42.171 42.171z" data-name="Path 1191" transform="translate(-256 -30)"/>
            </g>
        </g>
        <g id="Group_91" data-name="Group 91" transform="translate(0 11.935)">
            <path id="Path_1192" fill="#e57900" d="M13.995 97.3v-.722a33.774 33.774 0 1 1 58.586 22.911l2.056 1.9A36.572 36.572 0 1 0 11.2 95.846L7 98.837l-4.2-2.982a44.784 44.784 0 0 1 12.222-30.1l-2.037-1.919A47.58 47.58 0 0 0 0 96.573v.727l7 4.977z" data-name="Path 1192" transform="translate(0 -60)"/>
            <path id="Path_1194" d="M101.407 350.274h-7.251v-8.528h-2.8v11.327h10.05v8.527h2.8v-19.854h-2.8z" class="cls-6" data-name="Path 1194" transform="translate(-74.31 -289.173)"/>
            <path id="Path_1195" d="M7.5 344.545h10.05v5.729H7.5V361.6h12.849v-2.8H10.3v-5.729h10.05v-11.325H7.5z" class="cls-6" data-name="Path 1195" transform="translate(-6.101 -289.173)"/>
            <path id="Path_1196" d="M180.682 346.01h-2.668v-4.264h-2.8v11.327h2.8v-4.264h2.668v4.264h2.8v-11.327h-2.8z" class="cls-6" data-name="Path 1196" transform="translate(-142.52 -289.173)"/>
            <path id="Path_1197" d="M209.039 180.53a5.562 5.562 0 0 0-.778-2.841l12.493-12.489-1.979-1.979-12.493 12.489a5.581 5.581 0 0 0-5.682 0l-7.237-7.237-1.979 1.979 7.237 7.237a5.6 5.6 0 1 0 10.418 2.841zm-8.4 0a2.8 2.8 0 1 1 2.8 2.8 2.8 2.8 0 0 1-2.797-2.8z" class="cls-6" data-name="Path 1197" transform="translate(-155.672 -143.957)"/>
            <path id="Path_1198" d="M0 0h2.8v2.8H0z" data-name="Path 1198" transform="rotate(-45 52.25 -72.674)"/>
            <path id="Path_1199" d="M0 0h2.8v2.8H0z" data-name="Path 1199" transform="rotate(-45 102.742 -51.755)"/>
            <path id="Path_1200" d="M407 248.5h2.8v2.8H407z" data-name="Path 1200" transform="translate(-331.055 -213.326)"/>
            <path id="Path_1201" d="M0 0h2.8v2.8H0z" data-name="Path 1201" transform="rotate(-45 31.339 -22.192)"/>
            <path id="Path_1202" d="M248.5 407h2.8v2.8h-2.8z" data-name="Path 1202" transform="translate(-202.13 -342.251)"/>
            <path id="Path_1203" d="M248.5 90h2.8v2.8h-2.8z" data-name="Path 1203" transform="translate(-202.13 -84.402)"/>
            <path id="Path_1204" d="M90 248.5h2.8v2.8H90z" data-name="Path 1204" transform="translate(-73.206 -213.326)"/>
        </g>
    </g>
</svg>
