<svg xmlns="http://www.w3.org/2000/svg" width="93.601" height="85.062" viewBox="0 0 93.601 85.062">
    <defs>
        <style>
            .cls-2{fill:#d1e8ff}.cls-3{fill:#f5f5ff}
        </style>
    </defs>
    <g id="code_2_" data-name="code (2)" transform="translate(0 -23.356)">
        <path id="Path_1205" fill="#9abadb" d="M253.658 408.217v-10.978l-17.674-3.659 3.659 14.637z" data-name="Path 1205" transform="translate(-192.843 -302.542)"/>
        <g id="Group_92" data-name="Group 92" transform="translate(32.785 74.572)">
            <path id="Path_1206" d="M179.337 408.217h14.015V393.58l-14.015 3.659z" class="cls-2" data-name="Path 1206" transform="translate(-179.337 -377.114)"/>
            <path id="Path_1207" d="M286.444 307.167l-50.46-3.659 3.659 20.126h46.8z" class="cls-2" data-name="Path 1207" transform="translate(-225.628 -303.508)"/>
        </g>
        <path id="Path_1208" d="M0 307.167v16.466h46.8v-20.125z" class="cls-3" data-name="Path 1208" transform="translate(0 -228.936)"/>
        <path id="Path_1209" d="M270.07 458.644h-22.248l-1.83 2.742 1.83 2.742h22.248z" class="cls-2" data-name="Path 1209" transform="translate(-201.021 -355.711)"/>
        <path id="Rectangle_189" d="M0 0H22.248V5.484H0z" class="cls-3" data-name="Rectangle 189" transform="translate(24.552 102.932)"/>
        <path id="Path_1210" fill="#294b6e" d="M286.444 23.356h-46.8l-3.659 27.437 3.659 27.437h46.8z" data-name="Path 1210" transform="translate(-192.843)"/>
        <path id="Rectangle_190" fill="#6283a3" d="M0 0H46.8V54.875H0z" data-name="Rectangle 190" transform="translate(0 23.356)"/>
        <path id="Path_1211" d="M113.883 123.024l-14.529-14.529 14.529-14.529 3.878 3.878-10.651 10.651 10.651 10.651z" class="cls-3" data-name="Path 1211" transform="translate(-81.191 -57.702)"/>
        <g id="Group_93" data-name="Group 93" transform="translate(40.729 33.259)">
            <path id="Path_1212" d="M315.837 123.024l-3.878-3.878 10.651-10.651-10.651-10.651 3.878-3.878 14.529 14.529z" class="cls-2" data-name="Path 1212" transform="translate(-295.657 -90.96)"/>
            <path id="Rectangle_191" d="M0 0H5.484V34.666H0z" class="cls-2" data-name="Rectangle 191" transform="rotate(-168.81 4.415 17.269)"/>
        </g>
    </g>
</svg>
