<svg xmlns="http://www.w3.org/2000/svg" id="correct_1_" width="84" height="84" data-name="correct (1)" viewBox="0 0 84 84">
    <path id="Path_1479" fill="#09426d" d="M71.7 12.3a42 42 0 0 0-59.4 59.4 42 42 0 1 0 59.4-59.4z" data-name="Path 1479"/>
    <path id="Path_1480" fill="#012641" d="M285.7 12.3A41.725 41.725 0 0 0 256 0v84a42 42 0 0 0 29.7-71.7z" data-name="Path 1480" transform="translate(-214)"/>
    <path id="Path_1481" fill="#c7efff" d="M144.942 197.861a2.453 2.453 0 0 1-1.74-.721l-13.18-13.18a2.461 2.461 0 0 1 3.48-3.48l11.44 11.44 21.731-21.732a2.461 2.461 0 0 1 3.48 3.48l-23.471 23.472a2.453 2.453 0 0 1-1.74.721z" data-name="Path 1481" transform="translate(-108.088 -141.664)"/>
    <path id="Path_1482" fill="#91e1ff" d="M276.066 170.188a2.461 2.461 0 0 0-3.48 0L256 186.773v6.96l20.066-20.066a2.461 2.461 0 0 0 0-3.479z" data-name="Path 1482" transform="translate(-214 -141.664)"/>
</svg>
