<svg xmlns="http://www.w3.org/2000/svg" width="120.18" height="118.142" viewBox="0 0 120.18 118.142">
    <defs>
        <style>
            .cls-5{fill:#b3e7f5}
        </style>
    </defs>
    <g id="gear_2_" data-name="gear (2)" transform="translate(0 -4.343)">
        <path id="Path_1151" fill="#ffaa20" d="M106.468 58.615a46 46 0 0 0-2.9-12.794l10.832-8.674-17.6-21.976-10.761 8.621a45.97 45.97 0 0 0-12-5.77V4.343H45.884v13.768a45.924 45.924 0 0 0-12.494 6.227l-10.877-8.453L5.235 38.116l11.07 8.6A46.07 46.07 0 0 0 13.677 59.5L0 62.773l6.551 27.381 13.942-3.334a46.336 46.336 0 0 0 8.149 9.862l-6.117 12.975 25.469 12 6.175-13.1a46.779 46.779 0 0 0 12.705-.106l6.326 12.93 25.291-12.374-6.309-12.9a46.273 46.273 0 0 0 7.994-10.054l13.855 3.1 6.149-27.475zM60.11 91.846h-.42a29.428 29.428 0 0 1 0-58.85h.42a29.427 29.427 0 0 1 0 58.855z" data-name="Path 1151"/>
        <path id="Path_1152" fill="#06bff0" d="M55.256 288.243L14.369 329.13.19 314.952l40.732-40.58 7.128 6.9z" data-name="Path 1152" transform="translate(-.145 -206.646)"/>
        <path id="Path_1153" fill="#ff9a00" d="M314.786 61.684l-6.15 27.475-13.855-3.1a46.274 46.274 0 0 1-7.994 10.054l6.309 12.9-25.291 12.374-6.326-12.928a46.225 46.225 0 0 1-7.184.486v-17.1h.42a29.427 29.427 0 0 0 0-58.855h-.42V4.343h14.35v13.679a45.97 45.97 0 0 1 12 5.77l10.765-8.62 17.6 21.976-10.831 8.674a45.993 45.993 0 0 1 2.9 12.794z" data-name="Path 1153" transform="translate(-194.606)"/>
        <path id="Path_1154" fill="#00afde" d="M78.373 310.733L37.486 351.62l-7.086-7.088 40.767-40.772z" data-name="Path 1154" transform="translate(-23.263 -229.136)"/>
        <path id="Path_1155" d="M198.169 195.833a22.01 22.01 0 0 1-30.9.185l-.188-.185a21.983 21.983 0 0 1 23.679-35.966l4.969 1.978-11.889 11.886 5.34 5.34 11.889-11.886 1.976 4.969a21.971 21.971 0 0 1-4.876 23.679z" class="cls-5" data-name="Path 1155" transform="translate(-122.937 -117.823)"/>
        <path id="Path_1156" d="M219.772 224.784a22.01 22.01 0 0 1-30.9.185l19.43-19.43 2.482 2.482 11.889-11.886 1.976 4.969a21.972 21.972 0 0 1-4.877 23.68z" class="cls-5" data-name="Path 1156" transform="translate(-144.539 -146.774)"/>
    </g>
</svg>
