<svg xmlns="http://www.w3.org/2000/svg" width="78.155" height="78.802" viewBox="0 0 78.155 78.802">
    <g id="Group_167" data-name="Group 167" transform="translate(-334.268 -4352)">
        <g id="certified" transform="translate(336.002 4345.067)">
            <g id="Group_121" data-name="Group 121" transform="translate(-.002 17.933)">
                <path id="Path_1551" d="M115.047 275.468h-.005v.009z" data-name="Path 1551" transform="translate(-93.018 -226.168)"/>
                <path id="Path_1552" d="M148.018 261.418v.008h.007z" data-name="Path 1552" transform="translate(-119.683 -214.809)"/>
                <path id="Path_1553" d="M211.245 240.265h-.006z" data-name="Path 1553" transform="translate(-170.802 -197.705)"/>
                <path id="Path_1554" d="M74.276 46.832c-.209-.118-.167-.286-.171-.456a2.812 2.812 0 0 0-.029-.666c-.1-.359-.265-.7-.377-.989a1.954 1.954 0 0 1-.689-.215c-.083-.068.019-.359.035-.549h.1c-.055-.093-.409-.163-.042-.295.044-.015.065-.147.067-.225 0-.2-.006-.4-.022-.6a1.706 1.706 0 0 0-.071-.4c-.1-.283-.23-.554-.315-.839s-.124-.611-.206-.912c-.117-.427-.255-.849-.385-1.273-.009-.03-.014-.062-.026-.091-.109-.276-.241-.544-.326-.827-.1-.321-.143-.657-.223-.984-.057-.236-.131-.468-.2-.7-.117-.371-.241-.74-.355-1.111a7.647 7.647 0 0 0-.223-.784c-.161-.377-.415-.72-.536-1.107a1.9 1.9 0 0 0-.4-.719 2.725 2.725 0 0 0-1.316-.928 2.092 2.092 0 0 1-.523-.2 2.18 2.18 0 0 0-1.5-.1 6.42 6.42 0 0 0-1.117.338c-.04.012-.1-.007-.123.017-.291.374-.437.051-.584-.133-.323-.4-.619-.828-.94-1.232-.239-.3-.5-.581-.754-.874-.355-.413-.688-.843-1.06-1.239-.4-.433-.836-.842-1.262-1.252s-.869-.829-1.317-1.23c-.359-.319-.737-.618-1.122-.938a.5.5 0 0 1-.062.081.833.833 0 0 1-.12.068c-.175-.639-.77-.8-1.2-1.132a2.587 2.587 0 0 0-1.51-.794l-.076-.322c-.1-.024-.23-.014-.279-.071-.172-.2-.315-.256-.473 0a.114.114 0 0 1-.114.015.183.183 0 0 1-.065-.123c-.008-.132 0-.266 0-.386a1.064 1.064 0 0 1-.352-.116c-.219-.191-.411-.221-.618.009-.027.03-.123.046-.14.028-.353-.384-.524.095-.782.159-.321.08-.6.372-1.069.181a2.9 2.9 0 0 1 .5-.314.705.705 0 0 0 .316-.931 2.46 2.46 0 0 0-1.107-.606c-.134-.054-.261-.123-.394-.18-.3-.132-.605-.267-.914-.387-.152-.058-.324.016-.467-.175-.1-.132-.359-.145-.548-.208-.226-.078-.458-.145-.682-.232-.258-.1-.5-.243-.763-.321-.34-.1-.694-.156-1.041-.231a.777.777 0 0 1-.091-.025c-.308-.108-.611-.239-.926-.321a4.4 4.4 0 0 1-.825-.161 5.787 5.787 0 0 0-1.342-.243c-.168-.03-.329-.108-.5-.131a2.616 2.616 0 0 0-.475.029.16.16 0 0 0-.1-.075c-.431-.072-.863-.157-1.3-.185-.5-.033-1 0-1.5-.017-.336-.009-.672-.044-1.007-.065a1.894 1.894 0 0 0-.533-.008 3.141 3.141 0 0 0-.569.253l-.09-.457c-.15.335-.276.267-.392.152a1.35 1.35 0 0 1-.449.13c-.424.032-.873-.158-1.263.174-.047.039-.189-.029-.285-.057s-.185-.11-.266-.1c-.143.023-.277.143-.417.146a6.172 6.172 0 0 0-1.571.181c-.288.081-.617.014-.917.073-.422.083-.829.273-1.253.32a1.059 1.059 0 0 0-.776.317A1.328 1.328 0 0 0 29 19.2c-.282.083-.544.23-.825.325-.425.143-.857.269-1.289.392-.332.094-.668.173-.994.256l-.067.206a3.851 3.851 0 0 0-.508.006c-.091.013-.171.091-.262.124-.225.081-.46.139-.681.233s-.427.23-.646.334c-.3.143-.613.27-.914.412-.078.036-.136.138-.211.146a2.411 2.411 0 0 0-1.018.489c-.051.034-.1.092-.156.093a.58.58 0 0 0-.542.635 2.584 2.584 0 0 1-.323.863c-.036-.164-.08-.386.008-.473.217-.211.111-.384.051-.577-.18.067-.345.116-.5.188-.312.146-.509.47-.877.547-.115.023-.206.162-.308.248.062.056.128.11.184.171.217.234.434.468.648.706a2.326 2.326 0 0 1 .152.206c-.2-.117-.392-.243-.6-.35-.239-.122-.329-.5-.684-.419a1.719 1.719 0 0 0-.6.231 12.862 12.862 0 0 1-1.118.794c-.376.22-.653.605-1.022.845-.473.307-.794.768-1.268 1.085a9.614 9.614 0 0 0-1.4 1.378c-.135.139-.246.3-.381.437-.111.115-.257.2-.358.323-.434.522-.853 1.053-1.282 1.578a6 6 0 0 0-.826 1.034c-.194.4-.522.671-.733 1.041a6.809 6.809 0 0 0-.613.917c-.125.342-.407.552-.548.865-.062.138-.2.267-.2.4s.129.258.2.386c.065.114.131.226.219.375l.657-.138.226.238a6.975 6.975 0 0 1-.942.266c-.421.057-.54.125-.656.566-.069-.016-.171-.009-.2-.052-.181-.234-.319-.1-.414.06a4.586 4.586 0 0 0-.257.573c.2.083.044.163-.011.227-.121.141-.3.251-.372.41-.226.506-.411 1.03-.614 1.548-.083.214-.17.426-.252.641-.108.278-.219.554-.314.835-.081.237-.075.546-.229.7a.323.323 0 0 0-.013.514c-.118.136-.267.235-.31.369-.148.459-.269.928-.383 1.4-.138.567-.272 1.135-.381 1.708-.062.333-.073.665-.167 1-.145.526-.1 1.1-.2 1.654a24.782 24.782 0 0 0-.234 2.7c0 .018-.02.035-.025.043-.333.086-.659.165-.984.253a5.173 5.173 0 0 0-.67.212 3.19 3.19 0 0 0-.672.361 3.449 3.449 0 0 0-.684.641 9.427 9.427 0 0 0-.542.926c-.1.17-.075.643.068.672.334.062.235.316.276.514.027.132.065.262.108.44-.192.266-.556.526-.49.991.019.132.125.251.159.384.086.336.154.677.23 1.016a.618.618 0 0 0 .03.089c.107.276.231.548.316.83s.054.684.235.881c.28.3.082.683.312 1a2.96 2.96 0 0 1 .251 1c.058.232.128.462.205.688a8.781 8.781 0 0 1 .336.958c.054.243.047.481.332.5-.041.127-.129.25-.1.334a2.716 2.716 0 0 0 .3.634c.078.12.216.279.33.281.309.007.315.191.308.4a2.281 2.281 0 0 1-.054.324c.089.07.164.128.3.24l-.443.035a1.463 1.463 0 0 0-.014.318 9.98 9.98 0 0 0 .24 1.079 6.765 6.765 0 0 0 .362.822 1.566 1.566 0 0 1 .15.3c.06.3-.042.611.186.907.248.322.377.737.615 1.069a3.706 3.706 0 0 0 .7.66 5 5 0 0 0 .583.358.455.455 0 0 0 .231-.59 2.882 2.882 0 0 0-.427-.548.442.442 0 0 1-.511-.309c-.1-.239-.145-.5-.251-.733-.148-.328-.367-.627-.491-.962-.167-.452-.28-.927-.4-1.394-.087-.332-.15-.67-.233-1a.379.379 0 0 0-.1-.151.97.97 0 0 1-.264-.753 4.527 4.527 0 0 0-.224-1.07 4.208 4.208 0 0 0-.181-.478 8 8 0 0 1-.323-.826c-.1-.386-.153-.786-.243-1.176a5.749 5.749 0 0 0-.208-.661c-.1-.286-.239-.563-.325-.856-.106-.355-.176-.722-.266-1.113l-.311.2c.034-.159.051-.254.074-.35a1.05 1.05 0 0 0 .082-.35 4.966 4.966 0 0 0-.178-.6 6.483 6.483 0 0 0-.218-.726 4.119 4.119 0 0 1-.346-1.416A5.108 5.108 0 0 1 .921 53.9a2.552 2.552 0 0 1 .557-1.011 3.62 3.62 0 0 1 .819-.75 2.606 2.606 0 0 1 .757-.41 10.147 10.147 0 0 1 1.127-.229l.083-.31.035.094a3.4 3.4 0 0 0 .48-.006 3.143 3.143 0 0 0 .323-.123c.113-.029.239-.008.345-.047.266-.1.518-.242.788-.323.339-.1.692-.154 1.039-.229a.925.925 0 0 0 .126-.046c-.034-.111-.065-.207-.1-.3.1.022.209.046.314.064a.984.984 0 0 0 .386.049c.329-.087.649-.213.973-.324.248-.083.5-.159.744-.249.029-.011.031-.092.045-.141a1.007 1.007 0 0 0-.186-.153c-.152-.076-.263-.453-.471-.067-.14-.108-.552.029-.7.159-.09.078-.171.473-.4.089-.023-.04-.229.017-.344.047s-.243.091-.365.134c-.14.049-.28.1-.424.138-.107.029-.221.04-.357.062 0-.331-.02-.626.006-.919.028-.318.1-.63.149-.946a.812.812 0 0 0 .015-.377c-.038-.105-.162-.182-.255-.263-.007-.006-.1.048-.1.083a5.687 5.687 0 0 0-.179.922c-.029.537-.009 1.078-.009 1.615l-.062-.029-.27.439-.14-1.1a.165.165 0 0 0 .078-.1c.069-.355.138-.712.178-1.069.027-.252-.033-.518.017-.763.073-.351-.205-.757.124-1.015-.025-.133-.094-.263-.054-.324a1.323 1.323 0 0 0 .32-.814.862.862 0 0 1 .026-.253c.116-.481.235-.962.353-1.441.06-.245.044-.561.195-.717.272-.282.126-.659.344-.955a2.866 2.866 0 0 0 .244-.87 5.625 5.625 0 0 1 .229-.653c.161-.372.346-.733.506-1.1.142-.332.259-.674.4-1.007.042-.1.134-.182.178-.283a5.193 5.193 0 0 1 .45-1.032c.179-.244.189-.388.057-.514.161-.162.32-.3.45-.458.1-.124.136-.31.251-.411a4.5 4.5 0 0 0 .732-1.188c.05-.01.119 0 .139-.033.139-.2.259-.411.4-.609.32-.457.649-.907.97-1.363.143-.2.257-.427.417-.615.229-.271.5-.505.729-.776.359-.425.726-.836 1.115-1.235.338-.346.813-.62.891-1.175 0-.015.029-.027.043-.041.149.123.143.118.278-.015.1-.1.231-.174.329-.278.192-.206.37-.426.552-.64l-.055-.054.483-.087.04-.1a1.733 1.733 0 0 0-.432-.247 2.661 2.661 0 0 0-.594-.01l.1-.325a1.887 1.887 0 0 0 .323.132c.231.049.506-.072.685.195.024.036.18.025.239-.014.154-.1.288-.235.433-.351.17-.136.342-.271.516-.4q.514-.384 1.035-.758c.223-.16.453-.308.728-.493V24.9l.241-.1c.148.031.258.091.31.058.362-.224.7-.488 1.066-.7.4-.229.819-.41 1.224-.623.389-.2.772-.418 1.178-.639l.041-.436.078-.008.138.337a.969.969 0 0 0 .223-.036 10.956 10.956 0 0 0 1.232-.558c.314-.186.854-.113.91-.69l.067.361c.108-.085.186-.185.284-.214.286-.083.58-.137.87-.206a.558.558 0 0 0 .143-.057 1.878 1.878 0 0 1 1.01-.321.784.784 0 0 0 .251-.029c.378-.108.75-.249 1.134-.329.477-.1.963-.152 1.451-.225.024-.19.046-.364.066-.537h.1c.032.181.062.364.094.562a1.223 1.223 0 0 1 .311-.167c.473-.074.946-.16 1.424-.188.636-.04 1.276-.052 1.912-.031a.839.839 0 0 0 .824-.392l.127.382h3.666c.116-.161.2-.27.275-.377-.008.17-.015.339-.022.547-.041-.012 0 .006.035.009l2.057.2a1.023 1.023 0 0 1 .155.036c.427.118.85.253 1.281.352.4.092.809.146 1.213.217a.36.36 0 0 1 .063.012 5.858 5.858 0 0 0 .958.336 5.951 5.951 0 0 1 1.252.384 13.913 13.913 0 0 0 1.346.4.354.354 0 0 1 .087.033c.182.115.363.234.564.365l.08-.585h.117a2.492 2.492 0 0 1 .035.379.338.338 0 0 0 .274.385 4.015 4.015 0 0 1 .643.236c.314.155.611.343.917.51q.532.29 1.069.57c.148.078.3.142.453.218a4.325 4.325 0 0 1 .458.247 9.957 9.957 0 0 0 1.252.863c.4.194.662.553 1.052.748a4.325 4.325 0 0 1 .483.406c.406.294.852.54 1.226.869.494.435.9.97 1.41 1.385.323.263.526.758.981.687a7.876 7.876 0 0 0 .388.705c.09.131.251.212.353.335.571.686 1.125 1.388 1.705 2.067a.434.434 0 0 1 .107.551l-.312-.261a.775.775 0 0 1-.649.389c-.272.029-.385.1-.342.375v.4l1.095-.233c.009 0 .015-.016.024-.019a8.3 8.3 0 0 1 .807-.308c.353-.1.722-.138 1.077-.226a5 5 0 0 0 .619-.23 2.563 2.563 0 0 1 .793-.307 4.287 4.287 0 0 1 2.206.171 4.846 4.846 0 0 1 .817.467 2.467 2.467 0 0 1 .586.7c.079.141.009.365.007.552-.225-.2-.346-.4-.512-.562-.234-.222-.408-.519-.753-.616a.8.8 0 0 1-.4-.213c-.209-.254-.354-.127-.524.065-.037-.076-.062-.174-.09-.174a4.724 4.724 0 0 0-1.124.029 8.028 8.028 0 0 1-.957.316 1.921 1.921 0 0 0-.852.172 8.047 8.047 0 0 1-1.631.583c-.317.1-.649.154-.989.232.009.221.026.411.021.6 0 .052-.066.1-.1.153-.032-.047-.085-.091-.089-.139-.012-.143 0-.287 0-.458a2.75 2.75 0 0 0-.548.048c-.316.095-.619.234-.935.339-.256.085-.521.142-.78.219-.4.118-.787.245-1.182.364a2.179 2.179 0 0 0-.714.223c-.331.266-.751.123-1.1.341a4.882 4.882 0 0 1-1.125.369c-.226.072-.445.167-.676.221-.357.084-.721.142-1.082.212a.413.413 0 0 0-.058.024c-.309.111-.613.234-.927.329s-.628.135-.93.236c-.349.117-.683.276-1.1.449.092.248.2.53.268.724a1.714 1.714 0 0 1 .494.007 2.372 2.372 0 0 0 .991.32c.221-.013.348.132.42.371a3.757 3.757 0 0 1-1.332-.128 4.159 4.159 0 0 1-1.1-.625L49.95 39l-.152-.116v-.8l-.66.278c.022.195.04.346.063.568-.284-.187-.367-.5-.69-.411-.307.083-.616.155-.922.233a.209.209 0 0 0-.029.014c-.276.108-.549.228-.831.318-.318.1-.643.172-1 .264.092.108.15.224.243.277.114.065.268.1.125.246a.342.342 0 0 1-.311-.056c-.132-.344-.228.016-.324.013l-.336-.292c-.371.116-.7.24-1.036.319-.294.069-.627-.042-.886.2a.6.6 0 0 1-.231.167c-.386.09-.777.163-1.167.241a.949.949 0 0 0-.213.037c-.267.127-.528.264-.857.43l.444.675-.076.066a1.091 1.091 0 0 1-.314-.161c-.261-.282-.449-.733-.945-.332-.007.006-.02 0-.03.006a7.041 7.041 0 0 0-1.086.164c-.432.091-.752.369-1.166.471a9.053 9.053 0 0 1-1.131.35.462.462 0 0 0-.257.131 4.467 4.467 0 0 0-.316.424l-.093-.361c-.315.08-.612.147-.9.233-.353.1-.7.221-1.05.339a.905.905 0 0 0-.33.161 1.73 1.73 0 0 0-.231.314 1.9 1.9 0 0 0-.5-.094 3.564 3.564 0 0 0-.513.167c-.328.083-.661.143-.99.226-.254.063-.506.137-.752.224-.283.1-.552.237-.838.327-.309.1-.629.156-.933.229-.011.223.054.473-.044.591-.231.28-.1.576-.143.863a.96.96 0 0 1-.115.247.815.815 0 0 1-.083-.238c-.008-.42 0-.842 0-1.306a3.341 3.341 0 0 0-.359.075c-.3.1-.6.22-.91.307s-.639.137-.955.224c-.4.112-.8.245-1.207.368-.04.012-.1 0-.123.023-.248.27-.561.141-.851.147-.057-.3.115-.405.37-.409l.068-.239.778.1-.332-.783c-.073.064-.131.148-.206.168-.291.083-.587.147-.882.217-.06.014-.121.026-.179.044-.356.111-.708.233-1.066.334-.3.087-.617.133-.916.231-.482.159-.949.361-1.434.514-.328.1-.673.153-1.011.228a.568.568 0 0 0-.118.042c-.247.112-.5.221-.739.343-.164.083-.321.185-.477.284s-.219.332-.488.295c-.083-.011-.195.188-.292.291.025.036.049.074.074.109a4.447 4.447 0 0 1 .7-.224 5 5 0 0 1 .784 0 .547.547 0 0 1-.527.392 4.726 4.726 0 0 0-.868.207c-.216.058-.432.121-.642.2a3.932 3.932 0 0 1-.85.321 2.052 2.052 0 0 0-1.178.524 1.618 1.618 0 0 0-.4-.1c-.051 0-.1.1-.146.167a2.846 2.846 0 0 0-1.345.337 6.216 6.216 0 0 1-.829.246c-.326.082-.659.138-.985.219a5.045 5.045 0 0 0-.6.194c-.273.1-.536.239-.813.332-.411.139-.832.25-1.246.376-.222.068-.435.162-.661.215-.356.085-.723.123-1.073.223-.424.122-.834.288-1.27.443l-.032.321c-.18-.315-.4-.251-.6-.178a6.075 6.075 0 0 1-.778.332 6.443 6.443 0 0 0-1.178.367c-.283.115-.471.245-.474.465a3.436 3.436 0 0 0-.422.338c-.074.082-.089.214-.15.312a2.839 2.839 0 0 0-.349 1.248 2.114 2.114 0 0 0 .173 1.181 6.13 6.13 0 0 1 .269.87c.093.287.216.566.294.856.1.364.162.738.243 1.107.006.03.032.056.041.085.1.295.192.6.314.886.149.355.05.849.562 1a.46.46 0 0 0-.073.662.592.592 0 0 1 .075.194c.074.308.13.618.216.92.116.4.253.8.382 1.2.013.041.024.082.037.121.112.367.235.731.33 1.1.059.226.119.434.377.5a1.631 1.631 0 0 0 .279 1.141c.082-.071.162-.14.243-.208l.087.044c-.033.184-.06.371-.1.55-.023.091-.131.181-.118.257a6.668 6.668 0 0 0 .2.79 1.521 1.521 0 0 0 .246.631 3.839 3.839 0 0 0 1.56 1.267 2.874 2.874 0 0 0 1.5.068 1.1 1.1 0 0 1 .9.058c0 .094.027.226-.022.27-.112.1-.075.414-.371.277a1.319 1.319 0 0 0-.451-.138c-.456-.024-.913-.019-1.369-.033a.755.755 0 0 1-.241-.056c-.128-.051-.251-.113-.375-.17l-.062.107.152.178-.176.75.759-.117a.784.784 0 0 0 .332.1c.506-.063 1.009-.151 1.514-.24.041-.007.076-.061.114-.093a.451.451 0 0 1 .593.042 10.508 10.508 0 0 1 .993 1.37 6.088 6.088 0 0 0 .821.977c.178.205.284.507.561.46a2.267 2.267 0 0 0 .248.511c.39.44.8.867 1.211 1.286.354.358.725.7 1.091 1.039.337.315.68.623 1.019.934a6.924 6.924 0 0 0 .591.53c.407.3.856.536 1.243.853a12.275 12.275 0 0 0 1.7 1.167 1.228 1.228 0 0 0 1.3-.048c.025-.018.076 0 .118.006a2.06 2.06 0 0 0 .751 1.4l.049-1.028c.034 0 .07-.009.1-.012a1.4 1.4 0 0 1 .048.227c.011.233 0 .467.024.7a.307.307 0 0 0 .127.213c.407.24.82.469 1.236.692a6.37 6.37 0 0 0 .606.284c.337.139.682.261 1.019.4.078.033.129.131.206.159.32.121.646.226.979.34l.106-.4c.062.14.112.195.1.237-.072.317.206.338.374.406a8.669 8.669 0 0 0 .851.24c.061.018.124.03.188.047a1.553 1.553 0 0 1 .333.118.6.6 0 0 1 .107.048.59.59 0 0 0 .427.143.7.7 0 0 0 .139.064 2.946 2.946 0 0 0 .406.1c.46.139.9.283 1.35.38.05.011.1.013.152.022.094.028.187.061.283.082.507.1 1.023.153 1.535.226.042.007.081.023.122.033a4.283 4.283 0 0 0 .531.128q.181.021.24-.07l.18.019a.706.706 0 0 1 .23.091c.01 0 .029 0 .041.011a.83.83 0 0 0 .324.129c1.013.082 2.028.14 3.042.205a1.343 1.343 0 0 0 .349 0 2.455 2.455 0 0 0 .3-.089h.442c.084.04.167.082.249.124l.064-.128h.212v.014c.315.294.578-.256.829.033.283-.074.548-.142.8-.209a.966.966 0 0 0 .292.079 4.523 4.523 0 0 0 1.146-.142 10.921 10.921 0 0 1 1.736-.243 1.463 1.463 0 0 0 .163-.041v-.04c.08-.008.161-.015.24-.026a.517.517 0 0 0 .094-.044l.194-.056c.281-.038.555-.127.835-.183.392-.078.783-.145 1.176-.219a.764.764 0 0 0 .087-.033c.306-.109.611-.228.922-.328.269-.086.557-.127.817-.234.037-.015.07-.04.106-.058l.031-.007c.221-.06.441-.139.656-.219.289-.107.57-.234.86-.337.255-.091.528-.141.777-.247.355-.15.69-.347 1.044-.5s.744-.263 1.1-.43c.321-.15.611-.367.927-.528s.662-.268.965-.448c.586-.35 1.154-.729 1.724-1.1s1.14-.767 1.709-1.154c.371-.251.668-.589 1.046-.836a9.547 9.547 0 0 0 1.036-.879c.479-.422.973-.829 1.427-1.276.364-.36.642-.81 1.021-1.149a16.655 16.655 0 0 0 1.7-1.948 5.3 5.3 0 0 0 .543-.675c.052-.091.389-.225.076-.393a1.806 1.806 0 0 0 .958-1.671c.113.1.184.156.246.211.343-.568.673-1.111 1.009-1.669l-.3-.094c.184-.223.357-.41.5-.619.041-.062.006-.192-.027-.279a2.653 2.653 0 0 0-.187-.336l.109-.075.462.457c.126-.364.225-.655.311-.9a5.405 5.405 0 0 0 .326-.5c.152-.3.28-.61.421-.914.172-.374.353-.746.523-1.121a4.783 4.783 0 0 0 .194-.493c.086-.263.148-.537.243-.8.164-.455.365-.9.515-1.356.145-.44.189-.9.369-1.344a5.631 5.631 0 0 0 .224-1.15c.012-.063.013-.128.028-.189.109-.422.243-.837.331-1.264a8.273 8.273 0 0 1 .163-1.229 7.167 7.167 0 0 0 .219-1.7 4.924 4.924 0 0 0 .008-.8 1.692 1.692 0 0 0-.12-.388 2.607 2.607 0 0 0 .123-.676c.015-.249 0-.5 0-.741a3.08 3.08 0 0 0 2.474-1.453.634.634 0 0 1-.055-.825c.074.083.144.165.252.29-.026-.3.028-.435.295-.551.218-.1.35-.4.5-.627a.671.671 0 0 0 .162-.367 9.756 9.756 0 0 0-.152-1c-.037-.277.049-.597-.236-.758zm-66.57-9.644c.222-.43.4-.483.709-.284-.246.096-.477.19-.709.284zm2.673-3.3a.658.658 0 0 1 .354.579c-.333-.087-.407-.202-.353-.578zm10.16-9.383v-.479h.1l.025.478zm1.444-.945h-.108v-.569c.083.076.123.1.123.117.002.15-.006.302-.014.453zm14.938-3.768c-.223-.311-.182-.546.04-.611-.01.184-.023.366-.039.612zm.216-.771c0 .052-.1.094-.166.141a5.635 5.635 0 0 1 0-.6c.005-.056.11-.1.174-.153a6.06 6.06 0 0 1-.007.613zm3.633.7c.165-.153.259-.431.574-.337-.066.331-.157.383-.574.337zm12.282 3.563l.711-.3.042.114a.552.552 0 0 1-.753.187zM3.48 58.476a2.272 2.272 0 0 1 .011-.5c.016-.061.142-.105.227-.126.029-.007.123.109.114.124-.089.143-.191.276-.352.502zm.7-1.459l.424.135c-.083.1-.165.21-.309.391-.049-.201-.073-.309-.119-.526zm.234 8.483v-.571l.388.045c-.095.237-.109.475-.388.526zm65.539-29.68a1.814 1.814 0 0 1 .438 1.474c-.09-.075-.243-.137-.275-.238a9.021 9.021 0 0 1-.228-.992c-.013-.064.036-.143.065-.24zM69.8 46.391c-.129-.07-.257-.143-.379-.223-.042-.027-.064-.083-.1-.127.041-.025.079-.068.122-.072a2.042 2.042 0 0 1 1.132.241c.06.03.06.239.033.354-.015.067-.135.111-.19.153-.232-.123-.426-.222-.618-.326zm.486 4.154c-.268.056-.391-.031-.373-.313.282-.078.369.052.377.313zm-.951-6.125v-.632a.126.126 0 0 1 .093-.084c.035 0 .1.058.093.089-.009.21-.03.42-.049.631zm.268-6.223l.317.259h-.653zm-.993-2.325h.077v.512h-.077zm.245 2.317c.077.064.17.138.336.271h-.768c0-.019-.011-.037-.015-.056zm.031 10.634a6.113 6.113 0 0 0-.24.589c-.3-.435.132-.757.127-1.138.175.078.209.375.116.549zm-1.125-11.08c.016.2.03.376.04.476-.375-.037-.716-.069-1.056-.1-.085-.009-.167-.032-.342-.067.47-.252.95.085 1.358-.309zm-.026 1.727v.806c-.268-.233.1-.632-.4-.7l.083-.08zM58.4 38.283l-.554.032c.077-.239.225-.271.554-.032zm-1.427.171l.4-.561.136.41.322.023c-.063.337-.377.095-.546.238l.181.413c-.37-.112-.7-.2-1.018-.315-.1-.038-.183-.15-.275-.229a.646.646 0 0 1 .797.021zm-.793-.564h-1.009c.09-.167.665-.197 1.006 0zm-.86-1.1v.117h-.52v-.09c.167-.004.343-.017.517-.023zm-1.261.771h.083v.515h-.083zm-1.287 2.263a2.884 2.884 0 0 1 1.353.283c.091.015.183.024.273.045.057.013.114.068.167.061.337-.041.514.213.713.4a.7.7 0 0 0 .77.121 2.59 2.59 0 0 1 .364-.139c.295-.107.6-.2.885-.325a.448.448 0 0 1 .543.273c.109.365.243.725.355 1.089.028.089.008.192.033.284a3.449 3.449 0 0 0 .141.363c-.294.413-.855.426-1.306.7l-.034.308-.093.011-.084-.363-.7.233c.064.154.129.318.2.481.008-.016.019-.031.027-.047l.621.438.131-.141a.506.506 0 0 0 .711.031c.333-.228.673 0 .784.378.1.324.08.708.363.961a.445.445 0 0 0 .258.122 1.16 1.16 0 0 1 .9.361.149.149 0 0 0 .114.038c.355-.056.594.2.885.318a3.381 3.381 0 0 0 .951.225c-.071-.2-.145-.4-.211-.593s-.141-.421-.2-.635c-.084-.326-.138-.66-.233-.981-.09-.3-.218-.587-.33-.881a.871.871 0 0 1-.038-.12c-.071-.329-.121-.664-.216-.987-.082-.284-.223-.55-.321-.831-.087-.252-.151-.511-.227-.767l-.3-1.016c.394-.223.969-.163 1.343-.577a1 1 0 0 0 1.076-.3c.251.012.479.093.609.013a1.964 1.964 0 0 1 1.012-.146c.127-.008.257 0 .383 0a2.426 2.426 0 0 1 1.29.352c.174.1.4.119.574.225a2.189 2.189 0 0 1 .51.446c.315.372.62.753.9 1.152a6.455 6.455 0 0 1 .261.6c.192.346.092.819.514 1.086.089.057-.009.406-.056.611a2.291 2.291 0 0 1 .1.529 4 4 0 0 0-.072 1.191c.09.3-.043.448-.12.654a1.964 1.964 0 0 1-.2.407c-.177.269-.37.529-.556.793q-.276.224-.554.446c-.257.208-.444.5-.832.536-.19.019-.359.213-.553.288-.282.109-.578.181-.868.273-.347.111-.692.229-1.04.337a5.734 5.734 0 0 1-.7.195c-.16.027-.371-.331-.431-.583a2.066 2.066 0 0 0-.372-1.019 1.609 1.609 0 0 0-.526-.281c-.2-.087-.41-.146-.606-.237-.232-.108-.457-.234-.68-.361a1.427 1.427 0 0 1-.211-.189l-.151.21c-.176-.149-.326-.292-.492-.417-.324-.241-.437-.216-.558.176-.057.185-.159.2-.312.239-.37.1-.73.233-1.1.346a2.707 2.707 0 0 1-.323.057v.507l.338.064c.021.1.008.252.075.319.149.15.311.411.558.083.041-.054.182-.033.276-.042.29-.026.29-.025.238-.381h-.625l.361-.357c.127.228.267.308.394-.133.051.228.075.332.116.523a3.568 3.568 0 0 1 .4-.159c.1-.029.279-.068.318-.019.213.265.364.216.5-.131l.075.072.042.75-.329.086c.141.476.279.938.423 1.432a1.084 1.084 0 0 1-.9.46 3.143 3.143 0 0 0-.8.3.238.238 0 0 1-.058.023c-.317.074-.64.132-.953.227s-.6.22-.893.332l-.058.023c-.234.068-.47.13-.7.2a.394.394 0 0 1-.506-.184 4.194 4.194 0 0 1-.229-.659c-.119-.361-.24-.72-.358-1.081-.069-.211-.139-.421-.194-.636-.082-.316-.138-.638-.226-.952-.057-.2-.153-.4-.23-.593a1.17 1.17 0 0 1-.127-.351A4 4 0 0 0 53.846 45c-.107-.278-.145-.583-.233-.869-.107-.347-.234-.689-.352-1.033-.009-.03-.012-.062-.02-.092-.106-.365-.228-.729-.308-1.1a.363.363 0 0 1 .167-.306c.456-.108.819-.477 1.343-.425a1.959 1.959 0 0 0 .7-.227l.019-.282a4.512 4.512 0 0 1-1.221-.265c-.3-.161-.692 0-.923-.321-.014-.02-.116.025-.178.04s-.115.046-.141.028a2.1 2.1 0 0 1-.227-.216 1.274 1.274 0 0 1 .297-.104zm15.525 6.327c-.018.011-.057-.015-.155-.047.092-.065.139-.094.181-.131.065-.058.127-.121.191-.181.012.064.057.156.03.188a.955.955 0 0 1-.25.174zm.033 3.34c0 .341 0 .684-.007 1.025a.853.853 0 0 1-.159.02c.016-.35.035-.7.054-1.046.034.01.071.005.109.005zm-.174 1.068v.925a.77.77 0 0 1-.003-.921zm-.523-3.449c-.009-.184-.02-.367-.03-.55.212.099.254.316.027.554zm-1.174 4.365a.885.885 0 0 1-.185.082c-.128-.092-.262-.182-.387-.282-.015-.012.007-.108.018-.11a.728.728 0 0 1 .3 0 .774.774 0 0 1 .238.2c.017.027.029.102.013.114zm-1.55-1.45v.452l-.528.26-.347-.482-.161.1c-.032-.017-.064-.035-.1-.051.074-.166.142-.335.224-.5.009-.019.106-.024.114-.01.189.357.538.129.795.235zm-2.689-.205c-.317-.042-.555-.171-.575-.535-.386-.145-.4-.18-.317-.864.077.084.123.131.162.181a7.422 7.422 0 0 0 .5.6c.177.186.328.352.226.622zm.243.081a1.426 1.426 0 0 1 .434.3 2.9 2.9 0 0 1 .275.573 1.094 1.094 0 0 1-.8-.418 1.907 1.907 0 0 1-.142-.52.805.805 0 0 1 .23.064zm.9 1.435c.05-.163.111-.326-.139-.411-.025-.008-.026-.084-.036-.135l.542-.129c-.026-.034.013 0 .008.013-.111.331-.218.664-.35.986-.016.04-.19.052-.265.019a2.161 2.161 0 0 1-.368-.3zm-2.336-1.307v.7h-.087v-.7c.028.005.06.005.085.004zm-4.361 3.18l-.406.041c.037-.153.063-.255.1-.4l.304.362zm-3.466-7.14l-.29.344v-.654l.29.31zm-.868 1.646h.1v.5h-.1zM47.918 41.8l.082-.011.183.708-.265.062zm.14 1.3c.255-.069.507-.148.757-.232.1-.034.2-.094.308-.13.188-.062.374-.125.566-.17s.4-.109.511.188a5.58 5.58 0 0 1 .386 1.251 4.677 4.677 0 0 0 .328.857 6.581 6.581 0 0 1 .208.694c.083.339.128.688.227 1.02a7.688 7.688 0 0 0 .325.794.37.37 0 0 1 .016.061c.075.336.129.679.227 1.009.089.3.231.576.334.867.08.227.148.46.206.694.08.327.142.659.227.984.027.1.124.186.154.287.089.3-.094.518-.507.625-.323.084-.647.164-1.006.255l.18 1.284a.6.6 0 0 1-.159-.176c-.082-.2-.133-.419-.212-.621a.268.268 0 0 0-.15-.128c-.221-.082-.451-.146-.672-.23-.054-.02-.126-.1-.121-.147.04-.378-.284-.548-.464-.788-.215-.287-.234-.444.049-.666-.109-.2-.219-.39-.332-.588.292-.276-.045-.475-.133-.674a2.668 2.668 0 0 0-.519-.667 1.109 1.109 0 0 0-.339-.165c.253-.266.288-.5-.014-.765-.113-.1-.141-.3-.206-.449l.083-.083.477.18a.809.809 0 0 0-.018-.161c-.037-.117-.086-.229-.129-.344-.06-.157-.076-.357-.185-.466-.272-.272-.175-.605-.213-.916-.013-.108.013-.225-.155-.166a5.375 5.375 0 0 0-.255-1.223 2.44 2.44 0 0 1-.163-.9 1.085 1.085 0 0 0-.162-.333c.15-.03.307-.205.386.093.001.027.108.056.159.045zm3.636 10.47a2.541 2.541 0 0 1-.014.429c-.055-.036-.152-.066-.157-.111a3.043 3.043 0 0 1-.006-.427c.064.039.17.064.176.107zm-.868 1.983a3.919 3.919 0 0 1-.435-.7c-.136-.3 0-.462.377-.434a.858.858 0 0 0 .31.772c.43.478.325.73-.041 1.119a.516.516 0 0 1-.076.051c-.069.043-.136.087-.2.132.015-.123-.015-.289.055-.363a.379.379 0 0 0 .009-.579zm-1.914-.765a.549.549 0 0 1 .114.079c.38.429.758.858 1.132 1.294.026.03.017.092.021.142h-.743c-.082-.284-.148-.569-.249-.842-.041-.108-.168-.182-.24-.282a.671.671 0 0 1-.115-.25c-.01-.041.05-.096.079-.143zm-.123-.576a.5.5 0 0 1-.148-.068c-.14-.127-.308-.252-.091-.506a4.978 4.978 0 0 1 .283.413c.018.031-.033.104-.045.159zm-1.306 1.522c0-.065.065-.13.1-.194.04.062.115.128.109.186a.549.549 0 0 0 .337.629l-.23.639c-.399-.341-.314-.814-.317-1.262zm-.127-8.471a.928.928 0 0 1-.157-1.071c.142.355.281.7.442 1.11-.088-.011-.227.015-.286-.041zm.19-1.664l-.258-.727.087-.056.216.176.169-.124c.116.2.221.375.326.554-.112.326-.386.066-.541.178zm-.781-4.984l.89.056c.05.184.116.415.2.722-.182-.153-.318-.265-.4-.337-.168.043-.344.143-.414.093-.164-.11-.441-.205-.277-.536zm-.15 3.639l.34.291c-.063.045-.128.111-.143.1a1.465 1.465 0 0 1-.277-.233c-.018-.012.049-.105.078-.16zm.1 1c0 .164 0 .326-.006.489h-.133v-.49zm-3.44-2.628a.177.177 0 0 1 .106-.084c.017-.006.079.05.077.073-.05.4.239.662.372.986 0 .011-.02.033-.043.066l-.25-.188a.969.969 0 0 1-.268-.854zm-1.875-.708a2.465 2.465 0 0 1 .4.275.992.992 0 0 1 .295.443.657.657 0 0 0 .57.532c-.07.352-.08.35-.365.16a.79.79 0 0 0-.292-.058c-.1-.321-.189-.6-.272-.863a2.171 2.171 0 0 1-.456-.279c-.072-.072-.06-.231-.086-.352.071.047.138.095.206.142zm-.56 3.322c.355-.079.731-.147 1.1-.245.417-.112.829-.245 1.238-.382s.807-.29 1.232-.445l.065-.487c.284.4.282.392.776.278a.4.4 0 0 1 .3.152 1.041 1.041 0 0 1 .219.412c.084.336.131.681.2 1.022a3.556 3.556 0 0 0 .143.4.935.935 0 0 1-.718.453 3.982 3.982 0 0 0-.839.328 2.545 2.545 0 0 1-.485.066 1.793 1.793 0 0 0 .225 1.238c.2-.048.4-.085.585-.147.051-.017.08-.1.118-.157.176-.007.355-.011.533-.027a.516.516 0 0 0 .23-.072c.283-.192.514-.086.6.243.08.3.218.587.321.884.033.1.03.209.053.31.035.156.079.31.132.515a1.6 1.6 0 0 1-1 .445 4.948 4.948 0 0 0-.814.255c-.029.161-.135.371.106.541.033.023.028.1.04.149.072.332.133.668.221 1 .113.415.248.824.374 1.234.044.145.169.37.118.422a1.127 1.127 0 0 1-.7.422 10.216 10.216 0 0 0-1.029.317 5.715 5.715 0 0 1-.846.072c-.165-.6-.31-1.126-.46-1.655-.122-.431-.24-.864-.38-1.29-.09-.272-.226-.528-.323-.8a7.46 7.46 0 0 1-.219-.733c-.083-.325-.132-.658-.227-.979s-.24-.617-.34-.931c-.089-.279-.133-.573-.218-.853-.093-.307-.211-.606-.316-.91a3.424 3.424 0 0 1-.205-.664c-.017-.121.118-.249.191-.381zm4.149 2.466c-.167-.151-.444-.235-.333-.6a.594.594 0 0 1 .334.599zm-2.86 5.722c-.248.056-.4.015-.382-.249 0-.037.146-.1.153-.093.08.101.149.214.23.341zm-5.579-8.549c.011.292.007.586.007.879l-.149.006c0-.312-.006-.623-.009-.936.057.017.152.03.153.05zm-.163-.965v.9c-.068-.043-.184-.083-.185-.13-.017-.334-.009-.668-.007-1 .192-.03.193.1.194.229zm-.287-.837l.09.031v.567h-.643l.553-.599zm-.025 3.647a3.765 3.765 0 0 0 .595-.192c.252-.073.51-.128.761-.206.072-.023.128-.1.188-.144a1.11 1.11 0 0 1 .525.841 7.742 7.742 0 0 0 .372 1.312c.122.4.251.807.372 1.211.13.433.246.871.385 1.3.1.313.242.614.353.923.07.2.131.4.183.6.08.316.138.638.228.95s.218.623.319.936a6.741 6.741 0 0 1 .234.83c.044.241-.155.411-.407.472-.4.1-.787.233-1.18.352-.225.065-.446.142-.673.195-.254.06-.31-.169-.408-.321a.95.95 0 0 1-.055-.275l-.313.27-.839-4.086-.272.258a9.07 9.07 0 0 1-.231-1.046 1.357 1.357 0 0 0-.329-.747.582.582 0 0 1-.013-.538.474.474 0 0 0 .013-.587.688.688 0 0 1-.072-.168c-.12-.365-.221-.737-.361-1.095a.686.686 0 0 1 .627-1.046zm2.79 10.356l.192 1.408c-.167-.131-.333-.194-.353-.287-.1-.45-.156-.908-.22-1.364-.006-.043.052-.1.083-.145.04.046.1.086.119.139.031.108-.02.269.179.249zm.161.066c-.014-.038-.1-.05-.154-.071 0-.147-.009-.294 0-.44a.175.175 0 0 1 .074-.118.116.116 0 0 1 .112.025c.079.148.148.3.215.453.1.217.185.435.279.65.027.063.089.124.085.181a3.217 3.217 0 0 1-.072.4 2.083 2.083 0 0 1-.3-.382c-.098-.221-.151-.467-.239-.698zm-4.682-11.354a.762.762 0 0 1 .173.941l-.224-.946a.1.1 0 0 1 .051.005zm-.253-.647c.273.215.185.434.191.625-.066-.046-.168-.083-.181-.141a2.338 2.338 0 0 1-.01-.484zm-.571-.973a.435.435 0 0 1 .123-.278c.094-.077.129-.043.388.244l-.324.308c-.227.024-.199-.146-.187-.274zm.233.821c-.016-.178-.03-.357-.044-.535.223.042.266.224.044.536zm-1.165-1.343l.413.385-.413.023zm-1.117.765c.075.1.112.152.156.2s.1.1.145.155c-.063.02-.138.072-.186.052a.333.333 0 0 1-.165-.166c-.021-.047.023-.123.049-.241zm-2.533 3.605l.375.395-.375.066zm-.592-1.229c.007-.025.07-.05.1-.045a.119.119 0 0 1 .078.079c.009.105 0 .212 0 .318l.071.033c-.082.153-.157.308-.249.455-.025.039-.1.05-.147.074-.023-.052-.073-.112-.064-.158.065-.254.137-.505.211-.755zm.476 2.08c.327-.1.674-.134 1-.231.287-.083.56-.213.841-.323.03-.012.06-.019.091-.029.392-.124.782-.259 1.177-.37a6.517 6.517 0 0 1 .986-.218c.389-.046.524.129.6.525a5.666 5.666 0 0 0 .343 1.09.6.6 0 0 1-.5.891 5.464 5.464 0 0 0-.784.256c.013.164-.125.4.157.532.013.006.019.037.023.056.065.327.108.659.2.979.083.3.219.58.322.873.079.219.156.44.215.666.082.325.136.656.222.98.07.262.169.517.262.794.374.06.389.093.188.457a.238.238 0 0 0-.046.148 3.277 3.277 0 0 0 .235.718c.189.333.17.455-.184.636a3.791 3.791 0 0 1-1.224.38c-.227.033-.443.139-.67.18a1.736 1.736 0 0 1-.4-.014c-.163-.438-.328-.835-.452-1.243-.1-.333-.135-.688-.232-1.024-.083-.286-.221-.555-.322-.837-.079-.219-.147-.441-.205-.667-.082-.317-.137-.641-.23-.956-.087-.294-.215-.574-.313-.864a1.573 1.573 0 0 1-.065-.371c-.044-.556-.306-.681-.8-.406a1.665 1.665 0 0 1-.515.09l-.066.969-.148-.03v-.342c0-.26.065-.515-.2-.733-.125-.1-.136-.346-.2-.525-.112-.311-.252-.614-.333-.933a3.8 3.8 0 0 1-.054-.7c.393-.145.731-.297 1.081-.403zM30.735 60.9c-.029-.028-.072-.063-.07-.092.011-.138.034-.274.057-.432.609.629.8 1.139.578 1.723-.045-.168-.075-.275-.107-.4l-.357-.029c-.012-.035-.029-.068-.024-.071.373-.277.144-.489-.077-.699zm-.281.489c-.034.02-.069.037-.1.056-.1-.145-.374-.208-.191-.538.111.185.201.334.292.481zm-3.126-13.95a3.337 3.337 0 0 1 .238.6.556.556 0 0 1-.016.211c-.255.073-.333-.026-.349-.261a5 5 0 0 0-.138-.666c.084.035.226.045.266.115zm-.347 1.4v1.1c0 .02-.065.059-.094.056s-.08-.049-.081-.076c-.006-.358 0-.717 0-1.076zm-.571 1.592h.575v.089H26.4c0-.032.007-.062.011-.091zm-3.4-.8h.078l.294.528c-.125-.031-.309-.026-.355-.1-.061-.113-.013-.285-.013-.43zm-.173-1.131l-.127.433c-.107-.251-.179-.415-.251-.581l.833-.675c.18.5.043.736-.455.823zm1.115 1.785c-.319.183-.507.136-.559-.122l.3-.109zm-.02-4.493v.538l-.342.058c-.063.139.012.421-.3.355-.044-.009-.111-.073-.111-.112a1.416 1.416 0 0 1 .753-.842zm-3.531.946a7.252 7.252 0 0 1 1.634-.726c.361-.1.736-.17 1.139-.261a.769.769 0 0 1-.574.623c-.35.082-.684.222-1.032.316-.363.1-.73.176-1.1.254-.049.011-.11-.033-.165-.052.034-.054.051-.131.097-.157zm-.223 4.784c.327-.078.641-.211.961-.321.039-.013.08-.029.121-.038.284-.071.573-.127.851-.215a3.285 3.285 0 0 0 .49-.254c.009-.047.034-.162.06-.276h.058l.093.342a1.835 1.835 0 0 1 .47-.163c.433-.025.869-.024 1.3-.012.124 0 .244.1.37.111a1.253 1.253 0 0 0 .332-.05l.18-.031c-.069.366.323.326.467.513a8.7 8.7 0 0 0 .81.818.379.379 0 0 1 .052.113 4.279 4.279 0 0 1 .246 1.695 2.025 2.025 0 0 1-.473 1.311c-.253.345.049.466.149.594.352.452.768.856 1.152 1.282.33.366.656.735.973 1.112a1.787 1.787 0 0 1 .275.431c.129.3-.051.5-.369.55a9.039 9.039 0 0 0-1.022.295 6.882 6.882 0 0 1-1.01.246c-.308.035-.456.166-.474.464l-.04.694h-.115c-.016-.105-.037-.21-.047-.316-.016-.167.073-.365-.16-.465-.024-.012-.016-.134 0-.2.014-.043.079-.069.114-.107.311-.338.31-.47.013-.8-.257-.286-.507-.576-.762-.863-.278-.311-.558-.623-.837-.932l-.124.06c.047.138.094.275.144.41a1.185 1.185 0 0 1 .067.142c.076.326.13.66.225.982a6.9 6.9 0 0 0 .324.833.453.453 0 0 1-.318.684 7.427 7.427 0 0 0-.808.319c-.01 0-.017.014-.026.018-.337.076-.672.168-1.012.225-.285.048-.418-.118-.491-.387-.091-.34-.236-.668-.336-1.006-.093-.312-.146-.638-.238-.95s-.221-.636-.324-.957a4.237 4.237 0 0 1-.228-.822 1.123 1.123 0 0 0-.31-.705 1.691 1.691 0 0 1-.215-.486c.112-.126.238-.312-.03-.5-.03-.021-.026-.1-.027-.153a2.75 2.75 0 0 0-.369-1.154 2.675 2.675 0 0 1-.155-.603c-.087-.4-.176-.8-.241-1.2-.026-.175.086-.239.264-.281zm8.892 9c-.209-.082-.24-.629-.055-.941a1.232 1.232 0 0 1 .054.942zm-1.47 1.127c-.061-.075-.04-.217-.058-.34.3-.063.453.011.444.319a.809.809 0 0 0 .131.577c.1.139.037.4.045.611l.073-.062.526.331c-.017.035-.034.068-.052.1-.2.019-.382.079-.583-.119-.108-.106-.386-.033-.463-.261-.031-.093-.076-.224-.037-.291a.674.674 0 0 0-.026-.865zm-.993.02l-.148.033c-.074-.209-.155-.416-.215-.631-.013-.045.054-.112.083-.169.036.051.076.1.108.154a1.279 1.279 0 0 1 .139.274 2.082 2.082 0 0 1 .026.339zm-.613 1.4v.591h-.084v-.594c.026.003.053.005.081.005zm-4.507.154l-.04-.232.4.09zM18.939 48.29v-.71a1.116 1.116 0 0 1 .065-.252c.058.043.115.09.176.128a2.544 2.544 0 0 1 .391.229 1.274 1.274 0 0 1 .194.309c-.027.028-.055.056-.083.082l-.3-.078a2.7 2.7 0 0 1-.691 1.271 3.338 3.338 0 0 0-.316.382c-.215.26-.471.175-.752.115.434-.484.837-.938 1.316-1.476zm.552 8.822c-.2-.288-.182-.485.054-.6l-.054.6zm.036.917h-.107c-.094-.175-.19-.347-.33-.6.191.055.372.06.4.125a1.657 1.657 0 0 1 .036.476zm-.255-1.761c-.321-.19-.3-.181-.152-.506a5.084 5.084 0 0 0 .22-.788c.025-.093.043-.19.065-.287l.121.021c-.039.527.2 1.092-.255 1.561zm-2.879-4.411a11.11 11.11 0 0 1 1.2-1.363.823.823 0 0 1 .31-.258c.216-.084.284.051.2.224l-1.759 1.891a.517.517 0 0 1 .048-.493zm-2.007-2.59l-.358.4-.052-.608zm.087.9l.042.081c-.277.351-.277.351-.585.214zm-.026 2.367l-.27-.525.078-.04c.31.26.31.26.191.568zm-1.579-1.11l.054-.076a1.164 1.164 0 0 0 .3.107.588.588 0 0 0 .356-.056c.181-.127.314-.346.578-.219l-.694 1.1-.115-.424-.5.217c.01-.115-.015-.307.034-.327.256-.104.095-.207-.014-.319zM13.4 53.6a3.888 3.888 0 0 0 .827-.309c.295-.1.6-.159.9-.236a7.045 7.045 0 0 0 .854-.235c.08-.031.1-.21.27-.459l.066.238 1.243-.2c.08.371.171.8.267 1.231.058.257.146.508.185.767.036.234-.076.348-.335.4a9.372 9.372 0 0 0-.9.307 5.912 5.912 0 0 1-.672.12c.133.194.317.355.023.563-.056.038.085.355.143.57.182-.112.281-.172.379-.235a.4.4 0 0 0 .569.14 1.53 1.53 0 0 1 .325-.135c.086-.029.192-.019.264-.065a.355.355 0 0 1 .567.21c.13.5.262 1 .406 1.5.018.063.106.106.15.148l-.458.635a.554.554 0 0 0-.769.015.5.5 0 0 1-.246.043c-.394.035-.541.272-.388.643a3.4 3.4 0 0 1 .161.308 1.593 1.593 0 0 1 .03.336c.4.056.57-.1.559-.462a3.224 3.224 0 0 1 .026-.38h.107c.026.226.052.455.079.67l1.178-.361a.4.4 0 0 1 .48.237 3.592 3.592 0 0 1 .223.753c.075.3.15.607.2.915.048.281-.058.412-.377.429a2.765 2.765 0 0 0-.714.239l-.347.116c-.376.119-.753.24-1.13.357-.234.072-.469.146-.707.208-.3.079-.619.125-.914.23a.468.468 0 0 0-.231.316c-.047.231.094.493-.179.685-.049.035.041.268.08.484-.013.07-.037.225-.07.379-.047.219-.139.4-.4.405-.006-.365-.1-.741.165-1.07.038-.047.046-.189.017-.207-.275-.173-.067-.332-.033-.522.043-.235.209-.541-.123-.734-.02-.012-.031-.056-.03-.085a1.778 1.778 0 0 0-.155-.843 6.728 6.728 0 0 1-.28-1.161c-.11.068-.235.1-.292.189a4.821 4.821 0 0 1-.443.711c-.1.1-.35.051-.532.07 0-.041-.018-.112-.007-.117.364-.154.34-.6.607-.806a.937.937 0 0 0 .352-.786.722.722 0 0 0-.364-.646c.19-.165.238-.345.029-.533a.175.175 0 0 1-.035-.087c-.078-.347-.135-.7-.237-1.046a7.941 7.941 0 0 0-.318-.782.565.565 0 0 1-.029-.09c-.073-.342-.127-.689-.223-1.024-.084-.29-.231-.564-.329-.852-.065-.192-.093-.4-.148-.639.064-.33.31-.43.684-.46zm3.256 2.507c-.043-.262.121-.406.307-.55a.389.389 0 0 1-.306.553zm-1.529 9.768c-.258-.054-.351-.225-.22-.41.078-.109-.037-.345.219-.338l.002.751zm.655-.17c-.1.163-.146.355-.244.384-.143.042-.386.09-.4-.2zm-1.91-.83l.413.261-.168.93-.072.008-.145-.385-.182.342c-.075-.047-.186-.077-.212-.141-.047-.117-.1-.288-.048-.377a3.321 3.321 0 0 1 .435-.5l-.021-.135zm-1.24-12.951l.036.065-.364.3-.062-.365c.147.003.268.003.39.003zm-4.9-.811l.345.375-.388.056-.025-.391zm-2.555 7.162l.133-.027.21.748-.133.034q-.106-.376-.21-.755zm.632 9.542l-.322-.574c.413.083.483.202.322.573zm.135-4.806a.483.483 0 0 1 .036-.168.46.46 0 0 1 .147.071c.123.132.238.272.375.434a.46.46 0 0 1-.558-.337zm.611 5.889v-.667c.44.336.44.34 0 .667zm.851-3.991c-.258.151.017.527-.32.653-.189.07-.21.476-.58.287-.1-.7.627-.832.845-1.31l.107.03c-.014.121.01.309-.052.344zm1-1.026c-.278-.124-.48-.49-.907-.317.072-.467-.3-.663-.532-.956a6.093 6.093 0 0 1-.458-.793c-.062-.106-.113-.257-.209-.3-.214-.091-.16-.26-.191-.417-.1-.529-.255-1.051-.312-1.583a5.269 5.269 0 0 1 .078-1.117c.034-.305.087-.61.143-.913a.849.849 0 0 1 .112-.274 9.063 9.063 0 0 1 .573-.935 3.3 3.3 0 0 1 1.6-1.322c.272-.438.766-.248 1.121-.407a2.8 2.8 0 0 1 1.1-.146c.106-.006.206-.106.382-.2a2.874 2.874 0 0 1-.041.342c-.034.136-.146.288-.115.4a4.373 4.373 0 0 0 .3.667.6.6 0 0 1 .043.149c.027.151-.019.308.168.43.078.051.065.337 0 .474-.049.109-.227.18-.362.23a1.33 1.33 0 0 1-.365.025l-.037.627a2.372 2.372 0 0 0-.181-.249.583.583 0 0 0-.917.016 2.085 2.085 0 0 0-.73 1.786 3.635 3.635 0 0 0 .288 1.14 3.406 3.406 0 0 0 .6.953 3.95 3.95 0 0 0 .816.536c.475.274.825-.049 1.223-.076.141-.011.263-.272.4-.427a2.017 2.017 0 0 0 .357.06c.3 0 .42.132.5.428a5.419 5.419 0 0 0 .331.741.925.925 0 0 1 .031.234l.123.914-.717.392a1.8 1.8 0 0 1-.36.187c-.493.129-.991.238-1.484.364a2.185 2.185 0 0 0-.336.153 1.023 1.023 0 0 0-1.294-.209 3.543 3.543 0 0 0-.741-.603zm1.1-4.933c-.189.08-.271.042-.283-.189-.008-.168 0-.337 0-.506l.086.016c.059.229.125.451.191.683zm3.314 8.65c.237.163-.016.281-.062.408-.024.066-.139.1-.212.147-.115-.236-.046-.371.274-.555zm0-.009a.485.485 0 0 1 .326-.542c.082.316-.083.573-.323.538zm-1.507-2.041l-.359.4v-.416zm-2.263.775a5.935 5.935 0 0 1 .65.375c.061.044.036.2.05.31l-.19-.11a2.874 2.874 0 0 1-.4-.258 1.322 1.322 0 0 1-.2-.3zm.7 2.851c-.118.3-.252.6-.393.9-.014.03-.106.023-.166.033A3.549 3.549 0 0 1 9 68.884c.021-.174.04-.325.288-.267a3.158 3.158 0 0 0-.1.473 2.593 2.593 0 0 0 .048.443h.085c.086-.23.168-.459.26-.687.016-.037.072-.086.1-.083a.134.134 0 0 1 .091.1.775.775 0 0 1-.015.309zm.779.634c-.286.194-.432.14-.561-.205l2.054-.666.092-.358h.086l.113.328.087.073c.026-.064.036-.163.084-.188a1.694 1.694 0 0 0 .663-.559l.1.364.966-.3c.058-.018.1-.081.163-.091.477-.071.955-.139 1.433-.2a1.369 1.369 0 0 1 .289.026c-.011.068-.01.1-.018.107-.316.089-.639.161-.95.266-.278.093-.542.226-.818.329a6.258 6.258 0 0 1-.662.2c-.328.084-.666.135-.989.234a4.963 4.963 0 0 0-.634.291.7.7 0 0 1-.145.06c-.381.072-.763.14-1.145.212a.516.516 0 0 0-.201.073zm.627 1.8l.588.557c-.467.048-.644-.135-.581-.56zm1.589 2.09c-.062-.051-.057-.183-.081-.279l.076-.009.367.3c-.176-.006-.307.031-.362-.012zm7.911 6.2c-.008.06-.1.108-.164.161 0-.259-.007-.517 0-.774 0-.062.069-.122.106-.184.031.058.087.114.087.172a3.854 3.854 0 0 1-.029.618zm7 3.777c-.213-.3.139-.35.2-.548.144.255.144.255-.203.541zm5.429.371l-.085.003a1.8 1.8 0 0 0-.067-.243 1.949 1.949 0 0 0-.152-.247l.3-.033c.002.186.002.349.002.513zm4.6 1.283h-.106v-.829h.106zm-3.988-.91c-.02.03-.147.033-.152.021-.086-.233-.163-.468-.249-.733.33.068.545.499.404.705zm-.364.2l.361.111-.251.281a.156.156 0 0 0-.087.033c-.007-.167-.013-.287-.021-.432zM55.44 80c-.329-.587-.329-.587-.135-.7l.254.67zm2.621-3.256c-.013-.164-.025-.329-.037-.519.257.112.276.237.037.519zm.775.631a1.174 1.174 0 0 1-.226-.191c-.022-.029.034-.115.055-.176a.585.585 0 0 1 .132.093 1.052 1.052 0 0 1 .106.178zm7.723-11.457c-.106-.223-.441-.294-.273-.611a.455.455 0 0 1 .273.611zm.717.555a.23.23 0 0 1-.261-.266c0-.044.06-.086.091-.131.1.093.208.189.333.306-.073.043-.117.088-.163.09zm1.311-8.308a.554.554 0 0 0-.082.834.29.29 0 0 1 .028.254 8.708 8.708 0 0 1-.444.861.548.548 0 0 0 0 .675.845.845 0 0 1 .071.294l-.077.028-.265-.3c-.088.332-.147.593-.227.847s-.187.531-.281.795c-.021.056-.05.109-.07.167-.083.251-.156.5-.248.752-.109.294-.235.582-.354.872-.069.168-.1.387-.224.49-.216.178-.119.38-.134.575-.132.148-.341.284-.371.451-.071.421-.5.7-.431 1.159 0 .021 0 .053-.011.062a1.9 1.9 0 0 0-.592.826c-.086.168-.147.347-.209.494-.175.186-.347.368-.534.569l.287.226c-.683 0-.709.6-1 .934a21.139 21.139 0 0 0-1.3 1.672 15.233 15.233 0 0 1-1.347 1.527c-.6.66-1.206 1.323-1.846 1.946a5.727 5.727 0 0 1-.632.613c-.272.191-.49.434-.752.627-.379.279-.773.538-1.156.814-.155.111-.289.251-.443.364-.347.257-.7.5-1.05.758-.309.225-.607.465-.92.685a3.576 3.576 0 0 1-.438.232c-.528.272-1.062.533-1.583.815-.427.23-.838.486-1.261.719a1.151 1.151 0 0 1-.318.068c-.02.1-.042.195-.074.346-.336-.451-.552.116-.9 0 .1.4.338.738.1 1.227a3.478 3.478 0 0 1-.28-.538.577.577 0 0 0-.739-.262 6.957 6.957 0 0 1-.725.338c-.3.124-.609.232-.914.347a.371.371 0 0 1-.06.018c-.373.076-.749.136-1.118.23s-.729.235-1.1.336a2.813 2.813 0 0 1-.487.052l-.175.45c.252.294.23.407-.162.646l-.3-.922c-.267.051-.549-.1-.8.182-.083.093-.363 0-.55.014-.71.06-1.418.126-2.126.2-.08.008-.15.109-.226.168a.932.932 0 0 0-.884-.118c-.051.033-.1.1-.151.1-.586-.021-1.171-.054-1.756-.085-.224-.012-.449-.047-.673-.052-.606-.014-1.214 0-1.818-.035a8.1 8.1 0 0 1-1.737-.223c-.363-.106-.717-.1-1.071-.171-.427-.082-.843-.223-1.262-.338a.557.557 0 0 0-.064-.012c-.4-.072-.8-.124-1.2-.225-.294-.078-.567-.231-.856-.332-.239-.084-.487-.148-.733-.213-.518-.14-1.047-.246-1.551-.421a8.676 8.676 0 0 1-.942-.5 5.359 5.359 0 0 0-.527-.21c-.232-.086-.464-.169-.717-.261l-.108.4h-.09a1.357 1.357 0 0 1-.04-.283c.02-.3-.159-.4-.407-.456a1.8 1.8 0 0 1-.371-.171c-.267-.138-.541-.268-.8-.422s-.486-.345-.741-.5a1.335 1.335 0 0 0-.54-.218c-.267-.022-.424-.1-.411-.4l-.508-.055c-.029-.105-.06-.212-.1-.339l-.467-.04c-.172-.477-.21-.491-.709-.533a.488.488 0 0 1-.289-.235.787.787 0 0 0-.44-.4c-.089-.027-.136-.189-.217-.312l-.277-.042-.08-.32c-.294-.126-.879.131-.749-.522-.268-.1-.517-.191-.766-.287a1.047 1.047 0 0 1-.168-.1 1.416 1.416 0 0 1 .195-.1 1.442 1.442 0 0 1 .217-.03c-.237-.258-.436-.492-.656-.708-.42-.414-.887-.784-1.265-1.232a1.143 1.143 0 0 0-1.142-.5l-.042-.923c-.267-.025-.384-.184-.4-.453 0-.083-.113-.157-.171-.237-.237-.32-.473-.643-.732-1 .163-.047.243-.184.377.044a7.194 7.194 0 0 0 .684.858.9.9 0 0 0-.357-1.105c.351-.1.663-.18.966-.281.28-.093.551-.213.828-.316a1.1 1.1 0 0 1 .184-.044c.334-.072.673-.129 1-.22.4-.109.8-.247 1.194-.372l1.244-.382c.462-.139.935-.249 1.387-.415a6.676 6.676 0 0 1 .94-.347 1.08 1.08 0 0 1 1.1.485c.18.2.325.47.641.508a.082.082 0 0 1 .055.03 2.982 2.982 0 0 0 1.081.981 3.962 3.962 0 0 0 1 .713 4.572 4.572 0 0 1 .725.5c.387.229.795.422 1.189.639.184.1.357.219.531.336s.5-.068.525-.308a3.063 3.063 0 0 0 0-.308c-.364-.232-.675-.443-1-.632-.269-.159-.564-.275-.825-.444a10.408 10.408 0 0 1-1.49-1.072c-.477-.444-1.029-.809-1.543-1.212a2.195 2.195 0 0 1-.46-.423c-.036-.051.108-.23.156-.326l.372.163.252-.674c.191.33.363.394.576.17a.224.224 0 0 1 .113-.05c.339-.076.685-.132 1.017-.232.271-.082.524-.224.79-.322a7.081 7.081 0 0 1 .7-.212c.326-.084.662-.135.981-.237a5.212 5.212 0 0 0 .677-.328l.131.091 1.075-.363v-.527a3.632 3.632 0 0 0-1.318.33 4.609 4.609 0 0 1-.546.1c-.031.157-.063.325-.1.491H26.3c-.029-.1-.058-.21-.1-.347a1.483 1.483 0 0 0-.178.072c-.051.03-.089.1-.142.109-.347.077-.7.125-1.043.217-.326.086-.64.214-.96.324a.615.615 0 0 1-.057.023c-.335.076-.673.133-1 .231-.291.085-.566.226-.854.323-.138.047-.293.038-.436.076-.272.068-.544.139-.811.227-.284.094-.56.217-.844.312q-.571.192-1.149.358c-.3.084-.6.139-.9.226-.337.1-.665.228-1 .324a4.563 4.563 0 0 1-.586.082c.032-.121.03-.238.073-.258a2.251 2.251 0 0 1 .77-.365 4.651 4.651 0 0 0 .988-.317.713.713 0 0 1 .153-.037 1.405 1.405 0 0 0 .982-.377.135.135 0 0 1 .058-.02c.383-.065.772-.107 1.148-.2a9.1 9.1 0 0 0 .871-.316c.206-.076.413-.157.624-.216.3-.083.6-.136.9-.224.334-.1.661-.224.993-.333.221-.074.441-.149.666-.208.333-.084.672-.147 1.005-.231a4.391 4.391 0 0 0 .688-.217c.061-.026.082-.175.1-.273.019-.138.016-.277.022-.415h.107l.073.586.56-.2c.038-.014.076-.028.116-.04.361-.119.722-.238 1.085-.35a.907.907 0 0 1 .252-.029c.308-.011.425-.2.454-.473.011-.1-.008-.213 0-.318.07-.758.136-1.518.227-2.274.011-.085.17-.154.26-.23l.087.072v.721l.358.063c0 .022.008.044.011.067l-.363.125.191.676-.078.043-.187-.153c-.1.135-.211.261-.3.4a.293.293 0 0 0-.016.218c.089.276.193.546.292.821a2.488 2.488 0 0 1 .928-.352 6.4 6.4 0 0 0 1.107-.336c.3-.09.61-.151.911-.241.332-.1.658-.22.989-.328.252-.08.507-.154.761-.23l1.124-.34a2.955 2.955 0 0 1 .731-.21.936.936 0 0 0 .72-.419c.146.23.3.282.469.056a.1.1 0 0 1 .051-.031c.322-.074.647-.136.965-.22.223-.06.438-.149.684-.235.021.415-.132.6-.441.627a2.747 2.747 0 0 0-1.148.355.261.261 0 0 1-.061.016l-1.163.249-.084.311c-.212-.143-.417-.258-.612-.006-.02.026-.079.023-.121.034-.34.072-.684.129-1.02.219-.437.115-.871.243-1.3.391a7.634 7.634 0 0 0-.73.336.264.264 0 0 1-.057.025c-.34.066-.685.113-1.018.2-.294.082-.57.225-.861.319a4 4 0 0 1-.566.091c.036.171.04.473.111.489a2.007 2.007 0 0 0 .668-.04c.032 0 .054-.073.087-.082.326-.079.654-.146.979-.228.255-.067.506-.152.758-.228.377-.114.755-.221 1.127-.349.309-.106.61-.233.914-.348a.544.544 0 0 1 .09-.026c.307-.067.617-.121.921-.2a11.725 11.725 0 0 0 1.344-.4 6.558 6.558 0 0 1 1.306-.387 7 7 0 0 0 .822-.325c.321-.1.653-.167 1-.253 0-.2.168-.434-.133-.583-.014-.006-.017-.037-.022-.057-.068-.367-.131-.734-.206-1.1-.023-.116-.1-.224-.115-.339a1.28 1.28 0 0 1-.007-.486c.013-.049.221-.06.341-.062a.186.186 0 0 1 .141.1c.086.251.153.506.232.76.065.208.136.416.219.619.009.02.119 0 .185 0-.063-.176.075-.132.168-.163.274-.093.54-.212.812-.312a2.945 2.945 0 0 1 .68-.218 1.639 1.639 0 0 0 1.055-.388.125.125 0 0 1 .057-.023c.394-.068.792-.116 1.18-.208a8.669 8.669 0 0 0 .858-.291 1.4 1.4 0 0 1 .174-.071c.329-.076.664-.127.986-.223s.617-.243.93-.343c.277-.09.569-.134.849-.217.308-.091.61-.2.914-.307a.621.621 0 0 1 .21-.063c.281.009.529-.015.516-.389l.46.223.091-.074c-.061-.37-.12-.737-.182-1.1.123.112.284.208.347.347.211.464.52.554 1.019.286a.406.406 0 0 1 .083-.043c.353-.076.71-.131 1.055-.228.273-.078.53-.209.8-.314a.477.477 0 0 1 .182-.042 1.564 1.564 0 0 0 .969-.346c.029-.022.079-.017.121-.025.4-.077.812-.138 1.211-.235.44-.11.872-.251 1.306-.382.4-.121.81-.241 1.209-.378.308-.107.6-.252.913-.354.254-.086.523-.128.781-.206.375-.112.741-.248 1.118-.357.291-.085.593-.129.881-.22s.563-.233.852-.326a1.705 1.705 0 0 1 .5-.067c.221 0 .254-.136.266-.311a1.18 1.18 0 0 1 .066-.243c.027.084.052.17.078.255.008.029.014.06.036.155.132-.058.253-.107.371-.161.027-.012.045-.047.074-.051.337-.074.68-.129 1.013-.224.3-.084.577-.219.871-.315.273-.09.55-.164.829-.232a3.557 3.557 0 0 1 .442-.047l-.211-.345c.174.031.33.015.369.075.17.26.239.055.3-.016l.2.322c0 .245-.3.2-.59.217-.031.107-.06.205-.1.326-.208-.214-.393-.18-.625-.035a2.719 2.719 0 0 1-.692.238c-.283.079-.572.133-.852.217-.322.1-.636.217-.955.326-.038.013-.078.033-.119.042-.326.073-.657.133-.98.222a4.875 4.875 0 0 0-1.2.4 2.312 2.312 0 0 1-.628.17c-.285.086-.562.2-.842.309a.79.79 0 0 1-.119.043c-.337.077-.68.133-1.011.233-.283.084-.551.217-.828.328a.461.461 0 0 1-.15.049 3.1 3.1 0 0 0-1.15.335 9.022 9.022 0 0 1-.879.23c-.336.1-.661.24-1 .339-.352.1-.712.177-1.1.273l-.092.373c-.2-.228-.379-.36-.56-.051-.007.012-.038.011-.06.014-.372.07-.751.114-1.114.215-.318.086-.618.235-.928.35-.065.025-.156-.007-.214.025a2.758 2.758 0 0 0-.328.23c.09.115.168.314.27.326a1.5 1.5 0 0 0 .534-.124c.03-.009.056-.035.084-.041.389-.08.78-.159 1.191-.241l.088-.331c.12.027.239.379.347.017a.094.094 0 0 1 .08-.033c.48.177.864-.188 1.308-.237a6.58 6.58 0 0 0 1.316-.371c.513-.172 1.017-.371 1.522-.56.047-.016.085-.056.129-.072a.6.6 0 0 1 .282-.079.258.258 0 0 1 .14.205c-.034.269.082.551-.149.809a1.62 1.62 0 0 0-.211.62c-.082.285-.129.582-.235.857-.152.393-.342.773-.516 1.159-.07.153-.142.3-.211.457a12.438 12.438 0 0 1-.633 1.363 1.019 1.019 0 0 0-.151.417c.369 0 .4-.358.546-.569A7.482 7.482 0 0 0 57.4 60.3c.1-.2.149-.422.24-.626.1-.24.238-.47.343-.71a4.884 4.884 0 0 0 .212-.59c.083-.28.139-.569.224-.847.1-.333.219-.661.329-.992.016-.048.026-.1.041-.147.068-.212.136-.424.2-.638l.184.027c-.013.235-.015.47-.045.7a2.1 2.1 0 0 1-.125.367c-.121.357-.239.711-.36 1.065-.07.208-.138.415-.211.621-.2.572-.381 1.16-.622 1.715-.2.45-.538.842-.687 1.3-.094.289-.406.554-.234.916h-.275c-.119.172-.2.294-.283.41-.288.386-.29.519.012.858a3.112 3.112 0 0 0 .281.245l.6-1-.187-.391c.386.08.491 0 .61-.358a3.3 3.3 0 0 1 .317-.546c.09-.159.171-.323.254-.484.181-.353.369-.7.537-1.064.1-.208.146-.436.232-.648.1-.238.216-.468.323-.7.016-.037.028-.077.042-.116.123-.373.253-.743.363-1.119.037-.129 0-.282.036-.411.106-.355.238-.7.352-1.054.025-.078 0-.176.029-.251.062-.15.109-.358.228-.424a3.9 3.9 0 0 1 .745-.234c.389-.12.774-.245 1.163-.363.259-.077.523-.14.782-.219.375-.113.748-.235 1.123-.352.22-.07.44-.141.663-.2.294-.077.594-.133.885-.221.325-.1.641-.235.967-.338.292-.09.594-.147.889-.228.135-.037.26-.106.4-.142a3.671 3.671 0 0 1 .391-.058c0 .671.036 1.31-.021 1.94-.019.212-.172.42-.174.674s.16.338.4.52c0-.394-.023-.708.006-1.016.031-.339.129-.672.162-1.009.03-.307.014-.617.017-.924v-.337l.429-.041c-.069.382-.159.722-.184 1.064-.04.507-.041 1.017-.037 1.526 0 .069.118.136.185.209-.429.245-.521.669-.225.953-.228.184-.228.184 0 .385-.386.316-.419.551-.338 1.167zm.631-.371l-.3-.28c.151 0 .271-.035.317.009s.041.17.056.26c-.023.002-.048.006-.073.01zm.767-3.384c-.03-.034-.09-.069-.089-.1.008-.147.033-.292.052-.438h.1c.015.14.04.279.041.419.002.038-.066.08-.104.118zm1.628-3.059c-.016-.023-.034-.044-.049-.066-.149.1-.305.188-.445.3-.1.076-.149.211-.3.055-.034-.034-.182.038-.184.038-.318-.26-.594-.48-.86-.71-.047-.041-.051-.129-.075-.195h-.407l.063-.373.077-.028.276.391a.676.676 0 0 1 .185.009c.234.079.466.166.748.267.009.03.038.128.069.222l1.079-.316c-.083.194-.13.3-.176.405zM71.776 45c.04-.139.071-.251.1-.363.114.1.228.2.41.363zm.146 4.274c-.185-.451-.112-.607.315-.578-.113.204-.203.373-.316.581zm.4-1.6h-.1v-1.066h.1zm1.733.736l-.333.082.221.689c-.443.087-.606-.048-.6-.442v-.637A3.293 3.293 0 0 0 73 46.658a2.714 2.714 0 0 1-.1-.565c-.091.217-.143.344-.2.471-.1-.1-.209-.195-.268-.249.118-.243.233-.451.315-.673a.254.254 0 0 0-.121-.213c-.23-.087-.252-.251-.234-.459a3.679 3.679 0 0 0-.381-1.622c-.022-.059-.1-.1-.083-.168-.025-.093-.048-.187-.074-.278-.008-.03-.03-.055-.036-.085-.067-.328-.112-.662-.2-.983-.085-.3-.23-.574-.324-.868a3.358 3.358 0 0 1-.082-.519l-.357-.067a.708.708 0 0 0 .1-.708c-.146-.565-.612-1.044-.476-1.683a.268.268 0 0 1 .036-.066c.2-.019.307.05.364.275.082.318.225.617.333.929.076.22.147.442.2.667.084.329.134.667.234.99a6.051 6.051 0 0 0 .295.638 1.226 1.226 0 0 1 .057.239c.076.381.128.769.232 1.141a2.609 2.609 0 0 0 .387.963c.217.262.1.519.17.765.093.314.218.618.328.927.014.04.022.082.034.122.124.413.262.824.374 1.24a8.412 8.412 0 0 1 .21.986c.035.245-.062.544.419.517a1 1 0 0 0-.093.091z" data-name="Path 1554" transform="translate(.002 -17.933)"/>
                <path id="Path_1555" d="M203.112 80.917a1.5 1.5 0 0 1-.569.255c-.4.094-.819.149-1.23.223-.027 0-.048.034-.086.066l.155.209-.023.092a2.552 2.552 0 0 1-.628-.05c-.3-.1-.535.084-.8.106a1.939 1.939 0 0 0-.4.146c-.057.019-.131-.009-.188.012-.317.111-.627.245-.95.343-.3.092-.622.131-.924.227-.265.085-.507.245-.773.318a.554.554 0 0 1-.64-.115 11.279 11.279 0 0 0-.939-.824c-.274-.24-.542-.49-.819-.726a4.962 4.962 0 0 0-.506-.385c-.253-.165-.526-.3-.775-.468-.312-.211-.594-.471-.92-.658-.424-.243-.879-.43-1.318-.645-.15-.074-.295-.162-.444-.237-.33-.167-.664-.327-1-.494-.1-.051-.224-.189-.293-.164-.364.132-.571-.212-.858-.295-.22-.064-.326-.138-.421 0a6.005 6.005 0 0 0-.9-.479 8.98 8.98 0 0 0-1.144-.234c-.032-.006-.063-.015-.093-.023-.355-.109-.709-.239-1.07-.324a8.124 8.124 0 0 0-1.1-.186c-.6-.056-1.208-.089-1.813-.167a24.049 24.049 0 0 0-2.645-.041c-.258 0-.436.042-.427.32l-.7.286-.032-.485-1.936.272c.048.152.079.266.122.376s.1.22.173.384a.877.877 0 0 1 .31-.136c.246 0 .419-.406.715-.083.051-.258.121-.459.457-.324l-.205.332c.471-.027.894-.045 1.315-.079.13-.011.255-.076.386-.09a25.768 25.768 0 0 1 3.3.17 3.585 3.585 0 0 1 .636.04c.5.1.994.234 1.494.335.446.091.9.155 1.349.231a.176.176 0 0 1 .061.016c.266.18.527.277.794-.109l.062.423c.294.081.575.154.853.239a5.485 5.485 0 0 1 .624.22c.2.091.391.224.6.313.363.155.737.277 1.1.436.319.141.624.314.959.486.1.072.23.171.368.252s.288.123.411.211c.24.17.458.37.7.541.466.331.944.645 1.412.976a7.888 7.888 0 0 1 .716.569c.192.172.329.421.542.55.238.143.1.234.034.413-.349-.278-.674-.523-.984-.788-.194-.166-.315-.445-.643-.36.011.06 0 .137.041.171.279.262.57.512.849.776a.224.224 0 0 1 .022.184 5.145 5.145 0 0 1-.568.2 2.137 2.137 0 0 1-.342.044l.2.267a2.088 2.088 0 0 0-.309.084c-.2.087-.322-.147-.57-.051a13.462 13.462 0 0 1-1.716.438.748.748 0 0 0-.087.03c-.277.112-.55.245-.837.329-.319.094-.654.146-.98.216a.54.54 0 0 0-.087.032c-.3.111-.594.239-.9.329s-.646.132-.962.224c-.373.109-.739.243-1.1.379-.112.042-.282.109-.3.19a2.4 2.4 0 0 0 .02.578c.249-.055.577.024.577-.417.257.243.255.243.554.06a.391.391 0 0 1 .118-.04l1.012-.224a.439.439 0 0 0 .118-.042 1.762 1.762 0 0 1 .945-.324.715.715 0 0 0 .249-.041c.332-.11.658-.236.991-.336a8.814 8.814 0 0 0 .887-.23 2.859 2.859 0 0 1 1.154-.355.342.342 0 0 0 .125-.025l1.265-.44.082-.332c.157.086.289.221.408.212a1.487 1.487 0 0 0 .635-.195 3 3 0 0 1 1.185-.389 12.756 12.756 0 0 0 1.491-.382c.009 0 .016-.012.026-.016.308-.112.613-.231.923-.332.259-.084.526-.139.787-.216.391-.117.78-.239 1.167-.368.241-.08.479-.175.748-.274.016.006.111.078.172.055.276-.1.536-.256.817-.34.339-.1.694-.149 1.041-.222a.789.789 0 0 0 .143-.071l-.38-.188c.19-.115.352-.214.515-.316a.382.382 0 0 0-.581-.051z" data-name="Path 1555" transform="translate(-142.237 -65.197)"/>
                <path id="Path_1556" d="M228.257 130.565v-.009h-.006z" data-name="Path 1556" transform="translate(-184.558 -108.997)"/>
                <path id="Path_1558" d="M52.987 111.033a.771.771 0 0 0 .094-.011l1.135-.363c.03-.009.064-.007.093-.019a3.888 3.888 0 0 1 .936-.331 2.683 2.683 0 0 0 1.095-.411c.09-.05.168-.15.261-.166.509-.081 1.019-.142 1.455-.2l.256-.773-.7.118c-.033-.173-.116-.368.1-.544.044-.036.017-.18-.008-.265a.176.176 0 0 0-.163-.045.457.457 0 0 0-.142.182.441.441 0 0 0-.014.157 1.383 1.383 0 0 1-.547.969c0-.286-.09-.586.019-.7.221-.238.13-.383-.047-.586l.329-.071c.094-.374.165-.726.275-1.066.1-.3.24-.578.354-.869.085-.214.137-.444.237-.65.155-.322.349-.625.5-.948s.284-.656.43-.982a2.588 2.588 0 0 1 .216-.413 8.714 8.714 0 0 0 .867-1.261 10.224 10.224 0 0 1 .907-1.224 2.784 2.784 0 0 1 .793-.907c.266-.172.414-.517.647-.754.422-.43.865-.839 1.3-1.251.263-.248.525-.5.8-.727.336-.275.681-.535 1.034-.788s.705-.484 1.062-.719c.234-.154.474-.3.716-.441.261-.153.525-.295.788-.443l-.038-.123a6.521 6.521 0 0 1-.906-.009 1.219 1.219 0 0 0-.914.318q-.442.316-.888.625c-.345.24-.7.471-1.036.72-.181.133-.341.291-.512.438-.347.3-.7.587-1.04.9-.366.334-.723.68-1.074 1.032-.278.28-.554.562-.806.865s-.486.648-.737.988l.086.129c-.194.139-.454.224-.5.374a2.974 2.974 0 0 1-.656 1.04 14.336 14.336 0 0 0-.9 1.515 8.119 8.119 0 0 0-.437.833c-.178.355-.36.708-.518 1.072-.1.23-.152.478-.236.714-.114.314-.238.624-.359.936a.355.355 0 0 1-.064.135.309.309 0 0 0-.079.418 1.147 1.147 0 0 0-.208.338 6.659 6.659 0 0 0-.192.7c-.075.337-.136.679-.2 1-.234.043-.416.073-.6.113s-.376.086-.562.138c-.236.066-.473.133-.705.213-.32.108-.635.227-.953.342a1.785 1.785 0 0 0-.558.223.516.516 0 0 1-.4.14c-.6-.009-.979.285-1.023.78a1.42 1.42 0 0 0 .822-.144 4.764 4.764 0 0 1 1.115-.261z" data-name="Path 1558" transform="translate(-41.292 -79.753)"/>
                <path id="Path_1559" d="M51.036 183.407h-.009l.008.006z" data-name="Path 1559" transform="translate(-41.259 -151.731)"/>
                <path id="Path_1560" d="M228.253 130.569l-.006-.007z" data-name="Path 1560" transform="translate(-184.554 -109.002)"/>
                <path id="Path_1561" d="M162.455 128.386a2.307 2.307 0 0 1-.386.164c-.344.047-.622.308-1.006.251-.18-.027-.383.109-.577.168-.23.072-.46.14-.69.212-.359.115-.715.24-1.078.346-.293.086-.6.143-.889.227-.224.064-.444.149-.664.229-.27.1-.535.216-.811.294-.343.1-.7.156-1.046.243-.215.055-.427.124-.636.2-.288.1-.565.241-.857.326-.332.1-.681.13-1.012.23-.412.125-.813.29-1.252.451l-.038.154a2.349 2.349 0 0 0-.618-.023c-.387.092-.762.237-1.141.36-.038.012-.076.027-.115.04l-1 .333a4.323 4.323 0 0 0-.5.188.211.211 0 0 0-.008.2 5.244 5.244 0 0 0 .422.324c.343-.114.668-.234 1-.328.311-.089.646-.112.944-.23a3.068 3.068 0 0 1 1.3-.362.283.283 0 0 0 .094-.011 12.534 12.534 0 0 1 1.487-.53 8.181 8.181 0 0 0 1.322-.386 12.875 12.875 0 0 1 1.459-.417c.04-.011.08-.023.119-.037.33-.111.653-.243.988-.329.363-.092.738-.141 1.108-.209a.282.282 0 0 0 .057-.024c.253-.111.5-.228.76-.332s.506-.189.776-.288c-.063-.075-.116-.142-.164-.2.113-.123.2-.221.331-.363l.063.47 1.216-.228a.432.432 0 0 0 .056-.026c.287-.113.565-.248.86-.334.326-.1.668-.143 1-.223.048-.012.082-.085.121-.132a1.427 1.427 0 0 0-.241-.132c-.252-.081-.438-.373-.754-.266z" data-name="Path 1561" transform="translate(-119.759 -107.224)"/>
                <path id="Path_1562" d="M87.862 46.422c-.307.159-.584.372-.885.544-.267.153-.562.26-.82.427-.445.287-.873.6-1.3.912-.357.255-.719.5-1.063.773-.2.157-.343.439-.562.513a1.936 1.936 0 0 0-.645.448c-.471.4-.951.787-1.411 1.2a.544.544 0 0 0-.235.579 1.07 1.07 0 0 0 .064.131.672.672 0 0 0 .147-.076c.473-.422.938-.853 1.416-1.27a4.65 4.65 0 0 0 .782-.641A1.6 1.6 0 0 1 84 49.4a8.663 8.663 0 0 0 1.1-.746c.452-.313.9-.632 1.36-.936.222-.147.466-.259.695-.4a4.012 4.012 0 0 1 1.034-.593 1.9 1.9 0 0 0 .386-.2 10.8 10.8 0 0 1 .97-.512.476.476 0 0 0 .346-.575c-.252.13-.473.253-.7.362-.439.211-.891.4-1.329.622z" data-name="Path 1562" transform="translate(-65.427 -40.174)"/>
                <path id="Path_1563" d="M35.611 120.346c.094-.315.161-.624.279-.913.153-.374.349-.73.519-1.1.2-.426.391-.854.586-1.282.068-.152.2-.31.188-.456-.03-.434.422-.608.481-.985a.664.664 0 0 1 .1-.189c-.111-.008-.276-.066-.324-.015a2.864 2.864 0 0 0-.423.591c-.148.276-.258.573-.391.858-.057.123-.139.234-.194.357-.086.191-.153.389-.239.58-.107.243-.233.477-.337.72-.09.211-.155.433-.241.647-.167.413-.355.819-.508 1.237-.1.266-.146.55-.222.825-.062.223-.129.444-.2.664-.113.352-.258.7-.342 1.056-.1.418-.146.851-.22 1.276a1.029 1.029 0 0 1-.062.142c-.044.125-.086.253-.135.4.4-.017.566-.17.586-.471a3.494 3.494 0 0 1 .056-.569c.094-.391.217-.773.322-1.16.091-.339.166-.682.268-1.018.086-.283.208-.554.3-.834.012-.037-.045-.1-.073-.147l-.082-.14a1.177 1.177 0 0 1 .158-.067.976.976 0 0 1 .15-.007z" data-name="Path 1563" transform="translate(-27.434 -96.733)"/>
                <path id="Path_1564" d="M150.38 80.077c-.468.335-1.058.255-1.565.635a.268.268 0 0 1-.333.276c-.075-.007-.159.072-.238.111a1.72 1.72 0 0 0 .2.344.291.291 0 0 0 .242.073 2.457 2.457 0 0 0 .43-.173 10.146 10.146 0 0 1 1.166-.526c.436-.136.883-.235 1.318-.393a9.6 9.6 0 0 1 1.321-.229.827.827 0 0 0 .423-.252c.131-.149.012-.491-.161-.485a5.469 5.469 0 0 0-.944.131c-.31.066-.611.176-.92.254a2.875 2.875 0 0 0-.939.234z" data-name="Path 1564" transform="translate(-119.866 -67.679)"/>
                <path id="Path_1565" d="M227.253 34.475c.368.074.738.138 1.109.208a.7.7 0 0 1 .092.025c.282.11.561.237.85.329s.6.143.9.226a4.328 4.328 0 0 1 .537.193c.241.105.473.231.714.336.18.079.368.133.55.21.259.109.509.237.771.337.291.112.592.2.949.323l-.021-.417a1.546 1.546 0 0 1-.324-.068c-.246-.109-.48-.243-.727-.352-.192-.084-.4-.131-.591-.219s-.388-.238-.6-.318c-.259-.1-.538-.153-.8-.237-.248-.078-.491-.17-.737-.257a8.088 8.088 0 0 0-.842-.3c-.386-.092-.783-.139-1.177-.205-.031 0-.072-.008-.088-.028-.24-.279-.616-.188-.913-.33a3.173 3.173 0 0 0-.839-.141c-.12.242.138.4.27.463a4.283 4.283 0 0 0 .917.222z" data-name="Path 1565" transform="translate(-182.763 -30.758)"/>
                <path id="Path_1566" d="M57.6 79.922c-.265.288-.572.543-.812.849-.3.384-.553.81-.837 1.209-.364.515-.746 1.019-1.106 1.537-.206.295-.377.614-.579.91-.1.142-.276.246-.118.452l.439-.211c.189-.313.358-.619.551-.911.2-.307.435-.6.645-.9.231-.33.429-.686.681-1 .459-.567.949-1.111 1.427-1.664.262-.3.526-.6.786-.9.217-.255.546-.473.3-.916-.356.371-.708.729-1.048 1.1-.122.137-.202.311-.329.445z" data-name="Path 1566" transform="translate(-43.734 -66.81)"/>
                <path id="Path_1567" d="M270.165 50.334c.4.215.822.411 1.21.653.322.2.6.466.914.686.46.328.94.628 1.391.967.3.225.558.5.84.745a.759.759 0 0 0 .912.128l-.751-.607c-.414-.335-.816-.686-1.246-1-.326-.24-.717-.4-1.025-.658a1.919 1.919 0 0 0-1.135-.57c-.026-.1-.048-.19-.058-.237-.359-.209-.667-.384-.972-.563a2.059 2.059 0 0 0-.373-.226c-.306-.1-.574-.4-.981-.2.048.1.068.228.139.27.37.217.755.41 1.135.612z" data-name="Path 1567" transform="translate(-217.417 -43.365)"/>
                <path id="Path_1568" d="M205.1 84.482c-.368-.152-.745-.28-1.113-.432-.234-.1-.452-.241-.69-.324-.284-.1-.584-.153-.874-.232-.226-.062-.451-.128-.674-.2-.331-.109-.655-.248-.993-.334-.252-.065-.506-.068-.769-.159a7.264 7.264 0 0 0-1.5-.234 11.935 11.935 0 0 1-1.382-.14 8.754 8.754 0 0 0-1.92-.034c0 .337.209.425.54.277a.654.654 0 0 1 .324-.064c.212.023.42.093.634.124a7.518 7.518 0 0 1 1.9.164c.4.163.9.04 1.35.211a8.032 8.032 0 0 0 1.249.237 2.409 2.409 0 0 1 .73.21c.45.262 1 .22 1.439.513a3.188 3.188 0 0 0 .709.234 1.7 1.7 0 0 1 .457.2 1.5 1.5 0 0 0 .981.351c-.034-.227-.225-.297-.398-.368z" data-name="Path 1568" transform="translate(-157.818 -70.021)"/>
                <path id="Path_1569" d="M170.14 31.1c.667-.04 1.338-.026 2.008-.047a3.149 3.149 0 0 0 .484-.088 1.77 1.77 0 0 0 .343.075c.124-.3.3-.081.452-.06a3.04 3.04 0 0 0 .336.068c.393.013.788 0 1.179.026a.642.642 0 0 0 .651-.352c-.863-.065-1.677-.127-2.492-.185a.556.556 0 0 0-.122.033l-.332.072-.019-.072a.811.811 0 0 1-.278.1 22.825 22.825 0 0 0-3.528.239 3.1 3.1 0 0 0-.673.249l.027.114a1.843 1.843 0 0 0 .288.013c.562-.053 1.117-.147 1.676-.185z" data-name="Path 1569" transform="translate(-135.961 -28.128)"/>
                <path id="Path_1570" d="M135.018 33.653c-.353.079-.69.231-1.041.326s-.7.154-1.046.229a.3.3 0 0 0-.062.013c-.264.112-.52.243-.792.332-.289.1-.593.146-.888.227a4.778 4.778 0 0 0-.627.213c-.458.2-.911.411-1.389.63v.361c.23-.1.406-.158.564-.247a2.158 2.158 0 0 1 1.124-.413.5.5 0 0 0 .18-.048c.295-.113.584-.239.882-.34.257-.087.524-.143.784-.219.4-.117.806-.239 1.209-.357.05-.014.1-.012.155-.028.352-.112.7-.253 1.057-.335.42-.1.852-.145 1.3-.217l-.03-.355c-.484.075-.937.128-1.38.228z" data-name="Path 1570" transform="translate(-104.446 -30.459)"/>
                <path id="Path_1571" d="M131.845 153.109c.143 0 .267.035.3-.006.222-.266.59-.083.851-.315a1.856 1.856 0 0 1 .772-.23c.334-.08.671-.149 1.006-.221.2-.043.227-.178.156-.332a3.291 3.291 0 0 0-.249-.378 16.708 16.708 0 0 1-2.539.752l-.297.73z" data-name="Path 1571" transform="translate(-106.606 -126.035)"/>
                <path id="Path_1572" d="M102.993 114.247c.368-.414.762-.8 1.153-1.2l1.5-1.5c-.131.005-.3-.034-.377.033a13.167 13.167 0 0 0-.988.957c-.564.6-1.131 1.209-1.657 1.845-.241.291-.6.511-.657.936.083-.023.193-.024.237-.077.274-.323.508-.679.789-.994z" data-name="Path 1572" transform="translate(-82.451 -93.626)"/>
                <path id="Path_1573" d="M121.188 111.552h.012z" data-name="Path 1573" transform="translate(-97.985 -93.631)"/>
                <path id="Path_1574" d="M249.082 95.405h-.011l.006.008h.007V95.4z" data-name="Path 1574" transform="translate(-201.392 -80.573)"/>
                <path id="Path_1575" d="M251.753 96.7c-.284-.205-.583-.393-.886-.572s-.636-.347-.953-.525c-.245-.136-.464-.349-.782-.255.007.057 0 .143.03.16.265.145.536.279.809.413a4.06 4.06 0 0 1 .468.22c.243.164.463.365.7.532.4.273.829.5 1.194.81a.565.565 0 0 0 .416.159c-.019-.069-.02-.16-.063-.2-.301-.258-.61-.512-.933-.742z" data-name="Path 1575" transform="translate(-201.441 -80.507)"/>
                <path id="Path_1576" d="M268.057 107.417v.009h.007v-.008z" data-name="Path 1576" transform="translate(-216.744 -90.288)"/>
                <path id="Path_1577" d="M137.082 93.923c.058.006.13.038.172.014.414-.238.811-.507 1.237-.726.469-.241.961-.437 1.442-.653v-.1a1.317 1.317 0 0 0-.5.011c-.326.145-.622.356-.942.517-.436.22-.887.41-1.32.635-.059.039-.058.2-.089.302z" data-name="Path 1577" transform="translate(-110.841 -78.18)"/>
                <path id="Path_1578" d="M215.453 32.731c.282.05.558.132.868.209v-.418c-.7-.028-1.361-.4-2.081-.153a.483.483 0 0 0 .549.318 3.262 3.262 0 0 1 .664.044z" data-name="Path 1578" transform="translate(-173.229 -29.537)"/>
                <path id="Path_1579" d="M122.673 102.958c.181-.145.39-.255.582-.387a.6.6 0 0 0 .1-.124c-.058-.024-.131-.082-.173-.065a1.5 1.5 0 0 0-.293.18c-.365.255-.729.509-1.092.769a4.129 4.129 0 0 1-.536.387c-.205.1-.253.22-.176.413a3.249 3.249 0 0 0 .5-.27c.373-.291.72-.61 1.088-.903z" data-name="Path 1579" transform="translate(-97.882 -86.213)"/>
                <path id="Path_1580" d="M121.208 111.531l.007.006v-.009z" data-name="Path 1580" transform="translate(-98.005 -93.611)"/>
                <path id="Path_1581" d="M319.731 89.428c-.136-.19-.252-.117-.358-.049-.034.022.007.221.062.307.153.233.342.442.5.674a.564.564 0 0 0 .739.286c0-.041 0-.091-.019-.116-.311-.369-.647-.715-.924-1.102z" data-name="Path 1581" transform="translate(-258.226 -75.643)"/>
                <path id="Path_1582" d="M326.208 96.291v.009l.009-.009z" data-name="Path 1582" transform="translate(-263.763 -81.29)"/>
                <path id="Path_1584" d="M87.149 149.76c-.1.205-.176.42-.266.631-.1.236-.222.465-.3.709a5.038 5.038 0 0 0-.123.625c.165.044.247-.05.295-.234.067-.26.152-.516.237-.77a4.179 4.179 0 0 1 .19-.474c.121-.255.251-.5.377-.757-.276-.118-.332.11-.41.27z" data-name="Path 1584" transform="translate(-69.906 -124.28)"/>
                <path id="Path_1585" d="M96.793 132.09c.122-.229.409-.414.27-.739a1.888 1.888 0 0 0-.333.293c-.2.277-.37.571-.546.862-.146.241-.369.465-.226.788.055-.035.125-.059.157-.108.235-.359.477-.716.678-1.096z" data-name="Path 1585" transform="translate(-77.552 -109.64)"/>
                <path id="Path_1586" d="M101.921 131.279v-.01h-.011v.015l.007-.005z" data-name="Path 1586" transform="translate(-82.405 -109.574)"/>
                <path id="Path_1587" d="M96.128 141.519v-.012h.009z" data-name="Path 1587" transform="translate(-77.717 -117.852)"/>
                <path id="Path_1588" d="M92.091 142c.088-.194.157-.4.232-.6-.05-.015-.121-.045-.133-.031a7.082 7.082 0 0 0-.443.617c-.124.206-.218.43-.322.639.047.1.1.209.148.318a.54.54 0 0 0 .1-.107c.146-.274.288-.552.418-.836z" data-name="Path 1588" transform="translate(-73.923 -117.74)"/>
                <path id="Path_1589" d="M189.264 82.314l-.7.162c-.163-.14-.336-.074-.394.221.286 0 .568-.008.851 0 .254.012.32-.097.243-.383z" data-name="Path 1589" transform="translate(-152.151 -69.99)"/>
                <path id="Path_1590" d="M143.846 88.526c-.051-.095-.329-.067-.5-.095l-.026.133.434.161c-.243.063-.4.106-.6.159l.5.282a.43.43 0 0 0 .192-.64z" data-name="Path 1590" transform="translate(-115.747 -74.936)"/>
                <path id="Path_1591" d="M164.3 86.375c-.386.064-.771.145-1.153.231-.024.006-.029.1-.041.154l1.414-.219c-.066-.106-.149-.177-.22-.166z" data-name="Path 1591" transform="translate(-131.884 -73.272)"/>
                <path id="Rectangle_3468" d="M0 0H0.008V0.008H0z" data-name="Rectangle 3468" transform="translate(31.212 13.488)"/>
                <path id="Path_1592" d="M155.076 89.656a1.144 1.144 0 0 0 .954-.257v-.024a1.014 1.014 0 0 0-.954.281z" data-name="Path 1592" transform="translate(-125.39 -75.689)"/>
                <path id="Path_1593" d="M160.073 89.4l.006-.009h-.014v.009z" data-name="Path 1593" transform="translate(-129.424 -75.709)"/>
                <path id="Path_1594" d="M183.127 83.489c0-.03-.045-.08-.072-.08-.292-.006-.586 0-.88 0v.181h.9c.018-.008.055-.071.052-.101z" data-name="Path 1594" transform="translate(-147.302 -70.872)"/>
                <path id="Path_1595" d="M133.962 100.342l-.047.344.068.072.345-.329z" data-name="Path 1595" transform="translate(-108.28 -84.567)"/>
                <path id="Path_1596" d="M160.694 88.428a2.573 2.573 0 0 0-.43.013c-.05.009-.085.106-.125.168a2.4 2.4 0 0 0 .427-.016c.05-.007.084-.102.128-.165z" data-name="Path 1596" transform="translate(-129.483 -74.932)"/>
                <path id="Path_1598" d="M211.383 229.623c.372-.063.738-.154 1.1-.243a5.5 5.5 0 0 0 .612-.18c.276-.1.54-.249.822-.336.328-.1.672-.145 1-.23.234-.06.462-.149.688-.23.3-.108.6-.24.906-.328s.639-.129.957-.209c.224-.054.442-.132.661-.208.325-.112.646-.243.974-.34.3-.091.618-.133.919-.226.4-.124.782-.275 1.2-.424-.011-.149-.023-.32-.043-.571-.314.1-.57.184-.833.251-.323.083-.662.12-.974.232a3.061 3.061 0 0 1-1.145.361.174.174 0 0 0-.062.011c-.392.125-.783.253-1.176.372-.276.084-.56.14-.833.228-.363.119-.717.261-1.09.4-.015.071-.035.172-.049.231a1.074 1.074 0 0 0-.375-.09 8.106 8.106 0 0 0-1.011.233c-.3.091-.59.24-.9.333a4.662 4.662 0 0 0-.944.247.5.5 0 0 1-.708-.085c-.013.155-.023.31-.037.464-.007.239.102.376.341.337z" data-name="Path 1598" transform="translate(-170.65 -186.252)"/>
                <path id="Path_1599" d="M167.17 305.661a.294.294 0 0 1-.148-.042c-.3-.243-.635-.113-.977-.145 0 .205-.009.364 0 .521.007.073.044.191.094.208a4.152 4.152 0 0 0 .754.194c.282.037.57.02.857.037a.394.394 0 0 1 .219.071.782.782 0 0 0 .833 0c.127.049.228.1.334.127a1.544 1.544 0 0 0 .357.078 2.07 2.07 0 0 0 .367-.037c.069-.007.177-.049.2-.02.234.267.459.176.662.028.413.227.831.068 1.255.116v-.689c-.765-.079-1.509-.164-2.254-.233-.845-.075-1.699-.142-2.553-.214z" data-name="Path 1599" transform="translate(-134.257 -250.426)"/>
                <path id="Rectangle_3469" d="M0 0H0.013V0.009H0z" data-name="Rectangle 3469" transform="translate(48.832 52.363)"/>
                <path id="Path_1600" d="M201.789 304.744c-.092.02-.191.006-.284.022-.273.051-.542.109-.812.168a5.761 5.761 0 0 1-.794.164c-.54.034-1.083.027-1.624.043-.228.007-.362.2-.259.345l.261.382c.5 0 1-.017 1.512 0 .339.016.566-.042.534-.445 0-.033.034-.068.094-.181l.123.428h.31l.08-.533c.15.2.268.355.339.453l1.5-.355v-.686a2.444 2.444 0 0 0-.332.028c-.221.051-.437.123-.648.167z" data-name="Path 1600" transform="translate(-160.082 -249.688)"/>
                <path id="Path_1601" d="M256.074 294.444l.011.008v-.013h-.011z" data-name="Path 1601" transform="translate(-207.055 -241.509)"/>
                <path id="Path_1602" d="M236.487 291.932a2.145 2.145 0 0 1-.015-.416 1.075 1.075 0 0 0-.353.057c-.3.157-.579.351-.875.513-.191.1-.407.165-.6.273a2.922 2.922 0 0 1-1.063.5.39.39 0 0 0-.146.047 3.54 3.54 0 0 1-.511.31c-.272.1-.561.158-.864.24l.261.528.027.091c.535-.169 1.07-.34 1.569-.5-.04-.2-.072-.352-.1-.508a.632.632 0 0 1 .34.221c.121.211.2.156.251-.026a.859.859 0 0 0-.021-.251.815.815 0 0 1 .022-.146c.047.009.108 0 .136.03.1.1.189.206.269.3.195-.128.359-.257.54-.355.315-.165.643-.3.956-.472a2.283 2.283 0 0 0 .349-.295c-.065-.041-.159-.08-.172-.141z" data-name="Path 1602" transform="translate(-187.64 -239.145)"/>
                <path id="Path_1603" d="M345.443 225.43c-.094.329-.19.606-.252.891-.091.416-.14.842-.238 1.258s-.243.853-.366 1.279c-.013.042-.025.082-.04.121-.106.254-.227.506-.318.765s-.139.516-.218.771a4.282 4.282 0 0 1-.21.564c-.1.2-.224.386-.324.585a3.015 3.015 0 0 0-.19.48c-.013.044.047.111.075.167l.1.195c.276-.033.258-.319.346-.473a7.6 7.6 0 0 0 .429-1.145c.07-.2.147-.389.214-.584.044-.128.079-.26.138-.449.152-.016.174-.2.208-.413a5.671 5.671 0 0 1 .238-.855c.1-.316.236-.623.318-.944.1-.38.148-.773.219-1.161 0-.021 0-.048.015-.06.279-.3.116-.653.177-1.014-.156.008-.264.018-.321.022z" data-name="Path 1603" transform="translate(-277.572 -185.691)"/>
                <path id="Path_1604" d="M344.183 262.5h.012l-.006-.011z" data-name="Path 1604" transform="translate(-278.297 -215.675)"/>
                <path id="Path_1605" d="M324.272 268.383c.056.093.109.184.165.274.052 0 .129.022.149 0 .269-.341.541-.682.792-1.039.19-.269.344-.563.525-.839.2-.307.417-.6.615-.908.136-.211.25-.437.372-.659.14-.253.284-.5.41-.765a7.3 7.3 0 0 1 .433-.924 1.568 1.568 0 0 0 .352-.977h-.316a29.377 29.377 0 0 1-3.497 5.837z" data-name="Path 1605" transform="translate(-262.198 -215.719)"/>
                <path id="Path_1606" d="M85.658 314.98c-.333-.2-.673-.4-.987-.624-.389-.284-.734-.634-1.136-.9-.471-.309-.825-.755-1.329-1.033a4.183 4.183 0 0 1-.828-.822c-.21-.218-.44-.359-.633-.279.043.11.061.294.163.388.456.426.934.826 1.408 1.232s.969.849 1.473 1.247a12.707 12.707 0 0 0 1.125.779 3.351 3.351 0 0 0 1.033.606.487.487 0 0 0-.289-.594z" data-name="Path 1606" transform="translate(-65.287 -255.144)"/>
                <path id="Path_1607" d="M107.919 333.642v.009l.005-.008z" data-name="Path 1607" transform="translate(-87.259 -273.207)"/>
                <path id="Path_1608" d="M262.161 256.559c-.119.166-.208.295-.3.418-.118.151-.245.3-.363.448q-.542.694-1.079 1.394c-.157.2-.312.41-.47.617a.613.613 0 0 0-.2.073c-.316.292-.622.594-.937.888-.206.189-.418.371-.629.555s-.427.387-.658.555c-.322.235-.662.443-.992.666-.352.237-.711.467-1.051.719a2.272 2.272 0 0 0-.321.354.287.287 0 0 1 .225.429.543.543 0 0 0-.034.136c.334.032.509-.276.782-.372.352-.125.409-.413.457-.73.047.082.044.172.086.233a.192.192 0 0 0 .178.06 2.811 2.811 0 0 0 .343-.243l-.11-.194.3-.239c.138.334.2.069.325-.015a3.932 3.932 0 0 0 .965-.8c.153-.192.291-.435.619-.418.079 0 .169-.187.251-.291.107-.131.187-.338.321-.381.291-.094.291-.281.27-.512-.011-.114-.014-.231-.02-.347.1.116.208.231.342.382.161-.2.341-.429.521-.656l-.065-.065c.1-.013.206-.022.265-.03a1.678 1.678 0 0 1 .306-.459c.208-.147.185-.255-.013-.432a.672.672 0 0 0 .731-.37c.06-.1.151-.181.2-.283.08-.161.232-.366.186-.492a2.633 2.633 0 0 0-.431-.598z" data-name="Path 1608" transform="translate(-206.314 -210.88)"/>
                <path id="Path_1609" d="M141.067 349.486l.006-.007h-.006z" data-name="Path 1609" transform="translate(-114.063 -286.013)"/>
                <path id="Path_1610" d="M117.789 337.3c-.286-.09-.582-.153-.874-.23a.305.305 0 0 1-.08-.044 5.155 5.155 0 0 0-.519-.312c-.332-.15-.68-.265-1.011-.417-.37-.172-.733-.364-1.091-.559-.173-.093-.324-.233-.5-.324-.221-.114-.458-.2-.743-.317.03.22-.119.368.148.475.386.153.744.379 1.117.568.389.2.78.387 1.172.581.147.072.292.149.441.221.222.112.44.228.667.329a5.341 5.341 0 0 0 .842.332c.327.078.607.36.98.248v-.295a5.071 5.071 0 0 0-.549-.256z" data-name="Path 1610" transform="translate(-91.336 -274.384)"/>
                <path id="Path_1611" d="M306.661 294.913a3.594 3.594 0 0 0-.413.319c-.087.093-.128.234-.218.326-.344.355-.7.7-1.048 1.049-.568.566-1.14 1.126-1.7 1.7a2.145 2.145 0 0 0-.267.456l.111.107a1.364 1.364 0 0 0 .3-.156c.367-.328.737-.653 1.081-1 .539-.546 1.064-1.106 1.586-1.668a6.322 6.322 0 0 0 .733-.872c.148-.232.513-.357.415-.727-.379-.047-.472.039-.58.466z" data-name="Path 1611" transform="translate(-245.014 -241.506)"/>
                <path id="Rectangle_3470" d="M0 0H0.008V0.007H0z" data-name="Rectangle 3470" transform="translate(62.234 52.936)"/>
                <path id="Path_1612" d="M152.067 301.459l-.536-.181c-.1.315-.167.542-.228.741l.544.178.369-.04c.024.343.295.262.5.295s.451.126.566-.284l.143.547a1.919 1.919 0 0 1 .133-.178 1.551 1.551 0 0 1 .147-.11c.038.156.067.279.1.4.032 0 .066-.007.1-.009v-.861c-.4-.1-.794-.181-1.178-.283-.227-.058-.441-.142-.66-.215z" data-name="Path 1612" transform="translate(-122.339 -247.039)"/>
                <path id="Path_1613" d="M168.491 302.587c.952.078 1.905.122 2.856.194a.579.579 0 0 0 .586-.3c-.1-.015-.164-.029-.233-.036a15.358 15.358 0 0 1-3.116-.184c-.432-.126-.909.014-1.362-.189a3.665 3.665 0 0 0-1-.141v.2c.362.094.695.2 1.035.266a10.663 10.663 0 0 0 1.234.19z" data-name="Path 1613" transform="translate(-134.405 -247.566)"/>
                <path id="Path_1614" d="M260.541 335.287a6.464 6.464 0 0 0 .814-.3c.333-.149.661-.315.983-.486a4.616 4.616 0 0 1 .906-.459 4.2 4.2 0 0 0 .975-.607v-.347l-3.991 2.087a.386.386 0 0 0 .313.112z" data-name="Path 1614" transform="translate(-210.412 -272.759)"/>
                <path id="Path_1615" d="M142.105 294.02c.222.079.457.128.673.22.389.167.761.381 1.155.531s.826.261 1.244.377a.9.9 0 0 0 .29-.011l.032-.127c-.188-.073-.374-.154-.564-.219-.259-.086-.527-.147-.784-.24s-.511-.226-.775-.318-.523-.138-.778-.225a3.879 3.879 0 0 1-.533-.247c-.311-.159-.6-.4-.985-.283a2.8 2.8 0 0 0 .383.274 5.31 5.31 0 0 0 .642.268z" data-name="Path 1615" transform="translate(-114.073 -240.707)"/>
                <path id="Path_1616" d="M141.014 293.594l-.011-.007-.003.013a.088.088 0 0 1 .014-.006z" data-name="Path 1616" transform="translate(-114.006 -240.82)"/>
                <path id="Path_1617" d="M262.225 283.619l-.013.007a.06.06 0 0 0 .02 0z" data-name="Path 1617" transform="translate(-212.018 -232.76)"/>
                <path id="Rectangle_3471" d="M0 0H0.009V0.008H0z" data-name="Rectangle 3471" transform="translate(45.96 53.127)"/>
                <path id="Path_1618" d="M241.936 285.173c.4-.218.816-.4 1.21-.629a8.52 8.52 0 0 0 .729-.523l.478-.352a2.212 2.212 0 0 0-.459.089 3.536 3.536 0 0 0-.427.254c-.273.154-.555.289-.823.45-.49.291-.962.611-1.461.883-.318.175-.672.282-1 .431-.034.015-.037.1-.055.153a6.036 6.036 0 0 0 .921-.238c.311-.135.586-.355.887-.518z" data-name="Path 1618" transform="translate(-194.159 -232.8)"/>
                <path id="Path_1619" d="M224.32 302.668a.375.375 0 0 0-.163.534.4.4 0 0 0 .337.168 2.859 2.859 0 0 0 .612-.183c.188-.064.373-.139.527-.2l-.266-.572a9.3 9.3 0 0 0-1.047.253z" data-name="Path 1619" transform="translate(-181.21 -247.96)"/>
                <path id="Path_1620" d="M283.508 326.566c-.375.2-.709.475-1.075.695-.322.2-.374.3-.248.692a2.744 2.744 0 0 1 .343-.345 4.136 4.136 0 0 1 .423-.191 2.521 2.521 0 0 0 .262-.178l.986-.657-.048-.126a2.089 2.089 0 0 0-.643.11z" data-name="Path 1620" transform="translate(-228.116 -267.396)"/>
                <path id="Path_1621" d="M129.009 286.429h-.019a.119.119 0 0 1 .009.013z" data-name="Path 1621" transform="translate(-104.298 -235.03)"/>
                <path id="Path_1622" d="M115.047 275.478l-.007.007h.006z" data-name="Path 1622" transform="translate(-93.018 -226.177)"/>
                <path id="Path_1623" d="M115.057 275.609c.349.284.7.561 1.056.838a12.337 12.337 0 0 1 1.215.977c.142.142.259.1.386.13a3.58 3.58 0 0 0-.461-.546c-.465-.379-.946-.74-1.438-1.085-.242-.171-.372-.541-.765-.458-.002.051-.018.124.007.144z" data-name="Path 1623" transform="translate(-93.02 -226.157)"/>
                <path id="Path_1624" d="M279.548 256.824c.243-.256.471-.529.7-.8.34-.408.681-.816 1-1.238.05-.065.008-.2.009-.3-.048 0-.118-.02-.141 0-.136.149-.269.3-.392.465-.308.407-.6.826-.914 1.227-.194.247-.415.474-.624.711.019.035.037.071.057.106a1.13 1.13 0 0 0 .305-.171z" data-name="Path 1624" transform="translate(-225.744 -209.193)"/>
                <path id="Path_1625" d="M268.088 278.443h-.013l-.006.013.013-.006z" data-name="Path 1625" transform="translate(-216.753 -228.575)"/>
                <path id="Path_1626" d="M269.243 269.6c.335-.328.653-.672.978-1.007-.027-.041-.051-.083-.078-.123a1.447 1.447 0 0 0-.261.155c-.5.463-1.009.928-1.5 1.4a1.576 1.576 0 0 0-.216.355 1.558 1.558 0 0 0 .368-.161 8.677 8.677 0 0 0 .709-.619z" data-name="Path 1626" transform="translate(-216.832 -220.51)"/>
                <path id="Path_1627" d="M129.047 286.444l-.009.009h.017z" data-name="Path 1627" transform="translate(-104.336 -235.044)"/>
                <path id="Path_1628" d="M140.979 293.562h-.012l.006.014z" data-name="Path 1628" transform="translate(-113.982 -240.796)"/>
                <path id="Path_1629" d="M130.248 287.277a3.587 3.587 0 0 0 1.146.557c-.075-.387-.456-.41-.712-.579s-.534-.3-.8-.467a1.156 1.156 0 0 0-.76-.3 1.479 1.479 0 0 0 .3.355c.265.157.571.257.826.434z" data-name="Path 1629" transform="translate(-104.408 -235.072)"/>
                <path id="Path_1630" d="M220.535 298.343c.284-.068.542-.261.826-.308a.561.561 0 0 0 .5-.355.916.916 0 0 0-.285 0c-.443.164-.877.366-1.328.506a11.223 11.223 0 0 1-1.11.228c-.033.007-.062.04-.117.074.052.041.086.087.111.083.475-.065.945-.121 1.403-.228z" data-name="Path 1630" transform="translate(-177.099 -244.123)"/>
                <path id="Path_1631" d="M207.528 302.552a1.08 1.08 0 0 0-.265-.028 2.793 2.793 0 0 1-.762.167 5.372 5.372 0 0 0-1.284.254c-.007 0-.009.037-.015.056a4.594 4.594 0 0 0 2.326-.449z" data-name="Path 1631" transform="translate(-165.921 -248.043)"/>
                <path id="Path_1632" d="M263.216 278.534a1.785 1.785 0 0 0-.37.139 4.143 4.143 0 0 1-.565.406c-.245.1-.246.233-.169.423.311-.237.627-.47.931-.716a1.042 1.042 0 0 0 .173-.252z" data-name="Path 1632" transform="translate(-211.901 -228.648)"/>
                <path id="Path_1633" d="M262.272 283.592l.008.007v-.011z" data-name="Path 1633" transform="translate(-212.066 -232.736)"/>
                <path id="Path_1634" d="M149.2 260.053v-.583c-.128.016-.314.017-.318.042-.038.281-.239.119-.367.154-.153.041-.378-.084-.436.178l.713.076c.119-.272.246.031.408.133z" data-name="Path 1634" transform="translate(-119.735 -213.234)"/>
                <path id="Path_1635" d="M148.018 261.424l.007.007v-.006z" data-name="Path 1635" transform="translate(-119.683 -214.814)"/>
                <path id="Path_1636" d="M107.918 333.655l.01-.006z" data-name="Path 1636" transform="translate(-87.259 -273.211)"/>
                <path id="Path_1637" d="M108.4 332.622c-.112-.21-.18-.15-.282 0-.03.044-.1.062-.152.09.237.19.475.38.711.571.026-.021.052-.042.08-.062l-.028-.491c-.144-.043-.298-.043-.329-.108z" data-name="Path 1637" transform="translate(-87.296 -272.272)"/>
                <path id="Path_1638" d="M299.142 317.923c.351.24.541.009.739-.191l-.277-.306c-.16.174-.304.329-.462.497z" data-name="Path 1638" transform="translate(-241.878 -260.095)"/>
                <path id="Path_1639" d="M294.1 247.364v.02a.062.062 0 0 1 .009-.009v-.006a.061.061 0 0 0 0-.014c-.006 0-.008.006-.015 0z" data-name="Path 1639" transform="translate(-237.801 -203.441)"/>
                <path id="Path_1640" d="M237.055 295.546a.045.045 0 0 0-.007-.022c-.237.064-.473.126-.706.2-.016.006-.025.143 0 .162.121.083.672-.186.713-.34z" data-name="Path 1640" transform="translate(-191.088 -242.386)"/>
                <path id="Path_1641" d="M141.168 296.346c-.03.016-.06.035-.089.054l.041.525c.03.008.06.019.09.025.078-.1.228-.21.214-.291-.024-.117-.165-.21-.256-.313z" data-name="Path 1641" transform="translate(-114.072 -243.051)"/>
                <path id="Path_1642" d="M265.286 225.62a.142.142 0 0 0-.1-.079.133.133 0 0 0-.091.094c-.012.143-.006.288-.006.46.14-.012.239-.021.363-.03-.07-.184-.111-.317-.166-.445z" data-name="Path 1642" transform="translate(-214.339 -185.799)"/>
                <path id="Path_1643" d="M289.673 248.582c.417.09.512-.049.472-.331a.8.8 0 0 0 .178-.068c.254-.178.207-.443.2-.7a.805.805 0 0 0-.379.741c-.138.106-.275.211-.471.358z" data-name="Path 1643" transform="translate(-234.222 -203.544)"/>
                <path id="Path_1644" d="M77.134 308.25l.2-.014c-.008-.03-.016-.06-.025-.088-.06.031-.117.066-.175.102z" data-name="Path 1644" transform="translate(-62.368 -252.593)"/>
                <path id="Path_1645" d="M78.26 308.9h.052v-.35l-.148.012c.036.111.063.224.096.338z" data-name="Path 1645" transform="translate(-63.201 -252.917)"/>
                <path id="Path_1646" d="M331.287 138.993c.072.242.128.489.21.729.035.1.138.182.164.285.082.3.125.616.216.916.1.32.236.625.343.943.085.261.147.53.226.812a1.6 1.6 0 0 0 .329-.217c.205-.246.508-.485.562-.766a3.32 3.32 0 0 0-.294-2.008 4.613 4.613 0 0 0-.43-.962 1.751 1.751 0 0 0-1-.735 1.508 1.508 0 0 0-.543.1 4.26 4.26 0 0 0 .067.456c.035.154.104.297.15.447zm.8.064l.084-.011.06.529-.145.014c.005-.178.005-.355.005-.533z" data-name="Path 1646" transform="translate(-267.693 -115.001)"/>
                <path id="Path_1647" d="M121.58 202.068c.03-.1.06-.205.092-.306.006-.016.025-.029.058-.064l.192.167c.329-.149.286-.426.3-.684a.839.839 0 0 0-.522-.794c-.41-.152-.67.025-.615.448a5.3 5.3 0 0 0 .222.95c.033.115.178.189.273.283z" data-name="Path 1647" transform="translate(-97.898 -165.417)"/>
            </g>
        </g>
        <rect id="Rectangle_3472" width="75" height="22" fill="#00afde" data-name="Rectangle 3472" rx="3" transform="rotate(-17 14878.785 1080.351)"/>
        <text id="Experience" fill="#fff" font-family="Lato-Medium, Lato" font-size="13px" font-weight="500" transform="rotate(-17 14911.39 945.908)">
            <tspan x="-31.661" y="0">Experience</tspan>
        </text>
        <text id="_3" fill="#4a4b4b" data-name="3" font-family="Lato-Black, Lato" font-size="39px" font-weight="800" transform="translate(367 4390)">
            <tspan x="-11.31" y="0">3</tspan>
        </text>
    </g>
</svg>
