<svg xmlns="http://www.w3.org/2000/svg" width="80.372" height="73.667" viewBox="0 0 80.372 73.667">
    <g id="group_1_" data-name="group (1)" transform="translate(0 -22.36)">
        <path id="Path_1524" fill="#f79220" d="M22.058 32.662a10.3 10.3 0 1 1 10.3 10.3 10.3 10.3 0 0 1-10.3-10.3zm15.255 17.322a11.151 11.151 0 0 1 2.118-6.036 13.143 13.143 0 0 0-2.7-.28h-8.739a13.2 13.2 0 0 0-2.69.277 11.176 11.176 0 0 1 2.126 6.5 11.246 11.246 0 0 1 9.885-.459zm1.744.925a11.767 11.767 0 0 1 5.475 8.737 9.488 9.488 0 1 0-5.475-8.737zm-6.219 19.435a9.492 9.492 0 1 0-9.494-9.492 9.493 9.493 0 0 0 9.494 9.492zm4.026.646h-8.053a12.169 12.169 0 0 0-12.155 12.155V93l.026.154.678.211a55.355 55.355 0 0 0 16.526 2.666c8.931 0 14.11-2.547 14.429-2.71l.634-.321h.067v-9.855A12.166 12.166 0 0 0 36.864 70.99zm15.706-9.8h-7.993a11.7 11.7 0 0 1-3.61 8.149A14.441 14.441 0 0 1 51.282 83.16v3.04c7.89-.3 12.438-2.53 12.738-2.681l.634-.323h.067v-9.852A12.166 12.166 0 0 0 52.57 61.192zm2.137-19.835a11.764 11.764 0 0 1 5.474 8.737 9.488 9.488 0 1 0-5.474-8.737zM68.218 51.64h-7.991a11.7 11.7 0 0 1-3.61 8.148 14.441 14.441 0 0 1 10.315 13.82v3.035c7.89-.29 12.439-2.525 12.738-2.676l.634-.322h.068v-9.853A12.166 12.166 0 0 0 68.218 51.64zm-52.036 8.9a9.429 9.429 0 0 0 5.048-1.466 11.751 11.751 0 0 1 4.416-7.493c.01-.178.026-.354.026-.534a9.491 9.491 0 1 0-9.49 9.492zm8.525 8.8a11.709 11.709 0 0 1-3.609-8.1c-.3-.022-.589-.044-.891-.044h-8.053A12.167 12.167 0 0 0 0 73.345V83.2l.025.153.679.212a56.745 56.745 0 0 0 13.687 2.572v-2.978A14.44 14.44 0 0 1 24.707 69.34z" data-name="Path 1524"/>
    </g>
</svg>
