<svg xmlns="http://www.w3.org/2000/svg" width="68.754" height="65.711" viewBox="0 0 68.754 65.711">
    <defs>
        <style>
            .cls-1{fill:#f79220}.cls-2{fill:#404242}.cls-5{fill:#fff}
        </style>
    </defs>
    <g id="Group_166" data-name="Group 166" transform="translate(-768 -2724)">
        <g id="computer_5_" data-name="computer (5)" transform="translate(768 2713)">
            <path id="Path_1489" d="M167.371 401l-11.64 4.15-.441 1.543a5.839 5.839 0 0 1-5.29 3.991v1.038h24.14z" class="cls-1" data-name="Path 1489" transform="translate(-129.249 -336.048)"/>
            <path id="Path_1490" d="M207.661 380.843l-1.627-5.693-6.709-4.15-6.709 4.15-1.186 4.15h11.64l.441 1.543a5.839 5.839 0 0 0 5.29 3.991l2.075 1.038 2.075-1.038a5.839 5.839 0 0 1-5.29-3.991z" class="cls-2" data-name="Path 1490" transform="translate(-164.948 -310.198)"/>
            <path id="Path_1491" fill="#e5861a" d="M437 271.751h4.15a4.162 4.162 0 0 0 4.15-4.15v-8.3L437 251z" data-name="Path 1491" transform="translate(-376.546 -206.799)"/>
            <path id="Path_1492" d="M0 215.9a4.162 4.162 0 0 0 4.15 4.15h56.3a4.162 4.162 0 0 0 4.15-4.15V191L0 207.6z" class="cls-1" data-name="Path 1492" transform="translate(0 -155.099)"/>
            <path id="Path_1493" d="M441.15 11H437l4.15 41.5h4.15V15.15a4.162 4.162 0 0 0-4.15-4.15z" class="cls-2" data-name="Path 1493" transform="translate(-376.546)"/>
            <path id="Path_1494" fill="#565959" d="M64.6 15.15A4.162 4.162 0 0 0 60.454 11H4.15A4.162 4.162 0 0 0 0 15.15V52.5h64.6v-4.15l-30.227-16.6z" data-name="Path 1494"/>
            <circle id="Ellipse_94" cx="2.075" cy="2.075" r="2.075" class="cls-5" data-name="Ellipse 94" transform="translate(32.302 56.652)"/>
            <path id="Path_1497" d="M129.923 473.075H87.038a1.038 1.038 0 0 1 0-2.075h42.885a1.038 1.038 0 1 1 0 2.075z" class="cls-1" data-name="Path 1497" transform="translate(-74.103 -396.364)"/>
        </g>
        <path id="Rectangle_3463" d="M0 0H61V32H0z" class="cls-5" data-name="Rectangle 3463" transform="translate(772 2729)"/>
        <g id="sketch" transform="translate(791 2732.682)">
            <g id="Group_98" data-name="Group 98" transform="translate(16.497 17.29)">
                <g id="Group_97" data-name="Group 97">
                    <path id="Path_1498" d="M364.751 360.775a.344.344 0 0 0-.375.075l-3.758 3.758a.344.344 0 0 0 .243.587h3.758a.344.344 0 0 0 .344-.344v-3.758a.344.344 0 0 0-.212-.318zm-3.059 3.732l2.584-2.584v2.584z" class="cls-1" data-name="Path 1498" transform="translate(-360.517 -360.749)"/>
                </g>
            </g>
            <g id="Group_100" data-name="Group 100" transform="translate(0 .82)">
                <g id="Group_99" data-name="Group 99">
                    <path id="Path_1499" d="M23.216 11.8a.344.344 0 0 0-.375.074l-1.03 1.03v-7a.344.344 0 0 0-.344-.344h-2.642l.959-.959.924-.924a1.049 1.049 0 0 0 0-1.483L19.64 1.127a1.049 1.049 0 0 0-1.483 0l-.925.925-1.116 1.117-2.394 2.393H3.048V2.16a.344.344 0 0 0-.348-.344A2.708 2.708 0 0 0 0 4.521v14.605a.345.345 0 0 0 .008.074 2.6 2.6 0 0 0 2.6 2.407h10.505l-1.979 1.979a.344.344 0 0 0 .243.587h11.707a.344.344 0 0 0 .344-.344V12.122a.344.344 0 0 0-.212-.322zM18.644 1.613a.361.361 0 0 1 .51 0l1.069 1.069a.361.361 0 0 1 0 .51l-.681.681-1.58-1.578zm-1.168 1.168l1.579 1.579-.631.631-1.579-1.579zm5.264 13.2h-.634a.344.344 0 1 0 0 .688h.634v1.041h-.634a.344.344 0 1 0 0 .688h.634v1.036h-.634a.344.344 0 1 0 0 .688h.634v1.036h-.634a.344.344 0 1 0 0 .688h.634v1.64H12.207l3.473-3.473a.344.344 0 0 0-.486-.486L13.8 20.919H2.6a1.906 1.906 0 0 1-1.911-1.855q0-.1.015-.194.006-.046.014-.091v-.01l.016-.08.005-.022.017-.067.01-.036.016-.052.018-.053.013-.036.026-.067.008-.019c.012-.027.024-.055.037-.081a2.024 2.024 0 0 1 1.407-1.1H2.3l.086-.015h.015l.079-.01h.022l.077-.006h.124a.344.344 0 0 0 .344-.344v-2.509a.344.344 0 0 0-.688 0v2.171a2.686 2.686 0 0 0-1.545.747c-.045.044-.087.089-.128.135V4.521a2.02 2.02 0 0 1 1.675-1.988V12.9a.344.344 0 1 0 .688 0V6.25h9.986l-1.9 1.9a.344.344 0 1 0 .486.486l2.488-2.488 2.25-2.248 1.579 1.579-.185.185-6.935 6.936-1.579-1.582 1.367-1.367a.344.344 0 1 0-.486-.486l-1.61 1.61a.345.345 0 0 0-.024.027l-.007.01-.014.02-.007.012-.011.02-.006.013-.009.02v.007l-.67 1.9L7.3 14.1a.348.348 0 0 0-.014.052H6.145a.344.344 0 0 0 0 .688h9.523a.344.344 0 1 0 0-.688H8.836l2.1-.74h.005l.024-.01h.009l.026-.025h.008l.024-.017h.006l.028-.025 7.072-7.085h2.986v7.35L16.2 18.515a.344.344 0 0 0 0 .486l.026.024a.344.344 0 0 0 .434 0l.031-.025 6.049-6.049zM10.189 12.94l-.985.348-.656-.656.348-.985z" class="cls-1" data-name="Path 1499" transform="translate(0 -.82)"/>
                </g>
            </g>
        </g>
    </g>
</svg>
