<svg xmlns="http://www.w3.org/2000/svg" width="68.909" height="68.909" viewBox="0 0 68.909 68.909">
    <defs>
        <style>
            .cls-1{fill:#40596b}.cls-2{fill:#fff}.cls-3{fill:#cdd6e0}.cls-4{fill:#f2f2f2}.cls-5{fill:#acb3ba}.cls-6{fill:#f79220}.cls-8{fill:#f8a649}
        </style>
    </defs>
    <g id="Group_169" data-name="Group 169" transform="translate(-1269.321 -6980)">
        <g id="monitor_1_" data-name="monitor (1)" transform="translate(1269.321 6980)">
            <path id="Path_1119" d="M66.038 78.367H2.871A2.88 2.88 0 0 0 0 81.238v42.782a2.88 2.88 0 0 0 2.871 2.871h63.167a2.88 2.88 0 0 0 2.871-2.871V81.238a2.88 2.88 0 0 0-2.871-2.871z" class="cls-1" data-name="Path 1119" transform="translate(0 -67.6)"/>
            <path id="Rectangle_171" d="M0 0H60.296V39.767H0z" class="cls-2" data-name="Rectangle 171" transform="translate(4.307 15.074)"/>
            <path id="Rectangle_172" d="M0 0H26.272V7.752H0z" class="cls-3" data-name="Rectangle 172" transform="translate(21.247 59.291)"/>
            <path id="Rectangle_173" d="M0 0H42.207V1.866H0z" class="cls-4" data-name="Rectangle 173" transform="translate(13.351 67.043)"/>
            <path id="Rectangle_174" d="M0 0H26.272V2.153H0z" class="cls-5" data-name="Rectangle 174" transform="translate(21.247 59.291)"/>
            <path id="Path_1120" d="M118.022 117.029v36.465a2.268 2.268 0 0 1-2.3 2.3H70.216a2.268 2.268 0 0 1-2.3-2.3v-36.465z" class="cls-4" data-name="Path 1120" transform="translate(-58.587 -100.95)"/>
            <g id="Group_80" data-name="Group 80" transform="translate(21.391 26.272)">
                <path id="Path_1121" d="M249.259 191.216v5.455h-.574v-5.455z" class="cls-2" data-name="Path 1121" transform="translate(-235.908 -191.216)"/>
                <path id="Path_1122" d="M249.259 343.771v5.455h-.574v-5.455h.574z" class="cls-2" data-name="Path 1122" transform="translate(-235.908 -322.811)"/>
                <path id="Path_1123" d="M292.7 217.769l-3.876 3.876-.431-.431 3.876-3.876z" class="cls-2" data-name="Path 1123" transform="translate(-270.16 -213.749)"/>
                <path id="Path_1124" d="M185.074 326.439l-3.876 3.876-.431-.431 3.876-3.876z" class="cls-2" data-name="Path 1124" transform="translate(-177.322 -307.489)"/>
                <path id="Path_1125" d="M313.557 285.257v.574h-5.312v-.574z" class="cls-2" data-name="Path 1125" transform="translate(-287.285 -272.336)"/>
                <path id="Path_1126" d="M161 285.544v.287h-5.31v-.574H161z" class="cls-2" data-name="Path 1126" transform="translate(-155.69 -272.336)"/>
                <path id="Path_1127" d="M293.6 329.742l-.431.431-3.733-3.733.431-.431z" class="cls-2" data-name="Path 1127" transform="translate(-271.061 -307.489)"/>
                <path id="Path_1128" d="M185.074 221.215l-.431.431-3.876-3.876.431-.431z" class="cls-2" data-name="Path 1128" transform="translate(-177.322 -213.75)"/>
                <path id="Path_1129" d="M219.2 215.129c-.144 0-.287.144-.574.287l-1.292-3.015.574-.287z" class="cls-2" data-name="Path 1129" transform="translate(-208.868 -209.243)"/>
                <path id="Path_1130" d="M271.449 342.607l-.574.287-1.292-3.015c.144 0 .287-.144.574-.287z" class="cls-2" data-name="Path 1130" transform="translate(-253.935 -319.206)"/>
                <path id="Path_1131" d="M178.845 255.2c-.144.144-.144.287-.287.574l-3.015-1.292.287-.574z" class="cls-2" data-name="Path 1131" transform="translate(-172.815 -245.296)"/>
                <path id="Path_1132" d="M305.277 308.492l-.287.574-3.015-1.292c.144-.144.144-.287.287-.574z" class="cls-2" data-name="Path 1132" transform="translate(-281.877 -291.265)"/>
                <path id="Path_1133" d="M178.845 306.729l-3.015 1.292-.287-.574 3.015-1.292c.142.287.142.431.287.574z" class="cls-2" data-name="Path 1133" transform="translate(-172.815 -290.363)"/>
                <path id="Path_1134" d="M305.277 254.484l-3.015 1.292c0-.144-.144-.287-.287-.574l3.015-1.292z" class="cls-2" data-name="Path 1134" transform="translate(-281.877 -245.296)"/>
                <path id="Path_1135" d="M219.2 338.834l-1.292 3.015-.574-.287 1.292-3.015c.291.144.435.144.574.287z" class="cls-2" data-name="Path 1135" transform="translate(-208.868 -318.305)"/>
                <path id="Path_1136" d="M272.351 211.356l-1.148 3.015c-.144-.144-.287-.144-.574-.287l1.292-3.015z" class="cls-2" data-name="Path 1136" transform="translate(-254.836 -208.341)"/>
            </g>
            <path id="Path_1137" d="M116.051 0H71.834a2.88 2.88 0 0 0-2.871 2.871v7.465h50.1V2.871A3.108 3.108 0 0 0 116.051 0z" class="cls-6" data-name="Path 1137" transform="translate(-59.488)"/>
            <path id="Path_1138" d="M324.963 273.763l2.728 9.762 2.441-2.44 2.3 2.44 2.153-2.153-2.3-2.44 2.3-2.441z" class="cls-1" data-name="Path 1138" transform="translate(-280.315 -236.15)"/>
            <circle id="Ellipse_27" cx="1.723" cy="1.723" r="1.723" class="cls-2" data-name="Ellipse 27" transform="translate(26.559 3.445)"/>
            <circle id="Ellipse_28" cx="1.723" cy="1.723" r="1.723" class="cls-2" data-name="Ellipse 28" transform="translate(19.955 3.445)"/>
            <circle id="Ellipse_29" cx="1.723" cy="1.723" r="1.723" class="cls-2" data-name="Ellipse 29" transform="translate(13.351 3.445)"/>
            <path id="Path_1139" fill="#e4eaef" d="M118.923 125.388v6.747a4.893 4.893 0 0 1-3.158 1 5.453 5.453 0 0 1-5.455-5.455 5.455 5.455 0 1 1-10.911 0 5.455 5.455 0 0 1-10.911 0 5.455 5.455 0 1 1-10.911 0 5.453 5.453 0 0 1-5.455 5.455 5.89 5.89 0 0 1-3.158-1v-6.747z" data-name="Path 1139" transform="translate(-59.489 -108.161)"/>
            <path id="Path_1140" d="M63.156 80.975H52.245l2.3-5.742h9.906z" class="cls-8" data-name="Path 1140" transform="translate(-45.067 -64.897)"/>
            <path id="Path_1141" d="M142.568 80.975h-10.911l1.292-5.742H143z" class="cls-3" data-name="Path 1141" transform="translate(-113.568 -64.897)"/>
            <path id="Path_1142" d="M221.98 80.975h-10.911l.431-5.742h10.049z" class="cls-8" data-name="Path 1142" transform="translate(-182.07 -64.897)"/>
            <path id="Path_1143" d="M298.688 80.975h-10.91l-.431-5.742H297.4z" class="cls-3" data-name="Path 1143" transform="translate(-247.868 -64.897)"/>
            <path id="Path_1144" d="M372.693 80.975h-10.911l-1.292-5.742h9.91z" class="cls-8" data-name="Path 1144" transform="translate(-310.961 -64.897)"/>
            <g id="Group_81" data-name="Group 81" transform="translate(18.089 16.079)">
                <path id="Path_1145" d="M131.657 119.47a5.455 5.455 0 0 0 10.911 0v-2.441h-10.911v2.441z" class="cls-5" data-name="Path 1145" transform="translate(-131.657 -117.029)"/>
                <path id="Path_1146" d="M290.482 117.029v2.441a5.455 5.455 0 1 0 10.911 0v-2.441z" class="cls-5" data-name="Path 1146" transform="translate(-268.661 -117.029)"/>
            </g>
            <g id="Group_82" data-name="Group 82" transform="translate(7.178 16.079)">
                <path id="Path_1147" d="M52.245 119.47a5.455 5.455 0 0 0 10.911 0v-2.441H52.245z" class="cls-6" data-name="Path 1147" transform="translate(-52.245 -117.029)"/>
                <path id="Path_1148" d="M211.069 119.47a5.455 5.455 0 0 0 10.911 0v-2.441h-10.911v2.441z" class="cls-6" data-name="Path 1148" transform="translate(-189.248 -117.029)"/>
                <path id="Path_1149" d="M369.894 117.029v2.441a5.455 5.455 0 0 0 10.911 0v-2.441z" class="cls-6" data-name="Path 1149" transform="translate(-326.251 -117.029)"/>
            </g>
            <ellipse id="Ellipse_30" cx="8.47" cy="8.614" class="cls-6" data-name="Ellipse 30" rx="8.47" ry="8.614" transform="translate(25.985 30.866)"/>
            <g id="Group_83" data-name="Group 83" transform="translate(28.712 34.168)">
                <path id="Path_1150" d="M213.287 256.582l-.287-1h6.6v-5.025h-7.9l-.431-1.866h-2.3v.861h1.731l2.01 7.9h7.178v-.861zm5.455-5.312v3.3h-5.886l-.861-3.3z" class="cls-2" data-name="Path 1150" transform="translate(-208.98 -248.686)"/>
                <circle id="Ellipse_31" cx="1.005" cy="1.005" r="1.005" class="cls-2" data-name="Ellipse 31" transform="translate(4.594 9.331)"/>
                <circle id="Ellipse_32" cx="1.005" cy="1.005" r="1.005" class="cls-2" data-name="Ellipse 32" transform="translate(8.327 9.331)"/>
            </g>
        </g>
    </g>
</svg>
