<svg xmlns="http://www.w3.org/2000/svg" width="72.001" height="66.033" viewBox="0 0 72.001 66.033">
    <defs>
        <style>
            .cls-1{fill:#40596b}.cls-2{fill:#cee8fa}.cls-3{fill:#f79220}
        </style>
    </defs>
    <g id="Group_56" data-name="Group 56" transform="translate(-859.578 -6864.628)">
        <g id="portal" transform="translate(859.578 6864.628)">
            <path id="Path_1058" d="M42.649 122.216H7.015A7.022 7.022 0 0 1 0 115.2V78.626a7.023 7.023 0 0 1 7.015-7.015H56.9a7.023 7.023 0 0 1 7.015 7.015v10.72a2.067 2.067 0 0 1-4.134 0v-10.72a2.884 2.884 0 0 0-2.88-2.88H7.015a2.883 2.883 0 0 0-2.88 2.88V115.2a2.883 2.883 0 0 0 2.88 2.88h35.634a2.067 2.067 0 1 1 0 4.134z" class="cls-1" data-name="Path 1058" transform="translate(0 -64.524)"/>
            <path id="Path_1059" d="M30.043 86.758l-15.219 15.219-.124-.124v-10.6a4.947 4.947 0 0 1 4.947-4.947h9.947z" class="cls-2" data-name="Path 1059" transform="translate(-12.633 -77.156)"/>
            <path id="Path_1060" d="M2.191 91.412a2.066 2.066 0 0 1-1.462-.606L.6 90.682a2.068 2.068 0 0 1-.6-1.461v-10.6a7.023 7.023 0 0 1 7.015-7.015h9.947a2.068 2.068 0 0 1 1.461.605l.448.448a2.067 2.067 0 0 1 0 2.924L3.653 90.807a2.068 2.068 0 0 1-1.462.605zm4.824-15.666a2.883 2.883 0 0 0-2.88 2.88v5.853l8.733-8.733z" class="cls-1" data-name="Path 1060" transform="translate(0 -64.524)"/>
            <path id="Path_1061" d="M341.065 86.31a4.947 4.947 0 0 1 4.947 4.947V102.1l-.124-.121-15.218-15.221.448-.448h9.947z" class="cls-2" data-name="Path 1061" transform="translate(-284.169 -77.156)"/>
            <path id="Path_1062" d="M333.38 91.533a2.067 2.067 0 0 1-1.442-.585l-.124-.121-.021-.021-15.219-15.218a2.067 2.067 0 0 1 0-2.923l.448-.448a2.068 2.068 0 0 1 1.462-.606h9.947a7.023 7.023 0 0 1 7.015 7.015v10.84a2.067 2.067 0 0 1-2.067 2.067zm-10.8-15.788l8.733 8.733v-5.852a2.884 2.884 0 0 0-2.88-2.88z" class="cls-1" data-name="Path 1062" transform="translate(-271.535 -64.524)"/>
            <path id="Path_1063" d="M30.043 320.579l-.448.448h-9.948a4.947 4.947 0 0 1-4.947-4.947v-10.6l.124-.124z" class="cls-2" data-name="Path 1063" transform="translate(-12.633 -265.402)"/>
            <g id="Group_46" data-name="Group 46">
                <path id="Path_1064" d="M16.962 310.461H7.015A7.022 7.022 0 0 1 0 303.447v-10.6a2.068 2.068 0 0 1 .6-1.461l.124-.124a2.068 2.068 0 0 1 1.462-.606 2.068 2.068 0 0 1 1.462.606l15.219 15.219a2.067 2.067 0 0 1 0 2.924l-.448.448a2.068 2.068 0 0 1-1.457.608zM4.135 297.594v5.853a2.883 2.883 0 0 0 2.88 2.88h5.853z" class="cls-1" data-name="Path 1064" transform="translate(0 -252.769)"/>
                <path id="Path_1065" d="M169.33 32.438a2.067 2.067 0 0 1-2.067-2.067v-5.02H153.68v5.02a2.067 2.067 0 1 1-4.134 0v-7.087a2.067 2.067 0 0 1 2.067-2.067h17.717a2.067 2.067 0 0 1 2.067 2.067v7.087a2.067 2.067 0 0 1-2.067 2.067z" class="cls-1" data-name="Path 1065" transform="translate(-128.516 -21.217)"/>
                <path id="Path_1066" d="M265.275 259.621a15.608 15.608 0 1 1 11.036-4.571 15.506 15.506 0 0 1-11.036 4.571zm0-27.081a11.473 11.473 0 1 0 8.113 3.361 11.4 11.4 0 0 0-8.113-3.361z" class="cls-3" data-name="Path 1066" transform="translate(-214.563 -199.27)"/>
                <path id="Path_1067" d="M425.71 406.56a2.061 2.061 0 0 1-1.462-.606l-9.648-9.648a2.067 2.067 0 0 1 2.924-2.924l9.648 9.648a2.067 2.067 0 0 1-1.462 3.529z" class="cls-3" data-name="Path 1067" transform="translate(-355.776 -340.527)"/>
            </g>
        </g>
        <ellipse id="Ellipse_22" cx="12.5" cy="13" class="cls-3" data-name="Ellipse 22" rx="12.5" ry="13" transform="translate(897.578 6895.862)"/>
    </g>
</svg>
