<svg xmlns="http://www.w3.org/2000/svg" width="445.332" height="259.116" viewBox="0 0 445.332 259.116">
    <defs>
        <style>
            .cls-1{fill:#ea8e50}.cls-2{fill:#1e3d70}.cls-3{fill:#233862}.cls-4{fill:#2b478b}.cls-5{fill:#afcdfb}.cls-6{fill:#ffb07b}.cls-7{fill:#2a4e96}.cls-8{fill:#163560}.cls-9{fill:#599dad}.cls-10{fill:#6bb7bf}.cls-11{fill:#e49963}.cls-12{fill:#ed7d2b}.cls-13{fill:#f99746}.cls-14{fill:#d68d5d}.cls-15{fill:#4a75cb}.cls-17{fill:#c65447}.cls-19{fill:#b5453c}.cls-20{fill:#699dee}.cls-23{fill:#e8c6a7}.cls-24{fill:#c69d7b}.cls-25{fill:#ffb27d}.cls-26{fill:#2c3a64}.cls-27{fill:#35488b}
        </style>
    </defs>
    <g id="Group_165" data-name="Group 165" transform="translate(-2292.224 -901.411)">
        <path id="Path_1755" d="M2720.087 1836.423l1.859 1.509s5.083-1.823 6.231 4.218c0 0 .306 2.575-1.325 2.579s-.958-.281-3.268-.214-4.224-1.15-4.561-3.024l-1.105-1.587z" class="cls-1" data-name="Path 1755" transform="translate(-361.58 -777.22)"/>
        <path id="Path_1756" d="M2457.348 1664.108c1.483-1.548 1.364-2.692 1.364-2.692s-17.169-14.056-18.91-15.2a211.783 211.783 0 0 1-19.741-18.823c-2.931-3.39-6.563-2.075-10.718-.882l-3.422.982c-4.131 1.185-5.206 6.964-1.816 9.771 9.547 7.908 25.429 16.8 28.4 18.672 7.377 4.641 21.817 10.155 21.817 10.155a9.151 9.151 0 0 0 3.026-1.983z" class="cls-2" data-name="Path 1756" transform="translate(-99.052 -601.666)"/>
        <path id="Path_1757" d="M2818.616 2367.349a12.94 12.94 0 0 0 10.551 1.472s5.147-1.173 6.276 1.395c0 0-7.894 4.01-9.892 5.107a23.891 23.891 0 0 0-4.187 3.14 2.071 2.071 0 0 1-3-.231c-.348-.427-.745-.936-1.18-1.526-1.217-1.65-4.053-6.978-4.053-6.978z" class="cls-3" data-name="Path 1757" transform="translate(-440.727 -1218.548)"/>
        <path id="Path_1758" d="M2543.71 1991.269s-2.537 5.85-8.394 4.775c0 0-11.95-9.869-20.147-20.122a45.543 45.543 0 0 1-6.261-9.784c-5.436-12.585-20.107-31.356-29.435-40.87l23.338-8.443s7.476 15.038 17.422 33.509c7.167 13.308 15.616 28.4 23.477 40.935z" class="cls-4" data-name="Path 1758" transform="translate(-163.375 -844.054)"/>
        <path id="Path_1759" d="M2552.862 1511.818a28.109 28.109 0 0 0 .136-4.294 1.607 1.607 0 0 1 .925-1.533l6.892-3.2a1.573 1.573 0 0 0 .816-1.965l-2.379-6.541a1.532 1.532 0 0 0-1.8-.964l-6.8 1.668a1.575 1.575 0 0 1-1.718-.712 28.008 28.008 0 0 0-5.773-6.733 1.588 1.588 0 0 1-.392-1.912l1.88-3.825a1.592 1.592 0 0 0-.577-2.047l-5.829-3.695a1.579 1.579 0 0 0-2.1.377l-4.09 5.374a28.153 28.153 0 0 0-9.116-.775 1.557 1.557 0 0 1-1.537-.893l-2.58-5.559a1.612 1.612 0 0 0-2.013-.836l-6.424 2.337a1.631 1.631 0 0 0-1.027 1.922l1.395 5.682a1.58 1.58 0 0 1-.672 1.7 28.027 28.027 0 0 0-5 4.114 1.6 1.6 0 0 1-1.861.323l-6.205-3.049a1.6 1.6 0 0 0-2.056.579l-3.679 5.8a1.6 1.6 0 0 0 .384 2.134l6.041 4.6a1.576 1.576 0 0 1 .564 1.663 27.984 27.984 0 0 0-.793 4.243q-.125 1.158-.155 2.3a1.642 1.642 0 0 1-.948 1.449l-6.62 3.072a1.564 1.564 0 0 0-.811 1.953l2.351 6.462a1.634 1.634 0 0 0 1.926 1.029l5.387-1.322a1.592 1.592 0 0 1 1.8.812 28.017 28.017 0 0 0 5.1 6.975 1.612 1.612 0 0 1 .314 1.854l-2.749 5.595a1.639 1.639 0 0 0 .594 2.107l5.792 3.671a1.581 1.581 0 0 0 2.1-.378l4.012-5.272a1.63 1.63 0 0 1 1.757-.572 27.993 27.993 0 0 0 4.838.959q1.342.145 2.666.162a1.594 1.594 0 0 1 1.424.922l2.618 5.641a1.629 1.629 0 0 0 2.034.845l6.434-2.34a1.6 1.6 0 0 0 1.009-1.887l-1.113-4.534a1.6 1.6 0 0 1 .81-1.8 28 28 0 0 0 8.583-6.941 1.582 1.582 0 0 1 1.916-.408l5.02 2.467a1.594 1.594 0 0 0 2.05-.577l3.677-5.8a1.614 1.614 0 0 0-.386-2.148l-5.8-4.411a1.593 1.593 0 0 1-.6-1.57q.23-1.124.358-2.298zm-21.806 10.981c-14.477 5.176-26.507-9.873-18.186-22.888a14.717 14.717 0 0 1 6.239-5.019c14.5-5.337 26.616 9.639 18.457 22.67a14.889 14.889 0 0 1-6.51 5.238z" class="cls-5" data-name="Path 1759" transform="translate(-171.167 -475.676)"/>
        <path id="Path_1760" d="M2520.232 1950.334l-5.064 25.588a45.543 45.543 0 0 1-6.261-9.784c-5.436-12.585-20.107-31.356-29.435-40.87l23.338-8.443s7.476 15.038 17.422 33.509z" class="cls-3" data-name="Path 1760" transform="translate(-163.375 -844.054)"/>
        <path id="Path_1761" d="M2566.6 2374.864s-.255 4.668 5.4 5.29c0 0 3.415.07 3.424 3.04h-16.628a12.785 12.785 0 0 1-.593-3.765c-.089-1.971 1.91-7.124 1.91-7.124z" class="cls-3" data-name="Path 1761" transform="translate(-228.824 -1222.667)"/>
        <path id="Path_1762" d="M2460.733 1911.724s10.4 11.425 17 32.007c3.591 11.2-6.582 39.354-8.564 49.136 0 0-6.824.579-11.49-1.225 0 0-.354-20.205 2.375-35.778 1.527-8.715-13.689-18.64-20.339-34.387-4.523-10.714.979-10.531 7.742-10.789z" class="cls-4" data-name="Path 1762" transform="translate(-128.952 -838.953)"/>
        <path id="Path_1763" d="M2414.462 1545.353c-5.785 3.266-17.627.254-17.627.254s4.809-5.5 2.624-14.353l4.542 2.307 4.879 2.478a40.5 40.5 0 0 1 .535 4.373c.056.723.106 1.531.14 2.414a15.174 15.174 0 0 1 4.907 2.527z" class="cls-6" data-name="Path 1763" transform="translate(-94.684 -523.552)"/>
        <path id="Path_1764" d="M2414.206 1651.523c0 1.016-1.171 1.5-1.42 1.553-2.333.426-8.848 2.96-14.716 3.542a47.057 47.057 0 0 1-14.57-.986c-.667-.134-2.234-.556-2.345-1.2-.139-.7-19.441-39.35-4.436-55.952.352-.39 3.314.312 6.023.955a11.12 11.12 0 0 0 6.845-.559l2.54 1.337c3.12 1.738 9.022 7.914 9.713 12.76.351 2.465 1.76 4.289 2.168 6.457q.227 1.2.464 2.349.461 2.246.95 4.277c.882 3.665 1.814 6.821 2.729 9.546.974 2.894 1.928 5.3 2.781 7.315 1.106 2.611 2.041 4.563 2.625 6.057a7.459 7.459 0 0 1 .649 2.549z" class="cls-7" data-name="Path 1764" transform="translate(-73.217 -579.342)"/>
        <path id="Path_1765" d="M2442.439 1713.589c-27.247-12.837-36.684-37.488-36.684-37.488s22.138 8.167 27.6 10.293q.461 2.246.95 4.277c.882 3.665 1.814 6.821 2.729 9.547.974 2.894 1.928 5.3 2.781 7.315 1.105 2.61 2.04 4.561 2.624 6.056z" class="cls-2" data-name="Path 1765" transform="translate(-102.098 -643.954)"/>
        <path id="Path_1766" d="M2711.544 1853.413l2.354.863a5.036 5.036 0 0 1 7.651 2.088s1.062 2.369-.619 2.883-1.07.03-3.432.817-4.69.22-5.582-1.468l-1.6-1.174z" class="cls-6" data-name="Path 1766" transform="translate(-355.262 -791.218)"/>
        <path id="Path_1767" d="M2442.313 1673.192c.87-2.271 1.268-3.3 1.268-3.3s-17.791-14.5-19.6-15.746c-1.235-.848-13.534-10.04-19.529-17.2a12.547 12.547 0 0 0-12.2-4.227l-3.735.783a5.554 5.554 0 0 0-2.476 9.653c9.852 8.446 26.47 18.243 29.569 20.281 7.692 5.059 24.705 12.147 24.705 12.147a4.38 4.38 0 0 0 1.998-2.391z" class="cls-7" data-name="Path 1767" transform="translate(-84.092 -607.667)"/>
        <path id="Path_1768" d="M2425.134 1551.772c-5.688.319-9.388-4.377-9.388-4.377a45.2 45.2 0 0 0 3.974-2.473l4.879 2.478a40.546 40.546 0 0 1 .535 4.372z" class="cls-1" data-name="Path 1768" transform="translate(-110.404 -534.913)"/>
        <path id="Path_1769" d="M2401.245 1479.429s-8.619 6.185-12.388.759-7.42-8.283-2.076-12.462 7.863-2.859 9.562-1.353 7.048 11.307 4.902 13.056z" class="cls-6" data-name="Path 1769" transform="translate(-84.091 -468.41)"/>
        <path id="Path_1770" d="M2358.947 1426.991a13.9 13.9 0 0 0-1-3.554s-.541 2.241-4.636 1.931-10.584.4-12.747 5.069a9.767 9.767 0 0 0-.37.916 10.8 10.8 0 0 1-.486-2.585 7.967 7.967 0 0 0 0 4.521c-.012.073-.021.147-.032.22a9.114 9.114 0 0 0-1.663 3.139 2.843 2.843 0 0 1 1.531-1.361c-.018 3.63 1.454 7.18 4.039 8.237 3.779 1.545 3.749.367 7.55 2.887 0 0 1.02-1.265.324-2.115s-3.322-2.086-1.854-3.323 2.009.155 2.55-.695-2.163-3.322 1.313-5.64 5.789-5.561 5.481-7.647z" class="cls-3" data-name="Path 1770" transform="translate(-45.785 -433.93)"/>
        <path id="Path_1771" d="M4842.942 2379.869s.464 7.489 1.914 7.6c.193.014 7.348.014 7.348.014h9.145a3.015 3.015 0 0 0-2.741-2.719c-2.669-.465-7.139-2.342-8.756-5.871-1.702-3.716-6.91.976-6.91.976z" class="cls-8" data-name="Path 1771" transform="translate(-2127.988 -1226.953)"/>
        <path id="Path_1772" d="M4600.451 1924.533a62.785 62.785 0 0 0 4.368 6.968c4.8 6.764 10.035 12.341 10.945 17.613a25.961 25.961 0 0 0 .845 3.374c.38 1.208.851 2.477 1.394 3.79a120.636 120.636 0 0 0 8.132 15.5c5.263 8.7 10.211 15.952 10.211 15.952l9.076-.431c-.364-1.014-4.322-13.021-9.617-27.695-2.15-5.957-4.437-12.293-6.643-18.4q-.44-1.224-.878-2.434c-.674-1.87-1.338-3.71-1.987-5.5l-8.931-24.75s-19.871-8.395-21.935-2.955c-1.703 4.483-.317 8.877 5.02 18.968z" class="cls-9" data-name="Path 1772" transform="translate(-1921.676 -833.168)"/>
        <path id="Path_1773" d="M4713.889 2336.45s-3.325 3.08-2.676 5.269 3.647 3.648 4.054 6.323 2.027 4.135 3.486 4.135h6.957s1.075-1.883-1.52-2.45-3.572-3.711-3.41-6.63a52.2 52.2 0 0 0-.244-6.809l-5.513-1.3z" class="cls-3" data-name="Path 1773" transform="translate(-2018.42 -1191.651)"/>
        <path id="Path_1774" d="M4625.03 1925.984s20.91 33.918 20.91 36.616c0 5.969-15.8 40.336-15.8 40.336s-8.387-4.431-8.05-7.541c0 0 5.031-24.125 6.494-28s-26.428-18.487-27.891-36.139z" class="cls-10" data-name="Path 1774" transform="translate(-1926.623 -851.667)"/>
        <path id="Path_1775" d="M4797.685 1822.632s4.313 2.452 5.521 2.452 5.945-.916 7.267-.241a15.464 15.464 0 0 1 4.16 4.278c.807 1.6-3.247.891-5.164-.468a1.206 1.206 0 0 0-.957-.2c-.992.216-3.055.591-4.05.222-1.339-.5-8.392-1.045-8.392-1.045z" class="cls-11" data-name="Path 1775" transform="translate(-2089.026 -765.757)"/>
        <path id="Path_1776" d="M4611.225 1602.883s4.471 31.773 11.873 34.619c3.653 1.4 19.794 4.588 24.57 4.907 0 0 1.169-.949.885-4.811 0 0-16.912-6.209-19.314-9.586-3.576-5.025 2.22-20.53-2.268-25.25s-12.045-6.748-15.746.121z" class="cls-12" data-name="Path 1776" transform="translate(-1935.375 -579.406)"/>
        <path id="Path_1777" d="M4636.557 1544.958c-5.975 1.545-15.881-3.992-15.881-3.992a14.667 14.667 0 0 0 5.272-8.264c.073-.286.137-.579.2-.88l3.07-.651 4.563 4.089a39.379 39.379 0 0 1-.675 4.616c-.1.509-.212 1.056-.343 1.637a14.082 14.082 0 0 1 3.794 3.445z" class="cls-11" data-name="Path 1777" transform="translate(-1943.232 -523.483)"/>
        <path id="Path_1778" d="M4582.4 1606.322c.856 11.512-.27 29.02.7 32.052.839 2.616 10.386 1.061 14.2.188 1.41-.323 3.119-.785 4.884-1.331 4.922-1.524 10.285-3.7 10.862-5.316a1.37 1.37 0 0 0 .053-.186 1.5 1.5 0 0 0-.011-.677 11.5 11.5 0 0 1-1.018-3.754c-.1-2.277-.083-4.958-.169-7.841 0-.325-.008-.679-.043-1v-.118-.184c-.083-3.215-.251-6.6-.444-9.948-.126-2.105-.268-4.19-.434-6.188a82.663 82.663 0 0 0-1.773-12.642 20.3 20.3 0 0 0-6.521-10.067l-1.816-1.558a10.5 10.5 0 0 1-6.591-.878c-2.347-1.114-3.156-1.913-3.565-1.611-5.432 4.177-9.329 16.986-8.314 31.059z" class="cls-13" data-name="Path 1778" transform="translate(-1911.279 -560.078)"/>
        <path id="Path_1779" d="M4631.414 1723.946c4.922-1.524 10.285-3.7 10.861-5.316a1.363 1.363 0 0 0 .054-.186c0-.225-.006-.451-.011-.677a11.515 11.515 0 0 1-1.018-3.754c-.1-2.277-.083-4.958-.168-7.841 0-.325-.009-.679-.044-1v-.118-.184l-19.9-25.352s-13.382 27.852 10.226 44.428z" class="cls-12" data-name="Path 1779" transform="translate(-1940.515 -646.793)"/>
        <path id="Path_1780" d="M4659.744 1535.26a39.074 39.074 0 0 1-.674 4.616c-4.458-1.44-6.479-5.467-7.154-7.174.072-.286.137-.579.2-.88l3.069-.651z" class="cls-14" data-name="Path 1780" transform="translate(-1969.2 -523.483)"/>
        <path id="Path_1781" d="M4658.986 1485.516s-9.719-1.622-8.616-7.66.593-10.313 6.845-9.533 7.033 3.3 7.155 5.409-2.826 12.05-5.384 11.784z" class="cls-11" data-name="Path 1781" transform="translate(-1967.842 -471.164)"/>
        <path id="Rectangle_3475" d="M0 0H0.901V23.599H0z" class="cls-15" data-name="Rectangle 3475" transform="rotate(-161.99 1449.613 316.943)"/>
        <path id="Rectangle_3476" d="M0 0H24.764V1.482H0z" class="cls-15" data-name="Rectangle 3476" transform="rotate(-180 1370.577 518.752)"/>
        <path id="Path_1782" d="M4789.875 1860.1s7.955 2.1 10.938 1.877 5.464-1.639 5.84-2.38 1.164-2.055-.867-1.812-4.8.675-4.89.284 1.656-.353 1.656-.353.526-.765-.136-.793-2.6-.553-3.315-.193-1.381 1.685-1.906 1.629-6.657-2.762-6.657-2.762z" class="cls-11" data-name="Path 1782" transform="translate(-2083.877 -793.158)"/>
        <path id="Path_1783" d="M4622.914 1614.235s.94 32.072 7.984 35.716c3.475 1.8 19.168 6.742 23.879 7.586 0 0 1.267-.814 1.409-4.685 0 0-16.125-8.036-18.141-11.656-3-5.389 4.47-20.16.531-25.346s-11.225-8.034-15.662-1.615z" class="cls-13" data-name="Path 1783" transform="translate(-1945.092 -589.454)"/>
        <path id="Path_1784" d="M4641.824 1460.313a4.6 4.6 0 0 1 1.167-3.258s-.444-2.077.376-2.419.993 1.4 1.37 1.13a8.4 8.4 0 0 0 2.773-3.492c.719-1.917 7.3.4 8.065.75s3.231-.921 3.711-1.948a14.421 14.421 0 0 1-1.986-1.917c-.615-.822-4.929-6.368-10.955-4.793s-6.847 4.451-6.5 6.915-.489 8.205 1.979 9.032z" class="cls-4" data-name="Path 1784" transform="translate(-1959.107 -451.094)"/>
        <path id="Path_1785" d="M3548.41 1331.718l-18.83-11.346a4.872 4.872 0 0 1-2.3-4.533q.289-3.49.288-7.053a81.807 81.807 0 0 0-.984-12.929 4.807 4.807 0 0 1 2.279-4.918l19.669-11.874a4.719 4.719 0 0 0 1.8-6.164l-9.259-18.854a4.667 4.667 0 0 0-5.757-2.327l-19.885 7.22a4.686 4.686 0 0 1-5.4-1.583 84.954 84.954 0 0 0-19.526-18.326 4.837 4.837 0 0 1-1.8-5.613l4.415-12.09a4.888 4.888 0 0 0-2.4-6l-18.735-9.163a4.269 4.269 0 0 0-1.175-.407 4.689 4.689 0 0 0-4.99 2.207l-8.491 14.057-2.063 3.43a84.064 84.064 0 0 0-11.85-.839 85.252 85.252 0 0 0-15.784 1.463 4.685 4.685 0 0 1-4.917-2.183l-9.547-15.856a4.856 4.856 0 0 0-6.308-1.847l-14.417 7.076-4.126 2.039a4.919 4.919 0 0 0-2.471 6.093l6.021 16.623a4.679 4.679 0 0 1-1.439 5.325 84.315 84.315 0 0 0-12.689 12.809 14.557 14.557 0 0 0-.959 1.176 2.635 2.635 0 0 1-.336.383 4.794 4.794 0 0 1-5.182 1.2l-19.646-7.124a3.5 3.5 0 0 0-.672-.192 4.876 4.876 0 0 0-5.3 2.59l-9.163 18.662a4.851 4.851 0 0 0 1.847 6.285l19.645 11.826a4.689 4.689 0 0 1 2.231 4.822 85.727 85.727 0 0 0-.984 13q0 3.527.288 6.98a4.942 4.942 0 0 1-2.375 4.63l-18.9 11.418a4.717 4.717 0 0 0-1.8 6.117l9.188 18.638a4.929 4.929 0 0 0 6.117 2.47l15.735-5.709a4.842 4.842 0 0 1 5.685 1.847 84.723 84.723 0 0 0 17.583 19.31 4.811 4.811 0 0 1 1.535 5.445l-6.428 17.7a4.977 4.977 0 0 0 2.471 6.141l18.59 9.139a4.757 4.757 0 0 0 6.188-1.823l.5-.816 9.859-16.335a4.865 4.865 0 0 1 5.062-2.279h.024a84.264 84.264 0 0 0 14.872 1.319c2.71 0 5.373-.144 8.036-.384a4.771 4.771 0 0 1 4.582 2.279l9.69 16.1a4.937 4.937 0 0 0 6.405 1.895l18.566-9.139a5.332 5.332 0 0 0 1.368-1.007 4.917 4.917 0 0 0 1.056-4.989l-4.846-13.265a4.911 4.911 0 0 1 .84-4.75 5.243 5.243 0 0 1 1.008-.912 84.416 84.416 0 0 0 23.555-23.651 4.751 4.751 0 0 1 4.8-2.063 4.894 4.894 0 0 1 .792.216l15.9 5.781a4.832 4.832 0 0 0 5.972-2.4l.216-.432 8.947-18.182a4.918 4.918 0 0 0-1.891-6.354zm-148.649-35.861a56.55 56.55 0 0 1 3.79-9.811c3.119-6.261 10.818-14.009 17.1-17.1.672-.336 1.343-.648 2.015-.959 41.115-18.47 80.765 21.9 60.832 63.039-2.615 5.373-8.4 11.682-14.033 15.592a29.93 29.93 0 0 1-3.837 2.255 52.191 52.191 0 0 1-17.007 5.037c-31.709 3.522-57.807-25.623-48.86-58.054z" class="cls-5" data-name="Path 1785" transform="translate(-875.317 -252.904)"/>
        <path id="Path_1786" d="M4372.464 2190.227l-4.2-2.532a1.086 1.086 0 0 1-.515-1.012q.065-.779.064-1.574a18.081 18.081 0 0 0-.22-2.885 1.073 1.073 0 0 1 .509-1.1l4.39-2.65a1.052 1.052 0 0 0 .4-1.375l-2.066-4.208a1.041 1.041 0 0 0-1.285-.519l-4.438 1.612a1.045 1.045 0 0 1-1.2-.354 18.963 18.963 0 0 0-4.359-4.09 1.081 1.081 0 0 1-.4-1.253l.986-2.7a1.092 1.092 0 0 0-.536-1.338l-4.182-2.045a.945.945 0 0 0-.262-.091 1.046 1.046 0 0 0-1.113.492l-1.9 3.137-.46.766a18.758 18.758 0 0 0-2.645-.187 19.018 19.018 0 0 0-3.522.327 1.046 1.046 0 0 1-1.1-.487l-2.13-3.539a1.084 1.084 0 0 0-1.408-.412l-3.218 1.579-.92.455a1.1 1.1 0 0 0-.551 1.36l1.344 3.71a1.047 1.047 0 0 1-.322 1.188 18.849 18.849 0 0 0-2.832 2.859 3.332 3.332 0 0 0-.214.262.519.519 0 0 1-.075.085 1.068 1.068 0 0 1-1.155.268l-4.385-1.59a.766.766 0 0 0-.151-.043 1.087 1.087 0 0 0-1.182.578l-2.046 4.165a1.085 1.085 0 0 0 .413 1.4l4.385 2.639a1.047 1.047 0 0 1 .5 1.076 19.129 19.129 0 0 0-.22 2.9q0 .787.065 1.558a1.107 1.107 0 0 1-.53 1.033l-4.219 2.548a1.053 1.053 0 0 0-.4 1.366l2.05 4.159a1.1 1.1 0 0 0 1.364.552l3.513-1.274a1.081 1.081 0 0 1 1.269.412 18.912 18.912 0 0 0 3.924 4.31 1.076 1.076 0 0 1 .342 1.215l-1.435 3.951a1.11 1.11 0 0 0 .551 1.371l4.149 2.04a1.06 1.06 0 0 0 1.38-.407l.113-.182 2.2-3.646a1.084 1.084 0 0 1 1.129-.509h.006a18.8 18.8 0 0 0 3.319.294c.6 0 1.2-.032 1.793-.086a1.064 1.064 0 0 1 1.022.509l2.164 3.592a1.1 1.1 0 0 0 1.429.423l4.144-2.04a1.2 1.2 0 0 0 .306-.225 1.1 1.1 0 0 0 .236-1.114l-1.083-2.96a1.1 1.1 0 0 1 .188-1.06 1.215 1.215 0 0 1 .224-.2 18.829 18.829 0 0 0 5.257-5.279 1.06 1.06 0 0 1 1.071-.46 1.093 1.093 0 0 1 .177.048l3.549 1.29a1.079 1.079 0 0 0 1.333-.535l.048-.1 2-4.058a1.1 1.1 0 0 0-.427-1.41zm-33.175-8a12.568 12.568 0 0 1 .845-2.19 9.909 9.909 0 0 1 3.817-3.817c.15-.075.3-.144.45-.214 9.176-4.122 18.025 4.888 13.577 14.069a10.275 10.275 0 0 1-3.132 3.479 6.7 6.7 0 0 1-.856.5 11.652 11.652 0 0 1-3.8 1.124 10.163 10.163 0 0 1-10.901-12.955z" class="cls-13" data-name="Path 1786" transform="translate(-1697.494 -1047.931)"/>
        <path id="Path_1788" fill="#ebf2f9" d="M3302.348 971.223l-6.67-3.094a1.63 1.63 0 0 1-.929-1.424q-.03-1.171-.158-2.355a27.412 27.412 0 0 0-.793-4.264 1.607 1.607 0 0 1 .58-1.717l6.113-4.658a1.579 1.579 0 0 0 .376-2.115l-3.759-5.936a1.561 1.561 0 0 0-2-.566l-6.352 3.118a1.567 1.567 0 0 1-1.851-.332 28.411 28.411 0 0 0-7.154-5.39 1.62 1.62 0 0 1-.8-1.8l1.032-4.179a1.634 1.634 0 0 0-1.014-1.908l-6.56-2.372a1.441 1.441 0 0 0-.405-.093 1.568 1.568 0 0 0-1.58.914l-2.317 4.98-.562 1.215a28.12 28.12 0 0 0-3.97.148 28.546 28.546 0 0 0-5.2 1.056 1.567 1.567 0 0 1-1.714-.548l-3.746-4.929a1.624 1.624 0 0 0-2.164-.386l-4.539 2.873-1.3.827a1.645 1.645 0 0 0-.6 2.115l2.6 5.311a1.565 1.565 0 0 1-.287 1.823 28.162 28.162 0 0 0-3.758 4.717 4.939 4.939 0 0 0-.276.425.885.885 0 0 1-.1.14 1.6 1.6 0 0 1-1.679.586l-6.79-1.661a1.182 1.182 0 0 0-.23-.04 1.631 1.631 0 0 0-1.669 1.053l-2.374 6.536a1.623 1.623 0 0 0 .841 2.023l6.959 3.224a1.567 1.567 0 0 1 .916 1.523 28.7 28.7 0 0 0 .142 4.359q.127 1.173.347 2.311a1.653 1.653 0 0 1-.623 1.625l-5.874 4.478a1.578 1.578 0 0 0-.377 2.1l3.727 5.866a1.649 1.649 0 0 0 2.123.6l5.026-2.466a1.62 1.62 0 0 1 1.957.409 28.343 28.343 0 0 0 6.543 5.787 1.608 1.608 0 0 1 .707 1.755l-1.5 6.118a1.665 1.665 0 0 0 1.043 1.953l6.511 2.369a1.591 1.591 0 0 0 1.992-.829l.138-.289 2.689-5.788a1.626 1.626 0 0 1 1.6-.94h.008a28.157 28.157 0 0 0 4.993-.1c.9-.1 1.781-.242 2.658-.417a1.6 1.6 0 0 1 1.606.593l3.8 5a1.651 1.651 0 0 0 2.2.4l5.845-3.708a1.792 1.792 0 0 0 .419-.384 1.645 1.645 0 0 0 .171-1.7l-2.09-4.236a1.643 1.643 0 0 1 .108-1.61 1.752 1.752 0 0 1 .3-.339 28.24 28.24 0 0 0 6.98-8.714 1.58 1.58 0 0 1 1.792-.816l5.5 1.349a1.617 1.617 0 0 0 1.9-1.013l.056-.151 2.32-6.369a1.646 1.646 0 0 0-.854-2.043zm-50.723-6.566a18.85 18.85 0 0 1 .906-3.4 14.847 14.847 0 0 1 5.071-6.3c.211-.136.423-.264.636-.392 13.006-7.624 27.646 4.371 22.5 18.769a15.4 15.4 0 0 1-4.1 5.691 10.055 10.055 0 0 1-1.195.888 17.456 17.456 0 0 1-5.474 2.288 15.231 15.231 0 0 1-18.344-17.543z" data-name="Path 1788" transform="translate(-786.959 -25.534)"/>
        <path id="Path_1789" d="M3839.406 2215.952a1.379 1.379 0 0 1 .246 1.474.018.018 0 0 1 0 .008 9.169 9.169 0 0 1-2.9 3.175c-.174.141-.329.269-.464.387-.036.031-.071.062-.1.093l-.081.073c-1.272 1.173-.793 1.442-3.08 3.822-2.606 2.712-4.4 2.76-4.911 2.513-.432-.21.445-1.649 1.417-3.266l.143-.236.387-.649c1.139-1.946.847-2.858.576-5.754-.22-2.352-3.661-13.145-3.661-13.145l5-.86s1.5 8.594 3.161 9.917c.886.706 1.878.715 2.729 1.238.061.036.12.073.177.112a6.55 6.55 0 0 1 1.361 1.098z" class="cls-11" data-name="Path 1789" transform="translate(-1283.475 -1082.423)"/>
        <path id="Path_1790" d="M3844.452 2270.893a1.378 1.378 0 0 1 .246 1.474.012.012 0 0 1 0 .008 10.625 10.625 0 0 1-2.9 3.165c-.172.143-.325.274-.46.4-.036.031-.071.063-.1.094l-.081.073c-1.272 1.173-.793 1.441-3.079 3.821-2.607 2.711-4.4 2.76-4.912 2.514-.432-.211.446-1.649 1.418-3.266a11.1 11.1 0 0 0 4.646-3.424c1.569-2 2.616-4.576 3.685-6.066.06.036.12.074.177.112a6.559 6.559 0 0 1 1.36 1.095z" class="cls-17" data-name="Path 1790" transform="translate(-1288.522 -1137.364)"/>
        <path id="Path_1791" d="M3588.137 2205.345c-.309 1.542-2.506 1.284-4.962.685s-1.872.113-5.366-.273-4.553-1.69-4.66-2.21c-.1-.461 1.632-.624 3.484-.837.233-.026.467-.055.7-.084 2.091-.262 3.623-1.612 5.522-2.72 1.8-1.05 4.484-5.326 4.484-5.326l4.792.38s-2.514 3.82-3.487 5.48a5.79 5.79 0 0 0-.47 3.266 6.167 6.167 0 0 1-.037 1.639z" class="cls-11" data-name="Path 1791" transform="translate(-1072.482 -1074.935)"/>
        <path id="Path_1792" d="M3583.176 2246.074c-2.455-.6-1.872.113-5.366-.273s-4.553-1.69-4.66-2.21c-.1-.461 1.632-.623 3.484-.837l.017.036a9.853 9.853 0 0 0 5 1.555c2.371.058 4.882-.622 6.519-.595a6.171 6.171 0 0 1-.036 1.64c-.306 1.54-2.503 1.283-4.958.684z" class="cls-17" data-name="Path 1792" transform="translate(-1072.482 -1114.979)"/>
        <path id="Path_1793" d="M3685.55 1824.93s-1.142-2.8-2.4-2.912-5.252-.742-5.538-.171a3.949 3.949 0 0 0 .856 3.368c.856.742 6.166 1.941 6.166 1.941z" class="cls-11" data-name="Path 1793" transform="translate(-1159.231 -764.908)"/>
        <path id="Path_1794" fill="#aa413e" d="M3770.8 2038.948l10.329 27.8a9.466 9.466 0 0 0 3.108-.284 13.414 13.414 0 0 0 3-1.463s-2.562-26.689-7.259-32.24-9.178 6.187-9.178 6.187z" data-name="Path 1794" transform="translate(-1236.783 -939.182)"/>
        <path id="Path_1795" d="M3703.6 1969.775s-29.678-10.035-36.3-7.9-26.492 41.673-26.492 41.673a3.842 3.842 0 0 0 1.673 1.056 15.793 15.793 0 0 0 3.9.4s17.935-15.373 20.07-19.856 2.989-8.754 5.124-8.327 27.542 10.462 33.307 4.484a16.641 16.641 0 0 0 4.257-13.746z" class="cls-17" data-name="Path 1795" transform="translate(-1128.73 -881.254)"/>
        <path id="Path_1796" d="M3891.56 1609.195a16.879 16.879 0 0 1-1.264-5.815c.04.308.574 4.215 2.077 6.427 6.172 4.052 18 17.583 17.768 20.147 0 0 4.167-7.067 4.239-7.11 0 0 7.687-9.775-1.424-15.374-4.63-2.846-4.607-6.5-4.413-9.67s-1.263-16.83-10.538-13.256a6.05 6.05 0 0 0-2.155-.562 1.821 1.821 0 0 1 .821.39 7.2 7.2 0 0 0-3.9.745c-3.395 1.933-6.437 19.268-1.211 24.078z" class="cls-19" data-name="Path 1796" transform="translate(-1334.824 -567.357)"/>
        <path id="Path_1797" d="M3912.389 1693.34c-.031.014 2.98 1.577 5.246.958 2.13-.581 3.521-3.343 3.492-3.349-.9-.18-1.162-1.419-1.143-6.747l-.408.08-6.857 1.358s.156 2.158.161 4.191c.003 1.708-.1 3.327-.491 3.509z" class="cls-11" data-name="Path 1797" transform="translate(-1354.474 -650.688)"/>
        <path id="Path_1798" d="M3914.341 1686.036s.156 2.158.161 4.191c3.837-.108 5.866-3.609 6.7-5.549z" class="cls-14" data-name="Path 1798" transform="translate(-1356.097 -651.084)"/>
        <path id="Path_1799" d="M3900.634 1610.849a20.172 20.172 0 0 0 2.493-5.894c.345-1.94-.643-9.13-7.869-8.095a9.822 9.822 0 0 0-4.072 1.539c-1.568 1.059-3.832 3.347-1.3 9.621l.658 2.12z" class="cls-19" data-name="Path 1799" transform="translate(-1334.823 -578.001)"/>
        <path id="Path_1800" d="M3891.851 1628.67s9.08.15 9.086-5.506 1.182-9.446-4.615-9.78-6.925 1.822-7.387 3.709.555 11.392 2.916 11.577z" class="cls-11" data-name="Path 1800" transform="translate(-1334.889 -591.792)"/>
        <path id="Path_1801" d="M3908.736 1607.071s2.486 6.635 6.3 7.616 5.47-.041 5.47-.041a10.809 10.809 0 0 1-3.533-6.383s-6.361-4.35-8.237-1.192z" class="cls-19" data-name="Path 1801" transform="translate(-1351.438 -585.618)"/>
        <path id="Path_1802" d="M3889.745 1610.6a8.019 8.019 0 0 0-2.31 2.922c-.453 1.44-.656 4.4-1.521 4.3 0 0-1.873-4.51.232-7.061 2.233-2.706 3.599-.161 3.599-.161z" class="cls-19" data-name="Path 1802" transform="translate(-1331.83 -588.604)"/>
        <path id="Path_1803" d="M3767.365 1750.977c.9-3.755-2.151-11.042-5.331-17.074-2.885-5.468-5.88-9.9-6.149-9.743-7.609 4.516-8.3.761-8.3.761s-6.913.918-8.87 4.288c-2.708 4.659-5.655 18.64-8.553 18.434-1.329-.1-14.71-5.124-14.71-5.124s-2.229 2.088-1.8 4.65a139.729 139.729 0 0 0 12.193 7.247c2.955 1.493 5.625 2.538 6.88 2.242 2.546-.6 6.521-6.5 8.669-9.973l.015-.023c2.742 15.519-.986 19.054.9 20.691 1.993 1.728 4.839-.823 11.1 1.892 4.108 1.782 9.809 4.359 13.646 4.807 2.013.236 3.515-.114 4-1.473 1.435-3.952-5.398-14.443-3.69-21.602z" class="cls-20" data-name="Path 1803" transform="translate(-1189.232 -683.899)"/>
        <path id="Path_1804" fill="#fff" d="M3901.9 1681.554s-.169.719-1.956.608c0 0-1.5-.093-1.455-.882a4.828 4.828 0 0 1 3.411.274z" data-name="Path 1804" transform="translate(-1342.917 -648.105)"/>
        <path id="Path_1805" d="M3965.426 1855.077c-.489 1.359-1.992 1.71-4 1.473-2.656-1.157-14.13-5.6-14-8.615.191-4.46 2.207-4.6.783-10.106-1.143-4.42 9.459-12.638 11.15-14.425 3.18 6.032 3.268 6.318 2.373 10.073-1.715 7.159 5.117 17.649 3.694 21.6z" class="cls-15" data-name="Path 1805" transform="translate(-1383.592 -766.399)"/>
        <path id="Path_1806" d="M3801.724 1853.873c-2.148 3.473-6.123 9.373-8.669 9.973-1.255.3-3.925-.749-6.881-2.242a17.871 17.871 0 0 0 6.288.344c2.206-.214 2.847-2.918 6.334-6.975 2.262-2.63 2.818-1.973 2.928-1.1z" class="cls-15" data-name="Path 1806" transform="translate(-1249.559 -791.088)"/>
        <path id="Path_1807" d="M3909.913 1902.366s-1.922-1.494-3.737-1.138-2.7 1.6-2.633 2.17a3.237 3.237 0 0 0 2.419 2.313 26.163 26.163 0 0 0 5.338-.854z" class="cls-11" data-name="Path 1807" transform="translate(-1347.118 -831.043)"/>
        <path id="Path_1808" d="M3941.6 1724.18s7.4.456 9.962 4.029c3.606 5.03 9.87 25.563 8.162 30.26l-22.514-.095s-.546-2.55.213-3.784 13.1-3.227 13.665-3.8-7.118-11.1-7.118-12.811-2.37-13.799-2.37-13.799z" class="cls-20" data-name="Path 1808" transform="translate(-1374.95 -683.92)"/>
        <path id="Path_1809" fill="#1c468a" d="M3766.445 1866.276h-27.215l4.914 17.135h27.256z" data-name="Path 1809" transform="translate(-1210.538 -802.036)"/>
        <path id="Rectangle_3477" d="M0 0H35.634V0.668H0z" class="cls-8" data-name="Rectangle 3477" transform="translate(2533.7 1080.708)"/>
        <path id="Path_1810" d="M3821.6 1910.024a1.564 1.564 0 0 0-1.4-1.091.793.793 0 0 0-.778 1.091 1.563 1.563 0 0 0 1.4 1.091.794.794 0 0 0 .778-1.091z" class="cls-8" data-name="Path 1810" transform="translate(-1277.155 -837.494)"/>
        <path id="Rectangle_3478" d="M6.357 0h35.671a6.357 6.357 0 0 1 6.357 6.357 6.357 6.357 0 0 1-6.357 6.357H6.357A6.357 6.357 0 0 1 0 6.358 6.357 6.357 0 0 1 6.357 0z" class="cls-13" data-name="Rectangle 3478" transform="translate(2406.876 1109.97)"/>
        <path id="Path_1811" d="M3065.781 2188.065v1.322a2.734 2.734 0 0 1-2.726 2.726h-42.934a2.734 2.734 0 0 1-2.726-2.726v-1.431H3065a2.847 2.847 0 0 1 .781.109z" class="cls-12" data-name="Path 1811" transform="translate(-610.519 -1069.429)"/>
        <path id="Path_1812" d="M3025.237 2212.265l-1.936 7.331-8.057 30.51h-.847l4.657-25.313c0-.025.011-.05.016-.077l2.3-12.519z" class="cls-23" data-name="Path 1812" transform="translate(-608.024 -1089.581)"/>
        <path id="Path_1813" d="M3048.252 2212.265l-1.935 7.331c-.111.054-3.634 1.876-4.231 5.12l2.3-12.519z" class="cls-24" data-name="Path 1813" transform="translate(-631.04 -1089.581)"/>
        <path id="Path_1814" d="M3250.7 2250.108h-.847l-6.565-24.854-1.492-5.652-1.936-7.331 3.866-.065 1.318 7.158.986 5.361c0 .027.011.052.016.077z" class="cls-23" data-name="Path 1814" transform="translate(-795.442 -1089.581)"/>
        <path id="Path_1815" d="M3226.442 2269.328s-.01 0-.014-.009c-.018-.032-.013-.025.014.009z" class="cls-23" data-name="Path 1815" transform="translate(-784.267 -1137.044)"/>
        <path id="Path_1816" d="M3245.045 2219.357a10.671 10.671 0 0 0-1.754 5.893l-1.492-5.652-1.936-7.331 3.866-.065z" class="cls-24" data-name="Path 1816" transform="translate(-795.442 -1089.581)"/>
        <path id="Path_1817" d="M2977.381 1286.456c1-1.04 1.675-.649 1.675-.649s11.782 9.047 12.907 9.7 16.449 1.1 16.449 1.1 6.138-.069 7.627 3.082a6.267 6.267 0 0 1-.955 6.828 6.343 6.343 0 0 1-6.8 2.193c-5.618-1.639-16.792-4.986-18.883-6.265-4.654-2.846-13.057-14.212-13.057-14.212a4.534 4.534 0 0 1 1.037-1.777z" class="cls-9" data-name="Path 1817" transform="translate(-576.395 -319.466)"/>
        <path id="Path_1818" d="M2730.793 1043.929l-5.884-3.545a1.522 1.522 0 0 1-.719-1.417q.09-1.09.09-2.2a25.545 25.545 0 0 0-.308-4.039 1.5 1.5 0 0 1 .712-1.537l6.145-3.709a1.475 1.475 0 0 0 .562-1.926l-2.893-5.891a1.458 1.458 0 0 0-1.8-.727l-6.213 2.256a1.465 1.465 0 0 1-1.687-.495 26.519 26.519 0 0 0-6.1-5.726 1.512 1.512 0 0 1-.562-1.754l1.379-3.777a1.526 1.526 0 0 0-.75-1.874l-5.853-2.863a1.339 1.339 0 0 0-.367-.127 1.465 1.465 0 0 0-1.559.689l-2.653 4.392-.645 1.072a26.271 26.271 0 0 0-3.7-.262 26.641 26.641 0 0 0-4.931.457 1.464 1.464 0 0 1-1.537-.682l-2.983-4.954a1.517 1.517 0 0 0-1.971-.577l-4.5 2.211-1.289.637a1.536 1.536 0 0 0-.771 1.9l1.881 5.193a1.463 1.463 0 0 1-.45 1.664 26.341 26.341 0 0 0-3.964 4 4.689 4.689 0 0 0-.3.367.8.8 0 0 1-.1.12 1.5 1.5 0 0 1-1.619.375l-6.138-2.226a1.076 1.076 0 0 0-.21-.06 1.524 1.524 0 0 0-1.656.809l-2.863 5.831a1.516 1.516 0 0 0 .577 1.963l6.138 3.695a1.464 1.464 0 0 1 .7 1.506 26.737 26.737 0 0 0-.308 4.062q0 1.1.09 2.181a1.545 1.545 0 0 1-.742 1.446l-5.906 3.567a1.473 1.473 0 0 0-.562 1.911l2.87 5.823a1.54 1.54 0 0 0 1.911.772l4.917-1.784a1.512 1.512 0 0 1 1.776.577 26.468 26.468 0 0 0 5.494 6.033 1.5 1.5 0 0 1 .479 1.7l-2.008 5.531a1.555 1.555 0 0 0 .771 1.919l5.809 2.855a1.486 1.486 0 0 0 1.933-.569l.157-.255 3.081-5.1a1.519 1.519 0 0 1 1.581-.712h.007a26.338 26.338 0 0 0 4.647.412c.847 0 1.679-.045 2.51-.12a1.492 1.492 0 0 1 1.432.712l3.027 5.029a1.543 1.543 0 0 0 2 .592l5.8-2.855a1.667 1.667 0 0 0 .427-.315 1.536 1.536 0 0 0 .33-1.559l-1.514-4.144a1.535 1.535 0 0 1 .263-1.484 1.639 1.639 0 0 1 .315-.285 26.385 26.385 0 0 0 7.359-7.39 1.477 1.477 0 0 1 1.746-.577l4.969 1.806a1.51 1.51 0 0 0 1.866-.75l.067-.135 2.8-5.681a1.536 1.536 0 0 0-.603-1.982zm-46.443-11.2a17.657 17.657 0 0 1 1.184-3.065 13.872 13.872 0 0 1 5.344-5.344l.63-.3c12.845-5.771 25.234 6.842 19.005 19.7a14.379 14.379 0 0 1-4.384 4.871 9.344 9.344 0 0 1-1.2.7 16.3 16.3 0 0 1-5.314 1.574 14.227 14.227 0 0 1-15.265-18.141z" class="cls-13" data-name="Path 1818" transform="translate(-317.107 -85.729)"/>
        <path id="Path_1819" d="M2881.554 1267.9s.017-4.35-.67-5.616-2.261-2.847-3.158-2.341-1.171 4.745-.9 5.5a33.7 33.7 0 0 0 2.311 3.607z" class="cls-25" data-name="Path 1819" transform="translate(-493.59 -297.946)"/>
        <path id="Path_1820" d="M3153.166 2099.964c.969-.83.389-5.48.389-5.48s-4.994-4-5.681-.937-4.745 4.432-7.055 4.807a2.5 2.5 0 0 0-2.224 1.61z" class="cls-26" data-name="Path 1820" transform="translate(-711.265 -989.994)"/>
        <path id="Path_1821" d="M3130.6 1697.28c-4.624.718-6.314-.383-6.314-.383.06-4.554-1.344-14.823-3.27-26.614-2.538-15.547-5.98-33.738-8.156-44.953-1.251-6.451-2.084-10.593-2.084-10.593l3.779-.074 18.847-.373s-1.41 20.859-1.025 31.161a19.248 19.248 0 0 0 .629 5.148c3.208 7.801-2.406 46.681-2.406 46.681z" class="cls-27" data-name="Path 1821" transform="translate(-688.137 -592.575)"/>
        <path id="Path_1822" d="M3142.64 1645.451c-2.56 4.791-8.974 17.132-11.362 24.832-2.538-15.547-5.98-33.738-8.156-44.953a32.39 32.39 0 0 1 1.695-10.667l18.847-.373s-1.409 20.86-1.024 31.161z" class="cls-26" data-name="Path 1822" transform="translate(-698.404 -592.575)"/>
        <path id="Path_1823" d="M3059.1 2099.964c.969-.83.388-5.48.388-5.48s-4.994-4-5.681-.937-4.745 4.432-7.054 4.807a2.5 2.5 0 0 0-2.224 1.61z" class="cls-26" data-name="Path 1823" transform="translate(-633.074 -989.994)"/>
        <path id="Path_1824" d="M3062.221 1614.25s7.4 68.508 5.938 82.324c0 0 1.582 1.24 6.252.955 0 0 8.458-39.466 6.667-45.853-1.246-4.441 3.715-35.8 3.715-35.8z" class="cls-27" data-name="Path 1824" transform="translate(-647.78 -592.541)"/>
        <path id="Path_1825" d="M3100.854 1266.134s-9.415 4.7-14.085 2.558a14.281 14.281 0 0 1 4.159-3.594c-.047-.838-.073-1.594-.087-2.263-.042-2.227.07-3.482.07-3.482l4.06-2.954 2.755-2a17.849 17.849 0 0 0-.111 3.438 13.589 13.589 0 0 0 3.239 8.297z" class="cls-25" data-name="Path 1825" transform="translate(-668.184 -293.415)"/>
        <path id="Path_1826" fill="#ed975d" d="M3117.624 1267.7s-2.2 4.377-6.773 5c-.042-2.227.07-3.481.07-3.481l4.06-2.954a9.142 9.142 0 0 1 2.643 1.435z" data-name="Path 1826" transform="translate(-688.196 -303.287)"/>
        <path id="Path_1827" d="M3100.445 1213.753s8.427 3 10.215-2.276 4.081-8.443-1.224-10.583-7.038-.482-8.064 1.134-3.072 10.808-.927 11.725z" class="cls-25" data-name="Path 1827" transform="translate(-678.769 -248.098)"/>
        <path id="Path_1828" d="M3081.256 1360.087c-1.319 2.748-30.524 2.626-31.967.688-.588-.788-1.26-8.671-1.646-17.837-.212-5.078-.338-10.549-.313-15.425.043-7.956.489-14.324 1.61-14.811 6.259-2.715 10.128-4.443 18.305-4.193a6.779 6.779 0 0 1 5.9 3.8 49.343 49.343 0 0 1 4.965 19.777c.332 13.114 4.807 24.538 3.146 28.001z" class="cls-10" data-name="Path 1828" transform="translate(-635.399 -338.377)"/>
        <path id="Path_1829" d="M3056.778 1389.17s-.95 13.71-9.135 20.824c-.212-5.078-.338-10.549-.313-15.425 2.445-3.269 5.67-5.624 9.448-5.399z" class="cls-9" data-name="Path 1829" transform="translate(-635.399 -405.433)"/>
        <path id="Path_1830" d="M2922.222 1299.634s-8.982.056-11.8 2.674c-2.02 1.876-15 12.106-15.824 11.969s-9.181-16.819-9.181-16.819-4.121.349-4.807 2.132c0 0 3.885 20.828 12.27 25.356 0 0 21.194-4.02 27.482-11.03 3.238-3.611 1.86-14.282 1.86-14.282z" class="cls-10" data-name="Path 1830" transform="translate(-496.816 -329.21)"/>
        <path id="Path_1831" d="M3107.254 1183.973s.5 5.034 2.01 6.408 1.112 3.266 1.278 3.541 1.73-.534 2.006-.07c.634 1.065-.356 1.842-.982 2.1s1.6 4.579 3.228 4.738c2.82.275 7.177-7.524 7.545-9.81.481-2.989-1.212-7.651-6.065-7.422-7.629.36-9.174-1.294-9.02.515z" class="cls-4" data-name="Path 1831" transform="translate(-685.205 -234.16)"/>
        <path id="Rectangle_3479" d="M0 0H9.004V56.089H0z" class="cls-5" data-name="Rectangle 3479" transform="translate(2640.681 927.771)"/>
        <path id="Rectangle_3480" d="M0 0H9.004V71.723H0z" class="cls-5" data-name="Rectangle 3480" transform="translate(2655.838 912.137)"/>
        <path id="Rectangle_3481" d="M0 0H9.004V42.525H0z" class="cls-5" data-name="Rectangle 3481" transform="translate(2671.934 941.335)"/>
        <path id="Path_1832" d="M4501.615 901.411h-7.625a.789.789 0 0 0 0 1.578h7.625a.789.789 0 0 0 0-1.578z" class="cls-5" data-name="Path 1832" transform="translate(-1837.269)"/>
        <path id="Path_1833" d="M4495.726 920a.789.789 0 0 0 0-1.578h-1.737a.789.789 0 0 0 0 1.578z" class="cls-5" data-name="Path 1833" transform="translate(-1837.269 -14.138)"/>
        <path id="Path_1834" d="M4595.848 1088.378h-7.625a.792.792 0 0 0-.79.789.792.792 0 0 0 .79.789h7.625a.792.792 0 0 0 .789-.789.792.792 0 0 0-.789-.789z" class="cls-5" data-name="Path 1834" transform="translate(-1915.599 -155.415)"/>
        <path id="Path_1835" d="M4588.223 1106.966h1.736a.789.789 0 1 0 0-1.578h-1.736a.789.789 0 1 0 0 1.578z" class="cls-5" data-name="Path 1835" transform="translate(-1915.599 -169.554)"/>
    </g>
</svg>
