<svg xmlns="http://www.w3.org/2000/svg" width="70.419" height="62.85" viewBox="0 0 70.419 62.85">
    <path id="guarantee" fill="#f79220" d="M68.919 68.872l1.423-3.734a1.173 1.173 0 0 0-.455-1.4l-3.345-2.185-1.042-3.859a1.178 1.178 0 0 0-1.192-.866l-3.991.2-3.117-2.507a1.173 1.173 0 0 0-1.473 0l-3.112 2.507-3.991-.2a1.177 1.177 0 0 0-1.192.866l-1.042 3.858-3.345 2.185a1.173 1.173 0 0 0-.455 1.4l1.421 3.734-1.421 3.734a1.173 1.173 0 0 0 .455 1.4l3.345 2.185 1.044 3.858a1.178 1.178 0 0 0 1.192.866l3.991-.2 3.112 2.507a1.173 1.173 0 0 0 1.473 0l3.112-2.507 3.991.2a1.179 1.179 0 0 0 1.195-.864l1.044-3.858 3.345-2.185a1.173 1.173 0 0 0 .455-1.4zM61.886 66.6L55.7 72.786a1.175 1.175 0 0 1-1.661 0l-2.879-2.874a1.175 1.175 0 0 1 1.661-1.661l2.044 2.044 5.36-5.36a1.175 1.175 0 0 1 1.661 1.665zm-1.144 16.788l-2.066 1.664a3.524 3.524 0 0 1-4.422 0l-2.066-1.664a1.175 1.175 0 0 0-.8-.258l-2.65.132a3.525 3.525 0 0 1-3.577-2.6l-.688-2.562a1.174 1.174 0 0 0-.492-.677l-2.221-1.448a3.524 3.524 0 0 1-1.366-4.205l.945-2.479a1.174 1.174 0 0 0 0-.836l-.944-2.479a3.524 3.524 0 0 1 1.366-4.206l2.221-1.451a1.175 1.175 0 0 0 .492-.677l.693-2.561a3.523 3.523 0 0 1 3.577-2.6l2.65.132a1.175 1.175 0 0 0 .8-.258l2.066-1.664a3.524 3.524 0 0 1 4.422 0l2.066 1.664a1.174 1.174 0 0 0 .8.258l.2-.01a1.175 1.175 0 0 0 1.116-1.173V31.647a5.874 5.874 0 0 0-5.874-5.874h-13.9a1.175 1.175 0 0 0-1.19 1.175v14.366a3.527 3.527 0 0 1-5.178 3.19l-4.662-2.477a1.172 1.172 0 0 0-1.1 0l-4.6 2.443a3.526 3.526 0 0 1-5.242-3.078V26.948a1.175 1.175 0 0 0-1.175-1.175H5.874A5.874 5.874 0 0 0 0 31.647v51.1a5.874 5.874 0 0 0 5.874 5.874h55.8a1.175 1.175 0 0 0 1.175-1.175v-3.133a1.175 1.175 0 0 0-1.116-1.173 1.294 1.294 0 0 0-.991.249zm-41.97-4.15H11.9a1.175 1.175 0 0 1 0-2.35h6.871a1.175 1.175 0 0 1 0 2.35zm0-6.7H11.9a1.175 1.175 0 0 1 0-2.35h6.871a1.175 1.175 0 0 1 0 2.35zm4.694-31.142V26.948a1.175 1.175 0 0 1 1.175-1.175h13.736a1.175 1.175 0 0 1 1.175 1.175v14.444a1.175 1.175 0 0 1-1.726 1.037l-4.663-2.477a3.52 3.52 0 0 0-3.307 0l-4.663 2.477a1.174 1.174 0 0 1-1.726-1.037z" transform="translate(0 -25.773)"/>
</svg>
