<svg xmlns="http://www.w3.org/2000/svg" width="56.228" height="56.253" viewBox="0 0 56.228 56.253">
    <defs>
        <style>
            .cls-5{fill:#fff}.cls-6{fill:#f4f4f4}.cls-10{fill:#ffddce}.cls-11{fill:#365e7d}.cls-14{fill:#e8e8e8}
        </style>
    </defs>
    <g id="interview" transform="translate(-.114)">
        <g id="Group_156" data-name="Group 156" transform="translate(.114)">
            <g id="Group_155" data-name="Group 155">
                <g id="Group_153" data-name="Group 153" transform="translate(0 7.089)">
                    <g id="Group_141" data-name="Group 141" transform="translate(0 12.835)">
                        <g id="Group_140" data-name="Group 140">
                            <path id="Path_1692" fill="#f4fbff" d="M77.431 212.655v-28.97a2.341 2.341 0 0 0-2.34-2.341h-37.44a2.341 2.341 0 0 0-2.341 2.341v28.97z" data-name="Path 1692" transform="translate(-31.443 -181.344)"/>
                            <path id="Path_1693" fill="#e4f6ff" d="M397.335 181.344h-7.164a2.341 2.341 0 0 1 2.341 2.341v28.97h7.164v-28.97a2.341 2.341 0 0 0-2.341-2.341z" data-name="Path 1693" transform="translate(-347.316 -181.344)"/>
                            <path id="Path_1694" fill="#cbe2ff" d="M114.1 222.534H78.053a1.554 1.554 0 0 0-1.554 1.554v23.8h37.6z" data-name="Path 1694" transform="translate(-68.107 -218.008)"/>
                            <path id="Path_1695" fill="#bed8fb" d="M414.119 247.886v-23.8a1.554 1.554 0 0 0-1.554-1.554h-1.085v25.353h2.639z" data-name="Path 1695" transform="translate(-366.284 -218.008)"/>
                            <path id="Path_1696" d="M49.6 456.048v-2.756H1.519a1.4 1.4 0 0 0-1.4 1.4 5.045 5.045 0 0 0 5.046 5.045h40.744a3.694 3.694 0 0 0 3.693-3.694z" class="cls-5" data-name="Path 1696" transform="translate(-.114 -423.413)"/>
                            <g id="Group_139" data-name="Group 139" transform="translate(19.547 29.879)">
                                <path id="Path_1697" d="M422.505 453.292h-5.76v2.756a3.694 3.694 0 0 1-3.694 3.694h5.813a5.046 5.046 0 0 0 5.046-5.046 1.4 1.4 0 0 0-1.4-1.4z" class="cls-6" data-name="Path 1697" transform="translate(-387.229 -453.292)"/>
                                <path id="Path_1698" d="M178.024 453.292a3.225 3.225 0 0 0 3.225 3.225h10.684a3.225 3.225 0 0 0 3.225-3.225z" class="cls-6" data-name="Path 1698" transform="translate(-178.024 -453.292)"/>
                            </g>
                        </g>
                    </g>
                    <g id="Group_152" data-name="Group 152" transform="translate(3.867)">
                        <g id="Group_151" data-name="Group 151">
                            <path id="Path_1699" fill="#477b9e" d="M122.358 64.525h-5.682a5.082 5.082 0 0 0-5.082 5.082v4.9l1.018.74H122.8v-9.974z" data-name="Path 1699" transform="translate(-103.212 -64.525)"/>
                            <path id="Path_1700" fill="#4a80aa" d="M65.611 288.43l-7.265-2.13H46.973l-7.268 2.133a6.117 6.117 0 0 0-4.395 5.87v10.345h34.695V294.3a6.117 6.117 0 0 0-4.394-5.87z" data-name="Path 1700" transform="translate(-35.311 -261.931)"/>
                            <path id="Path_1701" fill="#407093" d="M206.415 288.43l-7.265-2.13h-5.656l.052 2.877 5.7 1.764a6.117 6.117 0 0 1 4.394 5.87v7.838h7.164V294.3a6.117 6.117 0 0 0-4.389-5.87z" data-name="Path 1701" transform="translate(-176.115 -261.931)"/>
                            <path id="Path_1702" d="M169.106 350.32h-2.217l-2 11.3.009.017h6.217z" class="cls-5" data-name="Path 1702" transform="translate(-150.651 -318.92)"/>
                            <g id="Group_149" data-name="Group 149" transform="translate(13.354)">
                                <g id="Group_148" data-name="Group 148" transform="translate(0 18.426)">
                                    <g id="Group_147" data-name="Group 147">
                                        <g id="Group_146" data-name="Group 146">
                                            <g id="Group_145" data-name="Group 145">
                                                <g id="Group_144" data-name="Group 144">
                                                    <g id="Group_143" data-name="Group 143">
                                                        <g id="Group_142" data-name="Group 142">
                                                            <path id="Path_1703" d="M164.84 238.653v-6.416h-7.983v6.416c0 2.2 3.992 2.4 3.992 2.4s3.991-.196 3.991-2.4z" class="cls-10" data-name="Path 1703" transform="translate(-156.857 -232.237)"/>
                                                        </g>
                                                    </g>
                                                </g>
                                            </g>
                                            <path id="Path_1704" d="M292.54 417.729v-3.541a.849.849 0 0 0-1.7 0v3.541z" class="cls-11" data-name="Path 1704" transform="translate(-276.122 -393.442)"/>
                                        </g>
                                    </g>
                                </g>
                                <path id="Path_1705" fill="#396583" d="M214.528 67.479h-.074a.746.746 0 0 1-.746-.746 2.208 2.208 0 0 0-2.208-2.208h-1.928V75.25h6.146l1.018-.74v-4.822a2.208 2.208 0 0 0-2.208-2.209z" data-name="Path 1705" transform="translate(-203.78 -64.525)"/>
                            </g>
                            <g id="Group_150" data-name="Group 150" transform="translate(10.061 23.817)">
                                <path id="Path_1706" d="M128.62 281.42l-1.137.51a1.016 1.016 0 0 0-.3 1.645l3.148 3.153a1.087 1.087 0 0 0 1.456.055l2.469-2.062-4.209-3.145a1.413 1.413 0 0 0-1.427-.156z" class="cls-11" data-name="Path 1706" transform="translate(-126.883 -281.296)"/>
                                <path id="Path_1707" d="M198 281.637l-4.036 3.125 2.32 1.984a1.087 1.087 0 0 0 1.46-.042l3.15-3.067a1.016 1.016 0 0 0-.3-1.657l-1.159-.516a1.413 1.413 0 0 0-1.435.173z" class="cls-11" data-name="Path 1707" transform="translate(-186.593 -281.337)"/>
                            </g>
                        </g>
                        <path id="Path_1708" d="M174.268 312.479l-2.431 2.03 1.239 2.127h2.217l1.239-2.22z" class="cls-5" data-name="Path 1708" transform="translate(-156.837 -285.236)"/>
                    </g>
                </g>
                <path id="Path_1709" fill="#f7f4f4" d="M348.623 0h-7.241a2.489 2.489 0 0 0-2.489 2.489v6.338a2.49 2.49 0 0 0 1.973 2.435.3.3 0 0 1 .124.054l.369.245h3.922l.262-.245h3.081a2.489 2.489 0 0 0 2.489-2.489V2.489A2.489 2.489 0 0 0 348.623 0z" data-name="Path 1709" transform="translate(-301.672)"/>
                <g id="Group_154" data-name="Group 154" transform="translate(39.318)">
                    <path id="Path_1710" d="M358.132 103.292v3.223a.439.439 0 0 0 .75.31l3.726-3.726a.363.363 0 0 1 .257-.106h-4.889a.363.363 0 0 1 .156.299z" class="cls-14" data-name="Path 1710" transform="translate(-357.975 -91.677)"/>
                    <path id="Path_1711" d="M428.611 0h-7.164a2.489 2.489 0 0 1 2.489 2.489v6.338a2.489 2.489 0 0 1-2.489 2.489h7.164a2.489 2.489 0 0 0 2.489-2.489V2.489A2.489 2.489 0 0 0 428.611 0z" class="cls-14" data-name="Path 1711" transform="translate(-414.473)"/>
                </g>
            </g>
        </g>
        <path id="Path_1712" d="M81.781 417.729v-3.541a.849.849 0 0 0-1.7 0v3.541z" class="cls-11" data-name="Path 1712" transform="translate(-71.184 -367.927)"/>
        <g id="Group_157" data-name="Group 157" transform="translate(12.362 13.073)">
            <path id="Path_1713" d="M122.8 127.449v-7.985a12.016 12.016 0 0 1-6.011-.4 1.622 1.622 0 0 0-2.131 1.54v.841a1.537 1.537 0 0 1-1.537 1.537h-1.526v2.518a1.163 1.163 0 0 0 1.163 1.163.382.382 0 0 1 .38.361 7.441 7.441 0 0 0 6.014 6.831 7.644 7.644 0 0 0 3.651-6.4z" class="cls-10" data-name="Path 1713" transform="translate(-111.592 -118.985)"/>
            <path id="Path_1714" fill="#ffcbbe" d="M184.448 122.99a1.537 1.537 0 0 1-1.537-1.537v-.841a1.622 1.622 0 0 0-2.131-1.54 12.018 12.018 0 0 1-1.971.47v7.8a7.436 7.436 0 0 1-3.8 6.373 7.437 7.437 0 0 0 9.419-6.69.382.382 0 0 1 .38-.361 1.163 1.163 0 0 0 1.163-1.163v-2.511h-1.526z" data-name="Path 1714" transform="translate(-168.044 -118.988)"/>
        </g>
    </g>
</svg>
