<svg xmlns="http://www.w3.org/2000/svg" width="54.381" height="53.734" viewBox="0 0 54.381 53.734">
    <defs>
        <style>
            .cls-1{fill:#fff}
        </style>
    </defs>
    <g id="invoice" transform="translate(0 -3.044)">
        <path id="Path_1171" d="M452.589 397.9a.8.8 0 0 0-1.107.209l-1.83 2.682a5.554 5.554 0 0 0-.964 2.927l-.188 5.034a.8.8 0 1 0 1.592.059l.188-5.033a3.962 3.962 0 0 1 .688-2.089l1.83-2.682a.8.8 0 0 0-.209-1.107z" class="cls-1" data-name="Path 1171" transform="translate(-400.871 -352.802)"/>
        <path id="Path_1172" d="M53.265 36.7l-4.8-7.453V15.4a3.226 3.226 0 0 0-3.222-3.222h-6.89v-7.6a1.535 1.535 0 0 0-1.533-1.533H25.778a.8.8 0 1 0 0 1.593h10.978v22H19.593v-22h3a.8.8 0 1 0 0-1.593h-3.06A1.535 1.535 0 0 0 18 4.577v7.6H9.138A3.226 3.226 0 0 0 5.916 15.4v6.119a.8.8 0 0 0 1.593 0V15.4a1.631 1.631 0 0 1 1.629-1.629H18v1.755h-6.9a.933.933 0 0 0-.928.936V37.37l-2.527 2.743a1.627 1.627 0 0 1-.135-.647V24.7a.8.8 0 0 0-1.593 0v4.543L1.112 36.7a6.947 6.947 0 0 0 .1 7.695l3.067 4.495a3.962 3.962 0 0 1 .688 2.089l.188 5.034a.8.8 0 0 0 1.592-.059l-.187-5.035a5.555 5.555 0 0 0-.96-2.928L2.529 43.5a5.358 5.358 0 0 1-.078-5.934l3.465-5.376v7.28a3.223 3.223 0 0 0 .6 1.87l-.43.467a.8.8 0 0 0 1.171 1.08l7.43-8.058a.865.865 0 0 1 1.393 1.005L11.613 43.9a1.636 1.636 0 0 0 .169 1.842 3.962 3.962 0 0 1 .678 3.8 6.42 6.42 0 0 0-.358 1.971l-.086 3.691a.8.8 0 0 0 1.593.037l.086-3.691a4.832 4.832 0 0 1 .269-1.483 5.564 5.564 0 0 0-.952-5.34.052.052 0 0 1-.005-.058l1.1-1.985h26.165l1.1 1.985a.051.051 0 0 1-.005.058 5.565 5.565 0 0 0-.952 5.34 4.829 4.829 0 0 1 .269 1.483l.086 3.691a.8.8 0 0 0 1.593-.037l-.086-3.691a6.422 6.422 0 0 0-.358-1.971 3.962 3.962 0 0 1 .678-3.8 1.636 1.636 0 0 0 .169-1.842L38.3 35.831a.865.865 0 0 1 1.393-1.005l7.43 8.058a.8.8 0 0 0 1.171-1.08l-.43-.466a3.2 3.2 0 0 0 .6-1.871v-7.28l3.465 5.376a5.337 5.337 0 0 1 .349 5.185.8.8 0 0 0 1.442.676 6.923 6.923 0 0 0-.453-6.725zm-38.278 4.4l.971-1.755h22.461l.971 1.755zm22.35-7.441A2.464 2.464 0 0 0 36.9 36.6l.634 1.145H16.84l.634-1.145a2.458 2.458 0 0 0-3.958-2.857l-1.749 1.9V17.119H18v9.518h-.906a.8.8 0 1 0 0 1.593h22.161a.8.8 0 1 0 0-1.593h-.906v-9.518h5.171v19.51l-2.659-2.883a2.456 2.456 0 0 0-3.525-.092zm7.776 4.7V16.462a.933.933 0 0 0-.928-.936h-5.836v-1.755h6.89a1.631 1.631 0 0 1 1.629 1.629v24.066a1.625 1.625 0 0 1-.134.648z" class="cls-1" data-name="Path 1172"/>
        <path id="Path_1173" d="M77.55 221.736v-1.15a.8.8 0 1 0-1.593 0v1.15a.8.8 0 0 0 1.593 0z" class="cls-1" data-name="Path 1173" transform="translate(-67.891 -193.727)"/>
        <path id="Path_1174" d="M242.588 35.64a.8.8 0 1 0-.872 1.333 3.118 3.118 0 0 0 1.346.548v.187a.8.8 0 1 0 1.593 0v-.272a2.624 2.624 0 0 0 1.753-2.04 2.32 2.32 0 0 0-1.575-2.626l-.178-.064V31.22a1.767 1.767 0 0 1 .284.144.8.8 0 0 0 .92-1.3 3.5 3.5 0 0 0-1.2-.5v-.151a.8.8 0 1 0-1.593 0v.217a2.2 2.2 0 0 0-1.477 1.711 1.976 1.976 0 0 0 .661 1.945 4.489 4.489 0 0 0 .816.49v2.114a2.137 2.137 0 0 1-.478-.25zm2.249-.507a1.036 1.036 0 0 1-.182.431v-1.078a.725.725 0 0 1 .181.647z" class="cls-1" data-name="Path 1174" transform="translate(-215.725 -22.854)"/>
        <path id="Path_1175" d="M221.048 132.736h7.977a.8.8 0 1 0 0-1.593h-7.977a.8.8 0 0 0 0 1.593z" class="cls-1" data-name="Path 1175" transform="translate(-196.862 -114.495)"/>
        <path id="Path_1176" d="M229.025 158.669h-7.977a.8.8 0 1 0 0 1.593h7.977a.8.8 0 1 0 0-1.593z" class="cls-1" data-name="Path 1176" transform="translate(-196.862 -139.098)"/>
        <path id="Path_1177" d="M229.025 186.2h-7.977a.8.8 0 1 0 0 1.593h7.977a.8.8 0 1 0 0-1.593z" class="cls-1" data-name="Path 1177" transform="translate(-196.862 -163.703)"/>
    </g>
</svg>
