<svg xmlns="http://www.w3.org/2000/svg" width="40.123" height="46.283" viewBox="0 0 40.123 46.283">
    <path id="invoice_1_" fill="#fff" d="M51.82 31.049a10.124 10.124 0 1 0 15.427-8.621V9.74a.77.77 0 0 0-.308-.615C57.355-.46 57.975.081 57.648.016 57.533-.007 58.743 0 35.03 0a3.089 3.089 0 0 0-3.085 3.085V43.2a3.089 3.089 0 0 0 3.085 3.085h29.12a3.089 3.089 0 0 0 3.085-3.085.771.771 0 0 0-1.543 0 1.545 1.545 0 0 1-1.543 1.543H35.03a1.545 1.545 0 0 1-1.542-1.543V3.087a1.545 1.545 0 0 1 1.542-1.543h21.695v5.882a3.089 3.089 0 0 0 3.085 3.085h5.89v11.138a10.074 10.074 0 0 0-4.05-.72v-5.5a2.317 2.317 0 0 0-2.314-2.314H39.863a2.317 2.317 0 0 0-2.314 2.314v9.835a2.317 2.317 0 0 0 2.314 2.314h10.125a.771.771 0 0 0 0-1.543h-3.472v-4.918h6.942a.771.771 0 0 0 .771-.771v-5.689h5.11a.772.772 0 0 1 .771.771v5.663a10.141 10.141 0 0 0-8.29 9.958zm7.991-22.08a1.545 1.545 0 0 1-1.543-1.543V2.635L64.6 8.968h-4.789zm-19.948 5.688h5.11v4.917h-5.881v-4.145a.772.772 0 0 1 .771-.772zm5.11 11.378h-5.11a.772.772 0 0 1-.771-.771v-4.147h5.882zm7.714-6.46h-6.171v-4.918h6.171zm17.838 11.474a8.581 8.581 0 1 1-8.581-8.581 8.591 8.591 0 0 1 8.581 8.581zm-7.81 1.928v-.312a.768.768 0 0 0-.541-.736l-.92-.288a2.3 2.3 0 0 1-1.624-2.209v-.312a2.318 2.318 0 0 1 1.543-2.181v-.326a.771.771 0 1 1 1.543 0v.326a2.318 2.318 0 0 1 1.543 2.181.771.771 0 1 1-1.543 0 .771.771 0 1 0-1.543 0v.312a.768.768 0 0 0 .541.736l.92.288a2.3 2.3 0 0 1 1.624 2.209v.312a2.318 2.318 0 0 1-1.832 2.263v.244a.771.771 0 1 1-1.543 0v-.451a2.316 2.316 0 0 1-1.253-2.056.771.771 0 1 1 1.543 0 .771.771 0 0 0 1.543 0zM37.549 31.82a.771.771 0 0 1 .771-.771h7.521a.771.771 0 1 1 0 1.543h-7.52a.771.771 0 0 1-.772-.772zm0 5.785a.771.771 0 0 1 .771-.771h9.45a.771.771 0 0 1 0 1.543h-9.449a.771.771 0 0 1-.772-.772z" data-name="invoice (1)" transform="translate(-31.945)"/>
</svg>
