<svg xmlns="http://www.w3.org/2000/svg" width="54.545" height="63.195" viewBox="0 0 54.545 63.195">
    <defs>
        <style>
            .cls-5{fill:#477b9e}.cls-6{fill:#f6f9f9}.cls-7{fill:#ddeafb}
        </style>
    </defs>
    <g id="list" transform="translate(-35.042)">
        <g id="Group_138" data-name="Group 138" transform="translate(35.042)">
            <g id="Group_135" data-name="Group 135">
                <g id="Group_123" data-name="Group 123">
                    <path id="Path_1672" fill="#fff" d="M72.313 97.786V44.459a2.334 2.334 0 0 0-2.335-2.334h-32.6a2.334 2.334 0 0 0-2.334 2.334v53.327a2.334 2.334 0 0 0 2.334 2.334h32.6a2.334 2.334 0 0 0 2.335-2.334z" data-name="Path 1672" transform="translate(-35.042 -36.926)"/>
                    <path id="Path_1673" fill="#f0f0f0" d="M324.621 42.124h-7.813a2.334 2.334 0 0 1 2.335 2.334v53.327a2.334 2.334 0 0 1-2.335 2.334h7.813a2.334 2.334 0 0 0 2.335-2.334V44.458a2.334 2.334 0 0 0-2.335-2.334z" data-name="Path 1673" transform="translate(-282.03 -36.925)"/>
                    <path id="Path_1674" fill="#f5f5f5" d="M65.955 122.568v-48.7a.834.834 0 0 1 .834-.834h35.625a.834.834 0 0 1 .834.834v48.7a.834.834 0 0 1-.834.834H66.789a.834.834 0 0 1-.834-.834z" data-name="Path 1674" transform="translate(-62.139 -64.023)"/>
                    <path id="Path_1675" fill="#eaeaea" d="M305.861 73.038h-7.813a.834.834 0 0 1 .834.834v48.7a.834.834 0 0 1-.834.834h7.813a.834.834 0 0 0 .834-.834v-48.7a.834.834 0 0 0-.834-.834z" data-name="Path 1675" transform="translate(-265.586 -64.023)"/>
                    <path id="Path_1676" d="M150.8 2.905V1.676A1.676 1.676 0 0 0 149.128 0h-6.566a1.676 1.676 0 0 0-1.676 1.676v1.229a.686.686 0 0 1-.686.686h-2.733a1.646 1.646 0 0 0-1.646 1.646v3.778h20.047V5.237a1.646 1.646 0 0 0-1.646-1.646h-2.733a.686.686 0 0 1-.686-.686z" class="cls-5" data-name="Path 1676" transform="translate(-123.382)"/>
                </g>
                <g id="Group_128" data-name="Group 128" transform="translate(8.669 13.739)">
                    <g id="Group_124" data-name="Group 124">
                        <path id="Path_1677" d="M105.278 120.133v-7.349a1.474 1.474 0 0 1 1.474-1.474h7.348a1.474 1.474 0 0 1 1.474 1.474v7.349a1.474 1.474 0 0 1-1.474 1.474h-7.349a1.474 1.474 0 0 1-1.473-1.474z" class="cls-5" data-name="Path 1677" transform="translate(-105.278 -111.31)"/>
                        <path id="Path_1678" d="M105.278 244.173v-7.349a1.474 1.474 0 0 1 1.474-1.474h7.348a1.474 1.474 0 0 1 1.474 1.474v7.349a1.474 1.474 0 0 1-1.474 1.474h-7.349a1.474 1.474 0 0 1-1.473-1.474z" class="cls-5" data-name="Path 1678" transform="translate(-105.278 -220.04)"/>
                        <path id="Path_1679" d="M105.278 368.212v-7.349a1.474 1.474 0 0 1 1.474-1.474h7.348a1.474 1.474 0 0 1 1.474 1.474v7.349a1.474 1.474 0 0 1-1.474 1.474h-7.349a1.474 1.474 0 0 1-1.473-1.474z" class="cls-5" data-name="Path 1679" transform="translate(-105.278 -328.769)"/>
                    </g>
                    <g id="Group_125" data-name="Group 125" transform="translate(2.159 2.517)">
                        <path id="Path_1680" d="M125.135 136.962a1.33 1.33 0 0 1-1.068-.545l-1.114-1.529a.954.954 0 1 1 1.542-1.123l.646.887 1.888-2.565a.954.954 0 1 1 1.536 1.131l-2.359 3.2a1.33 1.33 0 0 1-1.071.544z" class="cls-6" data-name="Path 1680" transform="translate(-122.767 -131.699)"/>
                    </g>
                    <g id="Group_126" data-name="Group 126" transform="translate(2.159 18.16)">
                        <path id="Path_1681" d="M125.135 263.7a1.33 1.33 0 0 1-1.068-.545l-1.113-1.529a.954.954 0 1 1 1.542-1.123l.646.887 1.888-2.565a.954.954 0 0 1 1.536 1.131l-2.359 3.2a1.329 1.329 0 0 1-1.072.544z" class="cls-6" data-name="Path 1681" transform="translate(-122.767 -258.438)"/>
                    </g>
                    <g id="Group_127" data-name="Group 127" transform="translate(2.159 33.137)">
                        <path id="Path_1682" d="M125.135 385.043a1.33 1.33 0 0 1-1.068-.545l-1.114-1.529a.954.954 0 1 1 1.542-1.123l.646.887 1.888-2.565a.954.954 0 0 1 1.536 1.131l-2.359 3.2a1.33 1.33 0 0 1-1.071.544z" class="cls-6" data-name="Path 1682" transform="translate(-122.767 -379.78)"/>
                    </g>
                </g>
                <g id="Group_131" data-name="Group 131" transform="translate(22.761 15.941)">
                    <g id="Group_129" data-name="Group 129">
                        <path id="Path_1683" d="M232.194 131.06H220.4a.954.954 0 1 1 0-1.907h11.789a.954.954 0 0 1 0 1.907z" class="cls-7" data-name="Path 1683" transform="translate(-219.451 -129.153)"/>
                    </g>
                    <g id="Group_130" data-name="Group 130" transform="translate(0 3.985)">
                        <path id="Path_1684" d="M226.3 163.347h-5.895a.954.954 0 1 1 0-1.907h5.895a.954.954 0 1 1 0 1.907z" class="cls-7" data-name="Path 1684" transform="translate(-219.452 -161.44)"/>
                    </g>
                </g>
                <g id="Group_134" data-name="Group 134" transform="translate(22.761 31.251)">
                    <g id="Group_132" data-name="Group 132">
                        <path id="Path_1685" d="M228.316 255.1h-7.91a.954.954 0 1 1 0-1.907h7.91a.954.954 0 0 1 0 1.907z" class="cls-7" data-name="Path 1685" transform="translate(-219.452 -253.193)"/>
                    </g>
                    <g id="Group_133" data-name="Group 133" transform="translate(0 3.985)">
                        <path id="Path_1686" d="M226.3 287.387h-5.895a.954.954 0 1 1 0-1.907h5.895a.954.954 0 1 1 0 1.907z" class="cls-7" data-name="Path 1686" transform="translate(-219.452 -285.48)"/>
                    </g>
                </g>
            </g>
            <g id="Group_137" data-name="Group 137" transform="translate(24.604 14.817)">
                <g id="Group_136" data-name="Group 136" transform="translate(1.566)">
                    <path id="Path_1687" d="M271.733 175.694l-.936-1.234-3.5-2.219-1.347-.212-17.94 28.348a7.384 7.384 0 0 0-.94 2.22 5.779 5.779 0 0 1 5.121 3.243 7.383 7.383 0 0 0 1.605-1.8z" class="cls-5" data-name="Path 1687" transform="translate(-247.067 -165.613)"/>
                    <path id="Path_1688" d="M422.037 121.395l-1.514-.959a2.529 2.529 0 0 0-3.49.784l-1.388 2.194.443.893 4.213 2.668 1.131.1 1.389-2.2a2.529 2.529 0 0 0-.784-3.48z" class="cls-5" data-name="Path 1688" transform="translate(-394.838 -120.044)"/>
                </g>
                <path id="Path_1689" fill="#c9e2e7" d="M0 0h3.6v6.849H0z" data-name="Path 1689" transform="rotate(-57.66 16.042 -15.371)"/>
                <path id="Path_1690" d="M241.066 422.934l-5.108 4.116a.969.969 0 0 1-1.551-.982l1.537-6.378a5.778 5.778 0 0 1 5.122 3.244z" class="cls-5" data-name="Path 1690" transform="translate(-234.378 -382.706)"/>
                <path id="Path_1691" fill="#528eb7" d="M266.262 213.5l18.805-29.7-1.611-1.02-18.805 29.7a5.78 5.78 0 0 1 1.611 1.02z" data-name="Path 1691" transform="translate(-260.914 -175.04)"/>
            </g>
        </g>
    </g>
</svg>
