<svg xmlns="http://www.w3.org/2000/svg" width="59.913" height="57.308" viewBox="0 0 59.913 57.308">
    <defs>
        <style>
            .cls-1{fill:#150b00}
        </style>
    </defs>
    <g id="login" transform="translate(0 -.332)">
        <path id="Path_1476" d="M39.724 222.908H1.954a1.954 1.954 0 0 1 0-3.907h37.77a1.954 1.954 0 0 1 0 3.907zm0 0" class="cls-1" data-name="Path 1476" transform="translate(0 -191.968)"/>
        <path id="Path_1477" d="M225.957 158.38a1.955 1.955 0 0 1-1.381-3.337l9.039-9.043-9.039-9.039a1.954 1.954 0 0 1 2.764-2.764l10.419 10.42a1.954 1.954 0 0 1 0 2.764L227.34 157.8a1.939 1.939 0 0 1-1.383.58zm0 0" class="cls-1" data-name="Path 1477" transform="translate(-196.652 -117.021)"/>
        <path id="Path_1478" d="M63.277 57.64a28.506 28.506 0 0 1-26.669-18.172 1.953 1.953 0 1 1 3.636-1.427 24.747 24.747 0 1 0 0-18.11 1.953 1.953 0 1 1-3.636-1.431 28.654 28.654 0 1 1 26.669 39.14zm0 0" class="cls-1" data-name="Path 1478" transform="translate(-32.018)"/>
    </g>
</svg>
