<svg xmlns="http://www.w3.org/2000/svg" width="58.548" height="56.625" viewBox="0 0 58.548 56.625">
    <defs>
        <style>
            .cls-11,.cls-14,.cls-3,.cls-4,.cls-6,.cls-7{fill-rule:evenodd}.cls-3{fill:#fff}.cls-4{fill:#ecf4ff}.cls-7{fill:#477b9e}.cls-6{fill:#ffcbbe}.cls-11{fill:#f7beaf}.cls-14{fill:#ddeafb}
        </style>
    </defs>
    <g id="meeting_1_" data-name="meeting (1)" transform="translate(0 -8.408)">
        <path id="Path_1648" fill="#f8f8f8" fill-rule="evenodd" d="M186.767 326.427h7.617c2.486.745 4.639 2.2 4.639 3.877v9.948h-16.895V330.3c0-1.672 2.152-3.128 4.639-3.873z" data-name="Path 1648" transform="translate(-161.301 -281.653)"/>
        <path id="Path_1649" fill="#efefef" fill-rule="evenodd" d="M268.945 330.3v9.948h2.855V330.3c0-1.676-2.152-3.131-4.639-3.877h-2.859c2.49.749 4.643 2.205 4.643 3.877z" data-name="Path 1649" transform="translate(-234.082 -281.653)"/>
        <path id="Path_1650" d="M89.406 437.855h4.5l3.682-.512 3.647.512h14.444l3.592-.707 3.737.707h4.5v6.891h-38.1z" class="cls-3" data-name="Path 1650" transform="translate(-79.182 -379.713)"/>
        <path id="Path_1651" d="M0 353.667v-14.658a3.293 3.293 0 0 1 3.28-3.284H8.7c.094 0 .185.006.279.013a2.516 2.516 0 0 1 2.25.985l4.405 5.834a1.007 1.007 0 0 0 .9.451h5.52a2.511 2.511 0 1 1 0 5.021h-7.331a2.5 2.5 0 0 1-2-1l-.745-.989v8.878H1.255A1.552 1.552 0 0 1 0 353.667z" class="cls-3" data-name="Path 1651" transform="translate(0 -289.888)"/>
        <path id="Path_1652" d="M321.752 353.667v-14.658a3.291 3.291 0 0 0-3.28-3.284h-5.413c-.094 0-.188.006-.279.013a2.518 2.518 0 0 0-2.253.985l-4.405 5.834a1.013 1.013 0 0 1-.9.451H299.7a2.511 2.511 0 1 0 0 5.021h7.329a2.5 2.5 0 0 0 2-1l.749-.989v8.878H320.5a1.551 1.551 0 0 0 1.252-1.251z" class="cls-3" data-name="Path 1652" transform="translate(-263.204 -289.888)"/>
        <path id="Path_1653" d="M201.884 84.8h14.386l3.64 3.64c.288.289.619.12.619-.259V84.8a3.381 3.381 0 0 0 3.371-3.371v-8.507a3.381 3.381 0 0 0-3.371-3.371h-18.645a3.381 3.381 0 0 0-3.371 3.371v8.509a3.381 3.381 0 0 0 3.371 3.369z" class="cls-4" data-name="Path 1653" transform="translate(-175.813 -54.151)"/>
        <path id="Path_1654" d="M12.988 27.251h15.135a4.486 4.486 0 0 0 4.477-4.474v-9.9a4.486 4.486 0 0 0-4.473-4.473H8.725a4.486 4.486 0 0 0-4.473 4.473v9.9a4.486 4.486 0 0 0 4.473 4.473v3.384a.349.349 0 0 0 .622.256z" class="cls-4" data-name="Path 1654" transform="translate(-3.766)"/>
        <path id="Path_1655" fill="#477b9e" d="M50.039 44.368a.859.859 0 0 1 0-1.718h16.353a.859.859 0 0 1 0 1.718zm0 9.293a.857.857 0 0 1 0-1.715h8.178a.857.857 0 1 1 0 1.715zm0-4.648a.857.857 0 0 1 0-1.715h16.353a.857.857 0 1 1 0 1.715z" data-name="Path 1655" transform="translate(-43.559 -30.326)"/>
        <g id="Group_122" data-name="Group 122" transform="translate(.71 8.632)">
            <path id="Path_1656" d="M223.839 243.948a4.768 4.768 0 0 1-9.536 0v-5.108a2.677 2.677 0 0 1 2.671-2.668h6.156a.638.638 0 0 1 .71.71z" class="cls-6" data-name="Path 1656" transform="translate(-190.507 -210.35)"/>
            <path id="Path_1657" d="M214.3 238.84v1.54h9.536v-3.5a.638.638 0 0 0-.71-.71h-6.156a2.677 2.677 0 0 0-2.67 2.67z" class="cls-7" data-name="Path 1657" transform="translate(-190.507 -210.35)"/>
            <path id="Path_1658" d="M10.686 243.948a4.767 4.767 0 1 0 9.533 0v-5.108a2.674 2.674 0 0 0-2.668-2.668h-4.2a2.674 2.674 0 0 0-2.668 2.668z" class="cls-6" data-name="Path 1658" transform="translate(-10.174 -210.35)"/>
            <path id="Path_1659" fill="#d8a595" fill-rule="evenodd" d="M427.482 243.948a4.768 4.768 0 0 1-9.536 0v-5.108a2.676 2.676 0 0 1 2.668-2.668h4.2a2.676 2.676 0 0 1 2.668 2.668z" data-name="Path 1659" transform="translate(-370.863 -210.35)"/>
            <path id="Path_1660" fill="#d09080" fill-rule="evenodd" d="M453.341 264.61a4.765 4.765 0 0 1-6.2 4.548 4.8 4.8 0 0 0 3.316-4.084 6.342 6.342 0 0 0 2.875-.3l.006-5.274v5.109z" data-name="Path 1660" transform="translate(-396.721 -231.012)"/>
            <path id="Path_1661" d="M20.22 238.839v1.861a3.561 3.561 0 0 1-3.089-.279c-.5-.285-.59-.285-.648.172-.175 1.342-.778 5.037-5.793 3.523v-5.274a2.672 2.672 0 0 1 2.668-2.668h4.2a2.674 2.674 0 0 1 2.662 2.665z" class="cls-7" data-name="Path 1661" transform="translate(-10.175 -210.349)"/>
            <path id="Path_1662" d="M417.945 238.839v1.861a3.569 3.569 0 0 0 3.092-.279c.5-.285.587-.285.645.172.175 1.342.781 5.037 5.793 3.523l.006-5.274a2.676 2.676 0 0 0-2.668-2.668h-4.2a2.676 2.676 0 0 0-2.668 2.665z" class="cls-7" data-name="Path 1662" transform="translate(-370.862 -210.349)"/>
            <path id="Path_1663" fill="#365e7d" fill-rule="evenodd" d="M455.678 238.84v5.109a4.454 4.454 0 0 1-.023.464 6.343 6.343 0 0 0 2.875-.3l.006-5.274a2.675 2.675 0 0 0-2.483-2.661 1.742 1.742 0 0 0-.185-.007h-2.858a2.676 2.676 0 0 1 2.668 2.669z" data-name="Path 1663" transform="translate(-401.918 -210.35)"/>
            <path id="Path_1664" d="M43.195 277.791a4.788 4.788 0 0 1-3.339 4.548 4.765 4.765 0 0 0 6.2-4.548v-3.251a3.544 3.544 0 0 1-2.859-.155z" class="cls-11" data-name="Path 1664" transform="translate(-36.008 -244.193)"/>
            <path id="Path_1666" d="M246.838 276.535a4.788 4.788 0 0 1-3.339 4.548 4.765 4.765 0 0 0 6.2-4.548v-3.569h-2.859z" class="cls-11" data-name="Path 1666" transform="translate(-216.364 -242.937)"/>
            <path id="Path_1668" fill="#e8e8e8" fill-rule="evenodd" d="M80.087 396.238a.191.191 0 0 0-.347.117v12.087h2.86v-8.878z" data-name="Path 1668" transform="translate(-71.331 -352.04)"/>
            <path id="Path_1669" fill="#eff0ef" fill-rule="evenodd" d="M477.308 339.184v14.658a1.548 1.548 0 0 1-1.251 1.254h2.856a1.552 1.552 0 0 0 1.255-1.254v-14.658a3.294 3.294 0 0 0-2.9-3.261 4.753 4.753 0 0 1-1.154.726 3.279 3.279 0 0 1 1.194 2.535z" data-name="Path 1669" transform="translate(-422.329 -298.695)"/>
            <path id="Path_1670" d="M198.8 82.188a3.388 3.388 0 0 0 3.339 2.891h14.386l3.64 3.64c.288.289.619.12.619-.259v-3.381a3.381 3.381 0 0 0 3.371-3.371V73.2a3.379 3.379 0 0 0-2.891-3.335 3.3 3.3 0 0 1 .032.477v8.509a3.378 3.378 0 0 1-3.368 3.371h-18.652a3.934 3.934 0 0 1-.476-.034z" class="cls-14" data-name="Path 1670" transform="translate(-176.773 -63.06)"/>
            <path id="Path_1671" d="M31.469 21.65A4.476 4.476 0 0 1 27 26.126H7.6a4.48 4.48 0 0 1-1.392-.226 4.489 4.489 0 0 0 4.25 3.079v3.384a.349.349 0 0 0 .622.256l3.64-3.64h15.135a4.486 4.486 0 0 0 4.473-4.473v-9.9a4.488 4.488 0 0 0-3.083-4.25 4.4 4.4 0 0 1 .224 1.391v9.9z" class="cls-14" data-name="Path 1671" transform="translate(-6.208 -10.363)"/>
        </g>
    </g>
</svg>
