<svg xmlns="http://www.w3.org/2000/svg" width="131.122" height="126.815" viewBox="0 0 131.122 126.815">
    <defs>
        <style>
            .cls-1{fill:#477b9e}.cls-1,.cls-12,.cls-2,.cls-3,.cls-4,.cls-6,.cls-8,.cls-9{fill-rule:evenodd}.cls-2{fill:#d09080}.cls-3{fill:#00afde}.cls-4{fill:#ecf4ff}.cls-6{fill:#ffcbbe}.cls-8{fill:#365e7d}.cls-9{fill:#f7beaf}.cls-12{fill:#ddeafb}
        </style>
    </defs>
    <g id="meeting" transform="translate(0 -8.408)">
        <path id="Path_1019" d="M192.517 326.427h17.059c5.568 1.67 10.389 4.929 10.389 8.682v22.279h-37.837v-22.279c0-3.753 4.82-7.009 10.389-8.682z" class="cls-1" data-name="Path 1019" transform="translate(-135.486 -236.575)"/>
        <path id="Path_1020" d="M274.694 335.109v22.279h6.4v-22.279c0-3.753-4.82-7.013-10.389-8.682h-6.4c5.569 1.673 10.389 4.929 10.389 8.682z" class="cls-1" data-name="Path 1020" transform="translate(-196.618 -236.575)"/>
        <path id="Path_1021" d="M89.406 438.73h10.076l8.247-1.147 8.167 1.147h32.349l8.044-1.582 8.37 1.582h10.084v15.434H89.406z" class="cls-2" data-name="Path 1021" transform="translate(-66.509 -318.941)"/>
        <path id="Path_1022" d="M0 375.906v-32.827a7.376 7.376 0 0 1 7.347-7.354h12.13c.211 0 .414.015.624.029a5.633 5.633 0 0 1 5.038 2.207l9.866 13.067a2.255 2.255 0 0 0 2.018 1.009h12.364a5.622 5.622 0 1 1 0 11.245H32.973a5.609 5.609 0 0 1-4.479-2.236l-1.669-2.214v19.884H2.81a3.475 3.475 0 0 1-2.81-2.81z" class="cls-3" data-name="Path 1022" transform="translate(0 -243.492)"/>
        <path id="Path_1023" d="M352.2 375.906v-32.827a7.37 7.37 0 0 0-7.346-7.354h-12.123c-.211 0-.421.015-.624.029a5.639 5.639 0 0 0-5.045 2.207l-9.862 13.067a2.27 2.27 0 0 1-2.018 1.009h-12.368a5.622 5.622 0 1 0 0 11.245h16.414a5.608 5.608 0 0 0 4.479-2.236l1.677-2.214v19.884h24.007a3.475 3.475 0 0 0 2.809-2.81z" class="cls-3" data-name="Path 1023" transform="translate(-221.079 -243.492)"/>
        <path id="Path_1024" d="M206.063 103.707h32.218l8.153 8.152c.646.646 1.387.269 1.387-.581v-7.572a7.572 7.572 0 0 0 7.55-7.549V77.1a7.572 7.572 0 0 0-7.55-7.55h-41.758a7.572 7.572 0 0 0-7.55 7.55v19.057a7.572 7.572 0 0 0 7.55 7.549z" class="cls-4" data-name="Path 1024" transform="translate(-147.674 -45.484)"/>
        <path id="Path_1025" d="M23.816 50.607h33.895a10.047 10.047 0 0 0 10.018-10.018V18.426A10.047 10.047 0 0 0 57.711 8.408H14.27A10.047 10.047 0 0 0 4.252 18.426v22.163A10.047 10.047 0 0 0 14.27 50.607v7.579a.781.781 0 0 0 1.394.573z" class="cls-4" data-name="Path 1025" transform="translate(-3.163)"/>
        <path id="Path_1026" fill="#477b9e" d="M51.1 46.5a1.924 1.924 0 0 1 0-3.848h36.624a1.924 1.924 0 1 1 0 3.848zm0 20.813a1.92 1.92 0 0 1 0-3.84h18.315a1.92 1.92 0 1 1 0 3.84zm0-10.41a1.92 1.92 0 0 1 0-3.84h36.624a1.92 1.92 0 1 1 0 3.84z" data-name="Path 1026" transform="translate(-36.587 -25.473)"/>
        <g id="Group_44" data-name="Group 44" transform="translate(1.59 8.909)">
            <path id="Path_1027" d="M235.66 253.587a10.678 10.678 0 1 1-21.357 0v-11.441a6 6 0 0 1 5.982-5.974h13.785a1.428 1.428 0 0 1 1.59 1.59z" class="cls-6" data-name="Path 1027" transform="translate(-161.01 -178.343)"/>
            <path id="Path_1028" d="M214.3 242.146v3.448h21.36v-7.833a1.428 1.428 0 0 0-1.59-1.59h-13.785a6 6 0 0 0-5.985 5.975z" class="cls-1" data-name="Path 1028" transform="translate(-161.01 -178.343)"/>
            <path id="Path_1029" d="M10.686 253.587a10.675 10.675 0 1 0 21.35 0v-11.441a5.989 5.989 0 0 0-5.974-5.974h-9.4a5.989 5.989 0 0 0-5.974 5.974z" class="cls-6" data-name="Path 1029" transform="translate(-9.539 -178.343)"/>
            <path id="Path_1030" fill="#d8a595" fill-rule="evenodd" d="M439.3 253.587a10.679 10.679 0 0 1-21.357 0v-11.441a5.994 5.994 0 0 1 5.974-5.974h9.408a5.994 5.994 0 0 1 5.974 5.974z" data-name="Path 1030" transform="translate(-312.501 -178.343)"/>
            <path id="Path_1031" d="M461.023 270.942a10.672 10.672 0 0 1-13.88 10.185 10.744 10.744 0 0 0 7.427-9.147 14.206 14.206 0 0 0 6.439-.668l.015-11.811v11.441z" class="cls-2" data-name="Path 1031" transform="translate(-334.221 -195.697)"/>
            <path id="Path_1032" d="M32.037 242.146v4.16a7.975 7.975 0 0 1-6.918-.624c-1.126-.639-1.321-.639-1.452.385-.392 3.005-1.742 11.281-12.973 7.891l-.007-11.811a5.984 5.984 0 0 1 5.974-5.974h9.4a5.989 5.989 0 0 1 5.974 5.975z" class="cls-1" data-name="Path 1032" transform="translate(-9.54 -178.342)"/>
            <path id="Path_1033" d="M417.945 242.146v4.16a7.992 7.992 0 0 0 6.926-.624c1.118-.639 1.314-.639 1.445.385.392 3.005 1.749 11.281 12.973 7.891l.015-11.811a5.994 5.994 0 0 0-5.974-5.974h-9.41a5.994 5.994 0 0 0-5.975 5.975z" class="cls-1" data-name="Path 1033" transform="translate(-312.5 -178.342)"/>
            <path id="Path_1034" d="M458.985 242.147v11.441a9.9 9.9 0 0 1-.051 1.038 14.206 14.206 0 0 0 6.439-.668l.015-11.811a5.991 5.991 0 0 0-5.561-5.96 3.919 3.919 0 0 0-.414-.015h-6.4a5.994 5.994 0 0 1 5.972 5.975z" class="cls-8" data-name="Path 1034" transform="translate(-338.585 -178.343)"/>
            <path id="Path_1035" d="M47.333 282.013a10.722 10.722 0 0 1-7.477 10.187 10.672 10.672 0 0 0 13.88-10.185v-7.281a7.937 7.937 0 0 1-6.4-.348z" class="cls-9" data-name="Path 1035" transform="translate(-31.239 -206.769)"/>
            <path id="Path_1036" d="M45.725 236.172a5.989 5.989 0 0 1 5.974 5.975v3.811a7.936 7.936 0 0 0 6.4.348v-4.16a5.989 5.989 0 0 0-5.974-5.974z" class="cls-8" data-name="Path 1036" transform="translate(-35.605 -178.343)"/>
            <path id="Path_1037" d="M250.976 280.959a10.723 10.723 0 0 1-7.477 10.185 10.672 10.672 0 0 0 13.88-10.185v-7.993h-6.4z" class="cls-9" data-name="Path 1037" transform="translate(-182.729 -205.714)"/>
            <path id="Path_1039" fill="#0299c1" fill-rule="evenodd" d="M80.517 396.339a.427.427 0 0 0-.777.261v27.07h6.4v-19.883z" data-name="Path 1039" transform="translate(-60.909 -297.356)"/>
            <path id="Path_1040" fill="#0494ba" fill-rule="evenodd" d="M478.859 343.226v32.827a3.468 3.468 0 0 1-2.8 2.809h6.4a3.476 3.476 0 0 0 2.809-2.809v-32.827a7.377 7.377 0 0 0-6.5-7.3 10.64 10.64 0 0 1-2.585 1.626 7.343 7.343 0 0 1 2.676 5.674z" data-name="Path 1040" transform="translate(-355.73 -252.548)"/>
            <path id="Path_1041" d="M198.8 97.464a7.588 7.588 0 0 0 7.478 6.475h32.218l8.153 8.152c.646.646 1.387.269 1.387-.581v-7.572a7.572 7.572 0 0 0 7.55-7.549V77.334a7.568 7.568 0 0 0-6.475-7.47 7.4 7.4 0 0 1 .072 1.067v19.056a7.566 7.566 0 0 1-7.543 7.55h-41.77a8.807 8.807 0 0 1-1.074-.072z" class="cls-12" data-name="Path 1041" transform="translate(-149.475 -54.626)"/>
            <path id="Path_1042" d="M62.782 35.641a10.025 10.025 0 0 1-10.019 10.025H9.322a10.033 10.033 0 0 1-3.114-.5 10.054 10.054 0 0 0 9.517 6.9v7.574a.781.781 0 0 0 1.394.573l8.152-8.152h33.895a10.047 10.047 0 0 0 10.018-10.018V19.88a10.051 10.051 0 0 0-6.9-9.517 9.861 9.861 0 0 1 .5 3.114v22.164z" class="cls-12" data-name="Path 1042" transform="translate(-6.208 -10.363)"/>
            <path id="Path_1043" fill="#be694f" fill-rule="evenodd" d="M382.285 443.327h6.4v15.434h-6.4z" data-name="Path 1043" transform="translate(-285.973 -332.446)"/>
        </g>
    </g>
</svg>
