<svg xmlns="http://www.w3.org/2000/svg" width="67.669" height="69.011" viewBox="0 0 67.669 69.011">
    <defs>
        <style>
            .cls-1{fill:#404242}.cls-2{fill:#00afde}
        </style>
    </defs>
    <g id="migrating" transform="translate(-3.125 -3.997)">
        <path id="Path_1483" d="M49.206 38.137l1.452-.357v-2.9l-1.452-.357a1.2 1.2 0 0 1-.809-.7 1.212 1.212 0 0 1 .071-1.071l.773-1.285-2.046-2.046-1.285.761a1.177 1.177 0 0 1-1.071.083 1.2 1.2 0 0 1-.7-.809L43.78 28h-2.9l-.357 1.452a1.2 1.2 0 0 1-.7.809 1.177 1.177 0 0 1-1.071-.083l-1.285-.761-2.046 2.046.773 1.285a1.212 1.212 0 0 1 .071 1.071 1.2 1.2 0 0 1-.809.7L34 34.877v2.9l1.452.357a1.2 1.2 0 0 1 .809.7 1.212 1.212 0 0 1-.071 1.071l-.773 1.285 2.046 2.046 1.285-.773a1.212 1.212 0 0 1 1.071-.071 1.2 1.2 0 0 1 .7.809l.357 1.452h2.9l.357-1.452a1.2 1.2 0 0 1 .7-.809 1.212 1.212 0 0 1 1.071.071l1.285.773 2.046-2.046-.773-1.285a1.212 1.212 0 0 1-.071-1.071 1.2 1.2 0 0 1 .815-.697zm-6.877 2.951a4.759 4.759 0 1 1 4.759-4.759 4.759 4.759 0 0 1-4.759 4.759z" class="cls-1" data-name="Path 1483" transform="translate(5.86 4.555)"/>
        <circle id="Ellipse_93" cx="2.38" cy="2.38" r="2.38" class="cls-1" data-name="Ellipse 93" transform="translate(45.809 38.504)"/>
        <path id="Path_1484" d="M63.489 28.986h-3.3a1.19 1.19 0 0 1-.94-1.927 14.061 14.061 0 0 0 3.051-8.781A14.268 14.268 0 0 0 33.9 16.3a1.187 1.187 0 0 1-2.142.524 10.708 10.708 0 0 0-19.429 6.211 10.407 10.407 0 0 0 .9 4.283 1.23 1.23 0 0 1-.1 1.13 1.205 1.205 0 0 1-1 .535h-1a7.127 7.127 0 0 0-5.7 11.422 3.555 3.555 0 0 1 2.13-.714h29.755V38.5a1.19 1.19 0 0 1 .9-1.154l.8-.2-.428-.7a1.19 1.19 0 0 1 .178-1.452l3.367-3.367a1.19 1.19 0 0 1 1.452-.178l.7.428.2-.8a1.19 1.19 0 0 1 1.154-.9H50.4a1.19 1.19 0 0 1 1.154.9l.2.8.7-.428a1.19 1.19 0 0 1 1.452.178l3.367 3.367a1.19 1.19 0 0 1 .178 1.452l-.428.7.8.2a1.19 1.19 0 0 1 .9 1.154v4.759h4.759a7.139 7.139 0 1 0 0-14.277zm-40.453-11.9a5.956 5.956 0 0 0-5.949 5.949h-2.38a8.338 8.338 0 0 1 8.329-8.329zM27.8 37.315h-2.38v-2.38h2.38zM49.212 27.8h-2.38v-3.573H27.8v8.329h-2.38v-9.519a1.19 1.19 0 0 1 1.19-1.19h21.412a1.19 1.19 0 0 1 1.19 1.19zm8.329-9.518a9.529 9.529 0 0 0-9.519-9.522V6.38a11.911 11.911 0 0 1 11.9 11.9z" class="cls-2" data-name="Path 1484" transform="translate(.166)"/>
        <path id="Path_1485" d="M34.8 45.949A5.956 5.956 0 0 0 28.847 40a5.761 5.761 0 0 0-4.93 2.995 1.19 1.19 0 0 1-1.7.357 5.339 5.339 0 0 0-2.886-.972 4.759 4.759 0 0 0-4.759 4.759v1.19a1.19 1.19 0 0 1-1.19 1.19 2.38 2.38 0 1 0 0 4.759h23.8a2.38 2.38 0 0 0 0-4.759H35.57a1.19 1.19 0 0 1-1.122-1.586 5.918 5.918 0 0 0 .352-1.984z" class="cls-2" data-name="Path 1485" transform="translate(1.495 6.833)"/>
        <path id="Path_1486" d="M7.19 36a1.176 1.176 0 0 0-1.059.654A1.266 1.266 0 0 0 6 37.19V59.8h16.657a1.19 1.19 0 0 1 1.19 1.19h4.759A1.19 1.19 0 0 1 29.8 59.8h16.653V45.518h-1.19a1.19 1.19 0 0 1-1.154-.9l-.2-.8-.7.428a1.19 1.19 0 0 1-1.452-.178L38.386 40.7a1.19 1.19 0 0 1-.178-1.452l.428-.7-.8-.2a1.19 1.19 0 0 1-.9-1.154V36zm30.934 10.708a7.985 7.985 0 0 1-.088 1.19h.088a4.759 4.759 0 0 1 0 9.518h-23.8a4.759 4.759 0 0 1-1.19-9.368V47.9a7.146 7.146 0 0 1 7.139-7.139 7.488 7.488 0 0 1 3.212.795A7.92 7.92 0 0 1 29.8 38.38a8.338 8.338 0 0 1 8.329 8.329z" class="cls-2" data-name="Path 1486" transform="translate(.546 6.074)"/>
        <path id="Path_1487" d="M23.2 58v1.19h7.139V58h20.08l-.541 3.046a2.38 2.38 0 0 1-2.284 1.713H5.951a2.38 2.38 0 0 1-2.284-1.713L3.125 58z" class="cls-1" data-name="Path 1487" transform="translate(0 10.249)"/>
        <path id="Rectangle_3462" d="M0 0H2.38V2.38H0z" class="cls-2" data-name="Rectangle 3462" transform="translate(51.758 58.731)"/>
        <path id="Path_1488" d="M53.949 54.088H48v-2.38h4.759V41h2.38v11.9a1.19 1.19 0 0 1-1.19 1.188z" class="cls-2" data-name="Path 1488" transform="translate(8.517 7.023)"/>
    </g>
</svg>
