<svg xmlns="http://www.w3.org/2000/svg" id="mobile-application" width="42.285" height="73.998" viewBox="0 0 42.285 73.998">
    <defs>
        <style>
            .cls-1{fill:#00afde}.cls-2{fill:#404242}
        </style>
    </defs>
    <path id="Path_1500" d="M114.007 315.228a1.326 1.326 0 0 1 .59.132l2.178 1.09-2.769-6.915-2.769 6.922 2.178-1.09a1.319 1.319 0 0 1 .592-.139zm0 0" class="cls-1" data-name="Path 1500" transform="translate(-92.865 -258.408)"/>
    <path id="Path_1501" d="M32 176h2.643v39.642H32zm0 0" class="cls-2" data-name="Path 1501" transform="translate(-26.714 -147.001)"/>
    <path id="Path_1502" d="M208 184h2.643v38.32H208zm0 0" class="cls-2" data-name="Path 1502" transform="translate(-173.644 -154.001)"/>
    <path id="Path_1503" d="M32 93.214h3.964a1.321 1.321 0 0 1 1.321 1.321V135.5h21.143V95.857a1.321 1.321 0 0 1 1.321-1.321h3.964V80H32zm17.178 39.642h-2.643v-2.643h2.643zm-2.643-46.249a1.321 1.321 0 0 1 1.321-1.321h8.7l-1.709-1.709 1.869-1.869 3.964 3.964a1.322 1.322 0 0 1 0 1.869l-3.964 3.964-1.869-1.869 1.709-1.709h-7.378v22.464h-2.643zm-5.192 40.473l5.286-13.214a1.322 1.322 0 0 1 2.456 0l5.285 13.214a1.321 1.321 0 0 1-1.818 1.679l-4.7-2.354-4.7 2.354a1.321 1.321 0 0 1-1.818-1.673zm0 0" class="cls-1" data-name="Path 1503" transform="translate(-26.714 -66.786)"/>
    <path id="Path_1504" d="M58.041 34.256a1.322 1.322 0 0 1-.934.387h-18.5a1.322 1.322 0 0 1-.934-.387L35.417 32H32v5.286h31.713V32H60.3zm0 0" class="cls-2" data-name="Path 1504" transform="translate(-26.714 -26.714)"/>
    <path id="Path_1505" d="M40.963 0H1.321A1.321 1.321 0 0 0 0 1.321v71.356A1.321 1.321 0 0 0 1.321 74h39.642a1.321 1.321 0 0 0 1.321-1.321V1.321A1.321 1.321 0 0 0 40.963 0zm-1.321 70.034a1.321 1.321 0 0 1-1.321 1.321H3.964a1.321 1.321 0 0 1-1.321-1.321V3.964a1.321 1.321 0 0 1 1.321-1.321H9.25a1.322 1.322 0 0 1 .934.387l2.256 2.256h17.405L32.1 3.03a1.322 1.322 0 0 1 .934-.387h5.286a1.321 1.321 0 0 1 1.321 1.321zm0 0" class="cls-1" data-name="Path 1505"/>
</svg>
