<svg xmlns="http://www.w3.org/2000/svg" width="122.506" height="80.385" viewBox="0 0 122.506 80.385">
    <defs>
        <style>
            .cls-2{fill:#333}.cls-3{fill:#66a060}
        </style>
    </defs>
    <g id="nodejs" transform="translate(0 -32.675)">
        <path id="Path_1179" fill="#3b8739" d="M155.515 200.626v-15.937l-13.8-7.968-13.8 7.968v15.937l13.8 7.968z" data-name="Path 1179" transform="translate(-97.285 -125.576)"/>
        <path id="Path_1180" d="M426.367 198.209l8.994 5.194-8.994 5.194-13.8-7.968v-15.938l13.8-7.968 8.364 4.831a60.947 60.947 0 0 1 1.559 10.928l-5.114 2.952v-5.552l-4.809-2.775-4.809 2.775v5.552z" class="cls-2" data-name="Path 1180" transform="translate(-313.784 -125.578)"/>
        <path id="Path_1181" d="M464.371 235v-3.093l-2.679-1.547-2.679 1.547V235l2.679 1.547z" class="cls-3" data-name="Path 1181" transform="translate(-349.109 -166.372)"/>
        <path id="Path_1182" d="M24.108 184.692v21.015l-9.2-5.251v-10.773l-4.6-2.655-4.6 2.654v10.773l-5.223 2.983a61.855 61.855 0 0 1 1.108-21.684l8.714-5.031z" class="cls-2" data-name="Path 1182" transform="translate(0 -125.578)"/>
        <path id="Rectangle_188" fill="#6da75d" d="M0 0H27.602V15.936H0z" data-name="Rectangle 188" transform="rotate(60 -22.078 64.049)"/>
        <path id="Path_1183" fill="#55a344" d="M127.912 225.937l4.739-7.728-4.739-8.209z" data-name="Path 1183" transform="translate(-97.285 -150.887)"/>
        <path id="Path_1184" fill="#639d57" d="M194.754 192.657l4.6-7.968-13.8-7.968z" data-name="Path 1184" transform="translate(-141.125 -125.576)"/>
        <path id="Path_1185" d="M288.013 99.579v21.143l-4.626-2.672-13.8 7.968v15.937l13.8 7.968 13.8-7.968V104.49zm-.025 37.062l-4.6 2.657-4.6-2.657v-5.311l4.6-2.657 4.6 2.657z" class="cls-2" data-name="Path 1185" transform="translate(-205.036 -66.905)"/>
        <g id="Group_87" data-name="Group 87" transform="translate(46.623 80.327)">
            <path id="Path_1186" d="M252.034 344.584a2.685 2.685 0 0 0-2.763-2.329c-2.492 0-4.2.325-4.2 1.706s4.849 1.382 6.691 1.923 3.467 1.95 2.654 4.442-3.3 2.763-7.151 2.763a4.469 4.469 0 0 1-4.713-4.442h2.167s-.271 1.95 2.275 2.275 4.981.508 5.309-1.462c.433-2.6-8.234-1.3-8.993-3.846-.641-2.151-.271-4.984 4.063-5.417s6.718 1.48 6.718 4.334z" class="cls-3" data-name="Path 1186" transform="translate(-231.101 -330.19)"/>
            <path id="Path_1187" d="M194.722 323.149l4.791 2.766a3.611 3.611 0 0 0 5.416-3.127v-13.766h-1.953v13.223a1.972 1.972 0 0 1-2.958 1.707l-3.344-1.93V307.91l12.221-7.055 12.221 7.055v14.112l-12.216 7.056-3.521-2.033-2.3.927 5.819 3.36 14.174-8.184v-16.365L208.9 298.6l-14.174 8.184v16.366z" class="cls-3" data-name="Path 1187" transform="translate(-194.722 -298.6)"/>
        </g>
    </g>
</svg>
