<svg xmlns="http://www.w3.org/2000/svg" width="63.033" height="75.345" viewBox="0 0 63.033 75.345">
    <defs>
        <style>
            .cls-2{fill:#40596b}.cls-5{fill:#f79220}.cls-6{fill:#fff}
        </style>
    </defs>
    <g id="on-demand" transform="translate(-16.695 -7.395)">
        <path id="Path_1044" fill="#e6e7e8" d="M76.78 12.71H45.5a7.964 7.964 0 0 0-5.412-2.123H27.883a8 8 0 0 0-8 8v6.341a8.008 8.008 0 0 0 8 8h5.624l4.917 3.425v43.439a4.156 4.156 0 0 0 4.152 4.152h34.2a4.156 4.156 0 0 0 4.152-4.152v-62.93a4.155 4.155 0 0 0-4.148-4.152z" data-name="Path 1044" transform="translate(-1.203 -1.203)"/>
        <path id="Path_1045" d="M82.586 10.8H51.059a7.313 7.313 0 0 1 2.174 5.211v5.287a8.387 8.387 0 0 1-8.185 8.382l1.055 4.6-1.212-.845v43.781a3.49 3.49 0 0 0 3.49 3.49h34.2a3.49 3.49 0 0 0 3.49-3.49V14.285a3.488 3.488 0 0 0-3.489-3.49z" class="cls-2" data-name="Path 1045" transform="translate(-9.657 -1.274)"/>
        <path id="Path_1046" fill="#d4fbff" d="M82.544 18.234h-27.65c0 .1.015.19.015.287v5.287a8.381 8.381 0 0 1-5.061 7.692v40.48a1.927 1.927 0 0 0 1.927 1.927h30.769a1.927 1.927 0 0 0 1.927-1.927V20.161a1.926 1.926 0 0 0-1.926-1.927z" data-name="Path 1046" transform="translate(-11.333 -3.789)"/>
        <circle id="Ellipse_21" cx=".935" cy=".935" r=".935" class="cls-5" data-name="Ellipse 21" transform="translate(61.151 11.591)"/>
        <path id="Path_1048" d="M76.2 106.433h-4.526a1.776 1.776 0 1 0 0 3.552H76.2a1.776 1.776 0 1 0 0-3.552z" class="cls-6" data-name="Path 1048" transform="translate(-18.112 -33.608)"/>
        <path id="Path_1049" d="M80.268 64.767H60.325a1.2 1.2 0 0 0-1.2 1.2v5.547a1.2 1.2 0 0 0 1.2 1.2h19.943a1.2 1.2 0 0 0 1.2-1.2v-5.549a1.2 1.2 0 0 0-1.2-1.198z" class="cls-2" data-name="Path 1049" transform="translate(-14.47 -19.521)"/>
        <path id="Path_1050" d="M78.728 83.017h-13.9a1.322 1.322 0 0 0-1.328 1.322v4.637a1.322 1.322 0 0 0 1.324 1.324h13.9a1.322 1.322 0 0 0 1.322-1.322v-4.639a1.322 1.322 0 0 0-1.318-1.322z" class="cls-5" data-name="Path 1050" transform="translate(-15.949 -25.691)"/>
        <path id="Path_1051" d="M80.268 24.767H60.325a1.2 1.2 0 0 0-1.2 1.2v19.941a1.2 1.2 0 0 0 1.2 1.2h19.943a1.2 1.2 0 0 0 1.2-1.2V25.965a1.2 1.2 0 0 0-1.2-1.2z" class="cls-2" data-name="Path 1051" transform="translate(-14.47 -5.998)"/>
        <path id="Path_1052" d="M24.22 7.583h12.207a7.337 7.337 0 0 1 7.337 7.337v5.287a8.387 8.387 0 0 1-8.185 8.382l1.055 4.6-6.582-4.589H24.22a7.337 7.337 0 0 1-7.337-7.337V14.92a7.337 7.337 0 0 1 7.337-7.337z" class="cls-6" data-name="Path 1052" transform="translate(-.188 -.188)"/>
        <path id="Path_1053" d="M43.767 17.921v3.3a8.39 8.39 0 0 1-8.188 8.38l.45 1.966-.45.02.516 2.237-6.043-4.21h-5.831a7.339 7.339 0 0 1-7.334-7.341v-4.352a7.333 7.333 0 0 1 7.334-7.334h12.206a7.339 7.339 0 0 1 7.341 7.334z" class="cls-5" data-name="Path 1053" transform="translate(-.189 -1.203)"/>
    </g>
</svg>
