<svg xmlns="http://www.w3.org/2000/svg" width="37.646" height="38.968" viewBox="0 0 37.646 38.968">
    <defs>
        <style>
            .cls-1{fill:#18424d}
        </style>
    </defs>
    <g id="on-time" transform="translate(-8.683)">
        <path id="Path_993" d="M51.661 380.335a.571.571 0 0 0 .571-.571V376.8l.6.593a.571.571 0 0 0 .8-.812l-1.572-1.553a.571.571 0 0 0-.8 0l-1.572 1.553a.571.571 0 1 0 .8.812l.6-.593v2.961a.571.571 0 0 0 .573.574z" class="cls-1" data-name="Path 993" transform="translate(-37.727 -346.336)"/>
        <path id="Path_994" d="M117.853 380.335a.571.571 0 0 0 .571-.571V376.8l.6.593a.571.571 0 0 0 .8-.812l-1.572-1.553a.571.571 0 0 0-.8 0l-1.572 1.553a.571.571 0 1 0 .8.812l.6-.593v2.961a.571.571 0 0 0 .573.574z" class="cls-1" data-name="Path 994" transform="translate(-98.881 -346.336)"/>
        <path id="Path_995" d="M217.054 374.7l.42.432a2.082 2.082 0 0 0 2.941.04l2.258-2.2a1.635 1.635 0 0 0 .392-1.729c-.193-.531-.564-.728-1.193-1.382l-1.455-1.416a2.083 2.083 0 0 0-2.941.04l-.42.432a.571.571 0 0 0 .011.807l2.141 2.084-2.141 2.084a.571.571 0 0 0-.013.808zm3.369-2.483a.571.571 0 0 0 0-.818l-2.152-2.1.022-.023a.94.94 0 0 1 1.327-.018l1.51 1.47.734.714a.484.484 0 0 1 .013.708l-2.258 2.2a.939.939 0 0 1-1.327-.018l-.022-.023z" class="cls-1" data-name="Path 995" transform="translate(-192.362 -339.855)"/>
        <path id="Path_996" d="M38.6 2.8V.983A.984.984 0 0 0 37.612 0h-4.5a.984.984 0 0 0-.983.983v1.855a10.838 10.838 0 0 0-2.291 1.031.571.571 0 1 0 .586.98 9.759 9.759 0 1 1 5 18.137 9.843 9.843 0 0 1-1.424-.1V16.59a1.424 1.424 0 0 0-1.423-1.423h-6.711a9.817 9.817 0 0 1-.195-1.941 9.674 9.674 0 0 1 3.023-7.061.571.571 0 1 0-.788-.826 10.805 10.805 0 0 0-3.376 7.887 10.961 10.961 0 0 0 .174 1.941h-14.6a1.424 1.424 0 0 0-1.421 1.423v20.955a1.424 1.424 0 0 0 1.423 1.423h22.477a1.424 1.424 0 0 0 1.423-1.423V34.57a.571.571 0 0 0-1.142 0v2.975a.281.281 0 0 1-.281.281H10.106a.281.281 0 0 1-.281-.281V16.59a.281.281 0 0 1 .281-.281h8.679v2.907a1.071 1.071 0 0 0 1.07 1.07h2.979a1.071 1.071 0 0 0 1.07-1.07v-2.907h8.679a.281.281 0 0 1 .281.281v15.7a.571.571 0 0 0 1.142 0v-8.257A10.9 10.9 0 0 0 38.6 2.8zm-5.324-.254v-1.4h4.182v1.37a10.916 10.916 0 0 0-4.182.026zm-10.509 16.6h-2.841v-2.837h2.836v2.836z" class="cls-1" data-name="Path 996"/>
        <path id="Path_997" d="M353.175 61.93a.571.571 0 0 0 .571-.571v-.651a.571.571 0 1 0-1.142 0v.651a.571.571 0 0 0 .571.571z" class="cls-1" data-name="Path 997" transform="translate(-317.746 -55.56)"/>
        <path id="Path_998" d="M450.77 167.43h.651a.571.571 0 0 0 0-1.142h-.651a.571.571 0 0 0 0 1.142z" class="cls-1" data-name="Path 998" transform="translate(-407.913 -153.632)"/>
        <path id="Path_999" d="M352.6 264.453v.651a.571.571 0 0 0 1.142 0v-.651a.571.571 0 0 0-1.142 0z" class="cls-1" data-name="Path 999" transform="translate(-317.746 -243.798)"/>
        <path id="Path_1000" d="M247.675 166.288h-.651a.571.571 0 1 0 0 1.142h.651a.571.571 0 1 0 0-1.142z" class="cls-1" data-name="Path 1000" transform="translate(-219.674 -153.632)"/>
        <path id="Path_1001" d="M351.726 107.867a.571.571 0 0 0 .858.494l2.323-1.35a.571.571 0 1 0-.573-.987l-1.466.852v-3.868a.571.571 0 1 0-1.142 0z" class="cls-1" data-name="Path 1001" transform="translate(-316.934 -94.641)"/>
    </g>
</svg>
