<svg xmlns="http://www.w3.org/2000/svg" width="48.149" height="48.151" viewBox="0 0 48.149 48.151">
    <defs>
        <style>
            .cls-1{fill:#fff}
        </style>
    </defs>
    <g id="Page-1" transform="translate(0 -.001)">
        <g id="_083---Money-Bag" data-name="083---Money-Bag" transform="translate(0 .001)">
            <path id="Shape" d="M24.235 32.821a.8.8 0 1 0 1.6 0c0-2.655-2.456-4.849-5.617-5.171v-.85a.8.8 0 0 0-1.6 0v.847C15.456 27.971 13 30.166 13 32.821s2.456 4.849 5.617 5.171V45.2c-2.273-.287-4.012-1.771-4.012-3.557a.8.8 0 1 0-1.6 0c0 2.655 2.456 4.849 5.617 5.171v.847a.8.8 0 1 0 1.6 0v-.841c3.162-.321 5.617-2.517 5.617-5.171s-2.456-4.849-5.617-5.171v-7.214c2.278.288 4.013 1.772 4.013 3.557zm-9.63 0c0-1.786 1.739-3.269 4.012-3.557v7.113c-2.273-.287-4.017-1.77-4.017-3.556zm9.63 8.827c0 1.786-1.739 3.269-4.012 3.557v-7.113c2.277.287 4.012 1.771 4.012 3.556z" class="cls-1" transform="translate(-2.568 -5.136)"/>
            <path id="Shape-2" d="M2.889 30.155a.8.8 0 0 0-1.066.39A19.581 19.581 0 0 0 0 38.843C0 48.96 5.67 54.09 16.852 54.09a25.95 25.95 0 0 0 6.706-.773.8.8 0 0 0-.412-1.551 24.742 24.742 0 0 1-6.294.719C6.592 52.485 1.6 48.023 1.6 38.843a17.746 17.746 0 0 1 1.68-7.624.8.8 0 0 0-.391-1.064z" class="cls-1" data-name="Shape" transform="translate(0 -5.942)"/>
            <path id="Shape-3" d="M52.062 25H34.407A2.407 2.407 0 0 0 32 27.407v23.272a2.407 2.407 0 0 0 2.407 2.407h17.655a2.407 2.407 0 0 0 2.407-2.407V27.407A2.407 2.407 0 0 0 52.062 25zm.8 25.679a.8.8 0 0 1-.8.8H34.407a.8.8 0 0 1-.8-.8V27.407a.8.8 0 0 1 .8-.8h17.655a.8.8 0 0 1 .8.8z" class="cls-1" data-name="Shape" transform="translate(-6.321 -4.939)"/>
            <path id="Shape-4" d="M38.6 36.42h11.24a1.6 1.6 0 0 0 1.6-1.6V31.6a1.6 1.6 0 0 0-1.6-1.6H38.6a1.6 1.6 0 0 0-1.6 1.6v3.21a1.6 1.6 0 0 0 1.6 1.61zm0-4.815h11.24v3.21H38.6z" class="cls-1" data-name="Shape" transform="translate(-7.308 -5.926)"/>
            <path id="Shape-5" d="M40.21 41H37.8a.8.8 0 0 0 0 1.6h2.41a.8.8 0 0 0 0-1.6z" class="cls-1" data-name="Shape" transform="translate(-7.308 -8.099)"/>
            <path id="Shape-6" d="M40.21 45H37.8a.8.8 0 0 0 0 1.6h2.41a.8.8 0 1 0 0-1.6z" class="cls-1" data-name="Shape" transform="translate(-7.308 -8.889)"/>
            <path id="Shape-7" d="M40.21 49H37.8a.8.8 0 0 0 0 1.6h2.41a.8.8 0 1 0 0-1.6z" class="cls-1" data-name="Shape" transform="translate(-7.308 -9.679)"/>
            <path id="Shape-8" d="M40.21 53H37.8a.8.8 0 0 0 0 1.6h2.41a.8.8 0 1 0 0-1.6z" class="cls-1" data-name="Shape" transform="translate(-7.308 -10.469)"/>
            <path id="Shape-9" d="M47.21 41H44.8a.8.8 0 0 0 0 1.6h2.41a.8.8 0 0 0 0-1.6z" class="cls-1" data-name="Shape" transform="translate(-8.691 -8.099)"/>
            <path id="Shape-10" d="M47.21 45H44.8a.8.8 0 1 0 0 1.6h2.41a.8.8 0 1 0 0-1.6z" class="cls-1" data-name="Shape" transform="translate(-8.691 -8.889)"/>
            <path id="Shape-11" d="M47.21 49H44.8a.8.8 0 1 0 0 1.6h2.41a.8.8 0 1 0 0-1.6z" class="cls-1" data-name="Shape" transform="translate(-8.691 -9.679)"/>
            <path id="Shape-12" d="M47.21 53H44.8a.8.8 0 0 0 0 1.6h2.41a.8.8 0 1 0 0-1.6z" class="cls-1" data-name="Shape" transform="translate(-8.691 -10.469)"/>
            <path id="Shape-13" d="M54.21 41H51.8a.8.8 0 0 0 0 1.6h2.41a.8.8 0 0 0 0-1.6z" class="cls-1" data-name="Shape" transform="translate(-10.073 -8.099)"/>
            <path id="Shape-14" d="M54.21 45H51.8a.8.8 0 1 0 0 1.6h2.41a.8.8 0 0 0 0-1.6z" class="cls-1" data-name="Shape" transform="translate(-10.073 -8.889)"/>
            <path id="Shape-15" d="M54.21 49H51.8a.8.8 0 1 0 0 1.6h2.41a.8.8 0 0 0 0-1.6z" class="cls-1" data-name="Shape" transform="translate(-10.073 -9.679)"/>
            <path id="Shape-16" d="M54.21 53H51.8a.8.8 0 0 0 0 1.6h2.41a.8.8 0 0 0 0-1.6z" class="cls-1" data-name="Shape" transform="translate(-10.073 -10.469)"/>
            <path id="Shape-17" d="M6.115 1.014C4 2.949 7.714 8.92 9.9 12.037h-.435a2.794 2.794 0 0 0-1.988.82 2.829 2.829 0 0 0-.821 1.989 2.8 2.8 0 0 0 1.408 2.419 37.8 37.8 0 0 0-2.644 3.118.8.8 0 1 0 1.284.963 38.78 38.78 0 0 1 3.21-3.691h16.4a2.809 2.809 0 1 0 0-5.617h-.437c2.187-3.118 5.9-9.087 3.788-11.024-.971-.889-2.1-.241-3.1.327a6.19 6.19 0 0 1-3.06 1.067A3.109 3.109 0 0 1 21.221 1.4a4.671 4.671 0 0 0-6.661 0 3.109 3.109 0 0 1-2.292 1.011A6.164 6.164 0 0 1 9.211 1.34c-1-.569-2.127-1.215-3.1-.327zm21.055 12.98a1.2 1.2 0 0 1-.853 2.056H9.465a1.2 1.2 0 0 1 0-2.407h16.852a1.212 1.212 0 0 1 .853.351zm-14.9-9.981a4.671 4.671 0 0 0 3.331-1.4 3.093 3.093 0 0 1 4.574 0 4.674 4.674 0 0 0 3.335 1.4 7.689 7.689 0 0 0 3.859-1.279 3.356 3.356 0 0 1 1.218-.534c.823.754-1.353 5.3-4.68 9.841h-2V8.025a.8.8 0 1 0-1.6 0v4.012h-4.823V8.025a.8.8 0 1 0-1.6 0v4.012h-2C8.552 7.5 6.375 2.951 7.21 2.185a3.984 3.984 0 0 1 1.2.549 7.673 7.673 0 0 0 3.854 1.279z" class="cls-1" data-name="Shape" transform="translate(-1.039 -.001)"/>
        </g>
    </g>
</svg>
