<svg xmlns="http://www.w3.org/2000/svg" width="67.092" height="67.688" viewBox="0 0 67.092 67.688">
    <defs>
        <style>
            .cls-1{fill:#00afde}
        </style>
    </defs>
    <g id="payment_3_" data-name="payment (3)" transform="translate(-2.55)">
        <g id="Layer_1_32_" transform="translate(2.55)">
            <g id="Group_119" data-name="Group 119">
                <path id="Path_1534" d="M55.558 19.369l53.39-13.72-.448-2.088a4.817 4.817 0 0 0-5.816-3.43L58.541 11.465a4.817 4.817 0 0 0-3.43 5.816z" class="cls-1" data-name="Path 1534" transform="translate(-48.847)"/>
                <path id="Path_1535" d="M257.477 150.162a4.817 4.817 0 0 0 3.43-5.816l-4.325-17-37.282 9.543h25.2a9.293 9.293 0 0 1 9.246 9.246v5.071z" class="cls-1" data-name="Path 1535" transform="translate(-193.947 -112.45)"/>
                <path id="Path_1536" d="M57.729 251.967a4.711 4.711 0 0 0-4.772-4.772H7.322a4.711 4.711 0 0 0-4.772 4.772V281.2a4.711 4.711 0 0 0 4.772 4.772h45.635a4.711 4.711 0 0 0 4.772-4.772zM7.77 255.4a2.294 2.294 0 0 1 2.237-2.237h25.352a2.237 2.237 0 1 1 0 4.474H10.007A2.293 2.293 0 0 1 7.77 255.4zm28.783 26.247a7.638 7.638 0 0 1-7.606-7.606 7.511 7.511 0 0 1 7.606-7.457 7.638 7.638 0 0 1 7.606 7.606 7.511 7.511 0 0 1-7.607 7.455zm16.4-7.457a7.638 7.638 0 0 1-7.606 7.606 5.078 5.078 0 0 1-1.491-.149 10.232 10.232 0 0 0 2.983-7.457 10.867 10.867 0 0 0-2.983-7.457 4.6 4.6 0 0 1 1.491-.149 7.543 7.543 0 0 1 7.61 7.604z" class="cls-1" data-name="Path 1536" transform="translate(-2.55 -218.281)"/>
            </g>
        </g>
    </g>
</svg>
