<svg xmlns="http://www.w3.org/2000/svg" width="70.113" height="67.191" viewBox="0 0 70.113 67.191">
    <defs>
        <style>
            .cls-1{fill:#f79220}
        </style>
    </defs>
    <g id="presentation" transform="translate(0 -1)">
        <path id="Path_1529" d="M26.333 33.127a2.892 2.892 0 0 1-1.583-.47l-12.416-8.034a2.922 2.922 0 1 1 3.176-4.9l12.416 8.034a2.923 2.923 0 0 1-1.592 5.375z" class="cls-1" data-name="Path 1529" transform="translate(21.136 35.064)"/>
        <path id="Path_1530" d="M9.673 33.128a2.923 2.923 0 0 1-1.589-5.375L20.5 19.719a2.922 2.922 0 1 1 3.176 4.9L11.26 32.658a2.916 2.916 0 0 1-1.586.47z" class="cls-1" data-name="Path 1530" transform="translate(12.97 35.063)"/>
        <path id="Path_1531" d="M11 19v11.685a2.921 2.921 0 1 0 5.843 0V19z" class="cls-1" data-name="Path 1531" transform="translate(21.135 34.585)"/>
        <path id="Path_1532" d="M60.177 6.6H3.211a9.27 9.27 0 0 1-1.461-.151v28.632a5.118 5.118 0 0 0 5.112 5.112h49.664a5.118 5.118 0 0 0 5.112-5.112V6.449a9.27 9.27 0 0 1-1.461.149zm-10.891 9.156L38.133 29.32a2.922 2.922 0 0 1-3.847.6l-6.407-4.157-9.486 9.226a2.921 2.921 0 1 1-4.072-4.189l11.154-10.85a2.916 2.916 0 0 1 3.628-.356l6.176 4.005 9.5-11.548a2.92 2.92 0 1 1 4.511 3.71z" class="cls-1" data-name="Path 1532" transform="translate(3.362 10.47)"/>
        <path id="Path_1533" d="M63.54 14.146H6.573A6.573 6.573 0 1 1 6.573 1H63.54a6.573 6.573 0 1 1 0 13.146z" class="cls-1" data-name="Path 1533"/>
    </g>
</svg>
