<svg xmlns="http://www.w3.org/2000/svg" width="31.312" height="39.559" viewBox="0 0 31.312 39.559">
    <defs>
        <style>
            .cls-1{fill:#18424d}
        </style>
    </defs>
    <g id="report_2_" data-name="report (2)" transform="translate(8.617 2.02)">
        <path id="Path_983" d="M20.384-.164H17.5a.579.579 0 0 0 0 1.159h.358v32H-3.777v-32h2.412v1.316a1.832 1.832 0 0 0 1.83 1.83H3.2A3.247 3.247 0 0 0 6.393 6.8h1.291a3.247 3.247 0 0 0 3.189-2.662h2.74a1.832 1.832 0 0 0 1.83-1.83V-.19a1.832 1.832 0 0 0-1.83-1.83H.464a1.832 1.832 0 0 0-1.83 1.83v.026h-4.94a2.314 2.314 0 0 0-2.311 2.311v23.262a.579.579 0 0 0 .579.579.579.579 0 0 0 .579-.579V2.147A1.154 1.154 0 0 1-6.306.995h1.37v32.576a.579.579 0 0 0 .579.579h22.792a.579.579 0 0 0 .579-.579V.995h1.37a1.153 1.153 0 0 1 1.152 1.152v33.081a1.153 1.153 0 0 1-1.152 1.152h-26.69a1.154 1.154 0 0 1-1.152-1.152V28.14a.58.58 0 0 0-.579-.579.58.58 0 0 0-.579.579v7.088a2.314 2.314 0 0 0 2.311 2.311h26.69a2.314 2.314 0 0 0 2.311-2.311V2.147a2.314 2.314 0 0 0-2.312-2.311zM-.207-.19a.672.672 0 0 1 .671-.67h13.15a.672.672 0 0 1 .671.671v2.5a.672.672 0 0 1-.671.671h-3.267a.579.579 0 0 0-.579.579 2.085 2.085 0 0 1-2.084 2.083H6.393a2.085 2.085 0 0 1-2.082-2.082.579.579 0 0 0-.579-.579H.464a.672.672 0 0 1-.671-.671zm0 0" class="cls-1" data-name="Path 983"/>
        <path id="Path_984" d="M200.951 259.363h-3.064l-1.958-5.348a.58.58 0 0 0-1.105.057l-2.1 8.282-2.031-5.908a.58.58 0 0 0-1.053-.1l-1.689 3.012h-1.758a.579.579 0 0 0 0 1.159h2.1a.58.58 0 0 0 .506-.3l1.222-2.18 2.242 6.521a.58.58 0 0 0 1.11-.046l2.12-8.348 1.453 3.968a.579.579 0 0 0 .544.38h3.469a.579.579 0 0 0 0-1.159zm0 0" class="cls-1" data-name="Path 984" transform="translate(-186.531 -245.527)"/>
        <path id="Path_985" d="M200.951 639.355h-14.762a.579.579 0 1 0 0 1.159h14.763a.579.579 0 1 0 0-1.159zm0 0" class="cls-1" data-name="Path 985" transform="translate(-186.531 -615.964)"/>
        <path id="Path_986" d="M200.951 768.207h-14.762a.579.579 0 1 0 0 1.159h14.763a.579.579 0 1 0 0-1.159zm0 0" class="cls-1" data-name="Path 986" transform="translate(-186.531 -739.71)"/>
    </g>
</svg>
