<svg xmlns="http://www.w3.org/2000/svg" width="70.882" height="82.403" viewBox="0 0 70.882 82.403">
    <defs>
        <style>
            .cls-2{fill:#294b6e}
        </style>
    </defs>
    <g id="security_1_" data-name="security (1)" transform="translate(-35.676)">
        <g id="Group_94" data-name="Group 94" transform="translate(35.676)">
            <path id="Path_1217" fill="#446e98" d="M90.634 0h-38.8a1.66 1.66 0 0 0-1.65 1.491 14.416 14.416 0 0 1-12.9 12.785 1.659 1.659 0 0 0-1.494 1.65v18.565a50.385 50.385 0 0 0 34.936 47.832 1.65 1.65 0 0 0 1.018 0 50.385 50.385 0 0 0 34.932-47.832V15.925a1.659 1.659 0 0 0-1.494-1.65 14.416 14.416 0 0 1-12.9-12.785A1.66 1.66 0 0 0 90.634 0z" data-name="Path 1217" transform="translate(-35.794)"/>
            <path id="Path_1218" d="M276.969 14.276a14.416 14.416 0 0 1-12.9-12.785A1.66 1.66 0 0 0 262.421 0h-4.979a1.66 1.66 0 0 1 1.65 1.491 14.416 14.416 0 0 0 12.9 12.785 1.659 1.659 0 0 1 1.494 1.65v18.565a50.359 50.359 0 0 1-32.951 47.142q.981.364 1.98.69a1.65 1.65 0 0 0 1.018 0 50.385 50.385 0 0 0 34.932-47.832V15.925a1.659 1.659 0 0 0-1.494-1.65z" class="cls-2" data-name="Path 1218" transform="translate(-207.581)"/>
            <path id="Path_1219" fill="#f9f7f8" d="M103.706 107.9a.672.672 0 0 1-.465 0 44.984 44.984 0 0 1-20.233-15.07 43.579 43.579 0 0 1-8.792-26.36V52.005a.668.668 0 0 1 .459-.631A20.669 20.669 0 0 0 87.59 38.565a.668.668 0 0 1 .63-.455h30.507a.668.668 0 0 1 .63.455 20.669 20.669 0 0 0 12.914 12.809.668.668 0 0 1 .459.631v14.462a43.58 43.58 0 0 1-8.792 26.36 44.985 44.985 0 0 1-20.233 15.07z" data-name="Path 1219" transform="translate(-68.033 -31.976)"/>
        </g>
        <g id="Group_95" data-name="Group 95" transform="translate(55.493 16.621)">
            <path id="Path_1220" d="M186.653 80.573a12.435 12.435 0 0 0-12.421 12.421V107h24.843V92.994a12.435 12.435 0 0 0-12.422-12.421zm7.722 21.732h-15.443v-9.311a7.722 7.722 0 1 1 15.443 0v9.311z" class="cls-2" data-name="Path 1220" transform="translate(-171.223 -80.573)"/>
            <path id="Path_1221" fill="#f79220" d="M180.587 231.192h-21.462a4.7 4.7 0 0 1-4.7-4.7v-13.628a4.7 4.7 0 0 1 4.7-4.7h21.461a4.7 4.7 0 0 1 4.7 4.7v13.629a4.7 4.7 0 0 1-4.699 4.699z" data-name="Path 1221" transform="translate(-154.426 -188.782)"/>
            <path id="Path_1222" fill="#efac60" d="M300.4 208.164h-4.7a4.7 4.7 0 0 1 4.7 4.7v13.629a4.7 4.7 0 0 1-4.7 4.7h4.7a4.7 4.7 0 0 0 4.7-4.7v-13.629a4.7 4.7 0 0 0-4.7-4.7z" data-name="Path 1222" transform="translate(-274.241 -188.782)"/>
            <path id="Path_1223" fill="#fff" d="M242 251.391a3.055 3.055 0 1 0-5.518 1.806.606.606 0 0 1 .114.359v3.253a2.35 2.35 0 1 0 4.7 0v-3.253a.6.6 0 0 1 .113-.358 3.038 3.038 0 0 0 .591-1.807z" data-name="Path 1223" transform="translate(-223.516 -222.851)"/>
        </g>
    </g>
</svg>
