<svg xmlns="http://www.w3.org/2000/svg" width="64.434" height="71.596" viewBox="0 0 64.434 71.596">
    <defs>
        <style>
            .cls-1{fill:#f79220}
        </style>
    </defs>
    <g id="shield_11_" data-name="shield (11)" transform="translate(-25.12)">
        <path id="Path_1525" d="M148.787 204.438a34.1 34.1 0 0 0 6.231-16.118l-19.163-5.449-19.163 5.449a34.1 34.1 0 0 0 6.231 16.118 34.555 34.555 0 0 0 12.932 10.907 34.555 34.555 0 0 0 12.932-10.907z" class="cls-1" data-name="Path 1525" transform="translate(-78.519 -156.802)"/>
        <path id="Path_1526" d="M134.507 98.2l19.387 5.513v-8.897L134.507 89.3l-19.387 5.516v8.892z" class="cls-1" data-name="Path 1526" transform="translate(-77.17 -76.573)"/>
        <path id="Path_1527" d="M266.12 0v8.892l21.525 6.121v12.548a38.421 38.421 0 0 1-7.26 22.573 38.846 38.846 0 0 1-14.265 12.123V71.6a47.272 47.272 0 0 0 30.08-44.039V8.553z" class="cls-1" data-name="Path 1527" transform="translate(-206.645)"/>
        <path id="Path_1528" d="M55.2 62.257a38.843 38.843 0 0 1-14.266-12.123 38.42 38.42 0 0 1-7.26-22.573V15.013L55.2 8.892V0L25.12 8.553v19.008A47.272 47.272 0 0 0 55.2 71.6z" class="cls-1" data-name="Path 1528"/>
    </g>
</svg>
