<svg xmlns="http://www.w3.org/2000/svg" width="82.557" height="86.264" viewBox="0 0 82.557 86.264">
    <defs>
        <style>
            .cls-1{fill:#00afde}
        </style>
    </defs>
    <g id="support_3_" data-name="support (3)" transform="translate(-11)">
        <path id="Path_1547" d="M86.964 26.562A29.044 29.044 0 0 0 57.958 0H46.6a29.044 29.044 0 0 0-29.007 26.562A8.533 8.533 0 0 0 11 34.859V48.82a8.533 8.533 0 0 0 6.6 8.3 27.613 27.613 0 0 0 25.437 25.068 6.252 6.252 0 0 0 5.853 4.076h6.01a6.249 6.249 0 0 0 6.242-6.242v-.559a6.249 6.249 0 0 0-6.242-6.242h-6.01a6.25 6.25 0 0 0-5.784 3.9A22.555 22.555 0 0 1 22.669 57.07a8.532 8.532 0 0 0 4.317-2.693 28.371 28.371 0 0 0 50.584 0 8.5 8.5 0 0 0 6.451 2.964h1.016a8.53 8.53 0 0 0 8.52-8.52V34.859a8.533 8.533 0 0 0-6.593-8.297zM47.7 79.463a1.189 1.189 0 0 1 1.187-1.187H54.9a1.189 1.189 0 0 1 1.187 1.187v.559A1.189 1.189 0 0 1 54.9 81.21h-6.01a1.189 1.189 0 0 1-1.19-1.188zM46.6 5.055h11.36a23.988 23.988 0 0 1 23.934 21.554 8.532 8.532 0 0 0-4.323 2.7 28.371 28.371 0 0 0-50.584 0 8.532 8.532 0 0 0-4.323-2.7A23.989 23.989 0 0 1 46.6 5.055zM24 48.821a3.469 3.469 0 0 1-3.465 3.465H19.52a3.469 3.469 0 0 1-3.465-3.465V34.859a3.469 3.469 0 0 1 3.465-3.465h1.016A3.469 3.469 0 0 1 24 34.859zm28.279 16.018a23 23 0 1 1 23.223-23 23.138 23.138 0 0 1-23.223 23zM88.5 48.821a3.469 3.469 0 0 1-3.465 3.465h-1.013a3.469 3.469 0 0 1-3.465-3.465V34.859a3.469 3.469 0 0 1 3.465-3.465h1.016a3.469 3.469 0 0 1 3.462 3.465z" class="cls-1" data-name="Path 1547"/>
        <path id="Path_1548" d="M191.778 194.45a2.527 2.527 0 0 0 2.527-2.527v-2.436a2.527 2.527 0 1 0-5.055 0v2.436a2.527 2.527 0 0 0 2.528 2.527z" class="cls-1" data-name="Path 1548" transform="translate(-148.218 -155.46)"/>
        <path id="Path_1549" d="M295.276 186.96a2.527 2.527 0 0 0-2.527 2.527v2.436a2.527 2.527 0 1 0 5.055 0v-2.436a2.527 2.527 0 0 0-2.528-2.527z" class="cls-1" data-name="Path 1549" transform="translate(-234.279 -155.46)"/>
        <path id="Path_1550" d="M209.216 260.006a2.527 2.527 0 0 0-2.527 2.527 2.629 2.629 0 0 1-2.648 2.6h-7.087a2.629 2.629 0 0 1-2.648-2.6 2.527 2.527 0 0 0-5.055 0 7.689 7.689 0 0 0 7.7 7.658h7.087a7.689 7.689 0 0 0 7.7-7.658 2.527 2.527 0 0 0-2.522-2.527z" class="cls-1" data-name="Path 1550" transform="translate(-148.218 -216.199)"/>
    </g>
</svg>
