<svg xmlns="http://www.w3.org/2000/svg" width="68.053" height="57.728" viewBox="0 0 68.053 57.728">
    <defs>
        <style>
            .cls-1{fill:#f79220}
        </style>
    </defs>
    <g id="team_3_" data-name="team (3)" transform="translate(0 -38.84)">
        <g id="Group_107" data-name="Group 107" transform="translate(52.967 70.006)">
            <g id="Group_106" data-name="Group 106">
                <path id="Path_1518" d="M403.757 273.32h-5.263a13.691 13.691 0 0 1 .829 4.706v19.891a5.865 5.865 0 0 1-.338 1.965h8.7a5.9 5.9 0 0 0 5.894-5.894v-10.844a9.835 9.835 0 0 0-9.822-9.824z" class="cls-1" data-name="Path 1518" transform="translate(-398.494 -273.32)"/>
            </g>
        </g>
        <g id="Group_109" data-name="Group 109" transform="translate(0 70.006)">
            <g id="Group_108" data-name="Group 108">
                <path id="Path_1519" d="M14.257 278.027a13.69 13.69 0 0 1 .83-4.706H9.824A9.835 9.835 0 0 0 0 283.145v10.844a5.9 5.9 0 0 0 5.894 5.894h8.7a5.867 5.867 0 0 1-.338-1.965z" class="cls-1" data-name="Path 1519" transform="translate(0 -273.321)"/>
            </g>
        </g>
        <g id="Group_111" data-name="Group 111" transform="translate(18.187 64.888)">
            <g id="Group_110" data-name="Group 110">
                <path id="Path_1520" d="M158.685 234.815h-12.032a9.835 9.835 0 0 0-9.824 9.824v19.891a1.965 1.965 0 0 0 1.965 1.965h27.75a1.965 1.965 0 0 0 1.965-1.965v-19.891a9.835 9.835 0 0 0-9.824-9.824z" class="cls-1" data-name="Path 1520" transform="translate(-136.829 -234.815)"/>
            </g>
        </g>
        <g id="Group_113" data-name="Group 113" transform="translate(22.212 38.84)">
            <g id="Group_112" data-name="Group 112">
                <path id="Path_1521" d="M178.928 38.84a11.812 11.812 0 1 0 11.814 11.815 11.828 11.828 0 0 0-11.814-11.815z" class="cls-1" data-name="Path 1521" transform="translate(-167.114 -38.84)"/>
            </g>
        </g>
        <g id="Group_115" data-name="Group 115" transform="translate(4.445 49.852)">
            <g id="Group_114" data-name="Group 114">
                <path id="Path_1522" d="M42.279 121.689a8.831 8.831 0 1 0 8.836 8.836 8.846 8.846 0 0 0-8.836-8.836z" class="cls-1" data-name="Path 1522" transform="translate(-33.443 -121.689)"/>
            </g>
        </g>
        <g id="Group_117" data-name="Group 117" transform="translate(45.937 49.852)">
            <g id="Group_116" data-name="Group 116">
                <path id="Path_1523" d="M354.443 121.689a8.836 8.836 0 1 0 8.836 8.836 8.846 8.846 0 0 0-8.836-8.836z" class="cls-1" data-name="Path 1523" transform="translate(-345.607 -121.689)"/>
            </g>
        </g>
    </g>
</svg>
