<svg width="29" height="33" viewBox="0 0 29 33" fill="none" xmlns="http://www.w3.org/2000/svg">
<path d="M17.7975 15.4697C18.1613 15.4697 18.4566 15.1809 18.4566 14.8252C18.4566 14.4694 18.1613 14.1807 17.7975 14.1807C17.433 14.1807 17.1384 14.4694 17.1384 14.8252C17.1384 15.1809 17.433 15.4697 17.7975 15.4697Z" fill="white"/>
<path d="M11.2066 15.4697C11.5704 15.4697 11.8657 15.1809 11.8657 14.8252C11.8657 14.4694 11.5704 14.1807 11.2066 14.1807C10.842 14.1807 10.5475 14.4694 10.5475 14.8252C10.5475 15.1809 10.842 15.4697 11.2066 15.4697Z" fill="white"/>
<path d="M0 30.9417V32.3564C0 32.7124 0.295046 33.001 0.659091 33.001H28.3409C28.705 33.001 29 32.7124 29 32.3564V30.9405C29 28.3772 27.5276 26.0083 24.8027 25.0357C25.7874 24.1946 26.386 22.9624 26.386 21.63C26.386 21.2743 26.091 20.9855 25.7269 20.9855C24.1415 20.9855 22.8053 19.889 22.4835 18.4346H24.3884C25.4775 18.4346 26.3636 17.5672 26.3636 16.501V13.5361C26.3636 12.6955 25.8124 11.9787 25.0455 11.7131V10.3135C25.0455 4.62725 20.3157 0.000976562 14.5021 0.000976562C8.67503 0.000976562 3.95455 4.61265 3.95455 10.3135V11.7141C3.18758 11.9807 2.63636 12.6972 2.63636 13.5361V16.501C2.63636 17.5672 3.52433 18.4346 4.6157 18.4346H6.5165C6.1952 19.889 4.86028 20.9855 3.2764 20.9855C2.91236 20.9855 2.61731 21.2743 2.61731 21.63C2.61731 22.9642 3.21745 24.1976 4.20479 25.0393C1.49042 26.0126 0 28.4054 0 30.9417ZM25.0122 22.2207C24.807 23.3015 24.0465 24.219 22.9837 24.6311L18.9908 24.1241L18.5642 22.4936C19.809 21.7657 20.801 20.7373 21.4658 19.53C22.086 20.9354 23.4181 21.9777 25.0122 22.2207ZM19.7846 11.6025C17.9638 11.6025 16.4824 10.1357 16.4824 8.3328C16.4824 7.9768 16.1874 7.68827 15.8233 7.68827C15.4595 7.68827 15.1642 7.9768 15.1642 8.3328C15.1642 10.1357 13.6828 11.6025 11.8616 11.6025H7.91115C7.91115 8.04855 10.8678 5.15723 14.5021 5.15723C18.1433 5.15723 21.093 8.03899 21.093 11.6025H19.7846ZM7.90909 12.8916H11.8616C13.5412 12.8916 15.0144 12.0031 15.8233 10.6773C16.6323 12.0031 18.1052 12.8916 19.7846 12.8916H21.0909V15.8564C21.0909 18.2943 19.7102 20.4966 17.4878 21.6036C16.5579 22.0669 15.5533 22.3018 14.5021 22.3018C13.4537 22.3018 12.4522 22.0686 11.5248 21.6089C10.9025 21.3005 10.3359 20.8986 9.84028 20.4137C8.59496 19.1967 7.90909 17.578 7.90909 15.8564V12.8916ZM11.6605 23.0767C12.5629 23.4176 13.5155 23.5908 14.5021 23.5908C15.4925 23.5908 16.4487 23.4161 17.3549 23.0717L17.7733 24.6717C17.5537 26.2674 16.1694 27.458 14.5085 27.458C12.8479 27.458 11.4635 26.2679 11.2434 24.6727L11.6605 23.0767ZM25.0455 16.501C25.0455 16.8565 24.7507 17.1455 24.3884 17.1455H22.4091V12.8916H24.3884C24.7507 12.8916 25.0455 13.1806 25.0455 13.5361V16.501ZM14.5021 1.29004C19.5889 1.29004 23.7273 5.338 23.7273 10.3135V11.6025H22.4111C22.4111 7.32925 18.8745 3.86816 14.5021 3.86816C10.141 3.86816 6.59297 7.33781 6.59297 11.6025H5.27273V10.3135C5.27273 5.32793 9.40106 1.29004 14.5021 1.29004ZM3.95455 16.501V13.5361C3.95455 13.1814 4.25062 12.8924 4.6157 12.8916H6.59091V17.1455H4.6157C4.25114 17.1455 3.95455 16.8565 3.95455 16.501ZM7.53526 19.5283C7.89648 20.1808 8.35629 20.7861 8.90828 21.3254C9.37274 21.7798 9.89048 22.1726 10.4507 22.4996L10.0262 24.1243L6.02219 24.6324C4.95811 24.22 4.19656 23.302 3.9911 22.2207C5.58477 21.9775 6.91608 20.9341 7.53526 19.5283ZM5.95241 25.9408L6.02502 25.9318C6.02553 25.9315 6.02656 25.9315 6.02708 25.9315L10.0555 25.4204C10.5892 27.3598 12.3878 28.7471 14.5085 28.7471C16.6292 28.7471 18.4275 27.3598 18.961 25.4202C19.1618 25.4459 17.9028 25.286 23.0638 25.9411C25.9532 26.3082 27.6818 28.4258 27.6818 30.9405V31.7119H1.31818V30.9417C1.31818 28.4741 3.04572 26.3099 5.95241 25.9408Z" fill="white"/>
<path d="M12.74 19.8999C13.2933 20.1549 13.8862 20.2843 14.5018 20.2843C15.1032 20.2843 15.6843 20.1602 16.2296 19.9155C16.5604 19.7672 16.7054 19.3845 16.5535 19.061C16.4018 18.7375 16.0105 18.5955 15.6796 18.744C15.3081 18.9107 14.9119 18.9953 14.502 18.9953C14.0821 18.9953 13.6782 18.9074 13.302 18.7339C12.9727 18.5821 12.5801 18.7201 12.4249 19.0421C12.2696 19.3641 12.4107 19.7483 12.74 19.8999Z" fill="white"/>
<path d="M20.4339 30.0361H23.0702C23.4343 30.0361 23.7293 29.7476 23.7293 29.3916C23.7293 29.0356 23.4343 28.7471 23.0702 28.7471H20.4339C20.0698 28.7471 19.7748 29.0356 19.7748 29.3916C19.7748 29.7476 20.0698 30.0361 20.4339 30.0361Z" fill="white"/>
<path d="M25.7045 28.7471C26.0683 28.7471 26.3636 29.0359 26.3636 29.3916C26.3636 29.7474 26.0683 30.0361 25.7045 30.0361C25.3408 30.0361 25.0455 29.7474 25.0455 29.3916C25.0455 29.0359 25.3408 28.7471 25.7045 28.7471Z" fill="white"/>
</svg>
