<svg width="37" height="26" viewBox="0 0 37 26" fill="none" xmlns="http://www.w3.org/2000/svg">
<path d="M30.2494 19.0117C29.3453 19.0117 28.4865 19.3767 27.8385 20.0368C27.1906 20.7047 26.829 21.5745 26.829 22.5064C26.829 23.4383 27.1831 24.308 27.8385 24.9759C28.494 25.636 29.3453 26.001 30.2494 26.001C32.1028 26.001 33.6097 24.4323 33.6097 22.5064C33.6097 20.5804 32.1028 19.0117 30.2494 19.0117ZM30.2494 24.4478C29.2097 24.4478 28.3358 23.5625 28.3358 22.5064C28.3358 21.4502 29.2097 20.5649 30.2494 20.5649C31.2741 20.5649 32.1028 21.4347 32.1028 22.5064C32.1028 23.578 31.2741 24.4478 30.2494 24.4478ZM31.1234 7.37075C30.9878 7.23873 30.807 7.16884 30.6186 7.16884H26.7536C26.3392 7.16884 26.0002 7.5183 26.0002 7.94542V14.3134C26.0002 14.7405 26.3392 15.09 26.7536 15.09H32.8864C33.3008 15.09 33.6398 14.7405 33.6398 14.3134V10.05C33.6398 9.83252 33.5494 9.62284 33.3912 9.47529L31.1234 7.37075ZM32.133 13.5368H27.507V8.71424H30.3248L32.133 10.3917V13.5368ZM11.8512 19.0117C10.9471 19.0117 10.0882 19.3767 9.44024 20.0368C8.7923 20.7047 8.43067 21.5745 8.43067 22.5064C8.43067 23.4383 8.78477 24.308 9.44024 24.9759C10.0957 25.636 10.9471 26.001 11.8512 26.001C13.7045 26.001 15.2114 24.4323 15.2114 22.5064C15.2114 20.5804 13.7045 19.0117 11.8512 19.0117ZM11.8512 24.4478C10.8114 24.4478 9.93749 23.5625 9.93749 22.5064C9.93749 21.4502 10.8114 20.5649 11.8512 20.5649C12.8758 20.5649 13.7045 21.4347 13.7045 22.5064C13.7045 23.578 12.8758 24.4478 11.8512 24.4478ZM6.8259 19.9669H5.31155V17.9012C5.31155 17.4741 4.97251 17.1246 4.55814 17.1246C4.14376 17.1246 3.80472 17.4741 3.80472 17.9012V20.7435C3.80472 21.1706 4.14376 21.5201 4.55814 21.5201H6.8259C7.24028 21.5201 7.57931 21.1706 7.57931 20.7435C7.57931 20.3164 7.24028 19.9669 6.8259 19.9669ZM10.6457 15.7345C10.6457 15.3074 10.3067 14.958 9.89228 14.958H0.753411C0.339035 14.958 0 15.3074 0 15.7345C0 16.1617 0.339035 16.5111 0.753411 16.5111H9.89228C10.3067 16.5111 10.6457 16.1694 10.6457 15.7345ZM2.28283 12.9311L11.4217 12.9854C11.8361 12.9854 12.1751 12.6437 12.1827 12.2166C12.1902 11.7817 11.8512 11.4323 11.4368 11.4323L2.2979 11.3779C2.29037 11.3779 2.29037 11.3779 2.29037 11.3779C1.87599 11.3779 1.53696 11.7196 1.53696 12.1467C1.52942 12.5816 1.86846 12.9311 2.28283 12.9311ZM3.81979 9.4054H12.9587C13.373 9.4054 13.7121 9.05593 13.7121 8.62881C13.7121 8.20169 13.373 7.85223 12.9587 7.85223H3.81979C3.40542 7.85223 3.06638 8.20169 3.06638 8.62881C3.06638 9.05593 3.40542 9.4054 3.81979 9.4054ZM36.7212 8.35701L31.3268 3.75187C31.1912 3.63538 31.0255 3.57326 30.8446 3.57326H24.5009V0.77756C24.5009 0.350439 24.1619 0.000976562 23.7475 0.000976562H4.55814C4.14376 0.000976562 3.80472 0.350439 3.80472 0.77756V6.46215C3.80472 6.88927 4.14376 7.23873 4.55814 7.23873C4.97251 7.23873 5.31155 6.88927 5.31155 6.46215V1.55414H23.0016V19.9669H16.8237C16.4093 19.9669 16.0703 20.3164 16.0703 20.7435C16.0703 21.1706 16.4093 21.5201 16.8237 21.5201H26.0228C26.4372 21.5201 26.7762 21.1706 26.7762 20.7435C26.7762 20.3164 26.4372 19.9669 26.0228 19.9669H24.5084V5.12642H30.5809L35.4932 9.31997L35.4404 19.9514H34.6569C34.2425 19.9514 33.9035 20.3009 33.9035 20.728C33.9035 21.1551 34.2425 21.5046 34.6569 21.5046H36.1863C36.6007 21.5046 36.9397 21.1629 36.9397 20.7357L37 8.96274C36.9925 8.72977 36.8945 8.50456 36.7212 8.35701Z" fill="white"/>
</svg>
