<svg width="51" height="62" viewBox="0 0 51 62" fill="none" xmlns="http://www.w3.org/2000/svg">
<g filter="url(#filter0_d_107_35)">
<path fill-rule="evenodd" clip-rule="evenodd" d="M20.7631 1.44141C16.9046 1.91658 13.5173 3.26777 10.3129 5.60991C9.15927 6.45305 6.90685 8.70646 5.99702 9.92754C3.87726 12.7726 2.46165 16.2186 1.96949 19.7322C1.89624 20.2552 1.66692 21.14 1.45989 21.6982C0.506731 24.2683 0.786905 26.8246 2.26361 29.0335C3.43911 30.7916 5.60196 32.1763 7.56914 32.4299C7.86361 32.4678 8.21849 32.5223 8.35779 32.551C8.60466 32.6015 8.61096 32.579 8.61096 31.6497C8.61096 31.1256 8.63977 30.6966 8.6751 30.6966C8.71032 30.6966 8.95088 30.8411 9.20957 31.0175C11.4718 32.5609 15.1604 33.5401 19.6379 33.7859C20.7973 33.8496 21.069 33.8978 21.1849 34.0608C21.4317 34.4079 22.0771 34.7292 22.7718 34.8509C25.0008 35.2413 26.6901 33.1105 25.2379 31.7401C24.6158 31.153 24.1695 30.9802 23.2948 30.9877C22.4095 30.9953 21.8901 31.1767 21.3148 31.6789L20.9265 32.0181L19.3539 31.9235C14.9096 31.6563 11.6103 30.6437 9.3986 28.8679L8.66722 28.2807L8.63808 22.439L8.60894 16.5972L8.13174 16.6595C6.86803 16.8244 5.68657 17.2427 4.53696 17.9321L4.11996 18.1822L4.34298 17.3819C6.27246 10.4585 12.1209 5.02342 19.2261 3.55061C27.8018 1.77292 36.4655 5.83804 40.5987 13.5787C41.199 14.7028 41.8139 16.2225 42.13 17.3629L42.3571 18.1822L41.9401 17.9321C40.7901 17.2425 39.6092 16.8245 38.3443 16.6594L37.8661 16.5968V24.5998V32.6029L38.1192 32.551C38.2585 32.5223 38.6134 32.4678 38.9079 32.4299C40.8751 32.1763 43.0379 30.7916 44.2134 29.0335C45.6905 26.8242 45.9703 24.2683 45.0166 21.6967C44.8099 21.1393 44.5808 20.2552 44.5076 19.7322C43.5007 12.5445 38.8808 6.34464 32.2617 3.29821C28.6012 1.61349 24.6055 0.968265 20.7631 1.44141ZM20.313 4.90897C18.0707 5.21497 15.1538 6.43247 13.0125 7.9563C10.5349 9.71933 8.34553 12.3658 7.07653 15.1314L6.69779 15.9569L7.11996 15.8903C7.35209 15.8537 7.83233 15.79 8.18721 15.7489L8.8324 15.674L9.35629 14.746C12.054 9.96726 16.9832 6.83468 22.2806 6.5326C25.0935 6.37216 27.0355 6.67044 29.454 7.6343C32.7311 8.9403 35.8277 11.7034 37.5292 14.8399C37.969 15.6509 38.0083 15.6893 38.4616 15.7566C38.722 15.7952 39.1783 15.8804 39.4756 15.946C39.7728 16.0117 40.047 16.0346 40.0849 15.997C40.2071 15.8754 38.7821 13.2161 38.054 12.2067C35.1674 8.20535 30.7342 5.44846 26.3086 4.90259C24.7165 4.70613 21.7762 4.70926 20.313 4.90897ZM20.9881 9.50351C16.8363 10.252 13.2899 12.8305 11.3831 16.4876C10.3214 18.5239 9.84868 20.4368 9.84868 22.6971C9.84868 24.7594 10.2122 26.4316 11.0586 28.2631C11.4398 29.088 11.4898 29.144 12.0886 29.4214C12.7108 29.7096 14.1942 30.2491 14.3643 30.2491C14.4126 30.2491 14.1801 29.8721 13.8476 29.4112C13.2284 28.5532 12.5579 27.2654 12.3212 26.4795C12.1971 26.0677 12.2145 25.9863 12.581 25.2626C13.8516 22.754 15.6929 21.422 18.6815 20.8496C19.0528 20.7785 20.9009 20.6808 22.7884 20.6327C26.5615 20.5364 26.9521 20.4776 28.3582 19.7928C28.7914 19.5818 29.4586 19.1578 29.8408 18.8505L30.5359 18.2918L30.6138 19.04C30.7458 20.3057 31.1829 21.7919 31.7457 22.8884C32.1845 23.7435 32.4667 24.1139 33.3369 24.9778C34.5566 26.1885 34.5299 26.0254 33.7699 27.6199C32.6384 29.9934 30.8213 31.8445 28.4707 33.0184C27.9756 33.2657 27.3594 33.5308 27.1015 33.6077C26.735 33.7169 26.5563 33.8643 26.2836 34.2827C25.7233 35.1426 24.4253 35.8432 23.3924 35.8432C22.4818 35.8432 21.4104 35.4864 20.8756 35.0051C20.6156 34.771 20.46 34.7473 18.818 34.6916L17.0415 34.6312L16.4386 35.1533C14.926 36.4632 12.3078 37.572 8.8809 38.3538L7.26072 38.7235V36.0214V33.3195L6.44496 33.1C5.99634 32.9792 5.56595 32.8637 5.48854 32.8432C5.37793 32.8139 5.34789 33.6567 5.34789 36.786V40.766H5.67082C6.19021 40.766 8.55875 40.3331 9.9612 39.9819C13.7041 39.0447 16.5392 37.6936 18.1739 36.0682L18.8608 35.3851L20.0089 35.6798C22.1507 36.2297 24.8415 36.1849 26.997 35.5632L27.9081 35.3005L28.6359 36.027C29.9132 37.3021 31.7785 38.3615 34.2202 39.1988C36.2743 39.9029 39.0462 40.5496 40.7635 40.725L41.4667 40.7969V36.7537C41.4667 33.9043 41.4304 32.7105 41.3437 32.7105C41.2761 32.7105 40.8457 32.8429 40.3873 33.0047L39.5539 33.2989V35.9696C39.5539 38.1521 39.5257 38.6402 39.4002 38.6402C39.1901 38.6402 36.9396 38.1293 36.1783 37.9086C34.2483 37.3495 32.4965 36.5872 31.2234 35.7528C30.4522 35.2472 29.6574 34.5458 29.7729 34.4724C32.6401 32.6505 34.2612 30.9243 35.4479 28.4292C38.8987 21.1742 35.1926 12.5393 27.5394 10.0025C25.5614 9.34688 22.9574 9.14851 20.9881 9.50351ZM25.1085 11.288C26.3586 11.5016 27.5556 11.894 28.6164 12.4379C29.6959 12.9915 30.8899 13.8764 30.8899 14.1229C30.8899 14.2301 30.6855 14.738 30.4357 15.2516C29.8444 16.4674 28.7091 17.629 27.5998 18.1534C26.4232 18.7096 25.4896 18.8371 22.596 18.8371C16.9089 18.8371 14.2499 19.8167 11.9637 22.7538L11.6596 23.1446L11.6543 22.46C11.6434 21.041 12.1764 18.9011 12.8912 17.4946C13.7381 15.828 15.2502 14.1511 16.876 13.0755C19.346 11.4412 22.2785 10.8046 25.1085 11.288ZM32.9864 16.3478C33.4586 17.0668 34.0256 18.201 34.2866 18.9486C34.763 20.3125 35.0416 22.3669 34.8878 23.3818L34.8051 23.9278L34.2527 23.3312C33.2485 22.2467 32.5716 20.5173 32.4002 18.5981C32.3204 17.7052 32.4299 15.8163 32.5615 15.8163C32.6033 15.8163 32.7945 16.0554 32.9864 16.3478ZM18.5317 23.209C18.0407 23.3123 17.5269 23.8124 17.3671 24.3426C17.191 24.9273 17.3902 25.5429 17.8991 25.9872C18.2372 26.2824 18.3845 26.3332 18.9018 26.3332C19.5732 26.3332 20.0587 26.0354 20.3733 25.4305C20.9809 24.262 19.8738 22.9267 18.5317 23.209ZM27.3455 23.2019C26.2461 23.4354 25.7423 24.4768 26.2322 25.5034C26.713 26.5109 28.2389 26.6256 28.9641 25.7088C29.8525 24.5858 28.7644 22.9005 27.3455 23.2019ZM12.037 41.9402C9.87883 42.5191 8.21365 43.7556 7.11591 45.5943C6.58234 46.4882 6.26391 47.4922 6.12799 48.7096C5.86706 51.0473 5.12285 58.1978 5.12285 58.3674C5.12285 58.5425 6.36574 58.5552 23.476 58.5552H41.8294L41.7658 58.1916C41.7308 57.9916 41.4974 55.8141 41.2471 53.3527C40.9967 50.8913 40.7129 48.4495 40.6165 47.9264C40.1921 45.6248 38.6782 43.6553 36.4919 42.5604C35.2008 41.9137 34.3276 41.7588 32.1864 41.797L30.3886 41.8289L26.9495 45.9599C25.0581 48.232 23.4714 50.085 23.4236 50.0777C23.3759 50.0704 21.7178 48.1989 19.7392 45.9187L16.1416 41.7729L14.3734 41.7803C13.2568 41.7849 12.396 41.8439 12.037 41.9402Z" fill="black"/>
</g>
<defs>
<filter id="filter0_d_107_35" x="0.905273" y="0.145234" width="49.2476" height="61.8459" filterUnits="userSpaceOnUse" color-interpolation-filters="sRGB">
<feFlood flood-opacity="0" result="BackgroundImageFix"/>
<feColorMatrix in="SourceAlpha" type="matrix" values="0 0 0 0 0 0 0 0 0 0 0 0 0 0 0 0 0 0 127 0" result="hardAlpha"/>
<feOffset dx="2.29059" dy="1.14529"/>
<feGaussianBlur stdDeviation="1.14529"/>
<feColorMatrix type="matrix" values="0 0 0 0 0 0 0 0 0 0 0 0 0 0 0 0 0 0 0.25 0"/>
<feBlend mode="normal" in2="BackgroundImageFix" result="effect1_dropShadow_107_35"/>
<feBlend mode="normal" in="SourceGraphic" in2="effect1_dropShadow_107_35" result="shape"/>
</filter>
</defs>
</svg>
