<svg xmlns="http://www.w3.org/2000/svg" viewBox="0 0 150.358 28.491"><defs><style>.a{fill:#9f9f9f;fill-rule:evenodd;}</style></defs><path class="a" d="M85.424,58.865c-5.479,4.051-13.448,6.21-20.322,6.21a36.847,36.847,0,0,1-24.838-9.464c-.5-.465-.066-1.1.565-.731a49.911,49.911,0,0,0,24.838,6.575A49.419,49.419,0,0,0,84.627,57.57C85.557,57.2,86.354,58.2,85.424,58.865Z" transform="translate(-26.749 -36.584)"/><path class="a" d="M169.789,54.364c-.7-.9-4.649-.432-6.409-.2-.531.066-.631-.4-.133-.731,3.155-2.225,8.3-1.561,8.9-.83s-.166,5.911-3.121,8.368c-.465.365-.9.166-.7-.332C168.992,58.946,170.486,55.26,169.789,54.364Z" transform="translate(-108.823 -34.673)"/><path class="a" d="M163.465,3.99V1.831A.505.505,0,0,1,164,1.3h9.63a.553.553,0,0,1,.565.531V3.658c0,.3-.266.7-.731,1.361l-4.981,7.106a10.818,10.818,0,0,1,5.479,1.162.989.989,0,0,1,.5.83v2.291c0,.332-.332.7-.7.5a10.985,10.985,0,0,0-10.161.033.521.521,0,0,1-.7-.5V14.25a2.481,2.481,0,0,1,.365-1.461l5.811-8.268h-5.014A.584.584,0,0,1,163.465,3.99Z" transform="translate(-108.807 -0.868)"/><path class="a" d="M51.953,16.871H49.031a.6.6,0,0,1-.531-.5V1.363a.553.553,0,0,1,.565-.531h2.723a.541.541,0,0,1,.531.5V3.289h.066A3.87,3.87,0,0,1,56.237.5c1.826,0,2.989.9,3.785,2.789A4.162,4.162,0,0,1,64.074.5a4.116,4.116,0,0,1,3.387,1.66c.93,1.262.731,3.088.731,4.715v9.5a.553.553,0,0,1-.565.531H64.7a.571.571,0,0,1-.531-.531V8.4a19.917,19.917,0,0,0-.066-2.823,1.54,1.54,0,0,0-1.727-1.3,1.955,1.955,0,0,0-1.76,1.229A9.2,9.2,0,0,0,60.355,8.4v7.969a.553.553,0,0,1-.564.531H56.868a.571.571,0,0,1-.531-.531V8.4c0-1.66.266-4.151-1.793-4.151-2.092,0-2.026,2.391-2.026,4.151v7.969A.55.55,0,0,1,51.953,16.871Z" transform="translate(-32.395 -0.334)"/><path class="a" d="M208.608.4c4.35,0,6.674,3.752,6.674,8.5,0,4.582-2.59,8.235-6.708,8.235-4.25-.033-6.575-3.752-6.575-8.4C202,4.053,204.358.4,208.608.4Zm.033,3.088c-2.158,0-2.291,2.955-2.291,4.782s-.033,5.745,2.258,5.745c2.258,0,2.391-3.155,2.391-5.081a14.529,14.529,0,0,0-.432-3.985A1.858,1.858,0,0,0,208.641,3.488Z" transform="translate(-134.924 -0.267)"/><path class="a" d="M252.053,16.871h-2.922a.571.571,0,0,1-.531-.531V1.3a.574.574,0,0,1,.565-.5h2.723a.568.568,0,0,1,.531.432V3.522h.066C253.315,1.463,254.444.5,256.47.5a3.867,3.867,0,0,1,3.42,1.76c.764,1.2.764,3.221.764,4.682v9.464a.546.546,0,0,1-.564.465h-2.922a.6.6,0,0,1-.531-.465V8.237c0-1.66.2-4.051-1.826-4.051a1.922,1.922,0,0,0-1.694,1.2,6.894,6.894,0,0,0-.465,2.856v8.1A.61.61,0,0,1,252.053,16.871Z" transform="translate(-166.05 -0.334)"/><path class="a" d="M290.4,43.461a1.429,1.429,0,1,1,1.428,1.361A1.4,1.4,0,0,1,290.4,43.461Z" transform="translate(-193.97 -28.12)"/><path class="a" d="M382.731,16.67a.525.525,0,0,1-.531-.531V1.1a.569.569,0,0,1,.531-.5h1.063a.574.574,0,0,1,.565.5V3.288A4.615,4.615,0,0,1,388.343.2h.2c1.893,0,3.321,1.395,3.819,3.453.8-2.026,2.324-3.453,4.35-3.453h.232a4.029,4.029,0,0,1,3.487,2.324,10.143,10.143,0,0,1,.664,4.582v9.032a.525.525,0,0,1-.531.531h-1.3a.537.537,0,0,1-.531-.465V7.074a7.351,7.351,0,0,0-.4-3.188,2.6,2.6,0,0,0-2.225-1.66,3.405,3.405,0,0,0-2.557,1.793A6.793,6.793,0,0,0,392.793,8v8.2a.568.568,0,0,1-.531.465h-1.3a.524.524,0,0,1-.531-.531V6.509a6.287,6.287,0,0,0-.465-2.723,2.826,2.826,0,0,0-2.225-1.561,3.372,3.372,0,0,0-2.391,1.594,6.419,6.419,0,0,0-.863,3.653v8.667a.525.525,0,0,1-.531.531Z" transform="translate(-255.286 -0.134)"/><path class="a" d="M345.11,16.969c-4.151,0-6.01-4.25-6.01-8.468,0-4.45,2.192-8.3,6.376-8.3h.2c4.084,0,6.11,4.118,6.11,8.335,0,4.483-2.225,8.434-6.442,8.434h-.232Zm.3-2.059a3.506,3.506,0,0,0,3.088-2.291,10.153,10.153,0,0,0,.7-4.118,9.259,9.259,0,0,0-.863-4.383,3.151,3.151,0,0,0-5.911.365,10.251,10.251,0,0,0-.7,4.018,10.722,10.722,0,0,0,.8,4.383A3.4,3.4,0,0,0,345.409,14.91Z" transform="translate(-226.498 -0.134)"/><path class="a" d="M306.144,14.844c1.86-.066,2.856-1.561,3.254-3.487a.568.568,0,0,1,.531-.432h1.229a.5.5,0,0,1,.531.5c-.564,3.287-2.557,5.545-5.379,5.545h-.2c-4.118,0-5.911-4.151-5.911-8.335S301.993.2,306.144.2h.2c2.856,0,4.914,2.192,5.346,5.512a.564.564,0,0,1-.5.5h-1.3a.637.637,0,0,1-.5-.531c-.3-1.826-1.361-3.321-3.121-3.354-2.789.1-3.619,3.553-3.619,6.21C302.691,11.025,303.355,14.777,306.144,14.844Z" transform="translate(-200.515 -0.134)"/><path class="a" d="M124.134,9.331a5.937,5.937,0,0,1-.531,3.121,2.35,2.35,0,0,1-2.026,1.328c-1.129,0-1.793-.863-1.793-2.125,0-2.49,2.225-2.955,4.35-2.955Zm2.955,7.139a.6.6,0,0,1-.7.066,7.333,7.333,0,0,1-1.694-1.959,5.817,5.817,0,0,1-4.815,2.125,4.159,4.159,0,0,1-4.383-4.549,4.971,4.971,0,0,1,3.121-4.782,20.731,20.731,0,0,1,5.512-1.029V5.977a3.587,3.587,0,0,0-.365-2.125,1.966,1.966,0,0,0-1.627-.764,2.211,2.211,0,0,0-2.358,1.76c-.066.266-.232.531-.5.531l-2.823-.3a.511.511,0,0,1-.432-.6C116.662,1.029,119.784,0,122.573,0a6.572,6.572,0,0,1,4.416,1.461c1.428,1.328,1.3,3.121,1.3,5.047v4.549a4.114,4.114,0,0,0,1.1,2.723c.2.266.232.6,0,.764-.631.5-1.694,1.428-2.291,1.926Z" transform="translate(-77.147 0)"/><path class="a" d="M8.634,9.331A5.937,5.937,0,0,1,8.1,12.452a2.35,2.35,0,0,1-2.026,1.328c-1.129,0-1.793-.863-1.793-2.125,0-2.49,2.225-2.955,4.35-2.955Zm2.955,7.139a.6.6,0,0,1-.7.066A7.332,7.332,0,0,1,9.2,14.577,5.817,5.817,0,0,1,4.383,16.7C1.926,16.736,0,15.208,0,12.153A4.971,4.971,0,0,1,3.121,7.372,20.731,20.731,0,0,1,8.634,6.342V5.977a3.587,3.587,0,0,0-.365-2.125,1.937,1.937,0,0,0-1.627-.731,2.211,2.211,0,0,0-2.358,1.76c-.066.266-.232.531-.5.531l-2.823-.3a.511.511,0,0,1-.432-.6C1.129,1.029,4.25,0,7.04,0a6.572,6.572,0,0,1,4.416,1.461c1.428,1.328,1.3,3.121,1.3,5.047v4.549a4.114,4.114,0,0,0,1.1,2.723c.2.266.232.6,0,.764-.631.5-1.694,1.428-2.258,1.926Z" transform="translate(0 0)"/><path class="a" d="M445.128,1.366a1.3,1.3,0,1,1-1.3,1.3A1.318,1.318,0,0,1,445.128,1.366Zm0-.266a1.527,1.527,0,1,0,0,3.055,1.545,1.545,0,0,0,1.527-1.527A1.523,1.523,0,0,0,445.128,1.1Zm-.564,2.424h.332v-.7h.3c.133,0,.166.033.166.133,0,.033.066.465.066.531h.365c-.033-.066-.066-.332-.1-.465-.033-.232-.033-.365-.3-.4a.386.386,0,0,0,.332-.432c0-.465-.4-.465-.6-.465h-.6V3.524Zm.332-1.461h.266c.1,0,.266,0,.266.232,0,.1-.033.232-.266.232H444.9Z" transform="translate(-296.298 -0.735)"/></svg>