<svg xmlns="http://www.w3.org/2000/svg" viewBox="0 0 96.374 57.16"><defs><style>.a{fill:#9f9f9f;}</style></defs><g transform="translate(62.07 4.331)"><path class="a" d="M323.783,26.868v-.45h0a6.675,6.675,0,0,0-6.646-6.218,6.572,6.572,0,0,0-5.231,2.551,6.667,6.667,0,0,0-5.231-2.551h-.043a6.572,6.572,0,0,0-5.231,2.551,6.654,6.654,0,0,0-11.878,3.666H289.5v.75c0,.343.129,8.555,11.556,14.451l.343.172.343-.172a29.3,29.3,0,0,0,4.91-3.173,29.3,29.3,0,0,0,4.91,3.173l.343.172.343-.172c11.428-5.9,11.556-14.108,11.556-14.451v-.15A.365.365,0,0,1,323.783,26.868Zm-17.174-5.146a5.165,5.165,0,0,1,5.146,5.167v.279l-.021.364c-.107,1.136-.815,5.038-5.124,8.962-4.245-3.859-5-7.761-5.124-8.941l-.021-.386v-.279A5.165,5.165,0,0,1,306.609,21.722ZM301.356,40.1c-8.876-4.717-10.184-10.742-10.377-12.457l-.021-.493v-.279a5.166,5.166,0,0,1,9.584-2.68,6.956,6.956,0,0,0-.557,2.23h-.021v.75c0,.214.064,5.253,5.489,10.27A25.384,25.384,0,0,1,301.356,40.1Zm20.9-12.95-.021.407c-.15,1.587-1.351,7.761-10.377,12.543a26.921,26.921,0,0,1-4.1-2.659c5.424-5.017,5.489-10.055,5.489-10.27V26.4h0a6,6,0,0,0-.557-2.23,5.166,5.166,0,0,1,9.584,2.68A1.52,1.52,0,0,0,322.261,27.147Z" transform="translate(-289.5 -20.2)"/><path class="a" d="M358.594,42.389a2.894,2.894,0,1,0-2.894-2.894A2.9,2.9,0,0,0,358.594,42.389Zm0-4.567a1.672,1.672,0,1,1-1.672,1.672A1.674,1.674,0,0,1,358.594,37.822Z" transform="translate(-341.507 -33.084)"/></g><path class="a" d="M7.2,10.592a9.041,9.041,0,0,1,3.516.793V.686A.705.705,0,0,1,11.406,0h2.1a.705.705,0,0,1,.686.686V24.871a.705.705,0,0,1-.686.686H12.414c-.322,0-.557-.257-.665-.622l-.3-1.051a6.547,6.547,0,0,1-4.631,2.037C2.959,25.921,0,22.448,0,18.267A7.36,7.36,0,0,1,7.2,10.592Zm.064,12.2A3.938,3.938,0,0,0,10.742,20.6v-5.96a6.077,6.077,0,0,0-3.173-.879,4.242,4.242,0,0,0-4.159,4.481C3.388,20.711,4.931,22.791,7.268,22.791Z"/><path class="a" d="M87.375,55.125a10.74,10.74,0,0,1,2.894.429c.043-2.294-.407-3.216-2.273-3.216A14.929,14.929,0,0,0,83.9,53c-.429.107-.686-.193-.793-.579l-.3-1.351a.657.657,0,0,1,.472-.836,15.185,15.185,0,0,1,5.038-.836c4.674,0,5.1,2.852,5.1,6.5v7.783a.705.705,0,0,1-.686.686H91.706c-.322,0-.472-.15-.622-.515l-.364-.986a6.273,6.273,0,0,1-4.5,1.865A4.537,4.537,0,0,1,81.5,59.841C81.543,57.183,83.644,55.125,87.375,55.125Zm-.429,7.011a4.3,4.3,0,0,0,3.28-1.822V57.976a5.447,5.447,0,0,0-2.551-.579c-1.758,0-2.959.922-2.959,2.4A2.191,2.191,0,0,0,86.946,62.136Z" transform="translate(-64.026 -38.808)"/><path class="a" d="M151.33,36.6h-1.544a.677.677,0,0,1-.686-.686V34.267a.665.665,0,0,1,.686-.686h1.544V29.529a.705.705,0,0,1,.686-.686l2.08-.043a.687.687,0,0,1,.665.686v4.1h3.731a.665.665,0,0,1,.686.686v1.651a.691.691,0,0,1-.686.686H154.76v7.247c0,1.244.472,1.458,1.179,1.458a5.7,5.7,0,0,0,2.23-.665.548.548,0,0,1,.836.322l.665,1.608a.6.6,0,0,1-.322.879,11.349,11.349,0,0,1-4.267,1.093c-2.894,0-3.731-1.758-3.731-4.352V36.6Z" transform="translate(-117.133 -22.625)"/><path class="a" d="M216.467,49.4a6.572,6.572,0,0,1,6.711,6.754c0,.257-.043.729-.064.986a.674.674,0,0,1-.665.622h-9.927a4.22,4.22,0,0,0,4.2,3.9,6.307,6.307,0,0,0,3.259-1.051c.429-.257.686-.407.986-.043L222,61.964c.257.3.364.579-.064.943a8.323,8.323,0,0,1-5.4,1.822c-4.417,0-7.333-3.473-7.333-7.676A7.283,7.283,0,0,1,216.467,49.4Zm3.323,6.068a3.455,3.455,0,0,0-3.366-3.259,3.69,3.69,0,0,0-3.731,3.259Z" transform="translate(-164.345 -38.808)"/><path class="a" d="M74.421,144.951a.705.705,0,0,1,.686-.686h1.051a.585.585,0,0,1,.579.429l.429,1.244a7.424,7.424,0,0,1,5.1-2.037c4.46,0,6.089,3.13,6.089,6.947v7.333a.705.705,0,0,1-.686.686h-2.08a.677.677,0,0,1-.686-.686V150.7c0-2.337-1.136-3.623-3.023-3.623a4.812,4.812,0,0,0-4.052,2.187v8.919c0,.472-.214.686-.836.686H75.086a.705.705,0,0,1-.686-.686V144.951Z" transform="translate(-58.448 -113.047)"/><path class="a" d="M161,146.286a.705.705,0,0,1,.686-.686h2.08a.705.705,0,0,1,.686.686v13.229a.705.705,0,0,1-.686.686h-2.08a.705.705,0,0,1-.686-.686Z" transform="translate(-126.481 -114.383)"/><path class="a" d="M194.937,153.827a5.843,5.843,0,0,1-1.136-3.538,6.258,6.258,0,0,1,6.282-6.389h6.389a.665.665,0,0,1,.686.686v.922c0,.257-.15.579-.407.622l-2.015.557a4.914,4.914,0,0,1,1.565,3.9,5.968,5.968,0,0,1-6.218,5.96,10.645,10.645,0,0,1-3.173-.579,2.008,2.008,0,0,0-1.5,1.78,1.568,1.568,0,0,0,1.758,1.5h4.974c3.173,0,5.725,1.715,5.725,4.888,0,3.216-2.916,6.068-7.783,6.068-5.146,0-7.225-2.637-7.225-5a4.017,4.017,0,0,1,2.144-3.43v-.107a3.75,3.75,0,0,1-2.7-3.645A5.152,5.152,0,0,1,194.937,153.827Zm5.146,13.379c2.23,0,4.159-1.136,4.159-2.894,0-.579-.364-2.08-2.744-2.08-1.051,0-2.144,0-3.216.064-.214.064-2.015.665-2.015,2.294C196.288,166.091,197.853,167.206,200.083,167.206Zm3.152-16.852a3.082,3.082,0,0,0-3.066-3.366,3.37,3.37,0,0,0,0,6.732A3.082,3.082,0,0,0,203.235,150.354Z" transform="translate(-151.07 -113.047)"/><path class="a" d="M277.7,95.186a.705.705,0,0,1,.686-.686h2.123a.705.705,0,0,1,.686.686v11.471a7.484,7.484,0,0,1,4.374-1.565c4.117,0,6.089,2.959,6.089,6.947v7.333a.705.705,0,0,1-.686.686h-2.037a.677.677,0,0,1-.686-.686v-7.418c0-2.38-1.2-3.688-3.109-3.688a4.52,4.52,0,0,0-3.945,2.294v8.791a.654.654,0,0,1-.729.686h-2.08a.705.705,0,0,1-.686-.686V95.186Z" transform="translate(-218.16 -74.239)"/><path class="a" d="M360.008,131.1h-1.522a.677.677,0,0,1-.686-.686v-1.651a.665.665,0,0,1,.686-.686h1.544v-4.052a.705.705,0,0,1,.686-.686l2.08-.043a.687.687,0,0,1,.665.686v4.1h3.731a.665.665,0,0,1,.686.686v1.651a.691.691,0,0,1-.686.686H363.46v7.225c0,1.244.472,1.458,1.179,1.458a5.7,5.7,0,0,0,2.23-.665.548.548,0,0,1,.836.322l.665,1.608a.6.6,0,0,1-.322.879,11.349,11.349,0,0,1-4.267,1.093c-2.894,0-3.731-1.758-3.731-4.352V131.1Z" transform="translate(-281.087 -96.864)"/><g transform="translate(59.668 49.013)"><path class="a" d="M281.795,228.6a3.806,3.806,0,0,1,2.358.9.162.162,0,0,1,.021.257l-.772.815a.2.2,0,0,1-.257,0,1.76,1.76,0,0,0-1.265-.472,1.941,1.941,0,0,0,0,3.881,2.412,2.412,0,0,0,.858-.15v-.557h-.6a.189.189,0,0,1-.193-.172v-.965a.192.192,0,0,1,.193-.193h1.951a.175.175,0,0,1,.172.193v2.594a.217.217,0,0,1-.086.15,4.884,4.884,0,0,1-2.4.622,3.452,3.452,0,1,1,.021-6.9Z" transform="translate(-278.3 -228.6)"/><path class="a" d="M313.7,229.193a.192.192,0,0,1,.193-.193h1.179a.192.192,0,0,1,.193.193v3.924a1.173,1.173,0,0,0,1.179,1.222,1.19,1.19,0,0,0,1.2-1.222v-3.924a.192.192,0,0,1,.193-.193h1.179a.192.192,0,0,1,.193.193v3.988a2.756,2.756,0,0,1-5.51,0Z" transform="translate(-306.11 -228.914)"/><path class="a" d="M348.4,229.193a.192.192,0,0,1,.193-.193h1.158a.192.192,0,0,1,.193.193v6.389a.192.192,0,0,1-.193.193h-1.158a.192.192,0,0,1-.193-.193Z" transform="translate(-333.37 -228.914)"/><path class="a" d="M365.1,229.193a.189.189,0,0,1,.172-.193h2.358a3.377,3.377,0,1,1,0,6.754h-2.358a.175.175,0,0,1-.172-.193Zm2.444,5.146a1.963,1.963,0,0,0,0-3.924h-.922v3.924Z" transform="translate(-346.49 -228.914)"/><path class="a" d="M400.1,229.193a.192.192,0,0,1,.193-.193H404.3a.192.192,0,0,1,.193.193v1.051a.192.192,0,0,1-.193.193h-2.68v1.2h2.208a.192.192,0,0,1,.193.193v1.051a.192.192,0,0,1-.193.193h-2.208v1.308h2.68a.192.192,0,0,1,.193.193v1.051a.192.192,0,0,1-.193.193h-4.009a.192.192,0,0,1-.193-.193Z" transform="translate(-373.986 -228.914)"/></g></svg>