<svg xmlns="http://www.w3.org/2000/svg" viewBox="0 0 151.034 30.651"><defs><style>.a{fill:#9f9f9f;}</style></defs><g transform="translate(0 9.551)"><path class="a" d="M.444,24.9a.239.239,0,0,1-.222-.222C.111,18.462.111,15.241,0,9.022A.239.239,0,0,1,.222,8.8h6.33a.239.239,0,0,1,.222.222V10.8a.239.239,0,0,1-.222.222H2.665a.239.239,0,0,0-.222.222v3.665a.239.239,0,0,0,.222.222H5.22a.239.239,0,0,1,.222.222v1.777a.239.239,0,0,1-.222.222H2.665a.239.239,0,0,0-.222.222v7a.239.239,0,0,1-.222.222A10.162,10.162,0,0,1,.444,24.9" transform="translate(0 -8.578)"/><path class="a" d="M10.11,8.8a.239.239,0,0,1,.222.222V22.349a.239.239,0,0,0,.222.222h4.22a.239.239,0,0,1,.222.222V24.57a.239.239,0,0,1-.222.222H8.222A.239.239,0,0,1,8,24.57c.111-6.108.111-9.218,0-15.548A.239.239,0,0,1,8.222,8.8H10.11" transform="translate(0.884 -8.578)"/><path class="a" d="M18.2,8.922a.842.842,0,0,1,.444-.222h3a.842.842,0,0,1,.444.222c.777.666,1.111,1.111,1.888,1.777a.842.842,0,0,1,.222.444c0,4.553-.111,6.885-.111,11.439a.842.842,0,0,1-.222.444c-.777.666-1.111,1.111-1.777,1.777a.842.842,0,0,1-.444.222H18.754a.842.842,0,0,1-.444-.222c-.777-.666-1.111-1.111-1.777-1.777a.842.842,0,0,1-.222-.444c0-4.553-.111-6.885-.111-11.439a.842.842,0,0,1,.222-.444c.666-.666,1.111-1,1.777-1.777m3.443,13.1a.842.842,0,0,0,.222-.444V12.032a.842.842,0,0,0-.222-.444l-.444-.444a.842.842,0,0,0-.444-.222h-1a.842.842,0,0,0-.444.222c-.222.222-.333.222-.444.444a.842.842,0,0,0-.222.444v9.551a.842.842,0,0,0,.222.444l.444.444a.842.842,0,0,0,.444.222h1a.842.842,0,0,0,.444-.222l.444-.444" transform="translate(1.791 -8.589)"/><path class="a" d="M34.085,16.463a.842.842,0,0,1-.222.444l-.666.666c-.111.111-.222.333-.111.444L34.2,24.681a.239.239,0,0,1-.222.222H32.2c-.111,0-.333-.111-.333-.222-.333-2.221-.555-3.332-.888-5.553,0-.111-.111-.222-.333-.222H28.865a.239.239,0,0,0-.222.222v5.553a.239.239,0,0,1-.222.222H26.644c-.111,0-.222-.111-.333-.222,0-6.219,0-9.44-.111-15.659a.239.239,0,0,1,.222-.222h5.22a.842.842,0,0,1,.444.222c.777.666,1.111,1.111,1.777,1.777a.842.842,0,0,1,.222.444c.111,2,0,3.11,0,5.22m-2.554-.555a.842.842,0,0,0,.222-.444V12.021a.842.842,0,0,0-.222-.444l-.444-.444a.842.842,0,0,0-.444-.222H28.754a.239.239,0,0,0-.222.222v5.109a.239.239,0,0,0,.222.222h1.888c.111,0,.333-.111.444-.111a.867.867,0,0,0,.444-.444" transform="translate(2.896 -8.578)"/><path class="a" d="M36.622,11.021A.239.239,0,0,1,36.4,10.8V9.022a.239.239,0,0,1,.222-.222H43.4a.239.239,0,0,1,.222.222V10.8a.239.239,0,0,1-.222.222H41.509a.239.239,0,0,0-.222.222c0,4.442,0,6.663-.111,11.105a.239.239,0,0,0,.222.222h1.888a.239.239,0,0,1,.222.222V24.57a.239.239,0,0,1-.222.222H36.844a.239.239,0,0,1-.222-.222V22.793a.239.239,0,0,1,.222-.222h1.777a.239.239,0,0,0,.222-.222V11.243a.239.239,0,0,0-.222-.222h-2" transform="translate(4.024 -8.578)"/><path class="a" d="M45.233,24.9a.239.239,0,0,1-.222-.222c-.111-6.219-.111-9.44-.111-15.659a.239.239,0,0,1,.222-.222h5.331a.842.842,0,0,1,.444.222c.777.666,1.111,1.111,1.888,1.777a.842.842,0,0,1,.222.444c-.222,4.442-.222,6.774-.222,11.328a.842.842,0,0,1-.222.444c-.666.666-1.111,1-1.777,1.777a.842.842,0,0,1-.444.222c-2-.111-3-.111-5.109-.111m4.109-2.221a.842.842,0,0,0,.444-.222l.444-.444a.842.842,0,0,0,.222-.444V12.021a.842.842,0,0,0-.222-.444l-.444-.444a.842.842,0,0,0-.444-.222H47.454a.239.239,0,0,0-.222.222V22.238a.239.239,0,0,0,.222.222,5.824,5.824,0,0,0,1.888.222" transform="translate(4.964 -8.578)"/><path class="a" d="M57.965,8.922c0-.111.222-.222.333-.222h1.777c.111,0,.333.111.333.222,1.666,6.219,2.443,9.44,4,15.659,0,.111,0,.222-.222.222H62.3c-.111,0-.222-.111-.333-.222l-.555-2.221c0-.111-.222-.222-.333-.222H57.521c-.111,0-.333.111-.333.222a15.724,15.724,0,0,0-.444,2.221c0,.111-.111.222-.333.222H54.522a.239.239,0,0,1-.222-.222c1.444-6.219,2.221-9.329,3.665-15.659m0,10.661a.239.239,0,0,0,.222.222H60.63a.239.239,0,0,0,.222-.222c-.555-2.221-.888-3.332-1.444-5.442,0-.111-.111-.111-.111,0-.555,2.221-.888,3.221-1.333,5.442" transform="translate(6.003 -8.589)"/><path class="a" d="M69,9.022a.239.239,0,0,1,.222-.222h5.331A.842.842,0,0,1,75,9.022c.777.666,1.111,1.111,1.888,1.777a.842.842,0,0,1,.222.444v4a.842.842,0,0,1-.222.444l-.666.666a.208.208,0,0,0,0,.333l.666.666a.842.842,0,0,1,.222.444c0,2,0,3-.111,4.886a.842.842,0,0,1-.222.444c-.666.666-1.111,1-1.777,1.777a.842.842,0,0,1-.444.222H69.444a.239.239,0,0,1-.222-.222c-.111-6.441-.111-9.662-.222-15.881m2.665,2a.239.239,0,0,0-.222.222v3.776a.239.239,0,0,0,.222.222h1.888A.842.842,0,0,0,74,15.019c.222-.222.333-.222.444-.444a.842.842,0,0,0,.222-.444v-2.11a.842.842,0,0,0-.222-.444L74,11.132a.842.842,0,0,0-.444-.222,10.161,10.161,0,0,1-1.888.111m2.776,10.994a.842.842,0,0,0,.222-.444v-3a.842.842,0,0,0-.222-.444L74,17.684a.842.842,0,0,0-.444-.222H71.665a.239.239,0,0,0-.222.222v4.664a.239.239,0,0,0,.222.222h1.888A.842.842,0,0,0,74,22.349c.222,0,.333-.111.444-.333" transform="translate(7.628 -8.578)"/><path class="a" d="M85.063,10.821a.239.239,0,0,1-.222.222H80.954a.239.239,0,0,0-.222.222v3a.239.239,0,0,0,.222.222h2.887a.239.239,0,0,1,.222.222v1.777a.239.239,0,0,1-.222.222H80.954a.239.239,0,0,0-.222.222V22.26a.239.239,0,0,0,.222.222H84.73a.239.239,0,0,1,.222.222v1.777a.239.239,0,0,1-.222.222h-6a.239.239,0,0,1-.222-.222C78.4,18.262,78.4,15.152,78.4,8.822a.239.239,0,0,1,.222-.222h6.33a.239.239,0,0,1,.222.222,14.244,14.244,0,0,0-.111,2" transform="translate(8.667 -8.6)"/><path class="a" d="M93.063,10.821a.239.239,0,0,1-.222.222H88.954a.239.239,0,0,0-.222.222v3a.239.239,0,0,0,.222.222h2.887a.239.239,0,0,1,.222.222v1.777a.239.239,0,0,1-.222.222H88.954a.239.239,0,0,0-.222.222V22.26a.239.239,0,0,0,.222.222H92.73a.239.239,0,0,1,.222.222v1.777a.239.239,0,0,1-.222.222h-6a.239.239,0,0,1-.222-.222c0-6.219,0-9.329-.111-15.659a.239.239,0,0,1,.222-.222h6.33a.239.239,0,0,1,.222.222,13.477,13.477,0,0,0-.111,2" transform="translate(9.551 -8.6)"/><path class="a" d="M102.1,16.463a.842.842,0,0,1-.222.444l-.666.666c-.111.111-.222.333-.111.444l1.111,6.663a.239.239,0,0,1-.222.222h-1.777c-.111,0-.333-.111-.333-.222-.333-2.221-.555-3.332-1-5.553,0-.111-.111-.222-.333-.222H96.765a.239.239,0,0,0-.222.222v5.553a.239.239,0,0,1-.222.222H94.544c-.111,0-.222-.111-.333-.222-.111-6.219-.111-9.44-.111-15.659a.239.239,0,0,1,.222-.222h5.22a.842.842,0,0,1,.444.222c.777.666,1.111,1.111,1.888,1.777a.842.842,0,0,1,.222.444c.111,2,0,3.11,0,5.22m-2.554-.555a.842.842,0,0,0,.222-.444V12.021a.842.842,0,0,0-.222-.444c-.222-.222-.333-.222-.444-.444a.842.842,0,0,0-.444-.222H96.765a.239.239,0,0,0-.222.222v5.109a.239.239,0,0,0,.222.222h1.888a.842.842,0,0,0,.444-.222c.222,0,.333-.111.444-.333" transform="translate(10.402 -8.578)"/><path class="a" d="M110.2,8.922a.842.842,0,0,1,.444-.222h3c.111,0,.333.111.444.111.777.666,1.111,1.111,1.888,1.777a.577.577,0,0,1,.222.444v2.221a.239.239,0,0,1-.222.222H114.2a.239.239,0,0,1-.222-.222V12.032a.842.842,0,0,0-.222-.444c-.222-.222-.333-.222-.444-.444a.668.668,0,0,0-.444-.111h-1a.842.842,0,0,0-.444.222c-.222.222-.333.222-.444.444a.842.842,0,0,0-.222.444c.111,3.776.111,5.775.111,9.551a.842.842,0,0,0,.222.444l.444.444c.111.111.333.222.444.111h1a.842.842,0,0,0,.444-.222l.444-.444a.842.842,0,0,0,.222-.444V20.361a.239.239,0,0,1,.222-.222h1.777a.239.239,0,0,1,.222.222v2.221a.842.842,0,0,1-.222.444L114.308,24.8a.842.842,0,0,1-.444.222h-2.887c-.111,0-.333-.111-.444-.111-.777-.666-1.111-1-1.888-1.777a.842.842,0,0,1-.222-.444c-.111-4.553-.111-6.885-.222-11.439a.842.842,0,0,1,.222-.444A14.3,14.3,0,0,1,110.2,8.922" transform="translate(11.961 -8.589)"/><g transform="translate(129.712 0.111)"><path class="a" d="M118.8,8.922a.842.842,0,0,1,.444-.222h3c.111,0,.333.111.444.111.777.666,1.111,1,1.888,1.777a.842.842,0,0,1,.222.444c0,4.553-.111,4.442-.111,9,0,.111-.111.333-.111.444-.777.666-1.111,1.111-1.777,1.777a.577.577,0,0,1-.444.222h-2.887c-.111,0-.333-.111-.444-.111-.777-.666-1.111-1-1.888-1.777a.842.842,0,0,1-.222-.444c-.111-4.553,0-4.442-.111-9,0-.111.111-.333.111-.444.777-.666,1.111-1.111,1.888-1.777m3.332,10.661a.842.842,0,0,0,.222-.444c0-3.776.111-3.332.111-7.219a.842.842,0,0,0-.222-.444c-.222-.222-.333-.222-.444-.444a.842.842,0,0,0-.444-.222h-1a.842.842,0,0,0-.444.222c-.222.222-.333.222-.444.444a.842.842,0,0,0-.222.444c.111,3.776,0,3.332,0,7.219a.842.842,0,0,0,.222.444c.222.222.333.222.444.444.111.111.333.222.444.111h1a.842.842,0,0,0,.444-.222q.167,0,.333-.333" transform="translate(-116.8 -8.7)"/><path class="a" d="M119.522,24.121a.239.239,0,0,1-.222-.222V22.122a.239.239,0,0,1,.222-.222H121.3a.239.239,0,0,1,.222.222V23.9a.239.239,0,0,1-.222.222h-1.777" transform="translate(-116.524 -7.241)"/></g><rect class="a" width="134.82" height="1.777" transform="translate(0 19.323)"/></g><g transform="translate(122.24 0)"><path class="a" d="M110.547.111S111.1.333,111.1,0h7.885s.444.222.555,0l.333.111h.444V.222s.333.444.222.555c0,0,.222,0,.222.444l1.777.111.111.222h2.887l.333.222h2.776l.111.111h.888l.333.333.777-.111h.222s.333,0,0,.444L130.87,3l.222.111s.333-.111.333-.333V1.333l.111-.222h.777l.333.222.333.111.333.111.222.111.222.222a.388.388,0,0,0-.111.222,1.119,1.119,0,0,0,.111.333l.111.222v.222l.333.333a1.119,1.119,0,0,0-.111.333V4.22l.111.333a1.652,1.652,0,0,1,0,.777s.333.333.333.444v.666c0,.111.111.222.222.444.111.111.111.333.222.555A2.85,2.85,0,0,0,135.2,8a1.119,1.119,0,0,1,.111.333v.222a1.119,1.119,0,0,0,.111.333l.222.444a4.63,4.63,0,0,1,.222.666c0,.111.222.444.222.555s.111.111.111.222a.388.388,0,0,1-.111.222v.888a10.483,10.483,0,0,1,.333,1,4.81,4.81,0,0,0,.111.555.344.344,0,0,0,.111.222,4.63,4.63,0,0,0,.222.666l.222.333.222.333v.333l.222.222a2.85,2.85,0,0,0,.222.555v.333c0,.111-.111.555-.111.666s.333.666.333.777.333.555.333.666.333.444.333.444l.111.444-.111.333.222.777v.444a.109.109,0,0,0-.111.111v.333a1.119,1.119,0,0,1,.111.333c0,.111-.111.222-.111.444a4.809,4.809,0,0,0-.111.555v.666l-.222.444c0,.111-.111.666-.111.666a.86.86,0,0,1-.111.333,3.563,3.563,0,0,0-.333.555v1.111a4.81,4.81,0,0,1-.111.555l-.111.333-.222.333s-.111,0-.222.222a1.375,1.375,0,0,1-.222.333l-.222.333-.222.222c0,.111-.444.111-.444.111h-.222l-.222.222s.111.222-.111.111a.344.344,0,0,1-.111-.222l.222-.222a.486.486,0,0,1,.333-.111c.222,0,.333.111.444,0,.111,0,.333-.444.333-.444a.688.688,0,0,1,.222-.444v-.111l-.111-.111h-.111l-.222.111-.222.111s.111.111-.111.111h-.333a.388.388,0,0,0-.111-.222l-.111.111h-.111l-.111.111c-.111,0-.444,0-.444-.111h-.222s-.222-.111-.222-.222v-.111l-.222-.111V27.1l.222-.111.111-.222s-.222-.111-.222-.222V26.1a.86.86,0,0,1-.111-.333l-.222-.333v-.222l-.222-.333-.444-.111a.388.388,0,0,0-.111-.222l-.111-.111h-.333a.548.548,0,0,1-.333-.111c-.111,0-.222,0-.222-.111v-.888a.388.388,0,0,0-.222-.111l-.111-.222c0-.111.111-.555,0-.666a.842.842,0,0,0-.222-.444c0-.111-.222-.222-.333-.333a1.6,1.6,0,0,1-.222-.333l-.333-.444.111-.444-.333-.111h-.111V20.1s-.222,0-.222-.111a1.6,1.6,0,0,1-.222-.333,1.119,1.119,0,0,1-.111-.333.842.842,0,0,0-.222-.444c-.111-.111-.111,0-.111-.111v-.333a.388.388,0,0,0-.111-.222.86.86,0,0,0-.111-.333,1.119,1.119,0,0,0-.111-.333s-.111.111-.222-.222c-.111-.222-.333-.333-.222-.444a.842.842,0,0,1,.222-.444l.222-.222.111-.333.444-.222a.154.154,0,0,0,0-.222l-.222-.222-.222-.111v.222h0c-.111.111-.111,0-.111.111v.555a.109.109,0,0,1-.111.111h-.222s0,.111-.111-.111l-.222-.222-.111-.111s-.222,0-.111-.111a.344.344,0,0,0,.111-.222l-.222-.111a.388.388,0,0,1-.111-.222c0-.111-.222-.111-.111-.222a.344.344,0,0,0,.111-.222l.222-.111.222-.333v-.333c0-.111.111-.666.111-.666l.222-.444V10.994a1.119,1.119,0,0,0-.111-.333V9.995l-.111-.333V9.44l-.222-.333-.222-.222h-.555L127.539,9h0l-.222-.444-.222-.333L126.872,8a1.582,1.582,0,0,0-.222-.444,1.6,1.6,0,0,0-.333-.222l-.111-.222-.111-.444-.111-.222-.222-.111a.109.109,0,0,1-.111-.111c0-.111-.111,0-.111-.111a.408.408,0,0,0-.111-.333.239.239,0,0,0-.222-.222l-.222-.222-.222-.222a1.533,1.533,0,0,0-.444-.333,1.582,1.582,0,0,0-.444-.222s-.222-.222-.222-.111a.344.344,0,0,0-.222.111c-.111.111,0,.111-.222.111h-.555l-.222.222v.444l-.111.111a.388.388,0,0,1-.222.111h-.222c-.222,0,0-.111-.333.111-.333.111-.111.111-.444.222s-.333.222-.444.222h-.777a4.63,4.63,0,0,0-.666.222.109.109,0,0,1-.111.111h-.444c-.111,0-.222,0-.222-.111s-.111,0,0-.222l.111-.333a.388.388,0,0,1-.111-.222V5.442l-.111-.222a.388.388,0,0,0-.222-.111c-.111,0-.111-.222-.111-.222l-.111-.222a.388.388,0,0,1-.222.111c-.111,0,0,.111-.222,0-.222-.222-.222-.111-.333-.222a.344.344,0,0,0-.222-.111A6.371,6.371,0,0,1,116.1,4a2.428,2.428,0,0,0-.555-.333c.111-.333,0-.333-.111-.444a4.81,4.81,0,0,1-.555-.111L114.767,3l-.222-.111h-.333c-.111,0-.111.111-.222.222l-.111.111h-.555c-.111,0-.333-.111-.444-.111-.222,0-.555,0-.555.111l-.222.111c-.111,0,0,.111-.111,0a.344.344,0,0,1-.111-.222.344.344,0,0,0-.222.111,1.6,1.6,0,0,0-.333.222c-.111,0-.222.111-.333.111h-.111a.109.109,0,0,1-.111-.111c0-.111,0-.111.111-.222a.408.408,0,0,0,.111-.333c.111-.111.222-.222.111-.333,0-.333-.111-.333-.111-.555,0-.111.111,0,0-.222,0-.111.111-.111,0-.222-.111,0-.111.111-.444-.222-.222-.222-.333-.222-.333-.333s-.222-.222-.111-.333.111-.222.222-.222a.109.109,0,0,0,.111-.111c0-.111-.111-.111-.111-.222V0Z" transform="translate(-110.072 0)"/><path class="a" d="M133,26.833l-.444.111v.111c0,.111-.222.111-.222.111h-.222L132,27.055v-.111c0-.111.222-.222.222-.222.111,0,.222-.222.222-.222H133l.111.111v.111Z" transform="translate(-107.648 2.929)"/><path class="a" d="M131.788,26.522h0l-.222-.111h-.333c0,.111-.222.222-.222.222H130.9s0-.111-.111.111l-.111.111c0,.111-.222.111-.222.111h-.111l-.222-.111-.111-.111H129.9a.278.278,0,0,1,0,.444h.555a.486.486,0,0,1,.333.111s-.111-.222,0-.222a.388.388,0,0,0,.222-.111h.333s-.111.111,0-.111a.344.344,0,0,0,.111-.222V26.3l.333.222Z" transform="translate(-107.88 2.907)"/></g></svg>