<svg xmlns="http://www.w3.org/2000/svg" viewBox="0 0 21.012 21.013"><defs><style>.a{fill:#fff;}</style></defs><g transform="translate(-253.173 -2705.353)"><path class="a" d="M14.753,0H6.26A6.267,6.267,0,0,0,0,6.26v8.493a6.267,6.267,0,0,0,6.26,6.26h8.493a6.267,6.267,0,0,0,6.26-6.26V6.26A6.267,6.267,0,0,0,14.753,0ZM18.9,14.753A4.146,4.146,0,0,1,14.753,18.9H6.26a4.146,4.146,0,0,1-4.146-4.146V6.26A4.146,4.146,0,0,1,6.26,2.114h8.493A4.146,4.146,0,0,1,18.9,6.26v8.493Z" transform="translate(253.173 2705.352)"/><path class="a" d="M138.435,133a5.435,5.435,0,1,0,5.435,5.435A5.441,5.441,0,0,0,138.435,133Zm0,8.755a3.321,3.321,0,1,1,3.321-3.321A3.321,3.321,0,0,1,138.435,141.755Z" transform="translate(125.245 2577.424)"/><ellipse class="a" cx="1.302" cy="1.302" rx="1.302" ry="1.302" transform="translate(267.822 2709.163)"/></g></svg>