<svg xmlns="http://www.w3.org/2000/svg" viewBox="0 0 95.299 82.935"><defs><style>.a{fill:#9f9f9f;}</style></defs><g transform="translate(30.054)"><path class="a" d="M145.413,15.2c0,4.111-2.211,7.443-6.322,7.443S132.8,19.309,132.8,15.2c0-5.45,6.291-15.2,6.291-15.2S145.413,9.966,145.413,15.2Z" transform="translate(-121.495)"/><g transform="translate(0 18.78)"><path class="a" d="M107.4,62.667c2.273,1.588,3.27,4.111,1.682,6.416-1.588,2.273-4.3,2.211-6.6.623C99.459,67.588,96.5,60.3,96.5,60.3S104.5,60.643,107.4,62.667Z" transform="translate(-96.5 -60.3)"/><path class="a" d="M169.168,62.667c-2.273,1.588-3.27,4.111-1.682,6.416,1.588,2.273,4.3,2.211,6.6.623,3.021-2.118,5.98-9.405,5.98-9.405S172.064,60.643,169.168,62.667Z" transform="translate(-144.845 -60.3)"/></g><g transform="translate(6.571 29.289)"><path class="a" d="M157.994,100.041c-1.806-.841-2.8-2.491-1.962-4.3s2.741-2.087,4.547-1.246c2.367,1.121,5.357,5.855,5.357,5.855S160.267,101.131,157.994,100.041Z" transform="translate(-143.855 -94.044)"/><path class="a" d="M122.957,94.6c1.806-.841,3.706-.561,4.547,1.246s-.156,3.457-1.962,4.3c-2.367,1.121-7.942.343-7.942.343S120.652,95.656,122.957,94.6Z" transform="translate(-117.6 -94.113)"/></g></g><g transform="translate(0 44.816)"><path class="a" d="M12.862,145.1h5.45L10.62,155.377l8.066,10.246H13.267L5.481,155.346ZM4.516,159.364v6.26H0V145.1H4.516Z" transform="translate(0 -144.726)"/><path class="a" d="M70.1,154.582v-.062a10.9,10.9,0,0,1,21.8-.062v.062a10.627,10.627,0,0,1-10.931,10.62A10.5,10.5,0,0,1,70.1,154.582Zm17.1,0v-.062a6.237,6.237,0,0,0-6.229-6.447,6.134,6.134,0,0,0-6.166,6.384v.062a6.237,6.237,0,0,0,6.229,6.447A6.116,6.116,0,0,0,87.2,154.582Z" transform="translate(-48.268 -143.9)"/><path class="a" d="M158.8,145.1h4.173l9.623,12.644V145.1h4.454v20.524h-3.862l-9.935-13.049v13.049H158.8Z" transform="translate(-109.344 -144.726)"/><path class="a" d="M236,154.582v-.062a10.9,10.9,0,0,1,21.8-.062v.062a10.627,10.627,0,0,1-10.931,10.62A10.5,10.5,0,0,1,236,154.582Zm17.1,0v-.062a6.237,6.237,0,0,0-6.229-6.447,6.134,6.134,0,0,0-6.166,6.384v.062a6.237,6.237,0,0,0,6.229,6.447A6.116,6.116,0,0,0,253.1,154.582Z" transform="translate(-162.501 -143.9)"/></g><g transform="translate(9.686 75.866)"><path class="a" d="M31.1,243.9h1.121l3.675,4.734V243.9H37.08v6.852H36.052l-3.768-4.858v4.858H31.1Z" transform="translate(-31.1 -243.807)"/><path class="a" d="M67.052,243.7h1.121l3.021,6.883H69.917l-.685-1.651h-3.27l-.716,1.651H64Zm1.713,4.2-1.183-2.741L66.4,247.9Z" transform="translate(-53.754 -243.669)"/><path class="a" d="M98.58,245.021H96.4V243.9h5.544v1.121h-2.18v5.73H98.549v-5.73Z" transform="translate(-76.063 -243.807)"/><path class="a" d="M128.1,247.786v-3.955h1.215v3.893c0,1.277.654,1.931,1.744,1.931,1.059,0,1.713-.623,1.713-1.9V243.8h1.215v3.893c0,2.055-1.152,3.083-2.928,3.083A2.7,2.7,0,0,1,128.1,247.786Z" transform="translate(-97.891 -243.738)"/><path class="a" d="M162.231,243.9h3.052a2.674,2.674,0,0,1,1.962.685,2,2,0,0,1,.561,1.464v.031a2.089,2.089,0,0,1-1.619,2.087l1.837,2.585h-1.433l-1.682-2.4h-1.495v2.4H162.2V243.9Zm2.959,3.395c.872,0,1.4-.436,1.4-1.152v-.031c0-.747-.529-1.121-1.433-1.121h-1.744v2.3Z" transform="translate(-121.371 -243.807)"/><path class="a" d="M196.121,243.7h1.121l3.021,6.883h-1.277l-.685-1.651h-3.239l-.716,1.651H193.1Zm1.713,4.2-1.183-2.741-1.183,2.741Z" transform="translate(-142.647 -243.669)"/><path class="a" d="M229.9,243.9h1.215v5.762h3.613v1.09h-4.8V243.9Z" transform="translate(-167.987 -243.807)"/><path class="a" d="M257.9,249.548l.716-.872a3.184,3.184,0,0,0,2.149.9c.747,0,1.215-.343,1.215-.872v-.031c0-.5-.28-.747-1.557-1.059-1.464-.343-2.273-.779-2.273-2.055v.031a2.086,2.086,0,0,1,2.336-1.993,3.851,3.851,0,0,1,2.491.872l-.654.9a3.131,3.131,0,0,0-1.869-.716c-.716,0-1.121.374-1.121.81v.031c0,.529.311.747,1.619,1.09,1.433.343,2.18.872,2.18,1.993v.031c0,1.277-1,2.055-2.429,2.055A4.5,4.5,0,0,1,257.9,249.548Z" transform="translate(-187.266 -243.6)"/></g></svg>