<svg xmlns="http://www.w3.org/2000/svg" viewBox="0 0 15.621 14.812"><defs><style>.a{fill:#fff;fill-rule:evenodd;}</style></defs><g transform="translate(-392.505 -2709.349)"><path class="a" d="M18.926,21.514A1.765,1.765,0,1,0,17,19.758a1.846,1.846,0,0,0,1.926,1.756" transform="translate(375.505 2691.349)"/><path class="a" d="M18,38.959h3.453V29H18Z" transform="translate(374.946 2685.201)"/><path class="a" d="M32.448,32.861c0-1.142.54-2.259,1.832-2.259s1.61,1.117,1.61,2.232v5.439h3.438V32.612C39.328,28.678,37,28,35.572,28a3.5,3.5,0,0,0-3.125,1.655V28.314H29v9.959h3.448Z" transform="translate(368.799 2685.76)"/></g></svg>