<svg xmlns="http://www.w3.org/2000/svg" width="174.113" height="40.607"><g fill="#fff"><path d="M28.624 23.306a8.614 8.614 0 0 1 1.913 5.767 10.191 10.191 0 0 1-1.541 5.5 10.54 10.54 0 0 1-4.385 3.88 14.728 14.728 0 0 1-6.617 1.409H1.087A1.087 1.087 0 0 1 0 38.775V3.744a1.087 1.087 0 0 1 1.087-1.087h15.9a14.766 14.766 0 0 1 6.4 1.3 10.011 10.011 0 0 1 4.2 3.534 8.748 8.748 0 0 1 1.462 4.89 8.414 8.414 0 0 1-1.329 4.863 8.543 8.543 0 0 1-3.242 2.9 10.831 10.831 0 0 1 4.146 3.162zm-18.1-12.783v6.591h4.175a3.693 3.693 0 0 0 2.6-.93 3.274 3.274 0 0 0 0-4.731 3.7 3.7 0 0 0-2.6-.93zm5.184 21.47a4.1 4.1 0 0 0 2.95-1.09 3.623 3.623 0 0 0 1.143-2.737 3.564 3.564 0 0 0-1.143-2.684 4.1 4.1 0 0 0-2.95-1.09h-5.185v7.6zm22.807 6.674a14.68 14.68 0 0 1-5.315-5.209 13.975 13.975 0 0 1 0-14.3 14.685 14.685 0 0 1 5.315-5.209 14.77 14.77 0 0 1 20.064 5.209 14.14 14.14 0 0 1 0 14.3 14.885 14.885 0 0 1-20.064 5.209zm10.974-8.212a6.61 6.61 0 0 0 0-8.291 4.758 4.758 0 0 0-7.2 0 6.706 6.706 0 0 0 0 8.291 4.759 4.759 0 0 0 7.2 0zm31.966 8.292a13.538 13.538 0 0 1-4.571-5.129 16.434 16.434 0 0 1 0-14.67 13.409 13.409 0 0 1 4.544-5.1 10.9 10.9 0 0 1 6.059-1.834 9.866 9.866 0 0 1 4.279.851 6.34 6.34 0 0 1 2.524 1.913h.266V4.663a1.087 1.087 0 0 1 .905-1.072l7.447-1.262a1.087 1.087 0 0 1 1.269 1.072v35.375a1.087 1.087 0 0 1-1.087 1.087h-5.27a1.087 1.087 0 0 1-.964-.586l-1.078-2.072h-.265a9.041 9.041 0 0 1-3.269 2.392 11.068 11.068 0 0 1-4.757 1.01 10.835 10.835 0 0 1-6.032-1.86zm11.693-8.265a6.884 6.884 0 0 0 0-8.345 4.548 4.548 0 0 0-6.963 0 6.884 6.884 0 0 0 0 8.345 4.549 4.549 0 0 0 6.963 0zm15.26-21.898a4.731 4.731 0 0 1-1.515-3.534 4.792 4.792 0 0 1 1.515-3.588 5.254 5.254 0 0 1 3.8-1.462 5.188 5.188 0 0 1 3.747 1.462 4.794 4.794 0 0 1 1.515 3.588 4.733 4.733 0 0 1-1.515 3.534 5.184 5.184 0 0 1-3.747 1.462 5.25 5.25 0 0 1-3.8-1.462zm7.5 31.279h-7.393a1.087 1.087 0 0 1-1.087-1.087V13.843a1.087 1.087 0 0 1 1.087-1.087h7.393a1.087 1.087 0 0 1 1.087 1.087v24.933a1.087 1.087 0 0 1-1.09 1.087zm6.601-1.834a9.306 9.306 0 0 1-3.355-5.489 1.1 1.1 0 0 1 .979-1.323l6.952-.535a1.076 1.076 0 0 1 1.081.73 3.4 3.4 0 0 0 .827 1.276 2.827 2.827 0 0 0 2.047.8 2.738 2.738 0 0 0 1.7-.451 1.388 1.388 0 0 0 .585-1.143 1.85 1.85 0 0 0-1.116-1.595 20.852 20.852 0 0 0-3.508-1.435 39.15 39.15 0 0 1-4.624-1.887 9.656 9.656 0 0 1-3.215-2.6 6.5 6.5 0 0 1-1.355-4.226 6.944 6.944 0 0 1 1.3-4.119 8.8 8.8 0 0 1 3.88-2.923 16.032 16.032 0 0 1 6.245-1.089 12.608 12.608 0 0 1 8.185 2.5 9.221 9.221 0 0 1 3.308 5.229 1.081 1.081 0 0 1-.978 1.3l-6.961.577a1.049 1.049 0 0 1-1.063-.71 2.359 2.359 0 0 0-2.333-1.771 2.336 2.336 0 0 0-1.435.4 1.236 1.236 0 0 0-.531 1.036 1.656 1.656 0 0 0 1.063 1.462 19.991 19.991 0 0 0 3.455 1.249 44.168 44.168 0 0 1 4.7 1.727 8.753 8.753 0 0 1 3.216 2.525 6.777 6.777 0 0 1 1.382 4.411 7.588 7.588 0 0 1-3.03 6.3q-3.03 2.365-8.876 2.365-5.363-.013-8.525-2.591zm42.674 1.089a5.394 5.394 0 1 1 3.721 1.488 5.045 5.045 0 0 1-3.721-1.488zm-3.949-19.21v-6.065a1.087 1.087 0 0 0-1.087-1.087h-4.335V6.563a1.087 1.087 0 0 0-1.291-1.068l-6.383 1.216a1.087 1.087 0 0 0-.883 1.068v2.478a2.979 2.979 0 0 1-.824 2.206 3.39 3.39 0 0 1-1.768.749 1.074 1.074 0 0 0-.88 1.067v5.628a1.087 1.087 0 0 0 1.087 1.087h1.377v8.77q0 5.1 2.79 7.973a10.076 10.076 0 0 0 7.574 2.87 15.245 15.245 0 0 0 3.8-.449 1.093 1.093 0 0 0 .821-1.058v-6.548a1.1 1.1 0 0 0-1.246-1.075 6.766 6.766 0 0 1-.774.042 3.354 3.354 0 0 1-2.524-.9 3.748 3.748 0 0 1-.877-2.711v-1.89q-.013-1.435-.01-2.87a.51.51 0 0 0-.335-.448 15.955 15.955 0 0 1-2.668-.921c-1.045-.631 0-.778 0-.778h7.349a1.087 1.087 0 0 0 1.087-1.093z"/><path d="M77.467 31.915l-.589.583a1.1 1.1 0 0 0-1.24-1.022 6.756 6.756 0 0 1-.774.042 3.355 3.355 0 0 1-2.525-.9 3.749 3.749 0 0 1-.877-2.711v-24.5a1.087 1.087 0 0 0-1.27-1.072l-7.397 1.258a1.087 1.087 0 0 0-.9 1.072v25.1q0 5.1 2.79 7.973a10.076 10.076 0 0 0 7.574 2.87 15.251 15.251 0 0 0 3.8-.449 1.093 1.093 0 0 0 .821-1.058v-4.475s.083-.594.5-.131 1.113.032 1.113.032z"/></g></svg>