<svg xmlns="http://www.w3.org/2000/svg" viewBox="0 0 150.523 32.138"><defs><style>.a{fill:#9f9f9f;}</style></defs><g transform="translate(41.767 5.044)"><path class="a" d="M120.649,28.914l-.917,2.522h-.038a23.759,23.759,0,0,0-.841-2.484l-4.815-12.114H109.3V36.1h3.1V24.252c0-.726,0-1.6-.038-2.637,0-.5-.076-.917-.076-1.223h.076a10.289,10.289,0,0,0,.459,1.643L118.624,36.1H120.8l5.732-14.177a12.574,12.574,0,0,0,.382-1.529h.076c-.076,1.414-.153,2.675-.153,3.439V36.06h3.325V16.8h-4.547Z" transform="translate(-109.3 -15.424)"/><rect class="a" width="3.248" height="13.795" transform="translate(23.96 6.84)"/><path class="a" d="M173.249,15.8a2,2,0,0,0-1.376.535,1.847,1.847,0,0,0,0,2.675,2,2,0,0,0,1.376.535,2.1,2.1,0,0,0,1.414-.535,1.735,1.735,0,0,0,.573-1.337,1.792,1.792,0,0,0-.573-1.337A2.1,2.1,0,0,0,173.249,15.8Z" transform="translate(-147.608 -14.806)"/><path class="a" d="M195.709,30.491a9.906,9.906,0,0,0-1.8-.191,7.7,7.7,0,0,0-3.936.955,6.263,6.263,0,0,0-2.6,2.675A8.341,8.341,0,0,0,186.5,37.9a7.419,7.419,0,0,0,.879,3.554,6.029,6.029,0,0,0,2.446,2.446,7.2,7.2,0,0,0,3.554.879,7.642,7.642,0,0,0,3.9-.917l.038-.038V40.847l-.153.115a8.013,8.013,0,0,1-1.6.841,5.136,5.136,0,0,1-1.567.306,4.03,4.03,0,0,1-3.057-1.185,4.681,4.681,0,0,1-1.108-3.286,4.637,4.637,0,0,1,1.185-3.363,3.949,3.949,0,0,1,3.057-1.261,5.154,5.154,0,0,1,3.1,1.07l.153.115V31.064l-.038-.038A4.45,4.45,0,0,0,195.709,30.491Z" transform="translate(-156.999 -23.765)"/><path class="a" d="M227.726,30.5a3.517,3.517,0,0,0-2.178.764,4.621,4.621,0,0,0-1.261,1.834h-.038V30.691H221v13.8h3.248V37.493a5.045,5.045,0,0,1,.8-2.942,2.5,2.5,0,0,1,2.1-1.108,3.316,3.316,0,0,1,.994.153,2.1,2.1,0,0,1,.764.306l.153.115V30.691l-.038-.038A5.764,5.764,0,0,0,227.726,30.5Z" transform="translate(-178.315 -23.889)"/><path class="a" d="M249.837,30.2a7.153,7.153,0,0,0-5.388,1.987,7.375,7.375,0,0,0-1.949,5.426,7.241,7.241,0,0,0,12.267,5.044,7.371,7.371,0,0,0,1.949-5.35,7.191,7.191,0,0,0-1.834-5.2A6.71,6.71,0,0,0,249.837,30.2Zm2.56,10.623a3.283,3.283,0,0,1-2.713,1.146,3.4,3.4,0,0,1-2.79-1.185,5.075,5.075,0,0,1-.994-3.325,5.3,5.3,0,0,1,.994-3.4,3.786,3.786,0,0,1,5.465-.038,5.116,5.116,0,0,1,.994,3.363A5.673,5.673,0,0,1,252.4,40.823Z" transform="translate(-191.6 -23.704)"/><path class="a" d="M289.356,36.176a6.861,6.861,0,0,1-1.949-1.032,1.416,1.416,0,0,1-.382-1.07,1.164,1.164,0,0,1,.5-.994,2.222,2.222,0,0,1,1.414-.382,5.318,5.318,0,0,1,1.681.267,4.26,4.26,0,0,1,1.452.688l.153.076V30.711l-.038-.038a8.006,8.006,0,0,0-1.49-.42,8.665,8.665,0,0,0-1.6-.153,5.856,5.856,0,0,0-3.821,1.185,3.78,3.78,0,0,0-1.49,3.057,4.761,4.761,0,0,0,.306,1.72,3.587,3.587,0,0,0,.994,1.3,8.947,8.947,0,0,0,1.987,1.108,14.471,14.471,0,0,1,1.643.764,2.023,2.023,0,0,1,.726.611,1.2,1.2,0,0,1,.191.764c0,.917-.688,1.376-2.14,1.376a5.491,5.491,0,0,1-1.8-.344,7.491,7.491,0,0,1-1.834-.917l-.153-.115V43.78l.038.038a8.02,8.02,0,0,0,1.758.535,8.611,8.611,0,0,0,1.872.229,6.2,6.2,0,0,0,4.012-1.185,3.822,3.822,0,0,0,1.49-3.134,3.629,3.629,0,0,0-.8-2.369A7.541,7.541,0,0,0,289.356,36.176Z" transform="translate(-217.055 -23.642)"/><path class="a" d="M318.737,30.2a7.153,7.153,0,0,0-5.388,1.987,7.375,7.375,0,0,0-1.949,5.426,7.241,7.241,0,0,0,12.267,5.044,7.371,7.371,0,0,0,1.949-5.35,7.191,7.191,0,0,0-1.834-5.2A6.71,6.71,0,0,0,318.737,30.2Zm2.56,10.623a3.283,3.283,0,0,1-2.713,1.146,3.4,3.4,0,0,1-2.79-1.185,5.075,5.075,0,0,1-.994-3.325,5.3,5.3,0,0,1,.994-3.4,3.786,3.786,0,0,1,5.465-.038,5.116,5.116,0,0,1,.994,3.363A5.427,5.427,0,0,1,321.3,40.823Z" transform="translate(-234.17 -23.704)"/><path class="a" d="M366.343,22.677V20.04h-3.286V15.913l-.115.038-3.1.955h-.076V20.04h-4.853v-1.72a2.836,2.836,0,0,1,.535-1.834,1.853,1.853,0,0,1,1.49-.611,3.207,3.207,0,0,1,1.414.344l.115.038v-2.79l-.038-.038A5.964,5.964,0,0,0,356.6,13.2a5.326,5.326,0,0,0-2.6.611,4.42,4.42,0,0,0-1.8,1.758,5.178,5.178,0,0,0-.611,2.56V20.04H349.3v2.637h2.293V33.835h3.286V22.677h4.853v7.07c0,2.9,1.376,4.395,4.089,4.395a6.152,6.152,0,0,0,1.414-.153,9.476,9.476,0,0,0,1.032-.306l.038-.038V30.969l-.115.076a2.605,2.605,0,0,1-1.3.42,1.772,1.772,0,0,1-1.414-.5,2.693,2.693,0,0,1-.459-1.758V22.677Z" transform="translate(-257.587 -13.2)"/></g><rect class="a" width="15.285" height="15.285"/><rect class="a" width="15.285" height="15.285" transform="translate(16.852)"/><rect class="a" width="15.285" height="15.285" transform="translate(0 16.852)"/><rect class="a" width="15.285" height="15.285" transform="translate(16.852 16.852)"/></svg>