<svg xmlns="http://www.w3.org/2000/svg" viewBox="0 0 12.686 16.473"><defs><style>.a{fill:#fff;fill-rule:evenodd;}</style></defs><g transform="translate(0 0)"><g transform="translate(0 0)"><path class="a" d="M5.375,10.7c-.134.534-.267,1.1-.4,1.636a12.659,12.659,0,0,1-.467,1.6A9.665,9.665,0,0,1,3.171,16.2c-.067.1-.167.267-.267.234s-.1-.1-.1-.234a11.136,11.136,0,0,1-.134-2.137,14.219,14.219,0,0,1,.367-2.237c.3-1.335.634-2.637.935-3.973a1.239,1.239,0,0,0,.067-.3,4.091,4.091,0,0,1-.267-1.1,3.718,3.718,0,0,1,.1-1.235,2.1,2.1,0,0,1,1.235-1.5,1.444,1.444,0,0,1,1.135.1,1.319,1.319,0,0,1,.568.8,2.406,2.406,0,0,1-.067,1.2c-.167.768-.4,1.369-.6,2.137a2.311,2.311,0,0,0-.134,1.168,1.506,1.506,0,0,0,.568.835,1.694,1.694,0,0,0,1.068.3,2.362,2.362,0,0,0,1.736-1,5.9,5.9,0,0,0,1.1-3,8.261,8.261,0,0,0,.033-1.3,3.606,3.606,0,0,0-.734-2,3.564,3.564,0,0,0-1.636-1.1,4.921,4.921,0,0,0-2.437-.134,4.155,4.155,0,0,0-3.272,2.2,4.388,4.388,0,0,0-.534,2.2,2.846,2.846,0,0,0,.434,1.6c.1.134.2.234.3.367.134.2-.033.534-.067.734-.067.267-.067.634-.4.668a.857.857,0,0,1-.4-.167A3.287,3.287,0,0,1,.2,6.923a5.4,5.4,0,0,1,0-2.07A6.968,6.968,0,0,1,.8,3.184,5.549,5.549,0,0,1,3.038.948,6.523,6.523,0,0,1,5.575.08c.334-.033.668-.067,1.035-.1A6.162,6.162,0,0,1,9.448.514a5.494,5.494,0,0,1,1.936,1.369,5.57,5.57,0,0,1,1.2,2.137,5.042,5.042,0,0,1,.2,1.469,10.958,10.958,0,0,1-.134,1.536,5.988,5.988,0,0,1-2.5,4.14,5.1,5.1,0,0,1-1.135.534,3.5,3.5,0,0,1-1.469.167,3.128,3.128,0,0,1-1.3-.367A2.475,2.475,0,0,1,5.375,10.7Z" transform="translate(-0.1 0.031)"/></g></g></svg>