<svg xmlns="http://www.w3.org/2000/svg" viewBox="0 0 150.708 22.379"><defs><style>.a{fill:#9f9f9f;}</style></defs><path class="a" d="M34.656,10.548c-2.288-.558-2.818-.977-2.818-1.925,0-.809.726-1.479,1.953-1.479A5.382,5.382,0,0,1,37.028,8.4l1.116-1.618a6.453,6.453,0,0,0-4.325-1.535c-2.372,0-4.074,1.423-4.074,3.572,0,2.26,1.423,3.042,3.962,3.655,2.2.53,2.679,1,2.679,1.9,0,.949-.809,1.563-2.121,1.563A5.476,5.476,0,0,1,30.5,14.343l-1.256,1.535A7.218,7.218,0,0,0,34.21,17.83c2.511,0,4.269-1.367,4.269-3.655C38.479,12.11,37.168,11.189,34.656,10.548Zm12.585,5.33a4.088,4.088,0,0,1-3.934-4.353A4.063,4.063,0,0,1,47.241,7.2a4.743,4.743,0,0,1,3.348,1.507l1.339-1.591a6.162,6.162,0,0,0-4.66-1.9,6.1,6.1,0,0,0-6.139,6.334,6.091,6.091,0,0,0,6.055,6.306,6.013,6.013,0,0,0,4.827-2.176l-1.339-1.4A4.69,4.69,0,0,1,47.241,15.877ZM59.1,5.33,53.854,17.635H56l1.228-2.958h5.637l1.2,2.958h2.2L61.025,5.33H59.1Zm-1.116,7.45L60.021,7.9l2.065,4.883Zm19.365,1.088-6.39-8.455H69.006V17.635h2.065V8.957l6.585,8.678h1.758V5.413H77.349ZM87.367,5.413H83.4V17.635h3.962A6.044,6.044,0,0,0,93.7,11.524V11.5A6.022,6.022,0,0,0,87.367,5.413Zm5.413,6.139A5.13,5.13,0,0,1,87.367,16.8H84.3V6.25h3.069a5.152,5.152,0,0,1,5.413,5.274Zm5.5.335h6.836V11.05H98.277V6.25h7.59V5.413H97.384V17.635h8.566V16.8H98.277Zm15.291-.809c-2.818-.586-3.488-1.367-3.488-2.679V8.371c0-1.284,1.172-2.288,2.93-2.288a5.192,5.192,0,0,1,3.572,1.367l.558-.725a5.8,5.8,0,0,0-4.1-1.479c-2.2,0-3.823,1.4-3.823,3.209v.028c0,1.842,1.172,2.846,4.018,3.432,2.707.558,3.376,1.311,3.376,2.6v.028c0,1.4-1.228,2.428-3.014,2.428a5.742,5.742,0,0,1-4.269-1.814l-.586.67a6.683,6.683,0,0,0,4.8,1.953c2.288,0,3.962-1.367,3.962-3.321v-.028C117.475,12.668,116.3,11.664,113.568,11.078Zm7.618,6.557h.893V5.413h-.893Zm10.882-5.5h3.99v3.516a6.02,6.02,0,0,1-3.795,1.4c-3.181,0-5.106-2.344-5.106-5.525V11.5c0-2.958,2.037-5.469,4.911-5.469a5.23,5.23,0,0,1,3.823,1.451l.586-.67a6.227,6.227,0,0,0-4.353-1.618,6.018,6.018,0,0,0-5.888,6.306v.028c0,3.432,2.232,6.278,6,6.278a7.1,7.1,0,0,0,4.688-1.842V11.3H132.1v.837Zm17.775-6.725V16.045L141.611,5.413h-.837V17.635h.865V6.781l8.4,10.855h.67V5.413ZM19.421,16.965a2.989,2.989,0,0,1-.7,2.009,2.365,2.365,0,0,1-1.87.893H13.673a2.4,2.4,0,0,1-1.814-.753,2.682,2.682,0,0,1-.7-1.925V14.705a2.963,2.963,0,0,1,.7-2.037,2.369,2.369,0,0,1,1.842-.809h2.483v1.535H13.7a.945.945,0,0,0-.809.419,1.691,1.691,0,0,0-.307.977v2.26a1.446,1.446,0,0,0,.279.921.917.917,0,0,0,.781.363H16.8a1.16,1.16,0,0,0,.837-.363,1.316,1.316,0,0,0,.335-.893V0H0V18.389H7.115a.976.976,0,0,0,.809-.446,1.545,1.545,0,0,0,.307-.949v-5.33a2.91,2.91,0,0,1,.725-2.009,2.352,2.352,0,0,1,1.814-.809h5.441v1.507H10.771a.981.981,0,0,0-.809.419,1.949,1.949,0,0,0-.335.977v5.3A2.83,2.83,0,0,1,8.9,19.058a2.263,2.263,0,0,1-1.814.809H0v2.511H21.877V0H19.421Z"/></svg>