<svg xmlns="http://www.w3.org/2000/svg" viewBox="0 0 151.553 38.146"><defs><style>.a{fill:#9f9f9f;fill-rule:evenodd;}</style></defs><path class="a" d="M20.361.431C18.549,4.659,12.6,4.314,11.561,0,8.714.518,2.674,4.055,2.071,9.663c-.345,3.365.949,6.3,5.953,7.333,4.314.69,9.318,2.5,7.765,8.8C12.941,21.31,2.071,19.757,0,29.247l1.035.431c3.278-5.78,9.922-3.624,11.129,1.639.949-.949,3.882-3.106,4.918-3.882,6.039-4.486,5.09-11.3-.6-13.372-2.416-.69-8.973-2.157-8.8-5-.173-.863-.431-3.106.69-4.4A6.989,6.989,0,0,0,21.31.6L20.361.431Z"/><path class="a" d="M91.974,31.876l4.4-3.624-.69-.69c-.69.518-2.761.863-2.761-.949V15.4c0-1.208.69-1.553,1.38-1.553.6.086,2.243,3.106.863,4.831l.6.776c1.639-.949,5.176-3.278,4.055-5.953L97.582,9.1l-4.659,3.106a5.244,5.244,0,0,0-3.882-2.674A16.273,16.273,0,0,0,84.9,12.982l.69.69c.863-.776,2.416-.949,2.588.776V25.578a2.486,2.486,0,0,1-.949,2.071l4.745,4.227Z" transform="translate(-11.653 -1.249)"/><path class="a" d="M151.908,28.307l-5.09,3.882-4.141-4.055c1.035-.259,1.035-2.243,1.035-2.157V15.625a1.869,1.869,0,0,0-1.725-1.812c-.6-.086-1.639.863-1.639,1.553V25.978a3.045,3.045,0,0,0,1.725,2.761L138.622,32.1l-4.141-4.055a3.677,3.677,0,0,0,1.035-2.416V15.107c0-.776-.259-1.467-1.812-1.467-.6-.086-1.553,1.035-1.553,1.812V26.064a3.045,3.045,0,0,0,1.725,2.761l-3.451,3.365-4.141-4.055a3.036,3.036,0,0,0,1.035-2.157V14.5c-.173-1.725-1.639-1.553-2.588-.776l-.431-.6a14.932,14.932,0,0,1,4.141-3.451,4.61,4.61,0,0,1,3.451,2.847l3.882-2.933a5.321,5.321,0,0,1,3.882,3.192L143.884,9.5c1.639-.086,3.882,1.553,4.573,3.8V26.064c0,1.208.863,2.588,2.847,1.639l.6.6Z" transform="translate(-17.061 -1.303)"/><path class="a" d="M153.2,6.63l3.451-2.847c.6-.518,2.588.863,2.588,3.192.086,2.329-1.725,4.141-3.882,6.039l-.863-.863c1.208-1.294,1.725-3.192.863-4.486a.911.911,0,0,0-1.38-.345l-.776-.69Z" transform="translate(-21.028 -0.504)"/><path class="a" d="M171.841,10.176c-.518,1.208-3.71,2.761-5.608-.776l-6.125,5c-1.208,1.122-1.9,5.694,2.416,7.333s7.937,1.984,7.161,6.643c-2.761-2.933-10.008-4.141-10.784,2.588l.949.086c.431-1.122,3.8-2.157,6.729.863l5.349-4.055c1.639-1.294,3.278-7.851-3.624-9.4-4.4-.949-6.557-2.674-5.349-5.176,1.467,1.639,8.2,4.055,9.749-2.933l-.863-.173Z" transform="translate(-21.81 -1.29)"/><path class="a" d="M53.773,26.7c-2.157,1.467-3.537-1.812-3.537-2.674V13.845c-.086-.69.345-1.122,1.035-.6l2.5,1.725V26.7ZM58.6,25.406V15.312a1.84,1.84,0,0,1,1.122-1.9L53.427,9.1,44.8,13.931a1.772,1.772,0,0,1,.949,1.812v9.663a1.865,1.865,0,0,1-.949,1.812l4.918,3.8c1.035.776,1.553.431,1.9.086l2.329-2.243,3.106,2.416a1.221,1.221,0,0,0,1.9-.086l3.71-3.451-.69-.6c-.518.431-1.035.949-2.329,0A1.967,1.967,0,0,1,58.6,25.406Z" transform="translate(-6.149 -1.249)"/><path class="a" d="M75.208,26.786c-2.157,1.467-3.537-1.812-3.537-2.674V13.845c-.086-.69.345-1.122,1.035-.6l2.5,1.725v11.82Zm-4.486,3.8a2.1,2.1,0,0,0,2.761,0l1.984-1.9c.431,1.122,1.725,3.624.518,5.349-1.38,2.071-7.074,3.624-5.263-3.451Zm-.518-.259-5,3.02c0,2.5,1.984,6.3,5.78,6.039a6.97,6.97,0,0,0,2.329-.6s5.176-3.192,5.953-3.8a4.665,4.665,0,0,0,1.812-5.349,14.98,14.98,0,0,1-.949-5.176V14.88a1.307,1.307,0,0,1,1.122-1.467L74.949,9.1l-8.627,4.831a1.719,1.719,0,0,1,.949,1.725v9.749a1.966,1.966,0,0,1-.949,1.812L70.2,30.323Z" transform="translate(-8.949 -1.249)"/><path class="a" d="M32.267,21.814l7.333-3.8a1.291,1.291,0,0,0,.431-1.639L36.063,8.7,26.4,14.049a1.719,1.719,0,0,1,.949,1.725V24.92a1.966,1.966,0,0,1-.949,1.812l5.176,4.055h0c.6.518,1.9,1.467,3.192.345l5.608-5.176-.69-2.071a8.548,8.548,0,0,1-.949,1.467L36.925,26.9a2.192,2.192,0,0,1-2.588,0l-1.294-.863a3.445,3.445,0,0,1-.863-2.674V21.814Zm0-7.678c0-.431.431-.6.6-.173l1.9,3.537c.259.6.431,1.467-.431,1.812l-2.071,1.122v-6.3Z" transform="translate(-3.624 -1.194)"/><path class="a" d="M112.973,26.7c-2.157,1.467-3.537-1.812-3.537-2.674V13.845c-.086-.69.345-1.122,1.035-.6l2.5,1.725V26.7Zm4.831-1.294V15.312a1.84,1.84,0,0,1,1.122-1.9l-6.3-4.314L104,13.931a2.132,2.132,0,0,1,.949,1.639v9.835A1.865,1.865,0,0,1,104,27.218l4.918,3.8c1.035.776,1.553.431,1.9.086l2.329-2.243,3.106,2.416a1.221,1.221,0,0,0,1.9-.086l3.71-3.451-.69-.6c-.518.431-1.035.949-2.329,0a2.152,2.152,0,0,1-1.035-1.725Z" transform="translate(-14.275 -1.249)"/></svg>