<svg xmlns="http://www.w3.org/2000/svg" viewBox="0 0 150.545 73.45"><defs><style>.a{fill:#9f9f9f;}</style></defs><g transform="translate(26.023 33.559)"><path class="a" d="M45.714,68.444a2.028,2.028,0,0,1-.114-.571c0-.114.057-.285.4-.285s.457.514.571.742A4.362,4.362,0,0,0,50.28,71.07a2.164,2.164,0,0,0,2.34-2.112c0-2.968-6.791-1.541-6.791-6.563a3.642,3.642,0,0,1,3.709-3.6c1.541,0,2.511.742,3.082.742.228,0,.628-.228.8-.228.228,0,.285.114.285.342a21.879,21.879,0,0,0,.228,2.91c0,.228-.114.4-.342.4-.342,0-.4-.285-.571-.742a3.968,3.968,0,0,0-3.367-2.568c-1.141,0-2.112.628-2.112,1.712,0,3.139,6.791,1.484,6.791,6.506a4.063,4.063,0,0,1-4.109,4.052,15.45,15.45,0,0,1-3.31-.628c-.171-.057-.457-.057-.571-.285Z" transform="translate(-45.6 -58.8)"/><path class="a" d="M64.326,62.339c0-.913-.114-2.283-.856-2.34-.571-.057-.97-.228-.97-.514s.285-.285.685-.285c1.427.171,2.8.114,4.223.171,1.427,0,2.8-.171,4.223-.171.4,0,.8,0,.8.342,0,.4-.057.8-.057,1.2s.057.8.057,1.2c0,.228-.057.342-.342.342s-.342-.342-.342-.514c-.114-1.141-.685-1.655-2.8-1.655h-1.2c-.514,0-.628.171-.628.856v3.253c0,.285.285.4,1.027.4,1.084,0,1.883-.285,2.169-1.084.228-.514.285-.571.457-.571.285,0,.285.228.285.514,0,.571-.057,1.084-.057,1.655s.057,1.084.057,1.655c0,.228,0,.514-.342.514-.285,0-.285-.571-.514-.913-.457-.742-.97-.856-2.054-.856-.856,0-1.027.228-1.027.685v3.139c0,1.37.228,1.541,1.2,1.541a4.74,4.74,0,0,0,3.6-1.2c.628-.628.8-1.256,1.084-1.256.228,0,.285.171.285.342A6.325,6.325,0,0,1,73,70.214a2.413,2.413,0,0,1-1.94,1.655c-1.255,0-2.454-.171-3.709-.171s-2.454.171-3.709.171c-.571,0-.856,0-.856-.285s.342-.4.685-.571c.628-.285.742-.742.742-1.769V62.339Z" transform="translate(-52.856 -58.972)"/><path class="a" d="M83.869,62.025a2.346,2.346,0,0,0-.913-2.054c-.628-.285-.856-.342-.856-.628,0-.228.057-.285.228-.285.571,0,1.084.057,1.655.057s1.084-.057,1.655-.057c.342,0,.514.057.628.285l3.6,7.419a4.152,4.152,0,0,0,.571,1.084c.114,0,.285-.342.457-.742l3.995-7.7c.228-.4.285-.4.4-.4.571,0,1.084.057,1.655.057S98.022,59,98.593,59c.114,0,.171.114.171.285,0,.285-.285.4-.856.571-.685.228-.97.4-.97,1.484v6.506c0,1.541.114,2.511,1.541,3.082.4.171.571.228.571.514s-.342.285-.742.285c-.742-.057-1.484-.057-2.226-.171-.742.057-1.484.057-2.226.171-.342,0-.742,0-.742-.285s.171-.4.514-.514c.457-.228.514-.514.514-1.541V63.565c0-.171,0-.514-.114-.514s-.228.228-.457.742L89.918,71.27c-.114.228-.285.514-.514.514s-.285-.228-.4-.4l-3.6-7.761c-.114-.285-.228-.514-.342-.514-.171.057-.171.114-.171.457v4.851a2.36,2.36,0,0,0,1.541,2.568c.285.114.514.228.514.514s-.285.285-.514.285c-.628,0-1.255-.171-1.94-.171-.628,0-1.256.171-1.94.171-.171,0-.4,0-.4-.285s.228-.4.514-.514a1.925,1.925,0,0,0,1.2-2.054Z" transform="translate(-61.27 -58.886)"/><path class="a" d="M117.465,69.558a1.583,1.583,0,0,0,1.427,1.541.407.407,0,0,1,.4.457c0,.285-.514.285-1.084.285s-1.313-.171-2.054-.171-1.484.171-2.226.171c-.342,0-.628,0-.628-.285s.285-.4.514-.457c.742-.228.856-.913.856-1.541V61.283a1.341,1.341,0,0,0-1.37-1.541.407.407,0,0,1-.4-.457c0-.285.514-.285,1.084-.285.742,0,1.484.171,2.226.171S117.694,59,118.436,59c.228,0,.514,0,.514.285s-.514.4-.685.457c-.742.228-.742.913-.742,1.541v8.275Z" transform="translate(-74.493 -58.886)"/><path class="a" d="M128.924,62.866c-.4-.4-.742-.742-.856-.742s-.171.057-.171.514V69.2c0,.913.285,1.6,1.2,1.826.457.171,1.084.114,1.084.457s-.457.342-.742.342c-.628,0-1.313-.171-1.94-.171s-1.313.171-1.94.171c-.171,0-.4,0-.4-.285s.228-.4.514-.514a1.968,1.968,0,0,0,1.255-2.054V62.068a2.391,2.391,0,0,0-.97-2.054c-.628-.285-.856-.342-.856-.628s.114-.285.228-.285c.571,0,1.084.057,1.655.057s1.084-.057,1.655-.057c.4,0,.514.057.685.228l7.133,7.362c.228.228.514.514.628.514.171,0,.171-.285.171-.514V62.524c0-1.2-.057-2.34-1.2-2.568-.457-.114-.97-.228-.97-.514s.342-.285.685-.285c.628,0,1.255.171,1.94.171.628,0,1.313-.171,1.94-.171.171,0,.4,0,.4.285s-.228.4-.514.514a1.968,1.968,0,0,0-1.255,2.054v8.846c0,.8-.057,1.027-.285,1.027s-.685-.457-1.141-.913Z" transform="translate(-79.731 -58.929)"/><path class="a" d="M159.962,58.8c3.766,0,6.734,2.454,6.734,6.335,0,4.109-3.709,6.791-7.533,6.791-3.767,0-6.563-2.511-6.563-6.22C152.6,61.71,156.138,58.8,159.962,58.8Zm.057,12.27c2.169,0,3.709-2.283,3.709-4.908,0-2.511-1.484-6.506-4.451-6.506-2.169,0-3.709,2.283-3.709,4.908C155.568,67.075,157.051,71.07,160.019,71.07Z" transform="translate(-91.537 -58.8)"/><path class="a" d="M180.269,61.283c0-1.141-.628-1.541-1.37-1.541a.39.39,0,0,1-.4-.4.329.329,0,0,1,.342-.342c.856,0,1.769.171,2.682.171S183.294,59,183.979,59c.228,0,.514,0,.514.285s-.285.4-.514.457a1.428,1.428,0,0,0-.913,1.541v7.99c0,1.37.228,1.541,1.141,1.541a4.74,4.74,0,0,0,3.6-1.2c.628-.628.8-1.2,1.255-1.2.228,0,.4.342.4.742A2.87,2.87,0,0,1,186.6,71.84c-1.255,0-3.766-.171-4.965-.171-.685,0-1.37.171-2.054.171-.4,0-.8,0-.8-.285s.285-.342.685-.571a1.823,1.823,0,0,0,.685-1.712v-7.99Z" transform="translate(-102.657 -58.886)"/><path class="a" d="M200.026,62.339c0-.913-.114-2.283-.856-2.34-.571-.057-.97-.228-.97-.514s.285-.285.685-.285c1.427.171,2.8.114,4.223.171,1.427,0,2.8-.171,4.223-.171.4,0,.8,0,.8.342,0,.4-.057.8-.057,1.2s.057.8.057,1.2c0,.228-.057.342-.342.342s-.342-.342-.342-.514c-.114-1.141-.685-1.655-2.8-1.655h-1.2c-.514,0-.628.171-.628.856v3.253c0,.285.285.4,1.027.4,1.084,0,1.883-.285,2.169-1.084.228-.514.285-.571.457-.571.285,0,.285.228.285.514,0,.571-.057,1.084-.057,1.655s.057,1.084.057,1.655c0,.228,0,.514-.342.514-.285,0-.285-.571-.514-.913-.457-.742-.97-.856-2.054-.856-.856,0-1.027.228-1.027.685v3.139c0,1.37.228,1.541,1.2,1.541a4.74,4.74,0,0,0,3.6-1.2c.628-.628.8-1.256,1.084-1.256.228,0,.285.171.285.342a6.325,6.325,0,0,1-.285,1.427,2.413,2.413,0,0,1-1.94,1.655c-1.255,0-2.454-.171-3.709-.171s-2.454.171-3.709.171c-.571,0-.856,0-.856-.285s.342-.4.685-.571c.628-.285.742-.742.742-1.769V62.339Z" transform="translate(-111.114 -58.972)"/></g><g transform="translate(0 50.223)"><path class="a" d="M.114,97.645A2.028,2.028,0,0,1,0,97.074c0-.114.057-.285.4-.285s.457.514.571.742A4.362,4.362,0,0,0,4.68,100.27a2.133,2.133,0,0,0,2.34-2.112c0-2.968-6.791-1.541-6.791-6.563A3.642,3.642,0,0,1,3.938,88c1.541,0,2.511.742,3.082.742.228,0,.628-.228.8-.228.228,0,.285.114.285.342a21.877,21.877,0,0,0,.228,2.91c0,.228-.114.4-.342.4-.342,0-.4-.285-.571-.742a3.968,3.968,0,0,0-3.367-2.568c-1.141,0-2.112.628-2.112,1.712,0,3.139,6.791,1.484,6.791,6.506a4.063,4.063,0,0,1-4.109,4.052,15.449,15.449,0,0,1-3.31-.628c-.171-.057-.457-.057-.571-.285Z" transform="translate(0 -88)"/><path class="a" d="M22.122,90.126c0-.685-.457-.8-1.313-.8-1.769,0-2.568.171-3.025,1.94q0,.171-.342.171c-.285,0-.342-.114-.342-.228,0-.171.057-.4.057-.628l.171-1.883c.057-.342.114-.4.571-.4,1.883,0,3.709.171,5.593.171s3.766-.171,5.593-.171c.457,0,.514.057.571.685l.171,1.883c0,.114.057.285.057.4s-.171.171-.342.171c-.228,0-.285-.057-.342-.171-.457-1.826-1.255-1.94-3.025-1.94-1.027,0-1.313.228-1.313.8v8.5c0,1.427,1.255,1.427,1.826,1.712.228.114.514.057.514.457,0,.285-.228.285-.457.285-1.084,0-2.226-.171-3.31-.171-1.141,0-2.226.171-3.31.171-.228,0-.457,0-.457-.285,0-.4.285-.342.514-.457.628-.285,1.826-.285,1.826-1.712v-8.5Z" transform="translate(-7.341 -88.129)"/><path class="a" d="M43.806,88.628c.228-.457.342-.628.514-.628.057,0,.171.171.285.4l4.565,9.987c.342.685.571,1.6,1.256,1.769.514.171.742.228.742.514s-.171.285-.457.285c-.856,0-1.769-.171-2.568-.171s-1.712.171-2.568.171c-.228,0-.342-.114-.342-.228a.441.441,0,0,1,.457-.4,1.03,1.03,0,0,0,.8-.97,6.745,6.745,0,0,0-.8-2.283c-.228-.228-.571-.285-1.484-.285h-2.8c-.913,0-1.427,1.826-1.427,2.625,0,.285.457.628.856.742.514.171,1.2.285,1.2.571s-.228.285-.514.285c-.628,0-1.256-.171-1.883-.171s-1.256.171-1.883.171c-.228,0-.457,0-.457-.285s.457-.4.742-.571a1.987,1.987,0,0,0,.628-.742Zm-2.112,6.335c-.114.285-.228.457-.228.514,0,.171.285.228.742.228h2c.571,0,.8-.057.8-.114a2.069,2.069,0,0,0-.285-.742l-1.255-2.511q-.171-.342-.342-.342c-.114,0-.228.4-.285.457Z" transform="translate(-16.014 -88)"/><path class="a" d="M64.422,90.126c0-.685-.457-.8-1.313-.8-1.769,0-2.568.171-3.025,1.94q0,.171-.342.171c-.228,0-.342-.114-.342-.228,0-.171.057-.4.057-.628l.171-1.883c.057-.342.114-.4.571-.4,1.883,0,3.709.171,5.593.171s3.766-.171,5.593-.171c.457,0,.514.057.571.685l.171,1.883c0,.114.057.285.057.4s-.171.171-.342.171c-.228,0-.285-.057-.342-.171-.457-1.826-1.255-1.94-3.025-1.94-1.027,0-1.313.228-1.313.8v8.5c0,1.427,1.255,1.427,1.826,1.712.228.114.514.057.514.457,0,.285-.228.285-.457.285-1.084,0-2.226-.171-3.31-.171-1.141,0-2.226.171-3.31.171-.228,0-.457,0-.457-.285,0-.4.285-.342.514-.457.628-.285,1.826-.285,1.826-1.712v-8.5Z" transform="translate(-25.502 -88.129)"/><path class="a" d="M84.226,91.539c0-.913-.114-2.283-.856-2.34-.571-.057-.97-.228-.97-.514s.285-.285.685-.285c1.427.171,2.8.114,4.223.171,1.427,0,2.8-.171,4.223-.171.4,0,.8,0,.8.342,0,.4-.057.8-.057,1.2s.057.8.057,1.2c0,.228-.057.342-.342.342s-.342-.342-.342-.514c-.114-1.141-.685-1.655-2.8-1.655h-1.2c-.514,0-.628.171-.628.856v3.2c0,.285.285.4,1.027.4,1.084,0,1.883-.285,2.169-1.084.228-.514.285-.571.457-.571.285,0,.285.228.285.514,0,.571-.057,1.084-.057,1.655s.057,1.084.057,1.655c0,.228,0,.514-.342.514-.285,0-.285-.571-.514-.913-.457-.742-.97-.856-2.054-.856-.856,0-1.027.228-1.027.685V98.5c0,1.37.228,1.541,1.2,1.541a4.74,4.74,0,0,0,3.6-1.2c.628-.628.8-1.255,1.084-1.255.228,0,.285.171.285.342a6.325,6.325,0,0,1-.285,1.427,2.413,2.413,0,0,1-1.94,1.655c-1.255,0-2.454-.171-3.709-.171s-2.454.171-3.709.171c-.571,0-.856,0-.856-.285s.342-.4.685-.571c.628-.285.742-.742.742-1.769V91.539Z" transform="translate(-35.376 -88.172)"/><path class="a" d="M123.584,91.082a7.285,7.285,0,0,1,.114.97c0,.228-.114.457-.285.457-.228,0-.4-.457-.514-.571-1.141-2.054-2.739-3.082-4.337-3.082-2.34,0-4.052,1.313-4.052,5.307,0,2.8,1.769,5.479,4.28,5.479a5.759,5.759,0,0,0,3.938-1.769c.228-.228.514-.571.8-.571a.209.209,0,0,1,.228.228c0,.571-2,3.538-5.821,3.538a6.15,6.15,0,0,1-6.335-6.106c0-5.136,3.424-6.962,6.563-6.962,2,0,3.538.97,4.052.97.457,0,.285-.571.8-.571a.209.209,0,0,1,.228.228Z" transform="translate(-47.912 -88)"/><path class="a" d="M142.362,88c3.766,0,6.734,2.454,6.734,6.335,0,4.109-3.709,6.791-7.533,6.791-3.767,0-6.563-2.511-6.563-6.22C135,90.968,138.538,88,142.362,88Zm.057,12.27c2.169,0,3.709-2.283,3.709-4.908,0-2.511-1.484-6.506-4.451-6.506-2.169,0-3.709,2.283-3.709,4.908C137.968,96.275,139.508,100.27,142.419,100.27Z" transform="translate(-57.958 -88)"/><path class="a" d="M162.669,90.583c0-1.141-.628-1.541-1.37-1.541a.39.39,0,0,1-.4-.4.329.329,0,0,1,.342-.342c.856,0,1.769.171,2.682.171s1.769-.171,2.454-.171c.285,0,.514,0,.514.285s-.285.4-.514.457a1.428,1.428,0,0,0-.913,1.541v7.932c0,1.37.228,1.541,1.141,1.541a4.74,4.74,0,0,0,3.6-1.2c.628-.628.8-1.2,1.255-1.2.285,0,.4.342.4.742A2.87,2.87,0,0,1,169,101.083c-1.255,0-3.766-.171-4.965-.171-.685,0-1.37.171-2.054.171-.4,0-.8,0-.8-.285s.285-.342.685-.571a1.823,1.823,0,0,0,.685-1.712V90.583Z" transform="translate(-69.078 -88.129)"/><path class="a" d="M182.369,90.583c0-1.141-.628-1.541-1.37-1.541a.39.39,0,0,1-.4-.4.329.329,0,0,1,.342-.342c.856,0,1.769.171,2.682.171s1.769-.171,2.454-.171c.228,0,.514,0,.514.285s-.285.4-.514.457a1.428,1.428,0,0,0-.913,1.541v7.932c0,1.37.228,1.541,1.141,1.541a4.74,4.74,0,0,0,3.6-1.2c.628-.628.8-1.2,1.255-1.2.285,0,.4.342.4.742a2.87,2.87,0,0,1-2.853,2.682c-1.256,0-3.766-.171-4.965-.171-.685,0-1.37.171-2.054.171-.4,0-.8,0-.8-.285s.285-.342.685-.571a1.823,1.823,0,0,0,.685-1.712V90.583Z" transform="translate(-77.535 -88.129)"/><path class="a" d="M202.126,91.539c0-.913-.114-2.283-.856-2.34-.571-.057-.97-.228-.97-.514s.285-.285.685-.285c1.427.171,2.8.114,4.223.171,1.427,0,2.8-.171,4.223-.171.4,0,.8,0,.8.342,0,.4-.057.8-.057,1.2s.057.8.057,1.2c0,.228-.057.342-.342.342s-.342-.342-.342-.514c-.114-1.141-.685-1.655-2.8-1.655h-1.2c-.514,0-.628.171-.628.856v3.2c0,.285.285.4,1.027.4,1.084,0,1.883-.285,2.169-1.084.228-.514.285-.571.457-.571.285,0,.285.228.285.514,0,.571-.057,1.084-.057,1.655s.057,1.084.057,1.655c0,.228,0,.514-.342.514-.285,0-.285-.571-.514-.913-.457-.742-.97-.856-2.054-.856-.856,0-1.027.228-1.027.685V98.5c0,1.37.228,1.541,1.2,1.541a4.74,4.74,0,0,0,3.6-1.2c.628-.628.8-1.255,1.084-1.255.228,0,.285.171.285.342a6.326,6.326,0,0,1-.285,1.427,2.413,2.413,0,0,1-1.94,1.655c-1.255,0-2.454-.171-3.709-.171s-2.454.171-3.709.171c-.571,0-.856,0-.856-.285s.342-.4.685-.571c.628-.285.742-.742.742-1.769V91.539Z" transform="translate(-85.993 -88.172)"/><path class="a" d="M230.045,96.846c0-1.141-.742-1.427-1.484-1.541-.228,0-.342-.171-.342-.457,0-.228.285-.285,1.084-.285.742,0,1.484.114,2.226.114s1.484-.114,2.226-.114c.4,0,.514.114.514.285,0,.285-.285.4-.514.457-.742.228-.856.913-.856,1.541v2.682c0,.285-3.2,1.6-5.593,1.6-3.766,0-6.506-2.4-6.506-6.163A6.7,6.7,0,0,1,227.363,88a11.031,11.031,0,0,1,4.052.97c.457,0,.285-.571.856-.571.114,0,.171.114.228.228l.285,2.568a7.16,7.16,0,0,1,.114.856c0,.285-.114.457-.285.457-.228,0-.4-.457-.514-.571-1.6-2.8-2.91-3.082-4.337-3.082-3.025,0-4.052,2.34-4.052,5.307,0,2.682.742,6.163,3.881,6.163,1.655,0,2.454-.571,2.454-2.34V96.846Z" transform="translate(-94.794 -88)"/><path class="a" d="M246.726,91.539c0-.913-.114-2.283-.856-2.34-.571-.057-.97-.228-.97-.514s.285-.285.685-.285c1.427.171,2.8.114,4.223.171,1.427,0,2.8-.171,4.223-.171.4,0,.8,0,.8.342,0,.4-.057.8-.057,1.2s.057.8.057,1.2c0,.228-.057.342-.342.342s-.342-.342-.342-.514c-.114-1.141-.685-1.655-2.8-1.655h-1.2c-.514,0-.628.171-.628.856v3.2c0,.285.285.4,1.027.4,1.084,0,1.883-.285,2.169-1.084.228-.514.285-.571.457-.571.285,0,.285.228.285.514,0,.571-.057,1.084-.057,1.655s.057,1.084.057,1.655c0,.228,0,.514-.342.514-.285,0-.285-.571-.514-.913-.457-.742-.97-.856-2.054-.856-.856,0-1.027.228-1.027.685V98.5c0,1.37.228,1.541,1.2,1.541a4.74,4.74,0,0,0,3.6-1.2c.628-.628.8-1.255,1.084-1.255.228,0,.285.171.285.342a6.325,6.325,0,0,1-.285,1.427,2.413,2.413,0,0,1-1.94,1.655c-1.255,0-2.454-.171-3.709-.171s-2.454.171-3.709.171c-.571,0-.856,0-.856-.285s.342-.4.685-.571c.628-.285.742-.742.742-1.769V91.539Z" transform="translate(-105.141 -88.172)"/></g><g transform="translate(31.901 68.485)"><path class="a" d="M62.292,122.511a2.223,2.223,0,0,1-.8,1.712,4.243,4.243,0,0,1-4.794,0,2.234,2.234,0,0,1,0-3.424,3.995,3.995,0,0,1,4.794,0A2.223,2.223,0,0,1,62.292,122.511Zm-1.2,0a1.332,1.332,0,0,0-.571-1.141,2.3,2.3,0,0,0-1.484-.457,2.418,2.418,0,0,0-1.484.457,1.49,1.49,0,0,0-.571,1.141,1.332,1.332,0,0,0,.571,1.141,2.3,2.3,0,0,0,1.484.457,2.418,2.418,0,0,0,1.484-.457A1.332,1.332,0,0,0,61.093,122.511Z" transform="translate(-55.9 -120)"/><path class="a" d="M80.279,121.156H76.341v.97h2.739v.913H76.341v1.94H75.2V120.3h5.079Z" transform="translate(-64.186 -120.129)"/><path class="a" d="M106.279,121.156h-3.938v.97h2.739v.913h-2.739v1.94H101.2V120.3h5.079Z" transform="translate(-75.348 -120.129)"/><path class="a" d="M122.437,124.98H117.7V120.3h1.141v3.766h3.6Z" transform="translate(-82.432 -120.129)"/><path class="a" d="M138.892,122.511a2.223,2.223,0,0,1-.8,1.712,4.243,4.243,0,0,1-4.794,0,2.234,2.234,0,0,1,0-3.424,3.995,3.995,0,0,1,4.794,0A2.223,2.223,0,0,1,138.892,122.511Zm-1.2,0a1.332,1.332,0,0,0-.571-1.141,2.3,2.3,0,0,0-1.484-.457,2.418,2.418,0,0,0-1.484.457,1.49,1.49,0,0,0-.571,1.141,1.332,1.332,0,0,0,.571,1.141,2.3,2.3,0,0,0,1.484.457,2.418,2.418,0,0,0,1.484-.457A1.332,1.332,0,0,0,137.693,122.511Z" transform="translate(-88.786 -120)"/><path class="a" d="M157.464,124.98h-1.313l-1.141-1.655h-2.169v1.655H151.7V120.3h3.824a1.751,1.751,0,0,1,1.256.4,1.325,1.325,0,0,1,.514,1.084,1.356,1.356,0,0,1-1.084,1.427Zm-2-2.568a.852.852,0,0,0,.571-.171.7.7,0,0,0,.228-.457.519.519,0,0,0-.228-.457.852.852,0,0,0-.571-.171H152.9v1.255h2.568Z" transform="translate(-97.029 -120.129)"/><path class="a" d="M170.741,124.98H169.6V120.3h1.141Z" transform="translate(-104.714 -120.129)"/><path class="a" d="M183.3,120.3a2.978,2.978,0,0,1,2.054.685,2.17,2.17,0,0,1,.742,1.712,2.108,2.108,0,0,1-.856,1.712,2.9,2.9,0,0,1-1.826.571H180.1V120.3Zm.057,3.766a1.516,1.516,0,0,0,1.256-.628,1.364,1.364,0,0,0,.285-.8,1.47,1.47,0,0,0-1.6-1.484h-2.054v2.91Z" transform="translate(-109.222 -120.129)"/><path class="a" d="M203.435,124.98h-1.141l-.514-1.027h-3.025l-.514,1.027H197.1l2.511-4.68h1.427Zm-2.169-1.94-1.027-1.94-1.027,1.94Z" transform="translate(-116.52 -120.129)"/></g><g transform="translate(60.66 0)"><g transform="translate(0 3.37)"><path class="a" d="M107.782,5.9a5.48,5.48,0,0,0-1.484.8c-.228,17.52,13.582,22.656,14.666,23C118,28.214,107.5,21.708,107.782,5.9Z" transform="translate(-106.295 -5.9)"/></g><g transform="translate(5.995 1.601)"><path class="a" d="M136.374,2.8c-7.248,1.427-16.207,5.25-19.574,14.895.114.171.171.342.285.514.057-.057.171-.057.285-.114,7.191-5.364,16.379-3.481,16.379-3.481s0,5.935-8.047,12.384c.856.457,1.37.685,1.37.685A22.823,22.823,0,0,0,139.057,11.7c-5.764-2-13.7-.228-13.7-.228s3.938-5.193,14.153-7.7V3.713S138.2,3.314,136.374,2.8Z" transform="translate(-116.8 -2.8)"/></g><g transform="translate(3.207)"><path class="a" d="M131.823.968A29.506,29.506,0,0,0,125.488,0a37.054,37.054,0,0,0-13.525,2.739,27.1,27.1,0,0,0,.742,8.275C117.5,3.593,128.912,1.424,131.823.968Z" transform="translate(-111.914 0.006)"/></g></g></svg>