<svg xmlns="http://www.w3.org/2000/svg" viewBox="0 0 136.258 27.563"><defs><style>.a{fill:#9f9f9f;}</style></defs><g transform="translate(0 -0.3)"><path class="a" d="M154.008,17.824v-.26a1.263,1.263,0,0,0-.087-.389,3.81,3.81,0,0,0-.216-.649,1.647,1.647,0,0,0-.389-.563,2.227,2.227,0,0,0-1.082-.692c-.087,0-.13-.043-.216-.043a.042.042,0,0,1-.043-.043v-.043a2.3,2.3,0,0,0-.346-.736l-.043-.043a2.4,2.4,0,0,0-.26-.346c0-.043-.043-.043-.043-.087a1.815,1.815,0,0,0-.606-.389.042.042,0,0,1-.043-.043v-.087a1.472,1.472,0,0,0-.043-.433v-.173c0-.13-.043-.3-.043-.433v-.389c0-.087-.043-.216-.043-.3s-.043-.173-.043-.26a.26.26,0,0,0-.043-.173,1.555,1.555,0,0,0-.087-.476,10.776,10.776,0,0,0-.389-1.6,10.568,10.568,0,0,0-.433-1.038,5.1,5.1,0,0,0-.476-.822,4.584,4.584,0,0,0-.433-.519,2.778,2.778,0,0,0-.563-.433c-.173-.087-.3-.173-.476-.26h-.043c-.043,0-.043-.043-.087-.043-.043-.043-.087-.13-.13-.173h0V5.839a.042.042,0,0,1,.043-.043,2.8,2.8,0,0,1,.389-.346l.043-.043h.043a.042.042,0,0,1,.043.043c.087.043.173.13.26.173l.043.043h.043l.043-.043.649-.779.087-.087h.043c.043,0,.043.043.087.043a3.805,3.805,0,0,0,.433.26,2.108,2.108,0,0,0,.3.13.549.549,0,0,0,.26.043h.043a.042.042,0,0,0,.043-.043V5.146c.043-.043.043-.087.043-.173,0-.043.043-.13.043-.173V4.367c0-.087-.043-.216-.043-.3s-.043-.13-.043-.216V3.762c.043-.087.043-.13.087-.216a1.537,1.537,0,0,0,.087-.433c0-.13.043-.216.043-.346V2.55a.815.815,0,0,0-.087-.346,2.109,2.109,0,0,1-.13-.3c-.043-.043-.043-.087-.087-.173a5.755,5.755,0,0,0-.606-.822,2.4,2.4,0,0,0-.346-.26,2.021,2.021,0,0,0-.433-.216,1.263,1.263,0,0,0-.389-.087c-.087,0-.216-.043-.3-.043h-.865c-.087,0-.13.043-.216.043a.551.551,0,0,0-.389.3c-.043.087-.087.13-.13.216a.615.615,0,0,0-.087.26l-.13.389c-.043.087-.043.216-.087.3,0,.043-.043.087-.043.13a.042.042,0,0,1-.043.043H146c-.3.043-.563.13-.865.173h-.13c-.043,0-.087-.043-.13-.043-.26-.087-.476-.173-.736-.26-.13-.043-.3-.043-.433-.087a.549.549,0,0,1-.26-.043h-.043a2.446,2.446,0,0,0-.563,0H142.5a.39.39,0,0,0-.216.043c-.216.043-.389.087-.606.13l-.649.26c-.13.043-.26.13-.389.173-.043,0-.043.043-.087.043h-1.514a.953.953,0,0,0-.346.043c-.087,0-.173.043-.26.043a.39.39,0,0,0-.216.043,1.263,1.263,0,0,0-.389.087c-.216.043-.389.087-.606.13-.26.043-.476.13-.692.173-.692.216-1.385.433-2.077.692-1.038.433-2.077.909-3.072,1.428a1.881,1.881,0,0,1-.3.173c-.043,0-.087.043-.13.043q-1.168.519-2.337,1.168l-.26.13c-.043.043-.087.043-.13.087a6.9,6.9,0,0,0-1,.433c-.433.173-.822.389-1.255.606-.519.3-1.038.606-1.558.952l-.389.26c-.606.433-1.212.865-1.817,1.255-.433.26-.822.519-1.255.779a2.477,2.477,0,0,1-.649.692c0,.043.043.087.043.173.043.26.087.476.13.736.389-.173.779-.346,1.168-.563a14.608,14.608,0,0,0,1.774-1.038l.043-.043h0v.216a2.857,2.857,0,0,0-.043.606v.563a3.34,3.34,0,0,0,.087.649,8.247,8.247,0,0,0,.433,1.471,3.835,3.835,0,0,0,.346.736,4.717,4.717,0,0,0,.26.476c.043.13.13.216.173.346.043.087.087.13.087.216a.736.736,0,0,1,.043.3.953.953,0,0,1-.043.346,4.019,4.019,0,0,1-.173.563c-.087.173-.173.389-.26.563a11.094,11.094,0,0,1-.952,1.514c-.043.087-.13.173-.173.26l-.087.087-.087.087-.043.043-.13.13a1.341,1.341,0,0,0-.26.563v.216a1.538,1.538,0,0,0,.087.433c0,.043,0,.043.043.087a.736.736,0,0,1,.043.3v.606c0,.13-.043.26-.043.389a6.916,6.916,0,0,1-.216.909,1.018,1.018,0,0,0-.087.346c0,.043-.043.087-.043.13a.815.815,0,0,0-.087.346v.3c0,.087.043.173.043.26.043.087.043.216.087.3a.042.042,0,0,0,.043.043v.087c0,.043-.043.043-.043.087-.087.173-.173.3-.26.476l-.13.389a.39.39,0,0,1-.043.216v.043a.288.288,0,0,0,.173.216h2.726c.087,0,.13-.043.173-.13.043-.043.043-.087.043-.173v-.043c0-.043-.043-.087-.043-.13a2.907,2.907,0,0,0-.26-.519c-.173-.26-.346-.563-.519-.779-.043-.043-.043-.087-.087-.087v-.13a2.106,2.106,0,0,0-.043-.519c-.043-.173-.13-.3-.173-.476,0-.043-.043-.043-.043-.087v-.043c.043-.173.087-.346.13-.563l.26-1.038c.087-.3.13-.563.216-.865v-.043h.043a4.426,4.426,0,0,0,.909-.346c.26-.13.519-.3.736-.433a5.757,5.757,0,0,0,.822-.606A14.405,14.405,0,0,0,128.3,18.69l.087-.087h.043v.043a5.543,5.543,0,0,0,.476.865,5.756,5.756,0,0,0,.606.822c.087.087.13.173.216.216l.087.087a6.612,6.612,0,0,1,.822,1.3,4.367,4.367,0,0,1,.3.649.26.26,0,0,1,.043.173.549.549,0,0,1,.043.26c0,.087.043.13.043.216v.13a8.559,8.559,0,0,1-.519,1.341,1.754,1.754,0,0,1-.216.389,3.8,3.8,0,0,1-.26.433c-.043.087-.13.173-.173.26s-.13.173-.173.26l-.13.26a.26.26,0,0,0-.043.173c0,.043-.043.13-.043.173v.606a1.874,1.874,0,0,0,.043.216v.043c0,.043,0,.043.043.043a1.754,1.754,0,0,0,.389.216,2.758,2.758,0,0,0,.3.087h.692c.087,0,.173-.043.26-.043a2.647,2.647,0,0,0,.519-.216c.087-.043.173-.13.26-.173a1.147,1.147,0,0,0,.216-.26c.043-.043.087-.13.13-.173a.642.642,0,0,0,.043-.3v-.087a.8.8,0,0,0-.087-.3c-.043-.043-.043-.087-.087-.13,0-.043-.043-.087-.043-.13v-.087c0-.043,0-.087.043-.087,0-.043.043-.043.043-.087v-.043c0-.043-.043-.043-.043-.087a2.981,2.981,0,0,1-.13-.346c0-.087-.043-.173-.043-.26h0a1.472,1.472,0,0,1,.043-.433v-.043h.043c.087.087.173.216.26.3.043.087.13.173.173.26a.615.615,0,0,1,.087.26v.173c0,.087-.043.173-.043.26a1.874,1.874,0,0,1-.043.216c0,.087-.043.216-.043.3v.26a.338.338,0,0,0,.173.173h2.293a.238.238,0,0,0,.216-.13c.043-.043.043-.087.043-.173,0-.043,0-.043-.043-.087,0-.043-.043-.043-.043-.087a6.189,6.189,0,0,0-.476-.649,5.183,5.183,0,0,0-.476-.519l-.173-.173c-.173-.173-.3-.346-.476-.519a2.628,2.628,0,0,1-.3-.433,2.109,2.109,0,0,1-.173-.476.953.953,0,0,1-.043-.346v-.216c.043-.043.043-.087.087-.13a2.778,2.778,0,0,1,.433-.563c.13-.13.26-.3.389-.433l.087-.087a2.4,2.4,0,0,1,.26-.346,1.7,1.7,0,0,1,.433-.346l.26-.13c.043,0,.043-.043.087-.043l.043-.043c0-.043.043-.043.087-.087l.087-.087.043-.043c0-.043.043-.043.043-.087.26-.476.476-.952.736-1.385,0-.043.043-.043.043-.087h.087c.216.087.476.13.692.216a1.018,1.018,0,0,0,.346.087c.26.087.519.13.779.216a.844.844,0,0,0,.346.043h.043a.042.042,0,0,1,.043.043c0,.043,0,.043.043.087l.26.649c.13.389.3.736.433,1.125.043.087.043.087,0,.173a2.106,2.106,0,0,0-.043.519,1.152,1.152,0,0,0,.13.519,1.921,1.921,0,0,0,.346.476,1.787,1.787,0,0,0,.476.3c.043,0,.043,0,.087.043h.043c0,.043.043.043.043.087.173.3.389.606.563.909.13.26.3.476.433.736a.615.615,0,0,1,.087.26c0,.13.043.26.043.389a.39.39,0,0,0,.043.216v.043c0,.043-.043.087-.043.13s-.043.087-.043.13v.389a.042.042,0,0,1,.043.043c0,.043,0,.043.043.087v.043c0,.043.043.043.087.043a.151.151,0,0,1,.087.043c.087,0,.13.043.216.043a.736.736,0,0,1,.3.043h3.851a.736.736,0,0,0,.3-.043.159.159,0,0,0,.13-.043.042.042,0,0,0,.043-.043c.043,0,.043-.043.043-.087v-.13c-.043-.043-.043-.13-.087-.173l-.13-.13a2.4,2.4,0,0,0-.346-.26,1.968,1.968,0,0,0-.822-.26h-.173c-.087-.043-.216-.087-.3-.13a4.254,4.254,0,0,0-.692-.216c-.043,0-.13-.043-.173-.043s-.043,0-.043-.043l-.043-.043a3.9,3.9,0,0,0-.433-.389l-.043-.043v-.043a.151.151,0,0,1,.043-.087c.13-.346.3-.692.433-1.082.173-.389.346-.822.519-1.212a.042.042,0,0,1,.043-.043h0l.043.043a1.712,1.712,0,0,0,.649.433,1.152,1.152,0,0,0,.519.13,2.467,2.467,0,0,0,.563.043h.173a1.043,1.043,0,0,0,.779-.3l.216-.216a1.6,1.6,0,0,0,.3-.606v-.087a.549.549,0,0,1,.043-.26c.043-.173.043-.3.087-.476v-.043h0v.087c.13.346.216.692.346,1.038l.087.173.519.649c.043.043.043.043.043.087v.087a1.442,1.442,0,0,0,0,.433.835.835,0,0,0,.13.433,2.377,2.377,0,0,0,.3.389c.043.043.13.087.173.13s.087.043.13.087a2.4,2.4,0,0,1,.346.26c.087.043.13.13.216.216.043.043.087.13.13.173,0,.043.043.087.043.13s.043.087,0,.13c0,.13-.043.3-.043.433v.433a.237.237,0,0,0,.173.26h1.688c.087,0,.13-.043.173-.13a.159.159,0,0,0,.043-.13.26.26,0,0,0-.043-.173c-.043-.043-.043-.087-.087-.173a3.072,3.072,0,0,0-.433-.606c-.13-.13-.216-.26-.346-.389l-.13-.13c-.26-.216-.476-.476-.736-.692l-.043-.043v-.043c0-.043.043-.087.043-.13a1.775,1.775,0,0,0,.043-.476.911.911,0,0,0-.216-.563.338.338,0,0,0-.173-.173l-.087-.087v-.043c0-.043-.043-.13-.043-.173a2.172,2.172,0,0,1-.087-.519,2.172,2.172,0,0,1-.087-.519,2.532,2.532,0,0,1-.087-.563c-.043-.13-.043-.3-.087-.433,0-.13-.043-.216-.043-.346,0-.087-.043-.13-.043-.216a.549.549,0,0,0-.043-.26.845.845,0,0,0-.043-.3v-.13a.042.042,0,0,1,.043-.043h.13a.953.953,0,0,0,.346-.043,1.9,1.9,0,0,0,.433-.087h.346c.173.043.3.087.476.13a3,3,0,0,1,.563.216,2.022,2.022,0,0,1,.433.216.042.042,0,0,1,.043.043h.043V19.9a3.151,3.151,0,0,0-.3-1.038,2.843,2.843,0,0,0-.519-.736l-.043-.043V18c.043-.13.13-.26.173-.389.043-.043.043-.13.087-.173v-.043a.042.042,0,0,1,.043-.043,1.912,1.912,0,0,1,.692.26l.519.389a4.6,4.6,0,0,1,.389.476,2.993,2.993,0,0,1,.433.822,2.44,2.44,0,0,1,.173.519c0,.043,0,.043.043.087h0v-.043a.549.549,0,0,1,.043-.26V18.084C154.051,17.824,154.008,17.824,154.008,17.824ZM148.3,7.44h0a.134.134,0,0,0,.087.043,2.4,2.4,0,0,1,.26.346,5.543,5.543,0,0,1,.476.865,6.308,6.308,0,0,1,.3.822l.13.519a1.2,1.2,0,0,1,.043.389.736.736,0,0,0,.043.3v.043a.736.736,0,0,0,.043.3v.736h0l-.043-.043c-.087-.216-.216-.389-.3-.606-.043-.043-.043-.087-.087-.13a4.325,4.325,0,0,1-.346-.606c0-.043-.043-.043-.043-.087V9.776a3.665,3.665,0,0,0-.173-.736,2.109,2.109,0,0,0-.173-.476c0-.043-.043-.087-.043-.13v-.26a1.264,1.264,0,0,0-.087-.389,1.945,1.945,0,0,1-.087-.346Zm-.173,1.212a3.391,3.391,0,0,1,.216.606c.043.173.087.3.13.476,0,.087.043.173.043.26v.389a.26.26,0,0,1-.043.173c0,.043-.043.087-.087.13a.432.432,0,0,1-.216.173c-.043,0-.043,0-.087.043h0a.159.159,0,0,1,.13.043c.087,0,.13.043.216.043.043,0,.087.043.173.043h.043V10.9c0-.043,0-.087.043-.087v-.043c0-.043.043-.043.087-.043h.043l.043.043c.043.043.043.087.087.087.043.043.043.13.087.173l.26.519c.216.389.389.822.606,1.212l.13.26h-.043c-.173-.087-.3-.173-.476-.26h0v.043h-.043l-.043-.043a2.679,2.679,0,0,0-.822-.3c-.087,0-.216-.043-.3-.043h-.216a.042.042,0,0,1-.043-.043c-.043-.043-.043-.13-.087-.173-.043-.087-.13-.173-.173-.26a2.377,2.377,0,0,0-.3-.389c-.13-.173-.3-.389-.433-.563-.087-.13-.216-.3-.3-.433a2.909,2.909,0,0,1-.26-.519c-.043-.087-.043-.13-.087-.216V9.733h0c.087-.087.173-.216.26-.3h0v.043l.13.389c.043.087.043.13.087.216,0,.043.043.087.087.13h0c0-.087-.043-.173-.043-.26a2.856,2.856,0,0,1-.043-.606.39.39,0,0,1,.043-.216c0-.043.043-.043.043-.087.043-.043.043-.087.13-.13.043-.043.087-.043.13-.087.13-.043.216-.087.346-.13a1.28,1.28,0,0,1,.433-.087h.043C148.123,8.608,148.123,8.608,148.123,8.651Zm-4.414,5.019c.087,0,.216.043.3.043a3.187,3.187,0,0,1,.606.173,3.579,3.579,0,0,1,.692.389l.043.043h-.043a.042.042,0,0,1-.043-.043,3.808,3.808,0,0,0-.649-.216,1.075,1.075,0,0,0-.346-.043h-.3a1.775,1.775,0,0,0-.476.043c-.13,0-.216.043-.346.043-.173.043-.389.087-.562.13a9.387,9.387,0,0,0-1.514.649c-.043,0-.043.043-.087.043h0v-.043a3.277,3.277,0,0,1,.389-.779,3.76,3.76,0,0,1,.736-.692,4.368,4.368,0,0,1,.649-.3,3.032,3.032,0,0,1,.606-.13c.087,0,.173-.043.26-.043.13,0,.26-.043.389-.043h.909a.736.736,0,0,1,.3.043.26.26,0,0,1,.173.043c.087,0,.173.043.26.043a.042.042,0,0,1,.043.043,1.263,1.263,0,0,1,.087.389v.087a.815.815,0,0,1-.087.346h-.043a4.727,4.727,0,0,0-.736-.216,1.2,1.2,0,0,0-.389-.043c-.173,0-.3-.043-.476-.043-.13.043-.26.043-.346.087Zm-.433,2.207-.26-.26c-.043-.087-.087-.13-.13-.216v-.087a1.617,1.617,0,0,0,.3.26c.087.043.173.13.26.173s.173.043.216.087h.043l.043.043h0v.3l-.043.043h0A2.5,2.5,0,0,0,143.276,15.877Zm.26,1.817h0c0,.043,0,.043-.043.043h-.087c-.043,0-.13.043-.173.043-.043.043-.087.043-.13.087a.159.159,0,0,1-.13.043c-.043,0-.043.043-.087.043a.06.06,0,0,1-.087,0h-.13a.615.615,0,0,0-.26-.087h-.043l-.043-.043v-.043c0-.043,0-.043-.043-.087a2.981,2.981,0,0,0-.13-.346.636.636,0,0,0-.216-.26L141.849,17c-.13-.173-.26-.389-.389-.563-.173-.216-.3-.476-.476-.692,0-.043-.043-.043-.043-.087v-.043c.043,0,.043,0,.087-.043.13-.043.216-.087.346-.13.216-.087.433-.173.692-.26.043,0,.043,0,.087-.043h.043c0,.043,0,.043.043.087a1.6,1.6,0,0,0,.216.476,3.745,3.745,0,0,0,.3.433,3.458,3.458,0,0,0,.563.563c.043.043.087.087.13.087l.043.043v.563A.845.845,0,0,1,143.536,17.695ZM142.411,10.9l-.087-.087a1.554,1.554,0,0,1-.3-.433,1.375,1.375,0,0,1-.13-.389c0-.087-.043-.216-.043-.3a.39.39,0,0,1,.043-.216c.043-.173.087-.3.13-.476.043-.087.043-.173.087-.26V8.694h0a1.148,1.148,0,0,0-.216.26.042.042,0,0,1-.043.043h-.043a.042.042,0,0,0-.043-.043c-.043-.087-.087-.216-.13-.3a5.233,5.233,0,0,1-.216-.779,1.075,1.075,0,0,1-.043-.346.549.549,0,0,0-.043-.26V6.358l.043-.043h.087a.042.042,0,0,1,.043.043v.736a1.556,1.556,0,0,0,.087.476c.043.087.043.216.087.3.043.043.043.13.087.173h0c0-.087-.043-.173-.043-.26,0-.13-.043-.26-.043-.389V6.661a.549.549,0,0,1,.043-.26V6.358h.087c.173.043.346.043.476.087.216.043.389.087.606.13l.519.13c.087.043.13.043.216.087h.043v.043a3.722,3.722,0,0,1-.043.692v.952a.845.845,0,0,0,.043.3v.043c.043.087.043.173.087.26.043.216.13.433.173.649.043.173.087.346.13.476a1.2,1.2,0,0,1,.043.389v1.817a.042.042,0,0,1-.043.043h-.779a1.96,1.96,0,0,0-.692.13h-.13a.042.042,0,0,0-.043-.043c-.087-.216-.173-.389-.26-.606-.087-.26-.216-.476-.3-.736l-.13-.389v-.087h0c.043,0,.043.043.087.043.087.043.13.13.216.173a1.9,1.9,0,0,1,.389-.043Zm3.289,1.644h-.043c-.043,0-.087-.043-.13-.043l-.389-.13a.642.642,0,0,0-.3-.043h-.173a.042.042,0,0,1-.043-.043c0-.043-.043-.043-.043-.087s-.043-.087-.043-.13a1.2,1.2,0,0,1-.043-.389V9.3l.26-.26c.043,0,.043-.043.087-.043a.151.151,0,0,0,.087-.043h.043a.26.26,0,0,1,.173.043l.26.13c.043.043.087.043.087.087.043.043.043.087.087.13.043.087.087.13.13.216s.13.13.173.216c.13.13.216.26.346.389l.043.043v.043h0c0,.087.043.13.087.216.173.26.3.476.476.736.043.043.043.087.087.13.26.346.519.692.779,1l.043.043v.043h-.087c-.13-.043-.3-.087-.433-.13-.087,0-.173-.043-.26-.043h-.649a1.275,1.275,0,0,0-.563.216C145.786,12.5,145.743,12.545,145.7,12.545Zm4.067-7.875h0a.042.042,0,0,1-.043.043h-.043a1.275,1.275,0,0,1-.563-.216,1.921,1.921,0,0,1-.476-.346,4.6,4.6,0,0,1-.389-.476,2.76,2.76,0,0,1-.346-.606V3.026h0a3.95,3.95,0,0,0,.563.346c.26.13.563.26.865.389.043,0,.087.043.13.043.13.043.173.13.26.216a.39.39,0,0,1,.043.216v.087A.463.463,0,0,1,149.767,4.67Zm-3.245-3.418h0c.043.043.087.043.087.087l.26.26a4.583,4.583,0,0,0,.519.433,1.754,1.754,0,0,0,.389.216h.043l-.043-.043a4.6,4.6,0,0,1-.476-.389,4.31,4.31,0,0,1-.433-.476c-.043-.043-.043-.087-.087-.13,0-.043-.043-.13-.043-.173a.393.393,0,0,1,.13-.3c.043-.043.087-.087.13-.087s.087-.043.13-.043a.549.549,0,0,1,.26-.043h.346a1.263,1.263,0,0,1,.389.087,2.453,2.453,0,0,1,.563.346,1.921,1.921,0,0,1,.346.476c0,.043.043.043.043.087h0V1.3a.615.615,0,0,0-.087-.26h0a3.9,3.9,0,0,1,.389.433c.087.13.173.216.26.346a2.021,2.021,0,0,1,.216.433c.043.13.043.216.087.346v.389a.327.327,0,0,1-.043.173V3.2s-.043.043-.043,0a.042.042,0,0,1-.043-.043c-.043-.043-.043-.087-.087-.13s-.043-.087-.087-.13a.042.042,0,0,0-.043-.043h0c0,.173-.043.3-.043.476,0,.043-.043.13-.043.173s0,.043-.043.087h-.087c-.173-.13-.389-.26-.563-.389a6.515,6.515,0,0,0-.736-.433c-.043-.043-.13-.043-.173-.087-.173-.087-.389-.173-.563-.26a1.554,1.554,0,0,1-.433-.3,2.8,2.8,0,0,1-.346-.389,1.48,1.48,0,0,0-.043-.476Zm-.649,1.774c0-.087.043-.173.043-.3,0-.043,0-.043.043-.087s.087-.087.13-.087h.043v.13a.736.736,0,0,0,.043.3c.043.087.043.13.087.216h0c0-.043,0-.087-.043-.087V2.9a1.264,1.264,0,0,1,.087-.389.328.328,0,0,1,.087-.173c.043-.043.043-.087.087-.087a.225.225,0,0,1,.173-.087h.043a.159.159,0,0,1,.13.043l.043.043V2.29c0,.043-.043.043-.043.087-.043.043-.087.13-.13.173a.642.642,0,0,0-.043.3V2.9h0V2.81c.043-.087.043-.13.087-.173.043-.087.13-.13.216-.216.043,0,.043-.043.087-.043s.087,0,.087.043v.26h0l-.043.043c-.13.13-.26.3-.389.433l-.043.043v.043l.043.043.3.3h.087a.042.042,0,0,0,.043-.043,2.378,2.378,0,0,0,.389-.3l.043-.043h.043l.26.26a.225.225,0,0,1,.087.173.159.159,0,0,1,.043.13c0,.043.043.13.043.173a.238.238,0,0,1-.13.216c-.043,0-.043.043-.087.043h.173a.736.736,0,0,0,.3-.043h.087a.042.042,0,0,1,.043.043l.13.13v.043h0l-.519.649h-.043c-.087-.043-.13-.087-.216-.13L147.69,4.8a.134.134,0,0,1-.043-.087V4.67c0-.043.043-.087.087-.13.043,0,.043-.043.087-.043h0a.26.26,0,0,0-.173.043h0a.262.262,0,0,0-.13.26.159.159,0,0,0,.043.13.134.134,0,0,0,.043.087V5.06l-.087.087-.087.087h-.043c-.043-.043-.13-.087-.173-.13h0v.043a.26.26,0,0,1-.043.173l-.043.043a.944.944,0,0,1-.216.173.159.159,0,0,1-.13.043h-.087a.328.328,0,0,1-.173-.087c-.043-.043-.087-.087-.087-.13l-.087-.087a1.55,1.55,0,0,1-.173-.476c0-.087-.043-.173-.043-.26V4.367c0-.13.043-.26.043-.389a1.808,1.808,0,0,1,.173-.433l.043-.043h-.043a.521.521,0,0,0-.216.216.042.042,0,0,1-.043.043h0a.151.151,0,0,0-.043-.087c0-.13-.043-.216-.043-.346A.36.36,0,0,1,145.873,3.026Zm-.043,3.2A.328.328,0,0,1,146,6.141c.087-.043.13-.087.216-.087.13-.043.3-.087.433-.13a1.874,1.874,0,0,0,.216-.043h.043l.043.043c.13.173.216.346.346.519a.946.946,0,0,1,.13.216l.13.26v.087a4.109,4.109,0,0,1,.389.909c.043.13.043.216.087.346v.043h-.043c-.13.043-.216.087-.346.13a1.3,1.3,0,0,0-.346.173,1.921,1.921,0,0,0-.476.346l-.13.13-.216.216a.776.776,0,0,0-.216.3.042.042,0,0,1-.043.043h-.043a.042.042,0,0,0-.043-.043c-.043-.087-.13-.216-.173-.3a4.367,4.367,0,0,1-.3-.649c-.043-.13-.13-.3-.173-.476a1.874,1.874,0,0,1-.043-.216V7.916h0c0,.087-.043.216-.043.3a1.2,1.2,0,0,0,.043.389v.043H145.4a.39.39,0,0,0-.216-.043h-.087a.26.26,0,0,0-.173.043c-.043,0-.087.043-.13.043-.043.043-.13.087-.173.13a1.3,1.3,0,0,1-.346.173h-.087v-.13c0-.13-.043-.3-.043-.433V8.262A.549.549,0,0,0,144.1,8V7.959a.042.042,0,0,1,.043-.043c.3-.346.606-.649.909-.952a4.583,4.583,0,0,1,.519-.433A.624.624,0,0,1,145.829,6.228Zm-6.577-2.553a2.268,2.268,0,0,1,.476-.433,1.787,1.787,0,0,1,.476-.3c.216-.13.433-.26.692-.389.346-.173.692-.3,1.038-.476a.042.042,0,0,0,.043-.043c.043,0,.087-.043.13-.043.13,0,.26-.043.433-.043h.692a.736.736,0,0,1,.3.043l.649.13a.328.328,0,0,1,.173.087c.043,0,.043.043.087.043s.043.043.087.087a.159.159,0,0,1,.043.13c0,.043.043.13.043.173a.845.845,0,0,0,.043.3h0c0-.043.043-.13.043-.173.043-.087.043-.173.087-.26V2.464a.042.042,0,0,1,.043-.043c.043,0,.13-.043.173-.043.216-.043.389-.13.606-.173h.043V2.29l-.13.519a.736.736,0,0,1-.043.3V4.151c0,.087.043.216.043.3v.13h0a.042.042,0,0,0-.043.043c-.216.087-.389.173-.606.26h-.087v-1.9h0c0,.043,0,.043-.043.087V3.2a1.874,1.874,0,0,1-.043.216c0,.087-.043.216-.043.3V5.276h.087a.327.327,0,0,0,.173-.043c.13,0,.26-.043.389-.043a.26.26,0,0,0,.173-.043h.043a.042.042,0,0,1,.043.043.159.159,0,0,1-.043.13,2.11,2.11,0,0,1-.13.3,1.754,1.754,0,0,1-.216.389,3.741,3.741,0,0,1-.3.433c-.173.216-.346.476-.519.692a.042.042,0,0,1-.043.043h0V4.454c0,.043,0,.043-.043.087v.087c0,.087-.043.216-.043.3,0,.13-.043.26-.043.346,0,.13-.043.216-.043.346s-.043.216-.043.346-.043.216-.043.346c0,.087-.043.13-.043.216a.159.159,0,0,1-.043.13h0V3.545a2.922,2.922,0,0,0-.087-.606.331.331,0,0,0-.087-.216c-.043-.043-.043-.13-.087-.173l-.087-.087h-.087V2.55a.736.736,0,0,1,.043.3,1.874,1.874,0,0,0,.043.216c0,.13.043.216.043.346v.692a.39.39,0,0,1-.043.216,1.1,1.1,0,0,1-.087.3.042.042,0,0,1-.043.043h-.087c-.087-.043-.13-.13-.216-.173a2.166,2.166,0,0,1-.3-.346c-.13-.173-.3-.389-.433-.563-.043-.087-.13-.173-.173-.26a.042.042,0,0,0-.043-.043h0a4.272,4.272,0,0,0,.736,1.385,3.306,3.306,0,0,0,.389.389l.043.043V6.315h-.043a3.743,3.743,0,0,0-.736-.3c-.26-.087-.519-.13-.779-.216-.13-.043-.3-.043-.433-.087a1.2,1.2,0,0,0-.389-.043.159.159,0,0,1-.13-.043V5.579h0V4.54a.736.736,0,0,0-.043-.3c0-.087-.043-.13-.043-.216,0-.13-.043-.216-.043-.346-.043-.087-.043-.216-.087-.3h0v.389a1.623,1.623,0,0,1-.043.433v.433a1.623,1.623,0,0,1-.043.433h0c0,.13-.043.26-.043.433v.692a.042.042,0,0,0,.043.043h.389v.909c0,.13.043.26.043.389.043.173.043.3.087.476a1.018,1.018,0,0,1,.087.346v.087h-.043c-.087,0-.173-.043-.3-.043-.087,0-.173-.043-.3-.043a.26.26,0,0,1-.173-.043h-.043l.043.043c.26.13.563.26.822.389.043,0,.043.043.087.043l.043.043V9.3h0a3.609,3.609,0,0,1-.519.346c-.087.043-.216.087-.3.13a.549.549,0,0,1-.26.043h-.26a.151.151,0,0,1-.087-.043c-.692-.389-1.428-.779-2.12-1.168a.151.151,0,0,1-.087-.043h.043c.13.043.26.087.433.13.26.087.519.13.779.216.216.043.389.087.606.13.087,0,.216.043.3.043h.087c-.043,0-.043-.043-.087-.043-.26-.087-.476-.13-.736-.216-.346-.13-.736-.26-1.082-.389a2.643,2.643,0,0,1-.606-.3c-.13-.087-.26-.13-.389-.216-.087-.043-.13-.087-.216-.13a.338.338,0,0,1-.173-.173c-.043-.043-.087-.087-.087-.13a.159.159,0,0,1-.043-.13V7.267c.043-.043.043-.087.087-.13a.776.776,0,0,1,.3-.216,1.3,1.3,0,0,1,.346-.173c.173-.043.3-.087.476-.13.13-.043.26-.043.346-.087.087,0,.216-.043.3-.043h.043a4.7,4.7,0,0,1,.779-.043h.779c-.043,0-.13-.043-.173-.043-.346-.087-.649-.173-1-.26a10.441,10.441,0,0,1-1.082-.346h-.043s-.043-.043,0-.043a.042.042,0,0,1,.043-.043,7.566,7.566,0,0,1,.779-1.255,2.778,2.778,0,0,1,.433-.563A2.95,2.95,0,0,0,139.252,3.675Zm-8.221,9.736c-.389-.346-.779-.736-1.168-1.125-.13-.13-.26-.3-.389-.433l-.087-.087a.19.19,0,0,0-.216-.043.274.274,0,0,0-.26.216v.087a.159.159,0,0,0,.043.13c.043.173.043.3.087.476a1.334,1.334,0,0,1,.043.433v.26a6.39,6.39,0,0,1,.043.909v.476a4.708,4.708,0,0,1-.3,1.3,3.133,3.133,0,0,1-.476.822,9.507,9.507,0,0,1-.606.779l-.087.087-.216.216c-.043.043-.087.13-.13.173l-.13.13c-.346.346-.649.649-1,.952-.043.043-.13.087-.173.13-.173.13-.346.216-.519.346a1.537,1.537,0,0,1-.389.173c-.043,0-.087.043-.13.043a.39.39,0,0,1-.216.043h-.173a.186.186,0,0,1-.173-.173v-.216c.043-.087.043-.173.087-.26a1.3,1.3,0,0,1,.173-.346,2.021,2.021,0,0,0,.216-.433,4.807,4.807,0,0,0,.3-.692c.043-.173.13-.346.173-.519a.736.736,0,0,0,.043-.3v-.346a.159.159,0,0,0-.043-.13.151.151,0,0,0-.043-.087l-.26-.519c-.13-.3-.3-.606-.433-.909-.173-.433-.389-.909-.563-1.341,0-.043-.043-.087-.043-.173-.043-.13-.043-.216-.087-.346,0-.087-.043-.173-.043-.26v-.087a1.775,1.775,0,0,1-.043-.476v-.822a.39.39,0,0,1,.043-.216,5.81,5.81,0,0,1,.3-1.168,4.5,4.5,0,0,1,1.341-1.774c.216-.13.389-.26.606-.389a.159.159,0,0,1,.13-.043c.476-.173,1-.3,1.471-.476.216-.087.433-.13.692-.216.043,0,.043,0,.087-.043l.043-.043V7.05c.043-.087.043-.13.087-.216s.13-.13.173-.216c.087-.087.173-.13.216-.173a1.754,1.754,0,0,1,.389-.216,1.55,1.55,0,0,1,.476-.173c.087-.043.13-.043.216-.087a.328.328,0,0,0,.173-.087c.3-.173.606-.3.909-.476.779-.389,1.6-.779,2.423-1.125.216-.087.476-.173.692-.26a9.9,9.9,0,0,1,1.212-.346,4.051,4.051,0,0,0,.692-.173c.13-.043.3-.043.433-.087.13,0,.26-.043.346-.043s.173-.043.26-.043.173-.043.3-.043h.26a.736.736,0,0,0,.3-.043c.216,0,.389-.043.606-.043h.433l-.043.043c-.043.043-.13.087-.173.173l-.346.346a10.492,10.492,0,0,0-.606.865l-.26.389c-.043.043-.087.13-.13.173a.328.328,0,0,0-.087.173,1.085,1.085,0,0,1-.173.3,6.191,6.191,0,0,1-.476.649c-.043.087-.13.13-.173.173a.6.6,0,0,1-.173.13c-.043,0-.043.043-.087.087s-.043.043-.043.087a.151.151,0,0,1-.043.087,2.5,2.5,0,0,0-.216.606c0,.087-.043.173-.043.26v.043a1.694,1.694,0,0,0-.346.433l-.26.389c-.13.26-.26.519-.389.822a9.986,9.986,0,0,0-.433,1.212c-.13.476-.26.909-.389,1.385a7.538,7.538,0,0,0-.216.952c0,.087-.043.173-.043.26,0,.043-.043.087-.043.173l-.389,1.3-.13.389v.043h0c-.043,0-.043,0-.087-.043a4.323,4.323,0,0,1-.606-.346,10.5,10.5,0,0,1-.865-.606C131.637,13.93,131.334,13.671,131.031,13.411Zm3.635,7.14h0l-.043.043-1.082,1.082c-.26.3-.563.606-.822.909l-.389.519a1.518,1.518,0,0,0-.216.346,2.648,2.648,0,0,0-.216.519,1.537,1.537,0,0,0-.087.433v.563a.39.39,0,0,0,.043.216,2.8,2.8,0,0,0,.173.563v.087h0a2.453,2.453,0,0,1-.563.346c-.13.043-.216.087-.346.13h-.26a.731.731,0,0,1-.433-.13.6.6,0,0,0-.173-.13v-.087l.13-.26c.3-.649.606-1.255.909-1.9a.39.39,0,0,0,.043-.216V23.1c0-.13.043-.216.043-.346,0-.087.043-.173.043-.26a.39.39,0,0,1,.043-.216,1.264,1.264,0,0,1,.087-.389c.043-.13.043-.26.087-.389a7.4,7.4,0,0,1,.389-1.3,4.806,4.806,0,0,1,.3-.692l.043-.043s.043-.043.043,0v.087a1.462,1.462,0,0,0,.26.519,1.147,1.147,0,0,0,.26.216,1.537,1.537,0,0,0,.389.173,1.28,1.28,0,0,0,.433.087c.087,0,.216.043.3.043h.519c0-.087.043-.087.087-.043Zm2.25-3.851c0,.043-.043.043-.043.087h0c0-.087.043-.216.043-.3a1.2,1.2,0,0,0-.043-.389.39.39,0,0,0-.043-.216c0-.13-.043-.216-.043-.346,0-.087-.043-.216-.043-.3,0-.043,0-.043-.043-.087h0v.173c0,.13-.043.26-.043.389a1.9,1.9,0,0,1-.087.433,6.686,6.686,0,0,1-.3,1,4.854,4.854,0,0,1-.865,1.428,3.075,3.075,0,0,1-.649.649c-.087.043-.13.13-.216.173h0a.26.26,0,0,0,.173-.043,4.613,4.613,0,0,0,.822-.3.9.9,0,0,0,.26-.173l.043-.043h0v.087a7.057,7.057,0,0,1-.389.822v.043H135.4c-.13.043-.216.043-.346.087a1.472,1.472,0,0,1-.433.043h-.26a.324.324,0,0,1-.216-.043l-.519-.13a1.341,1.341,0,0,1-.562-.26.042.042,0,0,1-.043-.043v-.087l.043-.043a1.148,1.148,0,0,0,.26-.216c.043-.043.087-.087.087-.13h0c-.043,0-.043,0-.087.043a.2.2,0,0,1-.216,0,2.109,2.109,0,0,1-.3-.13l-.043-.043a1.472,1.472,0,0,1-.043-.433V18.3l.13-.26c.13-.3.3-.649.433-.952a1.3,1.3,0,0,1,.173-.346c.043-.043.043-.13.087-.173.043-.13.087-.3.13-.433.087-.26.13-.563.216-.865v-.043c0-.087,0-.087.087-.13a6.191,6.191,0,0,0,.476-.649c.173-.216.3-.476.476-.736.043-.087.087-.13.13-.216.043-.043.043-.087.043-.173v-.087a.093.093,0,0,0-.087-.087h-.087c-.043,0-.13.043-.173.043-.087.043-.13.043-.216.087-.043,0-.043.043-.087.043h-.043a.26.26,0,0,1,.043-.173c.043-.26.13-.476.173-.692a8.194,8.194,0,0,1,.389-.909c.173-.346.389-.736.606-1.082.26-.389.519-.822.822-1.212.043-.043.043-.087.087-.13V9.084h0v.043h0c-.346.346-.692.649-1.038,1-.043.043-.043.043-.087.043h0a.159.159,0,0,1,.043-.13,1.537,1.537,0,0,1,.173-.389A4.729,4.729,0,0,1,135.964,9c.13-.216.26-.476.389-.692l.043-.043h.043l.043.043c.216.216.433.476.649.692s.476.433.692.649c.346.3.736.649,1.082.952.043.043.043.043.087.043h0a.042.042,0,0,0-.043-.043c-.043-.043-.087-.087-.087-.13l-.26-.389-.649-1.038V9H138a1.537,1.537,0,0,1,.389.173c1,.389,1.99.822,2.986,1.212.173.043.13.043.173.173.043.173.13.346.173.519v.087a.042.042,0,0,1-.043.043.6.6,0,0,1-.173.13,1.085,1.085,0,0,1-.3.173c-.173.087-.389.216-.563.3-.13.043-.26.13-.389.173a.042.042,0,0,0-.043.043h.216l.519-.13a5.632,5.632,0,0,0,.736-.346.328.328,0,0,1,.173-.087h.043l.043.043c.087.216.216.433.3.649a1.3,1.3,0,0,0,.173.346v.043h0a.042.042,0,0,0-.043.043c-.043.043-.087.043-.13.087a2.887,2.887,0,0,0-1.168,1,2.2,2.2,0,0,0-.389.779.615.615,0,0,0-.087.26v.043h-.043c0-.043-.043-.043-.043-.087-.216-.3-.433-.606-.606-.909a1.518,1.518,0,0,1-.216-.346.042.042,0,0,0-.043-.043v-.043h.087c.087.043.173.043.216.087a1.88,1.88,0,0,0,.3.173c.043.043.087.043.087.087h0a3.949,3.949,0,0,1-.346-.563l-.389-.779c-.087-.173-.173-.346-.26-.563a.042.042,0,0,0-.043-.043h0v.043a4.525,4.525,0,0,1-.173.736,7.8,7.8,0,0,1-.346.909l-.519,1.168C137.695,15.358,137.348,16.05,136.916,16.7Zm4.543,1.168c-.087.087-.216.173-.3.26a1.754,1.754,0,0,1-.389.216,1.352,1.352,0,0,1-.952,0c-.13-.043-.26-.13-.389-.173a2.377,2.377,0,0,1-.389-.3,5.189,5.189,0,0,1-.476-.519c-.173-.26-.346-.476-.519-.736a1.754,1.754,0,0,1-.216-.389.042.042,0,0,0-.043-.043v-.043c0-.043.043-.043.043-.087.13-.26.3-.563.433-.822a7.4,7.4,0,0,1,.563-1,.159.159,0,0,0,.043-.13V14.06c0-.043,0-.043.043-.087,0-.043.043-.043.087-.043h.043c.043,0,.043,0,.087.043l.087.087.13.13c.043.043.087.13.13.173a5.251,5.251,0,0,0,.433.606c.13.216.26.389.389.606l.043.043v.346c0,.043,0,.043.043.043h.043c.043,0,.087-.043.13-.043h.043a.042.042,0,0,0,.043.043c.346.563.692,1.082,1.038,1.644a.042.042,0,0,0,.043.043v.043h0A.453.453,0,0,0,141.459,17.868Zm.519,3.418v.346h0a1.554,1.554,0,0,0-.3-.433h0v-.043c.043-.087.043-.173.087-.26.087-.346.216-.692.3-1.038,0-.043,0-.087.043-.087h.3s.043,0,0,.043v.043c-.043.173-.087.3-.13.476-.043.13-.043.26-.087.433a1.2,1.2,0,0,0-.043.389C142.022,21.113,142.022,21.2,141.978,21.286Zm1.947,1.038c-.3.822-.649,1.6-.952,2.423,0,.043-.043.043-.043.087v.043h0a1.554,1.554,0,0,0,.3.433l.216.216a.225.225,0,0,0,.173.087c.087.043.13.043.216.087.13.043.26.043.389.087.043,0,.087,0,.087.043a.042.042,0,0,1,.043.043v.043c0,.043-.043.043-.087.087a.134.134,0,0,1-.087.043c-.043,0-.087.043-.13.043h-.389c-.087,0-.216-.043-.3-.043h-.13c-.087,0-.173-.043-.26-.043h-.606a.238.238,0,0,1-.216-.13.26.26,0,0,1-.043-.173v-.087c.043-.13.043-.3.087-.433,0-.13.043-.216.043-.346s.043-.216.043-.346c0-.087.043-.216.043-.3a.159.159,0,0,1,.043-.13h0c.043-.13.043-.26.087-.346,0-.13.043-.216.043-.346s.043-.216.043-.346c0-.087.043-.216.043-.3s.043-.13.043-.216v-.087a.8.8,0,0,1-.087-.3.953.953,0,0,1-.043-.346c0-.087-.043-.216-.043-.3V20.68a6.724,6.724,0,0,1,.216-1,3.323,3.323,0,0,1,.606-1.082c.087-.087.13-.173.216-.26a.042.042,0,0,0,.043-.043h0v2.25c0,.13.043.26.043.389a1.537,1.537,0,0,0,.087.433c.043.087.043.216.087.3a2.982,2.982,0,0,0,.13.346v.043C143.969,22.195,143.969,22.281,143.926,22.325Zm7.486-4.024a.042.042,0,0,1,.043.043h0a2.759,2.759,0,0,1,.346.606c.043.087.043.173.087.26V19.3h0c-.043-.043-.043-.087-.087-.087-.087-.13-.216-.216-.3-.346-.043-.043-.087-.087-.13-.087a.368.368,0,0,0-.216-.13h0l-.043-.043v-.26a.042.042,0,0,1,.043-.043h.26Zm.173-2.164a3.338,3.338,0,0,1-.3,1.125,3.737,3.737,0,0,1-.433.692,2.168,2.168,0,0,1-.3.346l-.26.26c-.087.087-.173.13-.26.216-.087.043-.216.087-.3.13-.13.043-.3.087-.433.13-.173.043-.389.087-.563.13h-.389a1.332,1.332,0,0,1-.563-.13c-.043,0-.043,0-.087-.043h0c.087.087.13.173.216.26a.776.776,0,0,0,.3.216.042.042,0,0,1,.043.043h0v.043c-.043.087-.13.13-.173.216-.173.216-.389.433-.562.692a.6.6,0,0,0-.13.173c0,.043-.043.043-.043.087-.043.087-.087.13-.087.216v.346c0,.13.043.26.043.346v.389c0,.043-.043.087-.043.13-.043.043-.087.087-.087.13a1.951,1.951,0,0,1-.606.433c-.087.043-.173.043-.26.087h-.13c-.087,0-.173-.043-.26-.043a2.11,2.11,0,0,1-.3-.13,2.021,2.021,0,0,1-.433-.216,4.324,4.324,0,0,1-.606-.346h0a.338.338,0,0,1-.173-.173c-.043-.043-.043-.087-.087-.13-.043-.087-.043-.173-.087-.26a.843.843,0,0,1-.043-.346,3.275,3.275,0,0,1-.043-.649v-.519h0v-.563c0-.173.043-.346.043-.519V18.82h0c0,.043.043.043.043.087.087.087.13.173.216.26a2.4,2.4,0,0,0,.346.26.615.615,0,0,0,.26.087h.087c0-.043-.043-.043-.043-.087l-.26-.389a3.35,3.35,0,0,1-.3-.692c-.043-.173-.087-.3-.13-.476,0-.087-.043-.173-.043-.3v-.476a2.533,2.533,0,0,1,.087-.563,3.351,3.351,0,0,1,.3-.692.432.432,0,0,1,.173-.216l.043-.043v-.087c0-.043-.043-.087-.087-.13l-.087-.087c-.043-.043-.13-.087-.173-.13a2.11,2.11,0,0,0-.3-.13c-.13-.043-.3-.087-.433-.13-.173-.043-.389-.087-.563-.13-.13-.043-.26-.043-.433-.087h0c.13-.043.216-.087.346-.13a1.2,1.2,0,0,1,.389-.043h.476c.13,0,.216.043.346.043a3.576,3.576,0,0,1,.952.346.042.042,0,0,1,.043.043h.043a.7.7,0,0,0,.3-.173,1.227,1.227,0,0,0,.346-.476.642.642,0,0,0,.043-.3v-.433a1.263,1.263,0,0,0-.087-.389v-.087a1.042,1.042,0,0,1,.346-.26.549.549,0,0,1,.26-.043h.216a.39.39,0,0,1,.216.043,2.109,2.109,0,0,1,.476.173c.043,0,.043.043.087.043h.173a2.107,2.107,0,0,1,.519.043,3.6,3.6,0,0,1,.649.173l.26.13c.043.043.13.087.173.13a.977.977,0,0,1,.346.476l.043.043a.159.159,0,0,1,.13.043,2.13,2.13,0,0,1,.736.26c.13.087.216.13.346.216a1.5,1.5,0,0,1,.519.822.642.642,0,0,1,.043.3A2.126,2.126,0,0,1,151.584,16.137Zm2.207,2.12h0c-.043-.043-.043-.043-.043-.087a3.8,3.8,0,0,0-.26-.433,2.379,2.379,0,0,0-.3-.389l-.389-.389a.905.905,0,0,0-.26-.173.8.8,0,0,0-.3-.087h-.26c-.043,0-.043,0-.043-.043v-.043a.815.815,0,0,0,.087-.346v-.043l.043-.043h0a.932.932,0,0,1,.476.087.042.042,0,0,1,.043.043h.043c0-.043-.043-.043-.043-.087l-.173-.173a.393.393,0,0,0-.3-.13h-.043a.042.042,0,0,1-.043-.043v-.13a.615.615,0,0,0-.087-.26v-.043h.087a2.155,2.155,0,0,1,.822.433A2.39,2.39,0,0,1,153.661,17a1.951,1.951,0,0,1,.13.476,1.2,1.2,0,0,1,.043.389c-.043.13,0,.26-.043.389Z" transform="translate(-68.246)"/><path class="a" d="M172.5,34.9Z" transform="translate(-97.859 -19.628)"/><path class="a" d="M160.643,19.2h0Z" transform="translate(-91.108 -10.722)"/><path class="a" d="M156.2,43.3Z" transform="translate(-88.612 -24.394)"/><path class="a" d="M178.3,38.336v-.087a1.333,1.333,0,0,1,.13-.563c0-.043,0-.043.043-.087h0v.043c0,.043.043.13.043.173a4.729,4.729,0,0,0,.216.736c.043.13.087.216.13.346a.946.946,0,0,0,.13.216v.043h-.087a.615.615,0,0,1-.26-.087.625.625,0,0,1-.3-.433C178.3,38.6,178.3,38.465,178.3,38.336Z" transform="translate(-101.149 -21.16)"/><path class="a" d="M177.658,49.3a1.263,1.263,0,0,1-.389-.087,1.37,1.37,0,0,1-.519-.346,1.315,1.315,0,0,1-.216-.3.7.7,0,0,1-.13-.389.159.159,0,0,0-.043-.13.093.093,0,0,0-.087-.087.159.159,0,0,0-.13.043l-.043.043h0l.13-.26.043-.043.043-.043h.087c.043,0,.043.043.087.043l.087.087c.043.043.043.13.087.173.043.087.043.173.087.26a.615.615,0,0,0,.087.26.328.328,0,0,0,.087.173.764.764,0,0,0,.346.389,2.983,2.983,0,0,0,.346.13.549.549,0,0,0,.26.043h-.043C177.7,49.3,177.7,49.3,177.658,49.3Z" transform="translate(-99.901 -26.89)"/><path class="a" d="M179.4,43.725a.736.736,0,0,1,.043-.3,1.362,1.362,0,0,1,.346-.649l.173-.173h0v.043a2.679,2.679,0,0,0-.3.822,1.075,1.075,0,0,0-.043.346v.043a2.085,2.085,0,0,0,0,.519h0a1.263,1.263,0,0,1-.087-.389v-.13C179.4,43.812,179.4,43.768,179.4,43.725Z" transform="translate(-101.773 -23.997)"/><path class="a" d="M176.157,46.073h0a.7.7,0,0,1,.3-.173h.173a.328.328,0,0,1,.173.087l.13.13c.043.043.043.087.087.13.043.087.043.13.087.216a.953.953,0,0,1,.043.346v.519h0v-.087c-.043-.26-.13-.519-.173-.779,0-.043,0-.043-.043-.087,0-.043-.043-.087-.087-.13a.776.776,0,0,0-.3-.216H176.5a.744.744,0,0,0-.346.043Z" transform="translate(-99.915 -25.869)"/><path class="a" d="M176.1,46.257Z" transform="translate(-99.901 -26.053)"/><path class="a" d="M157.7,20.9Z" transform="translate(-89.463 -11.686)"/><path class="a" d="M150.5,43.8Z" transform="translate(-85.378 -24.677)"/><path class="a" d="M157.675,20.9Z" transform="translate(-89.438 -11.686)"/><path class="a" d="M163.3,24.6Z" transform="translate(-92.64 -13.785)"/><path class="a" d="M163.257,24.557h0c-.043-.043,0-.043,0,0Z" transform="translate(-92.597 -13.743)"/><path class="a" d="M172.963,21.465v.173h0v-.087a1.3,1.3,0,0,0-.173-.433,1.554,1.554,0,0,0-.3-.433L172.4,20.6h0a.151.151,0,0,1,.087.043c.087.043.173.13.26.173a.942.942,0,0,1,.216.346Z" transform="translate(-97.802 -11.516)"/><path class="a" d="M171.4,24.9Z" transform="translate(-97.235 -13.956)"/><path class="a" d="M170.775,19.7Z" transform="translate(-96.869 -11.006)"/><path class="a" d="M183.943,4.843h0A.042.042,0,0,1,183.9,4.8h0l.043.043Z" transform="translate(-104.326 -2.553)"/><path class="a" d="M183.9,4.9Z" transform="translate(-104.326 -2.61)"/><path class="a" d="M195,37.4Z" transform="translate(-110.623 -21.047)"/><g transform="translate(49.977 9.993)"><path class="a" d="M115.76,25.989a1.754,1.754,0,0,1,.216-.389,1.315,1.315,0,0,1,.216-.3,5.264,5.264,0,0,1,.649-.736,5.36,5.36,0,0,1,.952-.779L118.962,23c.173-.087.346-.216.519-.3h.087a3.981,3.981,0,0,0,1.082.822c-.433.216-.865.433-1.255.649s-.736.433-1.125.692c-.26.173-.476.346-.736.519-.173.13-.3.26-.476.389a1.882,1.882,0,0,0-.26.3c-.043.087-.087.13-.13.216a.916.916,0,0,0-.13.3.47.47,0,0,0-.043.216.815.815,0,0,0,.087.346c.043.043.087.13.13.173a.432.432,0,0,0,.216.173c.087.043.13.13.216.173a1.3,1.3,0,0,0,.433.173,2.532,2.532,0,0,0,.563.087,2.661,2.661,0,0,0,.606-.043,4.564,4.564,0,0,0,.822-.216,4.689,4.689,0,0,0,.822-.346,8.724,8.724,0,0,0,1.385-.779c.043,0,.043-.043.087-.043s.043-.043.043-.087a.626.626,0,0,1,.087-.3c0-.043,0-.043.043-.087,0-.043.043-.043.043-.087.043-.043.043-.13.087-.173.087-.13.216-.26.3-.389a1.921,1.921,0,0,1,.476-.346c.043-.043.13-.087.173-.13.087-.043.13-.087.216-.087a1.473,1.473,0,0,1,.865,0,2.981,2.981,0,0,1,.346.13c.043.043.087.043.13.087a2.268,2.268,0,0,1,.476.433c.043.043.087.087.087.13s.043.043.043.087v.043c0,.043-.043.087-.043.043-.043,0-.043,0-.087-.043a.276.276,0,0,0-.26,0c-.043,0-.087.043-.13.043-.043.043-.13.043-.173.087-.087.087-.216.173-.3.26-.043.043-.087.13-.173.173l-.087.087c-.087.13-.173.216-.26.346a3.9,3.9,0,0,1-.389.433c-.087.043-.13.13-.216.173s-.13.087-.216.087a.366.366,0,0,1-.3,0c-.043,0-.087-.043-.173-.043a.905.905,0,0,1-.26-.173.042.042,0,0,1-.043-.043h-.043c-.043,0-.043.043-.087.043-.346.216-.649.389-1,.563a8.78,8.78,0,0,1-1.125.476,6.128,6.128,0,0,1-.952.3,2.717,2.717,0,0,1-.822.13h-.606a2.172,2.172,0,0,1-.519-.087,2.982,2.982,0,0,1-.346-.13h-.087l-.173-.087c0-.043,0-.043-.043-.043h-.043a2.051,2.051,0,0,1-.433-.433c-.087-.13-.13-.216-.216-.346a1.933,1.933,0,0,1-.13-1.212A.6.6,0,0,0,115.76,25.989Z" transform="translate(-115.5 -22.7)"/></g><g transform="translate(0 7.699)"><path class="a" d="M0,17.5v3.721l1.428-1H4.2v4.2L3.029,25.851,4.2,27.279v4.846L3.029,33.553H8.438L7.269,32.169V27.236l1.168-1.385L7.269,24.467v-4.24h2.769l1.428,1V17.5Z" transform="translate(0 -17.457)"/><path class="a" d="M38.332,32.112l-1.168-4.846.779-1.6-1.428-1.082-1.471-6.058.909-1.125H29.591l.909,1.082-1.428,6.1-1.428,1.082.779,1.558-1.212,4.933v-.043L26,33.5h5.063l-.909-1.082.606-2.293H35l.519,2.25L34.568,33.5h4.976Zm-7.1-4.716L32.75,20.9h.043L34.265,27.4Z" transform="translate(-14.75 -17.4)"/><path class="a" d="M98.232,32.112l-1.168-4.846.779-1.6-1.428-1.082-1.471-6.058.909-1.125H89.491l.909,1.082-1.428,6.1-1.428,1.082.779,1.558-1.212,4.933v-.043L85.9,33.54h5.063l-.909-1.082.606-2.293H94.9l.519,2.25-.952,1.125h4.976Zm-7.1-4.716L92.65,20.9h.043L94.165,27.4Z" transform="translate(-48.731 -17.4)"/><path class="a" d="M66.168,17.5H60.5l1.212,1.428v5.5L60.5,25.851l1.212,1.428v4.89L60.5,33.6H66l-1.212-1.428V27.106h1.341c3.765,0,5.625-1.774,5.625-4.8S69.933,17.5,66.168,17.5Zm.26,7.1H64.784V20.053h1.644a1.977,1.977,0,0,1,2.25,2.25A2.008,2.008,0,0,1,66.428,24.6Z" transform="translate(-34.321 -17.457)"/></g><g transform="translate(84.81 7.483)"><path class="a" d="M235.537,24.083V22.309c0-3.981-2.077-5.409-5.063-5.409s-5.063,1.428-5.063,5.409v1.774L224.2,25.511l1.212,1.428v1.125c0,3.981,2.077,5.409,5.063,5.409s5.063-1.428,5.063-5.409V26.939l1.212-1.428Zm-3.072,4.37c0,1.774-.779,2.25-1.99,2.25s-1.99-.476-1.99-2.25V21.919c0-1.774.779-2.25,1.99-2.25s1.99.476,1.99,2.25Z" transform="translate(-211.998 -16.9)"/><path class="a" d="M297.294,24.083V22.309c0-3.981-2.077-5.409-5.063-5.409s-5.063,1.428-5.063,5.409v1.774L286,25.468l1.168,1.385v1.212c0,3.981,2.077,5.409,5.063,5.409s5.063-1.428,5.063-5.409V26.939l1.212-1.428Zm-3.072,4.37c0,1.774-.779,2.25-1.99,2.25s-1.99-.476-1.99-2.25V21.919c0-1.774.779-2.25,1.99-2.25s1.99.476,1.99,2.25Z" transform="translate(-247.057 -16.9)"/><path class="a" d="M196,17.5v3.721l1.428-1H200.2v4.2l-1.168,1.428,1.168,1.428v4.846l-1.168,1.428h5.409l-1.168-1.385V27.236l1.168-1.385-1.168-1.385v-4.24h2.769l1.428,1V17.5Z" transform="translate(-196 -17.24)"/><path class="a" d="M268.32,32.069h0L265.9,26.314c1.731-.649,2.423-2.077,2.423-4.111,0-3.029-1.774-4.8-5.452-4.8H257.2l1.212,1.428v5.5L257.2,25.751l1.212,1.428v4.89L257.2,33.5h5.5l-1.212-1.428V26.963h1.471l2.293,5.582-.779.952h5.063Zm-5.279-7.659h-1.6V20h1.6a1.937,1.937,0,0,1,2.164,2.207A1.9,1.9,0,0,1,263.042,24.41Z" transform="translate(-230.719 -17.184)"/></g></g></svg>