<svg xmlns="http://www.w3.org/2000/svg" viewBox="0 0 95.299 75.873"><defs><style>.a{fill:#9f9f9f;}</style></defs><path class="a" d="M350.325,87.777c-1.864.266-4.213.048-6.271.121-.315-2.445-.508-5.036-.7-7.627-1.017-.121-2.494.1-3.487,0-.436,2.542-.872,5.133-1.356,7.627a17.964,17.964,0,0,1-2.01-.048c1.55-10.29,3.1-19.878,4.794-30.58,0-.073,0-.169.048-.169h4.721q2.215,15.254,4.261,30.677M339.866,78.6h3.414c-.363-3.608-.823-7.143-1.235-10.7h-.169c-.7,3.535-1.283,7.191-2.01,10.7" transform="translate(-255.026 -43.266)"/><path class="a" d="M371.969,212.608c1.162,1.041-.8,2.76-1.307,3.608-.363-.605-1.09-.847-1.55-1.356-.194-.048-.194-.169-.412-.073.581-.8,1.937-3.39,3.269-2.179M370.9,215.2c.46-.46,1.259-1.864.291-2.131-.775-.218-1.235.726-1.525,1.186a7.931,7.931,0,0,0,1.235.944" transform="translate(-279.43 -160.881)"/><path class="a" d="M362.993,227.352a2.315,2.315,0,0,1-2.131,2.542,1.111,1.111,0,0,1-1.017-.944,2.263,2.263,0,0,1,1.719-2.3c.654-.145,1.283.024,1.428.7m-1.84,1.84c1.114.1,1.792-2.2.242-1.84-.726.169-1.4,1.719-.242,1.84" transform="translate(-272.706 -171.727)"/><path class="a" d="M238.881,164.424c.218,2.01.291,4.165.581,6.077-5.375,12.59-15.617,20.29-30.556,23.292a45.884,45.884,0,0,1-9.806.533c.218-.9.194-2.058.412-2.954a42.619,42.619,0,0,0,20.919-4.479c.242.024.024-.121.048-.242.266.145.363.048.581-.073a18.824,18.824,0,0,0,3.123-1.84,31.172,31.172,0,0,0,14.188-20.169V164.4c.242.387.169.218.508.024" transform="translate(-150.893 -124.586)"/><path class="a" d="M351.514,240.135a2.262,2.262,0,0,1-2.373,2.373,1.313,1.313,0,0,1-.823-.823,2.249,2.249,0,0,1,1.767-2.3c.726-.145,1.332.145,1.429.751m-1.816,1.719c1.065.048,1.719-1.985.363-1.84-.993.1-1.525,1.792-.363,1.84" transform="translate(-263.962 -181.387)"/><path class="a" d="M143.469,17.21c-.194,1.4-.339,2.809-.533,4.189a36.7,36.7,0,0,0-2.905-4.261V13.264a26.958,26.958,0,0,0-2.833-.073,5.6,5.6,0,0,0-.073,1.307,5.467,5.467,0,0,1-.605-.7c-.194-.242-.291-.533-.46-.775a16.137,16.137,0,0,0-2.712-2.179,42.965,42.965,0,0,0-52.371,2.349H77.2c6.537-7,15.52-11.937,27.917-13.075a40.83,40.83,0,0,1,7.094,0C126.666,1.569,137.1,8.01,143.469,17.21" transform="translate(-58.508 0.038)"/><path class="a" d="M338.528,248.986a1.288,1.288,0,0,1,.484.533c-.315.1-1.09.484-1.114.775-.024.242.46.605.775.7a5.34,5.34,0,0,1-.775.7,4.39,4.39,0,0,0-1.6-1.84c.654-.751,1.622-1.186,2.131-2.058.218.1.242.387.484.484-.678.266-.993.9-1.6,1.235a.532.532,0,0,0,.291.412c.315-.315.775-.484.92-.944" transform="translate(-254.874 -187.793)"/><path class="a" d="M330.687,261.493a3.59,3.59,0,0,1-1.065.823c.218-.266-.169-.315-.291-.412-.436.242-.751.581-1.186.823.073.073.048.266.048.412,0,.121.218.024.291.073a4.37,4.37,0,0,1-.944.654,14.436,14.436,0,0,0-.048-2.494c-.024-.121-.1-.218-.291-.17.218-.315.605-.412.823-.7a4.888,4.888,0,0,0,2.663.993m-1.889.242c-.266-.048-.436-.194-.7-.242,0,.291-.048.63.121.775.17-.218.46-.266.581-.533" transform="translate(-247.978 -197.418)"/><path class="a" d="M292.943,56.3V87.143a9.727,9.727,0,0,1-2.058,0c-3.269-7.385-6.271-14.673-9.394-22.227-.145,5.085-.024,10.387-.048,15.544a14.327,14.327,0,0,0-1.889.533,54.672,54.672,0,0,1-.121-6.029c0-6.077-.048-12.542.048-18.571h5.5q2.869,7.009,5.859,13.946c.073-4.14.073-9.346.073-13.946,0-.1,0-.169.048-.194.678,0,1.5.048,1.985.1" transform="translate(-211.76 -42.584)"/><path class="a" d="M315.587,268.174a1.788,1.788,0,0,1,.412.605,16.529,16.529,0,0,0-2.615,1.55,4.8,4.8,0,0,0-1.283-2.01c.63-.7,1.767-.9,2.252-1.719.242.1.339.315.412.605-.63.024-1.09.726-1.719.944.121.121.145.339.291.412.363-.218.823-.363,1.017-.775.266.073.339.315.412.533-.557.024-.7.484-1.186.581.024.291.242.339.291.605.581-.436,1.332-.678,1.719-1.332" transform="translate(-236.534 -202.041)"/><path class="a" d="M302.325,275.364c.073,1.162-1.743,1.695-2.954,1.889v-.823c.847.291,2.01-.1,2.131-.944-.557-.242-2.833,1.477-2.905-.169-.048-1.162,1.622-1.4,2.591-1.816.266.048.048.581.121.823a1.7,1.7,0,0,0-1.961.823c.605.508,1.429-.7,2.373-.46a.751.751,0,0,1,.605.678" transform="translate(-226.299 -207.27)"/><path class="a" d="M152.108,193.355a28.379,28.379,0,0,1,.169-9.394c.073-.533.048-1.114.121-1.646.654-4.334,1.429-8.571,2.131-12.663-.339-.169-.436.315-.533.484a17.827,17.827,0,0,1-2.179,2.712,7.8,7.8,0,0,0-1.114.823,13.192,13.192,0,0,1-1.961,4.915,6.254,6.254,0,0,1-3.317,2.712c-2.905.7-4.867-1.6-5.157-3.971a10.1,10.1,0,0,1,.048-2.252c.46-2.688,2.082-5.545,3.438-7.748a11.345,11.345,0,0,1,1.6-2.131,4.712,4.712,0,0,1,1.065-.775c1.017-.291,1.429.508,1.646,1.307a4.981,4.981,0,0,1,2.082-.121c1.6.581,1.09,3.2.993,5.085v.024l-.048.024.048-.024c3.293-1.429,4.334-5.641,4.867-10.024a1.364,1.364,0,0,1,.823,0c.847,1.211.145,3.826,0,5.133.46.242.63-.339.823-.581a14.58,14.58,0,0,1,2.373-2.179,3.183,3.183,0,0,1,4.794,1.525,9.741,9.741,0,0,1,.048,4.092c.46,0,.412-.508.605-.775a28.415,28.415,0,0,1,3.947-6.15c1.646-1.792,3.438-3.583,5.98-4.14a1.5,1.5,0,0,1,1.235.169,3.336,3.336,0,0,1-1.356,3.123c-.363-.024-.751-.412-1.114-.412-.63,0-1.719,1.259-2.179,1.767-1.767,1.913-3.9,4.649-4.5,7.336-.315,1.332-.194,3.922,1.235,3.123a6.694,6.694,0,0,0,1.889-2.179,52.874,52.874,0,0,0,4.261-7.8c.484-.363,1.429-.751,1.84-.048-.073,2.179-1.6,4.382-1.477,6.61a1.443,1.443,0,0,0,.291.775c1.09.073,1.622-.605,2.252-1.065.605-.46,1.186-1.114,2.131-1.017-.194,1.38-1.767,2.93-2.905,3.9a11.287,11.287,0,0,1-1.235,1.065c-1.913,1.041-2.131-2.349-2.252-3.8-.436.048-.533.581-.7.9a21.827,21.827,0,0,1-3.317,4.431c-.654.654-1.985,1.937-3.075,1.065-1.065-.872-1.138-3.1-1.356-4.842-2.228,2.857-4.358,6.368-7.8,8.208-.291.1-.8-.048-.944.169a3.856,3.856,0,0,1-.944-.484c-.387,2.881-.557,6.223-1.017,9.394a18.848,18.848,0,0,1-1.4,5.98c-.751-.169-.847-.63-.847-.63M162.252,169a4.691,4.691,0,0,0-.46-3.68c-2.179-.436-2.93,1.5-4.019,2.542a20.31,20.31,0,0,0-.944,2.179c-.363,1.5-.533,3.22-.823,4.867-.291.46-.412,1.792.048,2.131.944.1,1.622-.678,2.228-1.307a17.582,17.582,0,0,0,1.719-1.84A12.058,12.058,0,0,0,162.252,169m-13.171,3.365c-2.3.363-1.4-3.559-1.307-4.964-1.453,1.889-4.334,4.988-4.673,8.329-.194,1.864.775,3.1,2.179,3.317,2.4-1.114,2.954-4.043,3.8-6.683" transform="translate(-106.274 -119.401)"/><path class="a" d="M282.532,286.366a1.749,1.749,0,0,1,.242.654,1.961,1.961,0,0,1-1.307.169c-.412,1.5-3.922,1.211-2.252-.533-2.155-1.09,2.566-2.784,1.525-.654.024.194.363.073.412.242.291-.363.266-1.017.823-1.138a1.355,1.355,0,0,0,.291.654c-.194.1-.557.218-.533.7.242.291.654.073.8-.1m-3.051,1.017c.387,1.186,2.591-1.138.654-.775-.533.1-.823.315-.654.775m-.073-1.307a.512.512,0,0,0,.9-.291.471.471,0,0,0-.9.291" transform="translate(-211.179 -215.972)"/><path class="a" d="M223.336,57.913c2.542,2.542,3.85,7.578,2.663,11.937-1.114,4.043-4.31,6-7.506,7.99.7.993,1.477,2.228,2.905,2.252.968.024,2.2-1.453,2.954-.775a4.512,4.512,0,0,1,.242,2.494c-.121.412-.751.7-1.065,1.017a17.946,17.946,0,0,0-1.768,2.179c-2.421-1.6-4.14-3.947-5.98-6.15V84.6A4.68,4.68,0,0,0,213,85.37c-.726.484-1.017,1.332-2.3,1.114a7.312,7.312,0,0,0,0-3.075c-.218-2.179,0-4.625,0-6.973V55.613c1.38-.169,2.784-.291,4.068-.412,3.922-.363,6.755.872,8.571,2.712M218.9,62.925c0-1.864.605-5.012-1.429-4.6-.969.194-.775,1.307-.775,2.542,0,4.7-.048,10.314.048,14.552a1.273,1.273,0,0,0,2.01,0c.363-.751.121-2.857.121-4.068V62.925Z" transform="translate(-159.609 -41.779)"/><path class="a" d="M260.092,293c.412,0,.993-.46,1.235-.218a7.271,7.271,0,0,0-1.017,1.235,5.59,5.59,0,0,0,1.889.823,3.736,3.736,0,0,1-1.356.46c.242-.339-.678-.46-.944-.7-.533.1-.194.847,0,1.065a3.482,3.482,0,0,0-.9.242,5.326,5.326,0,0,0-.7-2.3,2.171,2.171,0,0,1,.944-.291c-.145.339.121.581.121.944a9.48,9.48,0,0,0,.9-1.065c.024-.169-.266.024-.169-.194" transform="translate(-195.76 -221.829)"/><path class="a" d="M248.2,299.837c-.266.242-.775.218-1.114.339-.121-.048.024-.436-.291-.533-.557.1-1.816.218-1.235.9-.387.048-.7.145-1.065.194a11.548,11.548,0,0,0,.944-2.373c.073-.218-.218-.1-.169-.291.412,0,.654-.169,1.065-.169,0,.145-.121.194,0,.291a7.228,7.228,0,0,0,1.864,1.646m-1.768-.484a1.134,1.134,0,0,0-.581-.581c0,.291-.169.412-.169.7.291,0,.436-.121.751-.121" transform="translate(-185.301 -225.763)"/><path class="a" d="M233.2,301.31a6.194,6.194,0,0,0,.121.654c-1.017-.145-1.937.29-3.027.29a4.142,4.142,0,0,0-.291-2.421,8.174,8.174,0,0,0,2.712-.533c.145.121.048.46.169.581-.339.024-1.211.169-1.889.242a.525.525,0,0,0,0,.533,3.469,3.469,0,0,0,1.307-.291,2.841,2.841,0,0,0,.121.654c-.46-.145-.847.1-1.38.048-.048.291.1.387.073.654a8.577,8.577,0,0,0,2.082-.412" transform="translate(-174.312 -226.824)"/><path class="a" d="M219.384,301.3c.266,0,.145.412.169.654-.315-.145-.678.024-1.065,0a5.034,5.034,0,0,0,.291,2.01c-.363-.024-.581.121-.944.073-.266-.024.073-.145.048-.242-.121-.533-.073-1.211-.169-1.767a5.119,5.119,0,0,0-1.114.169v-.654a5.994,5.994,0,0,0,2.784-.242" transform="translate(-164.156 -228.339)"/><path class="a" d="M202.644,301.526c.654.7,2.542-.048,2.542,1.235-.024,1.38-2.542.993-3.487.654.121-.266.291-.484.412-.775.218.605,1.889.775,2.252.194-.484-.581-1.937-.073-2.373-.7a1.021,1.021,0,0,1-.048-.9c.412-.92,2.2-.46,3.075-.363.145.242-.242.484-.242.775-.363-.387-1.719-.678-2.131-.121" transform="translate(-152.864 -227.863)"/><path class="a" d="M172.819,56.948c-.048,1.162.073,2.47-.048,3.535a3.028,3.028,0,0,1-1.186-.412c-1.186-.508-2.518-1.114-3.729-1.6-.048,2.954.073,5.424.048,8.281,1.259.121,2.784.024,4.14.048v2.421c-.993.024-2.76-.024-4.14,0-.145,5.448-.024,11.138-.048,16.658,1.38-.508,3.075-1.138,4.721-1.719.121.169-.024.436-.073.7-.121.823-.169,1.864-.339,2.591-3.075.145-6.416.024-9.588.073.048-10.193-.073-20.532.048-30.628h10.193Z" transform="translate(-123.208 -43.114)"/><path class="a" d="M81.94,114.885c-.024.605-.145,1.985-.194,2.954a43.5,43.5,0,0,1-21.04-7.917,36.666,36.666,0,0,1-10.29-11.4,18.442,18.442,0,0,1-2.179-5.036c-.121-.315.339-.048.363-.242V74.378a19.538,19.538,0,0,1,0-2.663,11.875,11.875,0,0,1,.944-2.179A33.639,33.639,0,0,1,53.321,63.7c-.508,2.01-.508,4.334-1.114,6.319a19.052,19.052,0,0,1-.944,2.01A27.349,27.349,0,0,0,49.011,86.7a22.836,22.836,0,0,1,.412,2.47c.024,1.4-.7,2.93-.654,4.092a12.6,12.6,0,0,0,1.937.073c5.375,12.13,15.786,19.442,31.234,21.549" transform="translate(-36.542 -48.268)"/><path class="a" d="M164.669,299.569c.048.291-.073.412-.073.654a7.449,7.449,0,0,0-1.889-.412.75.75,0,0,0-.121.412,1.826,1.826,0,0,0,1.307.169c.048.291-.073.412-.048.654a3.468,3.468,0,0,0-1.307-.291.872.872,0,0,0-.121.533,5.309,5.309,0,0,0,2.058.29c-.073.194-.048.46-.121.654a27.685,27.685,0,0,0-2.954-.654,3.672,3.672,0,0,0,.46-2.3c.847-.073,1.864.46,2.809.291" transform="translate(-122.321 -226.802)"/><path class="a" d="M113.673,57.1h2.494c-1.622,10.048-3.438,20.459-5.133,30.628h-4.382c-1.477-10.193-3.123-20.241-4.552-30.459,0-.073,0-.169.048-.169h5.811c.726,6.3,1.743,12.736,2.47,19.224,1.186-6.61,2.034-12.929,3.244-19.224" transform="translate(-77.379 -43.266)"/><path class="a" d="M149.047,296.286a4.251,4.251,0,0,0-.533,2.373c-.412,0-.654-.169-1.065-.169.121-.654-.775-1.259-1.065-1.889a3.343,3.343,0,0,0-.291,1.55c-.315-.121-.7-.169-.993-.291a3.816,3.816,0,0,0,.654-2.252c.339-.121.726.169,1.114.194-.194.678.726,1.186.944,1.84.121-.387.46-1.114.242-1.428.291-.194.654.073.993.073" transform="translate(-109.968 -224.003)"/><path class="a" d="M140.646,293.615a4.592,4.592,0,0,0-.7,2.3c-.387,0-.581-.218-.944-.242a5.222,5.222,0,0,0,.7-2.373,6.167,6.167,0,0,0,.944.315" transform="translate(-105.345 -222.276)"/><path class="a" d="M128.375,292.017a.83.83,0,0,1-.291.605c-.872.557-2.058-.508-2.784-.823.1-.242.363-.266.484-.484.291.484,1.259,1.09,1.816.7-.339-.678-2.082-.46-1.719-1.646.121-.387.581-.46,1.065-.412.726.048,1.283.726,1.719.823a.766.766,0,0,1-.533.484,1.352,1.352,0,0,0-1.6-.7c.218.7,1.816.557,1.84,1.453" transform="translate(-94.962 -219.734)"/><path class="a" d="M120.344,286.6c.291.145.654.242.944.412a3.819,3.819,0,0,0-.9,2.252c-.363-.1-.605-.291-.993-.363a4.621,4.621,0,0,0,.944-2.3" transform="translate(-90.491 -217.199)"/><path class="a" d="M110.322,281.507c-.7.387-.363,1.55-1.114,1.889a2.159,2.159,0,0,1-2.421-1.235c-.073-.8.847-1.138.7-1.961.315.121.557.315.9.412-.194.46-.872.993-.823,1.525a.9.9,0,0,0,1.114.654c.46-.145.7-1.283.7-1.671.363.1.557.339.944.387" transform="translate(-80.929 -212.348)"/><path class="a" d="M94.709,273.507a2.88,2.88,0,0,1-.775.363c.145-1.138-2.4-2.058-2.712-.872-.315,1.138,1.235,2.01,2.373,1.646,0,.315.1.533.121.823-1.477-.291-3.269-.751-3.317-2.3-.024-1.767,2.276-1.6,3.365-.654.339.291.484.8.944.993" transform="translate(-68.512 -205.994)"/><path class="a" d="M67.083,87.674c-1.913.145-4.092.024-6.1.048-.315-2.639-.46-5.133-.823-7.578H56.987a18.842,18.842,0,0,0-.581,3c-.266,1.5-.508,3-.823,4.5A14.6,14.6,0,0,1,53.5,87.7c.678-3.85,1.114-7.627,1.719-11.525.605-4.068,1.259-8.135,1.961-12.13.412-2.373.63-4.649,1.114-6.973a.161.161,0,0,1,.121-.169h4.552c1.38,10.072,2.712,20.145,4.116,30.774m-9.854-9.394h2.833c-.484-3.244-.654-6.779-1.114-10.048-.581,3.414-1.138,6.707-1.719,10.048" transform="translate(-40.546 -43.114)"/><path class="a" d="M74.668,261.085c-.508-.121-1.259,0-1.767-.121a11.928,11.928,0,0,0,.533,2.131,6.107,6.107,0,0,1-1.186-.9c.1-.024.1.048.169.073-.1-.557,0-1.38-.533-1.356-.218,0-.46.363-.46.775-.266-.218-.557-.412-.823-.63a4.341,4.341,0,0,0,1.429-1.961,1.944,1.944,0,0,1,.823.7c-.266-.121-.412.363-.581.533.194.291.968,0,1.235.169.048.024.145-.121.1-.169a2.277,2.277,0,0,1,1.065.751" transform="translate(-53.506 -196.357)"/><path class="a" d="M62.8,251.568c-.073.242-.266.339-.363.533a11.145,11.145,0,0,0-1.477-1.356c-.218,0-.266.194-.363.339.363.266.557.7,1.114.775a1.631,1.631,0,0,1-.46.533c-.145-.484-.654-.581-.9-.944-.242.073-.339.266-.46.412.557.46.944,1.065,1.719,1.307-.121.218-.218.46-.484.533-.557-.9-1.646-1.307-2.228-2.179.363.048,1.477-1.235,1.6-1.719.823.508,1.332,1.356,2.3,1.767" transform="translate(-44.639 -189.309)"/><path class="a" d="M.048,40.7H16.779c-.508,1.985-1.38,3.729-2.01,5.738-.387.024-.581-.412-.823-.654-.775-.726-1.695-1.55-2.542-2.252-.169,10.29.073,21.525-.121,32.033H6.513v-32.2a7.889,7.889,0,0,0-1.889,1.6c-.315.266-.63.533-.944.823-.291.242-.581.605-.944.654C1.864,44.526.8,42.831,0,40.869,0,40.8,0,40.7.048,40.7" transform="translate(0 -30.836)"/><path class="a" d="M51.847,241.437c-.169.169-.266.387-.533.484-.291-.654-.92-.944-1.307-1.477-.823.291.169,1.017.654,1.186a.655.655,0,0,1-.46.533c-.145-.508-.654-.654-.9-1.065-.073.169-.46.242-.46.412a5.181,5.181,0,0,0,1.646,1.428.735.735,0,0,1-.46.533c-.557-.944-1.525-1.477-2.131-2.373.1-.024.1.048.169.048.484-.581,1.235-.872,1.525-1.646.8.581,1.4,1.622,2.252,1.937" transform="translate(-36.302 -181.502)"/><path class="a" d="M38.489,227.2c.145.605,1.985,1.622,1.889,2.615a.741.741,0,0,1-1.307.291c-.048.363-.242,1.017,0,1.307-.387,0-.63-.654-.993-.9.048-.169.194.1.291-.048.339-1.332-.605-2.155-.993-.823-.315-.242-.46-.63-.775-.847a4.159,4.159,0,0,0,1.889-1.6m1.138,2.494c0-.073.073-.1.121-.121-.218-.557-.944-1.816-1.356-.944.412.339.533.968,1.235,1.065" transform="translate(-27.738 -172.181)"/><path class="a" d="M30.448,214.631a3.469,3.469,0,0,1-.775.121c-.1-.92-.823-2.421-2.01-2.131-1.307.315.048,2.591.775,2.784a3.093,3.093,0,0,0,.291-.169c-.266-.315-.363-.775-.823-.9.1-.218.412-.484.581-.412a4.764,4.764,0,0,0,1.138,1.646c-.387.121-.8.412-.823.7-.993-.605-2.76-1.816-2.373-3.608a1.305,1.305,0,0,1,1.477-.9c1.453.169,1.985,1.864,2.542,2.857" transform="translate(-19.989 -160.483)"/></svg>