<svg xmlns="http://www.w3.org/2000/svg" viewBox="0 0 14.998 12.186"><defs><style>.a{fill:#fff;fill-rule:evenodd;}</style></defs><path class="a" d="M32.571,21.27a5,5,0,0,1-1.93.685h0a3.093,3.093,0,0,0-5.252,2.828h0a8.569,8.569,0,0,1-6.378-3.211,3.1,3.1,0,0,0,.938,4.088,1.989,1.989,0,0,1-1.351-.35,2.982,2.982,0,0,0,2.387,3.024,2.45,2.45,0,0,1-1.288.1,2.925,2.925,0,0,0,2.766,2.1A5.5,5.5,0,0,1,18,31.818a9.3,9.3,0,0,0,4.84,1.368,8.6,8.6,0,0,0,8.66-9.036c0-.005,0-.011,0-.017s0-.026,0-.039,0-.03,0-.045A5.338,5.338,0,0,0,33,22.464a5.422,5.422,0,0,1-1.716.487,3.287,3.287,0,0,0,1.289-1.681" transform="translate(-18 -21)"/></svg>