<svg xmlns="http://www.w3.org/2000/svg" viewBox="0 0 150.358 54.96"><defs><style>.a{fill:#9f9f9f;}</style></defs><g transform="translate(0 0)"><path class="a" d="M42.059,46.554a9.144,9.144,0,0,0-1.018-4.261c-1.272-2.544-5.343-4.452-9.286-6.233-1.908-.89-3.816-1.781-5.343-2.671-7.378-4.452-9.795-9.922-10.495-13.675A17.269,17.269,0,0,1,15.6,16.6a14.7,14.7,0,0,1,2.671-8.65C25.2-1.275,36.907-.194,40.342.315c-3.371.127-11.7,1.654-15.71,9.6a10.822,10.822,0,0,0-1.208,4.77c0,6.488,6.615,12.085,11.894,16.537,1.844,1.526,3.562,3.053,4.9,4.389,2.353,2.481,3.562,5.088,3.562,7.823a11.565,11.565,0,0,1-2.608,6.933A8.017,8.017,0,0,0,42.059,46.554Z" transform="translate(-5.678 0.009)"/><path class="a" d="M6.2,67.3c1.59,1.336,4.961,3.562,11.258,5.343a34.03,34.03,0,0,0,8.586,1.018c2.163.064,3.88.064,4.961.7a2.475,2.475,0,0,1,1.4,2.1l-.064.445c-.318,1.208-1.972,2.481-5.6,2.544C15.677,79.575,8.808,71.307,6.2,67.3Z" transform="translate(-2.257 -24.49)"/><path class="a" d="M37.3,31.067s4.579-7.632,9.286-8.9c5.724-1.526,8.841.954,8.841.954L57.017,20l2.417,11.957s.445,1.081-1.59,2.481c-1.972,1.336-2.163,1.081-2.163,1.081s-1.272-4.9-3.88-5.47c-2.544-.572-2.544,2.862-2.417,3.943s2.353,5.533,5.979,3.689a16.943,16.943,0,0,0,5.851-4.643s.572-1.336,1.145-.954a36.353,36.353,0,0,1,2.735,2.735L64.268,49.13s0,1.781-2.417,2.417c-2.417.7-2.417.572-2.417.572l1.272-4.325H62.3l-.445-10.049s-1.336,6.551-3.88,10.876a43.317,43.317,0,0,1-7.887,9.413s3.053-3.689,2.608-8.141c-.318-2.989-1.59-6.424-7.95-11.7A90.02,90.02,0,0,1,37.3,31.067Z" transform="translate(-13.576 -7.274)"/><path class="a" d="M31.166,62.72a2.9,2.9,0,0,0-.318-1.272c-.7-1.4-2.671-2.1-5.788-2.226-5.724-.191-19.4-1.59-23.215-10.685A24.036,24.036,0,0,1,0,39.186H0A29.353,29.353,0,0,1,1.336,30.6a12.194,12.194,0,0,0-.064,1.272c0,3.562.827,10.3,6.615,15.01,3.625,3.053,9.1,5.406,16.219,7.06q7.251,1.717,8.2,5.152l.127.954a6.008,6.008,0,0,1-1.4,3.5C31.1,63.292,31.166,62.72,31.166,62.72Z" transform="translate(0 -11.132)"/><path class="a" d="M35.166,51.477a4.916,4.916,0,0,0-.445-2.035c-1.018-2.417-3.943-4.2-8.65-5.215C13.795,41.555,6.8,36.594,4.763,29.152A19.445,19.445,0,0,1,4,24C4,13.76,13.032,8.29,16.085,6.7,14.431,8.226,11,11.979,10.3,16.813a17.785,17.785,0,0,0-.191,2.544c0,6.042,3.117,11.385,9.54,16.219a40.257,40.257,0,0,0,7.378,3.943c3.753,1.717,7.314,3.307,8.714,5.661a6.343,6.343,0,0,1,.954,3.371,8.318,8.318,0,0,1-1.908,4.961A5.8,5.8,0,0,0,35.166,51.477Z" transform="translate(-1.456 -2.433)"/><path class="a" d="M47.96,8.98A4.073,4.073,0,0,1,44.08,5.1,4.073,4.073,0,0,1,40.2,8.98a4.073,4.073,0,0,1,3.88,3.88,4.172,4.172,0,0,1,3.88-3.88Z" transform="translate(-14.631 -1.851)"/></g><path class="a" d="M123,48.181c0,7.314-4.452,12.784-13.1,12.784S96.8,55.5,96.8,48.181V29.1h6.869V47.927c0,3.816,2.608,6.742,6.3,6.742,3.625,0,6.233-2.926,6.233-6.742V29.1H123Z" transform="translate(-35.232 -10.586)"/><path class="a" d="M170.77,36.7a7.193,7.193,0,0,0-5.915-2.544c-5.152,0-9.032,4.2-9.032,9.986s3.816,9.986,8.777,9.986a7.485,7.485,0,0,0,6.424-3.307l5.724,4.261a13.622,13.622,0,0,1-11.258,5.406c-9.731,0-16.791-6.36-16.791-16.346S155.76,27.8,165.491,27.8c3.5,0,7.887,1.208,10.495,4.579Z" transform="translate(-54.122 -10.113)"/><path class="a" d="M203.6,29.1h20.862v6.3H210.469v6.36h12.975v6.3H210.469V60.2H203.6Z" transform="translate(-74.104 -10.586)"/></svg>