<svg xmlns="http://www.w3.org/2000/svg" viewBox="0 0 135.976 44.878"><defs><style>.a{fill:#9f9f9f;}</style></defs><path class="a" d="M0,0H3.719V17.708c0,4.807,2.682,8.778,7.842,8.778S19.4,22.515,19.4,17.708V0h3.719V18.8c0,6.375-4.807,11.182-11.662,11.182C4.807,29.978,0,25.171,0,18.8Z" transform="translate(0 0)"/><path class="a" d="M108.491,0V29.523H105V0Z" transform="translate(-78.437 0)"/><path class="a" d="M131.283,17.3H134.8v4.908h3.213v3.061H134.8V40.043h2.125v2.4h-5.641V25.269H128.5V22.208h2.783Z" transform="translate(-95.992 -12.924)"/><path class="a" d="M237.331,43.048c0-3.491-2.024-5.06-4.427-5.06-2.909,0-5.085,1.821-5.085,5.211V55.444h-3.491v-12.4c0-3.491-2.024-5.06-4.427-5.06-2.909,0-5.085,1.821-5.085,5.211v9.841h2.125v2.378H211.3V35.181h3.491v2.4h.076c.936-2.049,3.466-2.884,5.591-2.884a6.242,6.242,0,0,1,5.97,3.491c1.24-2.555,3.921-3.491,6.6-3.491,4.351,0,7.766,2.606,7.766,7.918v10.4h2.125v2.378h-5.616V43.048Z" transform="translate(-157.846 -25.922)"/><path class="a" d="M353.1,42.034c0-3.339-3.339-4.073-6.046-4.073a12.341,12.341,0,0,0-5.591,1.391l-1.518-2.909a18.2,18.2,0,0,1,7.311-1.543c4.857,0,9.36,2.049,9.36,6.881V53.216h2.125v2.378h-5.388V53.418a8.211,8.211,0,0,1-6.451,2.631c-4.933,0-8.8-2.757-8.8-7.26,0-3.693,3.137-6.957,8.778-6.957a9.234,9.234,0,0,1,6.249,2.3v-2.1Zm-5.591,2.884c-4.275,0-5.717,2.049-5.717,4.048s1.442,4.048,5.717,4.048a9.246,9.246,0,0,0,5.54-1.948V47.119a7.994,7.994,0,0,0-5.54-2.2" transform="translate(-252.568 -26.071)"/><path class="a" d="M420.783,17.3H424.3v4.908h3.213v3.061H424.3V40.043h2.125v2.4h-5.641V25.269H418V22.208h2.783Z" transform="translate(-312.255 -12.924)"/><path class="a" d="M474.462,51.6c-2.707,3.036-5.591,4.377-9.132,4.377-7.185,0-11.03-5.211-11.03-10.6A10.229,10.229,0,0,1,464.748,34.8c6.249,0,10.6,4.781,10.6,11.915H458.019a7.016,7.016,0,0,0,7.26,5.97,8.394,8.394,0,0,0,6.476-3.263ZM471.4,43.857a6.746,6.746,0,0,0-13.357,0Z" transform="translate(-339.372 -25.996)"/><path class="a" d="M179.568,15.553a2.353,2.353,0,1,1-2.353-2.353,2.365,2.365,0,0,1,2.353,2.353m-.557,14.673h1.644V20.663a1.512,1.512,0,0,0-1.518-1.543h-3.795a1.533,1.533,0,0,0-1.543,1.543v9.563h1.543v9.158h3.643Z" transform="translate(-129.832 -9.861)"/><path class="a" d="M100.6,143.856a1.713,1.713,0,0,0-1.72-1.695A1.4,1.4,0,0,0,97.29,143.6c0,.658.43,1.088,1.29,1.417l1.113.43c1.417.531,2.074,1.366,2.074,2.429a2.562,2.562,0,0,1-2.859,2.479A2.662,2.662,0,0,1,96,147.727h1.113a1.642,1.642,0,0,0,1.847,1.644,1.515,1.515,0,0,0,1.67-1.391c0-.683-.582-1.138-1.391-1.442l-1.138-.455a2.553,2.553,0,0,1-1.973-2.429,2.511,2.511,0,0,1,2.732-2.454,2.631,2.631,0,0,1,2.757,2.682H100.6Z" transform="translate(-71.714 -105.48)"/><path class="a" d="M141.705,141.1A4.581,4.581,0,1,1,137,145.679a4.584,4.584,0,0,1,4.705-4.579m0,8.121a3.542,3.542,0,1,0-3.516-3.542,3.5,3.5,0,0,0,3.516,3.542" transform="translate(-102.342 -105.405)"/><path class="a" d="M194,141.6h4.6v1.063h-3.491v2.808H198.6v1.063h-3.491V150.5H194Z" transform="translate(-144.922 -105.778)"/><path class="a" d="M231.6,142.663h-2.2V141.6h5.566v1.063h-2.226V150.5H231.6Z" transform="translate(-171.367 -105.778)"/><path class="a" d="M277.322,141.6h1.189l-2.732,8.9h-.86l-2.15-7.058h-.025l-2.125,7.058h-.885L267,141.6h1.189l2,6.755h.025l2.024-6.755h1.037l2.024,6.78h.025Z" transform="translate(-199.455 -105.778)"/><path class="a" d="M331.7,148.505h-4.149l-.81,2.074H325.5l3.618-8.88h.987l3.618,8.88h-1.24Zm-2.074-5.338-1.695,4.351h3.365Z" transform="translate(-243.156 -105.853)"/><path class="a" d="M377.413,146.785v3.795H376.3V141.7h2.555a2.678,2.678,0,1,1,.278,5.338l3.466,3.542h-1.568Zm0-.683h.987c1.72,0,2.327-.759,2.327-1.72a1.678,1.678,0,0,0-1.872-1.72h-1.417V146.1Z" transform="translate(-281.104 -105.853)"/><path class="a" d="M419.3,141.6h4.6v1.063h-3.491v2.808H423.9v1.063h-3.491v2.909H423.9V150.5h-4.6Z" transform="translate(-313.226 -105.778)"/></svg>