<svg width="70" height="54" viewBox="0 0 70 54" fill="none" xmlns="http://www.w3.org/2000/svg">
<g filter="url(#filter0_d_8_286)">
<path fill-rule="evenodd" clip-rule="evenodd" d="M6.26387 1.3015C5.11364 1.7026 4.13859 2.44485 3.47827 3.42209C2.81498 4.4038 2.51419 5.38806 2.53278 6.51661C2.57861 9.31069 4.46094 11.4869 7.24653 11.9662C10.3169 12.4946 13.4356 10.1015 13.6327 7.06584C13.7009 6.0174 13.7447 5.97186 14.6948 5.96561C15.4132 5.96089 16.4397 5.42009 16.7971 4.85811C17.2547 4.13857 17.6899 2.80041 17.5991 2.3919C17.5006 1.94883 17.1025 1.52565 16.6872 1.42257C16.5089 1.3783 15.1889 1.45548 13.7539 1.59403C11.2565 1.83515 11.1281 1.8363 10.7574 1.62133C9.57333 0.934456 7.69888 0.80101 6.26387 1.3015ZM51.9901 2.46386C49.8368 3.11935 48.1975 4.99219 47.8508 7.19278C47.3071 10.6446 50.0925 13.8749 53.6129 13.8749C57.9695 13.8749 60.8192 9.42207 58.941 5.5497C57.94 3.48588 55.9429 2.2545 53.6287 2.27428C53.0541 2.27912 52.3167 2.36447 51.9901 2.46386ZM18.5152 11.201C17.9953 11.3547 17.2979 12.0562 17.1544 12.5697C16.9844 13.1783 17.4749 20.0111 17.7401 20.7262C17.9793 21.3715 18.6638 21.9991 19.2426 22.1035C19.4749 22.1455 21.9886 22.1627 24.8286 22.1418L29.9924 22.1037L30.4282 21.7965C30.668 21.6275 30.9743 21.243 31.1091 20.9421C31.3501 20.4033 31.3497 20.3358 31.0844 16.6033C30.8029 12.644 30.721 12.2357 30.0983 11.679C29.4414 11.0921 29.1884 11.0676 23.8968 11.0792C21.1433 11.0852 18.7215 11.14 18.5152 11.201ZM8.24004 13.6463C5.33658 13.7788 4.85596 13.9189 4.26187 14.8057L3.91538 15.3229L3.83276 25.4111C3.75466 34.9549 3.64312 38.2415 3.34763 39.7094C3.14663 40.7078 2.81666 41.552 1.33143 44.8691C0.101424 47.6159 -0.0460018 48.0222 0.00989603 48.5119C0.0913545 49.2264 0.529113 49.8217 1.19162 50.1191C1.79914 50.3917 2.89489 50.4348 3.42521 50.207C4.39794 49.789 4.6063 49.5033 6.09708 46.5435C7.8911 42.9816 8.19589 42.1558 9.15945 38.2477C9.58249 36.5317 9.9477 35.1088 9.97094 35.0857C10.0232 35.0342 13.4327 40.2013 13.6952 40.73C14.1282 41.602 14.3173 42.5519 14.6804 45.678C15.0196 48.5963 15.1001 49.0307 15.395 49.5278C16.1037 50.7229 18.0518 51.1336 19.136 50.3164C20.1155 49.578 20.1433 49.2739 19.6615 44.5573C19.1462 39.5114 19.2239 39.8128 16.8764 33.7498C15.4066 29.9538 15.2111 29.3584 15.2111 28.6786C15.2111 28.2551 15.2256 27.9027 15.2434 27.8957C15.2612 27.8887 17.0765 27.812 19.2776 27.7252C23.6385 27.5534 23.7668 27.5292 24.426 26.755C24.9024 26.1956 24.9024 25.2837 24.426 24.7242C23.757 23.9386 23.5815 23.9017 20.1685 23.8286C16.9304 23.7595 16.7989 23.736 16.4955 23.176C16.4286 23.0525 16.1127 21.3206 15.7936 19.3272C15.0481 14.6724 15.1257 14.9919 14.5908 14.3742C13.7659 13.4219 13.5916 13.4019 8.24004 13.6463ZM47.6783 15.4084C46.9054 15.5612 45.9561 15.9594 44.1281 16.8974C41.753 18.1158 41.794 18.1164 38.2751 16.8226C36.364 16.12 35.2845 15.7886 34.9072 15.7886C33.5157 15.7886 32.8538 17.3573 33.5878 18.9151C34.0531 19.9024 34.5609 20.2509 36.6501 21.0154C41.8828 22.9308 41.7737 22.9205 45.1338 21.8096C46.3613 21.4038 47.3925 21.0982 47.4252 21.1305C47.458 21.1629 47.4847 27.4393 47.4847 35.0782C47.4847 47.3255 47.5083 49.0228 47.6845 49.4395C48.1344 50.5036 48.9854 50.9929 50.3942 50.9972C51.543 51.0008 52.2879 50.6583 52.8404 49.8729L53.2294 49.3197L53.2647 42.0587L53.3001 34.7976H53.6843H54.0685V41.9471C54.0685 48.7238 54.0813 49.1212 54.3142 49.5699C54.8323 50.5685 55.6467 51 57.0133 51C58.1165 51 58.8678 50.6458 59.4259 49.863L59.8132 49.3197L59.8489 40.6001L59.8846 31.8806L60.533 31.6927C61.6854 31.3588 62.0039 31.0466 63.5463 28.7377C66.045 24.9978 66.003 25.0781 65.9995 24.0326C65.9978 23.5282 65.9202 22.9824 65.825 22.8053C65.7307 22.6299 64.664 21.1193 63.4547 19.4483C61.891 17.2877 61.0973 16.3023 60.7065 16.0367C59.6593 15.3247 59.192 15.2769 53.4282 15.2923C50.5498 15.3 47.9623 15.3521 47.6783 15.4084ZM60.7637 22.9211C61.6488 24.1822 61.6499 24.4956 60.7742 25.7896C60.4151 26.32 60.0666 26.7876 59.9996 26.8285C59.9247 26.8742 59.8777 25.9066 59.8777 24.3183C59.8777 22.8597 59.9263 21.7865 59.9891 21.8549C60.0505 21.9215 60.399 22.4013 60.7637 22.9211Z" fill="white"/>
</g>
<defs>
<filter id="filter0_d_8_286" x="0" y="0" width="70" height="54" filterUnits="userSpaceOnUse" color-interpolation-filters="sRGB">
<feFlood flood-opacity="0" result="BackgroundImageFix"/>
<feColorMatrix in="SourceAlpha" type="matrix" values="0 0 0 0 0 0 0 0 0 0 0 0 0 0 0 0 0 0 127 0" result="hardAlpha"/>
<feOffset dx="2" dy="1"/>
<feGaussianBlur stdDeviation="1"/>
<feColorMatrix type="matrix" values="0 0 0 0 0 0 0 0 0 0 0 0 0 0 0 0 0 0 0.25 0"/>
<feBlend mode="normal" in2="BackgroundImageFix" result="effect1_dropShadow_8_286"/>
<feBlend mode="normal" in="SourceGraphic" in2="effect1_dropShadow_8_286" result="shape"/>
</filter>
</defs>
</svg>
