<svg width="8" height="8" viewBox="0 0 8 8" fill="none" xmlns="http://www.w3.org/2000/svg">
<path d="M3.20151 0.133624C3.03539 0.305269 3.03539 0.601745 3.20151 0.781192L5.85182 3.51189L0.437942 3.51189C0.196319 3.51189 -1.87314e-07 3.71475 -1.76401e-07 3.96441C-1.65488e-07 4.21408 0.196319 4.42473 0.437942 4.42473L5.90467 4.42473L3.20151 7.21785C3.03539 7.38949 3.03539 7.68597 3.20151 7.86542C3.37518 8.04486 3.65455 8.04486 3.82822 7.86542L7.25625 4.3233C7.33931 4.23748 7.38462 4.12045 7.38462 4.00342C7.38462 3.88639 7.33931 3.76936 7.25625 3.68354L3.82822 0.141427C3.65455 -0.0458213 3.37518 -0.0458223 3.20151 0.133624Z" fill="black"/>
</svg>
