<svg width="216" height="45" viewBox="0 0 216 45" fill="none" xmlns="http://www.w3.org/2000/svg">
<path d="M136.656 39.304L134.681 38.5029L134.588 19.3377C134.526 4.30132 134.434 0.172484 134.125 0.203296C133.94 0.203296 131.625 0.788728 129.064 1.49741C126.472 2.20609 124.342 2.94558 124.342 3.13046C124.342 3.31533 125.422 3.90076 126.749 4.39376L129.126 5.28731L129.218 9.23128L129.311 13.1752L128.539 12.9904C118.911 10.587 110.486 15.0548 108.449 23.6514C108.202 24.7298 107.986 26.7634 107.986 28.2116C107.986 36.9623 112.183 42.7242 118.911 43.2172C122.768 43.5253 126.626 41.8306 128.509 39.0575L129.28 37.9175V40.6289C129.28 42.6009 129.373 43.3096 129.681 43.3096C129.99 43.3096 135.792 41.7382 138.322 40.9679C139.279 40.6597 138.724 40.1359 136.656 39.304ZM129.28 27.1948C129.28 35.2368 129.249 35.4833 128.539 37.0239C126.41 41.5841 120.639 41.923 116.72 37.7018C113.819 34.5281 112.954 28.304 114.498 21.4329C115.825 15.5478 120.546 12.4049 124.805 14.5926C126.348 15.3629 127.336 16.2257 128.323 17.5814L129.28 18.9063V27.1948Z" fill="#EB8FA5"/>
<path d="M139.865 0.171875C138.754 0.171875 138.322 0.356745 137.551 1.09622C136.718 1.95895 136.625 2.17463 136.81 3.34547C136.964 4.33144 137.366 5.0093 138.538 6.18014C140.544 8.21371 140.699 9.04562 139.464 11.3873C138.693 12.8355 138.569 13.2668 138.909 13.4517C139.125 13.6057 139.402 13.729 139.495 13.729C139.804 13.729 142.149 10.2473 142.674 8.984C143.846 6.18014 143.569 2.91411 142.057 1.09622C141.378 0.325933 141.038 0.171875 139.865 0.171875Z" fill="#EB8FA5"/>
<path d="M97.0301 41.8924L95.7956 41.6151L95.6413 30.0293L95.487 19.8117C95.487 19.8117 95.4963 18.5946 94.4069 16.3175C93.1786 13.6799 91.259 12.3734 88.4507 12.3734C85.6731 12.3734 83.4511 13.4827 80.7971 16.1942L78.6677 18.3511V15.239C78.6677 13.5443 78.5442 12.1885 78.4208 12.2501C78.2665 12.2809 76.4148 12.9588 74.2545 13.7292C72.0942 14.4687 70.3351 15.239 70.3351 15.4239C70.3351 15.578 70.9832 16.071 71.8165 16.5023L73.267 17.2727L73.3595 29.3206L73.4213 41.3994L72.4646 41.7383C71.261 42.1697 67.249 42.1697 66.1997 41.7692L65.3974 41.461V26.8248V12.1577L64.7184 12.3734C64.3172 12.4966 62.4347 13.0821 60.4904 13.6983C58.5462 14.3146 56.9105 14.9925 56.8488 15.1774C56.7562 15.3931 57.4043 15.8861 58.2376 16.3175C59.0708 16.7489 59.8423 17.3035 59.9658 17.5808C60.2435 18.3203 60.1818 40.6291 59.9041 41.0605C59.7806 41.2453 59.2868 41.5843 58.8239 41.7383C57.7438 42.1697 53.9787 42.1697 52.9294 41.7692L52.127 41.461V20.9703V0.479492L51.4481 0.510305C51.0469 0.510305 49.0101 1.12657 46.9115 1.83527C44.7821 2.54398 43.023 3.28349 42.9304 3.49918C42.8687 3.68406 43.5168 4.17707 44.35 4.60846C47.1275 5.99505 46.8806 4.2387 46.8806 23.5278C46.8806 32.9566 46.7572 40.8756 46.6338 41.0913C46.3251 41.5535 44.5969 42.0773 43.2699 42.0773C42.4675 42.0773 42.2515 42.2005 42.2515 42.6936C42.2515 43.3098 42.4675 43.3098 62.1569 43.3098C81.8464 43.3098 82.0624 43.3098 82.0624 42.6936C82.0624 42.2005 81.8464 42.0773 81.1057 42.0773C80.5811 42.0773 79.9021 41.9232 79.5626 41.7692C79.0071 41.461 78.9763 40.9988 78.9763 30.3683V19.3063L80.1181 18.382C82.0007 16.8413 83.1734 16.4099 85.1794 16.564C88.2346 16.7797 89.5925 18.3511 90.1172 22.2952C90.5492 25.7771 90.4566 40.6291 89.9937 41.2761C89.7468 41.6151 89.037 41.8924 88.142 41.9848C87.0002 42.1389 86.6916 42.2622 86.6916 42.7244C86.6916 43.279 87.031 43.3098 92.8638 43.3098C98.2028 43.3098 99.036 43.2482 99.036 42.8476C99.036 42.3238 98.9435 42.293 97.0301 41.8924Z" fill="#EB8FA5"/>
<path d="M214.95 42.0773C214.395 42.0773 213.469 41.9848 212.944 41.8924L211.988 41.6767V21.0935V0.479492L211.309 0.510305C210.908 0.510305 208.84 1.09576 206.68 1.80446C204.488 2.51316 202.729 3.25268 202.729 3.43756C202.729 3.62244 203.532 4.2387 204.519 4.82415L206.278 5.8718L206.371 23.4661C206.433 39.1192 206.371 41.1221 205.97 41.461C205.322 41.9848 200.97 42.2314 199.89 41.8L199.026 41.461V26.8248C199.026 18.7825 198.964 12.1885 198.903 12.1885C198.316 12.1885 190.076 15.0541 190.076 15.2698C190.076 15.4239 190.848 15.8861 191.774 16.3175L193.471 17.0878V29.0741C193.471 42.5395 193.625 41.6767 191.095 42.0157C190.045 42.1697 189.583 42.3854 189.521 42.786C189.428 43.279 190.231 43.3098 202.699 43.3098C215.784 43.3098 216 43.3098 216 42.6936C216 42.2005 215.784 42.0773 214.95 42.0773Z" fill="#EB8FA5"/>
<path d="M21.3276 2.45222C28.8886 0.849922 36.7891 5.62599 39.6283 13.4834C40.0295 14.6235 40.5233 15.4555 40.8319 15.5171C41.2639 15.6095 41.3257 14.9316 41.3257 8.83058C41.3257 3.74638 41.2331 2.02083 40.9553 2.02083C40.7393 2.02083 40.0295 2.66791 39.3505 3.43824L38.0852 4.85566L35.7706 3.62312C32.0673 1.62026 29.5984 1.0348 24.1977 0.911549C20.803 0.819109 19.013 0.942362 17.4391 1.28131C12.9642 2.26734 9.75466 3.96207 6.69941 6.88934C4.10707 9.38522 2.4097 11.9427 1.1444 15.3014C0.280282 17.6124 0.156838 18.3211 0.033393 22.0495C-0.0591905 25.1925 0.033393 26.7331 0.403727 28.3663C2.00851 35.176 7.13146 40.5375 14.4764 43.0334C17.2231 43.9886 17.7169 44.0503 22.6855 44.1735C28.8886 44.3276 31.5118 43.8346 35.5546 41.8009L37.9309 40.5992L39.1345 41.9549C41.2639 44.3892 41.3257 44.2351 41.3257 36.6859C41.3257 30.5232 41.2948 30.061 40.7701 30.061C40.369 30.061 40.1221 30.4616 39.8443 31.5092C38.5173 36.4085 33.5178 41.1538 28.2097 42.5712C26.142 43.1259 22.4386 43.1259 20.1857 42.5404C14.569 41.0614 10.0324 36.1312 8.24247 29.5372C7.34749 26.1169 7.34749 20.1083 8.27333 16.6572C10.341 8.89221 15.0628 3.74638 21.3276 2.45222Z" fill="#EB8FA5"/>
<path d="M60.367 7.87601C61.7866 9.13936 63.1445 9.10855 64.6259 7.8452C65.5826 7.01324 65.706 6.7051 65.706 5.41094C65.706 4.11677 65.5826 3.80864 64.6259 2.97667C63.3606 1.86739 62.0335 1.74413 60.7065 2.5761C59.5646 3.25399 58.8548 4.76385 59.1017 5.99639C59.2252 6.52022 59.7498 7.35218 60.367 7.87601Z" fill="#EB8FA5"/>
<path d="M198.533 7.53573C200.971 4.63914 197.391 0.602409 194.181 2.60537C192.793 3.46818 192.299 5.22462 192.978 6.70373C194.089 8.98402 196.959 9.41543 198.533 7.53573Z" fill="#EB8FA5"/>
<path d="M188.718 34.5285C188.441 35.6685 186.929 37.24 185.231 38.072C183.997 38.7191 183.318 38.8423 181.127 38.8423C178.905 38.8115 178.257 38.6883 176.96 38.0104C173.411 36.1307 171.683 33.1419 171.158 27.9344C171.004 26.0856 170.942 24.3601 171.035 24.0827C171.22 23.6513 172.239 23.5897 180.355 23.5897H189.459V22.7269C189.459 21.2171 188.657 18.4439 187.793 16.9957C186.342 14.4998 183.781 13.0207 180.016 12.4661C178.226 12.1888 177.485 12.2196 175.911 12.6202C173.627 13.2056 171.128 14.7771 169.77 16.4718L168.782 17.7044L167.517 16.3486C166.807 15.5782 165.789 14.6847 165.233 14.3457C162.672 12.7742 158.598 12.0039 155.512 12.5277C149.957 13.4521 145.359 18.1974 144.371 24.0519C143.939 26.6402 144.186 31.4163 144.896 33.7581C145.945 37.3325 148.506 40.2289 152.086 42.0161C154.339 43.1254 154.493 43.1562 157.796 43.1562C160.943 43.1562 161.375 43.0946 163.073 42.2626C164.184 41.708 165.696 40.5987 166.869 39.397C167.918 38.3185 168.782 37.579 168.782 37.733C168.782 38.5034 171.776 41.2149 173.658 42.1393C175.541 43.0637 175.942 43.1562 178.658 43.1562C181.188 43.1562 181.836 43.0329 183.349 42.3242C184.336 41.862 185.787 40.8144 186.62 40.0132C188.132 38.5034 189.768 35.5761 189.768 34.4052C189.768 33.5116 188.935 33.6041 188.718 34.5285ZM171.405 21.0322C171.899 18.2282 173.874 15.3009 176.004 14.2841C177.578 13.5754 179.892 13.6986 181.065 14.5614C182.33 15.5166 183.225 17.3346 183.472 19.5532C183.781 22.388 183.812 22.3572 176.868 22.3572H171.189L171.405 21.0322ZM165.603 29.1361C165.357 34.4668 164.369 37.6714 162.27 40.044C161.005 41.4923 159.709 42.0777 157.765 42.0777C152.611 42.0469 149.926 37.1168 149.957 27.8111C150.019 17.6119 154.524 11.6958 160.326 14.3149C164.091 16.0405 165.974 21.2171 165.603 29.1361Z" fill="#EB8FA5"/>
</svg>
