<?xml version="1.0" encoding="utf-8"?><svg xmlns="http://www.w3.org/2000/svg" xmlns:xlink="http://www.w3.org/1999/xlink"><symbol viewBox="0 0 29 33" id="icons--call"><path d="M17.797 15.47c.364 0 .66-.29.66-.645a.652.652 0 00-.66-.644.652.652 0 00-.659.644c0 .356.295.645.66.645zM11.207 15.47c.363 0 .659-.29.659-.645a.652.652 0 00-.66-.644.652.652 0 00-.659.644c0 .356.295.645.66.645z"/><path d="M0 30.942v1.414c0 .356.295.645.66.645h27.68c.365 0 .66-.289.66-.645V30.94c0-2.563-1.472-4.932-4.197-5.904a4.48 4.48 0 001.583-3.406.652.652 0 00-.66-.645c-1.584 0-2.92-1.096-3.242-2.55h1.904c1.09 0 1.976-.868 1.976-1.934v-2.965a1.94 1.94 0 00-1.319-1.823v-1.4c0-5.686-4.73-10.312-10.543-10.312-5.827 0-10.547 4.612-10.547 10.313v1.4c-.767.267-1.319.983-1.319 1.822v2.965c0 1.066.888 1.934 1.98 1.934h1.9c-.32 1.454-1.656 2.55-3.24 2.55a.652.652 0 00-.659.645c0 1.334.6 2.568 1.588 3.41C1.49 26.012 0 28.404 0 30.941zm25.012-8.721a3.248 3.248 0 01-2.028 2.41l-3.993-.507-.427-1.63a7.787 7.787 0 002.902-2.964 4.644 4.644 0 003.546 2.69zm-5.227-10.619c-1.821 0-3.303-1.466-3.303-3.27a.652.652 0 00-.659-.644.652.652 0 00-.659.645c0 1.803-1.481 3.27-3.302 3.27h-3.95c0-3.554 2.956-6.446 6.59-6.446 3.641 0 6.591 2.882 6.591 6.445h-1.308zm-11.876 1.29h3.953c1.68 0 3.152-.889 3.961-2.215a4.635 4.635 0 003.962 2.215h1.306v2.964c0 2.438-1.38 4.64-3.603 5.748a6.636 6.636 0 01-2.986.698 6.644 6.644 0 01-4.662-1.888 6.33 6.33 0 01-1.93-4.558v-2.964zm3.752 10.185c.902.34 1.854.514 2.841.514.99 0 1.947-.175 2.853-.52l.418 1.6c-.22 1.596-1.604 2.787-3.264 2.787-1.661 0-3.046-1.19-3.266-2.785l.418-1.596zM25.046 16.5a.652.652 0 01-.658.644H22.41v-4.253h1.98c.362 0 .657.289.657.644v2.965zM14.502 1.29c5.087 0 9.225 4.048 9.225 9.023v1.29h-1.316c0-4.274-3.537-7.735-7.909-7.735-4.361 0-7.909 3.47-7.909 7.734h-1.32v-1.289c0-4.985 4.128-9.023 9.23-9.023zM3.955 16.501v-2.965c0-.355.296-.644.66-.644h1.976v4.253H4.616a.654.654 0 01-.661-.644zm3.58 3.027A7.89 7.89 0 0010.45 22.5l-.424 1.625-4.004.508a3.25 3.25 0 01-2.03-2.411 4.641 4.641 0 003.543-2.693zm-1.583 6.413l.073-.01h.002l4.029-.51c.533 1.939 2.332 3.326 4.453 3.326 2.12 0 3.918-1.387 4.452-3.327l4.103.521c2.89.367 4.618 2.485 4.618 5v.77H1.318v-.77c0-2.467 1.728-4.631 4.634-5z"/><path d="M12.74 19.9a4.18 4.18 0 001.762.384c.601 0 1.182-.124 1.728-.368a.638.638 0 00.323-.855.665.665 0 00-.873-.317 2.858 2.858 0 01-1.178.251c-.42 0-.824-.088-1.2-.261a.665.665 0 00-.877.308.638.638 0 00.315.858zM20.434 30.036h2.636c.364 0 .66-.288.66-.644a.652.652 0 00-.66-.645h-2.636a.652.652 0 00-.66.645c0 .356.296.644.66.644zM25.704 28.747c.364 0 .66.289.66.645a.652.652 0 01-.66.644.652.652 0 01-.659-.644c0-.356.296-.645.66-.645z"/></symbol><symbol viewBox="0 0 37 26" id="icons--delivery"><path d="M30.25 19.012c-.905 0-1.764.365-2.412 1.025a3.523 3.523 0 00-1.009 2.47 3.49 3.49 0 001.01 2.469c.655.66 1.506 1.025 2.41 1.025 1.854 0 3.36-1.569 3.36-3.495 0-1.926-1.506-3.494-3.36-3.494zm0 5.436c-1.04 0-1.914-.886-1.914-1.942s.874-1.941 1.913-1.941c1.025 0 1.854.87 1.854 1.941 0 1.072-.829 1.942-1.854 1.942zm.873-17.077a.72.72 0 00-.504-.202h-3.865a.767.767 0 00-.754.776v6.368c0 .428.34.777.754.777h6.132c.415 0 .754-.35.754-.777V10.05a.788.788 0 00-.249-.575l-2.268-2.104zm1.01 6.166h-4.626V8.714h2.818l1.808 1.678v3.145zm-20.282 5.475c-.904 0-1.763.365-2.41 1.025a3.522 3.522 0 00-1.01 2.47 3.49 3.49 0 001.01 2.469A3.378 3.378 0 0011.85 26c1.853 0 3.36-1.569 3.36-3.495 0-1.926-1.507-3.494-3.36-3.494zm0 5.436c-1.04 0-1.914-.886-1.914-1.942s.874-1.941 1.914-1.941c1.025 0 1.853.87 1.853 1.941 0 1.072-.828 1.942-1.853 1.942zm-5.025-4.481H5.312V17.9a.768.768 0 00-.754-.776.768.768 0 00-.753.776v2.843c0 .427.339.776.753.776h2.268c.414 0 .753-.35.753-.776a.768.768 0 00-.753-.777zm3.82-4.232a.767.767 0 00-.754-.777H.753a.767.767 0 00-.753.777c0 .427.339.776.753.776h9.14a.763.763 0 00.753-.776zM2.283 12.93l9.139.054a.772.772 0 00.76-.768.758.758 0 00-.745-.785l-9.14-.054H2.29a.76.76 0 00-.753.769.758.758 0 00.746.784zM3.82 9.405h9.139c.414 0 .753-.35.753-.776a.768.768 0 00-.753-.777h-9.14a.768.768 0 00-.753.777c0 .427.34.776.754.776zM36.72 8.357l-5.394-4.605a.729.729 0 00-.482-.179H24.5V.778A.767.767 0 0023.747 0H4.558a.768.768 0 00-.753.777v5.684c0 .427.339.777.753.777.415 0 .754-.35.754-.777V1.554h17.69v18.413h-6.178a.768.768 0 00-.754.777c0 .427.34.776.754.776h9.199c.414 0 .753-.35.753-.776a.768.768 0 00-.753-.777h-1.515V5.127h6.073l4.912 4.193-.053 10.631h-.783a.768.768 0 00-.753.777c0 .427.338.777.753.777h1.53a.76.76 0 00.753-.77L37 8.964a.83.83 0 00-.279-.606z"/></symbol><symbol viewBox="0 0 34 23" id="icons--laptop"><path d="M28.08 3.214H5.92a.735.735 0 00-.731.74v11.158c0 .408.327.739.731.739.404 0 .732-.33.732-.739V4.692h20.696v10.42c0 .408.328.739.732.739.404 0 .731-.33.731-.739V3.953a.735.735 0 00-.731-.739z"/><path d="M33.342 17.75h-1.348V2.234c0-1.231-.992-2.233-2.212-2.233H4.218c-1.22 0-2.212 1.002-2.212 2.233V17.75H.66a.662.662 0 00-.659.665v1.306C0 21.529 1.457 23 3.249 23H30.75c1.792 0 3.249-1.472 3.249-3.28v-1.306a.662.662 0 00-.658-.665zM3.47 2.234c0-.416.335-.755.748-.755h25.564c.413 0 .748.339.748.755V17.75h-9.908a.663.663 0 00-.677.665c0 .561-.451 1.018-1.007 1.018h-3.876a1.014 1.014 0 01-1.008-1.018.663.663 0 00-.674-.665H3.47V2.234zm29.213 17.487c0 1.075-.867 1.95-1.932 1.95H3.25a1.943 1.943 0 01-1.932-1.95v-.64h11.515a2.332 2.332 0 002.23 1.682h3.876a2.333 2.333 0 002.23-1.683h11.515v.64z"/><path d="M18.084 7.509a.727.727 0 00-1.034 0l-4.602 4.647a.744.744 0 000 1.044.726.726 0 001.035 0l4.601-4.646a.744.744 0 000-1.045zM20.812 10.202a.727.727 0 00-1.035 0l-1.833 1.85a.744.744 0 000 1.046.726.726 0 001.035 0l1.833-1.852a.744.744 0 000-1.044z"/></symbol></svg>