<svg xmlns="http://www.w3.org/2000/svg" width="111.734" height="111.733" viewBox="0 0 111.734 111.733">
    <defs>
        <style>
            .cls-1{fill:#f79220}.cls-2{fill:#fff}
        </style>
    </defs>
    <g id="Group_2614" data-name="Group 2614" transform="translate(-1168 -10112)">
        <path id="Rectangle_2799" d="M0 0h79.601v79.601H0z" class="cls-1" data-name="Rectangle 2799" transform="rotate(-38 15331.754 3380.409)"/>
        <g id="Group_2316" data-name="Group 2316" transform="translate(1049 10064)">
            <path id="Path_1093" d="M185.31 92.4a1.016 1.016 0 0 0 1.424-.192 15.675 15.675 0 0 1 24.941 0 1.016 1.016 0 1 0 1.616-1.233 17.707 17.707 0 0 0-28.172 0 1.016 1.016 0 0 0 .192 1.424zm0 0" class="cls-2" data-name="Path 1093" transform="translate(-24.834)"/>
            <path id="Path_1094" d="M332.758 149.907a3.173 3.173 0 1 0 3.173-3.173 3.177 3.177 0 0 0-3.173 3.173zm0 0" class="cls-2" data-name="Path 1094" transform="translate(-147.587 -52.086)"/>
            <path id="Path_1095" d="M328.294 188.913l-.807-.248a.949.949 0 0 0-.846.148l-1.595 1.194-1.594-1.194a.951.951 0 0 0-.847-.148l-.807.248a3.142 3.142 0 0 0-2.151 2.984v4.8a.949.949 0 0 0 .156.52l1.609 2.449v6.43a.948.948 0 0 0 .948.948h5.37a.949.949 0 0 0 .949-.948v-6.43l1.609-2.449a.948.948 0 0 0 .156-.52v-4.8a3.142 3.142 0 0 0-2.151-2.984zm0 0" class="cls-2" data-name="Path 1095" transform="translate(-136.702 -86.866)"/>
            <path id="Path_1096" d="M171.282 153.08a3.173 3.173 0 1 0-3.173-3.173 3.177 3.177 0 0 0 3.173 3.173zm0 0" class="cls-2" data-name="Path 1096" transform="translate(-10.884 -52.086)"/>
            <path id="Path_1097" d="M163.646 188.913l-.807-.248a.951.951 0 0 0-.847.148l-1.594 1.194-1.595-1.194a.949.949 0 0 0-.846-.148l-.807.248A3.142 3.142 0 0 0 155 191.9v4.8a.948.948 0 0 0 .156.52l1.609 2.449v6.43a.948.948 0 0 0 .948.948h5.37a.948.948 0 0 0 .948-.948v-6.43l1.609-2.449a.948.948 0 0 0 .156-.52v-4.8a3.142 3.142 0 0 0-2.151-2.984zm0 0" class="cls-2" data-name="Path 1097" transform="translate(0 -86.866)"/>
            <path id="Path_1098" d="M253.2 119.062a4.093 4.093 0 1 0-4.093 4.093 4.1 4.1 0 0 0 4.093-4.093zm0 0" class="cls-2" data-name="Path 1098" transform="translate(-74.738 -25.713)"/>
            <path id="Path_1099" d="M239.5 173.037h-.007l-1.168-.358a.362.362 0 0 0-.447.222l-2.456 6.74a.444.444 0 0 1-.833 0l-2.456-6.74a.364.364 0 0 0-.341-.239c-.035 0-1.274.374-1.274.374a3.626 3.626 0 0 0-2.489 3.445v7.129a.361.361 0 0 0 .06.2l2.563 3.9v9.868a.363.363 0 0 0 .363.363h7.981a.363.363 0 0 0 .363-.363v-9.868l2.563-3.9a.362.362 0 0 0 .06-.2v-7.15a3.6 3.6 0 0 0-2.481-3.424zm0 0" class="cls-2" data-name="Path 1099" transform="translate(-60.632 -73.612)"/>
            <path id="Path_1100" d="M264.718 173.232a.54.54 0 0 0-.4-.166H263.2a.542.542 0 0 0-.4.166.52.52 0 0 0-.068.612l.6.9-.281 2.363.552 1.468a.169.169 0 0 0 .316 0l.552-1.468-.28-2.363.6-.9a.52.52 0 0 0-.069-.612zm0 0" class="cls-2" data-name="Path 1100" transform="translate(-89.388 -73.949)"/>
        </g>
    </g>
</svg>