<svg xmlns="http://www.w3.org/2000/svg" width="111.734" height="111.733" viewBox="0 0 111.734 111.733">
    <defs>
        <style>
            .cls-1{fill:#f79220}.cls-2{fill:#fff}
        </style>
    </defs>
    <g id="Group_2612" data-name="Group 2612" transform="translate(-342 -10112)">
        <path id="Rectangle_2795" d="M0 0h79.601v79.601H0z" class="cls-1" data-name="Rectangle 2795" transform="rotate(-38 14919.143 4579.315)"/>
        <g id="Group_2317" data-name="Group 2317" transform="translate(289 10168)">
            <path id="Path_1101" d="M364.981 347.695v2.477l3.168-3.172h-2.477a.691.691 0 0 0-.691.691zm0 0" class="cls-2" data-name="Path 1101" transform="translate(-248.496 -336.228)"/>
            <path id="Path_1102" d="M129.835 59.027H125v29.01h19.34v-3.453a2.072 2.072 0 0 1 2.072-2.072h3.454V59.027h-4.835v.69a.691.691 0 0 1-.69.691h-13.815a.691.691 0 0 1-.691-.691zm2.072 6.216h14.505a.691.691 0 1 1 0 1.382h-14.505a.691.691 0 1 1 0-1.382zm0 4.144h14.505a.691.691 0 1 1 0 1.382h-14.505a.691.691 0 1 1 0-1.382zm0 4.144h14.505a.691.691 0 0 1 0 1.382h-14.505a.691.691 0 1 1 0-1.382zm0 4.145h14.505a.691.691 0 1 1 0 1.381h-14.505a.691.691 0 1 1 0-1.381zm0 4.144h11.052a.691.691 0 1 1 0 1.381h-11.052a.691.691 0 1 1 0-1.381zm-2.763 1.38h-.691a.691.691 0 1 1 0-1.381h.691a.691.691 0 1 1 0 1.381zm0-4.144h-.691a.691.691 0 1 1 0-1.381h.691a.691.691 0 1 1 0 1.381zm0-4.144h-.691a.691.691 0 1 1 0-1.382h.691a.691.691 0 0 1 0 1.382zm0-4.144h-.691a.691.691 0 1 1 0-1.382h.691a.691.691 0 1 1 0 1.382zm0-4.144h-.691a.691.691 0 1 1 0-1.382h.691a.691.691 0 1 1 0 1.382zm0 0" class="cls-2" data-name="Path 1102" transform="translate(-29.237 -73.117)"/>
            <path id="Path_1103" d="M209.426-18.235h-2.832a.691.691 0 0 1-.677-.552A2.763 2.763 0 0 0 203.21-21a2.763 2.763 0 0 0-2.708 2.213.691.691 0 0 1-.677.552h-2.832v4.145h12.433zm-6.217 1.382a1.382 1.382 0 0 1-1.382-1.382 1.382 1.382 0 0 1 1.382-1.381 1.382 1.382 0 0 1 1.382 1.381 1.382 1.382 0 0 1-1.382 1.382zm0 0" class="cls-2" data-name="Path 1103" transform="translate(-95.013)"/>
            <path id="Path_1104" d="M121.32 27.027h-5.526v1.382h5.526a.691.691 0 0 1 .691.691v24.865c0 .015-.007.028-.008.042a.693.693 0 0 1-.036.18.639.639 0 0 1-.023.064.687.687 0 0 1-.138.2l-5.526 5.529a.694.694 0 0 1-.486.2H95.072a.691.691 0 0 1-.691-.691V29.1a.691.691 0 0 1 .691-.691h5.528v-1.382h-5.528A2.072 2.072 0 0 0 93 29.1v30.391a2.072 2.072 0 0 0 2.072 2.072h26.248a2.072 2.072 0 0 0 2.072-2.072V29.1a2.072 2.072 0 0 0-2.072-2.072zm0 0" class="cls-2" data-name="Path 1104" transform="translate(0 -43.88)"/>
        </g>
    </g>
</svg>