<svg xmlns="http://www.w3.org/2000/svg" width="111.734" height="111.733" viewBox="0 0 111.734 111.733">
    <defs>
        <style>
            .cls-1{fill:#00afde}.cls-2{fill:#fff}
        </style>
    </defs>
    <g id="Group_2613" data-name="Group 2613" transform="translate(-755 -10112)">
        <path id="Rectangle_2797" d="M0 0h79.601v79.601H0z" class="cls-1" data-name="Rectangle 2797" transform="rotate(-38 15125.448 3979.862)"/>
        <g id="Group_2315" data-name="Group 2315" transform="translate(619 10066)">
            <path id="Path_1090" d="M229.474 98.017a7.009 7.009 0 1 0-7.009-7.009 7.017 7.017 0 0 0 7.009 7.009zm0 0" class="cls-2" data-name="Path 1090" transform="translate(-37.818)"/>
            <path id="Path_1091" d="M201.06 196.822h-.012c-.912-.223-3.707-.614-3.707-.614a.621.621 0 0 0-.766.381l-4.207 11.541a.76.76 0 0 1-1.427 0l-4.206-11.541a.621.621 0 0 0-.583-.409c-.06 0-2.934.4-3.89.641a5.959 5.959 0 0 0-4.263 5.9v9.6a2.606 2.606 0 0 0 2.606 2.606h22.1a2.606 2.606 0 0 0 2.606-2.606v-9.635a6.166 6.166 0 0 0-4.249-5.862zm0 0" class="cls-2" data-name="Path 1091" transform="translate(0 -95.408)"/>
            <path id="Path_1092" d="M260.6 193.326a.9.9 0 0 0-.662-.275h-1.848a.893.893 0 0 0-.661.275.859.859 0 0 0-.113 1.012l.99 1.493-.463 3.909.912 2.427a.278.278 0 0 0 .523 0l.913-2.427-.463-3.909.99-1.493a.859.859 0 0 0-.113-1.012zm0 0" class="cls-2" data-name="Path 1092" transform="translate(-67.362 -92.75)"/>
        </g>
    </g>
</svg>