<?xml version="1.0" encoding="utf-8"?>
<!-- Generator: Adobe Illustrator 16.0.0, SVG Export Plug-In . SVG Version: 6.00 Build 0)  -->
<!DOCTYPE svg PUBLIC "-//W3C//DTD SVG 1.1//EN" "http://www.w3.org/Graphics/SVG/1.1/DTD/svg11.dtd">
<svg version="1.1" id="Layer_1" xmlns="http://www.w3.org/2000/svg" xmlns:xlink="http://www.w3.org/1999/xlink" x="0px" y="0px"
	 width="62.014px" height="69.979px" viewBox="0 0 62.014 69.979" enable-background="new 0 0 62.014 69.979" xml:space="preserve">
<path fill="#F76724" d="M62.014,17.677L30.816,0L0,17.468v34.936l31.009,17.575l31.005-17.612v-0.016V17.677z"/>
<g>
	<path fill="#FFFFFF" d="M30.083,36.861v5.564c0,0.779-0.277,1.438-0.832,1.976s-1.213,0.806-1.976,0.806h-5.564
		c-0.763,0-1.422-0.269-1.976-0.806c-0.555-0.537-0.823-1.196-0.806-1.976V32.208c0-1.005,0.199-1.967,0.598-2.886
		c0.398-0.918,0.927-1.707,1.586-2.366c0.659-0.659,1.447-1.187,2.366-1.586s1.881-0.598,2.886-0.598h0.91
		c0.26,0,0.485,0.095,0.676,0.286c0.19,0.191,0.277,0.407,0.26,0.65v1.872c0,0.243-0.087,0.459-0.26,0.65
		c-0.173,0.191-0.399,0.277-0.676,0.26h-0.91c-1.023,0-1.898,0.364-2.626,1.092s-1.092,1.604-1.092,2.626v0.468
		c0,0.381,0.139,0.711,0.416,0.988s0.598,0.416,0.962,0.416h3.25c0.78,0,1.438,0.27,1.976,0.807S30.066,36.081,30.083,36.861z
		 M43.085,36.861v5.564c0,0.779-0.277,1.438-0.832,1.976c-0.556,0.537-1.215,0.806-1.977,0.806h-5.564
		c-0.763,0-1.422-0.269-1.976-0.806c-0.556-0.537-0.824-1.196-0.807-1.976V32.208c0-1.005,0.199-1.967,0.599-2.886
		c0.398-0.918,0.927-1.707,1.586-2.366c0.658-0.659,1.446-1.187,2.365-1.586s1.881-0.598,2.887-0.598h0.91
		c0.26,0,0.484,0.095,0.676,0.286c0.19,0.191,0.276,0.407,0.26,0.65v1.872c0,0.243-0.087,0.459-0.26,0.65
		c-0.174,0.191-0.399,0.277-0.676,0.26h-0.91c-1.023,0-1.898,0.364-2.626,1.092c-0.729,0.728-1.093,1.604-1.093,2.626v0.468
		c0,0.381,0.139,0.711,0.416,0.988s0.599,0.416,0.963,0.416h3.25c0.779,0,1.438,0.27,1.977,0.807
		C42.79,35.423,43.067,36.081,43.085,36.861z"/>
</g>
</svg>
