<svg width="375" height="261" xmlns="http://www.w3.org/2000/svg"><path d="M242.254.382c6.526 0 11.817 5.29 11.817 11.816l-.001 11.818h50.42c4.361 0 8.358 2.399 10.414 6.225l.147.283 35.452 70.508-.022.01 22.038 28.384a11.835 11.835 0 012.475 6.873l.006.375v76.81c0 6.527-5.29 11.817-11.818 11.817H328.89c-5.395 20.166-23.823 35.06-45.67 35.06-21.844 0-40.274-14.893-45.67-35.057h-70.163c-5.396 20.164-23.826 35.057-45.67 35.057-21.843 0-40.273-14.893-45.67-35.058H45.3c-6.527 0-11.817-5.29-11.817-11.817s5.29-11.817 11.817-11.817h30.544c5.122-20.565 23.746-35.846 45.874-35.846 22.127 0 40.751 15.281 45.873 35.845h69.755c5.122-20.564 23.746-35.845 45.873-35.845s40.751 15.28 45.874 35.843l22.272.001v-60.945l-17.21-22.17h-91.902c-6.527 0-11.817-5.289-11.817-11.816v-82.72H45.3c-6.527 0-11.817-5.29-11.817-11.818C33.483 5.672 38.773.382 45.3.382zm40.965 189.075c-13.034 0-23.634 10.6-23.634 23.635 0 13.034 10.6 23.634 23.634 23.634 13.035 0 23.635-10.6 23.635-23.634 0-13.035-10.6-23.635-23.635-23.635zm-161.501 0c-13.035 0-23.635 10.6-23.635 23.635 0 13.034 10.6 23.634 23.635 23.634 13.034 0 23.634-10.6 23.634-23.634 0-13.035-10.604-23.635-23.634-23.635zm-36.24-47.662c6.527 0 11.816 5.29 11.816 11.817 0 6.526-5.29 11.816-11.817 11.816H31.118c-6.526 0-11.816-5.29-11.816-11.816 0-6.527 5.29-11.817 11.816-11.817zm27.18-46.482c6.527 0 11.816 5.291 11.816 11.818 0 6.526-5.29 11.817-11.817 11.817H11.817C5.29 118.948 0 113.658 0 107.13s5.29-11.818 11.817-11.818zm184.545-47.662H254.07v47.268h66.898L297.203 47.65zm-165.244 1.181c6.527 0 11.817 5.29 11.817 11.817s-5.29 11.817-11.817 11.817H31.119c-6.527 0-11.817-5.29-11.817-11.817s5.29-11.817 11.816-11.817z"/></svg>