<svg width="57" height="57" xmlns="http://www.w3.org/2000/svg"><g fill="none" fill-rule="evenodd"><path fill="#FF2E2E" d="M28.5 55.365l-4.056 1.345-3.513-2.433-4.27.148-2.685-3.325-4.14-1.061-1.64-3.946-3.672-2.185-.461-4.248-2.909-3.13.754-4.207L0 28.5l1.908-3.823-.754-4.206 2.909-3.131.461-4.248 3.673-2.185 1.64-3.946L13.975 5.9l2.685-3.325 4.27.148L24.444.29 28.5 1.635 32.556.29l3.513 2.433 4.27-.148L43.024 5.9l4.14 1.061 1.64 3.946 3.672 2.185.461 4.248 2.909 3.13-.754 4.207L57 28.5l-1.908 3.823.754 4.206-2.909 3.131-.461 4.248-3.673 2.185-1.64 3.946-4.139 1.061-2.685 3.325-4.27-.148-3.513 2.433z"/><path d="M14.6 32.064v-2.13L8 30.71v2.13l6.6-.776zm6.555 3.43c1.2-.142 2.13-.594 2.79-1.356.66-.763.99-1.73.99-2.9 0-.63-.115-1.2-.345-1.714a2.535 2.535 0 00-1.087-1.192c-.495-.281-1.118-.378-1.868-.29-.42.05-.81.165-1.17.348-.36.182-.64.395-.84.638v-2.07l4.68-.55v-2.25l-7.005.824v6.525l2.475-.291c.07-.279.215-.513.435-.704.22-.19.5-.306.84-.346.46-.054.81.034 1.05.266s.36.593.36 1.083c0 .5-.115.913-.345 1.24-.23.328-.58.519-1.05.574-.4.047-.715-.018-.945-.196a1.165 1.165 0 01-.435-.722l-2.505.295c.03.636.205 1.18.525 1.633.32.452.775.781 1.365.987.59.206 1.285.261 2.085.167zm9.405-1.152c1.48-.174 2.552-.795 3.218-1.863.665-1.068.997-2.472.997-4.212 0-1.72-.332-3.036-.997-3.948-.666-.912-1.738-1.28-3.218-1.107-1.48.174-2.552.796-3.217 1.864-.666 1.068-.998 2.462-.998 4.182 0 1.74.332 3.066.998 3.978.665.912 1.737 1.28 3.217 1.106zm0-2.4c-.48.057-.842-.038-1.087-.284-.245-.246-.408-.587-.488-1.023-.08-.435-.12-.993-.12-1.673 0-1.01.11-1.8.33-2.372.22-.57.675-.896 1.365-.978.69-.08 1.145.138 1.365.657.22.52.33 1.284.33 2.294 0 .68-.04 1.247-.12 1.702-.08.454-.242.833-.487 1.137-.245.304-.608.484-1.088.54zm7.86-4.134c.74-.087 1.34-.377 1.8-.872.46-.494.69-1.146.69-1.956s-.23-1.408-.69-1.794c-.46-.385-1.06-.535-1.8-.448-.74.087-1.343.378-1.808.873-.465.494-.697 1.147-.697 1.957s.233 1.407.697 1.793c.465.385 1.068.534 1.808.447zm1.905 5.431L46.1 22l-2.475.291-5.775 11.24 2.475-.292zm-1.92-6.944c-.48.056-.72-.255-.72-.935 0-.69.24-1.064.72-1.12.49-.058.735.258.735.948 0 .34-.065.603-.195.788a.735.735 0 01-.54.319zm7.14 6.495c.74-.087 1.34-.377 1.8-.871.46-.494.69-1.147.69-1.957s-.23-1.407-.69-1.793c-.46-.386-1.06-.536-1.8-.449-.74.087-1.34.378-1.8.872-.46.494-.69 1.146-.69 1.956s.23 1.408.69 1.794c.46.386 1.06.535 1.8.448zm-.015-1.513c-.48.056-.72-.255-.72-.935 0-.35.063-.618.188-.802a.713.713 0 01.532-.318c.23-.027.41.04.54.199.13.16.195.41.195.75s-.065.602-.195.788a.735.735 0 01-.54.318z" fill="#fff" fill-rule="nonzero"/></g></svg>