<?xml version="1.0" encoding="utf-8"?>
<!-- Generator: Adobe Illustrator 16.0.0, SVG Export Plug-In . SVG Version: 6.00 Build 0)  -->
<!DOCTYPE svg PUBLIC "-//W3C//DTD SVG 1.1//EN" "http://www.w3.org/Graphics/SVG/1.1/DTD/svg11.dtd">
<svg version="1.1" id="Layer_1" xmlns="http://www.w3.org/2000/svg" xmlns:xlink="http://www.w3.org/1999/xlink" x="0px" y="0px"
	 width="200px" height="200px" viewBox="0 0 200 200" enable-background="new 0 0 200 200" xml:space="preserve">
<g>
	<path fill="#FFFFFF" d="M100,195c-52.383,0-95-42.617-95-95C5,47.617,47.617,5,100,5s95,42.617,95,95
		C195,152.382,152.383,195,100,195z"/>
	<path fill="#F3F3F3" d="M100,10c49.626,0,90,40.374,90,90c0,49.625-40.374,90-90,90s-90-40.375-90-90C10,50.374,50.374,10,100,10
		 M100,0C44.771,0,0,44.771,0,100c0,55.228,44.771,100,100,100c55.229,0,100-44.771,100-100C200,44.771,155.229,0,100,0L100,0z"/>
</g>
<g>
	<circle fill="#1A2B63" cx="101.445" cy="100" r="61"/>
	<path fill="#91E0E8" d="M162.058,69.241h-59.563v23.045c0,0.685-0.56,1.244-1.244,1.244h-8.097v22.43
		c0,0.925,0.757,1.682,1.681,1.682h67.223c0.925,0,1.681-0.758,1.681-1.682V70.921C163.738,69.997,162.982,69.241,162.058,69.241z"
		/>
	<path fill="#5DC1D8" d="M98.095,115.959V93.53h-4.94v22.43c0,0.925,0.757,1.682,1.681,1.682h4.94
		C98.851,117.641,98.095,116.884,98.095,115.959z"/>
	<path fill="#0F9390" d="M147.617,95.555c-0.596-0.706-1.57-0.706-2.166,0l-8.737,10.366c-0.596,0.706-1.57,0.706-2.166,0
		l-16.491-19.564c-0.596-0.707-1.57-0.707-2.166,0L93.154,113.33v2.63c0,0.925,0.757,1.682,1.681,1.682h67.223
		c0.925,0,1.682-0.758,1.682-1.682v-1.279L147.617,95.555z"/>
	<circle fill="#FFFFFF" cx="151.962" cy="81.748" r="6.302"/>
	<path fill="#D9EAFC" d="M149.143,81.747c0-2.876,1.928-5.301,4.562-6.057c-0.553-0.158-1.137-0.245-1.741-0.245
		c-3.48,0-6.302,2.82-6.302,6.302s2.821,6.302,6.302,6.302c0.604,0,1.188-0.086,1.741-0.244
		C151.07,87.048,149.143,84.624,149.143,81.747z"/>
	<path fill="#FE3745" d="M102.745,92.535c0,0.685-0.56,1.245-1.244,1.245H37.506c-0.686,0-1.246-0.561-1.246-1.245V43.73
		c0-0.685,0.56-1.245,1.246-1.245h63.995c0.685,0,1.244,0.561,1.244,1.245V92.535z"/>
	<path fill="#FFFFFF" d="M56.8,55.955c0-1.369,0.971-1.929,2.157-1.244l21.092,12.177c1.186,0.685,1.186,1.806,0,2.49L58.957,81.554
		C57.771,82.24,56.8,81.679,56.8,80.31V55.955z"/>
	<path fill="#D9EAFC" d="M61.741,56.318l-2.784-1.607c-1.186-0.685-2.157-0.125-2.157,1.244V80.31c0,1.369,0.971,1.93,2.157,1.244
		l2.784-1.607V56.318z"/>
	<g>
		<path fill="#B7092B" d="M98.881,52.074c0,0.411-0.335,0.747-0.747,0.747h-5.229c-0.41,0-0.747-0.336-0.747-0.747v-5.228
			c0-0.411,0.336-0.747,0.747-0.747h5.229c0.412,0,0.747,0.336,0.747,0.747V52.074L98.881,52.074z"/>
		<path fill="#B7092B" d="M98.881,61.411c0,0.41-0.335,0.747-0.747,0.747h-5.229c-0.41,0-0.747-0.337-0.747-0.747v-5.229
			c0-0.411,0.336-0.747,0.747-0.747h5.229c0.412,0,0.747,0.336,0.747,0.747V61.411L98.881,61.411z"/>
		<path fill="#B7092B" d="M98.881,70.747c0,0.411-0.335,0.747-0.747,0.747h-5.229c-0.41,0-0.747-0.336-0.747-0.747v-5.229
			c0-0.41,0.336-0.747,0.747-0.747h5.229c0.412,0,0.747,0.337,0.747,0.747V70.747L98.881,70.747z"/>
		<path fill="#B7092B" d="M98.881,80.083c0,0.411-0.335,0.747-0.747,0.747h-5.229c-0.41,0-0.747-0.336-0.747-0.747v-5.229
			c0-0.41,0.336-0.746,0.747-0.746h5.229c0.412,0,0.747,0.336,0.747,0.746V80.083L98.881,80.083z"/>
		<path fill="#B7092B" d="M98.881,89.418c0,0.411-0.335,0.747-0.747,0.747h-5.229c-0.41,0-0.747-0.336-0.747-0.747v-5.228
			c0-0.411,0.336-0.747,0.747-0.747h5.229c0.412,0,0.747,0.336,0.747,0.747V89.418L98.881,89.418z"/>
		<path fill="#B7092B" d="M46.847,52.074c0,0.411-0.336,0.747-0.747,0.747h-5.228c-0.412,0-0.747-0.336-0.747-0.747v-5.228
			c0-0.411,0.335-0.747,0.747-0.747H46.1c0.411,0,0.747,0.336,0.747,0.747V52.074z"/>
		<path fill="#B7092B" d="M46.847,61.411c0,0.41-0.336,0.747-0.747,0.747h-5.228c-0.412,0-0.747-0.337-0.747-0.747v-5.229
			c0-0.411,0.335-0.747,0.747-0.747H46.1c0.411,0,0.747,0.336,0.747,0.747V61.411z"/>
		<path fill="#B7092B" d="M46.847,70.747c0,0.411-0.336,0.747-0.747,0.747h-5.228c-0.412,0-0.747-0.336-0.747-0.747v-5.229
			c0-0.41,0.335-0.747,0.747-0.747H46.1c0.411,0,0.747,0.337,0.747,0.747V70.747z"/>
		<path fill="#B7092B" d="M46.847,80.083c0,0.411-0.336,0.747-0.747,0.747h-5.228c-0.412,0-0.747-0.336-0.747-0.747v-5.229
			c0-0.41,0.335-0.746,0.747-0.746H46.1c0.411,0,0.747,0.336,0.747,0.746V80.083z"/>
		<path fill="#B7092B" d="M46.847,89.418c0,0.411-0.336,0.747-0.747,0.747h-5.228c-0.412,0-0.747-0.336-0.747-0.747v-5.228
			c0-0.411,0.335-0.747,0.747-0.747H46.1c0.411,0,0.747,0.336,0.747,0.747V89.418z"/>
	</g>
	<path fill="#52BBEF" d="M87.538,99.74h-43.3c-0.685,0-1.246,0.561-1.246,1.245v16.493c1.725,5.773,4.28,11.189,7.529,16.105h15.706
		l10.152,10.154c0.484,0.483,0.881,0.319,0.881-0.365v-9.789h10.277c0.685,0,1.244-0.561,1.244-1.245v-31.354
		C88.782,100.3,88.223,99.74,87.538,99.74z"/>
	<path fill="#1E99D6" d="M47.934,100.985c0-0.685,0.56-1.245,1.245-1.245h-4.94c-0.685,0-1.246,0.561-1.246,1.245v16.493
		c1.236,4.139,2.902,8.092,4.941,11.812V100.985z"/>
	<g>
		<path fill="#FFFFFF" d="M78.244,112.117H53.531c-1.032,0-1.868-0.837-1.868-1.867c0-1.031,0.836-1.866,1.868-1.866h24.713
			c1.032,0,1.867,0.835,1.867,1.866C80.111,111.28,79.276,112.117,78.244,112.117z"/>
		<path fill="#FFFFFF" d="M78.244,118.619H53.531c-1.032,0-1.868-0.837-1.868-1.867c0-1.032,0.836-1.869,1.868-1.869h24.713
			c1.032,0,1.867,0.837,1.867,1.869C80.111,117.782,79.276,118.619,78.244,118.619z"/>
		<path fill="#FFFFFF" d="M65.937,125.12H53.531c-1.032,0-1.868-0.836-1.868-1.868c0-1.031,0.836-1.867,1.868-1.867h12.405
			c1.032,0,1.868,0.836,1.868,1.867C67.805,124.284,66.969,125.12,65.937,125.12z"/>
	</g>
	<path fill="#EF8318" d="M133.765,124.041H94.523c-0.685,0-1.245,0.561-1.245,1.245v29.707c0,0.685,0.561,1.244,1.245,1.244h30.594
		c3.474-1.464,6.781-3.242,9.893-5.296v-25.655C135.01,124.601,134.449,124.041,133.765,124.041z"/>
	<path fill="#DB722C" d="M98.22,154.993v-29.707c0-0.685,0.56-1.245,1.244-1.245h-4.94c-0.685,0-1.245,0.561-1.245,1.245v29.707
		c0,0.685,0.561,1.244,1.245,1.244h4.94C98.779,156.237,98.22,155.677,98.22,154.993z"/>
	<path fill="#FFFFFF" d="M107.226,133.422c0-1.369,0.972-1.929,2.157-1.244l11.633,6.715c1.188,0.686,1.188,1.807,0,2.491
		l-11.633,6.716c-1.186,0.685-2.157,0.125-2.157-1.244V133.422z"/>
</g>
</svg>
