<?xml version="1.0" encoding="utf-8"?>
<!-- Generator: Adobe Illustrator 16.0.0, SVG Export Plug-In . SVG Version: 6.00 Build 0)  -->
<!DOCTYPE svg PUBLIC "-//W3C//DTD SVG 1.1//EN" "http://www.w3.org/Graphics/SVG/1.1/DTD/svg11.dtd">
<svg version="1.1" id="Layer_1" xmlns="http://www.w3.org/2000/svg" xmlns:xlink="http://www.w3.org/1999/xlink" x="0px" y="0px"
	 width="200px" height="200px" viewBox="0 0 200 200" enable-background="new 0 0 200 200" xml:space="preserve">
<g>
	<path fill="#FFFFFF" d="M100,195c-52.383,0-95-42.617-95-95C5,47.617,47.617,5,100,5s95,42.617,95,95
		C195,152.382,152.383,195,100,195z"/>
	<path fill="#F3F3F3" d="M100,10c49.626,0,90,40.374,90,90c0,49.625-40.374,90-90,90s-90-40.375-90-90C10,50.374,50.374,10,100,10
		 M100,0C44.771,0,0,44.771,0,100c0,55.228,44.771,100,100,100c55.229,0,100-44.771,100-100C200,44.771,155.229,0,100,0L100,0z"/>
</g>
<g>
	<path fill="#172A7D" d="M47.057,137.716c-7.712-10.806-12.199-24.072-12.053-38.393c0.369-36.219,29.986-64.97,66.2-64.313
		C136.548,35.652,165,64.503,165,100c0,14.062-4.466,27.082-12.057,37.717c-0.531,0.744-1.627,0.765-2.198,0.051
		c-11.912-14.86-30.218-24.376-50.745-24.376s-38.832,9.515-50.744,24.376C48.684,138.482,47.588,138.461,47.057,137.716z"/>
	<path fill="#54469B" d="M40.896,72.818c10.429-22.747,33.57-38.292,60.308-37.807c25.681,0.467,47.725,15.826,57.857,37.807H40.896
		z"/>
	<path fill="#8694DD" d="M150.409,66.933h-93.61c-1.464,0-2.653-1.188-2.653-2.653v-9.021c0-2.197,1.782-3.979,3.979-3.979h90.956
		c2.197,0,3.979,1.782,3.979,3.979v9.021C153.062,65.745,151.873,66.933,150.409,66.933z"/>
	<path fill="#4F66CF" d="M58.612,66.933h-9.02c-1.465,0-2.653-1.188-2.653-2.653v-9.021c0-2.197,1.782-3.979,3.979-3.979h9.021
		c-2.198,0-3.979,1.782-3.979,3.979v9.021C55.959,65.745,57.147,66.933,58.612,66.933z"/>
	<path fill="#1F3595" d="M74.531,58.001c0,1.465-1.187,2.653-2.653,2.653c-1.465,0-2.653-1.188-2.653-2.653
		c0-1.465,1.188-2.653,2.653-2.653C73.344,55.348,74.531,56.536,74.531,58.001z M55.959,55.348c-1.465,0-2.653,1.188-2.653,2.653
		c0,1.465,1.188,2.653,2.653,2.653c1.465,0,2.653-1.188,2.653-2.653C58.612,56.536,57.425,55.348,55.959,55.348z M63.919,55.348
		c-1.465,0-2.653,1.188-2.653,2.653c0,1.465,1.188,2.653,2.653,2.653c1.465,0,2.653-1.188,2.653-2.653
		C66.572,56.536,65.384,55.348,63.919,55.348z"/>
	<path fill="#E1EBF0" d="M153.062,137.551C141.286,154.16,121.909,165,100,165c-21.908,0-41.285-10.84-53.061-27.448V64.28h106.123
		V137.551z"/>
	<path fill="#B4D2D7" d="M46.939,64.28h9.021v83.525c-3.351-3.089-6.377-6.526-9.021-10.254V64.28z"/>
	<path fill="#A1ADE5" d="M145.103,75.214v71.591c-2.801,2.699-5.844,5.15-9.093,7.316H63.991c-3.249-2.166-6.292-4.617-9.093-7.316
		V75.214c0-1.465,1.188-2.653,2.654-2.653h84.897C143.915,72.561,145.103,73.749,145.103,75.214z"/>
	<path fill="#4F66CF" d="M57.552,72.561h40.856v81.561H63.991c-3.249-2.166-6.292-4.617-9.093-7.316V75.214
		C54.898,73.749,56.086,72.561,57.552,72.561z"/>
	<path fill="#172A7D" d="M71.878,120.499h-7.022c-1.466,0-2.653-1.188-2.653-2.652V91.623c0-1.466,1.187-2.653,2.653-2.653h7.022
		c1.466,0,2.653,1.188,2.653,2.653v26.223C74.531,119.311,73.344,120.499,71.878,120.499L71.878,120.499z"/>
	<path fill="#1F3595" d="M88.452,120.499H71.878c-1.465,0-2.653-1.188-2.653-2.652V91.623c0-1.466,1.188-2.653,2.653-2.653h16.574
		c1.464,0,2.653,1.188,2.653,2.653v26.223C91.105,119.311,89.917,120.499,88.452,120.499L88.452,120.499z"/>
	<path fill="#A1ADE5" d="M84.273,87.844v5.63c0,1.099-0.89,1.989-1.99,1.989c-1.099,0-1.989-0.891-1.989-1.989v-5.63
		c0-2.007-1.634-3.641-3.641-3.641c-2.008,0-3.641,1.633-3.641,3.641v5.63c0,1.099-0.892,1.989-1.99,1.989s-1.989-0.891-1.989-1.989
		v-5.63c0-4.202,3.418-7.621,7.62-7.621S84.273,83.642,84.273,87.844L84.273,87.844z"/>
	<path fill="#6C7FD7" d="M106.368,93.994c0-1.466,1.188-2.653,2.653-2.653h7.959c1.465,0,2.652,1.188,2.652,2.653
		c0,1.465-1.188,2.653-2.652,2.653h-7.959C107.556,96.647,106.368,95.459,106.368,93.994z M116.98,112.565h-7.959
		c-1.466,0-2.653,1.188-2.653,2.653s1.188,2.652,2.653,2.652h7.959c1.465,0,2.652-1.187,2.652-2.652S118.445,112.565,116.98,112.565
		z M130.246,101.954h-21.225c-1.466,0-2.653,1.188-2.653,2.652s1.188,2.652,2.653,2.652h21.225c1.464,0,2.652-1.188,2.652-2.652
		S131.71,101.954,130.246,101.954z"/>
</g>
</svg>
