<?xml version="1.0" encoding="utf-8"?>
<!-- Generator: Adobe Illustrator 16.0.0, SVG Export Plug-In . SVG Version: 6.00 Build 0)  -->
<!DOCTYPE svg PUBLIC "-//W3C//DTD SVG 1.1//EN" "http://www.w3.org/Graphics/SVG/1.1/DTD/svg11.dtd">
<svg version="1.1" id="Layer_1" xmlns="http://www.w3.org/2000/svg" xmlns:xlink="http://www.w3.org/1999/xlink" x="0px" y="0px"
	 width="200px" height="200px" viewBox="0 0 200 200" enable-background="new 0 0 200 200" xml:space="preserve">
<g>
	<path fill="#FFFFFF" d="M100,195c-52.383,0-95-42.617-95-95C5,47.617,47.617,5,100,5s95,42.617,95,95
		C195,152.382,152.383,195,100,195z"/>
	<path fill="#F3F3F3" d="M100,10c49.626,0,90,40.374,90,90c0,49.625-40.374,90-90,90s-90-40.375-90-90C10,50.374,50.374,10,100,10
		 M100,0C44.771,0,0,44.771,0,100c0,55.228,44.771,100,100,100c55.229,0,100-44.771,100-100C200,44.771,155.229,0,100,0L100,0z"/>
</g>
<g>
	<circle fill="#445EA0" cx="98.631" cy="100" r="61"/>
	<path fill="#FFFFFF" d="M100.498,134.333v-8.191h-3.735v8.191c-2.588,0.8-4.473,3.214-4.473,6.062c0,3.496,2.845,6.341,6.341,6.341
		c3.497,0,6.341-2.845,6.341-6.341C104.972,137.548,103.085,135.134,100.498,134.333z M98.631,143c-1.438,0-2.606-1.168-2.606-2.605
		s1.169-2.607,2.606-2.607c1.437,0,2.605,1.17,2.605,2.607S100.067,143,98.631,143z"/>
	<path fill="#D9EAFC" d="M50.103,85.532"/>
	<path fill="#D9EAFC" d="M48.834,111.805v13.342c0,0.686,0.56,1.245,1.245,1.245h66.497c-0.18-0.504-0.284-1.045-0.284-1.61
		c0-2.644,2.151-4.796,4.796-4.796h0.256c0.139,0,0.25-0.11,0.25-0.249v-11.361c0-5.884,4.786-10.67,10.67-10.67
		c3.256,0,6.293,1.462,8.329,4.01c0.05,0.061,0.121,0.094,0.196,0.094c0.029,0,0.061-0.006,0.089-0.016
		c0.951-0.367,1.947-0.553,2.966-0.553c1.693,0,3.27,0.514,4.582,1.393V53.44H48.834v9.702V111.805z"/>
	<path fill="#D9EAFC" d="M48.834,86.695v5.478"/>
	<g>
		<path fill="#C3DDF4" d="M53.775,126.392V53.44h-4.941c0,0,0,70.658,0,71.672c0,0.673,0.344,1.279,1.326,1.279
			C50.994,126.392,53.775,126.392,53.775,126.392z"/>
	</g>
	<path fill="#FE3745" d="M151.912,52.445c0,0.685-0.56,1.245-1.244,1.245H46.594c-0.685,0-1.245-0.56-1.245-1.245v-8.217
		c0-0.685,0.56-1.245,1.245-1.245h104.074c0.685,0,1.244,0.56,1.244,1.245V52.445z"/>
	<path fill="#B7092B" d="M50.289,52.445v-8.217c0-0.685,0.56-1.245,1.245-1.245h-4.94c-0.685,0-1.245,0.56-1.245,1.245v8.217
		c0,0.685,0.56,1.245,1.245,1.245h4.94C50.849,53.689,50.289,53.129,50.289,52.445z"/>
	<g>
		<circle fill="#91E0E8" cx="70.792" cy="69.179" r="8.838"/>
		<path fill="#91E0E8" d="M69.482,75.427c-3.45-3.451-3.451-9.047,0-12.499c1.091-1.091,2.396-1.835,3.779-2.237
			c-2.995-0.868-6.359-0.124-8.719,2.237c-3.452,3.451-3.452,9.048,0,12.499c2.36,2.361,5.724,3.105,8.719,2.237
			C71.878,77.263,70.573,76.518,69.482,75.427z"/>
	</g>
	<path fill="#293D7C" d="M86.655,82.401l-7.091-7.091c2.919-4.173,2.521-9.978-1.203-13.702c-2.021-2.022-4.71-3.136-7.57-3.136
		c-2.859,0-5.547,1.114-7.569,3.136c-4.174,4.174-4.174,10.965,0,15.139c2.022,2.022,4.709,3.137,7.569,3.137
		c2.228,0,4.348-0.679,6.133-1.933l7.091,7.091c0.364,0.365,0.843,0.547,1.32,0.547c0.478,0,0.956-0.183,1.32-0.547
		C87.385,84.312,87.385,83.13,86.655,82.401z M65.862,74.106c-2.717-2.717-2.717-7.14,0-9.857c1.317-1.316,3.067-2.042,4.929-2.042
		c1.862,0,3.613,0.725,4.929,2.042c2.719,2.718,2.719,7.14,0.001,9.857c-1.317,1.317-3.067,2.042-4.93,2.042
		C68.93,76.148,67.18,75.423,65.862,74.106z"/>
	<g>
		<path fill="#5DC1D8" d="M133.363,61.09c0-0.411,0.337-0.747,0.747-0.747h4.108c0.41,0,0.747,0.336,0.747,0.747v23.837
			c0,0.411-0.337,0.747-0.747,0.747h-4.108c-0.41,0-0.747-0.336-0.747-0.747V61.09z"/>
		<path fill="#5DC1D8" d="M125.895,69.67c0-0.411,0.335-0.747,0.748-0.747h4.107c0.41,0,0.747,0.336,0.747,0.747v15.257
			c0,0.411-0.337,0.747-0.747,0.747h-4.107c-0.413,0-0.748-0.336-0.748-0.747V69.67z"/>
		<path fill="#5DC1D8" d="M118.425,74.165c0-0.411,0.336-0.747,0.747-0.747h4.107c0.412,0,0.747,0.336,0.747,0.747v10.763
			c0,0.411-0.335,0.747-0.747,0.747h-4.107c-0.411,0-0.747-0.336-0.747-0.747V74.165z"/>
		<path fill="#5DC1D8" d="M95.977,79.185c0-0.412,0.337-0.748,0.747-0.748h4.108c0.41,0,0.747,0.336,0.747,0.748v5.743
			c0,0.411-0.337,0.747-0.747,0.747h-4.108c-0.41,0-0.747-0.336-0.747-0.747V79.185z"/>
		<path fill="#5DC1D8" d="M110.955,65.585c0-0.411,0.337-0.747,0.747-0.747h4.108c0.41,0,0.747,0.336,0.747,0.747v19.343
			c0,0.411-0.337,0.747-0.747,0.747h-4.108c-0.41,0-0.747-0.336-0.747-0.747V65.585z"/>
		<path fill="#5DC1D8" d="M103.487,71.713c0-0.411,0.337-0.747,0.747-0.747h4.107c0.411,0,0.747,0.336,0.747,0.747v13.215
			c0,0.411-0.336,0.747-0.747,0.747h-4.107c-0.41,0-0.747-0.336-0.747-0.747V71.713z"/>
	</g>
	<g>
		<path fill="#28A5A5" d="M135.895,85.675h2.324c0.41,0,0.747-0.336,0.747-0.747V61.09c0-0.411-0.337-0.747-0.747-0.747h-2.324
			c0.411,0,0.747,0.336,0.747,0.747v23.837C136.642,85.338,136.305,85.675,135.895,85.675z"/>
		<path fill="#28A5A5" d="M128.426,85.675h2.324c0.41,0,0.747-0.336,0.747-0.747V69.67c0-0.411-0.337-0.747-0.747-0.747h-2.324
			c0.411,0,0.747,0.336,0.747,0.747v15.257C129.173,85.338,128.836,85.675,128.426,85.675z"/>
		<path fill="#28A5A5" d="M120.956,85.675h2.323c0.412,0,0.747-0.336,0.747-0.747V74.165c0-0.411-0.335-0.747-0.747-0.747h-2.323
			c0.412,0,0.746,0.336,0.746,0.747v10.763C121.702,85.338,121.368,85.675,120.956,85.675z"/>
		<path fill="#28A5A5" d="M98.508,85.675h2.323c0.411,0,0.747-0.336,0.747-0.747v-5.743c0-0.412-0.336-0.748-0.747-0.748h-2.323
			c0.411,0,0.747,0.336,0.747,0.748v5.743C99.255,85.338,98.919,85.675,98.508,85.675z"/>
		<path fill="#28A5A5" d="M113.487,85.675h2.323c0.411,0,0.747-0.336,0.747-0.747V65.585c0-0.411-0.336-0.747-0.747-0.747h-2.323
			c0.41,0,0.747,0.336,0.747,0.747v19.343C114.234,85.338,113.897,85.675,113.487,85.675z"/>
		<path fill="#28A5A5" d="M106.019,85.675h2.323c0.41,0,0.747-0.336,0.747-0.747V71.713c0-0.411-0.337-0.747-0.747-0.747h-2.323
			c0.41,0,0.747,0.336,0.747,0.747v13.215C106.766,85.338,106.429,85.675,106.019,85.675z"/>
	</g>
	<circle fill="#EF8318" cx="67.137" cy="97.01" r="8.963"/>
	<path fill="#DB722C" d="M61.787,97.01c0-4.331,3.072-7.945,7.156-8.781c-0.583-0.12-1.188-0.182-1.805-0.182
		c-4.951,0-8.964,4.013-8.964,8.963s4.014,8.963,8.964,8.963c0.619,0,1.222-0.062,1.805-0.181
		C64.859,104.957,61.787,101.342,61.787,97.01z"/>
	<path fill="#FFD00D" d="M65.974,101.895c-0.495,0-0.969-0.196-1.32-0.546l-3.382-3.382c-0.729-0.729-0.729-1.911,0-2.641
		c0.729-0.729,1.912-0.729,2.642,0l2.06,2.061l3.972-3.972c0.729-0.729,1.911-0.729,2.641,0c0.729,0.729,0.729,1.913,0,2.641
		l-5.292,5.293C66.945,101.699,66.47,101.895,65.974,101.895z"/>
	<g>
		<path fill="#FF9F60" d="M94.149,96.273H80.378c-1.031,0-1.868-0.836-1.868-1.866c0-1.032,0.837-1.868,1.868-1.868h13.771
			c1.031,0,1.867,0.836,1.867,1.868C96.016,95.437,95.181,96.273,94.149,96.273z"/>
		<path fill="#FF9F60" d="M89.916,102.249h-9.538c-1.031,0-1.868-0.835-1.868-1.868c0-1.03,0.837-1.866,1.868-1.866h9.538
			c1.032,0,1.868,0.836,1.868,1.866C91.784,101.414,90.948,102.249,89.916,102.249z"/>
	</g>
	<path fill="#EF8318" d="M74.109,118.176c0,0.41-0.336,0.747-0.747,0.747H58.423c-0.411,0-0.747-0.337-0.747-0.747v-4.483
		c0-0.41,0.336-0.747,0.747-0.747h14.938c0.411,0,0.747,0.337,0.747,0.747V118.176z"/>
	<path fill="#DB722C" d="M62.617,118.176v-4.483c0-0.41,0.335-0.747,0.747-0.747h-4.941c-0.411,0-0.747,0.337-0.747,0.747v4.483
		c0,0.41,0.336,0.747,0.747,0.747h4.94C62.953,118.923,62.617,118.586,62.617,118.176z"/>
	<g>
		<path fill="#EF8318" d="M83.57,118.176c0,0.41-0.336,0.747-0.747,0.747h-5.229c-0.411,0-0.747-0.337-0.747-0.747v-4.483
			c0-0.41,0.335-0.747,0.747-0.747h5.229c0.411,0,0.747,0.337,0.747,0.747V118.176z"/>
		<path fill="#EF8318" d="M92.284,118.176c0,0.41-0.335,0.747-0.747,0.747h-5.229c-0.41,0-0.747-0.337-0.747-0.747v-4.483
			c0-0.41,0.337-0.747,0.747-0.747h5.229c0.412,0,0.747,0.337,0.747,0.747V118.176z"/>
	</g>
	<g>
		<path fill="#DB722C" d="M79.337,118.176v-4.483c0-0.41,0.337-0.747,0.747-0.747h-2.489c-0.411,0-0.747,0.337-0.747,0.747v4.483
			c0,0.41,0.335,0.747,0.747,0.747h2.489C79.674,118.923,79.337,118.586,79.337,118.176z"/>
		<path fill="#DB722C" d="M88.052,118.176v-4.483c0-0.41,0.337-0.747,0.747-0.747h-2.49c-0.41,0-0.747,0.337-0.747,0.747v4.483
			c0,0.41,0.337,0.747,0.747,0.747h2.49C88.389,118.923,88.052,118.586,88.052,118.176z"/>
	</g>
	<path fill="#FE3745" d="M114.443,118.176c0,0.41-0.336,0.747-0.747,0.747H98.758c-0.41,0-0.746-0.337-0.746-0.747v-4.483
		c0-0.41,0.336-0.747,0.746-0.747h14.938c0.411,0,0.747,0.337,0.747,0.747V118.176z"/>
	<path fill="#B7092B" d="M102.952,118.176v-4.483c0-0.41,0.337-0.747,0.747-0.747h-4.941c-0.41,0-0.746,0.337-0.746,0.747v4.483
		c0,0.41,0.336,0.747,0.746,0.747h4.941C103.289,118.923,102.952,118.586,102.952,118.176z"/>
	<path fill="#FE3745" d="M121.594,112.946h-3.664c-0.411,0-0.747,0.337-0.747,0.747v4.483c0,0.41,0.336,0.747,0.747,0.747h3.664
		V112.946z"/>
	<g>
		<path fill="#FF9F60" d="M136.708,96.273H99.894c-1.031,0-1.867-0.836-1.867-1.866c0-1.032,0.836-1.868,1.867-1.868h36.814
			c1.03,0,1.866,0.836,1.866,1.868C138.574,95.437,137.738,96.273,136.708,96.273z"/>
		<path fill="#FF9F60" d="M128.194,98.514H99.894c-1.031,0-1.867,0.836-1.867,1.866c0,1.033,0.836,1.868,1.867,1.868h23.644
			C124.697,100.601,126.311,99.294,128.194,98.514z"/>
		<path fill="#FF9F60" d="M122.329,104.488H99.894c-1.031,0-1.867,0.837-1.867,1.869c0,1.03,0.836,1.867,1.867,1.867h21.704
			C121.615,106.908,121.875,105.649,122.329,104.488z"/>
	</g>
	<path fill="#5DC1D8" d="M156.597,142.421h-9.288l0.53,1.918c0.101,0.364-0.064,0.899-0.351,1.146l-5.411,4.62
		c-0.117,0.101-0.27,0.156-0.43,0.156c-0.187,0-0.363-0.075-0.486-0.204l-3.53-3.725c-0.207-0.218-0.483-0.337-0.779-0.337
		c-0.295,0-0.572,0.12-0.778,0.337l-3.531,3.725c-0.122,0.129-0.3,0.204-0.485,0.204c-0.162,0-0.314-0.056-0.432-0.156l-5.409-4.62
		c-0.287-0.247-0.451-0.782-0.351-1.146l0.529-1.918h-9.288c-3.183,0-5.773,2.59-5.773,5.772v6.5c0,0.671,0.545,1.217,1.217,1.217
		h48.604c0.672,0,1.216-0.546,1.216-1.217v-6.5C162.369,145.011,159.779,142.421,156.597,142.421z"/>
	<path fill="#28A5A5" d="M116.274,154.694v-6.5c0-3.183,2.59-5.772,5.772-5.772h-4.939c-3.184,0-5.773,2.59-5.773,5.772v6.5
		c0,0.671,0.544,1.217,1.217,1.217h4.939C116.817,155.911,116.274,155.365,116.274,154.694z"/>
	<path fill="#FFFFFF" d="M136.852,153.735c-0.429,0-0.851-0.174-1.151-0.478c-0.304-0.303-0.479-0.725-0.479-1.151
		c0-0.429,0.175-0.851,0.479-1.152c0.301-0.304,0.721-0.478,1.151-0.478c0.428,0,0.849,0.174,1.151,0.478
		c0.305,0.302,0.479,0.724,0.479,1.152c0,0.427-0.174,0.849-0.479,1.151C137.698,153.561,137.279,153.735,136.852,153.735z"/>
	<g>
		<path fill="#D9EAFC" d="M136.932,153.257c-0.305-0.303-0.479-0.725-0.479-1.151c0-0.429,0.174-0.851,0.479-1.152
			c0.153-0.153,0.337-0.274,0.535-0.356c-0.193-0.078-0.403-0.121-0.615-0.121c-0.431,0-0.851,0.174-1.151,0.478
			c-0.304,0.302-0.479,0.724-0.479,1.152c0,0.427,0.175,0.849,0.479,1.151c0.301,0.304,0.723,0.478,1.151,0.478
			c0.212,0,0.422-0.043,0.615-0.123C137.269,153.531,137.084,153.411,136.932,153.257z"/>
		<path fill="#D9EAFC" d="M146.497,138.551c-2.633,2.146-5.991,3.436-9.646,3.436s-7.013-1.289-9.645-3.436l-1.582,5.722
			c-0.127,0.46,0.066,1.091,0.429,1.402l5.41,4.62c0.363,0.311,0.93,0.281,1.259-0.065l3.531-3.725c0.329-0.348,0.867-0.348,1.196,0
			l3.53,3.725c0.329,0.347,0.896,0.376,1.26,0.065l5.408-4.62c0.364-0.312,0.559-0.942,0.431-1.402L146.497,138.551z"/>
	</g>
	<path fill="#AEC1ED" d="M129.999,145.675c-0.363-0.312-0.557-0.942-0.431-1.402l1.006-3.637c-1.215-0.551-2.347-1.252-3.367-2.085
		l-1.581,5.722c-0.128,0.46,0.065,1.091,0.428,1.402l5.41,4.62c0.363,0.311,0.93,0.281,1.259-0.065l1.167-1.231L129.999,145.675z"/>
	<path fill="#EF8318" d="M143.844,100.993c-1.158,0-2.263,0.232-3.269,0.651c0.984,1.211,1.708,2.642,2.089,4.207
		c5.684,1.087,9.694,4.134,9.694,10.642v-6.985C152.358,104.805,148.546,100.993,143.844,100.993z"/>
	<path fill="#FF9518" d="M136.852,105.355c2.144,0,4.185,0.162,6.043,0.537c-1.125-4.834-5.455-8.436-10.63-8.436
		c-6.031,0-10.92,4.888-10.92,10.919v8.117C121.344,107.929,128.287,105.355,136.852,105.355z"/>
	<path fill="#EF8318" d="M124.424,108.793v-0.418c0-5.509,4.081-10.063,9.385-10.81c-0.505-0.072-1.021-0.109-1.545-0.109
		c-6.031,0-10.92,4.888-10.92,10.919v8.117C121.344,113.014,122.49,110.525,124.424,108.793z"/>
	<path fill="#FFC987" d="M121.563,119.737h-0.475c-2.785,0-5.045,2.259-5.045,5.045s2.26,5.045,5.045,5.045h0.797
		c-0.211-1.011-0.322-2.056-0.322-3.128V119.737z"/>
	<path fill="#FFDD8D" d="M117.89,124.782c0-2.31,1.554-4.256,3.673-4.854v-0.19h-0.475c-2.785,0-5.045,2.259-5.045,5.045
		s2.26,5.045,5.045,5.045h0.797c-0.008-0.038-0.013-0.078-0.021-0.115C119.593,129.219,117.89,127.2,117.89,124.782z"/>
	<path fill="#FFC987" d="M152.615,119.737h-0.474v6.962c0,1.072-0.113,2.117-0.324,3.128h0.798c2.786,0,5.044-2.259,5.044-5.045
		S155.401,119.737,152.615,119.737z"/>
	<path fill="#FFE2B8" d="M152.358,126.699c0,8.563-6.943,15.506-15.507,15.506l0,0c-8.564,0-15.508-6.942-15.508-15.506v-10.454
		c0-8.565,6.943-11.137,15.508-11.137l0,0c8.563,0,15.507,2.572,15.507,11.137V126.699z"/>
	<path fill="#FFDD8D" d="M124.424,126.699v-10.454c0-8.044,6.125-10.804,13.967-11.107c-0.506-0.021-1.021-0.029-1.539-0.029
		c-8.565,0-15.508,2.572-15.508,11.137v10.454c0,8.563,6.942,15.506,15.508,15.506c0.519,0,1.033-0.025,1.539-0.075
		C130.55,141.356,124.424,134.744,124.424,126.699z"/>
	<g>
		<path fill="#BF7E52" d="M129.465,123.604c-0.9,0-1.63-0.729-1.63-1.63v-2.825c0-0.9,0.729-1.629,1.63-1.629
			s1.629,0.729,1.629,1.629v2.825C131.094,122.875,130.365,123.604,129.465,123.604z"/>
		<path fill="#BF7E52" d="M144.239,123.604c-0.9,0-1.63-0.729-1.63-1.63v-2.825c0-0.9,0.729-1.629,1.63-1.629
			c0.899,0,1.629,0.729,1.629,1.629v2.825C145.868,122.875,145.139,123.604,144.239,123.604z"/>
		<path fill="#BF7E52" d="M138.264,127.117h-1.955c-1.379,0-2.499-1.122-2.499-2.499v-4.636c0-0.9,0.729-1.629,1.629-1.629
			c0.901,0,1.631,0.729,1.631,1.629v3.875h1.194c0.899,0,1.631,0.73,1.631,1.629C139.894,126.386,139.163,127.117,138.264,127.117z"
			/>
	</g>
	<path fill="#FFFFFF" d="M141.308,129.935h-8.913c-0.753,0-1.364,0.611-1.364,1.364c0,3.211,2.612,5.822,5.821,5.822
		c3.21,0,5.821-2.611,5.821-5.822C142.673,130.546,142.063,129.935,141.308,129.935z"/>
</g>
</svg>
