<?xml version="1.0" encoding="utf-8"?>
<!-- Generator: Adobe Illustrator 16.0.0, SVG Export Plug-In . SVG Version: 6.00 Build 0)  -->
<!DOCTYPE svg PUBLIC "-//W3C//DTD SVG 1.1//EN" "http://www.w3.org/Graphics/SVG/1.1/DTD/svg11.dtd">
<svg version="1.1" id="Layer_1" xmlns="http://www.w3.org/2000/svg" xmlns:xlink="http://www.w3.org/1999/xlink" x="0px" y="0px"
	 width="200px" height="200px" viewBox="0 0 200 200" enable-background="new 0 0 200 200" xml:space="preserve">
<g>
	<path fill="#FFFFFF" d="M100,195c-52.383,0-95-42.617-95-95C5,47.617,47.617,5,100,5s95,42.617,95,95
		C195,152.382,152.383,195,100,195z"/>
	<path fill="#F3F3F3" d="M100,10c49.626,0,90,40.374,90,90c0,49.625-40.374,90-90,90s-90-40.375-90-90C10,50.374,50.374,10,100,10
		 M100,0C44.771,0,0,44.771,0,100c0,55.228,44.771,100,100,100c55.229,0,100-44.771,100-100C200,44.771,155.229,0,100,0L100,0z"/>
</g>
<g>
	<circle fill="#FF9518" cx="100" cy="100" r="62"/>
	<path fill="#293D7C" d="M97.598,52.328H50.563c-1.388,0-2.523,1.135-2.523,2.522v12.612h49.558V52.328z"/>
	<path fill="#1A2B63" d="M55.583,52.328h-5.021c-1.388,0-2.523,1.135-2.523,2.522v12.612h5.021V54.85
		C53.061,53.462,54.197,52.328,55.583,52.328z"/>
	<path fill="#E26693" d="M56.58,62.405c-0.561,0-1.107-0.227-1.503-0.621c-0.394-0.396-0.621-0.943-0.621-1.504
		c0-0.559,0.227-1.105,0.621-1.501c0.396-0.397,0.943-0.624,1.503-0.624c0.559,0,1.108,0.227,1.502,0.624
		c0.396,0.396,0.623,0.942,0.623,1.501c0,0.561-0.227,1.107-0.623,1.504C57.688,62.179,57.138,62.405,56.58,62.405z"/>
	<path fill="#FFAF10" d="M63.548,62.405c-0.558,0-1.107-0.227-1.501-0.624c-0.396-0.394-0.624-0.94-0.624-1.501
		c0-0.558,0.227-1.105,0.624-1.501c0.397-0.397,0.944-0.624,1.501-0.624c0.561,0,1.107,0.227,1.504,0.624
		c0.394,0.396,0.621,0.943,0.621,1.501c0,0.558-0.227,1.107-0.621,1.501C64.655,62.179,64.109,62.405,63.548,62.405z"/>
	<path fill="#37C47A" d="M70.519,62.405c-0.561,0-1.107-0.227-1.501-0.621c-0.396-0.396-0.623-0.943-0.623-1.504
		c0-0.559,0.227-1.105,0.623-1.501c0.394-0.397,0.94-0.624,1.501-0.624c0.559,0,1.107,0.227,1.501,0.624
		c0.396,0.396,0.624,0.942,0.624,1.501c0,0.561-0.227,1.107-0.624,1.504C71.624,62.179,71.077,62.405,70.519,62.405z"/>
	<path fill="#AEC1ED" d="M98.863,78.151c-0.696,0-1.266-0.569-1.266-1.265v-9.424H48.04v66.37
		c3.398,5.209,7.557,9.875,12.321,13.841h79.279c4.764-3.966,8.922-8.632,12.321-13.841v-55.68H98.863z"/>
	<path fill="#85A0DD" d="M53.061,132.19V67.462H48.04v66.37c0.036,0.055,0.073,0.108,0.109,0.164L53.061,132.19z"/>
	<path fill="#D9EAFC" d="M98.863,78.151c-0.696,0-1.266-0.569-1.266-1.265v-3.119H55.611c-0.696,0-1.265,0.569-1.265,1.266v56.685
		l10.92-4.011c0.111-0.04,0.211-0.063,0.293-0.063c0.082,0,0.136,0.02,0.163,0.058c0.042,0.06,0.055,0.202-0.029,0.432l-4.86,13.232
		h83.557c0.695,0,1.265-0.569,1.265-1.266v-61.95H98.863L98.863,78.151z"/>
	<path fill="#FFD00D" d="M97.344,77.139c0,0.696,0.57,1.266,1.266,1.266h64.909c0.696,0,1.265-0.57,1.265-1.266V42.808
		c0-0.696-0.568-1.266-1.265-1.266H98.609c-0.695,0-1.266,0.569-1.266,1.266V77.139z"/>
	<path fill="#FFAF10" d="M102.366,77.139V42.808c0-0.696,0.569-1.266,1.265-1.266h-5.021c-0.695,0-1.266,0.569-1.266,1.266v34.331
		c0,0.696,0.57,1.266,1.266,1.266h5.021C102.936,78.404,102.366,77.834,102.366,77.139z"/>
	<path fill="#B7092B" d="M164.783,42.808c0-0.696-0.568-1.266-1.265-1.266h-11.938v12.443c0,0.419,0.341,0.759,0.761,0.759h12.441
		V42.808z"/>
	<g>
		<path fill="#445EA0" d="M137.848,87.217H93.934c-1.048,0-1.897-0.85-1.897-1.897c0-1.048,0.85-1.898,1.897-1.898h43.914
			c1.048,0,1.897,0.85,1.897,1.898C139.745,86.368,138.896,87.217,137.848,87.217z"/>
		<path fill="#445EA0" d="M137.848,93.67H93.934c-1.048,0-1.897-0.85-1.897-1.898c0-1.048,0.85-1.898,1.897-1.898h43.914
			c1.048,0,1.897,0.85,1.897,1.898C139.745,92.82,138.896,93.67,137.848,93.67z"/>
		<path fill="#445EA0" d="M123.496,100.123H93.934c-1.048,0-1.897-0.85-1.897-1.898c0-1.048,0.85-1.898,1.897-1.898h29.563
			c1.048,0,1.897,0.85,1.897,1.898C125.394,99.273,124.544,100.123,123.496,100.123z"/>
		<path fill="#445EA0" d="M96.07,132.893H63.946l-1.395,3.795H96.07c1.048,0,1.898-0.85,1.898-1.898
			C97.968,133.743,97.118,132.893,96.07,132.893z"/>
		<path fill="#445EA0" d="M96.07,126.819H62.287c-1.049,0-1.898,0.85-1.898,1.899c0,0.257,0.053,0.503,0.146,0.728l4.732-1.738
			c0.111-0.04,0.211-0.063,0.293-0.063c0.082,0,0.136,0.02,0.163,0.058c0.042,0.06,0.055,0.202-0.029,0.432l-0.911,2.48H96.07
			c1.048,0,1.898-0.85,1.898-1.896C97.968,127.668,97.118,126.819,96.07,126.819z"/>
		<path fill="#445EA0" d="M96.07,124.542H62.287c-1.049,0-1.898-0.851-1.898-1.898s0.85-1.898,1.898-1.898H96.07
			c1.048,0,1.898,0.851,1.898,1.898S97.118,124.542,96.07,124.542z"/>
		<path fill="#445EA0" d="M137.713,136.688H103.93c-1.049,0-1.898-0.85-1.898-1.898c0-1.047,0.85-1.896,1.898-1.896h33.783
			c1.05,0,1.898,0.85,1.898,1.896C139.611,135.838,138.763,136.688,137.713,136.688z"/>
		<path fill="#445EA0" d="M137.713,130.615H103.93c-1.049,0-1.898-0.85-1.898-1.896c0-1.05,0.85-1.899,1.898-1.899h33.783
			c1.05,0,1.898,0.85,1.898,1.899C139.611,129.765,138.763,130.615,137.713,130.615z"/>
		<path fill="#445EA0" d="M137.713,124.542H103.93c-1.049,0-1.898-0.851-1.898-1.898s0.85-1.898,1.898-1.898h33.783
			c1.05,0,1.898,0.851,1.898,1.898S138.763,124.542,137.713,124.542z"/>
	</g>
	<path fill="#293D7C" d="M65.931,128.222c0.24-0.654-0.098-0.992-0.752-0.752l-28.456,10.452c-0.653,0.24-0.785,0.84-0.293,1.331
		l5.549,5.548c0.491,0.493,0.491,1.298,0,1.79l-6.394,6.394c-0.492,0.492-0.492,1.297,0,1.789l3.042,3.042
		c0.493,0.492,1.297,0.492,1.79,0l6.394-6.394c0.492-0.491,1.297-0.491,1.789,0l5.549,5.548c0.492,0.492,1.091,0.36,1.331-0.293
		L65.931,128.222z"/>
	<path fill="#1A2B63" d="M39.208,142.032l25.026-9.193l1.696-4.616c0.24-0.654-0.098-0.992-0.752-0.752l-28.456,10.452
		c-0.653,0.24-0.785,0.84-0.293,1.331L39.208,142.032z"/>
	<g>
		<path fill="#445EA0" d="M87.094,101.519c0,0.695-0.569,1.265-1.266,1.265H60.522c-0.696,0-1.266-0.569-1.266-1.265V82.285
			c0-0.696,0.569-1.265,1.266-1.265h25.306c0.696,0,1.266,0.569,1.266,1.265V101.519z"/>
		<path fill="#445EA0" d="M140.298,116.069c0,0.694-0.567,1.265-1.265,1.265H60.966c-0.696,0-1.265-0.57-1.265-1.265v-8.985
			c0-0.696,0.569-1.264,1.265-1.264h78.067c0.697,0,1.265,0.567,1.265,1.264V116.069z"/>
	</g>
	<g>
		<path fill="#293D7C" d="M64.279,101.519V82.285c0-0.696,0.569-1.265,1.265-1.265h-5.021c-0.696,0-1.266,0.569-1.266,1.265v19.234
			c0,0.695,0.569,1.265,1.266,1.265h5.021C64.848,102.784,64.279,102.214,64.279,101.519z"/>
		<path fill="#293D7C" d="M64.722,116.069v-8.985c0-0.696,0.569-1.264,1.265-1.264h-5.021c-0.696,0-1.265,0.567-1.265,1.264v8.985
			c0,0.694,0.569,1.265,1.265,1.265h5.021C65.292,117.333,64.722,116.763,64.722,116.069z"/>
	</g>
	<g>
		<path fill="#1A2B63" d="M127.218,71.404h-5.567c-1.047,0-1.897-0.85-1.897-1.898V52.045c0-1.048,0.851-1.898,1.897-1.898h5.567
			c3.141,0,5.693,2.554,5.693,5.694v9.869C132.911,68.85,130.358,71.404,127.218,71.404z M123.549,67.608h3.669
			c1.047,0,1.897-0.852,1.897-1.898v-9.869c0-1.047-0.851-1.898-1.897-1.898h-3.669V67.608z"/>
		<path fill="#1A2B63" d="M142.908,71.404h-6.833c-1.048,0-1.897-0.85-1.897-1.898s0.85-1.897,1.897-1.897h6.833
			c0.343,0,0.633-0.29,0.633-0.633v-3.669c0-0.343-0.29-0.632-0.633-0.632h-4.303c-2.44,0-4.428-1.987-4.428-4.429v-3.669
			c0-2.442,1.987-4.429,4.428-4.429h6.834c1.048,0,1.897,0.85,1.897,1.898c0,1.048-0.85,1.897-1.897,1.897h-6.834
			c-0.343,0-0.631,0.29-0.631,0.633v3.669c0,0.343,0.288,0.633,0.631,0.633h4.303c2.441,0,4.429,1.987,4.429,4.429v3.669
			C147.337,69.417,145.35,71.404,142.908,71.404z"/>
		<path fill="#1A2B63" d="M112.793,50.146h-1.771c-3.14,0-5.694,2.554-5.694,5.694v13.665c0,1.048,0.85,1.898,1.898,1.898
			c1.048,0,1.897-0.85,1.897-1.898v-6.791h5.567v6.791c0,1.048,0.85,1.898,1.898,1.898c1.048,0,1.897-0.85,1.897-1.898V55.841
			C118.487,52.7,115.934,50.146,112.793,50.146z M109.124,58.92v-3.079c0-1.047,0.852-1.898,1.898-1.898h1.771
			c1.047,0,1.898,0.851,1.898,1.898v3.079H109.124z"/>
	</g>
	<path fill="#E26693" d="M160.867,48.144l1.716-1.716c0.742-0.741,0.742-1.943,0-2.685c-0.74-0.741-1.942-0.741-2.683,0
		l-1.719,1.718l-1.717-1.718c-0.74-0.741-1.942-0.741-2.683,0c-0.742,0.742-0.742,1.943,0,2.685l1.716,1.716l-1.716,1.716
		c-0.742,0.742-0.742,1.943,0,2.685c0.37,0.37,0.855,0.555,1.342,0.555c0.485,0,0.972-0.185,1.341-0.555l1.717-1.717l1.719,1.717
		c0.37,0.37,0.855,0.555,1.342,0.555c0.484,0,0.971-0.185,1.341-0.555c0.742-0.741,0.742-1.943,0-2.685L160.867,48.144z"/>
</g>
</svg>
