<?xml version="1.0" encoding="utf-8"?>
<!-- Generator: Adobe Illustrator 16.0.0, SVG Export Plug-In . SVG Version: 6.00 Build 0)  -->
<!DOCTYPE svg PUBLIC "-//W3C//DTD SVG 1.1//EN" "http://www.w3.org/Graphics/SVG/1.1/DTD/svg11.dtd">
<svg version="1.1" id="Layer_1" xmlns="http://www.w3.org/2000/svg" xmlns:xlink="http://www.w3.org/1999/xlink" x="0px" y="0px"
	 width="200px" height="200px" viewBox="0 0 200 200" enable-background="new 0 0 200 200" xml:space="preserve">
<g>
	<path fill="#FFFFFF" d="M100,195c-52.383,0-95-42.617-95-95C5,47.617,47.617,5,100,5s95,42.617,95,95
		C195,152.382,152.383,195,100,195z"/>
	<path fill="#F3F3F3" d="M100,10c49.626,0,90,40.374,90,90c0,49.625-40.374,90-90,90s-90-40.375-90-90C10,50.374,50.374,10,100,10
		 M100,0C44.771,0,0,44.771,0,100c0,55.228,44.771,100,100,100c55.229,0,100-44.771,100-100C200,44.771,155.229,0,100,0L100,0z"/>
</g>
<g>
	<circle fill="#F24976" cx="100" cy="100" r="65"/>
	<path fill="#EEF6FF" d="M137.95,70.662v0.706c0,0.586-0.477,1.062-1.062,1.062H111c-0.816,0-1.849,0.505-2.351,1.149l-8.045,10.347
		c-0.165,0.212-0.379,0.329-0.604,0.329s-0.439-0.117-0.605-0.329l-8.044-10.347c-0.501-0.645-1.534-1.149-2.351-1.149H63.112
		c-0.585,0-1.062-0.476-1.062-1.062v-0.706H42.682v60.011c2.895,5.398,6.53,10.339,10.77,14.688h93.098
		c4.239-4.35,7.875-9.29,10.77-14.688V70.662H137.95z"/>
	<path fill="#D9EAFC" d="M42.682,70.662v60.011c1.549,2.89,3.312,5.646,5.264,8.252V70.662H42.682z"/>
	<path fill="#69CDFF" d="M145.36,78.865h-40.821l-3.935,5.06c-0.165,0.212-0.379,0.329-0.604,0.329s-0.439-0.117-0.605-0.329
		l-3.935-5.06H52.893c-0.729,0-1.326,0.597-1.326,1.327v27.149c0,0.73,0.597,1.326,1.326,1.326h92.467
		c0.73,0,1.327-0.596,1.327-1.326V80.192C146.688,79.462,146.09,78.865,145.36,78.865z"/>
	<path fill="#1E99D6" d="M56.831,107.341V80.192c0-0.73,0.597-1.327,1.327-1.327h-5.265c-0.729,0-1.326,0.597-1.326,1.327v27.149
		c0,0.73,0.597,1.326,1.326,1.326h5.264C57.428,108.667,56.831,108.072,56.831,107.341z"/>
	<g>
		<path fill="#EEF6FF" d="M131.137,96.833h6.609c0.857,0,1.558-0.63,1.558-1.401c0-0.77-0.701-1.401-1.558-1.401h-8.972
			L131.137,96.833z"/>
		<path fill="#EEF6FF" d="M110.657,96.833h2.843c0.856,0,1.556,0.631,1.556,1.402c0,0.77-0.7,1.4-1.556,1.4h-6.885l2.362,2.803
			h7.091l7.086-8.407h-12.497c-0.856,0-1.557,0.631-1.557,1.401C109.101,96.203,109.801,96.833,110.657,96.833z"/>
	</g>
	<g>
		<path fill="#293D7C" d="M62.05,56.39h-16.6c-1.522,0-2.769,1.246-2.769,2.769v11.769H62.05V56.39L62.05,56.39z"/>
		<path fill="#293D7C" d="M154.549,56.39H137.95v14.537h19.368V59.159C157.318,57.636,156.073,56.39,154.549,56.39z"/>
	</g>
	<path fill="#1A2B63" d="M50.714,56.39H45.45c-1.522,0-2.769,1.246-2.769,2.769v11.769h5.265V59.159
		C47.945,57.636,49.191,56.39,50.714,56.39z"/>
	<path fill="#FFAF10" d="M138.215,46.054c0-0.729-0.597-1.327-1.326-1.327H63.112c-0.73,0-1.327,0.633-1.327,1.327v28.144
		c0-2.101,0.597-1.503,1.327-1.503H89c0.73,0,1.693,0.471,2.14,1.047l8.046,10.347c0.448,0.576,1.181,0.576,1.628,0l8.044-10.347
		c0.448-0.576,1.412-1.047,2.141-1.047h25.89c0.729,0,1.326-0.597,1.326-1.327V46.054L138.215,46.054z"/>
	<path fill="#FF9518" d="M67.049,71.368V46.054c0-0.729,0.598-1.327,1.327-1.327h-5.264c-0.73,0-1.327,0.597-1.327,1.327v25.313
		c0,0.73,0.597,1.327,1.327,1.327h5.264C67.646,72.695,67.049,72.098,67.049,71.368z"/>
	<path fill="#E26693" d="M51.56,66.014c-0.594,0-1.173-0.24-1.594-0.658c-0.417-0.421-0.657-1-0.657-1.594
		c0-0.592,0.24-1.171,0.657-1.592c0.421-0.42,1-0.661,1.594-0.661c0.592,0,1.174,0.24,1.592,0.661c0.421,0.42,0.661,1,0.661,1.592
		c0,0.594-0.24,1.173-0.661,1.594C52.734,65.773,52.151,66.014,51.56,66.014z"/>
	<path fill="#FFD00D" d="M58.061,66.014c-0.592,0-1.173-0.24-1.592-0.661c-0.42-0.418-0.66-0.997-0.66-1.591
		c0-0.592,0.24-1.171,0.66-1.592c0.421-0.42,1-0.66,1.592-0.66c0.596,0,1.174,0.24,1.594,0.66c0.417,0.421,0.658,1,0.658,1.592
		c0,0.591-0.241,1.173-0.658,1.591C59.235,65.773,58.656,66.014,58.061,66.014z"/>
	<path fill="#02AF8E" d="M113.303,105.307c-0.429,0.508-1.131,0.508-1.561,0l-6.294-7.468c-0.43-0.509-1.132-0.509-1.562,0
		l-9.128,10.828h46.701l-14.715-17.456c-0.43-0.509-1.131-0.509-1.56,0L113.303,105.307z"/>
	<path fill="#0F9390" d="M105.448,97.838c-0.43-0.509-1.132-0.509-1.562,0l-9.128,10.829h5.265l7.276-8.631L105.448,97.838z"/>
	<path fill="#FFAF10" d="M132.666,85.229c0,2.006,1.626,3.633,3.633,3.633c2.006,0,3.632-1.627,3.632-3.633
		c0-2.005-1.626-3.631-3.632-3.631C134.292,81.598,132.666,83.225,132.666,85.229z"/>
	<path fill="#FF9518" d="M135.446,85.229c0-1.513,0.927-2.809,2.242-3.354c-0.429-0.178-0.897-0.277-1.39-0.277
		c-2.007,0-3.633,1.626-3.633,3.631c0,2.006,1.626,3.633,3.633,3.633c0.492,0,0.961-0.1,1.39-0.277
		C136.373,88.04,135.446,86.743,135.446,85.229z"/>
	<g>
		<path fill="#91E0E8" d="M87.032,117.915H53.225c-1.099,0-1.99-0.892-1.99-1.99s0.892-1.99,1.99-1.99h33.807
			c1.099,0,1.989,0.892,1.989,1.99S88.131,117.915,87.032,117.915z"/>
		<path fill="#91E0E8" d="M87.032,125.462H53.225c-1.099,0-1.99-0.891-1.99-1.989c0-1.1,0.892-1.99,1.99-1.99h33.807
			c1.099,0,1.989,0.891,1.989,1.99C89.021,124.572,88.131,125.462,87.032,125.462z"/>
		<path fill="#91E0E8" d="M108.066,117.915H94.003c-1.099,0-1.989-0.892-1.989-1.99s0.891-1.99,1.989-1.99h14.063
			c1.1,0,1.99,0.892,1.99,1.99S109.166,117.915,108.066,117.915z"/>
		<path fill="#91E0E8" d="M108.066,125.462H94.003c-1.099,0-1.989-0.891-1.989-1.989c0-1.1,0.891-1.99,1.989-1.99h14.063
			c1.1,0,1.99,0.891,1.99,1.99C110.057,124.572,109.166,125.462,108.066,125.462z"/>
	</g>
	<path fill="#EEF6FF" d="M94.216,85.681H69.69c-0.927,0-1.686,0.683-1.686,1.517c0,0.835,0.759,1.517,1.686,1.517h3.455
		c0.927,0,1.686,0.683,1.686,1.517s-0.759,1.517-1.686,1.517h-13.4c-0.927,0-1.685,0.683-1.685,1.517s0.758,1.518,1.685,1.518h29.33
		c0.928,0,1.686-0.683,1.686-1.518s-0.758-1.517-1.686-1.517h-3.077c-0.927,0-1.686-0.683-1.686-1.517s0.759-1.517,1.686-1.517
		h8.219c0.927,0,1.686-0.682,1.686-1.517C95.902,86.364,95.143,85.681,94.216,85.681z"/>
	<path fill="#91E0E8" d="M146.688,135.994c0,0.729-0.598,1.326-1.327,1.326H52.893c-0.729,0-1.326-0.597-1.326-1.326v-4.07
		c0-0.729,0.597-1.326,1.326-1.326h92.467c0.73,0,1.327,0.598,1.327,1.326L146.688,135.994L146.688,135.994z"/>
	<g>
		<circle fill="#FFFFFF" cx="120.915" cy="119.368" r="5.97"/>
		<circle fill="#FFFFFF" cx="138.47" cy="119.368" r="5.97"/>
	</g>
	<g>
		<path fill="#D9EAFC" d="M118.263,119.366c0-2.721,1.821-5.014,4.31-5.733c-0.526-0.152-1.083-0.235-1.659-0.235
			c-3.297,0-5.969,2.673-5.969,5.969c0,3.297,2.672,5.97,5.969,5.97c0.576,0,1.132-0.083,1.659-0.235
			C120.084,124.381,118.263,122.086,118.263,119.366z"/>
		<path fill="#D9EAFC" d="M135.818,119.366c0-2.721,1.821-5.014,4.311-5.733c-0.527-0.152-1.083-0.235-1.66-0.235
			c-3.296,0-5.969,2.673-5.969,5.969c0,3.297,2.673,5.97,5.969,5.97c0.577,0,1.133-0.083,1.66-0.235
			C137.64,124.381,135.818,122.086,135.818,119.366z"/>
	</g>
	<g>
		<path fill="#FFFFFF" d="M86.916,149.541c0.225-0.455,0.592-0.455,0.816,0l0.783,1.588c0.225,0.453,0.818,0.886,1.32,0.958
			l1.752,0.255c0.502,0.073,0.615,0.422,0.252,0.776l-1.268,1.235c-0.363,0.354-0.59,1.053-0.504,1.551l0.3,1.746
			c0.085,0.499-0.211,0.715-0.66,0.479l-1.567-0.824c-0.449-0.235-1.183-0.235-1.632,0l-1.567,0.824
			c-0.448,0.236-0.746,0.02-0.66-0.479l0.299-1.746c0.085-0.498-0.141-1.196-0.504-1.551l-1.268-1.235
			c-0.363-0.354-0.25-0.703,0.252-0.776l1.752-0.255c0.501-0.072,1.095-0.505,1.319-0.958L86.916,149.541z"/>
		<path fill="#FFFFFF" d="M99.592,149.541c0.224-0.455,0.591-0.455,0.815,0l0.784,1.588c0.225,0.453,0.818,0.886,1.319,0.958
			l1.753,0.255c0.502,0.073,0.614,0.422,0.252,0.776l-1.269,1.235c-0.362,0.354-0.59,1.053-0.505,1.551l0.301,1.746
			c0.085,0.499-0.212,0.715-0.66,0.479l-1.568-0.824c-0.448-0.235-1.181-0.235-1.63,0l-1.567,0.824
			c-0.448,0.236-0.746,0.02-0.66-0.479l0.3-1.746c0.085-0.498-0.143-1.196-0.505-1.551l-1.268-1.235
			c-0.363-0.354-0.25-0.703,0.252-0.776l1.752-0.255c0.502-0.072,1.095-0.505,1.32-0.958L99.592,149.541z"/>
		<path fill="#FFFFFF" d="M112.269,149.541c0.226-0.455,0.591-0.455,0.815,0l0.784,1.588c0.224,0.453,0.817,0.886,1.318,0.958
			l1.753,0.255c0.502,0.073,0.614,0.422,0.253,0.776l-1.269,1.235c-0.363,0.354-0.59,1.053-0.505,1.551l0.3,1.746
			c0.086,0.499-0.211,0.715-0.659,0.479l-1.568-0.824c-0.447-0.235-1.182-0.235-1.631,0l-1.566,0.824
			c-0.448,0.236-0.746,0.02-0.66-0.479l0.3-1.746c0.086-0.498-0.142-1.196-0.504-1.551l-1.269-1.235
			c-0.363-0.354-0.249-0.703,0.252-0.776l1.753-0.255c0.501-0.072,1.095-0.505,1.319-0.958L112.269,149.541z"/>
	</g>
	<text transform="matrix(1 0 0 1 81.4243 65.0488)" font-family="'GothamRounded-Bold'" font-size="16.9797">ADS</text>
</g>
</svg>
