<svg xmlns="http://www.w3.org/2000/svg" width="21.841" height="21.887" viewBox="0 0 21.841 21.887">
    <g id="phone_17_" data-name="phone (17)" transform="translate(-.539)">
        <g id="Group_176" data-name="Group 176" transform="translate(.539)">
            <path id="Path_1859" fill="#00afde" d="M21.807 16.063l-3.054-3.054a2.032 2.032 0 0 0-3.382.764 2.079 2.079 0 0 1-2.4 1.309A9.419 9.419 0 0 1 7.3 9.408a1.977 1.977 0 0 1 1.309-2.4 2.031 2.031 0 0 0 .764-3.382L6.317.573a2.179 2.179 0 0 0-2.945 0L1.3 2.645c-2.073 2.182.218 7.963 5.345 13.09s10.908 7.527 13.09 5.345l2.073-2.073a2.179 2.179 0 0 0-.001-2.944z" data-name="Path 1859" transform="translate(-.539)"/>
        </g>
    </g>
</svg>
