<svg xmlns="http://www.w3.org/2000/svg" id="user_13_" width="18.618" height="18.618" data-name="user (13)" viewBox="0 0 18.618 18.618">
    <defs>
        <style>
            .cls-1{fill:#00afde}
        </style>
    </defs>
    <g id="Group_179" data-name="Group 179" transform="translate(0 11.969)">
        <g id="Group_178" data-name="Group 178">
            <path id="Path_1861" d="M15.009 308.177l-2.831-.944a.666.666 0 0 0-.21-.035H6.649a.665.665 0 0 0-.21.035l-2.831.944A5.27 5.27 0 0 0 0 313.183a.665.665 0 0 0 .665.665h17.288a.665.665 0 0 0 .665-.665 5.27 5.27 0 0 0-3.609-5.006z" class="cls-1" data-name="Path 1861" transform="translate(0 -307.199)"/>
        </g>
    </g>
    <g id="Group_181" data-name="Group 181" transform="translate(5.319)">
        <g id="Group_180" data-name="Group 180">
            <path id="Path_1862" d="M140.523 0a3.99 3.99 0 0 0-3.99 3.99v2.66a3.99 3.99 0 1 0 7.979 0V3.99A3.99 3.99 0 0 0 140.523 0z" class="cls-1" data-name="Path 1862" transform="translate(-136.533)"/>
        </g>
    </g>
</svg>
