<svg width="21" height="20" viewBox="0 0 21 20" fill="none" xmlns="http://www.w3.org/2000/svg">
<path d="M10.3663 0.133301C4.88623 0.133301 0.445312 4.5754 0.445312 10.0543C0.445312 15.5338 4.88679 19.9753 10.3663 19.9753C15.8452 19.9753 20.2867 15.5338 20.2867 10.0543C20.2867 4.57602 15.8452 0.133301 10.3663 0.133301ZM10.3663 18.1151C5.91428 18.1151 2.30553 14.5063 2.30553 10.0543C2.30553 5.60227 5.91491 1.99352 10.3663 1.99352C14.8177 1.99352 18.4265 5.60227 18.4265 10.0543C18.4265 14.5063 14.8178 18.1151 10.3663 18.1151ZM14.2653 5.83416C13.8436 5.58243 13.3048 5.73184 13.0624 6.16898L9.73571 12.1445L7.88299 9.88934C7.54754 9.50305 7.10173 9.3028 6.68069 9.55452C6.25903 9.80687 6.08478 10.4139 6.35766 10.8034L8.93587 13.9415C9.1287 14.192 9.34879 14.3421 9.57888 14.3849L9.58075 14.3886L9.60433 14.3898C9.65643 14.3979 10.4352 14.5418 10.7707 13.9415L14.5891 7.08306C14.8314 6.64517 14.6869 6.0865 14.2653 5.83416Z" fill="#0084FF"/>
</svg>
