<svg width="436" height="45" viewBox="0 0 436 45" fill="none" xmlns="http://www.w3.org/2000/svg">
<rect x="213.781" width="173.457" height="44.8045" rx="22.4022" fill="#F3F4F5"/>
<g clip-path="url(#clip0)">
<path d="M434.849 23.0406C435.539 22.251 435.884 21.3172 435.884 20.2391C435.884 19.2615 435.526 18.4155 434.813 17.7007C434.098 16.9859 433.252 16.6287 432.275 16.6287H427.067C427.117 16.4533 427.167 16.3029 427.217 16.1775C427.267 16.0522 427.336 15.9142 427.424 15.7638C427.511 15.6133 427.574 15.5004 427.612 15.4254C427.837 14.9994 428.01 14.6482 428.129 14.3727C428.248 14.0966 428.366 13.7207 428.486 13.2444C428.605 12.7683 428.664 12.2918 428.664 11.8155C428.664 11.5148 428.661 11.2702 428.655 11.0823C428.649 10.8943 428.617 10.6122 428.561 10.2361C428.504 9.86017 428.429 9.54677 428.335 9.2962C428.241 9.04556 428.091 8.76331 427.884 8.45017C427.677 8.13645 427.427 7.88297 427.132 7.68857C426.837 7.4943 426.461 7.33138 426.004 7.19987C425.546 7.06823 425.029 7.00244 424.452 7.00244C424.126 7.00244 423.844 7.12157 423.606 7.35976C423.355 7.61041 423.142 7.92374 422.967 8.29963C422.791 8.67572 422.669 9.00164 422.6 9.2775C422.531 9.55323 422.452 9.93564 422.365 10.4243C422.252 10.951 422.168 11.33 422.111 11.5618C422.055 11.7937 421.945 12.0976 421.782 12.4736C421.619 12.8498 421.425 13.1504 421.199 13.3762C420.785 13.7897 420.152 14.5419 419.3 15.6323C418.685 16.4344 418.053 17.1927 417.401 17.9072C416.749 18.6218 416.273 18.9915 415.972 19.0166C415.659 19.0417 415.389 19.1701 415.164 19.4021C414.938 19.634 414.825 19.9067 414.825 20.22V32.2719C414.825 32.5978 414.944 32.8766 415.182 33.1085C415.42 33.3406 415.702 33.4628 416.028 33.4753C416.467 33.4879 417.457 33.7634 418.999 34.3029C419.964 34.6282 420.719 34.8762 421.264 35.0452C421.81 35.2141 422.572 35.396 423.548 35.5906C424.526 35.7848 425.429 35.8822 426.256 35.8822H426.575H428.004H428.681C430.349 35.8571 431.583 35.3681 432.385 34.4157C433.112 33.5507 433.419 32.4163 433.307 31.0125C433.795 30.5487 434.134 29.9598 434.322 29.2452C434.535 28.481 434.535 27.7477 434.322 27.0459C434.898 26.2812 435.168 25.4226 435.13 24.47C435.132 24.0685 435.038 23.5923 434.849 23.0406Z" fill="#0084FF"/>
<path d="M412.419 19.0356H407.004C406.678 19.0356 406.396 19.1548 406.158 19.393C405.92 19.631 405.801 19.9131 405.801 20.239V32.2726C405.801 32.5981 405.92 32.8803 406.158 33.1186C406.396 33.3564 406.678 33.4756 407.004 33.4756H412.419C412.745 33.4756 413.027 33.3564 413.265 33.1186C413.503 32.8803 413.622 32.5981 413.622 32.2726V20.239C413.622 19.9131 413.503 19.6311 413.265 19.393C413.027 19.1547 412.745 19.0356 412.419 19.0356ZM410.257 30.721C410.018 30.9529 409.736 31.0688 409.41 31.0688C409.072 31.0688 408.787 30.9529 408.555 30.721C408.323 30.4892 408.207 30.2041 408.207 29.8656C408.207 29.5397 408.323 29.2576 408.555 29.0196C408.787 28.7814 409.072 28.6621 409.41 28.6621C409.736 28.6621 410.018 28.7814 410.257 29.0196C410.495 29.2576 410.614 29.5397 410.614 29.8656C410.614 30.2041 410.495 30.4891 410.257 30.721Z" fill="#0084FF"/>
</g>
<g clip-path="url(#clip1)">
<path d="M362.276 6.40088C353.475 6.40088 346.275 13.6016 346.275 22.4025C346.275 31.2034 353.475 38.4041 362.276 38.4041C371.077 38.4041 378.278 31.2034 378.278 22.4025C378.278 13.6016 371.077 6.40088 362.276 6.40088ZM367.877 16.0018C369.157 16.0018 370.277 17.1219 370.277 18.4021C370.277 19.6822 369.157 20.8023 367.877 20.8023C366.597 20.8023 365.476 19.6822 365.476 18.4021C365.476 17.1219 366.597 16.0018 367.877 16.0018ZM356.676 16.0018C357.956 16.0018 359.076 17.1219 359.076 18.4021C359.076 19.6822 357.956 20.8023 356.676 20.8023C355.395 20.8023 354.275 19.6822 354.275 18.4021C354.275 17.1219 355.395 16.0018 356.676 16.0018ZM362.276 32.0034C358.116 32.0034 354.595 29.2832 353.315 25.6028H371.237C369.957 29.2832 366.437 32.0034 362.276 32.0034Z" fill="#0084FF"/>
</g>
<path d="M238.345 25.5559H232.816L231.574 29H229.78L234.819 15.8037H236.342L241.39 29H239.605L238.345 25.5559ZM233.342 24.1239H237.828L235.58 17.9517L233.342 24.1239ZM249.701 29C249.604 28.8066 249.525 28.4622 249.465 27.9668C248.685 28.7764 247.755 29.1813 246.673 29.1813C245.707 29.1813 244.912 28.9094 244.29 28.3656C243.673 27.8157 243.365 27.1209 243.365 26.281C243.365 25.2598 243.752 24.4683 244.525 23.9064C245.305 23.3384 246.398 23.0544 247.806 23.0544H249.438V22.284C249.438 21.6979 249.262 21.2327 248.912 20.8883C248.562 20.5378 248.045 20.3626 247.362 20.3626C246.764 20.3626 246.262 20.5136 245.858 20.8157C245.453 21.1179 245.25 21.4834 245.25 21.9124H243.565C243.565 21.423 243.737 20.9517 244.081 20.4985C244.432 20.0393 244.903 19.6768 245.495 19.4109C246.093 19.1451 246.749 19.0121 247.462 19.0121C248.592 19.0121 249.477 19.2961 250.117 19.8641C250.758 20.426 251.09 21.2025 251.114 22.1934V26.707C251.114 27.6073 251.229 28.3233 251.459 28.855V29H249.701ZM246.918 27.7221C247.444 27.7221 247.942 27.5861 248.414 27.3142C248.885 27.0423 249.226 26.6888 249.438 26.2538V24.2417H248.123C246.069 24.2417 245.042 24.8429 245.042 26.0453C245.042 26.571 245.217 26.9819 245.568 27.278C245.918 27.574 246.368 27.7221 246.918 27.7221Z" fill="#9A9A9A"/>
<g clip-path="url(#clip2)">
<path d="M180.818 28.5073C182.409 28.5073 183.771 27.9409 184.904 26.8084C186.036 25.676 186.603 24.3136 186.603 22.7226V13.4665C186.603 11.8755 186.037 10.5137 184.904 9.3807C183.771 8.24794 182.409 7.68115 180.818 7.68115C179.227 7.68115 177.865 8.24794 176.732 9.3807C175.599 10.5135 175.033 11.8755 175.033 13.4665V22.7226C175.033 24.3136 175.599 25.676 176.732 26.8084C177.865 27.9409 179.227 28.5073 180.818 28.5073Z" fill="#0084FF"/>
<path d="M190.887 19.595C190.659 19.366 190.387 19.2515 190.074 19.2515C189.761 19.2515 189.49 19.366 189.26 19.595C189.032 19.824 188.917 20.0952 188.917 20.4084V22.7226C188.917 24.9524 188.125 26.8596 186.54 28.4445C184.955 30.0294 183.048 30.8219 180.818 30.8219C178.588 30.8219 176.681 30.0294 175.096 28.4445C173.511 26.86 172.719 24.9525 172.719 22.7226V20.4084C172.719 20.0952 172.604 19.824 172.375 19.595C172.146 19.366 171.875 19.2515 171.562 19.2515C171.248 19.2515 170.977 19.366 170.748 19.595C170.519 19.824 170.405 20.0952 170.405 20.4084V22.7226C170.405 25.3862 171.294 27.7034 173.071 29.6738C174.849 31.6442 177.045 32.774 179.661 33.0631V35.4498H175.033C174.719 35.4498 174.448 35.5644 174.219 35.7935C173.99 36.0223 173.876 36.2936 173.876 36.6069C173.876 36.9198 173.99 37.1916 174.219 37.4204C174.448 37.6493 174.719 37.7641 175.033 37.7641H186.603C186.916 37.7641 187.188 37.6493 187.416 37.4204C187.646 37.1917 187.76 36.9199 187.76 36.6069C187.76 36.2936 187.646 36.0224 187.416 35.7935C187.188 35.5644 186.916 35.4498 186.603 35.4498H181.975V33.0631C184.59 32.774 186.787 31.6442 188.565 29.6738C190.342 27.7034 191.232 25.3862 191.232 22.7226V20.4084C191.232 20.0952 191.117 19.8243 190.887 19.595Z" fill="#0084FF"/>
</g>
<rect x="112.011" y="9.60093" width="25.6026" height="26.2426" rx="2.56026" stroke="#0084FF" stroke-width="2.56026"/>
<path d="M123.025 22.5652C124.389 22.0455 125.89 22.0077 127.278 22.458L135.768 25.2117C136.5 25.4488 137.019 26.099 137.088 26.8644L137.741 34.0435C137.844 35.1774 136.944 36.1514 135.805 36.1374L113.841 35.8662C112.817 35.8536 111.982 35.0387 111.946 34.0147L111.74 28.2563C111.711 27.435 112.208 26.686 112.976 26.3934L123.025 22.5652Z" fill="#0084FF"/>
<circle cx="118.092" cy="15.0414" r="2.88029" fill="#0084FF"/>
<g clip-path="url(#clip3)">
<path d="M83.8538 13.5648C83.0036 12.7148 81.9781 12.2896 80.7766 12.2896H76.9682L76.1012 9.97755C75.8858 9.42225 75.4921 8.94329 74.9194 8.54073C74.3469 8.13835 73.7604 7.93701 73.1596 7.93701H64.4546C63.8538 7.93701 63.2672 8.13835 62.6947 8.54073C62.1223 8.94329 61.7285 9.42225 61.5131 9.97755L60.6461 12.2896H56.8377C55.636 12.2896 54.6105 12.7148 53.7603 13.5648C52.9102 14.4149 52.4852 15.4406 52.4852 16.6421V31.8758C52.4852 33.0774 52.9102 34.1032 53.7603 34.953C54.6105 35.8032 55.6361 36.2284 56.8377 36.2284H80.7762C81.9777 36.2284 83.0031 35.8032 83.8534 34.953C84.7034 34.1032 85.1285 33.0774 85.1285 31.8758V16.6421C85.1287 15.4406 84.7036 14.4149 83.8538 13.5648ZM74.188 29.6402C72.6975 31.1307 70.904 31.8762 68.8069 31.8762C66.7099 31.8762 64.9165 31.1307 63.4259 29.6402C61.9353 28.1499 61.1901 26.356 61.1901 24.2594C61.1901 22.1622 61.9355 20.3688 63.4259 18.8782C64.9163 17.3876 66.71 16.6425 68.8069 16.6425C70.9039 16.6425 72.6975 17.3878 74.188 18.8782C75.6785 20.3686 76.4238 22.1622 76.4238 24.2594C76.4238 26.356 75.6786 28.1497 74.188 29.6402Z" fill="#0084FF"/>
<path d="M68.807 19.3623C67.4581 19.3623 66.3048 19.8412 65.347 20.7991C64.3892 21.7569 63.9103 22.9101 63.9103 24.2592C63.9103 25.6079 64.3892 26.7612 65.347 27.719C66.3048 28.6766 67.458 29.1555 68.807 29.1555C70.1557 29.1555 71.3091 28.6766 72.2669 27.719C73.2247 26.7612 73.7036 25.6079 73.7036 24.2592C73.7036 22.9101 73.2247 21.757 72.2669 20.7991C71.3091 19.8413 70.1557 19.3623 68.807 19.3623Z" fill="#0084FF"/>
</g>
<circle cx="19.2019" cy="15.3617" r="5.12051" fill="#0084FF"/>
<circle cx="5.12051" cy="15.1205" r="5.12051" fill="#0084FF"/>
<circle cx="19.2019" cy="30.0829" r="5.12051" fill="#0084FF"/>
<circle cx="5.12051" cy="30.0829" r="5.12051" fill="#0084FF"/>
<defs>
<clipPath id="clip0">
<rect x="405.801" y="6.40088" width="30.083" height="30.083" fill="white"/>
</clipPath>
<clipPath id="clip1">
<rect x="346.275" y="6.40088" width="32.0032" height="32.0032" fill="white"/>
</clipPath>
<clipPath id="clip2">
<rect x="165.776" y="7.68066" width="30.083" height="30.083" fill="white"/>
</clipPath>
<clipPath id="clip3">
<rect x="52.4852" y="5.76074" width="32.6433" height="32.6433" fill="white"/>
</clipPath>
</defs>
</svg>
