<svg width="96" height="31" viewBox="0 0 96 31" fill="none" xmlns="http://www.w3.org/2000/svg">
<path d="M30.8708 24.4413L26.1261 19.6961C25.181 18.7548 23.616 18.7834 22.638 19.7617L20.2476 22.1516C20.0966 22.0684 19.9403 21.9814 19.7759 21.8892C18.2664 21.0528 16.2004 19.9064 14.0263 17.7308C11.8458 15.5505 10.6984 13.4813 9.85942 11.9708C9.77089 11.8108 9.68607 11.6565 9.60231 11.51L11.2066 9.90809L11.9954 9.11838C12.9748 8.13864 13.0018 6.57405 12.059 5.63006L7.3143 0.884305C6.37145 -0.0583667 4.80571 -0.0297688 3.82623 0.949974L2.48902 2.29487L2.52556 2.33115C2.07717 2.90328 1.70249 3.56315 1.42366 4.27475C1.16663 4.95209 1.0066 5.59846 0.933433 6.24615C0.306927 11.44 2.68038 16.1868 9.12161 22.6282C18.0254 31.5313 25.2006 30.8587 25.5102 30.8259C26.1843 30.7453 26.8304 30.5842 27.487 30.3292C28.1924 30.0536 28.8519 29.6795 29.4237 29.2321L29.4529 29.258L30.8076 27.9315C31.785 26.9519 31.8132 25.3868 30.8708 24.4413Z" fill="#0084FF"/>
<rect x="61.0024" y="4.00146" width="24.3224" height="23.0423" rx="3.20032" fill="#0084FF"/>
<path d="M87.885 12.5357C87.885 12.0189 88.1957 11.5528 88.6728 11.354L93.7933 9.22047C94.6365 8.86913 95.5658 9.48865 95.5658 10.4021V20.6431C95.5658 21.5566 94.6365 22.1761 93.7933 21.8248L88.6728 19.6913C88.1957 19.4925 87.885 19.0264 87.885 18.5096V12.5357Z" fill="#0084FF"/>
</svg>
