<?xml version="1.0" encoding="utf-8"?>
<!-- Generator: Adobe Illustrator 16.0.0, SVG Export Plug-In . SVG Version: 6.00 Build 0)  -->
<!DOCTYPE svg PUBLIC "-//W3C//DTD SVG 1.1//EN" "http://www.w3.org/Graphics/SVG/1.1/DTD/svg11.dtd">
<svg version="1.1" id="Layer_1" xmlns="http://www.w3.org/2000/svg" xmlns:xlink="http://www.w3.org/1999/xlink" x="0px" y="0px"
	 width="707.813px" height="650.281px" viewBox="0 0 707.813 650.281" enable-background="new 0 0 707.813 650.281"
	 xml:space="preserve">
<g>
	<g>
		<path fill="#20B0B5" d="M543.071,539.892l-1.195-1.405c62.006-52.679,97.566-129.51,97.566-210.792
			c0-152.453-124.031-276.482-276.482-276.482c-152.452,0-276.48,124.029-276.48,276.482c0,77.664,32.96,152.209,90.431,204.52
			l-1.24,1.362c-13.976-12.721-26.7-26.911-37.819-42.172c-11.21-15.389-20.856-31.965-28.671-49.265
			c-7.958-17.62-14.077-36.132-18.185-55.02c-4.219-19.397-6.359-39.393-6.359-59.427c0-37.573,7.359-74.022,21.873-108.336
			c6.976-16.492,15.609-32.399,25.661-47.278c9.957-14.738,21.392-28.596,33.987-41.189c12.593-12.596,26.452-24.03,41.189-33.986
			c14.879-10.051,30.786-18.687,47.278-25.661c34.313-14.514,70.764-21.873,108.335-21.873c37.574,0,74.023,7.358,108.336,21.873
			c16.494,6.976,32.398,15.61,47.277,25.661c14.736,9.956,28.596,21.391,41.191,33.986c12.596,12.594,24.027,26.452,33.982,41.189
			c10.055,14.879,18.688,30.786,25.662,47.278c14.514,34.313,21.873,70.763,21.873,108.336c0,20.871-2.32,41.679-6.896,61.847
			c-4.451,19.618-11.07,38.793-19.678,56.992c-8.451,17.87-18.863,34.901-30.945,50.623
			C571.768,512.762,558.077,527.141,543.071,539.892z"/>
		<g>
			<path fill="#20B0B5" d="M479.448,602.382l-0.342-0.857c0.357-0.142,0.711-0.282,1.066-0.425l0.346,0.854
				C480.161,602.095,479.803,602.239,479.448,602.382z"/>
			<path fill="#20B0B5" d="M482.651,601.083l-0.352-0.852c0.711-0.293,1.42-0.587,2.125-0.887l0.357,0.851
				C484.075,600.494,483.364,600.79,482.651,601.083z M486.909,599.29l-0.365-0.846c0.705-0.304,1.41-0.611,2.111-0.92l0.371,0.844
				C488.321,598.678,487.614,598.984,486.909,599.29z M491.135,597.428l-0.379-0.838c0.701-0.317,1.4-0.634,2.096-0.953l0.385,0.839
				C492.54,596.796,491.836,597.115,491.135,597.428z M495.333,595.504l-0.391-0.835c0.693-0.324,1.389-0.652,2.078-0.983
				l0.398,0.83C496.725,594.85,496.03,595.178,495.333,595.504z M499.497,593.514l-0.402-0.828c0.689-0.337,1.379-0.674,2.064-1.018
				l0.41,0.825C500.879,592.837,500.188,593.177,499.497,593.514z M503.631,591.46l-0.418-0.822c0.686-0.348,1.369-0.697,2.051-1.05
				l0.422,0.818C505.002,590.76,504.317,591.11,503.631,591.46z M507.731,589.339l-0.428-0.815c0.678-0.356,1.355-0.717,2.029-1.08
				l0.436,0.813C509.092,588.62,508.413,588.98,507.731,589.339z M511.797,587.157l-0.439-0.809
				c0.672-0.368,1.344-0.738,2.014-1.111l0.449,0.804C513.145,586.417,512.473,586.788,511.797,587.157z M515.829,584.91
				l-0.453-0.801c0.666-0.379,1.332-0.759,1.998-1.143l0.459,0.797C517.165,584.149,516.499,584.531,515.829,584.91z
				 M519.827,582.603l-0.469-0.795c0.662-0.389,1.322-0.78,1.979-1.174l0.473,0.791C521.151,581.82,520.489,582.211,519.827,582.603
				z M523.784,580.233l-0.479-0.787c0.652-0.398,1.309-0.8,1.959-1.204l0.486,0.782
				C525.096,579.429,524.442,579.833,523.784,580.233z M527.706,577.801l-0.492-0.778c0.648-0.409,1.295-0.821,1.941-1.235
				l0.496,0.776C529.004,576.977,528.354,577.39,527.706,577.801z M531.588,575.31l-0.504-0.771c0.641-0.418,1.281-0.84,1.92-1.264
				l0.508,0.769C532.875,574.467,532.231,574.89,531.588,575.31z M535.43,572.758l-0.518-0.763c0.635-0.43,1.27-0.86,1.9-1.296
				l0.521,0.761C536.704,571.896,536.067,572.327,535.43,572.758z M539.229,570.148l-0.525-0.755
				c0.627-0.438,1.256-0.879,1.879-1.322l0.535,0.751C540.491,569.265,539.862,569.708,539.229,570.148z M542.993,567.48
				l-0.539-0.748c0.621-0.447,1.24-0.897,1.857-1.352l0.547,0.741C544.237,566.577,543.616,567.03,542.993,567.48z M546.711,564.753
				l-0.551-0.739c0.613-0.456,1.225-0.915,1.836-1.379l0.557,0.734C547.942,563.832,547.327,564.294,546.711,564.753z
				 M550.385,561.97l-0.561-0.73c0.605-0.468,1.211-0.938,1.814-1.409l0.566,0.728C551.602,561.03,550.995,561.501,550.385,561.97z
				 M554.018,559.129l-0.572-0.721c0.598-0.476,1.197-0.955,1.793-1.437l0.578,0.717
				C555.219,558.171,554.62,558.652,554.018,559.129z M557.604,556.235l-0.584-0.713c0.592-0.486,1.184-0.974,1.771-1.464
				l0.59,0.709C558.79,555.258,558.198,555.748,557.604,556.235z M561.145,553.284l-0.596-0.704c0.586-0.493,1.168-0.988,1.75-1.487
				l0.6,0.697C562.317,552.29,561.729,552.789,561.145,553.284z M564.641,550.279l-0.607-0.693c0.578-0.503,1.152-1.009,1.725-1.519
				l0.611,0.69C565.795,549.266,565.219,549.774,564.641,550.279z M568.088,547.22l-0.617-0.685c0.57-0.511,1.137-1.024,1.699-1.543
				l0.623,0.681C569.227,546.192,568.657,546.708,568.088,547.22z M571.487,544.11l-0.627-0.674c0.561-0.521,1.119-1.045,1.676-1.57
				l0.633,0.67C572.61,543.063,572.049,543.589,571.487,544.11z M574.836,540.95l-0.637-0.665c0.555-0.529,1.104-1.062,1.65-1.597
				l0.645,0.662C575.944,539.885,575.393,540.417,574.836,540.95z M578.139,537.736l-0.646-0.655
				c0.543-0.539,1.088-1.078,1.627-1.62l0.65,0.648C579.227,536.653,578.684,537.196,578.139,537.736z M581.389,534.471
				l-0.656-0.646c0.535-0.545,1.068-1.095,1.602-1.646l0.662,0.641C582.461,533.376,581.926,533.924,581.389,534.471z
				 M584.588,531.159l-0.666-0.637c0.527-0.555,1.051-1.11,1.576-1.67l0.672,0.631C585.645,530.042,585.118,530.6,584.588,531.159z
				 M587.735,527.797l-0.676-0.624c0.52-0.563,1.035-1.127,1.551-1.695l0.682,0.621
				C588.774,526.667,588.258,527.232,587.735,527.797z M590.833,524.385l-0.688-0.614c0.51-0.57,1.018-1.144,1.523-1.716
				l0.689,0.606C591.852,523.241,591.342,523.812,590.833,524.385z M593.874,520.929l-0.695-0.604c0.5-0.58,0.998-1.157,1.496-1.741
				l0.701,0.599C594.877,519.768,594.375,520.348,593.874,520.929z M596.862,517.426l-0.705-0.594
				c0.492-0.586,0.98-1.171,1.469-1.763l0.711,0.588C597.846,516.249,597.354,516.838,596.862,517.426z M599.793,513.878
				l-0.715-0.581c0.482-0.595,0.965-1.189,1.443-1.787l0.719,0.576C600.76,512.685,600.278,513.282,599.793,513.878z
				 M602.672,510.284l-0.723-0.569c0.473-0.601,0.943-1.203,1.412-1.808l0.729,0.564
				C603.62,509.078,603.145,509.681,602.672,510.284z M605.495,506.646l-0.734-0.559c0.465-0.608,0.928-1.218,1.389-1.827
				l0.734,0.553C606.422,505.427,605.958,506.037,605.495,506.646z M608.258,502.967l-0.742-0.547
				c0.455-0.615,0.908-1.231,1.357-1.85l0.746,0.541C609.168,501.733,608.715,502.351,608.258,502.967z M610.965,499.246
				l-0.75-0.535c0.445-0.622,0.887-1.245,1.326-1.871l0.756,0.531C611.854,497.997,611.411,498.622,610.965,499.246z
				 M613.614,495.483l-0.758-0.523c0.436-0.63,0.867-1.26,1.299-1.893l0.76,0.52C614.485,494.219,614.049,494.852,613.614,495.483z
				 M616.204,491.681l-0.768-0.515c0.428-0.636,0.85-1.271,1.27-1.909l0.77,0.506C617.053,490.404,616.629,491.042,616.204,491.681z
				 M618.733,487.838l-0.771-0.501c0.414-0.641,0.826-1.283,1.238-1.929l0.775,0.494
				C619.565,486.551,619.151,487.193,618.733,487.838z M621.204,483.958l-0.781-0.49c0.406-0.646,0.809-1.295,1.209-1.948
				l0.785,0.484C622.014,482.656,621.61,483.305,621.204,483.958z M623.612,480.041l-0.787-0.479
				c0.395-0.652,0.787-1.308,1.178-1.965l0.793,0.469C624.403,478.726,624.008,479.385,623.612,480.041z M625.959,476.086
				l-0.795-0.466c0.385-0.659,0.768-1.32,1.146-1.983l0.801,0.459C626.729,474.76,626.348,475.424,625.959,476.086z
				 M628.245,472.096l-0.801-0.453c0.373-0.665,0.744-1.333,1.115-2.003l0.807,0.446
				C628.995,470.759,628.622,471.427,628.245,472.096z M630.469,468.071l-0.811-0.438c0.363-0.671,0.727-1.346,1.086-2.02
				l0.811,0.434C631.196,466.723,630.834,467.398,630.469,468.071z M632.631,464.013l-0.818-0.427
				c0.355-0.679,0.705-1.354,1.055-2.035l0.818,0.421C633.336,462.654,632.985,463.335,632.631,464.013z M634.725,459.925
				l-0.82-0.415c0.342-0.683,0.682-1.367,1.02-2.052l0.826,0.406C635.413,458.554,635.069,459.239,634.725,459.925z
				 M636.758,455.802l-0.83-0.4c0.334-0.687,0.662-1.378,0.988-2.066l0.834,0.396C637.422,454.42,637.092,455.111,636.758,455.802z
				 M638.727,451.649l-0.836-0.389c0.32-0.689,0.641-1.386,0.957-2.08l0.836,0.381C639.37,450.259,639.049,450.953,638.727,451.649z
				 M640.627,447.466l-0.842-0.374c0.311-0.696,0.619-1.396,0.926-2.096l0.844,0.369
				C641.247,446.066,640.938,446.768,640.627,447.466z M642.465,443.257l-0.848-0.361c0.299-0.702,0.596-1.404,0.891-2.11
				l0.852,0.356C643.063,441.847,642.766,442.552,642.465,443.257z M644.235,439.019l-0.854-0.349
				c0.289-0.705,0.576-1.415,0.857-2.122l0.854,0.34C644.811,437.6,644.524,438.311,644.235,439.019z M645.938,434.753l-0.857-0.335
				c0.277-0.71,0.555-1.422,0.824-2.135l0.859,0.328C646.493,433.328,646.217,434.04,645.938,434.753z M647.577,430.465
				l-0.865-0.322c0.266-0.715,0.529-1.43,0.791-2.147l0.865,0.314C648.106,429.029,647.844,429.748,647.577,430.465z
				 M649.145,426.151l-0.867-0.311c0.254-0.717,0.508-1.438,0.758-2.157l0.869,0.302
				C649.653,424.707,649.403,425.429,649.145,426.151z M650.645,421.813l-0.871-0.294c0.242-0.722,0.484-1.446,0.721-2.171
				l0.877,0.288C651.133,420.363,650.891,421.089,650.645,421.813z M652.079,417.453l-0.877-0.279
				c0.232-0.728,0.463-1.452,0.689-2.182l0.877,0.274C652.543,415.996,652.313,416.725,652.079,417.453z M653.446,413.074
				l-0.881-0.268c0.219-0.729,0.438-1.46,0.652-2.19l0.883,0.26C653.885,411.609,653.665,412.341,653.446,413.074z M654.741,408.673
				l-0.887-0.251c0.213-0.737,0.418-1.476,0.625-2.212l0.887,0.245C655.161,407.195,654.95,407.936,654.741,408.673z
				 M655.973,404.233l-0.891-0.24c0.199-0.736,0.396-1.479,0.59-2.219l0.893,0.232C656.37,402.752,656.174,403.493,655.973,404.233z
				 M657.137,399.774l-0.895-0.225c0.188-0.742,0.373-1.484,0.555-2.229l0.896,0.221
				C657.508,398.286,657.325,399.031,657.137,399.774z M658.229,395.3l-0.896-0.213c0.176-0.742,0.35-1.489,0.518-2.235l0.9,0.204
				C658.579,393.804,658.405,394.552,658.229,395.3z M659.252,390.807l-0.9-0.196c0.164-0.748,0.326-1.497,0.482-2.246l0.904,0.189
				C659.579,389.306,659.417,390.058,659.252,390.807z M660.206,386.299l-0.902-0.185c0.152-0.748,0.299-1.5,0.447-2.253
				l0.904,0.178C660.506,384.794,660.356,385.547,660.206,386.299z M661.086,381.777l-0.906-0.171
				c0.143-0.751,0.277-1.505,0.412-2.258l0.908,0.163C661.366,380.266,661.227,381.022,661.086,381.777z M661.897,377.243
				l-0.906-0.156c0.127-0.755,0.252-1.51,0.377-2.267l0.908,0.149C662.153,375.726,662.026,376.486,661.897,377.243z
				 M662.639,372.695l-0.912-0.142c0.119-0.756,0.23-1.515,0.344-2.272l0.912,0.136C662.87,371.177,662.754,371.936,662.639,372.695
				z M663.307,368.136l-0.912-0.127c0.105-0.759,0.207-1.516,0.309-2.276l0.91,0.121
				C663.514,366.614,663.413,367.376,663.307,368.136z M663.905,363.567l-0.912-0.112c0.092-0.759,0.182-1.52,0.27-2.28l0.916,0.104
				C664.09,362.044,663.999,362.806,663.905,363.567z M664.43,358.99l-0.916-0.098c0.082-0.76,0.162-1.521,0.238-2.284l0.916,0.09
				C664.594,357.464,664.514,358.227,664.43,358.99z M664.889,354.405l-0.918-0.083c0.07-0.763,0.139-1.525,0.201-2.29l0.918,0.078
				C665.024,352.877,664.959,353.641,664.889,354.405z M665.272,349.814l-0.92-0.07c0.061-0.763,0.115-1.524,0.168-2.29l0.918,0.063
				C665.387,348.284,665.331,349.049,665.272,349.814z M665.588,345.219l-0.92-0.057c0.047-0.764,0.09-1.527,0.131-2.293l0.92,0.05
				C665.68,343.684,665.635,344.452,665.588,345.219z M665.831,340.616l-0.92-0.041c0.033-0.764,0.066-1.528,0.096-2.294l0.92,0.035
				C665.897,339.083,665.866,339.851,665.831,340.616z M666.004,336.021l-0.922-0.027c0.023-0.764,0.043-1.525,0.059-2.29
				l0.924,0.021C666.047,334.489,666.028,335.256,666.004,336.021z M666.108,331.425l-0.924-0.015
				c0.012-0.764,0.02-1.528,0.023-2.294l0.922,0.006C666.127,329.889,666.118,330.657,666.108,331.425z M665.215,326.818
				c0-0.766-0.002-1.531-0.008-2.296l0.922-0.007c0.006,0.767,0.01,1.535,0.01,2.303H665.215L665.215,326.818z M665.18,322.226
				c-0.014-0.766-0.027-1.532-0.047-2.296l0.922-0.021c0.02,0.768,0.033,1.534,0.047,2.305L665.18,322.226z M665.071,317.635
				c-0.025-0.767-0.051-1.53-0.08-2.294l0.92-0.036c0.031,0.766,0.059,1.534,0.082,2.302L665.071,317.635z M664.895,313.046
				c-0.037-0.767-0.074-1.531-0.117-2.294l0.922-0.051c0.041,0.768,0.08,1.534,0.115,2.303L664.895,313.046z M664.645,308.458
				c-0.047-0.765-0.096-1.527-0.15-2.29l0.918-0.064c0.055,0.766,0.104,1.531,0.152,2.298L664.645,308.458z M664.325,303.877
				c-0.059-0.765-0.121-1.526-0.186-2.288l0.916-0.079c0.064,0.765,0.127,1.528,0.188,2.296L664.325,303.877z M663.934,299.301
				c-0.07-0.764-0.145-1.524-0.223-2.286l0.918-0.093c0.078,0.765,0.152,1.528,0.223,2.293L663.934,299.301z M663.475,294.73
				c-0.084-0.762-0.168-1.522-0.258-2.282l0.916-0.107c0.088,0.763,0.174,1.525,0.258,2.29L663.475,294.73z M662.944,290.168
				c-0.096-0.76-0.193-1.52-0.293-2.277l0.91-0.121c0.104,0.761,0.199,1.522,0.295,2.285L662.944,290.168z M662.342,285.615
				c-0.107-0.758-0.217-1.516-0.33-2.272l0.912-0.136c0.113,0.759,0.223,1.521,0.33,2.28L662.342,285.615z M661.668,281.072
				c-0.119-0.757-0.238-1.514-0.365-2.269l0.91-0.148c0.127,0.758,0.248,1.516,0.365,2.275L661.668,281.072z M660.924,276.54
				c-0.129-0.755-0.262-1.509-0.396-2.262l0.906-0.163c0.135,0.755,0.27,1.511,0.4,2.27L660.924,276.54z M660.11,272.019
				c-0.143-0.753-0.287-1.504-0.436-2.254l0.906-0.179c0.146,0.752,0.293,1.508,0.436,2.264L660.11,272.019z M659.225,267.512
				c-0.152-0.75-0.311-1.5-0.469-2.248l0.9-0.191c0.16,0.75,0.314,1.502,0.471,2.255L659.225,267.512z M658.268,263.02
				c-0.164-0.748-0.332-1.495-0.502-2.241l0.896-0.205c0.17,0.748,0.34,1.497,0.508,2.248L658.268,263.02z M657.247,258.542
				c-0.18-0.745-0.359-1.488-0.541-2.23l0.893-0.222c0.186,0.746,0.365,1.492,0.541,2.24L657.247,258.542z M656.149,254.082
				c-0.188-0.742-0.381-1.482-0.574-2.223l0.891-0.234c0.195,0.743,0.387,1.487,0.576,2.232L656.149,254.082z M654.983,249.639
				c-0.199-0.739-0.4-1.478-0.609-2.215l0.889-0.247c0.207,0.739,0.41,1.479,0.609,2.221L654.983,249.639z M653.749,245.216
				c-0.211-0.735-0.426-1.471-0.645-2.204l0.887-0.262c0.217,0.736,0.432,1.474,0.645,2.211L653.749,245.216z M652.446,240.811
				c-0.227-0.736-0.451-1.472-0.684-2.203l0.879-0.276c0.232,0.736,0.459,1.475,0.686,2.211L652.446,240.811z M651.067,236.409
				c-0.234-0.731-0.475-1.463-0.717-2.193l0.875-0.288c0.242,0.731,0.48,1.466,0.717,2.199L651.067,236.409z M649.62,232.03
				c-0.248-0.729-0.498-1.456-0.75-2.182l0.869-0.304c0.254,0.729,0.506,1.457,0.752,2.188L649.62,232.03z M648.102,227.674
				c-0.258-0.724-0.52-1.446-0.783-2.168l0.865-0.316c0.266,0.724,0.527,1.45,0.785,2.176L648.102,227.674z M646.518,223.344
				c-0.27-0.72-0.543-1.438-0.814-2.154l0.855-0.33c0.277,0.719,0.553,1.438,0.822,2.162L646.518,223.344z M644.868,219.04
				c-0.281-0.715-0.564-1.428-0.852-2.141l0.854-0.344c0.289,0.715,0.572,1.431,0.854,2.147L644.868,219.04z M643.149,214.763
				c-0.295-0.71-0.588-1.419-0.887-2.127l0.852-0.357c0.299,0.71,0.594,1.421,0.887,2.134L643.149,214.763z M641.362,210.516
				c-0.303-0.706-0.609-1.41-0.916-2.113l0.844-0.371c0.309,0.705,0.615,1.411,0.92,2.12L641.362,210.516z M639.512,206.296
				c-0.313-0.7-0.631-1.398-0.951-2.098l0.838-0.384c0.318,0.701,0.639,1.401,0.951,2.105L639.512,206.296z M637.594,202.108
				c-0.326-0.696-0.65-1.39-0.984-2.083l0.834-0.397c0.33,0.695,0.658,1.392,0.984,2.09L637.594,202.108z M635.612,197.95
				c-0.334-0.689-0.676-1.378-1.018-2.065l0.828-0.41c0.34,0.689,0.68,1.381,1.018,2.073L635.612,197.95z M633.565,193.827
				c-0.346-0.685-0.693-1.369-1.047-2.051l0.818-0.422c0.354,0.684,0.703,1.369,1.051,2.056L633.565,193.827z M631.456,189.734
				c-0.357-0.679-0.717-1.357-1.08-2.033l0.811-0.435c0.365,0.677,0.727,1.356,1.084,2.039L631.456,189.734z M629.28,185.677
				c-0.367-0.674-0.736-1.347-1.109-2.017l0.805-0.448c0.373,0.674,0.744,1.348,1.115,2.022L629.28,185.677z M627.045,181.653
				c-0.379-0.667-0.76-1.333-1.143-1.997l0.797-0.461c0.387,0.667,0.768,1.334,1.146,2.005L627.045,181.653z M624.747,177.667
				c-0.389-0.661-0.779-1.319-1.174-1.979l0.791-0.474c0.393,0.661,0.785,1.323,1.176,1.986L624.747,177.667z M622.385,173.719
				c-0.398-0.656-0.799-1.311-1.201-1.963l0.781-0.483c0.404,0.654,0.809,1.31,1.205,1.967L622.385,173.719z M118.182,172.199
				l-0.785-0.484c0.403-0.652,0.809-1.306,1.217-1.955l0.781,0.489C118.987,170.896,118.583,171.547,118.182,172.199z
				 M619.963,169.806c-0.408-0.649-0.818-1.297-1.23-1.942l0.773-0.497c0.416,0.647,0.828,1.297,1.238,1.947L619.963,169.806z
				 M120.622,168.309l-0.777-0.496c0.413-0.647,0.828-1.293,1.247-1.938l0.773,0.502
				C121.448,167.019,121.034,167.664,120.622,168.309z M617.483,165.932c-0.42-0.642-0.842-1.283-1.264-1.921l0.768-0.509
				c0.426,0.642,0.848,1.283,1.268,1.928L617.483,165.932z M123.122,164.458l-0.769-0.508c0.422-0.64,0.847-1.279,1.275-1.916
				l0.765,0.514C123.967,163.182,123.542,163.819,123.122,164.458z M614.942,162.1c-0.43-0.637-0.859-1.271-1.291-1.902l0.76-0.521
				c0.434,0.635,0.865,1.271,1.295,1.907L614.942,162.1z M125.68,160.647l-0.761-0.521c0.432-0.634,0.868-1.266,1.305-1.895
				l0.757,0.524C126.545,159.385,126.111,160.015,125.68,160.647z M612.342,158.306c-0.438-0.628-0.879-1.257-1.322-1.882
				l0.754-0.532c0.443,0.627,0.887,1.256,1.324,1.887L612.342,158.306z M128.297,156.877l-0.753-0.53
				c0.442-0.626,0.888-1.252,1.334-1.875l0.749,0.536C129.181,155.63,128.736,156.253,128.297,156.877z M609.684,154.555
				c-0.445-0.623-0.896-1.242-1.35-1.86l0.742-0.544c0.453,0.621,0.904,1.243,1.354,1.865L609.684,154.555z M130.971,153.149
				l-0.744-0.542c0.452-0.621,0.906-1.239,1.364-1.855l0.74,0.548C131.875,151.916,131.422,152.532,130.971,153.149z
				 M606.967,150.844c-0.457-0.614-0.916-1.228-1.377-1.839l0.734-0.555c0.465,0.612,0.924,1.229,1.383,1.845L606.967,150.844z
				 M133.703,149.462l-0.736-0.554c0.462-0.613,0.925-1.224,1.392-1.833l0.731,0.561
				C134.625,148.242,134.164,148.851,133.703,149.462z M604.196,147.178c-0.467-0.608-0.936-1.214-1.408-1.817l0.727-0.567
				c0.475,0.606,0.943,1.215,1.41,1.824L604.196,147.178z M136.492,145.817l-0.728-0.564c0.471-0.606,0.945-1.21,1.42-1.811
				l0.723,0.57C137.435,144.611,136.962,145.214,136.492,145.817z M601.366,143.556c-0.475-0.601-0.951-1.199-1.434-1.795
				l0.717-0.578c0.482,0.598,0.965,1.197,1.439,1.8L601.366,143.556z M139.338,142.216l-0.718-0.576
				c0.48-0.599,0.963-1.195,1.449-1.79l0.713,0.583C140.298,141.025,139.817,141.62,139.338,142.216z M598.483,139.978
				c-0.484-0.593-0.973-1.185-1.463-1.771l0.709-0.589c0.49,0.591,0.98,1.184,1.467,1.777L598.483,139.978z M142.238,138.659
				l-0.709-0.588c0.49-0.59,0.982-1.179,1.476-1.767l0.705,0.594C143.218,137.483,142.727,138.07,142.238,138.659z M595.545,136.445
				c-0.494-0.585-0.99-1.168-1.49-1.749l0.699-0.599c0.5,0.582,0.998,1.167,1.494,1.754L595.545,136.445z M145.195,135.147
				l-0.701-0.599c0.5-0.584,1-1.164,1.503-1.744l0.695,0.604C146.191,133.986,145.692,134.566,145.195,135.147z M592.551,132.958
				c-0.502-0.576-1.006-1.15-1.516-1.725l0.689-0.61c0.51,0.575,1.016,1.152,1.521,1.73L592.551,132.958z M148.205,131.681
				l-0.691-0.61c0.507-0.576,1.018-1.148,1.53-1.721l0.686,0.613C149.22,130.535,148.711,131.107,148.205,131.681z M589.506,129.52
				c-0.512-0.569-1.023-1.136-1.543-1.702l0.68-0.621c0.52,0.567,1.035,1.136,1.551,1.707L589.506,129.52z M151.269,128.261
				l-0.682-0.62c0.518-0.568,1.036-1.134,1.557-1.697l0.677,0.625C152.3,127.131,151.784,127.695,151.269,128.261z M586.409,126.128
				c-0.521-0.561-1.043-1.12-1.568-1.677l0.672-0.632c0.525,0.559,1.049,1.121,1.57,1.683L586.409,126.128z M154.385,124.89
				l-0.672-0.631c0.526-0.561,1.053-1.117,1.583-1.673l0.667,0.637C155.435,123.775,154.909,124.331,154.385,124.89z
				 M583.26,122.786c-0.531-0.553-1.063-1.104-1.594-1.653l0.66-0.641c0.533,0.551,1.066,1.104,1.598,1.658L583.26,122.786z
				 M157.553,121.564l-0.661-0.641c0.534-0.552,1.069-1.1,1.608-1.647l0.656,0.646C158.62,120.467,158.086,121.016,157.553,121.564z
				 M580.061,119.493c-0.541-0.544-1.078-1.087-1.621-1.627l0.65-0.652c0.543,0.542,1.086,1.086,1.623,1.633L580.061,119.493z
				 M160.772,118.29l-0.651-0.649c0.542-0.543,1.087-1.084,1.634-1.624l0.646,0.655C161.856,117.209,161.313,117.749,160.772,118.29
				z M576.807,116.25c-0.545-0.536-1.094-1.069-1.645-1.602l0.641-0.661c0.555,0.534,1.104,1.068,1.65,1.607L576.807,116.25z
				 M164.042,115.064l-0.642-0.66c0.551-0.535,1.104-1.067,1.659-1.599l0.636,0.666
				C165.144,114.001,164.592,114.532,164.042,115.064z M573.508,113.059c-0.553-0.527-1.109-1.054-1.668-1.576l0.629-0.672
				c0.563,0.525,1.117,1.052,1.674,1.581L573.508,113.059z M167.362,111.891l-0.632-0.671c0.559-0.526,1.121-1.052,1.684-1.572
				l0.626,0.674C168.479,110.844,167.92,111.367,167.362,111.891z M570.159,109.918c-0.561-0.519-1.125-1.035-1.691-1.55
				l0.619-0.682c0.568,0.517,1.135,1.036,1.699,1.555L570.159,109.918z M170.731,108.768l-0.621-0.681
				c0.566-0.518,1.136-1.032,1.707-1.547l0.616,0.687C171.864,107.738,171.297,108.252,170.731,108.768z M566.764,106.831
				c-0.568-0.509-1.143-1.017-1.717-1.522l0.609-0.69c0.576,0.507,1.148,1.018,1.721,1.528L566.764,106.831z M174.147,105.697
				l-0.61-0.69c0.575-0.509,1.153-1.016,1.732-1.521l0.604,0.695C175.296,104.685,174.721,105.19,174.147,105.697z M563.319,103.797
				c-0.576-0.501-1.154-1-1.736-1.497l0.598-0.7c0.584,0.499,1.164,0.999,1.744,1.502L563.319,103.797z M177.612,102.68l-0.6-0.699
				c0.583-0.5,1.169-0.998,1.755-1.494l0.594,0.704C178.776,101.685,178.193,102.181,177.612,102.68z M559.833,100.816
				c-0.584-0.492-1.174-0.981-1.762-1.469l0.586-0.709c0.592,0.487,1.182,0.979,1.768,1.474L559.833,100.816z M181.122,99.716
				l-0.588-0.708c0.59-0.491,1.184-0.98,1.777-1.467l0.583,0.713C182.302,98.739,181.711,99.226,181.122,99.716z M556.299,97.891
				c-0.594-0.483-1.188-0.963-1.785-1.442l0.576-0.718c0.6,0.479,1.195,0.962,1.789,1.447L556.299,97.891z M184.679,96.806
				l-0.578-0.719c0.599-0.48,1.198-0.962,1.801-1.438l0.572,0.722C185.874,95.848,185.274,96.326,184.679,96.806z M552.719,95.021
				c-0.6-0.475-1.201-0.944-1.807-1.413l0.566-0.728c0.605,0.471,1.207,0.942,1.811,1.417L552.719,95.021z M188.28,93.952
				l-0.566-0.727c0.605-0.474,1.213-0.943,1.822-1.411l0.561,0.729C189.489,93.011,188.885,93.48,188.28,93.952z M549.098,92.207
				c-0.605-0.464-1.217-0.926-1.826-1.385l0.555-0.737c0.613,0.462,1.223,0.927,1.832,1.392L549.098,92.207z M191.925,91.153
				l-0.555-0.735c0.612-0.463,1.227-0.924,1.845-1.382l0.549,0.74C193.149,90.232,192.537,90.691,191.925,91.153z M545.434,89.45
				c-0.615-0.456-1.229-0.908-1.848-1.358l0.543-0.744c0.619,0.452,1.236,0.905,1.854,1.361L545.434,89.45z M195.615,88.411
				l-0.544-0.743c0.619-0.454,1.242-0.903,1.865-1.354l0.538,0.748C196.852,87.51,196.232,87.959,195.615,88.411z M541.727,86.75
				c-0.619-0.445-1.242-0.888-1.865-1.329l0.527-0.752c0.629,0.442,1.252,0.887,1.875,1.333L541.727,86.75z M199.345,85.726
				l-0.533-0.751c0.628-0.444,1.256-0.886,1.887-1.324l0.526,0.756C200.597,84.844,199.97,85.285,199.345,85.726z M537.981,84.107
				c-0.629-0.437-1.256-0.868-1.889-1.298l0.52-0.762c0.633,0.433,1.264,0.866,1.895,1.304L537.981,84.107z M203.117,83.1
				l-0.52-0.761c0.634-0.434,1.27-0.865,1.908-1.295l0.514,0.765C204.384,82.237,203.749,82.667,203.117,83.1z M534.196,81.524
				c-0.639-0.426-1.271-0.851-1.908-1.271l0.508-0.769c0.637,0.422,1.273,0.847,1.912,1.272L534.196,81.524z M206.93,80.532
				l-0.509-0.768c0.641-0.424,1.284-0.847,1.929-1.266l0.501,0.771C208.21,79.688,207.57,80.109,206.93,80.532z M530.37,79
				c-0.641-0.415-1.281-0.829-1.926-1.238l0.492-0.776c0.646,0.411,1.291,0.826,1.934,1.243L530.37,79z M210.783,78.023
				l-0.497-0.776c0.648-0.414,1.296-0.825,1.947-1.234l0.491,0.778C212.076,77.2,211.43,77.61,210.783,78.023z M526.506,76.536
				c-0.646-0.405-1.297-0.808-1.945-1.209l0.482-0.784c0.652,0.401,1.305,0.807,1.951,1.212L526.506,76.536z M214.675,75.575
				l-0.484-0.784c0.653-0.403,1.309-0.806,1.966-1.206l0.479,0.788C215.98,74.771,215.327,75.172,214.675,75.575z M522.604,74.132
				c-0.652-0.396-1.309-0.787-1.963-1.178l0.473-0.792c0.656,0.393,1.313,0.786,1.969,1.184L522.604,74.132z M218.605,73.187
				l-0.474-0.791c0.661-0.394,1.323-0.785,1.986-1.174l0.466,0.794C219.923,72.403,219.263,72.794,218.605,73.187z M518.668,71.791
				c-0.66-0.386-1.32-0.769-1.982-1.148l0.461-0.798c0.662,0.381,1.326,0.765,1.988,1.15L518.668,71.791z M222.572,70.86
				l-0.459-0.797c0.666-0.384,1.333-0.767,2.002-1.146l0.453,0.803C223.902,70.098,223.236,70.479,222.572,70.86z M514.696,69.51
				c-0.662-0.374-1.33-0.747-1.998-1.116l0.445-0.807c0.672,0.37,1.34,0.744,2.006,1.12L514.696,69.51z M226.575,68.595
				l-0.447-0.806c0.672-0.372,1.345-0.743,2.021-1.111l0.44,0.809C227.917,67.853,227.244,68.223,226.575,68.595z M510.692,67.292
				c-0.674-0.363-1.344-0.726-2.018-1.085l0.434-0.813c0.676,0.36,1.35,0.723,2.021,1.089L510.692,67.292z M230.613,66.393
				l-0.434-0.813c0.677-0.361,1.357-0.723,2.039-1.08l0.427,0.815C231.966,65.671,231.289,66.031,230.613,66.393z M506.653,65.137
				c-0.676-0.354-1.355-0.705-2.033-1.055l0.422-0.818c0.68,0.35,1.359,0.702,2.037,1.058L506.653,65.137z M234.686,64.254
				l-0.422-0.817c0.684-0.354,1.369-0.702,2.055-1.049l0.417,0.821C236.05,63.554,235.367,63.902,234.686,64.254z M502.581,63.045
				c-0.682-0.343-1.363-0.683-2.047-1.021l0.408-0.826c0.684,0.34,1.371,0.681,2.055,1.024L502.581,63.045z M238.792,62.178
				l-0.41-0.825c0.69-0.342,1.38-0.681,2.072-1.018l0.403,0.828C240.167,61.5,239.479,61.837,238.792,62.178z M498.477,61.018
				c-0.686-0.332-1.373-0.663-2.063-0.99l0.396-0.833c0.689,0.329,1.381,0.66,2.068,0.993L498.477,61.018z M242.93,60.167
				l-0.396-0.832c0.694-0.331,1.39-0.658,2.087-0.984l0.39,0.834C244.315,59.51,243.622,59.837,242.93,60.167z M494.344,59.054
				c-0.689-0.322-1.383-0.642-2.078-0.957l0.385-0.839c0.693,0.317,1.391,0.638,2.084,0.962L494.344,59.054z M247.1,58.221
				l-0.383-0.839c0.699-0.319,1.401-0.638,2.104-0.951l0.376,0.84C248.496,57.585,247.798,57.901,247.1,58.221z M490.182,57.156
				c-0.693-0.312-1.393-0.619-2.09-0.925l0.367-0.844c0.701,0.306,1.402,0.614,2.1,0.927L490.182,57.156z M251.3,56.338l-0.37-0.843
				c0.705-0.309,1.411-0.615,2.119-0.918l0.362,0.846C252.707,55.726,252.003,56.031,251.3,56.338z M485.993,55.324
				c-0.699-0.3-1.4-0.597-2.105-0.892l0.357-0.85c0.703,0.295,1.408,0.595,2.109,0.895L485.993,55.324z M255.53,54.523l-0.357-0.85
				c0.71-0.297,1.42-0.593,2.134-0.885l0.349,0.853C256.945,53.933,256.237,54.227,255.53,54.523z M481.774,53.556
				c-0.707-0.29-1.416-0.578-2.127-0.862l0.342-0.855c0.713,0.286,1.426,0.575,2.137,0.866L481.774,53.556z M259.789,52.775
				l-0.344-0.854c0.714-0.288,1.429-0.571,2.147-0.853l0.336,0.858C261.213,52.206,260.499,52.489,259.789,52.775z M477.514,51.848
				c-0.713-0.278-1.428-0.557-2.143-0.829l0.328-0.86c0.719,0.274,1.434,0.552,2.146,0.831L477.514,51.848z M264.074,51.092
				l-0.331-0.859c0.719-0.275,1.439-0.547,2.16-0.817l0.322,0.862C265.507,50.546,264.79,50.818,264.074,51.092z M473.223,50.206
				c-0.717-0.268-1.436-0.532-2.154-0.795l0.314-0.865c0.725,0.265,1.443,0.529,2.162,0.799L473.223,50.206z M268.386,49.478
				l-0.316-0.865c0.723-0.265,1.447-0.526,2.172-0.785l0.309,0.868C269.829,48.954,269.106,49.214,268.386,49.478z M468.907,48.632
				c-0.723-0.257-1.443-0.51-2.166-0.762l0.303-0.87c0.725,0.252,1.449,0.507,2.172,0.765L468.907,48.632z M272.724,47.93
				l-0.303-0.87c0.727-0.253,1.455-0.502,2.185-0.75l0.296,0.872C274.174,47.429,273.448,47.678,272.724,47.93z M464.571,47.125
				c-0.727-0.244-1.451-0.485-2.18-0.727l0.289-0.875c0.729,0.241,1.457,0.482,2.184,0.729L464.571,47.125z M277.084,46.452
				l-0.289-0.875c0.731-0.242,1.464-0.479,2.198-0.716l0.282,0.877C278.543,45.973,277.813,46.211,277.084,46.452z M460.206,45.688
				c-0.729-0.233-1.457-0.465-2.189-0.693l0.275-0.879c0.734,0.229,1.467,0.46,2.197,0.695L460.206,45.688z M281.47,45.041
				l-0.275-0.879c0.735-0.229,1.471-0.457,2.208-0.681l0.268,0.881C282.936,44.584,282.202,44.812,281.47,45.041z M455.823,44.318
				c-0.732-0.223-1.465-0.441-2.199-0.659l0.26-0.884c0.738,0.218,1.473,0.438,2.207,0.662L455.823,44.318z M285.876,43.699
				l-0.261-0.883c0.739-0.218,1.479-0.435,2.219-0.646l0.255,0.887C287.351,43.266,286.613,43.482,285.876,43.699z M451.418,43.018
				c-0.736-0.211-1.473-0.419-2.211-0.625l0.248-0.889c0.738,0.206,1.479,0.415,2.215,0.626L451.418,43.018z M290.306,42.427
				l-0.247-0.889c0.742-0.207,1.485-0.411,2.229-0.61l0.24,0.889C291.786,42.018,291.045,42.22,290.306,42.427z M446.995,41.785
				c-0.74-0.199-1.479-0.396-2.219-0.59l0.232-0.891c0.742,0.194,1.484,0.391,2.227,0.592L446.995,41.785z M294.753,41.224
				l-0.232-0.892c0.745-0.195,1.491-0.387,2.239-0.577l0.227,0.895C296.241,40.838,295.497,41.029,294.753,41.224z M442.549,40.624
				c-0.74-0.188-1.482-0.373-2.229-0.555l0.221-0.896c0.746,0.183,1.49,0.368,2.236,0.558L442.549,40.624z M299.223,40.091
				l-0.22-0.895c0.748-0.184,1.497-0.364,2.248-0.542l0.212,0.897C300.715,39.729,299.968,39.908,299.223,40.091z M438.088,39.531
				c-0.746-0.176-1.49-0.349-2.238-0.521l0.207-0.897c0.748,0.171,1.496,0.345,2.244,0.521L438.088,39.531z M303.708,39.028
				l-0.205-0.897c0.751-0.172,1.503-0.341,2.256-0.506l0.198,0.899C305.207,38.689,304.457,38.857,303.708,39.028z M433.612,38.508
				c-0.748-0.163-1.496-0.324-2.246-0.483l0.191-0.901c0.752,0.16,1.502,0.321,2.252,0.486L433.612,38.508z M308.21,38.037
				l-0.191-0.9c0.753-0.16,1.508-0.317,2.264-0.472l0.185,0.902C309.714,37.72,308.962,37.877,308.21,38.037z M429.12,37.556
				c-0.75-0.151-1.502-0.303-2.254-0.449l0.178-0.904c0.754,0.147,1.506,0.298,2.26,0.452L429.12,37.556z M312.729,37.115
				l-0.177-0.904c0.757-0.148,1.513-0.294,2.272-0.436l0.17,0.905C314.237,36.823,313.482,36.967,312.729,37.115z M424.612,36.674
				c-0.754-0.141-1.508-0.277-2.262-0.413l0.164-0.907c0.756,0.135,1.512,0.273,2.266,0.416L424.612,36.674z M317.262,36.264
				l-0.163-0.907c0.759-0.137,1.519-0.271,2.279-0.4l0.156,0.909C318.775,35.995,318.019,36.128,317.262,36.264z M420.09,35.863
				c-0.754-0.129-1.51-0.256-2.266-0.378l0.148-0.909c0.759,0.124,1.516,0.25,2.271,0.38L420.09,35.863z M321.808,35.484
				l-0.148-0.909c0.758-0.125,1.516-0.246,2.275-0.363l0.141,0.91C323.319,35.24,322.563,35.361,321.808,35.484z M415.558,35.122
				c-0.755-0.117-1.513-0.23-2.271-0.343l0.135-0.911c0.761,0.111,1.52,0.227,2.277,0.345L415.558,35.122z M326.347,34.779
				l-0.134-0.911c0.759-0.112,1.519-0.222,2.28-0.328l0.127,0.912C327.861,34.559,327.104,34.668,326.347,34.779z M411.014,34.452
				c-0.758-0.104-1.516-0.208-2.275-0.308l0.12-0.913c0.763,0.1,1.522,0.204,2.282,0.31L411.014,34.452z M330.896,34.144
				l-0.12-0.914c0.761-0.101,1.523-0.197,2.285-0.291l0.114,0.914C332.414,33.948,331.654,34.044,330.896,34.144z M406.459,33.853
				c-0.758-0.095-1.52-0.186-2.279-0.273l0.105-0.915c0.762,0.088,1.524,0.181,2.287,0.274L406.459,33.853z M335.455,33.581
				l-0.107-0.916c0.762-0.089,1.526-0.174,2.29-0.256l0.099,0.915C336.975,33.407,336.214,33.492,335.455,33.581z M401.897,33.324
				c-0.76-0.083-1.521-0.161-2.283-0.237l0.092-0.917c0.765,0.076,1.528,0.156,2.291,0.239L401.897,33.324z M340.021,33.087
				l-0.092-0.917c0.764-0.076,1.528-0.149,2.293-0.22l0.085,0.917C341.544,32.938,340.782,33.011,340.021,33.087z M397.329,32.866
				c-0.763-0.07-1.525-0.137-2.289-0.202l0.078-0.917c0.766,0.064,1.531,0.133,2.295,0.203L397.329,32.866z M344.594,32.665
				l-0.078-0.917c0.765-0.064,1.53-0.126,2.297-0.186l0.07,0.918C346.119,32.538,345.356,32.599,344.594,32.665z M392.75,32.479
				c-0.762-0.059-1.525-0.114-2.289-0.167l0.063-0.918c0.766,0.053,1.532,0.107,2.296,0.167L392.75,32.479z M349.174,32.313
				l-0.063-0.919c0.766-0.054,1.532-0.104,2.298-0.149l0.056,0.919C350.7,32.21,349.937,32.26,349.174,32.313z M388.168,32.164
				c-0.764-0.048-1.527-0.092-2.293-0.132l0.051-0.918c0.767,0.041,1.535,0.084,2.3,0.131L388.168,32.164z M353.758,32.032
				l-0.049-0.919c0.767-0.042,1.534-0.081,2.301-0.116l0.041,0.921C355.288,31.954,354.522,31.992,353.758,32.032z M383.583,31.918
				c-0.765-0.035-1.529-0.066-2.295-0.097l0.035-0.921c0.768,0.03,1.535,0.062,2.301,0.097L383.583,31.918z M358.346,31.821
				L358.31,30.9c0.769-0.028,1.534-0.055,2.304-0.078l0.027,0.919C359.875,31.766,359.11,31.792,358.346,31.821z M379,31.743
				c-0.762-0.022-1.525-0.044-2.289-0.062l0.021-0.921c0.767,0.018,1.532,0.037,2.297,0.063L379,31.743z M362.938,31.681
				l-0.021-0.921c0.769-0.019,1.537-0.032,2.306-0.044l0.014,0.922C364.467,31.649,363.704,31.664,362.938,31.681z M374.418,31.638
				c-0.765-0.013-1.529-0.021-2.295-0.026l0.006-0.922c0.769,0.006,1.537,0.015,2.303,0.026L374.418,31.638z M367.53,31.612
				l-0.006-0.922c0.764-0.005,1.529-0.008,2.294-0.008l0.009,0.921h-0.009C369.055,31.603,368.293,31.606,367.53,31.612z"/>
			<path fill="#20B0B5" d="M116.386,175.151l-0.791-0.474c0.198-0.331,0.396-0.659,0.596-0.987l0.788,0.477
				C116.78,174.495,116.583,174.822,116.386,175.151z"/>
		</g>
		<g>
			<path fill="#20B0B5" d="M473.352,92.765l-0.338,0.739c-0.307-0.141-0.613-0.278-0.924-0.419l0.334-0.739
				C472.735,92.484,473.042,92.624,473.352,92.765z"/>
			<path fill="#20B0B5" d="M470.571,91.518l-0.33,0.744c-0.619-0.273-1.24-0.543-1.861-0.813l0.322-0.746
				C469.325,90.973,469.948,91.245,470.571,91.518z M466.829,89.904l-0.316,0.749c-0.623-0.263-1.248-0.523-1.873-0.782l0.311-0.751
				C465.577,89.379,466.204,89.641,466.829,89.904z M463.065,88.349l-0.305,0.753c-0.627-0.253-1.256-0.504-1.887-0.752l0.299-0.756
				C461.805,87.844,462.434,88.096,463.065,88.349z M459.278,86.854l-0.293,0.758c-0.633-0.243-1.264-0.484-1.896-0.723l0.287-0.761
				C458.01,86.369,458.643,86.61,459.278,86.854z M455.467,85.419l-0.281,0.763c-0.635-0.233-1.271-0.466-1.908-0.693l0.275-0.764
				C454.192,84.953,454.831,85.186,455.467,85.419z M451.635,84.043l-0.27,0.768c-0.639-0.224-1.277-0.444-1.916-0.664l0.262-0.769
				C450.354,83.598,450.995,83.819,451.635,84.043z M447.784,82.728l-0.256,0.771c-0.643-0.214-1.285-0.425-1.93-0.633l0.25-0.771
				C446.497,82.302,447.139,82.513,447.784,82.728z M443.913,81.473l-0.246,0.774c-0.645-0.204-1.291-0.404-1.936-0.603l0.238-0.776
				C442.618,81.067,443.264,81.269,443.913,81.473z M440.02,80.278l-0.232,0.778c-0.648-0.193-1.295-0.385-1.945-0.572l0.229-0.78
				C438.721,79.893,439.372,80.084,440.02,80.278z M436.114,79.145l-0.221,0.781c-0.65-0.184-1.303-0.363-1.955-0.541l0.215-0.784
				C434.807,78.78,435.459,78.961,436.114,79.145z M432.188,78.073l-0.207,0.786c-0.654-0.173-1.307-0.344-1.961-0.512l0.201-0.787
				C430.877,77.729,431.534,77.9,432.188,78.073z M428.249,77.063l-0.195,0.789c-0.656-0.164-1.313-0.323-1.969-0.481l0.188-0.791
				C426.932,76.739,427.59,76.899,428.249,77.063z M424.293,76.113l-0.184,0.791c-0.66-0.152-1.318-0.302-1.979-0.45l0.178-0.792
				C422.969,75.81,423.633,75.96,424.293,76.113z M420.325,75.225l-0.172,0.795c-0.662-0.143-1.322-0.282-1.984-0.419l0.166-0.796
				C418.997,74.942,419.661,75.083,420.325,75.225z M416.34,74.4l-0.158,0.797c-0.662-0.132-1.325-0.263-1.988-0.389l0.152-0.798
				C415.012,74.137,415.676,74.267,416.34,74.4z M412.348,73.636l-0.146,0.799c-0.664-0.122-1.33-0.241-1.994-0.358l0.14-0.799
				C411.014,73.394,411.681,73.514,412.348,73.636z M408.342,72.934l-0.133,0.801c-0.668-0.111-1.334-0.219-2-0.325l0.127-0.802
				C407.004,72.713,407.674,72.822,408.342,72.934z M404.327,72.294l-0.119,0.805c-0.668-0.103-1.338-0.2-2.006-0.295l0.114-0.805
				C402.987,72.095,403.657,72.192,404.327,72.294z M400.303,71.719l-0.108,0.805c-0.669-0.091-1.339-0.179-2.009-0.266l0.104-0.806
				C398.959,71.539,399.631,71.626,400.303,71.719z M396.271,71.203l-0.097,0.808c-0.67-0.08-1.342-0.158-2.014-0.233l0.09-0.807
				C394.924,71.044,395.598,71.122,396.271,71.203z M392.231,70.751l-0.083,0.808c-0.671-0.069-1.343-0.138-2.017-0.202l0.078-0.809
				C390.883,70.613,391.558,70.681,392.231,70.751z M388.187,70.361l-0.071,0.809c-0.674-0.059-1.346-0.116-2.019-0.17l0.065-0.809
				C386.836,70.244,387.512,70.302,388.187,70.361z M384.135,70.035l-0.059,0.811c-0.674-0.049-1.347-0.097-2.021-0.141l0.054-0.81
				C382.786,69.938,383.459,69.985,384.135,70.035z M380.081,69.77l-0.045,0.812c-0.674-0.039-1.349-0.075-2.022-0.107l0.04-0.812
				C378.729,69.695,379.405,69.731,380.081,69.77z M376.023,69.568l-0.034,0.812c-0.674-0.027-1.349-0.053-2.023-0.075l0.027-0.813
				C374.668,69.515,375.347,69.54,376.023,69.568z M371.963,69.43l-0.021,0.812c-0.675-0.018-1.35-0.033-2.025-0.045l0.016-0.812
				C370.61,69.397,371.288,69.412,371.963,69.43z M367.902,69.354l-0.009,0.813c-0.676-0.007-1.352-0.012-2.025-0.015l0.004-0.813
				C366.547,69.342,367.224,69.347,367.902,69.354z M363.838,69.341l0.004,0.813c-0.674,0.003-1.348,0.009-2.023,0.017l-0.01-0.813
				C362.485,69.35,363.163,69.344,363.838,69.341z M359.779,69.391l0.017,0.813c-0.676,0.012-1.35,0.029-2.023,0.047l-0.021-0.812
				C358.426,69.42,359.102,69.404,359.779,69.391z M355.719,69.502l0.029,0.813c-0.676,0.023-1.35,0.051-2.023,0.079l-0.034-0.813
				C354.366,69.553,355.043,69.526,355.719,69.502z M351.663,69.677l0.042,0.811c-0.675,0.035-1.348,0.071-2.021,0.11l-0.048-0.812
				C350.311,69.748,350.986,69.711,351.663,69.677z M347.609,69.915l0.053,0.812c-0.673,0.045-1.346,0.092-2.019,0.142l-0.061-0.81
				C346.258,70.007,346.934,69.959,347.609,69.915z M343.56,70.215l0.067,0.81c-0.673,0.056-1.345,0.113-2.016,0.173l-0.073-0.809
				C342.212,70.328,342.886,70.27,343.56,70.215z M339.516,70.577l0.08,0.809c-0.671,0.065-1.341,0.134-2.013,0.204l-0.084-0.808
				C338.171,70.711,338.844,70.643,339.516,70.577z M335.48,71.002l0.092,0.809c-0.671,0.075-1.341,0.153-2.011,0.233l-0.097-0.806
				C334.137,71.157,334.808,71.078,335.48,71.002z M331.451,71.489l0.104,0.806c-0.669,0.086-1.338,0.176-2.005,0.268l-0.11-0.806
				C330.11,71.665,330.78,71.576,331.451,71.489z M327.43,72.04l0.116,0.805c-0.667,0.096-1.334,0.194-2,0.297l-0.124-0.804
				C326.092,72.235,326.761,72.136,327.43,72.04z M323.418,72.651l0.129,0.803c-0.667,0.106-1.331,0.215-1.996,0.327l-0.134-0.8
				C322.084,72.869,322.751,72.758,323.418,72.651z M319.417,73.325l0.142,0.8c-0.664,0.116-1.328,0.236-1.99,0.358l-0.147-0.799
				C318.087,73.562,318.752,73.442,319.417,73.325z M315.429,74.06l0.152,0.798c-0.661,0.128-1.323,0.258-1.984,0.391l-0.159-0.797
				C314.101,74.318,314.765,74.188,315.429,74.06z M311.451,74.857l0.167,0.795c-0.661,0.138-1.319,0.278-1.978,0.421l-0.172-0.794
				C310.128,75.137,310.79,74.996,311.451,74.857z M307.487,75.717l0.178,0.793c-0.657,0.147-1.314,0.298-1.97,0.451l-0.184-0.791
				C306.169,76.015,306.828,75.865,307.487,75.717z M303.538,76.636l0.19,0.79c-0.655,0.157-1.309,0.318-1.963,0.481l-0.196-0.789
				C302.225,76.956,302.881,76.794,303.538,76.636z M299.603,77.617l0.203,0.787c-0.652,0.169-1.304,0.338-1.956,0.512l-0.208-0.785
				C298.294,77.957,298.948,77.786,299.603,77.617z M295.685,78.66l0.216,0.783c-0.65,0.178-1.298,0.359-1.948,0.542l-0.22-0.781
				C294.383,79.021,295.033,78.838,295.685,78.66z M291.784,79.762l0.227,0.779c-0.646,0.188-1.292,0.38-1.937,0.573l-0.234-0.778
				C290.487,80.143,291.136,79.951,291.784,79.762z M287.901,80.927l0.24,0.775c-0.644,0.199-1.286,0.399-1.928,0.603l-0.246-0.775
				C286.611,81.326,287.256,81.125,287.901,80.927z M284.038,82.149l0.251,0.771c-0.64,0.208-1.28,0.419-1.918,0.634l-0.257-0.771
				C282.754,82.569,283.396,82.358,284.038,82.149z M280.194,83.432l0.264,0.769c-0.638,0.218-1.272,0.438-1.908,0.662l-0.27-0.767
				C278.918,83.872,279.556,83.65,280.194,83.432z M276.372,84.774l0.275,0.765c-0.634,0.228-1.266,0.458-1.897,0.691l-0.282-0.762
				C275.102,85.234,275.737,85.003,276.372,84.774z M272.571,86.177l0.287,0.76c-0.628,0.236-1.258,0.478-1.886,0.721l-0.292-0.758
				C271.309,86.656,271.94,86.415,272.571,86.177z M268.794,87.637l0.299,0.754c-0.626,0.249-1.25,0.498-1.874,0.751l-0.305-0.753
				C267.54,88.135,268.166,87.886,268.794,87.637z M265.04,89.155l0.311,0.751c-0.622,0.258-1.242,0.517-1.862,0.779l-0.316-0.749
				C263.794,89.674,264.417,89.415,265.04,89.155z M261.311,90.734l0.323,0.745c-0.617,0.267-1.234,0.537-1.849,0.808l-0.328-0.743
				C260.073,91.271,260.692,91.001,261.311,90.734z M257.608,92.368l0.333,0.741c-0.612,0.277-1.225,0.556-1.836,0.837l-0.339-0.738
				C256.379,92.927,256.992,92.646,257.608,92.368z M253.931,94.062l0.345,0.733c-0.607,0.286-1.214,0.574-1.821,0.864l-0.351-0.731
				C252.711,94.636,253.321,94.347,253.931,94.062z M250.282,95.81l0.356,0.729c-0.604,0.295-1.207,0.595-1.808,0.894l-0.363-0.728
				C249.072,96.405,249.677,96.106,250.282,95.81z M246.662,97.616l0.368,0.725c-0.599,0.305-1.197,0.611-1.794,0.92l-0.373-0.722
				C245.461,98.229,246.06,97.921,246.662,97.616z M243.07,99.478l0.38,0.717c-0.597,0.316-1.193,0.633-1.788,0.953l-0.385-0.715
				C241.874,100.111,242.471,99.793,243.07,99.478z M239.493,101.403l0.391,0.713c-0.593,0.323-1.183,0.651-1.772,0.981
				l-0.396-0.709C238.306,102.057,238.899,101.729,239.493,101.403z M235.945,103.385l0.402,0.706
				c-0.586,0.333-1.171,0.67-1.756,1.009l-0.407-0.703C234.77,104.057,235.357,103.719,235.945,103.385z M232.43,105.422
				l0.413,0.699c-0.58,0.343-1.161,0.688-1.74,1.036l-0.417-0.697C231.266,106.112,231.848,105.766,232.43,105.422z
				 M228.947,107.514l0.423,0.693c-0.575,0.352-1.149,0.705-1.723,1.063l-0.429-0.69
				C227.793,108.223,228.37,107.867,228.947,107.514z M225.498,109.66l0.434,0.687c-0.569,0.36-1.139,0.724-1.707,1.091l-0.44-0.685
				C224.354,110.386,224.925,110.022,225.498,109.66z M222.082,111.859l0.445,0.68c-0.564,0.37-1.128,0.742-1.689,1.116
				l-0.451-0.675C220.95,112.603,221.514,112.23,222.082,111.859z M218.7,114.112l0.457,0.673c-0.559,0.378-1.116,0.759-1.672,1.143
				l-0.462-0.67C217.581,114.875,218.139,114.493,218.7,114.112z M215.354,116.418l0.465,0.665
				c-0.552,0.388-1.104,0.777-1.654,1.168l-0.471-0.661C214.248,117.197,214.8,116.806,215.354,116.418z M212.045,118.774
				l0.477,0.659c-0.547,0.396-1.092,0.794-1.636,1.193l-0.481-0.653C210.95,119.57,211.496,119.171,212.045,118.774z
				 M208.772,121.182l0.487,0.651c-0.541,0.403-1.079,0.811-1.617,1.22l-0.491-0.647
				C207.69,121.995,208.231,121.588,208.772,121.182z M205.538,123.642l0.497,0.642c-0.534,0.413-1.067,0.827-1.598,1.245
				l-0.502-0.638C204.469,124.471,205.003,124.055,205.538,123.642z M202.343,126.149l0.506,0.637
				c-0.527,0.419-1.053,0.843-1.578,1.269l-0.511-0.632C201.286,126.997,201.814,126.572,202.343,126.149z M199.186,128.708
				l0.516,0.628c-0.521,0.428-1.04,0.859-1.559,1.292l-0.521-0.623C198.143,129.57,198.664,129.139,199.186,128.708z
				 M196.069,131.314l0.526,0.619c-0.514,0.438-1.026,0.875-1.539,1.317l-0.531-0.614
				C195.038,132.193,195.554,131.752,196.069,131.314z M192.992,133.969l0.536,0.61c-0.507,0.444-1.013,0.892-1.519,1.34
				l-0.54-0.605C191.976,134.863,192.484,134.414,192.992,133.969z M189.962,136.665l0.544,0.604c-0.5,0.45-0.997,0.903-1.493,1.359
				l-0.55-0.599C188.962,137.572,189.461,137.116,189.962,136.665z M186.975,139.405l0.554,0.595
				c-0.494,0.459-0.986,0.921-1.476,1.386l-0.559-0.591C185.987,140.33,186.48,139.867,186.975,139.405z M184.587,142.782
				c-0.487,0.468-0.972,0.938-1.455,1.409l-0.568-0.582c0.485-0.473,0.972-0.943,1.46-1.413L184.587,142.782z M181.688,145.61
				c-0.479,0.477-0.958,0.952-1.434,1.431l-0.575-0.572c0.477-0.479,0.955-0.959,1.438-1.437L181.688,145.61z M178.832,148.482
				c-0.473,0.481-0.943,0.967-1.412,1.453l-0.585-0.564c0.47-0.486,0.942-0.973,1.416-1.457L178.832,148.482z M176.021,151.397
				c-0.465,0.491-0.929,0.981-1.39,1.475l-0.592-0.555c0.462-0.494,0.926-0.987,1.392-1.479L176.021,151.397z M173.253,154.356
				c-0.457,0.498-0.912,0.996-1.365,1.494l-0.601-0.545c0.453-0.501,0.91-1.001,1.369-1.5L173.253,154.356z M170.533,157.356
				c-0.451,0.504-0.898,1.009-1.344,1.517l-0.609-0.537c0.446-0.509,0.895-1.015,1.347-1.521L170.533,157.356z M167.859,160.399
				c-0.442,0.51-0.882,1.021-1.319,1.536l-0.619-0.527c0.439-0.516,0.88-1.029,1.323-1.541L167.859,160.399z M165.232,163.481
				c-0.434,0.518-0.866,1.037-1.295,1.557l-0.626-0.517c0.432-0.522,0.864-1.042,1.299-1.563L165.232,163.481z M162.653,166.604
				c-0.426,0.523-0.85,1.05-1.271,1.577l-0.634-0.508c0.423-0.528,0.847-1.056,1.275-1.58L162.653,166.604z M160.124,169.768
				c-0.418,0.53-0.834,1.063-1.247,1.596l-0.642-0.498c0.414-0.535,0.831-1.069,1.25-1.602L160.124,169.768z M157.644,172.97
				c-0.41,0.536-0.817,1.075-1.222,1.614l-0.65-0.486c0.407-0.542,0.814-1.082,1.226-1.622L157.644,172.97z M155.213,176.21
				c-0.401,0.543-0.799,1.089-1.196,1.635l-0.657-0.478c0.397-0.547,0.799-1.094,1.2-1.639L155.213,176.21z M152.833,179.489
				c-0.392,0.549-0.781,1.099-1.169,1.652l-0.665-0.468c0.389-0.555,0.78-1.106,1.174-1.657L152.833,179.489z M150.506,182.802
				c-0.384,0.555-0.766,1.111-1.144,1.67l-0.672-0.457c0.379-0.561,0.762-1.118,1.147-1.676L150.506,182.802z M148.23,186.152
				c-0.375,0.562-0.748,1.125-1.118,1.688l-0.679-0.444c0.372-0.566,0.746-1.13,1.122-1.693L148.23,186.152z M146.009,189.539
				c-0.367,0.568-0.731,1.136-1.093,1.705l-0.685-0.435c0.362-0.572,0.727-1.143,1.095-1.711L146.009,189.539z M143.838,192.959
				c-0.357,0.573-0.712,1.147-1.064,1.724l-0.693-0.425c0.354-0.577,0.711-1.153,1.069-1.729L143.838,192.959z M141.722,196.413
				c-0.348,0.578-0.694,1.158-1.038,1.74l-0.698-0.414c0.344-0.583,0.69-1.165,1.04-1.746L141.722,196.413z M139.661,199.898
				c-0.338,0.585-0.675,1.169-1.01,1.755l-0.706-0.401c0.335-0.588,0.673-1.175,1.013-1.761L139.661,199.898z M137.655,203.417
				c-0.332,0.591-0.66,1.185-0.987,1.779l-0.711-0.392c0.327-0.596,0.657-1.19,0.99-1.784L137.655,203.417z M135.694,206.982
				c-0.322,0.597-0.641,1.195-0.958,1.794l-0.717-0.38c0.318-0.602,0.638-1.201,0.961-1.799L135.694,206.982z M133.792,210.576
				c-0.312,0.604-0.622,1.206-0.93,1.811l-0.724-0.369c0.308-0.606,0.619-1.21,0.934-1.815L133.792,210.576z M131.946,214.201
				c-0.304,0.606-0.604,1.214-0.902,1.822l-0.729-0.356c0.298-0.609,0.601-1.22,0.905-1.829L131.946,214.201z M130.158,217.852
				c-0.293,0.611-0.584,1.223-0.872,1.836l-0.734-0.345c0.288-0.615,0.58-1.229,0.874-1.843L130.158,217.852z M128.428,221.531
				c-0.283,0.615-0.565,1.232-0.843,1.849l-0.741-0.334c0.279-0.618,0.561-1.236,0.846-1.854L128.428,221.531z M126.755,225.236
				c-0.273,0.619-0.545,1.24-0.814,1.862l-0.745-0.322c0.27-0.625,0.542-1.247,0.816-1.869L126.755,225.236z M125.142,228.965
				c-0.264,0.624-0.525,1.249-0.785,1.873l-0.75-0.31c0.26-0.627,0.523-1.254,0.787-1.88L125.142,228.965z M123.588,232.72
				c-0.254,0.627-0.505,1.255-0.755,1.885l-0.755-0.299c0.251-0.633,0.502-1.264,0.757-1.893L123.588,232.72z M122.093,236.496
				c-0.244,0.631-0.485,1.265-0.724,1.897l-0.761-0.287c0.24-0.636,0.483-1.271,0.729-1.902L122.093,236.496z M120.658,240.294
				c-0.235,0.637-0.467,1.271-0.695,1.909l-0.765-0.274c0.23-0.64,0.463-1.277,0.697-1.915L120.658,240.294z M119.283,244.116
				c-0.225,0.639-0.447,1.279-0.666,1.917l-0.769-0.263c0.221-0.643,0.443-1.282,0.668-1.923L119.283,244.116z M117.967,247.957
				c-0.215,0.643-0.427,1.285-0.635,1.929l-0.772-0.252c0.209-0.645,0.421-1.289,0.636-1.933L117.967,247.957z M116.712,251.817
				c-0.204,0.646-0.405,1.292-0.604,1.938l-0.776-0.238c0.199-0.647,0.401-1.296,0.606-1.943L116.712,251.817z M115.518,255.696
				c-0.194,0.648-0.385,1.297-0.574,1.946l-0.78-0.228c0.189-0.65,0.382-1.303,0.577-1.952L115.518,255.696z M114.384,259.594
				c-0.184,0.65-0.364,1.302-0.543,1.954l-0.783-0.215c0.18-0.653,0.361-1.307,0.545-1.96L114.384,259.594z M113.312,263.506
				c-0.173,0.653-0.344,1.31-0.514,1.963l-0.787-0.203c0.17-0.657,0.342-1.313,0.516-1.969L113.312,263.506z M420.163,585.278
				l0.17,0.794c-0.662,0.144-1.324,0.282-1.986,0.421l-0.166-0.796C418.84,585.56,419.5,585.42,420.163,585.278z M112.301,267.435
				c-0.163,0.655-0.325,1.313-0.482,1.97l-0.79-0.19c0.159-0.657,0.321-1.316,0.484-1.976L112.301,267.435z M416.195,586.101
				l0.16,0.795c-0.663,0.134-1.329,0.263-1.994,0.392l-0.151-0.799C414.872,586.361,415.534,586.232,416.195,586.101z
				 M111.351,271.379c-0.153,0.658-0.304,1.317-0.452,1.977l-0.792-0.177c0.148-0.662,0.3-1.323,0.455-1.984L111.351,271.379z
				 M412.219,586.862l0.148,0.797c-0.668,0.122-1.334,0.241-2,0.357l-0.141-0.798C410.892,587.101,411.557,586.982,412.219,586.862z
				 M110.463,275.335c-0.143,0.661-0.284,1.322-0.421,1.984l-0.795-0.166c0.138-0.664,0.279-1.327,0.423-1.99L110.463,275.335z
				 M408.233,587.559l0.135,0.8c-0.668,0.112-1.336,0.222-2.004,0.329l-0.128-0.805
				C406.902,587.778,407.568,587.669,408.233,587.559z M109.637,279.306c-0.134,0.663-0.263,1.325-0.391,1.988l-0.798-0.152
				c0.128-0.665,0.259-1.33,0.392-1.996L109.637,279.306z M404.237,588.195l0.122,0.802c-0.668,0.104-1.338,0.201-2.008,0.297
				l-0.114-0.804C402.904,588.394,403.57,588.297,404.237,588.195z M108.872,283.288c-0.122,0.665-0.242,1.33-0.359,1.995
				l-0.8-0.141c0.118-0.667,0.237-1.335,0.36-2L108.872,283.288z M400.232,588.771l0.108,0.803c-0.668,0.091-1.34,0.182-2.01,0.266
				l-0.104-0.808C398.895,588.947,399.563,588.86,400.232,588.771z M108.168,287.28c-0.111,0.667-0.222,1.333-0.327,2l-0.802-0.127
				c0.107-0.67,0.217-1.338,0.329-2.007L108.168,287.28z M396.217,589.281l0.098,0.809c-0.672,0.081-1.344,0.158-2.018,0.233
				l-0.09-0.81C394.879,589.439,395.547,589.362,396.217,589.281z M107.528,291.283c-0.102,0.668-0.2,1.336-0.296,2.005
				l-0.805-0.117c0.097-0.67,0.196-1.34,0.298-2.011L107.528,291.283z M392.196,589.732l0.084,0.808
				c-0.673,0.07-1.346,0.14-2.02,0.202l-0.078-0.81C390.854,589.869,391.525,589.802,392.196,589.732z M106.95,295.294
				c-0.092,0.669-0.18,1.339-0.266,2.01l-0.806-0.104c0.087-0.672,0.175-1.344,0.268-2.015L106.95,295.294z M388.168,590.12
				l0.07,0.811c-0.674,0.059-1.348,0.115-2.021,0.17l-0.066-0.81C386.825,590.237,387.495,590.18,388.168,590.12z M106.434,299.314
				c-0.081,0.67-0.159,1.342-0.234,2.014l-0.807-0.092c0.075-0.672,0.153-1.346,0.235-2.019L106.434,299.314z M384.133,590.446
				l0.058,0.81c-0.674,0.051-1.349,0.096-2.024,0.14l-0.051-0.81C382.788,590.542,383.459,590.494,384.133,590.446z
				 M105.979,303.341c-0.07,0.672-0.139,1.343-0.203,2.016l-0.809-0.079c0.065-0.673,0.133-1.348,0.204-2.021L105.979,303.341z
				 M380.092,590.708l0.049,0.811c-0.676,0.039-1.354,0.077-2.029,0.109l-0.041-0.812
				C378.747,590.783,379.42,590.748,380.092,590.708z M105.588,307.373c-0.06,0.673-0.118,1.346-0.171,2.019l-0.81-0.066
				c0.055-0.674,0.113-1.35,0.172-2.022L105.588,307.373z M376.049,590.91l0.033,0.813c-0.676,0.026-1.352,0.054-2.027,0.077
				l-0.028-0.813C374.702,590.964,375.375,590.938,376.049,590.91z M105.259,311.411c-0.05,0.674-0.097,1.348-0.141,2.021
				l-0.811-0.053c0.044-0.677,0.091-1.352,0.141-2.027L105.259,311.411z M372.002,591.047l0.021,0.813
				c-0.676,0.02-1.354,0.033-2.029,0.045l-0.016-0.812C370.654,591.08,371.329,591.064,372.002,591.047z M104.993,315.452
				c-0.039,0.675-0.076,1.35-0.109,2.023l-0.812-0.042c0.035-0.676,0.071-1.353,0.11-2.027L104.993,315.452z M367.956,591.123
				l0.008,0.813c-0.676,0.008-1.354,0.014-2.029,0.016l-0.003-0.813C366.604,591.135,367.28,591.13,367.956,591.123z
				 M104.789,319.497c-0.028,0.675-0.055,1.351-0.079,2.024l-0.812-0.029c0.024-0.677,0.05-1.354,0.079-2.029L104.789,319.497z
				 M363.905,591.136l-0.004,0.813c-0.677-0.003-1.354-0.009-2.031-0.018l0.01-0.814
				C362.556,591.128,363.23,591.133,363.905,591.136z M104.648,323.545c-0.019,0.675-0.035,1.35-0.047,2.023l-0.813-0.016
				c0.014-0.677,0.029-1.354,0.048-2.031L104.648,323.545z M359.855,591.088l-0.017,0.813c-0.676-0.015-1.354-0.03-2.03-0.048
				l0.022-0.814C358.506,591.056,359.181,591.073,359.855,591.088z M104.569,327.594c-0.009,0.674-0.014,1.349-0.016,2.023
				l-0.813-0.003c0.002-0.678,0.008-1.354,0.016-2.031L104.569,327.594z M355.808,590.974l-0.028,0.813
				c-0.678-0.023-1.355-0.051-2.031-0.08l0.035-0.813C354.458,590.924,355.133,590.952,355.808,590.974z M104.553,331.641
				c0.001,0.675,0.007,1.35,0.015,2.023l-0.813,0.01c-0.007-0.678-0.013-1.354-0.015-2.031L104.553,331.641z M351.761,590.801
				l-0.041,0.811c-0.677-0.033-1.353-0.07-2.029-0.11l0.048-0.812C350.413,590.729,351.086,590.766,351.761,590.801z
				 M104.599,335.688c0.013,0.674,0.028,1.349,0.046,2.023l-0.812,0.021c-0.018-0.677-0.034-1.353-0.047-2.029L104.599,335.688z
				 M347.717,590.562l-0.055,0.812c-0.675-0.045-1.351-0.093-2.026-0.143l0.061-0.81
				C346.369,590.47,347.043,590.518,347.717,590.562z M104.707,339.735c0.023,0.673,0.05,1.348,0.078,2.022l-0.812,0.033
				c-0.028-0.677-0.055-1.352-0.078-2.028L104.707,339.735z M343.677,590.264l-0.066,0.808c-0.676-0.054-1.35-0.11-2.024-0.173
				l0.072-0.809C342.331,590.151,343.003,590.208,343.677,590.264z M104.878,343.778c0.034,0.672,0.07,1.348,0.109,2.021
				l-0.811,0.047c-0.04-0.676-0.076-1.353-0.109-2.027L104.878,343.778z M339.642,589.902l-0.08,0.808
				c-0.673-0.063-1.346-0.135-2.021-0.204l0.084-0.808C338.298,589.766,338.97,589.835,339.642,589.902z M105.111,347.817
				c0.044,0.674,0.09,1.346,0.141,2.02l-0.81,0.059c-0.05-0.674-0.096-1.348-0.141-2.023L105.111,347.817z M335.613,589.477
				l-0.091,0.808c-0.673-0.075-1.346-0.154-2.019-0.235l0.097-0.809C334.271,589.322,334.942,589.401,335.613,589.477z
				 M105.407,351.853c0.055,0.671,0.111,1.343,0.171,2.014l-0.809,0.073c-0.06-0.675-0.117-1.348-0.171-2.021L105.407,351.853z
				 M331.59,588.99l-0.104,0.807c-0.672-0.087-1.344-0.176-2.014-0.268l0.109-0.806C330.25,588.816,330.92,588.905,331.59,588.99z
				 M105.765,355.882c0.064,0.671,0.132,1.342,0.202,2.012l-0.808,0.085c-0.07-0.672-0.137-1.345-0.203-2.019L105.765,355.882z
				 M327.575,588.441l-0.116,0.804c-0.671-0.098-1.341-0.195-2.011-0.3l0.123-0.802
				C326.238,588.246,326.907,588.345,327.575,588.441z M106.186,359.903c0.075,0.671,0.153,1.34,0.234,2.01l-0.807,0.097
				c-0.082-0.671-0.159-1.343-0.234-2.016L106.186,359.903z M323.569,587.83l-0.129,0.804c-0.669-0.108-1.338-0.219-2.005-0.331
				l0.134-0.802C322.236,587.612,322.901,587.722,323.569,587.83z M106.668,363.921c0.085,0.667,0.173,1.336,0.265,2.004
				l-0.805,0.107c-0.092-0.669-0.18-1.34-0.266-2.011L106.668,363.921z M319.572,587.158l-0.142,0.798
				c-0.667-0.116-1.334-0.237-2-0.358l0.147-0.799C318.242,586.92,318.907,587.042,319.572,587.158z M107.212,367.926
				c0.096,0.667,0.194,1.334,0.295,2.001l-0.804,0.122c-0.102-0.668-0.2-1.338-0.296-2.007L107.212,367.926z M315.586,586.423
				l-0.154,0.798c-0.666-0.128-1.33-0.261-1.995-0.395l0.159-0.796C314.26,586.164,314.923,586.295,315.586,586.423z
				 M107.817,371.924c0.107,0.665,0.216,1.33,0.327,1.995l-0.8,0.135c-0.111-0.668-0.221-1.334-0.327-2.002L107.817,371.924z
				 M311.611,585.626l-0.166,0.795c-0.663-0.14-1.326-0.28-1.989-0.424l0.172-0.795C310.29,585.345,310.95,585.488,311.611,585.626z
				 M108.486,375.91c0.116,0.663,0.236,1.325,0.357,1.988l-0.799,0.147c-0.123-0.665-0.242-1.331-0.358-1.995L108.486,375.91z
				 M307.65,584.766l-0.18,0.793c-0.66-0.149-1.321-0.301-1.981-0.455l0.184-0.792C306.332,584.467,306.99,584.617,307.65,584.766z
				 M109.216,379.885c0.126,0.66,0.255,1.321,0.388,1.979l-0.797,0.16c-0.133-0.661-0.262-1.323-0.39-1.989L109.216,379.885z
				 M303.701,583.845l-0.191,0.789c-0.659-0.158-1.316-0.32-1.975-0.483l0.196-0.787
				C302.388,583.527,303.044,583.686,303.701,583.845z M110.006,383.846c0.137,0.661,0.276,1.318,0.419,1.978l-0.794,0.173
				c-0.144-0.66-0.283-1.321-0.42-1.983L110.006,383.846z M299.767,582.864l-0.203,0.786c-0.656-0.169-1.313-0.341-1.967-0.515
				l0.208-0.785C298.459,582.524,299.112,582.695,299.767,582.864z M110.857,387.798c0.147,0.653,0.297,1.313,0.449,1.97
				l-0.791,0.183c-0.152-0.658-0.303-1.315-0.45-1.975L110.857,387.798z M295.849,581.822l-0.216,0.783
				c-0.653-0.18-1.307-0.363-1.959-0.548l0.222-0.781C294.545,581.461,295.196,581.642,295.849,581.822z M111.771,391.731
				c0.158,0.654,0.318,1.308,0.48,1.963l-0.789,0.194c-0.162-0.655-0.322-1.312-0.48-1.966L111.771,391.731z M291.946,580.717
				l-0.228,0.78c-0.651-0.189-1.301-0.381-1.952-0.574l0.234-0.78C290.648,580.338,291.297,580.528,291.946,580.717z
				 M112.745,395.65c0.167,0.652,0.337,1.305,0.51,1.956l-0.785,0.207c-0.173-0.653-0.343-1.306-0.512-1.959L112.745,395.65z
				 M288.061,579.552l-0.24,0.777c-0.648-0.2-1.295-0.402-1.942-0.606l0.246-0.774C286.77,579.153,287.415,579.353,288.061,579.552z
				 M113.779,399.554c0.177,0.647,0.357,1.298,0.539,1.946l-0.782,0.219c-0.183-0.647-0.362-1.301-0.541-1.951L113.779,399.554z
				 M284.194,578.328l-0.252,0.771c-0.645-0.209-1.288-0.422-1.931-0.637l0.257-0.771
				C282.909,577.906,283.551,578.117,284.194,578.328z M114.874,403.441c0.188,0.644,0.376,1.29,0.57,1.937l-0.778,0.231
				c-0.194-0.646-0.384-1.294-0.572-1.94L114.874,403.441z M280.346,577.042l-0.264,0.771c-0.641-0.222-1.282-0.443-1.921-0.667
				l0.269-0.768C279.068,576.602,279.707,576.823,280.346,577.042z M116.028,407.309c0.197,0.643,0.397,1.283,0.6,1.926
				l-0.775,0.246c-0.202-0.644-0.403-1.29-0.601-1.935L116.028,407.309z M276.519,575.696l-0.275,0.766
				c-0.638-0.231-1.275-0.466-1.912-0.696l0.282-0.763C275.247,575.236,275.883,575.468,276.519,575.696z M117.243,411.158
				c0.208,0.64,0.417,1.277,0.629,1.917l-0.771,0.255c-0.213-0.64-0.423-1.28-0.631-1.921L117.243,411.158z M272.713,574.292
				l-0.289,0.761c-0.634-0.239-1.268-0.482-1.9-0.729l0.293-0.756C271.448,573.809,272.08,574.052,272.713,574.292z
				 M118.516,414.985c0.217,0.638,0.438,1.271,0.66,1.907l-0.767,0.268c-0.223-0.638-0.443-1.273-0.662-1.911L118.516,414.985z
				 M268.928,572.825l-0.299,0.756c-0.63-0.249-1.26-0.501-1.889-0.758l0.305-0.752C267.672,572.324,268.3,572.578,268.928,572.825z
				 M119.849,418.792c0.227,0.633,0.456,1.266,0.688,1.896l-0.762,0.281c-0.232-0.633-0.463-1.269-0.691-1.901L119.849,418.792z
				 M265.167,571.302l-0.311,0.749c-0.626-0.258-1.252-0.521-1.878-0.786l0.318-0.747
				C263.918,570.78,264.542,571.042,265.167,571.302z M121.24,422.578c0.238,0.628,0.477,1.259,0.719,1.887l-0.758,0.291
				c-0.243-0.631-0.482-1.261-0.72-1.892L121.24,422.578z M261.43,569.718l-0.323,0.746c-0.623-0.271-1.245-0.542-1.866-0.816
				l0.33-0.742C260.189,569.178,260.809,569.451,261.43,569.718z M122.691,426.341c0.248,0.628,0.498,1.256,0.75,1.881l-0.753,0.302
				c-0.253-0.628-0.503-1.255-0.752-1.885L122.691,426.341z M257.716,568.077l-0.333,0.742c-0.619-0.281-1.236-0.563-1.853-0.846
				l0.34-0.739C256.485,567.516,257.101,567.799,257.716,568.077z M124.207,430.095c0.257,0.624,0.517,1.25,0.78,1.87l-0.749,0.315
				c-0.264-0.626-0.524-1.25-0.782-1.876L124.207,430.095z M254.031,566.378l-0.347,0.732c-0.612-0.288-1.226-0.581-1.838-0.874
				l0.352-0.731C252.807,565.798,253.418,566.087,254.031,566.378z M125.781,433.827c0.267,0.62,0.537,1.24,0.809,1.857
				l-0.743,0.328c-0.273-0.62-0.544-1.241-0.811-1.863L125.781,433.827z M250.369,564.619l-0.356,0.729
				c-0.61-0.3-1.218-0.6-1.826-0.904l0.363-0.727C249.155,564.019,249.763,564.319,250.369,564.619z M127.414,437.535
				c0.277,0.616,0.556,1.23,0.838,1.843l-0.738,0.341c-0.283-0.614-0.563-1.23-0.841-1.851L127.414,437.535z M246.737,562.803
				l-0.368,0.723c-0.605-0.307-1.21-0.618-1.812-0.931l0.375-0.723C245.533,562.186,246.135,562.496,246.737,562.803z
				 M129.104,441.216c0.286,0.609,0.575,1.221,0.866,1.83l-0.732,0.351c-0.293-0.611-0.582-1.224-0.869-1.836L129.104,441.216z
				 M243.134,560.93l-0.38,0.718c-0.6-0.317-1.2-0.639-1.798-0.961l0.386-0.714C241.938,560.295,242.535,560.613,243.134,560.93z
				 M130.852,444.87c0.296,0.607,0.595,1.211,0.895,1.815l-0.727,0.362c-0.302-0.607-0.601-1.215-0.898-1.823L130.852,444.87z
				 M239.56,559.001l-0.392,0.713c-0.596-0.329-1.188-0.658-1.782-0.99l0.397-0.706C238.373,558.345,238.965,558.675,239.56,559.001
				z M132.656,448.496c0.305,0.603,0.613,1.201,0.924,1.803l-0.722,0.374c-0.311-0.602-0.62-1.206-0.926-1.81L132.656,448.496z
				 M236.015,557.016l-0.403,0.705c-0.589-0.337-1.178-0.676-1.765-1.019l0.407-0.702
				C234.839,556.344,235.427,556.68,236.015,557.016z M134.518,452.093c0.314,0.597,0.631,1.19,0.951,1.787l-0.715,0.385
				c-0.321-0.596-0.639-1.195-0.955-1.794L134.518,452.093z M232.5,554.974l-0.413,0.7c-0.585-0.348-1.169-0.694-1.75-1.046
				l0.418-0.696C231.338,554.282,231.918,554.63,232.5,554.974z M136.435,455.661c0.324,0.592,0.65,1.184,0.981,1.771l-0.71,0.396
				c-0.33-0.59-0.658-1.182-0.982-1.775L136.435,455.661z M229.02,552.878l-0.425,0.69c-0.58-0.353-1.157-0.711-1.733-1.072
				l0.43-0.688C227.867,552.167,228.442,552.522,229.02,552.878z M138.408,459.196c0.333,0.587,0.669,1.173,1.007,1.757
				l-0.703,0.407c-0.339-0.587-0.676-1.173-1.01-1.764L138.408,459.196z M225.572,550.726l-0.437,0.687
				c-0.574-0.362-1.146-0.73-1.716-1.099l0.439-0.684C224.43,549.999,225,550.363,225.572,550.726z M140.437,462.703
				c0.343,0.579,0.688,1.16,1.035,1.739l-0.696,0.417c-0.348-0.579-0.694-1.161-1.037-1.744L140.437,462.703z M222.157,548.522
				l-0.446,0.677c-0.569-0.373-1.135-0.748-1.7-1.126l0.451-0.676C221.026,547.775,221.59,548.149,222.157,548.522z M142.52,466.177
				c0.351,0.576,0.705,1.15,1.062,1.724l-0.689,0.429c-0.358-0.573-0.713-1.15-1.065-1.729L142.52,466.177z M218.776,546.261
				l-0.456,0.671c-0.563-0.382-1.123-0.766-1.683-1.153l0.462-0.667C217.657,545.498,218.216,545.881,218.776,546.261z
				 M144.657,469.615c0.361,0.571,0.724,1.142,1.088,1.709l-0.683,0.438c-0.366-0.57-0.73-1.142-1.093-1.711L144.657,469.615z
				 M215.432,543.949l-0.468,0.664c-0.556-0.392-1.11-0.784-1.663-1.179l0.472-0.66
				C214.325,543.169,214.877,543.559,215.432,543.949z M146.848,473.023c0.368,0.564,0.741,1.128,1.114,1.691l-0.677,0.448
				c-0.375-0.563-0.747-1.13-1.117-1.693L146.848,473.023z M212.123,541.583l-0.478,0.657c-0.55-0.399-1.098-0.802-1.646-1.206
				l0.483-0.653C211.029,540.783,211.574,541.185,212.123,541.583z M149.091,476.394c0.378,0.559,0.758,1.116,1.142,1.674
				l-0.67,0.46c-0.384-0.56-0.765-1.117-1.144-1.677L149.091,476.394z M208.851,539.167l-0.486,0.65
				c-0.542-0.407-1.082-0.814-1.621-1.227l0.492-0.646C207.774,538.354,208.313,538.761,208.851,539.167z M151.387,479.731
				c0.387,0.554,0.776,1.104,1.167,1.655l-0.662,0.47c-0.393-0.552-0.783-1.103-1.171-1.658L151.387,479.731z M205.631,536.71
				l-0.497,0.641c-0.535-0.415-1.068-0.831-1.601-1.25l0.503-0.638C204.566,535.88,205.098,536.296,205.631,536.71z
				 M153.734,483.031c0.395,0.548,0.793,1.093,1.193,1.638l-0.654,0.479c-0.401-0.545-0.801-1.092-1.197-1.64L153.734,483.031z
				 M202.45,534.201l-0.508,0.636c-0.528-0.423-1.055-0.849-1.58-1.275l0.512-0.63C201.398,533.357,201.924,533.78,202.45,534.201z
				 M156.133,486.296c0.404,0.54,0.811,1.078,1.219,1.616l-0.647,0.49c-0.409-0.539-0.816-1.08-1.222-1.622L156.133,486.296z
				 M199.309,531.646l-0.519,0.627c-0.521-0.432-1.041-0.865-1.56-1.302l0.522-0.623
				C198.27,530.784,198.788,531.216,199.309,531.646z M158.583,489.521c0.412,0.534,0.826,1.068,1.243,1.6l-0.64,0.5
				c-0.417-0.532-0.834-1.066-1.247-1.604L158.583,489.521z M196.207,529.042l-0.527,0.616c-0.515-0.438-1.028-0.881-1.541-1.322
				l0.532-0.613C195.182,528.163,195.694,528.602,196.207,529.042z M161.08,492.708c0.42,0.527,0.844,1.057,1.268,1.579l-0.63,0.514
				c-0.427-0.529-0.85-1.057-1.272-1.586L161.08,492.708z M193.146,526.388l-0.538,0.608c-0.507-0.445-1.013-0.896-1.519-1.347
				l0.542-0.605C192.135,525.496,192.639,525.942,193.146,526.388z M163.629,495.858c0.428,0.521,0.858,1.04,1.291,1.561
				l-0.623,0.521c-0.435-0.521-0.867-1.044-1.296-1.566L163.629,495.858z M190.127,523.688l-0.547,0.604
				c-0.5-0.456-1-0.914-1.498-1.372l0.55-0.597C189.129,522.779,189.627,523.236,190.127,523.688z M166.225,498.967
				c0.436,0.515,0.875,1.026,1.314,1.541l-0.614,0.527c-0.443-0.513-0.883-1.027-1.321-1.545L166.225,498.967z M187.149,520.945
				l-0.556,0.593c-0.495-0.463-0.986-0.93-1.478-1.396l0.56-0.589C186.166,520.018,186.657,520.483,187.149,520.945z
				 M168.869,502.034c0.443,0.51,0.891,1.016,1.338,1.52l-0.606,0.541c-0.45-0.506-0.898-1.016-1.344-1.522L168.869,502.034z
				 M184.213,518.152l-0.564,0.582c-0.487-0.469-0.973-0.938-1.456-1.415l0.569-0.58
				C183.245,517.212,183.729,517.683,184.213,518.152z M171.555,505.056c0.45,0.502,0.904,0.999,1.359,1.494l-0.599,0.55
				c-0.457-0.499-0.911-0.997-1.364-1.498L171.555,505.056z M181.322,515.317l-0.574,0.576c-0.48-0.479-0.958-0.958-1.435-1.44
				l0.578-0.57C180.366,514.362,180.844,514.84,181.322,515.317z M174.285,508.038c0.459,0.493,0.92,0.985,1.384,1.477l-0.591,0.559
				c-0.465-0.492-0.928-0.984-1.388-1.479L174.285,508.038z M178.473,512.436l-0.581,0.566c-0.471-0.482-0.941-0.969-1.408-1.454
				l0.583-0.567l0.005,0.005C177.537,511.471,178.004,511.955,178.473,512.436z"/>
			<path fill="#20B0B5" d="M423.137,584.618l0.182,0.792c-0.332,0.077-0.662,0.151-0.992,0.227l-0.18-0.794
				C422.479,584.768,422.807,584.694,423.137,584.618z"/>
		</g>
	</g>
	<g>
		<rect x="353.115" y="408.29" fill="#666666" width="43.208" height="86.874"/>
		<rect x="353.115" y="408.29" fill="#454545" width="43.208" height="35.178"/>
		<path fill="#666666" d="M578.067,412.552c0,5.3-4.297,9.595-9.594,9.595H180.461c-5.297,0-9.594-4.295-9.594-9.595V157.787
			c0-5.297,4.296-9.594,9.594-9.594h388.012c5.297,0,9.594,4.296,9.594,9.594V412.552z"/>
		<path fill="#FFFFFF" fill-opacity="0.2" d="M568.473,148.193H180.461c-5.297,0-9.594,4.296-9.594,9.594v3.55
			c0-5.297,4.296-9.594,9.594-9.594h388.012c5.297,0,9.594,4.296,9.594,9.594v-3.55C578.067,152.49,573.77,148.193,568.473,148.193z
			"/>
		<path fill="#454545" fill-opacity="0.5" d="M568.473,417.577H180.461c-5.297,0-9.594-4.297-9.594-9.594v4.568
			c0,5.3,4.296,9.595,9.594,9.595h388.012c5.297,0,9.594-4.295,9.594-9.595v-4.568C578.067,413.28,573.77,417.577,568.473,417.577z"
			/>
		<rect x="186.857" y="164.183" fill="#FFFFFF" width="375.224" height="241.973"/>
		<g>
			<rect x="429.344" y="183.369" fill="none" stroke="#E6E6E6" stroke-miterlimit="10" width="81.57" height="16.029"/>
			<path fill="#F2AE1D" d="M510.915,213.862c0-4.221-3.422-7.646-7.646-7.646h-66.275c-4.225,0-7.646,3.426-7.646,7.646v12.747
				c0,4.224,3.422,7.646,7.646,7.646h66.275c4.225,0,7.646-3.423,7.646-7.646V213.862z"/>
			<g enable-background="new    ">
				<path fill="#FFFFFF" d="M465.266,221.885c0.346,0.453,0.52,1.012,0.52,1.675c0,0.938-0.365,1.659-1.094,2.164
					s-1.792,0.757-3.189,0.757h-5.536v-10.706h5.231c1.305,0,2.307,0.25,3.005,0.749c0.698,0.5,1.048,1.178,1.048,2.034
					c0,0.521-0.125,0.984-0.375,1.392c-0.25,0.408-0.6,0.729-1.048,0.964C464.44,221.108,464.918,221.431,465.266,221.885z
					 M458.428,217.64v2.524h2.463c0.611,0,1.076-0.107,1.392-0.321c0.316-0.214,0.475-0.53,0.475-0.948s-0.158-0.731-0.475-0.94
					c-0.315-0.209-0.78-0.314-1.392-0.314H458.428z M462.795,224.294c0.331-0.214,0.497-0.545,0.497-0.994
					c0-0.887-0.657-1.33-1.974-1.33h-2.891v2.646h2.891C461.971,224.615,462.463,224.509,462.795,224.294z"/>
				<path fill="#FFFFFF" d="M468.852,225.395c-0.852-0.847-1.277-2.055-1.277-3.625v-5.995h2.478v5.903
					c0,1.917,0.796,2.876,2.386,2.876c0.775,0,1.367-0.232,1.774-0.696s0.612-1.19,0.612-2.18v-5.903h2.447v5.995
					c0,1.57-0.426,2.778-1.277,3.625s-2.042,1.27-3.572,1.27C470.893,226.665,469.704,226.242,468.852,225.395z"/>
				<path fill="#FFFFFF" d="M484.706,222.688v3.793h-2.479v-3.823l-4.145-6.883h2.631l2.859,4.757l2.86-4.757h2.433L484.706,222.688
					z"/>
			</g>
		</g>
		<g>
			<rect x="334.655" y="183.369" fill="none" stroke="#E6E6E6" stroke-miterlimit="10" width="81.573" height="16.029"/>
			<path fill="#F2AE1D" d="M416.229,213.862c0-4.221-3.424-7.646-7.648-7.646h-66.278c-4.223,0-7.646,3.426-7.646,7.646v12.747
				c0,4.224,3.424,7.646,7.646,7.646h66.278c4.225,0,7.648-3.423,7.648-7.646V213.862z"/>
			<g enable-background="new    ">
				<path fill="#FFFFFF" d="M370.579,221.885c0.347,0.453,0.521,1.012,0.521,1.675c0,0.938-0.364,1.659-1.094,2.164
					s-1.792,0.757-3.188,0.757h-5.537v-10.706h5.23c1.305,0,2.307,0.25,3.006,0.749c0.698,0.5,1.047,1.178,1.047,2.034
					c0,0.521-0.125,0.984-0.374,1.392c-0.25,0.408-0.599,0.729-1.048,0.964C369.752,221.108,370.232,221.431,370.579,221.885z
					 M363.743,217.64v2.524h2.462c0.612,0,1.075-0.107,1.392-0.321s0.475-0.53,0.475-0.948s-0.158-0.731-0.475-0.94
					s-0.779-0.314-1.392-0.314H363.743z M368.109,224.294c0.331-0.214,0.497-0.545,0.497-0.994c0-0.887-0.658-1.33-1.973-1.33
					h-2.891v2.646h2.891C367.286,224.615,367.778,224.509,368.109,224.294z"/>
				<path fill="#FFFFFF" d="M374.165,225.395c-0.851-0.847-1.276-2.055-1.276-3.625v-5.995h2.478v5.903
					c0,1.917,0.795,2.876,2.387,2.876c0.774,0,1.365-0.232,1.773-0.696s0.611-1.19,0.611-2.18v-5.903h2.447v5.995
					c0,1.57-0.426,2.778-1.276,3.625c-0.852,0.847-2.042,1.27-3.571,1.27S375.016,226.242,374.165,225.395z"/>
				<path fill="#FFFFFF" d="M390.018,222.688v3.793h-2.478v-3.823l-4.146-6.883h2.631l2.861,4.757l2.859-4.757h2.432
					L390.018,222.688z"/>
			</g>
		</g>
		<g>
			<rect x="237.235" y="183.369" fill="none" stroke="#E6E6E6" stroke-miterlimit="10" width="81.571" height="16.029"/>
			<path fill="#F2AE1D" d="M318.806,213.862c0-4.221-3.422-7.646-7.646-7.646h-66.277c-4.223,0-7.648,3.426-7.648,7.646v12.747
				c0,4.224,3.425,7.646,7.648,7.646h66.277c4.224,0,7.646-3.423,7.646-7.646V213.862z"/>
			<g enable-background="new    ">
				<path fill="#FFFFFF" d="M273.159,221.885c0.346,0.453,0.52,1.012,0.52,1.675c0,0.938-0.365,1.659-1.094,2.164
					s-1.792,0.757-3.189,0.757h-5.537v-10.706h5.231c1.305,0,2.307,0.25,3.005,0.749c0.698,0.5,1.047,1.178,1.047,2.034
					c0,0.521-0.125,0.984-0.375,1.392c-0.25,0.408-0.599,0.729-1.048,0.964C272.333,221.108,272.812,221.431,273.159,221.885z
					 M266.322,217.64v2.524h2.462c0.612,0,1.076-0.107,1.392-0.321c0.316-0.214,0.475-0.53,0.475-0.948s-0.158-0.731-0.475-0.94
					c-0.316-0.209-0.78-0.314-1.392-0.314H266.322z M270.688,224.294c0.331-0.214,0.497-0.545,0.497-0.994
					c0-0.887-0.658-1.33-1.973-1.33h-2.891v2.646h2.891C269.865,224.615,270.357,224.509,270.688,224.294z"/>
				<path fill="#FFFFFF" d="M276.745,225.395c-0.851-0.847-1.277-2.055-1.277-3.625v-5.995h2.478v5.903
					c0,1.917,0.795,2.876,2.386,2.876c0.775,0,1.366-0.232,1.774-0.696s0.612-1.19,0.612-2.18v-5.903h2.447v5.995
					c0,1.57-0.426,2.778-1.277,3.625c-0.852,0.847-2.042,1.27-3.572,1.27C278.787,226.665,277.596,226.242,276.745,225.395z"/>
				<path fill="#FFFFFF" d="M292.598,222.688v3.793h-2.478v-3.823l-4.145-6.883h2.631l2.86,4.757l2.86-4.757h2.432L292.598,222.688z
					"/>
			</g>
		</g>
		<rect x="186.857" y="164.183" fill="#FBE45F" width="375.224" height="20.251"/>
		<rect x="186.857" y="164.183" fill="#F2AE1D" fill-opacity="0.5" width="375.224" height="3.09"/>
		<circle fill="#FFFFFF" cx="520.774" cy="174.84" r="4.531"/>
		<circle fill="#FFFFFF" cx="536.629" cy="174.84" r="4.532"/>
		<path fill="#FFFFFF" d="M557.014,174.84c0,2.504-2.023,4.531-4.529,4.531c-2.5,0-4.527-2.027-4.527-4.531
			c0-2.502,2.027-4.529,4.527-4.529C554.989,170.31,557.014,172.338,557.014,174.84z"/>
		<g>
			<rect x="429.344" y="253.735" fill="none" stroke="#E6E6E6" stroke-miterlimit="10" width="81.57" height="96.229"/>
			<path fill="#F2AE1D" d="M510.915,364.433c0-4.226-3.422-7.647-7.646-7.647h-66.275c-4.225,0-7.646,3.422-7.646,7.647v12.745
				c0,4.222,3.422,7.647,7.646,7.647h66.275c4.225,0,7.646-3.427,7.646-7.647V364.433z"/>
			<g enable-background="new    ">
				<path fill="#FFFFFF" d="M465.266,372.453c0.346,0.453,0.52,1.012,0.52,1.675c0,0.938-0.365,1.659-1.094,2.164
					s-1.792,0.757-3.189,0.757h-5.536v-10.706h5.231c1.305,0,2.307,0.25,3.005,0.749c0.698,0.5,1.048,1.178,1.048,2.034
					c0,0.521-0.125,0.984-0.375,1.392c-0.25,0.408-0.6,0.729-1.048,0.964C464.44,371.676,464.918,371.999,465.266,372.453z
					 M458.428,368.208v2.524h2.463c0.611,0,1.076-0.107,1.392-0.321c0.316-0.214,0.475-0.53,0.475-0.948s-0.158-0.731-0.475-0.94
					c-0.315-0.209-0.78-0.314-1.392-0.314H458.428z M462.795,374.861c0.331-0.214,0.497-0.545,0.497-0.994
					c0-0.887-0.657-1.33-1.974-1.33h-2.891v2.646h2.891C461.971,375.182,462.463,375.076,462.795,374.861z"/>
				<path fill="#FFFFFF" d="M468.852,375.963c-0.852-0.847-1.277-2.055-1.277-3.625v-5.995h2.478v5.903
					c0,1.917,0.796,2.876,2.386,2.876c0.775,0,1.367-0.232,1.774-0.696s0.612-1.19,0.612-2.18v-5.903h2.447v5.995
					c0,1.57-0.426,2.778-1.277,3.625s-2.042,1.27-3.572,1.27C470.893,377.232,469.704,376.809,468.852,375.963z"/>
				<path fill="#FFFFFF" d="M484.706,373.256v3.793h-2.479v-3.823l-4.145-6.883h2.631l2.859,4.757l2.86-4.757h2.433L484.706,373.256
					z"/>
			</g>
			<g>
				<path fill="#ED7EAF" d="M460.237,274.211c3.412-0.135,14.018-0.129,19.789,0C482.395,291.015,456.319,288.148,460.237,274.211z"
					/>
				<path fill="#ED3988" d="M506.77,282.782c0,0-14.674-8.913-26.744-8.571c0,5.971-3.232,9.418-9.896,9.541
					c-6.664-0.122-9.893-3.57-9.893-9.541c-12.074-0.342-26.748,8.571-26.748,8.571l7.348,15.399l9.76-3.071l-0.1,33.4h39.268
					l-0.1-33.4l9.762,3.071L506.77,282.782z"/>
			</g>
		</g>
		<g>
			<rect x="237.235" y="253.735" fill="none" stroke="#E6E6E6" stroke-miterlimit="10" width="81.571" height="96.229"/>
			<path fill="#F2AE1D" d="M318.806,364.433c0-4.226-3.422-7.647-7.646-7.647h-66.277c-4.223,0-7.648,3.422-7.648,7.647v12.745
				c0,4.222,3.425,7.647,7.648,7.647h66.277c4.224,0,7.646-3.427,7.646-7.647V364.433z"/>
			<g enable-background="new    ">
				<path fill="#FFFFFF" d="M273.159,372.453c0.346,0.453,0.52,1.012,0.52,1.675c0,0.938-0.365,1.659-1.094,2.164
					s-1.792,0.757-3.189,0.757h-5.537v-10.706h5.231c1.305,0,2.307,0.25,3.005,0.749c0.698,0.5,1.047,1.178,1.047,2.034
					c0,0.521-0.125,0.984-0.375,1.392c-0.25,0.408-0.599,0.729-1.048,0.964C272.333,371.676,272.812,371.999,273.159,372.453z
					 M266.322,368.208v2.524h2.462c0.612,0,1.076-0.107,1.392-0.321c0.316-0.214,0.475-0.53,0.475-0.948s-0.158-0.731-0.475-0.94
					c-0.316-0.209-0.78-0.314-1.392-0.314H266.322z M270.688,374.861c0.331-0.214,0.497-0.545,0.497-0.994
					c0-0.887-0.658-1.33-1.973-1.33h-2.891v2.646h2.891C269.865,375.182,270.357,375.076,270.688,374.861z"/>
				<path fill="#FFFFFF" d="M276.745,375.963c-0.851-0.847-1.277-2.055-1.277-3.625v-5.995h2.478v5.903
					c0,1.917,0.795,2.876,2.386,2.876c0.775,0,1.366-0.232,1.774-0.696s0.612-1.19,0.612-2.18v-5.903h2.447v5.995
					c0,1.57-0.426,2.778-1.277,3.625c-0.852,0.847-2.042,1.27-3.572,1.27C278.787,377.232,277.596,376.809,276.745,375.963z"/>
				<path fill="#FFFFFF" d="M292.598,373.256v3.793h-2.478v-3.823l-4.145-6.883h2.631l2.86,4.757l2.86-4.757h2.432L292.598,373.256z
					"/>
			</g>
		</g>
		<path fill="#666666" d="M485.864,501.501c-58.096,0-89.543-10.983-89.543-35.396l-17.445,1.143l-25.729-1.143
			c0,24.411-31.447,35.396-89.542,35.396c-7.461,0-11.458,6.099-11.458,13.114c53.867,0,111.863,0,125.52,0c0,0,1.063,0,2.996,0
			c12.582,0,63.305,0,116.656,0C497.321,507.599,493.325,501.501,485.864,501.501z"/>
		<path fill="none" stroke="#ED7EAF" stroke-linecap="round" stroke-miterlimit="10" d="M449.999,280.598
			c0.619,1.9,1.174,12.138,0.598,16.242"/>
		<path fill="none" stroke="#ED7EAF" stroke-linecap="round" stroke-miterlimit="10" d="M435.766,284.883
			c0,0,3.959,6.264,5.957,10.852"/>
		<path fill="none" stroke="#ED7EAF" stroke-linecap="round" stroke-miterlimit="10" d="M490.262,280.598
			c-0.621,1.9-1.178,12.138-0.598,16.242"/>
		<path fill="none" stroke="#ED7EAF" stroke-linecap="round" stroke-miterlimit="10" d="M504.499,284.883
			c0,0-3.963,6.264-5.963,10.852"/>
		<g>
			<g>
				<rect x="334.655" y="253.735" fill="none" stroke="#E6E6E6" stroke-miterlimit="10" width="81.573" height="96.229"/>
				<path fill="#F2AE1D" d="M416.229,364.433c0-4.226-3.424-7.647-7.648-7.647h-66.278c-4.223,0-7.646,3.422-7.646,7.647v12.745
					c0,4.222,3.424,7.647,7.646,7.647h66.278c4.225,0,7.648-3.427,7.648-7.647V364.433z"/>
				<g enable-background="new    ">
					<path fill="#FFFFFF" d="M370.579,372.453c0.347,0.453,0.521,1.012,0.521,1.675c0,0.938-0.364,1.659-1.094,2.164
						s-1.792,0.757-3.188,0.757h-5.537v-10.706h5.23c1.305,0,2.307,0.25,3.006,0.749c0.698,0.5,1.047,1.178,1.047,2.034
						c0,0.521-0.125,0.984-0.374,1.392c-0.25,0.408-0.599,0.729-1.048,0.964C369.752,371.676,370.232,371.999,370.579,372.453z
						 M363.743,368.208v2.524h2.462c0.612,0,1.075-0.107,1.392-0.321s0.475-0.53,0.475-0.948s-0.158-0.731-0.475-0.94
						s-0.779-0.314-1.392-0.314H363.743z M368.109,374.861c0.331-0.214,0.497-0.545,0.497-0.994c0-0.887-0.658-1.33-1.973-1.33
						h-2.891v2.646h2.891C367.286,375.182,367.778,375.076,368.109,374.861z"/>
					<path fill="#FFFFFF" d="M374.165,375.963c-0.851-0.847-1.276-2.055-1.276-3.625v-5.995h2.478v5.903
						c0,1.917,0.795,2.876,2.387,2.876c0.774,0,1.365-0.232,1.773-0.696s0.611-1.19,0.611-2.18v-5.903h2.447v5.995
						c0,1.57-0.426,2.778-1.276,3.625c-0.852,0.847-2.042,1.27-3.571,1.27S375.016,376.809,374.165,375.963z"/>
					<path fill="#FFFFFF" d="M390.018,373.256v3.793h-2.478v-3.823l-4.146-6.883h2.631l2.861,4.757l2.859-4.757h2.432
						L390.018,373.256z"/>
				</g>
			</g>
			<g>
				<path fill="#B2F1FF" d="M349.463,314.69c-0.571-11.583,6.323-16.155,13.295-15.849s11.63-3.446,13.156-12.407
					c2.779-1.25,5.303,4.169,5.303,4.169c4.77-8.336,18.703-9.782,20.164-6.399c0.271,15.707-0.318,30.887-0.318,30.887
					L349.463,314.69z"/>
				<path fill="#F2AE1D" d="M375.915,286.434c-1.526,8.961-6.184,12.714-13.156,12.407c-1.106-0.05-2.207,0.04-3.279,0.247
					c1.354,1.398,1.709,5.406,1.709,5.406c8.754,3.196,19.494,2.362,20.027-13.893C381.215,290.603,378.693,285.185,375.915,286.434
					z"/>
				<path fill="#29ABE2" d="M401.39,301.385l-0.031-0.364c-2.937-5.14-14.327,1.113-10.864,13.669
					c0.336,0.119,0.649,0.219,0.971,0.325l9.598,0.074C401.063,315.091,401.284,309.394,401.39,301.385z"/>
				<path fill="#ED3988" d="M359.76,299.036c-5.812,0.983-10.786,5.749-10.297,15.655l12.732,0.399
					C362.561,308.319,361.219,302.049,359.76,299.036z"/>
				<rect x="349.463" y="314.69" fill="#FBE45F" width="51.6" height="4.95"/>
				
					<line fill="none" stroke="#ED3988" stroke-linecap="round" stroke-miterlimit="10" x1="365.543" y1="298.726" x2="367.438" y2="305.922"/>
				
					<line fill="none" stroke="#ED3988" stroke-linecap="round" stroke-miterlimit="10" x1="370.513" y1="296.816" x2="376.407" y2="303.523"/>
				
					<line fill="none" stroke="#ED3988" stroke-linecap="round" stroke-miterlimit="10" x1="374.019" y1="292.547" x2="380.532" y2="296.115"/>
			</g>
		</g>
		<g>
			<g>
				<path fill="#29ABE2" d="M293.629,267.961h-15.28h-0.654h-15.283c-1.219,9.281-5.852,72.717-5.852,72.717
					c5.528,2.342,11.837,0.391,11.837,0.391c0.482-12.346,8.511-46.533,9.623-51.214c1.112,4.681,9.142,38.868,9.626,51.214
					c0,0,5.367,2.536,11.836-0.391C299.482,340.677,294.438,277.345,293.629,267.961z"/>
				<path fill="none" stroke="#1D91C2" stroke-linecap="round" stroke-miterlimit="10" d="M262.138,282.034
					c4.409,1.73,5.973,0.313,6.678-10.003"/>
				<path fill="none" stroke="#1D91C2" stroke-linecap="round" stroke-miterlimit="10" d="M293.904,282.034
					c-4.41,1.73-5.973,0.313-6.679-10.003"/>
			</g>
			
				<line fill="none" stroke="#1D91C2" stroke-linecap="round" stroke-miterlimit="10" x1="262.923" y1="271.518" x2="293.119" y2="271.518"/>
			<path fill="none" stroke="#1D91C2" stroke-linecap="round" stroke-miterlimit="10" d="M276.357,271.518v12.052
				c0,0,0.564,2.196,2.719,2.196c0-2.931,0-14.249,0-14.249"/>
		</g>
	</g>
	<g>
		<g>
			<path fill="#B2B9BB" d="M702.422,111.587c-1.086-0.172-2.133,0.569-2.314,1.667l-2.004,12.352h-9.463v-10.958h-2.016v10.958
				h-10.307v-11.314h-2.016v11.314h-9.77v-11.136h-2.018v11.136h-10.307v-11.136h-2.014v11.136h-10.131v-11.314h-2.016v11.314
				H627.93l-1.516-11.751c-0.141-1.104-1.115-1.89-2.258-1.741c-1.104,0.142-1.883,1.153-1.74,2.256l4.463,34.643
				c0.131,1.007,0.986,1.758,2,1.758h67.5c0.99,0,1.834-0.716,1.992-1.692l5.713-35.178
				C704.266,112.802,703.52,111.765,702.422,111.587z M697.776,127.621l-1.732,10.655l-7.402-0.02V127.62L697.776,127.621
				L697.776,127.621z M686.625,127.621v10.633l-10.307-0.027v-10.604L686.625,127.621L686.625,127.621z M652.211,140.18
				l10.307,0.025v6.533h-10.307V140.18z M650.198,146.739h-10.129v-6.588l10.129,0.025V146.739z M664.534,140.211l9.771,0.025v6.502
				h-9.771V140.211z M676.319,140.241l10.307,0.027v6.47h-10.307V140.241z M674.305,127.621v10.603l-9.771-0.026v-10.576H674.305z
				 M662.518,127.621v10.569l-10.307-0.025v-10.544H662.518L662.518,127.621z M650.198,127.621v10.54l-10.129-0.024v-10.516H650.198
				z M638.053,127.621v10.509l-8.51-0.021l-1.352-10.487H638.053z M629.803,140.123l8.25,0.022v6.594h-7.396L629.803,140.123z
				 M688.641,146.739v-6.466l7.076,0.018l-1.047,6.448H688.641z"/>
			<g>
				<path fill="#99A2A4" d="M707.813,109.38c0,3.5-2.838,6.34-6.34,6.34h-76.428c-3.502,0-6.342-2.84-6.342-6.34l0,0
					c0-3.501,2.84-6.34,6.342-6.34h76.428C704.975,103.04,707.813,105.878,707.813,109.38L707.813,109.38z"/>
			</g>
			<path fill="#B2B9BB" d="M637.668,110.141c-0.791,0-1.584-0.311-2.18-0.928c-1.156-1.201-1.119-3.115,0.084-4.273l18.932-18.215
				c1.201-1.159,3.113-1.122,4.271,0.083c1.158,1.203,1.119,3.115-0.08,4.274l-18.932,18.214
				C639.178,109.86,638.422,110.141,637.668,110.141z"/>
			<path fill="#B2B9BB" d="M686.598,110.319c-0.783,0-1.566-0.303-2.156-0.905l-18.75-19.106c-1.17-1.192-1.152-3.106,0.039-4.277
				c1.191-1.167,3.107-1.148,4.273,0.041l18.75,19.107c1.17,1.191,1.152,3.105-0.039,4.275
				C688.127,110.031,687.362,110.319,686.598,110.319z"/>
		</g>
	</g>
	<g>
		
			<rect x="286.451" y="5.103" transform="matrix(-0.9878 0.156 -0.156 -0.9878 645.2191 22.6399)" fill="#C69C6D" width="70.541" height="63.069"/>
		<g>
			
				<rect x="293.972" y="8.239" transform="matrix(-0.9878 0.156 -0.156 -0.9878 600.1302 -7.1524)" fill="#A37036" width="12.748" height="23.459"/>
			
				<rect x="330.543" y="2.484" transform="matrix(-0.9878 0.1559 -0.1559 -0.9878 671.9287 -24.2733)" fill="#A37036" width="12.747" height="23.459"/>
		</g>
	</g>
	<g>
		
			<rect x="5.254" y="119.999" transform="matrix(-0.9906 -0.1369 0.1369 -0.9906 50.5147 324.3748)" fill="#F2AE1D" width="62.314" height="80.902"/>
		<g>
			
				<ellipse transform="matrix(-0.1369 0.9906 -0.9906 -0.1369 191.4042 100.4775)" fill="#666666" cx="51.929" cy="133.624" rx="1.853" ry="1.904"/>
			
				<ellipse transform="matrix(0.1368 -0.9906 0.9906 0.1368 -104.3883 141.0381)" fill="#666666" cx="28.735" cy="130.418" rx="1.854" ry="1.904"/>
			<path fill="none" stroke="#C8E889" stroke-width="2" stroke-linecap="round" stroke-miterlimit="10" d="M52.051,132.783
				c1.492-10.8,8.062-28.291-7.614-30.458"/>
			<path fill="none" stroke="#C8E889" stroke-width="2" stroke-linecap="round" stroke-miterlimit="10" d="M28.847,129.575
				c1.492-10.8-0.088-29.417,15.59-27.25"/>
		</g>
		<path fill="#FBE45F" d="M62.239,201.07l-0.33,0.194l-3.796-3.958l-4.724,2.779L49.6,196.13l-4.723,2.779l-3.792-3.956l-4.721,2.78
			l-3.791-3.957l-4.719,2.78l-3.787-3.956l-4.721,2.779l-3.786-3.955l-4.72,2.778l-3.79-3.955l-4.721,2.779l-1.646-1.72l0.599-4.341
			l1.648,1.72l4.721-2.781l3.791,3.958l4.721-2.781l3.785,3.956l4.72-2.781l3.786,3.956l4.72-2.779l3.791,3.957l4.721-2.779
			l3.791,3.958l4.725-2.78l3.791,3.957l4.723-2.779l3.796,3.958l0.33-0.193L62.239,201.07z M66.127,170.757l-3.795-3.958
			l-4.725,2.781l-3.79-3.958l-4.723,2.78l-3.791-3.957l-4.723,2.78l-3.789-3.957l-4.721,2.78l-3.788-3.955l-4.717,2.778
			l-3.787-3.956l-4.72,2.78l-3.792-3.956l-4.72,2.78L4.9,160.8l-0.6,4.342l1.646,1.721l4.722-2.78l3.79,3.957l4.719-2.778
			l3.786,3.954l4.721-2.778l3.786,3.956l4.721-2.781l3.791,3.957l4.721-2.78l3.791,3.956l4.725-2.78l3.789,3.957l4.724-2.778
			l3.795,3.956l0.33-0.193l0.601-4.338L66.127,170.757z M63.715,188.204l-3.795-3.959l-4.723,2.779l-3.791-3.956l-4.725,2.779
			l-3.79-3.957l-4.722,2.78l-3.79-3.958l-4.721,2.78l-3.786-3.956l-4.719,2.78l-3.785-3.956l-4.721,2.781l-3.791-3.957l-4.721,2.779
			l-1.648-1.72l-0.6,4.342l1.647,1.72l4.721-2.781l3.791,3.957l4.72-2.779l3.786,3.956l4.721-2.78l3.786,3.956l4.721-2.778
			l3.791,3.956l4.722-2.78l3.791,3.956l4.724-2.779l3.789,3.957l4.725-2.78l3.795,3.957l0.331-0.192l0.6-4.338L63.715,188.204z
			 M64.921,179.48l-3.795-3.958l-4.725,2.781l-3.791-3.958l-4.723,2.778l-3.791-3.957l-4.721,2.78l-3.791-3.957l-4.721,2.781
			l-3.786-3.957l-4.719,2.78l-3.786-3.956l-4.721,2.78l-3.79-3.957l-4.722,2.78l-1.646-1.721l-0.601,4.341l1.647,1.722l4.721-2.781
			l3.791,3.958l4.72-2.78l3.785,3.956l4.721-2.78l3.786,3.955l4.721-2.78l3.79,3.958l4.722-2.78l3.79,3.956l4.725-2.779l3.788,3.957
			l4.725-2.779l3.795,3.956l0.33-0.194l0.601-4.338L64.921,179.48z M69.745,144.591l-3.796-3.958l-4.725,2.778l-3.79-3.956
			l-4.723,2.78l-3.79-3.958l-4.724,2.78l-3.79-3.957l-4.719,2.779l-3.788-3.956l-4.719,2.78l-3.785-3.956l-4.722,2.781l-3.791-3.958
			l-4.719,2.779l-1.647-1.721l-0.601,4.343l1.647,1.72l4.721-2.78l3.791,3.956l4.72-2.78l3.785,3.956l4.721-2.78l3.786,3.957
			l4.721-2.78l3.791,3.957l4.721-2.78l3.791,3.956l4.724-2.779l3.789,3.956l4.725-2.779l3.795,3.957l0.33-0.194l0.601-4.338
			L69.745,144.591z M68.539,153.313l-3.795-3.958l-4.724,2.779l-3.791-3.958l-4.723,2.78L47.715,147l-4.723,2.78l-3.791-3.957
			l-4.719,2.78l-3.788-3.956l-4.719,2.78l-3.785-3.956l-4.721,2.78l-3.791-3.958l-4.719,2.779l-1.647-1.72l-0.601,4.342l1.648,1.72
			l4.721-2.779l3.791,3.955l4.72-2.779l3.785,3.958l4.721-2.781l3.786,3.957l4.721-2.781l3.79,3.958l4.721-2.781l3.791,3.957
			l4.725-2.779l3.789,3.957l4.725-2.78l3.795,3.958l0.33-0.194l0.601-4.338L68.539,153.313z M67.333,162.035l-3.795-3.957
			l-4.725,2.78l-3.791-3.958l-4.723,2.781l-3.791-3.958l-4.723,2.779l-3.791-3.956l-4.719,2.78l-3.787-3.957l-4.719,2.781
			l-3.785-3.956l-4.722,2.78l-3.79-3.957l-4.72,2.781l-1.647-1.722l-0.601,4.341l1.647,1.723l4.721-2.781l3.791,3.957l4.719-2.78
			l3.785,3.957l4.721-2.781l3.786,3.958l4.72-2.781l3.791,3.958l4.722-2.78l3.79,3.956l4.725-2.78l3.789,3.957l4.725-2.78
			l3.795,3.957l0.331-0.193l0.601-4.339L67.333,162.035z"/>
	</g>
	<g>
		<path fill="#36BEBE" d="M61.008,419.239c1.055,0.957,0.835,3.584,0.501,4.329c-0.333,0.743-1.746,1.104-3.138,0.803
			c-1.389-0.298-2.864,1.018-3.274,2.929c-0.41,1.912,0.388,3.717,1.779,4.019c1.388,0.3,2.514,2.671,2.593,3.486
			c0.084,0.817-0.955,1.841-2.308,2.273c-1.354,0.437-1.971,2.314-1.373,4.174c0.594,1.857,2.19,3.021,3.545,2.591
			c1.354-0.438,2.797-0.214,3.207,0.497c0.41,0.709,0.879,3.297-0.075,4.352c-0.956,1.051-0.553,2.985,0.896,4.298
			c1.449,1.313,3.416,1.521,4.37,0.471c0.952-1.059,3.583-0.842,4.325-0.508c0.747,0.336,1.108,1.745,0.806,3.139
			c-0.298,1.389,1.017,2.863,2.927,3.273c1.911,0.412,3.715-0.383,4.016-1.773c0.299-1.393,2.673-2.52,3.488-2.602
			c0.818-0.079,1.84,0.961,2.276,2.313c0.435,1.351,2.31,1.967,4.17,1.37c1.858-0.598,3.025-2.193,2.592-3.545
			c-0.438-1.355,1.082-3.529,1.737-4.005c0.656-0.474,2.059-0.078,3.111,0.874c1.053,0.954,2.984,0.55,4.294-0.896
			c1.315-1.443,1.521-3.413,0.469-4.367c-1.054-0.959-0.837-3.589-0.501-4.33c0.333-0.742,1.746-1.104,3.139-0.803
			c1.387,0.305,2.861-1.015,3.274-2.923c0.409-1.91-0.391-3.721-1.778-4.017c-1.39-0.298-2.514-2.679-2.599-3.491
			c-0.08-0.815,0.961-1.841,2.314-2.275c1.351-0.438,1.968-2.313,1.371-4.169c-0.599-1.861-2.194-3.023-3.547-2.59
			c-1.354,0.436-3.529-1.084-4.005-1.742c-0.47-0.655-0.078-2.054,0.877-3.11c0.954-1.051,0.547-2.982-0.898-4.293
			c-1.448-1.313-3.41-1.521-4.366-0.467c-0.956,1.053-3.586,0.836-4.329,0.5c-0.741-0.34-1.104-1.745-0.807-3.136
			c0.3-1.393-1.014-2.865-2.924-3.277c-1.911-0.413-3.717,0.388-4.015,1.779c-0.299,1.386-2.678,2.517-3.491,2.594
			c-0.814,0.08-1.834-0.959-2.274-2.311c-0.432-1.354-2.312-1.972-4.169-1.374c-1.861,0.604-3.026,2.192-2.593,3.547
			c0.434,1.357-1.082,3.527-1.737,4.002c-0.66,0.474-2.055,0.081-3.111-0.87c-1.048-0.954-2.984-0.554-4.295,0.895
			C60.161,416.321,59.952,418.286,61.008,419.239z M76.73,418.241c8.145-2.622,16.87,1.856,19.488,10.003
			c2.621,8.145-1.855,16.87-10,19.487c-8.144,2.621-16.87-1.859-19.49-10C64.109,429.587,68.583,420.863,76.73,418.241z"/>
		<path fill="#36BEBE" d="M33.167,399.192c0.68,0.614,0.539,2.307,0.324,2.783c-0.213,0.48-1.124,0.711-2.02,0.517
			c-0.894-0.189-1.839,0.654-2.105,1.886c-0.265,1.229,0.249,2.388,1.144,2.584c0.893,0.192,1.615,1.719,1.669,2.241
			c0.055,0.525-0.617,1.185-1.485,1.462c-0.871,0.283-1.268,1.49-0.882,2.688c0.382,1.195,1.407,1.944,2.279,1.665
			c0.874-0.278,1.797-0.138,2.063,0.319c0.263,0.457,0.56,2.122-0.051,2.799c-0.612,0.679-0.35,1.922,0.578,2.769
			c0.932,0.842,2.197,0.978,2.808,0.3c0.615-0.685,2.307-0.539,2.784-0.324c0.477,0.214,0.71,1.123,0.519,2.019
			c-0.195,0.892,0.653,1.843,1.882,2.107c1.228,0.262,2.392-0.252,2.584-1.146c0.191-0.892,1.72-1.619,2.244-1.668
			c0.525-0.055,1.182,0.615,1.464,1.485c0.278,0.87,1.483,1.266,2.682,0.883c1.195-0.386,1.945-1.412,1.664-2.283
			c-0.28-0.87,0.698-2.268,1.122-2.573c0.421-0.305,1.322-0.049,1.998,0.561c0.678,0.617,1.922,0.354,2.764-0.575
			c0.844-0.927,0.98-2.194,0.302-2.808c-0.679-0.615-0.538-2.309-0.323-2.784c0.217-0.479,1.124-0.711,2.019-0.52
			c0.895,0.192,1.843-0.652,2.107-1.882c0.264-1.227-0.251-2.39-1.143-2.582c-0.893-0.189-1.621-1.722-1.673-2.243
			c-0.05-0.526,0.618-1.183,1.485-1.465c0.872-0.279,1.271-1.488,0.887-2.681c-0.387-1.195-1.413-1.95-2.283-1.668
			c-0.87,0.281-2.271-0.697-2.573-1.121c-0.307-0.42-0.054-1.317,0.562-1.997c0.612-0.678,0.35-1.923-0.579-2.765
			c-0.931-0.843-2.195-0.976-2.808-0.303c-0.616,0.679-2.308,0.537-2.783,0.326c-0.48-0.222-0.713-1.123-0.519-2.021
			c0.191-0.892-0.657-1.841-1.884-2.104c-1.23-0.268-2.389,0.25-2.581,1.144c-0.194,0.893-1.719,1.617-2.244,1.673
			c-0.527,0.047-1.182-0.618-1.465-1.49c-0.278-0.869-1.486-1.269-2.683-0.883c-1.195,0.385-1.945,1.414-1.667,2.282
			c0.282,0.872-0.693,2.267-1.119,2.569c-0.422,0.309-1.322,0.056-2-0.559c-0.674-0.609-1.917-0.355-2.764,0.577
			C32.624,397.315,32.488,398.579,33.167,399.192z M43.28,398.549c5.239-1.686,10.854,1.197,12.537,6.436
			c1.685,5.238-1.195,10.852-6.436,12.535c-5.236,1.685-10.849-1.196-12.534-6.432C35.164,405.848,38.043,400.234,43.28,398.549z"/>
		<path fill="#36BEBE" d="M32.417,431.557c0.521,0.471,0.413,1.771,0.248,2.138c-0.163,0.365-0.861,0.547-1.55,0.398
			c-0.686-0.149-1.416,0.504-1.619,1.445c-0.203,0.943,0.192,1.839,0.881,1.985c0.682,0.148,1.243,1.322,1.282,1.722
			c0.041,0.405-0.47,0.913-1.142,1.125c-0.668,0.217-0.973,1.147-0.675,2.067c0.29,0.92,1.079,1.494,1.75,1.281
			c0.668-0.224,1.386-0.107,1.583,0.244c0.206,0.35,0.436,1.629-0.038,2.149c-0.472,0.521-0.271,1.48,0.445,2.126
			c0.717,0.649,1.687,0.752,2.157,0.231c0.475-0.522,1.776-0.415,2.142-0.25c0.366,0.167,0.547,0.861,0.396,1.554
			c-0.146,0.686,0.504,1.415,1.446,1.62c0.946,0.201,1.84-0.194,1.989-0.881c0.146-0.688,1.322-1.245,1.724-1.283
			c0.403-0.045,0.907,0.474,1.124,1.145c0.214,0.664,1.143,0.971,2.063,0.676c0.919-0.295,1.495-1.085,1.278-1.754
			c-0.212-0.669,0.538-1.743,0.86-1.979c0.328-0.236,1.019-0.035,1.541,0.438c0.52,0.468,1.477,0.27,2.123-0.448
			c0.648-0.712,0.753-1.686,0.231-2.159c-0.523-0.472-0.413-1.772-0.246-2.138c0.162-0.366,0.863-0.548,1.549-0.396
			c0.684,0.148,1.417-0.503,1.62-1.449c0.204-0.941-0.192-1.837-0.877-1.983c-0.691-0.148-1.247-1.323-1.285-1.728
			c-0.043-0.401,0.472-0.909,1.142-1.125c0.67-0.214,0.975-1.142,0.68-2.059c-0.3-0.921-1.085-1.499-1.758-1.28
			c-0.667,0.212-1.741-0.536-1.974-0.861c-0.236-0.327-0.041-1.016,0.433-1.537c0.468-0.523,0.27-1.479-0.448-2.123
			c-0.713-0.648-1.685-0.754-2.155-0.23c-0.472,0.521-1.775,0.411-2.141,0.246c-0.368-0.166-0.545-0.863-0.398-1.553
			c0.148-0.687-0.505-1.416-1.448-1.619c-0.946-0.202-1.835,0.192-1.985,0.877c-0.146,0.689-1.321,1.246-1.724,1.286
			c-0.404,0.041-0.909-0.474-1.123-1.146c-0.217-0.664-1.145-0.97-2.064-0.676c-0.92,0.295-1.495,1.086-1.28,1.754
			c0.216,0.672-0.536,1.745-0.862,1.98c-0.325,0.231-1.014,0.04-1.534-0.436c-0.522-0.469-1.479-0.27-2.128,0.446
			C32,430.113,31.897,431.083,32.417,431.557z M40.189,431.058c4.028-1.294,8.341,0.922,9.638,4.947
			c1.296,4.025-0.919,8.343-4.942,9.64c-4.028,1.297-8.344-0.922-9.64-4.949C33.953,436.671,36.164,432.355,40.189,431.058z"/>
	</g>
	<g id="surface1">
		<path fill="#EDEDED" d="M379.631,602.546c-1.748,0.285-3.594,0.405-5.5,0.341c-0.141-0.004-0.283-0.011-0.424-0.019
			c-4.063-0.194-7.779-1.22-10.77-2.803c-4.52-2.396-7.373-6.072-7.234-10.097c0.18-5.313,5.51-9.66,12.816-11.126
			c0.928-0.185,1.775-0.6,2.48-1.188c0.701-0.588,1.258-1.352,1.604-2.232c1.143-2.908-0.189-6.206-3.042-7.497
			c-3.905-1.769-9.729-3.822-16.025-4.035c-21.153-0.721-38.952,16.395-39.958,37.536c-1.048,22.021,16.125,40.571,38.092,41.29
			c18.042,0.592,33.798-11.228,38.947-27.743c0.041-0.133,0.082-0.28,0.123-0.444C392.385,607.751,386.515,601.427,379.631,602.546z
			 M371.088,625.081c-3.155-0.106-5.625-2.749-5.516-5.901c0.105-3.156,2.748-5.625,5.903-5.519
			c3.153,0.108,5.623,2.749,5.515,5.907C376.883,622.719,374.243,625.187,371.088,625.081z"/>
		<path fill="#42C0E2" d="M358.788,630.454c-1.111,3.689-5.004,5.78-8.695,4.668c-3.691-1.111-5.78-5.006-4.668-8.695
			c1.113-3.691,5.005-5.782,8.696-4.67S359.901,626.764,358.788,630.454z"/>
		<path fill="#49BD90" d="M341.416,620.142c-1.113,3.69-5.006,5.78-8.697,4.669c-3.691-1.112-5.78-5.006-4.667-8.697
			c1.112-3.688,5.005-5.779,8.696-4.668C340.438,612.558,342.528,616.453,341.416,620.142z"/>
		<path fill="#FA70B2" d="M335.223,600.494c-1.112,3.69-5.006,5.781-8.696,4.669c-3.691-1.111-5.781-5.007-4.668-8.696
			c1.113-3.691,5.006-5.782,8.697-4.67S336.335,596.803,335.223,600.494z"/>
		<path fill="#FFD061" d="M346.479,583.344c-1.113,3.689-5.007,5.779-8.698,4.668c-3.691-1.112-5.78-5.007-4.667-8.697
			c1.112-3.691,5.005-5.78,8.696-4.668S347.591,579.654,346.479,583.344z"/>
		<path fill="#FFD061" d="M389.256,604.981l-5.467,14.073l-11.605,29.859c-0.232,0.604-0.813,1.028-1.566,1.232
			c-0.752,0.202-1.683,0.182-2.621-0.104c-1.875-0.574-3.123-2.016-2.836-3.275l7.094-31.241l3.346-14.724L389.256,604.981z"/>
		<path fill="#666666" d="M383.79,619.054l5.467-14.073l-9.807-3.001l-3.852-1.179l-3.344,14.724l3.584,1.097L383.79,619.054z"/>
		<path fill="#FA70B2" d="M375.599,600.802c-5.41-4.699-3.231-14.306,4.039-18.166c7.271-3.863,10.713-6.413,11.858-10.157
			c0,0,13.941,26.735-2.24,32.504L375.599,600.802z"/>
	</g>
	<g>
		<rect x="639.254" y="480.062" fill="#ABF0FF" width="56.863" height="47.966"/>
		<rect x="639.254" y="482.874" fill="#BABABA" fill-opacity="0.5" width="56.863" height="12.201"/>
		<rect x="637.991" y="479.68" fill="#ABF0FF" width="59.625" height="12.201"/>
		<g>
			<path fill="#ED3988" d="M664.879,478.821c-2.525-6.072-15.514-19.872-20.217-15.141c-4.703,4.73,5.988,15.755,19.41,16
				C664.563,479.68,664.879,478.821,664.879,478.821z"/>
			<path fill="#D92B78" d="M662.883,478.111c-3.467-5.085-15.039-11.018-15.828-8.938
				C646.268,471.251,656.729,478.859,662.883,478.111z"/>
		</g>
		<g>
			<path fill="#ED3988" d="M670.59,478.821c2.523-6.072,15.51-19.872,20.215-15.141c4.703,4.73-5.988,15.755-19.41,16
				C670.905,479.68,670.59,478.821,670.59,478.821z"/>
			<path fill="#D92B78" d="M672.584,478.111c3.469-5.085,15.041-11.018,15.828-8.938
				C689.202,471.251,678.739,478.859,672.584,478.111z"/>
		</g>
		<path fill="#ED3988" d="M671.081,478.336c0,1.442-1.17,2.613-2.615,2.613h-1.322c-1.443,0-2.615-1.171-2.615-2.613l0,0
			c0-1.443,1.172-2.613,2.615-2.613h1.322C669.911,475.722,671.081,476.892,671.081,478.336L671.081,478.336z"/>
		<path fill="#D92B78" d="M668.465,478.336h-1.322c-0.965,0-1.799-0.528-2.252-1.308c-0.225,0.386-0.363,0.828-0.363,1.308
			c0,1.442,1.172,2.613,2.615,2.613h1.322c1.445,0,2.615-1.171,2.615-2.613c0-0.479-0.139-0.922-0.361-1.308
			C670.266,477.807,669.432,478.336,668.465,478.336z"/>
		<rect x="662.09" y="479.135" fill="#ED3988" width="11.426" height="49.23"/>
	</g>
</g>
</svg>
