<?xml version="1.0" encoding="utf-8"?>
<!-- Generator: Adobe Illustrator 16.0.0, SVG Export Plug-In . SVG Version: 6.00 Build 0)  -->
<!DOCTYPE svg PUBLIC "-//W3C//DTD SVG 1.1//EN" "http://www.w3.org/Graphics/SVG/1.1/DTD/svg11.dtd">
<svg version="1.1" id="Layer_1" xmlns="http://www.w3.org/2000/svg" xmlns:xlink="http://www.w3.org/1999/xlink" x="0px" y="0px"
	 width="200px" height="200px" viewBox="0 0 200 200" enable-background="new 0 0 200 200" xml:space="preserve">
<g>
	<path fill="#FFFFFF" d="M100,195c-52.383,0-95-42.617-95-95S47.617,5,100,5s95,42.617,95,95C195,152.382,152.383,195,100,195z"/>
	<path fill="#F3F3F3" d="M100,10c49.626,0,90,40.374,90,90c0,49.625-40.374,90-90,90s-90-40.375-90-90C10,50.374,50.374,10,100,10
		 M100,0C44.771,0,0,44.771,0,100c0,55.229,44.771,100,100,100c55.229,0,100-44.771,100-100C200,44.771,155.229,0,100,0L100,0z"/>
</g>
<g>
	<path fill="#445EA0" d="M168.103,100c0,37.612-30.49,68.103-68.103,68.103c-3.541,0-7.019-0.27-10.412-0.79
		c-3.083-0.472-6.096-1.153-9.029-2.023c-24.911-7.408-43.852-28.684-47.871-54.877c-0.513-3.346-0.782-6.773-0.79-10.263V100
		c0-37.612,30.49-68.103,68.103-68.103c10.445,0,20.345,2.352,29.19,6.555c1.647,0.783,3.263,1.631,4.836,2.542
		c5.017,2.899,9.632,6.419,13.734,10.455c5.656,5.567,10.343,12.11,13.787,19.363C165.751,79.658,168.103,89.557,168.103,100z"/>
	<path opacity="0.1" d="M150.034,92.009l-1.1-19.634l-1.174-20.925l-0.006-0.086c-0.308-5.485-4.686-9.86-10.167-10.168
		l-3.562-0.201l-3.631-0.203l-13.82-0.778l-19.636-1.104c-2.29-0.131-4.525,0.722-6.148,2.347l-58.894,58.892
		c0.008,3.489,0.277,6.917,0.79,10.263c4.019,26.193,22.96,47.469,47.871,54.877l67.13-67.135
		C149.312,96.533,150.166,94.299,150.034,92.009z M131.068,73.615c-4.344,4.345-11.391,4.348-15.735,0.003
		c-4.348-4.35-4.345-11.396,0-15.741s11.392-4.348,15.741,0C135.419,62.221,135.416,69.268,131.068,73.615z"/>
	<path fill="#F26065" d="M161.548,70.813l-1.179-21.012c-0.309-5.484-4.687-9.86-10.168-10.168l-7.191-0.403l-13.819-0.777
		l-19.638-1.105c-2.29-0.128-4.525,0.725-6.147,2.347l-70.718,70.718c4.491,29.276,27.624,52.409,56.9,56.9l70.716-70.719
		c1.621-1.621,2.474-3.856,2.347-6.146L161.548,70.813z M143.684,72.053c-4.345,4.345-11.392,4.348-15.736,0.003
		c-4.348-4.35-4.345-11.396,0-15.741s11.392-4.348,15.741,0C148.033,60.659,148.03,67.706,143.684,72.053z"/>
	
		<text transform="matrix(0.7071 0.7071 -0.7071 0.7071 64.4395 108.2012)" fill="#FFFFFF" font-family="'GothamRounded-Medium'" font-size="63.8464">$</text>
</g>
</svg>
